ply
format ascii 1.0
comment Created by Open3D
element vertex 981
property double x
property double y
property double z
end_header
59.6734 123.147 124.334
41.2117 95.4578 106.002
31.644 87.5338 98.0868
37.1731 173.607 119.926
46.2868 155.791 73.9599
34.8801 138.345 95.8666
51.1617 108.321 69.5531
46.3975 164.488 78.7832
42.5878 142.221 89.6811
85.804 61.6447 130.657
89.392 168.096 165.598
75.5831 106.852 56.3113
34.6141 150.241 89.7689
21.7857 83.3467 118.102
100.847 162.696 160.23
49.5428 93.3479 108.383
34.8603 124.795 122.08
45.3804 116.891 66.2404
36.7039 125.154 170.042
54.0292 73.2514 174.949
39.1778 114.77 83.7448
40.9882 99.1311 150.32
17.9721 129.034 96.656
35.5043 107.851 75.2491
61.4308 116.146 73.4083
40.677 143.069 78.9081
52.9103 117.018 90.3071
31.1287 131.977 103.981
18.5378 93.9125 103.783
43.3351 127.14 94.1734
34.2069 71.8759 114.109
16.7775 89.381 115.851
93.0752 159.736 168.683
89.0819 84.4256 181.659
37.5041 118.576 94.792
77.6792 79.3803 96.2851
33.293 122.074 86.9885
79.1744 60.15 133.607
30.4499 98.1555 104.096
17.7091 145.891 136.362
24.3413 150.332 86.3528
40.7445 76.4628 143.344
80.5717 141.496 184.216
53.4269 121.303 64.0706
37.7561 86.9417 109.552
47.9743 141.51 95.5735
63.397 95.8721 81.252
31.8601 155.286 79.8567
47.6553 64.3485 129.376
47.3218 68.6881 105.369
34.6976 91.5921 93.345
28.1069 113.744 129.66
31.394 104.196 149.317
74.7434 153.929 115.731
74.4859 154.996 153.064
54.5196 150.726 68.9587
16.4853 147.62 96.8121
51.7406 112.213 93.7787
80.9832 65.4034 113.905
99.2416 105.517 189.502
50.8237 127.594 92.6426
91.41 126.658 187.304
22.2197 151.341 96.1181
27.0872 121.867 144.055
53.1006 75.5599 133.516
79.7399 151.279 145.489
30.4435 112.566 96.9926
24.4197 80.317 132.012
22.1298 119.232 154.056
46.2551 148.694 69.4722
70.6231 142.39 83.3819
93.9396 112.65 187.743
80.6137 118.527 194.927
109.144 152.782 162.551
47.5102 79.3063 178.065
34.2288 169.698 89.7306
39.6043 127.89 99.5974
19.6205 139.344 87.7117
80.6355 88.177 181.716
21.6615 141.234 114.43
57.5992 121.695 73.0369
78.5059 94.7539 189.456
17.382 125.636 103.992
34.3891 124.969 103.781
71.7385 152.396 134.841
92.9221 153.617 175.054
58.9712 130.872 106.862
16.3124 88.7252 124.6
46.5414 118.34 87.3468
29.1508 98.2006 168.073
45.2264 122.102 77.6244
16.7955 130.532 124.361
81.2221 148.751 179.562
40.9211 132.513 67.8437
30.3838 79.3657 111.535
79.1863 152.404 80.1657
40.8835 73.0476 104.288
23.3928 142.917 139.262
51.9774 62.5472 122.536
61.2374 124.771 92.9348
30.1415 160.051 128.746
63.4705 179.121 97.5776
60.3628 168.457 110.556
40.9722 88.7093 92.5763
85.656 172.155 105.42
62.1883 126.999 85.1136
54.3291 152.336 88.6968
22.894 154.049 133.078
76.5821 159.096 82.5694
81.8227 121.721 170.825
44.9675 109.601 168.237
67.1826 69.2666 172.589
53.7906 171.134 84.5238
59.2312 66.8518 167.505
27.2712 122.629 128.585
49.2309 78.6462 166.82
45.0791 97.7038 94.3539
60.4916 63.4659 154.593
20.3968 156.908 99.6615
44.2013 74.3594 135.707
68.6847 181.726 140.703
104.9 163.618 117.319
54.7329 124.215 80.2877
57.7976 89.4537 110.983
26.9352 133.017 74.0113
42.4579 106.098 71.6662
79.7382 152.105 172.047
18.7555 150.747 119.157
68.9081 117.902 101.369
59.3899 129.326 64.6691
72.1031 146.206 71.8584
25.1349 116.924 161.997
42.9651 94.3543 84.0427
16.2538 140.435 102.458
18.905 136.472 97.6162
46.4743 138.983 62.6301
48.957 78.921 107.86
52.5391 158.662 82.5026
20.638 84.1368 127.988
31.261 83.6107 133.021
42.3228 94.2738 178.892
92.3832 178.316 123.106
70.5873 81.4405 110.737
83.0095 107.042 154.775
70.4566 163.543 86.4623
20.1609 120.677 94.1941
90.6867 177.248 115.835
91.9967 151.347 84.9336
62.8851 107.675 114.18
53.3348 93.5788 117.71
51.1781 88.1354 89.043
68.4509 97.2634 126.837
16.7527 114.955 100.833
68.017 124.986 68.789
67.9912 90.022 172.629
51.5129 102.76 177.81
38.0378 102.687 76.7868
82.8285 86.1939 188.057
39.8617 141.15 127.202
35.9934 110.418 90.3224
54.9264 142.648 168.403
76.5946 74.1712 104.424
56.6068 102.492 187.171
59.6492 91.8375 101.841
104.548 90.9918 174.823
37.4696 119.491 114.989
77.4284 99.4298 152.496
38.3083 73.5189 153.497
20.5501 149.346 127.137
19.8086 105.464 157.913
21.256 155.503 113.624
68.3376 98.938 168.722
60.9268 99.9752 72.3551
86.3448 168.865 144.751
41.1957 66.3741 141.813
25.4138 98.4526 91.4353
60.6657 104.329 120.249
68.3154 146.279 180.459
69.6769 58.2155 136.882
23.452 112.036 155.625
55.3968 66.787 113.073
50.6601 130.128 64.2848
69.0949 157.182 126.173
55.4468 179.362 139.956
20.9341 102.472 128.057
23.0212 122.066 164.145
35.212 142.944 101.669
81.1741 114.824 185.837
46.8088 95.4329 153.024
28.841 169.115 96.9574
92.3224 82.6401 106.439
89.331 171.885 111.568
24.9188 124.066 115.47
73.5535 163.784 155.528
41.3469 78.7374 157.335
96.4635 164.497 141.846
42.2169 66.0822 129.729
62.1891 120.101 162.549
113.72 155.594 143.2
34.7558 141.173 167.49
46.0977 105.532 83.4061
42.7448 68.9461 113.047
73.6841 142.157 132.999
92.8391 169.635 104.793
38.837 93.133 172.649
48.7151 88.5417 152.134
50.8386 130.892 179.628
45.3672 149.76 95.7555
20.1812 127.287 86.5862
54.171 176.177 146.553
47.7888 111.327 154.178
34.2671 131.085 167.58
74.8858 134.783 171.936
69.8311 120.559 181.289
33.9128 127.124 159.948
36.1412 106.049 119.026
20.0563 118.966 120.902
48.1615 64.8026 115.559
50.7595 109.121 142.646
47.7674 141.499 170.621
51.7195 140.017 177.177
16.4819 132.156 115.444
70.9703 114.655 68.4309
64.0963 94.7432 175.444
55.2518 173.048 104.361
18.0539 127.559 113.489
60.1369 96.9458 133.059
36.4825 69.4903 126.314
34.4155 144.887 120.927
96.8321 90.9699 129.869
55.028 144.387 64.156
38.9132 66.4655 119.633
63.6665 152.663 139.909
31.8187 96.6178 156.563
52.277 93.1447 185.609
46.4727 141.278 72.0887
80.3371 113.599 89.8655
32.587 123.111 149.449
68.4018 170.282 165.239
100.028 86.9641 107.315
91.9744 65.4091 140.432
61.3065 109.546 190.235
70.4592 136.115 156.737
36.7801 112.497 121.425
19.0382 157.14 106.279
45.7097 127.013 163.624
62.5148 107.573 73.4837
28.6387 119.462 168.853
17.3367 110.429 107.277
67.8616 101.096 98.2937
62.6677 83.9843 166.459
37.7552 168.597 105.242
72.1913 164.5 146.91
68.7465 120.204 116.258
85.6044 138.615 187.512
50.7137 113.646 176.594
61.7272 73.3345 103.244
77.3068 182.681 138.807
47.1526 66.289 157.267
39.0035 149.752 100.994
34.7137 98.8862 82.4408
55.2345 81.3345 95.851
53.1036 97.8839 75.5207
26.0792 146.036 155.778
35.4574 130.853 93.5828
62.5966 109.135 96.6151
24.9185 165.903 101.003
22.6805 159.401 93.623
51.4776 59.6248 136.583
24.7507 137.115 121.984
59.2363 147.784 92.7211
68.949 153.55 158.577
37.8762 70.0176 132.824
38.4676 144.993 71.348
30.9406 104.575 83.1788
30.2728 91.7591 107.694
40.8798 120.353 174.536
48.4775 87.7487 111.857
61.9953 140.788 169.808
46.4484 168.724 126.91
24.9249 150.417 104.558
41.3778 97.7376 77.9516
75.4111 144.822 96.0299
52.6491 156.97 157.657
16.0839 150.374 109.715
87.9794 166.894 156.359
19.1033 145.602 106.979
37.7686 115.404 69.1577
39.3225 163.419 79.6678
25.6451 106.692 165.405
38.6341 110.256 157.648
55.3842 156.519 174.058
51.0227 115.483 132.213
51.1662 163.116 168.235
33.3757 128.852 71.2049
59.4917 147.745 84.0898
52.1021 135.528 162.525
52.9474 94.4413 84.107
59.8888 61.7369 130.583
55.2745 135.93 59.2457
30.552 165.099 87.1975
94.1486 137.788 184.966
30.0193 151.906 156.931
46.2141 71.5756 166.453
54.0224 144.314 82.9068
51.7218 135.738 129.476
94.666 79.0276 169.384
100.609 129.5 184.017
40.2435 168.44 85.2866
27.7334 133.33 113.647
47.1917 170.114 114.888
68.0952 169.276 87.0106
55.6779 113.108 185.56
33.4966 113.245 169.351
68.876 106.338 176.202
84.5296 176.259 112.24
102.589 99.5636 179.119
23.6941 136.834 139.266
39.8057 83.1058 98.3506
48.3109 166.726 163.357
47.9156 141.376 139.564
84.4169 181.8 135.204
78.9111 133.113 154.222
80.0445 85.3021 111.251
79.2944 126.354 152.998
76.6884 66.2191 166.299
20.7646 105.661 96.5206
46.4109 176.026 89.9365
27.1292 80.5366 122.549
31.08 110.938 161.931
82.8572 139.386 75.7501
53.0211 126.611 160.34
73.7072 69.5785 171.47
60.7829 68.4031 116.242
63.8744 158.248 175.225
80.8757 93.5819 102.022
60.406 145.952 74.9713
65.238 68.3455 164.866
20.0382 112.52 125.168
27.5663 121.547 109.347
46.3371 117.619 137.575
24.4162 84.2121 110.779
60.2116 139.595 129.455
86.6592 90.9227 171.482
30.3472 142.174 127.837
23.4423 120.236 84.4396
79.3412 140.255 87.1555
49.6786 177.029 127.148
85.4736 74.284 171.987
67.9465 62.7676 147.369
36.6466 96.9629 88.2575
69.9748 93.5013 99.5956
56.0347 98.7373 167.438
94.9907 83.8368 175.739
30.3323 84.5309 156.443
47.9659 78.985 146.907
71.3394 116.606 77.719
79.4162 175.974 108.072
62.3605 171.606 98.7209
105.898 119.653 185.045
37.6761 103.899 112.061
96.949 168.476 158.24
71.9135 137.824 125.392
55.6016 123.544 170.218
44.7155 128.035 122.409
49.7856 89.1564 99.6871
59.4282 181.997 107.328
31.8797 96.3224 121.855
35.0563 117.086 153.209
46.1416 125.367 146.54
66.1539 91.9378 110.727
55.9716 105.702 84.8849
59.9327 131.558 160.759
48.805 169.502 101.868
36.8904 155.075 147.016
78.2351 110.251 146.017
72.527 158.258 167.828
48.5898 124.156 128.446
28.3314 116.509 114.363
60.7177 169.263 82.7017
98.3272 174.082 135.877
49.9818 144.823 65.0272
38.6412 168.027 112.876
90.9165 170.544 118.928
57.6265 161.356 77.9511
16.63 117.784 107.402
69.4567 76.9612 102.794
96.2998 72.2419 119.293
40.1471 140.186 137.973
62.5551 171.837 88.8436
47.882 153.337 145.62
68.1289 179.829 108.855
64.3896 90.7222 179.422
63.6505 104.892 151.467
100.866 133.968 179.788
85.4491 105.184 194.569
27.8031 113.588 87.7956
80.8566 126.463 190.596
74.9445 144.323 180.403
55.3416 151.561 174.418
81.1388 107.676 184.566
66.3134 163.995 165.629
25.1733 111.687 102.46
28.8449 80.6029 144.796
94.3778 98.0364 189.182
99.3335 123.28 175.678
71.7956 132.738 161.691
36.3701 154.101 74.8222
71.5364 109.409 183.502
24.4648 142.238 102.244
78.0682 155.946 94.9479
70.7499 93.0108 86.0978
29.5805 148.462 93.6536
78.0526 59.7943 124.294
58.3148 147.276 179.359
62.7977 153.486 165.985
68.5812 120.269 82.2921
54.4835 181.022 102.686
55.4835 179.134 94.0368
77.4115 126.1 83.4794
34.0204 78.7034 154.081
26.8494 90.5071 139.627
91.9628 116.778 162.702
55.5728 90.8434 160.072
15.8508 141.921 123.337
92.8521 173.382 153.787
58.3919 69.8499 125.42
56.5062 174.696 153.285
47.8503 96.8399 79.6397
42.2584 116.396 152.359
95.0917 85.4555 160.31
50.3737 100.078 186.263
56.4171 81.4054 121.995
33.5148 135.91 131.952
48.2953 83.31 94.6479
73.9961 88.4591 104.229
68.8375 102.789 145.499
15.0581 132.957 103.334
25.6761 163.74 93.1885
32.6106 76.6312 119.466
30.8211 100.528 160.525
82.7184 154.174 104.704
105.234 141.623 173.886
110.639 161.069 140.846
58.1836 131.728 180.547
53.1833 86.4711 176.001
37.9779 80.8851 134.421
100.745 101.517 118.44
59.6553 149.221 151.261
85.2698 177.415 156.91
24.1068 102.592 140.643
34.946 100.314 168.463
31.3318 88.4815 123.287
90.4564 145.597 168.576
91.6778 179.201 145.762
76.5163 123.235 164.388
72.4289 111.027 100.63
107.09 129.739 181.732
42.9929 103.997 147.328
32.0491 105.615 94.3823
55.4764 108.873 133.538
71.0745 145.827 163.026
57.8626 100.364 95.2646
25.3276 148.403 118.859
113.418 143.058 167.734
73.9856 178.081 149.37
77.797 100.943 195.084
63.0599 93.6961 119.048
100.023 148.411 96.3409
17.5368 122.773 112.277
40.6034 127.248 132.162
65.4911 168.006 155.284
101.355 143.719 178.158
75.4756 97.0835 160.744
40.4677 172.795 89.9211
21.5275 87.213 135.641
100.916 160.296 100.859
57.9181 161.194 171.673
33.3662 121.182 76.5918
29.9388 166.931 113.71
97.2346 113.936 166.077
45.29 179.27 115.042
58.415 163.629 148.237
79.9144 162.024 168.708
61.0533 176.479 150.814
63.4123 180.716 143.896
32.7646 124.469 112.167
74.0044 169.968 139.757
68.8009 130.805 182.345
73.6441 115.943 193.351
48.5401 125.359 152.761
69.8045 163.259 79.0053
92.8601 67.8494 131.434
97.9812 102.701 182.15
52.3934 158.579 148.471
74.3511 175.861 107.887
31.2046 132.37 153.617
111.292 159.595 153.079
45.5223 80.6843 113.786
39.7128 116.474 107.671
100.159 168.203 125.831
82.3767 160.59 113.152
93.034 160.707 161.393
85.0293 144.936 145.648
49.959 156.842 170.315
18.0808 136.175 121.328
62.2932 79.3006 170.795
40.2834 124.59 66.8023
30.4078 152.144 131.168
66.6164 130.964 161.709
76.284 106.688 76.4904
39.9857 164.265 137.049
37.7533 86.1807 154.895
60.7407 161.558 97.1751
68.8861 119.274 191.215
42.0993 131.276 75.7723
66.1868 89.0911 94.1011
66.6432 153.335 176.136
48.1619 101.459 73.036
38.8843 154.625 129.089
69.2499 74.7953 158.11
60.0145 88.6013 91.4572
25.0081 89.9308 102.615
54.0729 112.434 125.108
48.1242 170.992 145.65
82.9316 165.909 97.959
17.9133 133.224 132.142
71.6217 111.197 169.338
105.862 116.324 150.475
66.6186 100.06 187.149
41.1634 92.4466 114.382
84.0416 158.849 162.794
42.8797 163.139 163.002
76.0969 103.375 100.144
91.2112 180.189 131.362
47.882 75.8334 96.5947
78.7507 142.346 166.726
68.4363 94.0642 158.535
49.7014 175.201 138.141
62.109 59.2519 137.658
113.293 117.631 169.618
83.0027 70.421 167.925
44.7442 145.884 130.993
65.5735 181.089 121.709
84.3969 75.8736 104.432
67.9661 81.8558 92.8272
41.2084 167.079 147.456
75.9058 64.6587 153.52
89.5505 68.6692 120.95
73.5873 99.739 140.446
65.9363 76.9164 177.66
99.5526 96.6426 166.917
112.266 151.327 153.575
36.5301 160.557 135.139
90.2267 161.221 148.348
64.7148 93.2601 165.471
47.2728 147.579 152.551
58.3585 91.7411 139.529
82.6324 75.8612 152.122
74.5456 140.972 162.423
72.0561 117.053 119.714
73.9316 86.9365 185.568
73.7632 133.975 67.2447
85.9362 153.013 173.735
26.3553 128.296 154.996
31.6632 144.674 135.265
70.1019 105.757 117.904
34.0213 117.586 135.798
41.1141 132.73 150.226
41.8326 105.209 156.059
47.9913 182.905 105.726
57.7139 180.512 125.247
99.9788 71.7368 137.709
51.2776 157.951 123.062
46.1634 173.284 108.678
21.192 139.663 147.75
41.7086 114.242 73.9221
71.723 155.959 93.0517
107.371 105.182 179.96
74.9574 125.377 187.712
84.5315 142.226 174.826
57.8679 174.347 92.294
49.3353 176.566 96.6955
104.485 132.523 172.44
15.296 95.3073 114.242
19.4389 125.671 126.881
72.8552 64.044 116.277
23.3695 158.008 123.765
72.1485 154.079 173.005
80.82 163.874 147.114
15.2805 124.294 122.993
103.771 158.922 142.463
44.094 121.408 142.052
83.0528 67.4387 148.787
90.1897 68.8101 149.401
39.9114 80.5166 167.758
61.7729 127.865 183.183
30.3207 160.812 96.0085
83.4718 106.346 163.164
42.8554 169.08 97.2726
62.0083 114.548 149.425
57.2671 74.2653 159.396
50.3338 119.491 170.566
100.892 154.781 110.017
63.5125 167.102 119.976
22.5587 137.888 153.432
45.9328 155.972 126.975
58.2038 113.123 90.9997
57.2646 121.436 187.821
78.797 140.844 143.99
70.6105 152.039 75.8882
58.8557 155.613 72.6123
56.0339 154.936 139.053
31.7431 151.536 99.0937
66.1281 174.853 150.83
90.5735 125.858 176.416
89.6889 134.279 178.3
43.2519 151.306 167.554
67.2133 131.946 125.979
52.5425 87.2284 168.616
32.0825 146.915 163.256
43.2671 156.306 166.673
17.3909 104.515 109.493
65.4555 173.86 137.626
85.8938 113.465 191.713
59.8459 66.3592 142.496
80.0275 140.179 155.324
85.0891 110.8 82.0303
78.8467 163.616 89.1417
65.2916 90.2425 89.2677
64.713 139.281 62.6222
97.9165 137.517 87.8945
79.4681 127.881 72.187
82.7953 176.583 120.705
97.3801 168.564 119.239
59.4963 180.067 118.973
27.3138 77.0262 116.914
51.2567 170.769 152.256
66.0614 134.347 72.6203
71.7388 96.2217 93.8961
63.2026 162.44 78.9981
63.7631 126.749 165.686
53.7191 75.2265 117.179
67.3418 131.912 90.5408
76.8435 169.13 116.516
35.8066 157.786 113.925
22.2185 108.586 90.1483
21.1168 145.095 146.58
103.086 78.2071 158.388
52.2114 125.023 182.635
30.1203 164.56 118.672
42.2122 163.626 122.049
53.5171 119.312 153.29
60.2733 88.1591 173.481
59.5348 134.405 174.38
80.9917 72.7907 161.177
17.3134 94.0794 130.614
105.131 169.637 141.928
30.3227 152.9 144.025
48.5222 173.848 84.6521
56.3407 140.654 180.583
59.9074 102.655 88.1607
59.2925 159.177 133.044
69.4061 134.708 43.0328
50.9841 118.811 184.028
60.0379 88.4578 122.535
46.1746 102.096 176.361
50.4841 104.357 78.8307
41.3734 116.01 129.541
57.59 89.9787 149.146
97.6207 148.28 165.796
38.343 169.654 131.036
44.5386 85.4156 168.57
73.4937 178.456 120.117
90.7985 77.8165 125.202
74.8492 153.525 123.524
61.9549 147.411 66.4464
73.3991 91.6092 147.096
95.8556 148.634 149.297
24.6882 133.626 150.961
97.4443 176.084 126.133
67.104 60.5346 156.87
95.4871 173.779 117.957
40.0688 143.778 168.97
74.5721 108.829 89.1215
26.8216 160.869 107.633
91.4863 175.676 136.911
87.6837 106.952 84.9892
80.9678 149.973 159.277
27.0375 124.464 138.603
52.5708 168.503 160.528
41.6819 174.595 124.86
49.3652 145.883 133.764
34.4721 138.865 157.557
45.4743 153.026 133.685
82.129 148.587 93.0348
41.6982 160.561 156.706
14.4633 100.412 112.033
54.2265 80.4156 179.847
67.1073 111.811 55.5392
92.0628 162.806 104.311
88.4058 79.9206 174.242
27.2116 96.7314 96.6189
55.0639 93.3226 91.5359
32.8344 83.4722 162.588
50.6462 177.033 119.644
107.198 91.4198 161.685
103.621 148.926 170.573
48.1222 149.604 171.531
33.9236 172.346 95.8607
73.2431 124.938 97.0528
63.3941 179.339 115.891
93.3062 108.736 109.545
35.0107 156.208 156.142
30.3344 159.933 138.603
75.8229 97.8803 88.9924
33.5671 130.754 139.329
110.007 165.895 136.669
107.996 135.531 167.727
93.5709 93.3306 179.796
22.7406 87.1232 141.972
79.8702 62.1862 147.161
55.5455 171.007 119.283
70.9677 169.793 98.2796
36.7609 107.334 174.265
58.2856 160.691 123.398
60.2572 172.338 139.659
76.0494 79.7332 182.878
73.6007 178.235 114.461
56.1055 153.046 126.932
78.3733 74.0349 172.369
52.4724 161.733 75.0597
53.7392 178.231 115.555
98.6826 111.248 146.25
56.7895 148.72 160.86
77.4432 102.453 115.372
78.6444 124.091 91.8073
27.7929 141.946 160.53
91.393 98.4356 163.102
41.7978 177.819 102.587
38.198 156.628 162.774
65.0529 148.107 174.054
64.3235 116.591 188.827
31.8495 166.719 106.77
87.1527 95.6874 107.543
81.0706 79.6189 172.278
56.4681 92.4005 127.378
51.9069 98.9321 90.0262
72.1207 101.717 82.5698
25.7606 142.979 146.417
30.0437 138.796 161.96
86.0827 100.66 92.1676
30.0372 141.509 99.3625
83.2013 132.468 85.717
59.8786 85.2961 183.533
54.1624 140.989 157.295
97.3776 156.208 93.3452
40.9046 156.072 137.631
93.1865 143.95 144.472
75.0065 174.813 156.676
96.6623 108.319 158.362
95.674 117.175 153.263
49.3886 84.4245 162.305
60.6323 163.556 127.511
46.7202 133.548 173.715
86.7389 131.59 189.567
92.8962 146.092 159.978
79.2359 136.456 123.767
24.3382 159.154 117.345
103.992 77.0575 149.14
24.1733 149.425 147.59
80.9479 164.404 156.461
98.2132 93.3852 113.931
32.1362 162.37 82.375
83.4859 90.3523 106.847
82.6852 118.012 79.4243
43.3416 149.022 143.963
44.565 171.518 84.961
65.0885 150.528 79.2107
53.7973 77.0965 153.811
95.9768 170.941 146.382
69.6586 147.206 87.3795
75.7877 113.13 81.2553
81.9096 106.374 102.474
18.3744 94.5518 121.302
50.2352 81.665 127.902
39.8408 158.598 125.69
83.8789 126.903 195.753
59.6264 182.492 114.186
55.3949 166.045 168.753
75.2615 123.306 119.223
44.0867 167.868 151.558
53.2443 148.994 132.777
30.7132 158.041 91.6553
82.726 137.729 137.047
37.7935 145.861 146.484
59.3908 119.851 178.455
73.5697 175.071 101.093
97.6074 101.024 152.875
89.4764 84.0461 113.235
116.431 144.707 159.226
59.4323 164.84 159.018
85.8927 149.199 80.4549
36.5276 132.61 157.655
54.2657 135.768 178.416
19.2077 98.3732 109.668
75.1074 78.7429 175.734
87.6312 85.8736 159.004
96.2323 146.491 176.967
72.5693 127.118 132.085
117.721 155.446 148.486
89.0568 94.5029 186.644
98.9848 152.908 146.857
92.445 101.771 95.9818
67.8203 128.048 78.1324
82.0022 98.4233 130.631
87.6289 91.4117 131.641
74.4329 168.104 93.7173
26.7167 160.13 87.328
35.6648 129.277 148.747
45.9226 167.138 157.753
112.14 127.233 177.11
17.1273 95.3231 140.261
105.665 165.672 156.15
44.1485 79.392 171.173
85.4619 162.602 92.6514
98.6351 82.6321 131.288
86.9161 177.624 127.134
62.6962 92.7169 148.073
49.2654 165.779 133.837
58.7842 140.09 147.898
74.2572 162.349 104.168
116.764 135.6 168.578
33.967 161.668 123.638
79.1716 117.841 145.819
23.9802 122.78 106.431
47.5649 103.913 150.961
24.9563 132.064 131.172
43.4156 153.884 122.965
59.9505 92.4429 187.003
38.9393 148.907 161.505
64.167 166.974 160.594
83.2446 105.792 112.313
54.1618 110.014 171.535
29.7404 128.362 149.158
45.7817 85.8536 106.128
70.9164 152.079 143.426
74.3391 101.337 108.918
83.228 114.882 152.033
97.5056 94.7326 186.383
75.5406 112.764 162.029
61.308 113.694 162.745
30.486 102.062 89.4382
62.6773 64.564 123.34
64.4137 61.0418 142.979
89.4713 107.652 144.171
80.0617 179.855 145.201
89.349 117.833 193.318
42.5125 156.574 149.793
79.9642 180.903 129.5
73.2877 102.383 93.9715
103.004 147.461 156.169
107.453 142.959 167.239
107.622 126.318 170.899
88.242 110.783 94.5361
112.82 131.844 170.055
97.8978 95.054 97.3354
48.1349 119.043 147.401
36.6223 100.078 108.282
59.5953 94.6172 177.665
103.211 89.522 120.049
24.0739 93.2385 120.829
102.252 81.3545 116.246
71.0157 159.519 112.125
88.1678 127.494 166.704
93.423 140.545 179.645
94.4735 98.5326 109.484
51.2811 158.136 130.943
47.1092 153.171 138.385
36.9547 162.773 85.1928
61.2911 158.006 90.5165
68.7618 170.734 128.145
72.0793 118.308 164.164
63.8099 149.54 127.182
57.6245 105.102 144.728
78.2127 115.22 99.9145
98.6512 114.595 111.469
49.1539 97.6138 172.208
78.3655 135.453 71.2778
97.9355 109.333 89.5046
76.757 148.708 154.148
84.8903 76.0554 113.175
56.1639 85.3421 129.019
67.4245 162.479 110.324
99.7648 110.204 99.7037
80.1857 104.409 189.06
95.6815 147.689 89.5727
21.3257 94.956 113.533
50.0687 163.418 154.788
89.9213 75.3968 166.223
69.7446 162.506 105.955
101.007 111.804 177.141
97.004 83.355 84.852
30.2302 145.925 147.061
85.055 127.042 89.1588
66.9941 109.697 165.897
77.6223 118.655 74.331
73.9666 151.118 106.874
53.6446 181.334 120.411
85.1618 135.529 128.685
61.9807 100.969 140.06
102.387 142.203 143.802
86.1924 117.402 154.933
85.3701 81.6096 117.236
62.1563 150.543 179.595
43.6308 136.526 162.399
36.9349 145.517 158.578
48.4485 148.804 161.402
27.4163 137.426 144.921
14.0426 98.8996 137.501
22.4541 109.31 139.892
93.8528 81.3945 120.058
43.9178 79.7142 105.837
78.7687 117.703 85.0908
65.0833 159.715 149.883
86.4812 112.284 176.417
58.2044 96.4213 188.766
38.4694 129.974 124.762
67.2708 160.05 159.05
70.0387 59.0143 142.305
38.8986 141.495 161.66
53.8522 104.479 125.892
57.5271 103.52 140.243
39.8087 176.231 96.6202
90.6232 77.9131 110.724
34.194 104.938 103.679
60.9629 146.209 158.136
37.4399 121.824 133.362
34.405 155.569 136.239
22.03 122.866 148.227
30.1201 132.823 146.212
78.2868 153.531 164.213
109.54 85.8034 154.374
58.2336 178.547 131.898
85.6743 115.029 118.594
98.4502 169.96 113.879
61.3556 133.06 45.6719
57.5683 145.208 139.741
70.8443 179.303 130.271
109.002 119.355 155.693
90.4775 72.8219 159.685
104.4 120.183 165.509
81.5236 98.1337 122.732
73.2646 181.232 124.383
24.862 155.468 108.496
99.8958 167.799 146.743
62.9596 100.71 146.76
97.4679 96.6042 199.203
70.4511 178.428 134.447
41.5782 108.091 120.02
89.6323 136.484 81.9298
90.345 158.077 95.418
89.9953 144.366 152.842
55.8057 102.602 158.923
28.2662 137.731 150.661
59.6378 173.551 130.862
109.154 84.6625 126.04
56.961 117.363 66.6784
106.924 165.913 128.736
42.2478 154.67 157.912
81.7142 110.507 95.6946
39.6489 152.936 153.005
52.6497 96.7374 180.842
75.303 145.082 171.573
75.1011 183.3 132.765
97.4413 176.159 150.228
31.1124 141.648 154.78
88.0421 81.4356 88.0403
104.499 96.2432 103.895
76.0804 144.547 150.858
32.2901 175.673 102.105
