ply
format ascii 1.0
comment Created by Open3D
element vertex 574
property double x
property double y
property double z
end_header
70.593 150.872 58.3061
61.833 82.5951 180.858
19.3884 122.173 138.731
72.5752 82.5952 186.909
33.4469 124.112 166.745
73.6784 133.78 40.4221
28.6842 103.857 164.772
20.6578 113.515 149.955
57.2582 116.929 184.975
15.6177 121.767 120.686
115.74 23.354 183.018
164.05 60.386 81.0825
82.9921 85.3713 194.879
47.6695 21.6923 107.791
102.152 15.4445 80.7715
120.123 19.1206 175.316
36.3708 102.271 172.291
16.7165 120.082 129.522
130.768 168.026 146.276
163.916 148.64 121.731
26.5299 49.7821 127.95
31.6341 51.0141 142.881
41.9291 116.945 175.319
14.6707 85.4867 93.7387
164.812 66.1882 71.2049
50.9552 126.653 180.281
81.8053 57.2711 187.768
51.9907 136.069 59.6723
55.6948 15.0493 109.203
163.881 109.319 48.8491
16.5401 90.0725 137.333
22.7601 58.2966 118.944
124.471 15.5042 168.844
98.7954 33.6018 58.1442
86.6945 43.0483 186.028
82.2054 31.0629 173.876
52.3761 145.68 72.5206
20.6681 71.571 143.679
37.7564 45.7062 146.893
60.2481 134.441 183.467
113.489 59.2255 205.864
128.912 8.49857 145.67
77.9633 142.141 187.322
107.841 33.9369 61.584
154.954 25.7068 114.039
27.5187 117.639 162.381
23.8533 109.521 158.057
30.9885 41.8645 131.349
62.0606 145.191 59.0449
48.301 102.4 179.634
56.73 14.4152 127.454
157.819 65.9179 65.9826
32.9341 37.1131 123.457
155.601 131.693 54.2064
74.5299 62.9776 184.532
60.1133 28.3162 76.4371
158.903 153.06 131.793
90.9632 28.4382 62.7873
28.8186 42.5992 116.979
80.935 173.883 140.196
116.871 51.0226 203.273
136.786 157.349 165.635
62.6866 149.68 66.2723
62.3809 11.0355 132.463
87.4571 103.443 30.0914
68.1378 57.2686 176.444
43.1879 40.2469 146.893
90.166 67.3327 37.9414
87.8455 111.261 196.308
41.2834 32.3653 139.127
78.0188 108.445 192.786
28.2283 135.384 138.683
106.207 175.625 155.336
94.3389 33.784 185.376
76.6866 61.1809 45.6629
58.8459 108.065 184.573
165.55 88.4398 54.2583
151.696 97.5636 42.6586
155.216 122.658 43.7412
19.1632 81.6651 145.079
51.1785 18.8438 130.415
151.295 33.52 99.9452
83.4109 137.96 37.325
86.6865 8.4032 91.1505
108.642 109.298 202.54
155.05 151.085 148.082
53.1142 109.837 50.8913
132.628 172.726 125.446
14.4783 109.856 126.498
81.0057 134.694 191.408
36.1013 40.5523 140.695
16.3474 81.7336 133.241
147.164 31.0898 175.61
71.7487 123.523 190.622
110.629 12.5107 86.8406
93.2585 81.0512 31.6475
150.003 154.68 152.488
24.946 126.249 150.523
140.848 46.2485 75.2821
132.14 6.80408 134.085
162.057 80.1273 57.1886
52.2044 16.4294 120.084
127.395 53.2299 58.456
70.0621 8.06593 134.142
92.3618 160.274 175.089
144.256 59.518 63.6342
45.1911 21.7505 119.284
61.8521 10.2154 115.241
60.2874 14.7858 98.8889
116.927 10.2956 94.3718
40.6433 27.8369 110.45
92.5792 5.26329 146.411
159.94 61.0344 73.6651
124.098 23.5197 81.7283
134.335 169.258 137.986
56.7084 19.0743 137.051
165.844 140.897 152.989
51.4929 56.2113 164.125
25.3314 49.7438 114.574
62.9684 63.3857 175.874
71.138 155.923 70.5628
14.4776 78.0618 113.766
112.198 2.56522 112.637
102.162 21.4209 177.465
81.3413 171.235 159.695
81.2008 25.0846 67.3841
70.8044 90.9429 188.311
30.0925 93.2233 163.732
59.3672 49.3598 167.37
167.064 32.9649 152.713
149.767 16.2143 137.137
76.7745 172.299 149.136
110.989 10.4263 159.352
131.892 30.5019 82.7728
122.775 151.269 183.962
83.1362 5.5679 140.678
153.949 136.851 180.415
132.038 22.9643 93.3716
34.1062 40.1804 100.454
21.3526 117.864 103.619
103.731 26.8872 185.047
82.7785 115.393 31.732
103.403 34.9518 191.665
46.023 34.8161 148.299
88.4219 98.1801 198.205
98.9659 13.3431 162.993
84.2184 130.327 33.694
50.9296 148.887 83.8472
70.5575 23.7845 73.3881
159.654 155.067 85.3977
88.6964 144.322 40.4125
77.6285 8.71065 95.8323
56.5001 160.362 149.617
122.117 7.23381 109.114
97.6541 6.08224 95.7205
160.384 117.817 48.4227
66.4623 13.2929 141.343
69.8149 48.611 175.154
160.555 71.8701 61.859
94.2498 150.905 185.128
122.381 4.35561 119.338
166.701 30.5059 116.56
156.353 103.037 196.18
109.397 16.3562 171.68
148.033 72.4946 54.62
42.6306 132.681 172.651
50.9696 21.8705 97.0625
78.6482 163.969 169.101
118.061 27.919 70.3066
82.7984 2.52163 111.691
87.8426 12.5825 82.5184
139.457 51.7981 198.848
165.13 75.0097 195.043
115.563 6.92859 101.576
122.247 71.0409 39.8248
153.276 159.01 89.3638
153.178 54.9551 75.1858
118.478 42.2235 62.8459
69.7913 64.4624 47.1013
87.518 55.187 45.2429
104.007 25.9621 67.2523
64.7736 109.208 40.8093
80.8957 39.3549 179.878
74.4637 39.1227 173.391
98.9659 67.4604 36.9148
119.309 53.9958 52.4167
21.2568 62.275 105.372
22.444 131.097 126.141
153.944 47.9798 84.7929
160.123 147.038 146.351
100.057 125.448 197.836
132.401 70.9605 206.736
73.6142 4.52 124.388
66.3719 30.1803 159.368
47.4189 153.189 144.094
148.398 121.693 37.9679
91.3375 66.0353 198.682
60.6455 118.746 44.6635
113.05 84.7647 205.622
123.808 28.5669 186.324
166.235 58.7835 185.126
137.722 20.2746 101.701
158.31 145.851 71.318
142.412 150.304 170.658
144.498 82.9355 204.684
119.844 38.5838 196.888
41.7328 143.718 90.7513
40.1541 136.956 75.2581
167.395 37.2019 160.251
152.363 112.989 39.5316
166.449 116.223 55.4483
167.333 134.52 70.0425
42.6155 33.8005 90.5514
111.933 40.5049 197.459
139.056 22.465 172.036
66.0922 153.231 175.191
132.88 11.991 112.621
100.157 19.9572 71.354
133.603 8.21345 122.635
131.622 12.313 159.129
47.6118 24.495 131.095
17.0145 111.31 142.285
79.205 147.992 48.87
83.0063 78.0784 34.9232
106.817 94.6662 28.0789
154.634 131.542 46.7268
89.9879 17.4934 74.5691
68.4943 10.5138 100.109
128.306 12.4667 103.425
166.066 27.7806 140.283
93.5619 174.303 101.052
98.039 173.989 93.5642
50.6388 32.2015 81.79
158.053 144.654 62.679
157.107 155.464 120.978
93.2117 58.7431 199.433
167.953 31.1619 132.425
41.9136 146.969 99.261
94.9208 177.84 150.328
158.997 23.7342 120.205
99.8277 9.72958 88.5233
107.357 74.2714 33.836
166.201 99.8258 50.7048
74.5507 113.913 34.7243
143.846 79.1644 46.1799
80.7384 2.99042 124.539
165.545 147.157 93.2535
115.117 2.6059 127.543
93.116 149.524 44.8235
95.1129 167.203 168.454
163.652 50.3488 92.3715
45.6727 120.575 58.5136
125.589 79.5348 207.828
18.4746 79.594 89.6492
96.3122 169.327 80.0149
136.871 88.8029 206.541
37.6844 115.245 64.6186
43.8049 53.5087 157.041
118.056 111.057 203.462
164.575 49.5339 178.132
120.215 115.226 24.6283
42.8374 94.9468 175.885
111.699 30.6527 190.697
41.3403 147.228 149.042
66.6008 71.2278 180.879
158.803 22.4321 133.072
150.223 140.511 48.4276
97.6698 43.8799 193.586
89.2243 90.379 29.6901
31.6136 70.7098 104.765
103.169 4.78198 101.552
162.082 132.68 174.613
139.712 13.7702 153.426
159.185 150.966 77.9449
118.667 70.4769 208.218
81.0987 4.67102 103.835
165.991 142.955 71.8979
162.491 150.767 107.201
165.547 149.066 81.0473
151.004 145.857 172.491
108.155 130.366 199.622
116.74 61.0905 45.2344
14.3351 96.3285 114.658
66.3729 16.89 86.9144
158.709 62.8524 194.424
168.065 135.357 159.075
117.141 171.474 155.419
40.7072 104.564 59.5163
118.368 79.0759 34.5658
89.7556 175.519 108.179
131.47 100.902 30.723
90.3586 4.34244 100.019
154.294 141.239 55.6709
146.884 104.46 37.8096
95.8787 2.26247 112.791
93.7344 135.675 34.1916
122.39 9.7947 156.244
106.364 83.7052 30.689
69.809 50.7841 53.7377
31.6115 123.472 75.5533
77.1236 161.978 76.8592
36.6814 54.6037 79.1981
14.9496 86.2947 124.199
39.149 29.5791 128.001
67.486 124.546 40.5942
105.718 162.195 173.601
156.964 72.9828 198.998
137.948 161.613 148.915
75.9943 7.00527 138.872
139.51 66.6001 201.776
80.2195 72.2538 190.998
160.472 30.0783 159.699
56.1249 156.622 160.813
86.1376 155.997 58.0008
75.3702 17.5368 78.591
145.588 164.243 88.4725
158.992 88.8517 48.6803
132.265 173.496 109.221
111.459 52.4884 48.5308
99.9084 140.908 36
76.2775 12.5762 87.4215
86.6636 20.0935 165.759
79.6093 47.1369 52.0404
162.136 139.937 164.895
99.5718 170.763 161.578
146.49 46.0841 191.07
89.4665 52.6538 194.469
142.023 16.9201 114.769
147.82 161.718 125.556
166.838 143.876 140.161
73.8635 6.35774 107.502
154.405 96.3159 200.276
26.8314 54.3779 98.7536
99.2388 107.052 200.93
153.254 156.92 77.3001
34.3882 140.749 105.11
137.614 148.99 179.107
141.786 166.714 117.911
90.7024 177.704 134.547
54.2454 29.3438 146.041
125.877 175.168 133.397
64.892 21.7239 148.262
89.2093 2.03249 115.313
34.0394 33.9855 110.887
144.401 163.028 133.762
162.789 123.322 56.7139
21.6556 99.7625 99.6588
39.2496 135.326 166.457
158.402 49.0103 185.4
82.4385 159.942 69.9365
132.018 72.9878 43.5594
122.77 3.92792 132.54
26.7264 126.458 84.9208
122.345 18.2152 89.6293
152.18 156.588 135.633
118.591 6.01453 143.478
146.272 152.839 58.8841
95.6333 96.363 199.776
56.8719 160.549 140.262
141.315 141.412 42.126
166.466 123.428 175.343
115.897 33.8812 63.6518
14.1788 89.3523 102.261
18.1998 125.126 110.805
56.5696 23.3128 86.9318
104.421 180.634 138.707
17.5723 66.7261 124.506
90.2188 3.1239 136.102
38.5531 42.837 85.5094
159.495 144.747 160.683
110.515 100.768 204.087
165.973 97.3965 194.02
57.7505 38.1744 157.494
156.261 83.0424 201.101
165.827 66.4087 191.497
133.5 38.6334 75.4845
152.726 157.481 112.672
104.579 2.14664 109.075
153.813 19.6306 147.86
128.336 109.501 204.147
153.915 39.2638 177.958
108.742 176.926 103.104
156.317 77.8561 53.8034
91.2007 88.5808 198.955
50.8206 94.878 52.688
115.902 166.427 67.5079
143.906 165.299 101.061
70.3542 5.88032 115.716
160.66 40.0776 177.834
145.593 26.3926 102.008
157.828 105.452 44.6703
168.3 142.903 86.047
103.901 69.458 206.749
120.689 103.348 26.7769
58.8549 54.2519 57.3661
76.1042 127.231 37.2754
148.93 154.681 66.1165
102.786 127.303 31.0479
168.377 91.8747 61.2173
42.5317 66.1136 163.945
47.0329 84.2266 173.765
167.953 75.6677 69.8512
63.5813 61.2104 50.5348
163.973 110.153 189.206
167.647 142.726 129.115
49.3131 65.3823 60.2139
145.189 102.916 203.041
137.838 165.71 75.1441
48.7291 42.9757 73.2248
79.0245 96.0235 192.608
119.857 174.949 144.839
104.774 2.56887 132.552
88.05 2.19648 128.01
149.006 89.8686 204.007
146.302 161.726 76.6678
32.6021 84.1817 165.079
156.134 25.6065 151.323
62.3769 163.303 148.655
142.203 12.2052 128.864
148.318 112.013 197.102
18.0077 103.342 146.111
148.723 130.801 42.0138
111.338 164.915 60.1869
137.999 161.141 159.335
108.503 173.291 90.9931
22.5955 83.8825 154.311
148.893 161.502 104.906
151.813 150.101 160.47
98.7409 120.618 27.2073
65.0036 9.17336 124.457
123.026 35.9008 69.5688
109.856 169.556 76.171
55.7161 68.5143 173.123
147.099 44.2227 83.562
138.384 140.416 189.122
61.4935 77.6444 46.422
126.814 44.0799 200.021
120.361 163.596 168.096
133.521 81.6032 206.976
59.8247 25.4231 146.735
22.9504 116.121 84.0164
108.054 1.8099 122.631
93.7731 161.663 60.7199
145.091 158.719 141.409
99.3486 82.239 199.526
162.198 41.1475 104.195
60.0038 132.358 49.4473
71.8 74.7124 40.7499
144.98 39.9921 186.44
111.616 167.131 165.039
126.164 55.8069 205.175
110.446 3.88092 140.388
54.289 24.8423 143.132
100.642 3.8053 142.433
168.64 139.648 78.2916
68.1337 32.7307 66.1069
80.0612 36.0031 58.1444
142.121 130.21 36.9013
167.634 82.0723 61.478
14.3353 107.063 114.953
141.899 30.2142 94.9989
154.215 118.901 190.259
37.2492 78.5936 66.965
41.9503 90.3761 60.3279
32.3863 141.041 119.759
107.117 116.064 25.8093
54.2924 151.615 167.385
135.106 97.8132 205.641
123.235 92.75 206.707
73.76 17.4917 150.802
72.0319 96.1709 36.8836
156.755 152.64 69.3567
127.858 88.3444 35.6785
130.997 153.616 175.463
97.0278 1.8926 130.789
168.858 136.026 144.048
155.644 128.285 185.189
168.488 118.986 61.9568
119.515 178.307 120.012
97.5528 178.689 121.904
27.6352 74.3157 80.6083
138.992 88.2735 39.7637
136.654 147.84 46.2202
16.371 99.9932 131.919
94.5217 157.705 52.4325
31.7398 103.711 69.7324
125.923 66.4481 206.764
109.43 136.392 31.0987
138.079 107.83 31.5344
99.9442 135.1 195.251
168.561 41.6322 108.672
112.558 23.3203 79.228
24.1974 70.5808 87.5976
58.0307 38.2034 68.5741
20.4176 108.208 83.3305
101.111 58.965 202.166
46.1431 150.875 153.351
165.374 131.531 59.9066
169.069 47.5094 101.086
165.299 42.2586 168.665
151.285 25.9307 164.603
112.147 151.519 42.8328
143.413 41.0491 83.3222
116.548 178.482 131.956
138.275 123.6 31.3035
52.2602 158.528 145.214
150.707 59.2764 196.941
94.9531 47.5413 48.5864
27.5172 133.503 94.665
169.126 61.9013 88.2801
148.709 68.1002 201.151
169.107 127.765 69.9426
160.114 33.8921 167.366
102.313 71.0273 200.543
169.189 99.2672 57.8199
169.086 107.736 59.4984
57.9935 160.75 107.653
60.2114 97.2559 181.07
106.258 48.772 199.868
37.731 56.1031 153.577
169.156 84.9689 66.8539
143.883 150.901 162.674
135.211 169.022 83.9049
167.153 142.55 109.174
129.488 36.428 184.859
132.542 56.6555 204.28
89.3756 75.5766 194.94
55.8745 72.6502 52.1213
137.857 12.1837 143.654
102.198 7.41466 150.703
163.283 85.0057 191.766
99.4351 1.53761 120.435
104.409 154.706 46.6047
42.9615 69.8416 64.9093
98.7108 171.256 85.2234
124.594 144.296 191.487
135.92 34.9916 188.547
124.037 176.619 112.873
106.341 106.845 24.6238
131.246 117.177 28.973
123.432 165.031 159.486
15.2769 102.91 136.442
109.225 102.426 25.7828
141.232 159.493 64.9361
108.61 69.6864 203.723
149.347 156.41 144.117
128.904 126.912 31.5876
169.364 74.4709 75.4747
72.0649 167.648 95.353
169.164 86.7865 187.205
169.327 126.006 166.411
56.8914 156.727 112.615
51.2411 154.289 116.526
126.942 155.475 172.298
59.9265 93.872 185.016
87.9255 152.458 182.921
103.606 163.128 56.7967
140.796 14.1429 139.031
168.837 106.305 187.036
114.34 158.418 50.8875
169.178 74.2703 189.159
135.179 37.1275 183.362
92.7069 132.639 194.965
44.723 61.487 65.5159
61.1119 157.625 103.432
168.991 57.7411 177.456
61.8564 163.564 152.731
61.3533 159.893 96.045
52.7194 159.654 114.939
93.511 163.901 69.7103
123.242 168.969 76.8996
158.523 37.8924 101.523
54.5041 75.3645 63.1619
74.7224 168.502 105.239
