ply
format ascii 1.0
comment Created by Open3D
element vertex 544
property double x
property double y
property double z
end_header
15.3054 110.97 87.4757
38.7708 116.027 177.897
66.054 64.435 163.488
47.01 160.247 160.864
14.6592 81.2335 130.659
18.9035 141.51 89.4226
19.5972 96.1101 157.551
17.4382 80.0929 142.968
15.482 112.186 112.111
130.962 4.2474 161.303
44.7289 58.5155 148.465
15.0508 89.4579 109.588
23.8248 87.8395 158.092
60.6661 158.708 173.01
54.0768 144.441 177.598
14.0436 88.7072 141.934
43.2793 95.6076 175.763
14.4019 114.235 125.349
133.778 95.8364 111.346
76.5283 68.951 166.927
14.8936 99.7227 114.236
21.5968 107.069 161.879
23.0292 78.2275 151.458
118.088 12.8427 167.081
18.5654 71.6907 118.483
144.18 127.519 104.335
34.2353 83.0266 166.045
63.7217 70.4898 168.092
14.5112 106.691 155.541
54.5602 162.707 166.793
30.6224 61.2779 116.951
29.8448 134.456 163.556
35.8746 104.003 65.5672
72.3909 51.1764 137.44
135.687 119.833 89.1041
31.9295 168.382 123.082
78.154 52.9125 117.311
112.517 17.1052 141.203
68.3881 69.2333 79.5226
72.2808 162.97 75.2518
36.8139 69.2954 157.811
16.3105 146.865 111.608
145.155 126.632 123.606
20.2963 155.952 114.374
76.1572 108.329 58.0127
14.5184 120.297 115.48
67.6898 152.644 179.922
18.7778 118.522 75.5045
33.435 81.3308 77.3703
144.722 134.051 124.473
135.564 145.564 145.798
78.8415 52.2704 127.634
31.3053 109.714 68.2979
23.3188 2.93064 215.583
88.5595 178.083 87.7207
145.81 124.974 114.534
76.0503 169.675 81.4047
135.632 131.27 86.8744
55.6852 49.2776 129.723
50.144 109.71 182.56
113.805 80.8564 105.025
61.0377 81.3544 174.346
13.8253 129.232 119.178
40.7756 137.568 170.842
40.1653 125.805 175.311
13.0198 119.038 146.034
128.849 92.7475 146.341
41.082 57.6 118.091
88.5748 60.0867 152.979
50.2057 66.9113 87.6816
23.2715 65.6468 121.124
118.787 13.076 160.12
128.196 165.107 100.861
145.343 130.924 113.457
27.4362 98.6575 72.3465
44.6905 76.074 78.0472
15.5573 103.765 107.016
39.89 159.97 96.6479
94.4517 4.24801 169.57
111.018 17.1481 148.595
17.7642 83.2089 99.6156
142.968 120.712 105.758
14.2816 84.3344 121.816
140.087 128.666 95.824
74.9142 54.1009 146.001
44.7064 70.2323 162.772
128.245 114.809 82.2369
46.7968 137.559 175.505
42.0577 95.5537 66.627
140.934 139.228 136.053
35.1488 95.7456 69.6893
140.211 137.979 95.4098
37.7996 75.3183 80.5374
14.1657 104.148 123.842
33.2367 148.149 83.8835
15.9028 76.8616 117.445
38.5693 58.3073 140.129
86.8883 55.5703 121.299
130.532 139.346 83.224
23.3254 70.1601 104.292
62.4501 136.187 183.383
44.5155 82.4275 71.0405
76.7946 81.4567 70.644
15.1776 91.3116 123.13
128.491 102.211 90.4334
119.092 10.4449 134.902
74.1203 174.178 87.5601
57.2907 66.1407 85.3708
96.4904 66.5173 104.488
40.3765 149.462 162.982
140.356 111.239 132.011
25.4309 151.598 93.8629
23.1528 76.3685 95.6278
136.199 110.486 98.5055
122.223 84.1971 143.638
51.4214 75.9588 170.732
130.04 132.962 78.8834
37.0366 90.84 169.873
37.2263 75.441 163.52
128.482 146.62 82.7957
141.754 109.112 120.305
49.3909 51.3665 128.061
17.7295 73.3129 129.574
42.416 145.645 76.4176
136.266 156.622 108.19
24.7168 66.1565 113.078
127.776 123.953 76.9141
137.681 102.685 106.091
141.362 119.69 98.7991
54.0694 55.5892 103.05
16.9886 121.855 83.8194
19.5474 74.2912 137.571
32.041 166.16 132.32
84.0376 147.639 64.5107
29.4442 88.461 75.5401
80.5642 62.0497 159.347
80.9745 159.989 69.5957
30.0123 106.669 170.296
20.3863 77.0921 103.947
109.707 128.451 65.5493
134.706 2.69753 135.981
58.7401 113.92 185.032
77.5926 62.6367 93.6693
37.0295 87.0109 72.1333
81.9627 60.4212 100.452
95.0301 148.423 63.5331
127.683 15.0957 157.199
14.5166 95.703 131.092
75.9007 57.3535 103.081
134.341 95.4702 134.631
92.6743 158.238 69.1708
15.2873 142.685 139.176
31.6002 76.8656 95.3185
20.618 129.719 78.7868
24.7366 155.335 103.921
45.2043 83.7887 171.744
36.8297 65.3659 150.989
95.2092 9.2477 142.808
137.155 3.75405 146.74
24.0591 88.9106 30.2062
145.933 139.13 116.434
28.8087 76.9792 158.443
15.7363 92.6405 148.223
128.488 89.6045 138.035
54.0124 56.9966 109.952
26.8855 144.8 153.798
142.437 146.209 123.219
23.5441 158.881 127.379
49.9751 151.568 78.806
18.1926 112.978 80.292
113.34 90.396 87.9358
125.219 86.0226 130.018
140.777 148.715 105.069
65.7142 57.469 155.407
80.7424 165.409 74.3549
50.9821 101.265 60.9241
37.2467 154.767 89.3148
142.172 134.324 130.763
97.3426 64.429 112.434
19.012 73.6478 109.802
31.5497 124.991 69.5195
59.2128 51.6528 144.919
139.704 115.886 140.889
64.0433 164.798 83.2401
61.1808 127.116 186.071
15.5056 124.207 95.749
67.1822 51.1022 118.354
104.603 73.9842 105.434
13.4343 132.208 144.64
39.447 65.8848 89.5379
21.4619 117.426 162.736
19.4871 105.51 80.4513
103.618 144.816 64.3384
15.0149 80.0487 106.738
113.207 77.3034 147.98
28.9034 161.548 108.588
96.36 75.9552 90.4285
15.745 129.218 89.3879
72.5964 52.2552 129.234
37.9183 77.6465 92.1969
90.3336 65.9881 97.0431
58.3202 78.1776 72.2097
12.9019 110.599 146.845
86.193 91.893 179.487
51.2504 77.3225 74.8142
24.8336 66.7362 133.543
18.081 116.639 98.3763
27.3265 154.762 143.638
53.5897 123.258 183.976
27.3726 66.4224 98.8546
26.3926 69.7723 148.902
44.3268 71.1939 88.5977
121.692 103.325 129.22
55.7571 70.6514 167.71
36.446 138.862 72.8857
55.5026 173.361 150.335
91.4096 171.027 80.7647
66.0022 50.8255 140.779
58.8917 58.3778 156.034
12.7312 109.77 137.758
31.1181 69.3964 89.9194
137.462 146.814 97.4636
132.2 161.272 137.22
144.488 144.518 110.755
60.6382 53.0621 111.083
18.4425 103.746 90.0878
71.1755 54.1495 107.84
39.1558 62.9063 147.194
128.241 143.367 162.618
14.9765 107.129 94.9221
105.208 115.607 181.755
25.6945 139.011 81.9056
107.319 94.9491 74.9922
30.502 66.6613 109.515
120.657 3.878 168.088
75.101 58.4401 154.595
113.838 91.7131 165.582
90.3465 66.8518 161.661
54.3244 64.1751 159.687
13.8176 133.539 133.034
46.7128 120.948 181.257
144.408 136.531 105.106
70.0957 77.8933 174.113
66.394 7.09773 134.835
130.879 152.912 92.2641
135.559 153.7 140.094
116.075 86.2101 97.5881
96.1516 121.982 60.5209
24.0039 121.719 71.6708
19.3499 148.471 99.9926
22.3738 97.124 77.5545
105.886 13.3888 135.999
113.763 111.31 174.994
133.357 140.746 153.805
15.1127 139.543 117.738
50.9102 54.8058 118.663
120.665 110.194 75.9486
136.204 98.7086 124.247
95.5222 59.9948 144.057
37.2688 168.725 112.155
116.426 75.6735 124.631
130.811 166.176 127.002
13.0775 124.88 131.337
73.444 130.488 185.033
121.535 150.269 74.9915
47.6209 68.5633 81.669
79.9016 164.173 172.115
18.3562 86.608 92.7859
126.159 4.28863 134.435
30.517 73.0942 101.739
47.3646 60.8457 94.2437
70.88 87.0462 178.653
88.9443 166.086 74.5412
21.9935 132.012 158.018
42.7741 102.936 62.2624
79.4077 115.326 186.311
58.4651 179.887 135.041
14.5954 113.941 103.387
123.821 7.05909 154.377
121.636 141.448 170.918
66.3312 175.429 95.2378
116.573 165.241 82.3795
17.8783 91.1528 84.7463
88.2481 104.456 183.772
106.649 2.79136 132.572
16.0501 122.323 106.524
52.0578 134.692 65.2846
99.0867 178.375 89.0882
114.643 101.538 74.3438
110.665 156.237 74.3866
54.2733 94.3694 179.065
122.799 92.8173 98.2144
116.784 84.0178 153.358
124.974 95.9894 157.378
94.3764 2.44437 142.898
29.7208 96.3152 17.5079
140.121 153.396 118.09
128.205 164.1 144.935
84.8453 117.283 58.4613
65.6611 4.37427 140.656
37.6385 105.025 176.526
73.8353 2.90933 138.546
138.039 131.282 147.412
66.7225 79.4178 70.4205
29.3542 62.466 134.67
33.9311 59.6062 126.955
62.8771 92.1078 180.464
78.3309 90.4573 181.049
48.0804 89.2184 64.8649
98.4011 10.3195 135.253
36.3474 71.0462 84.9725
59.617 53.0924 122.621
123.758 11.7271 141.879
98.4567 72.2845 97.9618
47.8333 54.3904 108.942
89.9234 2.51231 161.86
118.388 121.525 68.9456
89.5804 149.248 184.147
60.3994 92.1862 62.159
66.2449 109.198 185.57
59.228 2.13355 143.511
113.532 13.9237 157.27
48.8797 171.346 151.17
42.544 171 143.68
85.554 55.8137 145.164
89.6453 101.337 60.4713
97.768 19.2111 144.274
101.929 80.8454 166.645
143.314 113.826 110.482
40.0723 56.5352 130.146
91.1751 10.0815 163.735
84.0917 76.9134 172.605
26.4618 81.9648 90.518
61.4828 107.657 58.1019
68.5131 120.227 58.6813
113.494 75.0962 135.811
35.0344 82.1524 85.1535
103.487 126.47 181.787
118.458 97.8286 83.0927
132.955 106.998 153.263
73.3921 97.4852 183.602
111.64 171.059 82.6188
131.142 118.784 159.504
131.888 154.462 149.358
118.091 172.937 94.8279
104.953 136.339 64.2118
112.998 76.7546 114.223
108.437 82.0815 94.5159
121.753 176.773 120.412
52.037 160.911 88.5973
105.895 140.03 179.68
102.068 65.0646 133.969
18.6504 133.729 86.3673
108.678 69.9307 129.722
43.2004 108.887 180.166
125.399 170.317 108.922
111.206 108.584 67.1546
54.2235 107.474 58.6534
119.975 81.796 111.379
18.557 125.447 157.254
16.6915 95.331 100.226
45.488 55.078 130.238
103.417 100.753 176.32
38.957 128.829 67.6769
109.785 177.056 89.951
97.6237 132.902 61.8469
14.6783 144.775 127.758
117.111 2.71473 130.884
120.581 158.409 80.3951
118.769 122.465 173.827
15.1391 129.6 152.797
30.4223 66.3732 145.977
50.5866 88.3793 175.866
93.0956 87.9571 69.8948
107.034 69.9305 142.902
111.373 83.6476 160.371
105.483 69.5754 117.938
114.652 153.125 167.449
90.1597 79.4833 78.2689
58.6911 123.469 60.6444
115.453 136.259 66.7215
20.3011 92.6096 92.4362
91.4427 10.9156 149.682
28.7153 179.98 105.691
49.213 60.4381 154.629
63.5114 170.334 90.243
92.568 94.1128 64.9475
123.565 160.155 87.3504
26.4691 131.282 75.1471
102.128 17.7455 149.213
72.1631 154.339 68.4585
114.376 129.174 177.081
53.7731 118.086 59.6755
107.668 2.87215 173.02
97.8632 15.7362 161.482
88.4626 59.1304 109.473
121.554 89.1829 155.386
119.761 155.888 159.548
63.471 171.495 157.996
137.815 159.399 122.593
119.968 135.925 173.626
97.1099 140.239 183.266
15.8623 88.4962 103.197
118.691 148.512 172.009
53.1549 61.5999 96.2402
78.9642 179.991 92.5022
88.5875 162.249 172.917
117.123 99.0099 168.731
15.3383 127.081 100.798
127.567 89.5053 114.775
89.6108 140.81 61.7851
74.9057 67.6748 85.249
111.458 1.93299 125.904
25.4675 108.067 73.589
77.0199 88.8546 63.0378
127.772 129.987 165.62
114.305 12.0287 137.361
67.0896 165.098 168.604
99.0956 68.6974 158.535
100.277 65.5553 145.938
139.392 148.771 132.318
24.5006 85.941 85.7116
102.366 161.189 73.3958
91.2828 56.9413 128.38
82.2933 154.66 65.8544
105.62 90.2734 170.598
117.499 80.2854 139.418
93.7526 185.289 96.2966
90.7949 84.3217 173.65
86.1389 184.308 96.1845
33.6924 91.8931 30.8799
42.0023 117.333 62.3008
81.6608 71.3513 83.4857
34.8646 152.652 155.482
99.6233 61.9124 125.975
89.7945 158.806 180.883
69.8365 117.322 187.159
48.2376 169.7 105.159
94.7894 57.3093 135.5
26.225 99.7361 164.886
122.924 82.2418 120.591
27.4974 85.7832 80.905
104.769 16.4302 143.238
92.7772 132.138 185.048
105.041 153.927 69.7891
64.0468 147.156 67.9495
122.933 170.365 100.454
109.147 5.56804 138.613
107.264 134.075 182.706
100.42 83.9207 85.0226
24.1081 82.3955 97.5127
48.1188 176.953 125.84
130.258 168.204 113.121
107.349 152.899 176.584
54.6191 166.845 92.5
67.3527 143.871 182.635
63.7691 157.95 76.1615
47.6485 174.61 114.122
125.506 152.256 159.668
56.8343 154.19 77.8947
87.8323 71.6776 87.1377
96.8842 62.2525 120.17
14.4333 130.852 105.374
45.3138 122.338 63.2244
104.461 165.097 162.346
93.52 111.758 59.0123
83.3186 135.297 60.6194
76.982 105.71 185.049
121.773 167.069 88.477
114.791 168.792 150.214
39.2301 58.5778 112.328
98.1642 168.048 75.7457
94.7444 7.23068 155.5
102.779 73.3147 153.604
115.221 151.608 70.0863
120.205 17.3048 149.401
34.6575 116.96 64.8318
18.2736 136.299 100.811
69.1651 129.12 59.3951
16.563 101.072 97.5514
90.0816 123.806 186.055
75.9545 184.179 100.53
114.183 144.064 175.33
122.429 102.973 164.934
111.395 146.005 67.0571
60.9775 140.105 65.2496
102.861 159.513 171.318
98.4257 151.655 179.325
110.821 158.34 170.136
122.536 136.135 70.5473
84.1004 154.667 180.632
19.4156 98.0481 84.0658
130.771 1.66911 144.988
70.143 96.5664 58.8668
18.2914 152.176 133.352
131.096 8.55337 150.938
95.4259 15.5773 149.981
126.935 6.43817 144.015
122.673 166.527 147.849
77.3237 144.222 184.789
50.5865 52.8125 140.629
73.4106 161.949 175.524
106.593 182.786 99.5235
134.16 1.68302 155.148
96.1808 163.005 170.597
83.2832 145.513 183.834
96.3408 13.8425 156.277
75.3189 133.741 60.4127
68.6609 59.0584 97.4063
126.216 172.559 133.598
60.4409 102.218 183.715
61.5353 178.151 104.9
108.063 146.296 178.919
82.908 167.669 165.162
66.5358 178.682 142.009
25.2676 95.6452 18.8593
34.5313 125.502 170.24
115.151 162.067 157.804
115.009 3.37016 135.715
102.654 19.5828 159.658
100.129 93.6455 177.783
112.76 181.695 108.595
101.262 1.26233 132.497
99.9752 12.2224 140.035
120.447 177.901 105.544
97.1584 170.142 155.215
103.97 105.007 63.7782
107.47 77.2717 157.821
95.6842 1.31292 135.666
60.6822 61.3932 97.4023
95.5986 2.56308 150.829
63.2694 56.742 97.2859
111.221 179.49 132.908
121.277 173.823 127.128
121.728 173.245 146.282
20.3047 81.0585 93.5138
126.411 154.462 118.477
109.827 21.7802 155.024
91.9947 169.731 160.923
61.1463 73.0254 112.589
14.7178 139.201 99.6308
113.787 178.775 98.6861
83.9233 188.175 104.563
124.659 1.94059 158.312
