ply
format ascii 1.0
comment Created by Open3D
element vertex 48
property double x
property double y
property double z
end_header
63.825 100.366 74.5246
82.3123 39.6949 97.6012
61.6089 98.2368 73.7075
81.0588 38.501 95.1531
80.6149 37.3904 93.3458
65.0136 101.669 75.525
85.4571 40.9425 99.5908
81.4111 41.0208 98.1024
69.4138 101.479 75.1415
64.5036 103.316 73.708
80.6037 38.1372 99.0676
82.9937 40.9662 98.9389
65.6932 100.584 73.6603
83.6974 39.6488 100.014
81.2868 37.7992 94.9129
78.0479 36.6419 97.0346
51.4599 134.082 67.5417
65.2322 95.2726 43.6439
61.9398 97.417 43.489
51.9137 132.177 68.2731
67.4291 99.4382 75.3772
85.6709 39.9873 99.4557
49.9954 185.545 125.143
81.495 39.3056 100.485
69.875 103.479 74.1175
81.5508 38.6237 97.8425
113.451 41.5253 117.784
49.5389 185.626 125.197
80.7727 38.1682 100.376
51.6581 133.755 69.663
63.3781 101.299 43.714
65.1087 99.7497 76.6495
77.6102 38.7153 95.4134
84.35 38.3508 98.4636
81.6594 37.3195 92.8612
65.7348 100.348 71.6177
50.617 185.396 124.894
60.2722 97.0651 73.3786
51.6216 131.309 68.1636
73.9852 75.5393 116.193
67.0363 95.168 44.5131
53.6253 186.318 125.576
49.375 136.466 66.9543
50.5827 184.334 126.456
66.9406 92.4485 44.5101
62.602 104.39 74.0175
63.0286 103.723 74.52
53.3624 134.627 67.6674
