ply
format ascii 1.0
comment Created by Open3D
element vertex 268
property double x
property double y
property double z
end_header
15.8266 128.7 115.333
49.567 125.24 145.225
20.345 127.146 92.9073
62.6111 144.484 133.488
58.6974 152.548 138.642
19.6611 145.987 140.564
18.6034 149.468 135.047
35.6971 101.384 133.067
38.8749 165.452 125.689
9.99693 136.203 129.969
42.7213 123.147 154.452
16.4463 144.224 123.689
35.7913 110.027 140.521
18.127 98.5332 87.0763
21.8792 110.714 107.454
15.3444 113.325 129.711
28.2166 116.399 141.77
47.3404 157.878 142.454
36.2322 146.054 102.804
25.087 151.439 144.78
30.8677 150.727 151.616
14.6587 123.286 119.484
23.7396 97.2318 114.342
37.0677 134.161 101.827
35.9433 97.7624 119.615
7.06014 100.62 106.903
13.6897 98.4478 124.931
38.823 151.607 144.266
50.1022 141.853 152.962
20.7639 119.039 139.549
61.1266 140.225 147.924
36.864 117.383 147.2
45.7005 148.031 97.5656
51.9376 108.542 94.3425
24.1981 126.9 82.1994
21.6539 132.918 87.1315
11.2929 104.676 132.41
48.5794 102.969 82.5918
8.54392 124.585 114.441
43.1228 159.487 125.078
28.1197 111.235 76.7345
31.3986 144.637 95.1134
39.0876 145.618 92.1526
32.123 131.358 86.427
13.4653 103.26 112.528
20.8494 121.837 147.828
19.9709 149.834 147.857
6.36636 113.052 100.999
42.3501 165.93 134.607
12.8286 125.294 137.683
13.1657 116.631 125.05
17.1873 94.9848 113.629
16.0182 124.503 142.962
10.4615 130.904 124.874
6.41356 103.855 113.709
30.8579 94.1377 110.939
42.8726 143.187 153.751
41.7971 145.386 109.406
13.8328 108.404 126.454
46.17 150.651 149.786
15.3242 129.933 128.731
15.0447 127.408 77.8785
46.068 117.506 143.873
51.783 143.051 101.286
47.6703 132.573 155.739
46.9576 109.724 130.029
48.5468 162.625 115.285
55.1428 156.187 140.861
8.78477 106.814 87.9403
55.4604 116.54 141.441
16.6958 126.774 85.6708
13.3207 136.459 143.219
50.2248 150.505 107.512
26.7535 116.462 150.119
47.9131 153.412 118.374
28.1044 99.8252 130.027
8.45289 125.184 123.606
47.3778 127.521 122.339
40.1706 126.737 145.633
8.08681 77.1981 99.0011
52.2296 113.749 81.9174
14.743 110.824 83.0601
29.0181 159.515 118.002
7.85977 120.71 127.224
16.3372 130.254 150.012
23.0901 102.987 134.439
55.9325 133.039 151.318
53.3598 122.783 138.424
27.5292 102.929 121.219
27.6147 157.391 132.108
52.8676 146.141 148.861
52.7883 114.886 96.3768
47.2393 136.331 93.4915
28.086 133.496 93.0649
44.2451 102.491 115.616
7.58198 120.964 83.8242
34.75 159.769 144.469
40.2355 163.794 115.525
28.5769 154.441 108.714
41.5494 110.166 136.965
32.4513 159.14 123.293
15.6019 151.016 127.836
22.6903 124.499 74.8315
34.3849 124.131 140.146
18.8217 139.082 119.72
31.9674 151.081 143.608
55.0713 120.951 87.6845
23.9807 91.3417 99.8538
11.7127 113.617 134.048
54.3609 114.613 89.6419
24.2475 151.639 116.827
13.6309 139.913 134.955
42.3037 128.705 108.846
24.6899 146.138 153.114
39.3471 161.438 140.583
11.7769 123.34 130.776
44.171 154.936 106.964
49.2947 125.666 79.7086
31.8874 153.887 117.58
24.011 102.133 79.4597
13.1507 137.102 123.965
51.4759 129.796 111.605
29.6878 134.81 136.469
55.2764 124.051 123.809
35.8634 144.269 149.725
26.8217 94.5061 90.9741
21.8776 113.51 139.929
11.9632 143.992 131.251
41.4646 124.742 76.5442
55.0817 159.171 131.441
14.9078 133.314 120.236
10.4538 127.088 88.6577
46.3583 118.492 107.767
27.2769 131.545 77.5551
62.7792 127.924 125.35
10.6687 111.323 95.973
32.3606 118.561 78.8962
58.6231 127.088 113.809
33.9314 147.172 140.372
50.676 120.757 119.397
36.4879 159.876 119.082
36.2107 154.877 107.376
23.1175 114.279 76.1093
35.1923 156.997 114.054
22.5343 99.8769 120.036
63.252 136.743 129.789
41.0948 158.547 111.605
47.3638 160.706 129.204
36.6032 131.316 154.036
34.1422 136.907 143.863
28.8493 102.829 136.618
20.9839 115.99 100.938
59.8122 131.988 146.737
60.9875 145.344 126.36
29.6129 145.608 114.689
37.2341 139.874 154.357
23.9092 138.309 154.998
34.0835 111.924 129.746
44.6999 115.889 125.325
54.8681 142.496 109.576
15.7441 115.423 138.191
59.7729 116.052 131.132
48.2991 116.045 76.4283
58.1536 125.365 147.528
10.0849 119.001 77.1837
47.8875 120.926 86.0075
15.4365 110.334 91.1842
65.0054 134.534 139.688
55.7202 110.866 124.033
12.9033 131.946 135.768
21.1777 155.045 123.736
53.6239 129.615 85.9211
53.7278 111.65 104.201
27.249 149.009 109.656
45.1807 113.623 134.106
57.0972 146.551 121.439
41.1085 118.039 72.8894
25.5525 105.457 127.616
41.4637 125.873 121.748
12.3177 131.766 71.342
14.831 118.202 89.3604
36.5537 131.706 91.568
25.8888 109.189 139.91
37.5238 109.392 75.3712
19.9565 98.5511 104.074
56.4876 133.037 127.756
38.2944 114.1 132.938
23.6347 93.0032 105.154
38.4719 149.701 109.054
56.891 140.58 119.4
16.5111 115.525 76.9783
32.6341 124.647 110.307
36.8272 121.691 134.286
31.6131 105.139 140.082
28.4655 140.618 147.634
28.766 99.4213 82.1349
17.6089 105.352 137.94
44.3244 134.084 84.1427
30.8945 112.572 137.726
23.1347 145.754 119.778
41.4218 118.608 142.767
59.196 137.766 111.571
20.8737 115.055 84.3666
31.6476 129.269 80.4274
44.2185 103.08 122.264
21.9827 135.423 144.743
50.3906 110.648 119.065
18.2996 98.4647 119.995
48.2226 103.194 101.748
58.2288 134.225 94.2579
49.3768 131.722 102.341
19.9269 95.1014 92.0312
24.9465 153.595 135.951
33.5481 150.381 109.857
26.3423 154.756 121.114
37.7187 159.813 132.07
45.1153 119.452 137.614
14.7728 141.713 140.369
29.0288 98.0797 103.892
29.6058 125.152 141.294
49.3154 120.288 133.525
34.47 105.935 114.138
56.7239 132.033 122.245
19.1792 108.99 139.863
30.1417 141.279 110.464
51.6786 133.533 118.032
62.1315 131.603 135.718
49.0953 128.428 152.401
32.7605 156.44 136.266
26.8273 130.578 142.91
55.045 153.062 115.981
44.4237 102.013 78.0738
53.1299 119.546 128.539
31.7473 160.342 140.177
37.7426 142.803 112.519
19.3086 106.205 122.606
59.3802 126.212 133.732
49.1474 128.505 91.8043
41.0461 100.382 81.4461
45.4108 122.945 130.89
31.3281 160.284 129.244
51.9779 120.898 111.711
55.0164 142.442 115.745
24.0482 135.874 139.393
20.8568 101.049 93.3565
26.8656 157.613 125.721
39.6035 109.552 128.433
59.0184 140.416 125.028
17.5823 126.758 133.746
46.9569 146.102 111.094
62.5791 125.799 118.359
55.6661 127.742 128.997
38.5701 113.8 120.752
39.3539 105.571 146.73
28.1873 123.193 76.6316
43.4799 107.261 125.396
58.1899 127.071 99.4376
41.4412 127.661 157.437
5.81297 75.3172 109.933
54.9263 155.792 120.953
35.1166 106.933 123.241
48.7167 109.798 113.536
17.3282 135.376 136.126
30.3331 129.703 152.639
17.4021 115.573 104.404
27.6373 101.337 111.725
57.9288 136.552 123.451
49.2461 114.547 109.722
