ply
format ascii 1.0
comment Created by Open3D
element vertex 1288
property double x
property double y
property double z
end_header
39.2927 82.8179 169.03
36.7744 42.0417 161.689
13.0955 123.496 124.173
21.4432 80.961 80.5846
23.6804 54.0143 101.024
19.5644 35.5911 113.368
20.3776 116.319 163.107
42.4293 128.664 183.44
23.5866 57.4859 136.299
20.543 35.2433 129.52
37.4644 48.3723 97.8296
19.3298 68.2458 131.681
10.1073 68.8522 110.975
25.9312 123.249 138.863
10.4474 13.5128 154.284
34.77 37.0131 151.618
15.2851 23.4271 121.229
10.7311 75.4755 124.458
23.5784 51.7762 178.567
41.3369 196.663 14.2565
45.7449 49.7216 104.572
40.0748 41.2257 92.3659
17.5925 17.92 150.428
10.1343 84.5087 100.793
14.0565 51.3077 102.394
43.8271 127.342 7.0658
32.5653 13.6939 187.47
29.4971 62.1423 190.349
10.1891 89.5518 156.041
13.6176 49.2443 157.419
28.6318 83.8164 80.3309
28.7681 80.473 156.606
23.7573 41.9712 132.229
8.71335 69.1768 145.194
33.8314 36.8312 131.496
17.9366 146.877 17.1125
35.3143 122.152 151.469
42.9065 56.8687 107.946
49.6739 88.1031 72.4976
40.5353 41.7145 134.139
34.6097 77.9043 185.56
18.7759 56.3081 96.752
23.4118 127.163 121.9
30.583 85.1658 87.2992
26.1102 69.2605 191.37
36.3404 59.2901 191.698
51.8304 80.9367 137.385
19.8106 57.9615 123.981
44.6665 98.2065 162.455
35.5109 87.7517 175.325
25.729 55.707 146.324
20.42 42.8001 119.296
19.1762 117.74 146.259
48.8892 127.57 162.068
32.7406 47.2842 172.36
41.0247 88.157 92.4703
32.3581 20.2119 123.867
52.5818 61.4815 67.0601
41.4074 11.7178 166.565
33.4944 78.463 87.2062
37.6017 44.7845 154.692
19.7637 96.5128 96.0544
13.2359 92.6259 101.926
61.7404 97.8368 73.2152
25.8464 34.3774 108.301
23.659 22.6118 168.829
11.83 97.3467 111.885
54.7437 37.5819 127.143
29.6834 47.6845 165.367
45.2442 52.539 175.382
44.3322 132.126 174.772
32.7297 74.4977 99.5767
36.3818 50.2518 68.413
12.9839 80.9978 83.0414
13.5371 90.3261 88.9982
10.1911 61.8967 147.573
27.3446 44.2499 105.911
13.4989 53.2377 171.164
14.2151 67.7257 97.8219
42.8923 67.0032 146.592
22.4297 109.56 164.865
26.2397 87.4056 185.649
52.7641 130.528 172.554
26.7246 95.8764 95.3875
11.6937 136.605 3.64909
11.8134 145.862 4.9897
34.6603 116.23 126.602
37.1558 32.747 123.668
55.2755 108.206 211.38
11.7056 78.2875 139.754
12.8404 111.385 137.036
19.9989 78.3562 160.255
32.9819 23.5025 165.291
16.5085 123.114 96.5575
25.8739 115.543 122.713
9.78994 79.1241 180.309
38.4722 54.9416 136.687
46.4578 97.2066 203.254
40.1681 76.4156 148.172
18.3307 57.298 82.7113
8.57588 63.232 163.652
42.5574 34.454 147.296
50.2884 85.5281 65.7991
19.6571 47.892 164.28
29.3911 114.539 100.371
27.754 20.549 105.982
49.3784 98.3598 157.412
12.334 58.9367 128.159
46.6642 51.9842 70.4271
11.1573 8.43276 186.944
8.97375 59.426 107.585
15.185 131.682 112.5
12.3906 102.045 152.395
58.8304 79.2404 137.024
53.2358 97.1425 125.367
64.1194 108.987 210.923
31.9176 197.707 25.4497
44.4269 29.111 98.9053
47.7223 69.8377 62.397
32.2647 107.007 168.747
30.5019 110.36 110.537
18.1846 59.9517 185.232
20.3805 65.2945 78.4056
21.0036 184.082 21.434
41.3665 107.55 167.892
14.168 89.591 143.698
39.8687 23.915 102.418
14.122 58.1464 138.068
42.3861 33.7859 105.192
9.04797 60.016 92.6783
21.4591 52.7723 168.441
9.25069 81.6243 119.129
36.1444 33.7914 159.551
41.014 100.887 201.917
39.5853 112.456 143.871
15.7875 10.5504 117.544
42.4847 128.549 161.793
43.9757 7.46367 160.794
16.1474 25.5981 170.841
50.6043 66.6911 83.6914
23.5485 98.1739 141.558
50.3797 112.608 187.85
21.3963 68.4266 91.9826
18.5339 26.9007 132.561
10.1881 86.6911 174.625
29.2846 70.7002 125.203
54.485 129.037 186.519
21.7575 4.51582 109.311
20.0155 136.447 83.0966
47.3892 18.6429 162.157
11.766 56.4213 177.398
50.6591 121.015 205.671
13.5554 73.5467 181.56
68.4722 21.3018 143.249
37.4134 115.93 198.527
32.9798 70.4965 131.09
20.5387 43.6695 99.4688
41.6578 52.8378 169.656
15.4743 70.3854 89.7441
33.3025 25.3261 118.478
60.0174 95.0226 203.988
24.631 90.6578 90.077
8.98057 66.8248 102.07
39.0318 15.1306 159.268
39.808 194.824 7.72545
41.7593 97.0502 183.913
29.9716 86.6952 94.8513
58.8547 67.7966 188.693
39.3855 122.373 111.641
41.9873 69.0297 165.268
33.2628 58.8615 99.6532
38.1809 78.1393 162.381
34.1201 50.0286 180.279
31.2374 127.209 100.714
24.3363 26.6809 135.379
16.9566 62.3093 102.446
22.6453 21.9257 112.974
19.0348 36.6924 122.344
21.6994 124.308 81.677
26.718 134.565 85.5529
42.9225 3.07223 142.837
58.8837 124.01 169.244
13.4806 151.835 17.918
31.8058 98.647 108.555
47.0657 110.807 147.885
23.6358 103.919 147.544
30.25 32.8363 124.673
46.0693 61.7521 64.4154
21.1787 112.417 155.307
16.9022 128.331 9.31971
43.5131 60.8366 189.035
64.7334 123.022 193.481
14.106 51.6267 151.154
9.28182 2.2798 128.862
64.714 43.4571 134.52
11.4556 90.9863 109.179
53.2881 87.4434 190.836
35.6633 102.522 171.844
14.0504 189.16 18.6561
54.8584 90.8576 158.638
31.8312 52.9948 188.349
63.7334 54.1335 166.001
32.3203 42.752 80.1342
43.7357 104.012 156.482
30.4108 120.914 107.708
36.17 50.0236 107.779
38.0161 179.949 13.443
43.6587 119.333 205.225
48.7086 125.016 177.556
46.5924 8.69772 171.84
30.8491 93.812 130.995
21.1345 27.0846 157.467
35.8317 95.8661 91.8521
51.6019 31.1111 128.907
52.2116 94.2465 152.413
19.5362 71.9407 196.985
22.0181 93.3239 175.582
50.8158 130.022 180.816
13.9993 73.5945 104.109
10.4138 74.0606 84.9841
20.9697 92.3026 167.571
62.8099 103.969 77.7605
29.8177 114.776 194.084
43.1204 210.182 4.2207
11.3109 13.9252 170.324
19.702 196.542 28.4143
42.3011 47.0237 76.6311
20.1835 64.5456 190.885
19.7696 88.4418 85.559
48.5089 76.0435 119.789
58.8126 101.753 205.471
38.8407 123.767 191.012
24.1183 84.7926 152.727
42.1901 89.8977 84.02
36.7595 41.8616 105.012
26.2805 87.3257 130.684
49.9049 44.2899 136.769
37.7919 32.1136 135.564
54.8097 57.4527 141.392
13.9786 136.664 89.2003
51.1353 105.697 170.651
27.1432 16.1821 131.939
38.2055 122.269 201.807
10.0567 83.0746 144.289
27.3933 39.3225 90.9042
28.7888 102.054 152.47
36.0677 82.2402 71.6705
24.8959 17.4519 185.088
51.9449 49.9436 150.179
21.1541 84.2452 192.765
44.3414 6.95896 186.187
22.2137 105.907 172.61
46.6292 121.459 173.01
35.7587 128.107 158.054
20.2276 45.8917 83.4847
47.4644 114.645 207.781
62.4879 18.361 181.859
27.2868 51.2672 113.526
45.7837 37.3453 175.396
60.3923 63.5485 75.6744
11.4807 54.8025 148.012
10.2163 20.0751 177.782
51.0787 54.8641 159.945
24.0779 56.2844 186.733
22.7608 20.3334 126.815
22.3046 48.5262 123.181
57.3077 124.334 175.934
49.5633 58.2985 167.618
36.492 56.3904 129.101
25.6196 66.532 134.356
50.6176 86.9553 182.092
34.0709 49.2041 142.043
21.3209 14.6143 162.76
53.3829 55.9779 183.905
35.4139 53.1932 93.3435
30.0946 211.302 18.5955
68.1537 100.093 201.907
72.4446 113.494 183.555
13.1059 142.458 92.1804
50.924 63.6043 96.0129
52.5796 128.837 120.217
49.3012 88.784 166.888
48.1334 77.0334 126.695
47.4049 82.037 107.385
26.6925 65.1336 158.693
28.5246 3.59404 194.595
29.9711 70.6003 69.3241
25.0244 48.5985 159.526
33.1027 48.4617 133.219
18.3858 64.5102 173.239
16.317 175.901 4.08268
22.9228 126.197 98.7812
31.5301 14.4338 104.35
19.1163 209.203 19.6642
22.5866 140.888 89.512
39.6045 79.3452 65.4116
13.7803 71.0454 188.948
41.9323 79.8821 192.115
31.4382 93.8771 103.252
35.6793 103.904 156.614
17.9291 53.419 179.444
34.9467 130.187 174.652
12.458 54.3203 93.3382
30.5675 60.3862 139.205
52.3236 87.5969 143.271
42.8733 41.7932 149.543
23.7802 50.1211 77.4696
43.6383 71.6522 92.5814
26.5111 40.7933 82.2831
37.848 71.1264 194.087
9.44545 6.83896 178.01
45.4684 84.2766 78.9033
33.1498 62.6231 133.268
31.174 47.303 150.054
24.6567 8.96495 157.184
27.6569 52.4452 168.666
26.4698 79.9981 72.3398
46.605 77.0281 87.0507
42.3744 43.4409 108.947
56.9472 74.9375 63.5667
22.6535 70.9595 82.5738
38.7437 86.7454 78.4808
12.655 195.847 24.3784
21.9552 57.5314 77.5553
39.3669 99.515 164.81
24.5675 19.4067 154.366
14.1543 10.7685 142.091
9.04792 61.3978 154.343
55.4048 75.6329 119.351
45.9564 57.0455 95.3449
35.6372 8.12938 191.003
33.3651 69.1435 164.721
67.3116 121.487 200.362
62.436 35.0101 130.363
18.1789 2.39905 123.126
66.9486 41.4404 180.898
46.5945 125.887 201.262
18.3566 16.2181 113.734
13.8301 92.7102 124.292
24.286 145.92 14.3356
46.1079 106.929 195.576
17.4666 62.873 85.9044
16.2975 136.06 17.303
13.1418 60.9063 168.677
13.5567 19.1711 161.517
10.73 13.7476 136.846
47.1121 81.4714 169.316
43.7035 91.4558 166.203
28.8823 52.6945 183.558
41.0321 146.756 2.8595
21.4452 58.1479 151.604
10.4958 126.001 116.433
25.0255 116.198 91.1747
14.1872 80.7681 97.1189
53.9553 80.3916 145.989
23.259 139.733 101.179
18.1468 16.7461 168.037
10.0957 73.5457 94.0702
67.0252 116.184 203.629
16.5805 72.4321 82.0348
54.6017 54.7131 104.928
42.7067 121.829 102.372
64.4195 81.7537 68.1984
24.1248 70.6146 73.948
24.216 56.3635 157.855
39.3369 52.5908 146.021
34.9315 151.879 7.24084
16.5919 54.373 107.844
41.9016 96.7664 86.1085
38.2159 122.844 136.767
24.2021 115.088 138.359
53.3077 93.6336 206.567
44.022 75.9634 102.117
35.1871 55.576 113.116
12.822 19.539 143.804
10.7932 44.7866 162.603
22.2873 12.5521 119.61
65.4439 91.2662 73.7833
17.8005 81.7513 187.26
25.3363 121.333 17.8825
10.4526 69.6496 138.096
37.5199 65.7645 192.036
50.4481 3.49309 184.76
39.3454 27.6874 127.307
51.9947 84.1518 175.61
27.5103 62.2537 75.4477
55.0358 3.66493 127.206
26.4475 53.1722 128.431
53.8078 39.8016 182.729
17.9712 5.40627 153.23
82.1019 14.9786 162.505
37.7704 46.4783 138.361
43.8405 14.5896 123.921
30.8519 40.4342 137.344
25.233 119.627 157.571
20.7472 137.613 108.195
25.3848 112.884 178.191
38.0975 106.095 176.702
10.2473 62.0587 116.314
38.2317 36.1873 110.595
44.8862 126.011 194.735
48.844 97.0846 85.4618
72.472 105.358 84.4303
27.1997 47.8572 132.078
54.0904 50.225 140.223
45.0708 65.4838 94.251
37.5507 2.47581 198.995
46.96 89.3851 189.46
15.3149 116.925 117.286
41.7456 59.1265 142.664
28.5073 129.367 91.3102
18.9177 109.569 97.1056
52.0166 77.7621 131.307
37.6755 132.49 167.961
40.2383 77.3547 95.3527
19.4209 48.1652 108.821
45.8393 125.187 188.886
70.6168 28.861 171.26
16.133 118.419 86.417
40.3903 115.192 150.741
44.3872 18.3693 154.435
13.6625 100.492 105.811
12.7162 88.9346 166.206
9.66906 1.93251 166.045
45.3394 59.3274 180.905
11.9857 89.3934 118.654
8.85325 77.1765 172.518
44.7153 48.3764 163.988
44.1777 4.42737 193.005
19.9599 129.751 116.917
27.3135 27.2752 118.017
24.1101 83.966 136.354
37.2657 68.4642 96.5507
16.8408 205.202 10.5728
34.9196 128.004 5.87393
57.125 32.1734 181.477
61.1938 15.0185 138.065
40.8416 91.9471 103.497
42.455 58.9402 73.9181
17.666 118.761 135.964
39.481 107.556 114.063
34.5553 116.518 179.279
52.0859 24.0121 180.64
35.9727 64.9048 111.674
9.40439 65.7152 127.88
32.125 21.2609 176.067
40.1446 115.637 116.006
36.7756 73.0299 157.745
41.7714 7.50553 136.118
28.2912 88.9285 140.225
54.8454 2.53924 160.596
33.8033 66.5 65.333
20.3784 42.9437 91.8057
63.685 113.728 157.079
27.1656 35.3206 133.33
27.7443 111.353 128.736
14.1372 132.016 79.6326
53.8771 113.705 147.299
33.4812 68.0182 153.969
56.6283 42.1835 131.931
40.0431 117.425 132.542
27.1854 76.6431 132.762
60.0802 68.6969 162.73
37.9097 73.7423 86.0728
38.0491 113.463 136.677
52.1203 54.675 83.0407
35.6283 176.556 4.64046
22.7042 171.054 2.40474
14.6349 90.6664 95.9582
18.522 53.9087 144.763
48.9757 68.3264 128.334
21.6158 9.11085 169.831
32.1697 76.4347 67.9453
44.3458 86.8703 101.9
12.909 69.6716 150.966
15.3196 19.2971 133.273
12.0991 2.42113 120.13
29.2211 154.672 4.51562
23.0754 64.7722 164.841
28.7166 55.0809 68.6166
35.2716 187.062 20.638
38.4184 40.5679 84.9465
39.0454 112.763 158.376
23.2636 47.2697 151.375
50.0495 101.442 175.851
25.6776 120.511 168.395
36.8152 77.3798 106.872
45.8385 69.2531 116.6
29.5094 26.9493 136.322
9.74235 65.9715 175.935
16.1462 18.365 185.624
42.7656 125.707 127.236
29.6253 185.722 13.7372
27.7771 76.4022 78.5005
21.846 76.738 170.262
69.8021 10.2001 160.986
36.0924 47.7988 75.1246
60.7918 131 104.236
9.16815 83.7676 90.2917
38.9598 95.89 113.812
40.4402 83.1235 177.59
48.6598 22.1301 99.6207
64.3529 86.3585 162.8
21.3 44.9462 112.668
51.3454 48.1662 168.013
11.8015 131.787 10.1224
15.5416 54.8169 88.638
22.0141 83.8661 143.306
34.7576 81.7926 147.203
47.2777 2.84278 152.027
24.2993 123.231 89.6131
11.3977 109.044 143.859
65.0774 119.67 178.741
54.1556 116.478 199.067
75.3984 103.962 122.583
39.0263 82.0126 102.165
11.718 5.73889 157.914
59.3326 125.378 199.282
49.5379 109.856 211.234
14.9254 67.3056 159.925
34.9839 111.932 119.785
70.1049 112.208 198.037
34.9126 109.259 196.885
25.6383 100.905 100.981
51.9893 71.1193 99.4172
55.0391 123.112 140.007
27.2707 8.39873 189.685
39.3379 20.798 173.704
14.0044 57.3121 115.585
49.4958 127.215 155.46
11.9436 141.14 12.8907
18.6445 46.69 155.398
54.7253 68.3376 149.44
28.84 95.2582 185.351
31.1641 106.12 161.351
21.502 178.944 10.2453
19.7747 10.1639 137.271
59.1498 26.3518 183.051
58.1927 66.7719 171.017
18.2994 2.65736 189.588
25.8624 79.4429 163.102
19.596 8.37368 147.071
49.1151 93.6986 178.733
17.3753 84.4429 174.027
14.7924 65.2154 181.528
32.8742 133.398 10.932
36.1605 123.227 180.34
28.0532 19.7276 165.876
9.72625 13.7541 180.878
55.1517 87.3363 106.745
45.6275 115.389 155.727
48.5301 48.2757 76.7587
48.4532 77.2013 64.2126
36.2924 194.815 21.919
17.6873 96.1831 115.508
39.0046 24.7611 168.834
31.8435 76.0532 196.802
47.5983 71.1783 133.928
34.2376 30.2148 112.698
45.4969 72.1459 110.376
30.61 8.642 168.138
49.7342 35.9917 135.384
71.2213 46.4864 172.156
18.0492 108.224 128.944
48.4645 79.4468 114.36
18.166 130.301 18.6924
26.8834 43.7645 157.168
16.1689 108.985 104.94
9.17613 23.0026 169.846
27.026 153.455 9.5923
50.004 16.5857 101.924
55.7412 94.2347 114.323
32.8837 212.439 3.35707
34.5489 95.3997 183.075
69.6452 119.156 191.096
38.1221 59.9487 95.7114
25.2338 106.43 138.859
53.8436 79.2852 194.787
56.9171 91.0713 70.9848
54.4676 7.91015 172.862
21.8602 154.161 10.1059
30.0215 17.9875 157.33
43.3513 66.0823 83.144
29.2581 52.7437 141.916
51.2451 133.902 166.445
29.1449 79.1194 126.559
20.8765 69.1137 183.428
39.2907 144.27 9.92687
11.5053 2.06281 148.547
50.8548 107.408 198.598
54.7265 16.2287 136.761
63.3176 34.4061 154.861
16.0461 12.706 158.652
56.467 15.3607 105.067
59.8419 95.7809 88.9338
17.1239 64.0232 94.8275
47.9711 127.841 123.452
62.7014 67.0872 149.121
70.9902 69.959 81.0102
30.6901 134.762 93.2686
30.1553 121.771 95.4187
49.3375 29.4897 177.639
66.0109 92.2364 202.343
34.348 81.2511 111.339
22.4273 202.915 23.5796
55.7679 89.7822 198.73
43.7012 40.5175 167.581
66.5326 123.213 123.254
25.365 104.86 126.407
12.601 22.743 155.727
52.6617 19.8447 120.289
9.50362 113.309 109.074
65.2806 119.212 170.634
18.5889 29.0508 119.116
49.4353 11.9093 144.848
46.7158 43.5196 174.568
65.4107 103.155 207.655
49.9004 99.7837 149.466
23.3658 99.5399 170.57
70.7396 86.3588 173.44
11.4507 125.663 105.05
47.3473 93.492 121.758
45.5516 6.0289 113.474
49.7768 56.6279 108.282
16.8362 154.807 10.7206
61.2452 50.271 139.376
14.8109 109.224 147.453
24.2502 2.94062 123.676
22.615 94.3213 153.427
25.6413 10.777 184.199
39.6083 4.05534 168.459
37.1916 46.4681 148.175
55.921 5.6826 116.424
60.1649 124.347 187.839
66.92 30.0822 180.418
42.6783 77.9243 178.056
48.4526 39.3059 107.747
31.2716 123.284 178.858
29.355 92.9437 177.205
20.1043 129.061 90.7974
48.1507 63.7578 109.629
61.6407 124.877 142.82
51.1785 119.247 181.873
50.7309 106.329 151.728
75.7907 23.4633 171.441
41.1913 23.0025 124.095
39.7944 95.5864 172.82
56.2002 87.8957 150.753
54.0891 66.9024 163.602
26.8905 177.848 8.54834
30.4409 43.9142 98.9387
16.7974 73.7436 152.247
12.9117 182.15 3.23186
32.2325 55.3839 173.344
50.2509 91.1963 199.632
51.223 130.961 100.793
60.091 121.016 206.286
36.191 45.2854 168.239
47.6796 96.7347 106.187
14.8717 122.514 5.08622
34.3502 123.435 144.399
75.0521 79.7846 189.332
28.6454 63.0609 167.05
37.3566 100.529 104.208
44.1227 72.8683 192.576
30.3526 99.5124 134.935
11.3519 113.018 121.336
17.7494 100.744 100.28
58.7674 116.746 91.302
23.8247 2.19052 162.209
50.814 96.2543 75.9954
34.0482 76.2404 78.0255
44.5293 74.0362 140.011
30.4436 111.19 135.038
26.2018 7.89645 137.698
25.4377 74.599 186.765
20.2773 118.974 12.0075
56.0856 6.26148 146.911
70.0803 107.871 205.811
55.1693 109.604 158.173
37.5279 212.017 5.84331
26.8092 71.2656 166.15
54.6724 92.7182 119.057
44.2347 99.3026 193.845
30.3104 93.9584 137.467
53.1768 2.91757 153.288
72.2423 90.857 197.355
23.712 139.222 18.5639
57.0184 129.816 163.67
15.7522 18.0068 124.93
57.3963 9.05366 160.399
29.0698 137.613 101.018
17.1074 2.25652 114.471
22.7324 83.2724 182.058
25.5351 120.322 146.228
31.2565 77.5968 174.431
12.3871 206.823 3.31828
58.7944 106.073 149.96
19.0966 92.6446 132.923
42.9028 88.0239 118.738
38.4669 203.941 3.54318
49.1447 124.33 110.35
46.9055 123.964 116.196
66.1076 6.82069 124.434
12.6999 189.407 4.07718
72.5394 85.854 163.752
19.2728 9.55613 180.299
48.8558 61.53 173.315
45.526 31.4731 127.821
42.0174 125.923 172.538
27.7286 106.245 106.436
45.8138 92.3681 76.7692
65.1252 53.4578 148.961
43.747 119.939 143.904
36.1527 117.069 189.209
61.4021 86.529 199.639
72.0695 111.474 192.183
45.1741 2.10616 199.562
32.8759 139.37 19.4627
64.7225 35.5762 177.694
26.4676 66.3819 145.651
62.7 116.024 198.404
24.5389 85.0034 175.53
12.7345 77.9274 132.479
20.6847 110.94 134.142
25.9037 30.9959 114.697
26.2595 125.43 7.58969
40.938 19.4672 144.72
21.9277 102.721 107.484
37.9574 28.6142 160.957
30.0427 79.5846 144.431
52.1869 92.4162 102.398
34.3035 117.691 10.848
43.7771 131.507 113.318
33.3798 140.996 10.2511
53.2897 97.1803 95.0913
14.0794 5.9477 169.213
61.2202 75.959 143.356
60.1923 106.394 111.753
35.2465 21.8679 105.936
45.6911 26.9212 161.027
73.1042 47.2237 164.25
47.2487 120.879 135.548
33.4386 84.5427 100.749
52.1859 101.623 211.063
41.6186 11.4517 141.81
13.7404 200.683 18.7724
29.6836 147.647 12.6572
43.1077 78.7802 110.928
42.9923 97.5921 117.422
31.6452 69.0222 94.9681
52.1197 14.8335 154.387
41.4024 118.505 123.533
55.7237 98.5952 79.1055
17.6787 65.457 155.41
13.802 9.28666 124.599
52.7734 117.575 92.7677
39.3358 55.8621 177.317
53.817 80.4973 73.93
31.6164 59.5205 66.2508
65.262 32.1472 166.015
39.5745 107.909 105.487
51.6603 122.648 127.994
73.5581 66.3631 167.573
43.2977 136.681 6.92944
22.9171 72.572 151.045
49.3699 73.1751 144.618
48.7545 56.9711 136.936
16.1375 106.636 121.956
26.1832 206.42 4.29613
44.7862 70.3304 152.696
76.0928 98.5493 194.925
41.7817 101.885 112.291
24.1173 15.0196 144.724
41.007 81.8711 140.215
49.0987 92.6871 162.447
30.1752 11.0761 144.774
50.1244 125.433 146.425
23.9936 96.3595 130.254
57.2757 123.789 126.383
35.6081 11.6729 152.497
33.9807 2.01278 103.569
19.1209 99.4464 145.098
62.5481 48.8689 180.062
32.099 118.564 160.076
15.8044 3.18265 137.685
59.1016 112.289 166.513
33.3813 2.9764 172.122
18.3314 79.4663 181.168
24.2795 190.849 26.6609
56.3695 82.6208 186.467
47.8701 24.6207 123.025
42.5233 83.545 70.6047
71.1901 96.5702 79.7879
21.5958 92.3992 145.08
14.4533 215.299 15.1126
33.8515 18.598 144.195
30.3742 204.718 23.4417
17.507 109.182 150.944
70.2657 73.3466 116.951
62.1356 100.751 172.783
10.6688 150.996 11.9222
56.3744 21.9763 132.436
62.7582 116.075 210.621
35.0614 81.2291 117.541
29.0718 1.91502 156.599
12.0664 201.14 10.5861
39.558 10.6168 103.872
69.5989 37.1132 173.431
60.4393 122.716 108.538
61.1189 87.4009 150.266
40.662 20.0307 129.136
32.7495 70.1254 118.478
38.5927 116.925 103.739
9.78515 128.886 95.8849
9.12494 54.4546 157.659
50.6203 116.397 120.583
29.277 144.66 3.18445
48.6378 64.6925 139.661
53.4163 103.087 162.177
55.1999 103.737 195.744
51.6623 65.709 104.363
33.8517 112.445 143.826
64.3351 76.0227 193.121
39.1197 106.435 97.6199
12.7004 102.832 117.355
11.4765 155.362 2.77848
33.8453 84.8197 183.75
39.6448 183.459 6.38146
26.5246 9.55718 151.431
29.4192 6.60451 111.414
32.1925 111.341 182.806
66.4328 72.7463 154.129
32.8962 2.08181 150.251
27.5102 110.02 120.07
56.5449 71.1083 125.94
48.0035 57.4214 88.5212
24.4802 62.0361 101.009
35.8167 89.1565 113.678
53.0887 116.366 171.157
31.3454 64.1268 147.378
17.919 63.9404 150.403
15.0529 124.128 15.4946
47.6336 105.698 104.654
31.9507 79.1217 133.303
46.8983 24.2243 169.873
37.9257 99.2031 96.5661
60.0216 105.897 173.622
26.9496 124.726 174.557
54.5768 62.5371 89.8608
54.2759 120.671 155.648
44.8594 1.53586 119.328
46.9725 53.0713 152.778
25.6573 190.354 11.761
47.7563 1.84281 135.101
29.0682 51.635 74.3327
43.5101 58.3861 149.227
36.1767 80.0748 137.104
50.1597 22.2898 152.234
61.715 38.6813 124.536
13.0279 83.6356 124.772
55.0281 73.7765 71.9155
27.7467 77.6233 169.636
43.4047 78.5783 130.489
31.0326 125.587 161.85
63.5032 90.8232 170.343
45.784 51.122 136.488
12.2964 69.2108 118.678
19.397 49.7634 90.151
40.951 61.4441 170.122
62.6046 90.9187 93.8726
40.8778 64.8286 66.353
9.79467 69.4534 166.719
8.645 79.7352 152.768
30.7478 130.386 15.7973
65.48 92.938 127.729
46.2185 92.815 98.0204
70.8264 81.0937 114.26
40.6036 107.665 194.59
37.6965 5.95148 159.326
72.663 49.0163 151.693
33.7874 106.853 187.047
51.6566 21.3799 130.017
70.7078 69.7656 121.234
32.7292 21.3615 131.915
50.6095 71.8554 193.904
10.1102 116.499 103.008
22.6438 218.478 7.00796
43.4211 35.9631 134.601
60.378 74.187 183.833
39.719 136.788 14.6686
10.7559 137.941 95.3034
52.9332 77.1064 184.946
44.1246 52.9298 90.5137
47.823 65.9084 122.544
38.8908 93.5489 125.989
28.3409 119.636 151.186
54.4412 107.767 182.266
37.4828 61.6446 121.035
10.4032 118.505 94.1736
67.7571 32.6924 121.692
53.8805 132.507 109.009
53.2377 95.7873 109.861
69.5178 124.504 174.975
48.3284 105.507 188.443
28.9853 61.2147 117.806
78.9224 25.995 127.348
11.7503 124.269 89.7387
22.4826 66.5239 126.079
68.4099 22.0128 182.089
32.7821 109.145 176.264
64.7028 97.7962 133.232
15.4917 101.652 127.906
42.7893 87.2544 139.606
54.9313 78.5557 105.666
43.1242 47.2206 84.5919
61.2696 124.236 100.427
14.1435 75.7479 157.429
27.4518 70.457 95.1249
10.584 7.89821 164.458
30.3014 49.6134 80.5941
62.5426 94.9666 99.3481
32.7475 197.715 3.70643
44.2755 141.4 3.61728
53.9016 66.2843 72.1547
40.8115 61.9981 134.311
51.7653 10.8819 163.581
58.4356 82.1499 73.3674
40.2264 58.9565 113.385
21.0402 101.376 162.893
74.5233 24.5171 161.041
52.83 27.0888 100.271
20.6574 94.4316 160.548
35.2457 80.2209 192.386
66.1555 80.1721 155.41
32.7042 125.257 170.337
54.1487 32.7481 102.596
51.2835 121.629 192.246
61.1296 94.693 174.828
29.3355 100.539 178.332
31.5194 37.0309 105.901
61.5311 27.0212 103.287
42.7422 74.7532 171.02
47.4442 65.1968 190.996
77.1955 74.9592 182.891
24.8355 127.765 110.069
53.034 64.1181 188.613
22.5889 59.065 109.691
29.9843 2.4125 127.905
18.4615 80.6015 128.465
37.6858 69.1697 66.6412
57.1042 124.758 115.28
39.1059 29.7497 110.65
46.5304 119.08 166.071
45.7686 31.1741 170.202
61.2298 84.2777 101.1
62.5618 101.152 160.449
50.6611 9.88706 116.434
69.5595 3.00269 113.073
35.0054 12.2826 134.213
58.3893 32.0145 164.178
72.704 87.3502 77.3207
18.04 90.9499 156.535
12.5776 69.0889 130.856
50.9758 108.083 117.736
52.1364 35.3834 172.588
48.5839 75.4648 184.483
12.7283 107.459 113.362
44.5355 103.776 175.44
45.769 127.047 100.932
48.4698 54.0068 184.085
25.4294 120.651 128.621
51.6752 92.3472 140.061
24.2859 118.58 115.688
24.9651 48.2606 144.636
19.6932 58.5352 114.886
30.1022 8.58058 105.447
48.5136 67.1231 162.79
26.8232 20.9757 179.198
29.4348 218.945 16.7344
41.5094 109.186 188.831
15.7847 26.199 157.43
38.4767 99.7696 178.038
50.8802 16.8294 180.244
59.6679 75.8647 129.1
50.7351 48.5049 178.611
74.922 23.2515 137.039
33.2441 84.0687 126.763
53.9699 105.631 82.0385
28.7306 218.431 5.50964
55.3746 90.6582 131.191
76.0098 28.0795 153.481
66.1951 80.7038 196.311
51.6875 75.2307 176.111
38.3839 71.4658 73.8604
53.7303 51.319 75.4346
47.3697 12.0516 105.049
76.8733 19.5508 178.93
8.05801 9.93353 145.363
40.1747 86.374 182.999
54.4411 34.2843 146.649
67.5645 107.918 86.8224
53.9751 95.555 137.127
74.5051 105.103 199.74
26.4406 134.174 22.6031
37.3002 24.0862 147.898
36.7758 146.44 16.3604
40.3434 70.1522 133.542
46.6473 95.1222 197.428
30.163 105.817 132.937
69.3398 10.4472 167.549
30.5778 174.087 2.59454
30.1693 196.886 10.3996
68.9936 82.7937 73.9911
52.2564 40.4124 99.4663
42.6177 66.1578 137.739
60.7261 88.4491 188.29
28.3238 55.0744 123.105
62.2949 42.401 112.179
26.8329 9.93926 161.762
60.1423 64.5721 182.88
48.3276 131.283 110.068
35.1187 9.16175 145.178
58.0941 116.597 175.342
11.9352 136.936 103.237
54.0568 10.9274 125.295
70.3148 76.5344 186.51
30.2243 119.573 4.08778
33.7081 67.5014 106.72
38.5089 17.2024 132.451
27.928 45.0159 94.6754
21.0461 81.028 132.564
53.1345 44.9794 104.554
44.2692 16.3927 117.039
60.0907 29.3767 131.12
25.4102 214.516 14.3273
56.1232 89.4928 177.957
40.3815 5.5911 107.442
60.4744 39.8266 180.009
17.7601 88.3745 129.338
18.8771 184.153 14.6782
18.9796 156.794 3.2893
70.4341 75.9438 164.643
45.0613 61.2163 116.119
18.6398 114.146 92.7457
29.7958 1.53796 201.8
53.2019 64.4199 144.574
45.5156 22.4337 178.213
10.196 79.452 161.416
54.3727 71.4192 87.1217
67.7309 87.7366 123.972
55.6592 96.178 176.158
12.7678 82.2392 109.954
18.6882 97.5225 123.401
67.2761 92.3734 90.2884
60.9102 42.4148 102.473
51.4715 84.8399 197.141
9.21965 1.59277 188.808
33.9949 24.5735 158.097
44.8958 126.336 139.874
64.0203 68.7387 70.6945
60.9412 91.7383 110.267
27.6718 133.81 107.438
36.0594 115.501 108.914
46.7567 115.582 94.305
62.1409 85.6976 114.822
50.6249 3.01583 115.073
39.4662 90.5498 135.688
48.6412 35.6075 143.529
27.3342 136.928 7.2788
24.0012 76.062 198.475
54.9918 123.899 96.5263
65.4951 97.6837 93.8025
12.4831 217.987 10.1972
73.0007 24.075 178.515
16.1918 192.148 12.7688
38.6444 107.722 151.139
57.2169 46.7899 178.877
29.9465 102.057 164.333
41.3962 214.346 15.6732
43.6089 64.1779 157.335
73.0747 87.6281 180.676
51.8871 107.179 164.942
66.6148 108.777 165.34
43.2657 109.113 207.979
22.2217 100.919 133.696
63.3132 20.2377 105.105
52.2818 19.0309 141.453
33.5245 182.793 10.5295
66.7924 83.9626 142.999
60.327 123.377 160.735
21.161 193.337 7.54113
63.4426 28.3878 119.227
48.616 1.40095 126.276
75.7036 41.5045 172.815
41.9519 105.772 205.363
55.5214 135.052 158.308
19.5068 216.946 14.5243
46.763 22.0991 145.963
49.0148 118.833 98.4962
14.3727 93.961 151.598
35.1992 89.239 191.979
38.8046 82.8 121.667
13.772 129.939 1.84461
64.4212 80.6172 107.504
68.1607 97.9527 160.966
42.1422 1.49144 111.348
52.0974 109.2 176.412
54.6115 121.619 186.949
67.5562 76.2604 143.45
18.5019 11.8405 131.12
59.5455 34.9312 104.404
44.4309 109.611 94.2252
10.7923 1.58138 174.718
36.1143 27.415 139.758
30.0267 124.718 13.4694
15.8675 183.974 8.86863
38.0473 102.191 187.04
59.3804 6.24227 157.494
53.9777 68.2966 121.572
22.1585 100.626 155.302
71.5588 86.3384 137.672
41.464 93.6253 192.431
54.7151 62.8273 178.294
26.8586 68.9258 176.933
35.8977 4.62544 133.663
78.3547 19.9894 165.51
65.8287 70.5211 127.67
68.7257 26.6161 132.798
57.7938 52.1771 154.767
63.1731 72.353 120.25
71.6846 10.7197 123.416
74.725 34.0921 165.574
45.9016 31.9773 161.936
59.8339 111.812 178.93
57.2633 85.8485 126.125
30.7688 1.31403 164.684
42.316 14.6741 137.355
42.7194 27.0867 150.672
59.9416 98.8989 152.483
57.0561 125.612 135.039
54.3977 58.3821 99.7705
69.6369 35.3451 162.188
50.7596 107.435 89.8588
61.9736 23.1065 119.409
40.4585 207.342 19.2887
43.1461 66.8898 131.281
51.7153 118.445 151.217
40.0122 87.344 129.868
70.6462 74.5399 76.5897
71.8539 122.718 148.113
57.0123 99.2063 145.04
59.722 72.6656 87.6289
64.6314 77.3893 133.316
33.0655 76.0522 118.001
68.1245 45.8438 144.263
10.9642 105.825 149.821
39.1508 120.453 11.6498
28.6153 122.618 131.169
66.4395 11.1476 146.809
43.7687 123.231 2.03965
25.7251 1.22328 105.215
46.7804 18.1231 133.547
22.2216 119.286 2.55003
30.7115 65.6864 103.098
28.5251 128.941 1.81087
40.6715 204.449 11.154
48.5124 104.675 86.6755
66.5974 1.40507 120.379
18.2073 1.51034 132.814
69.3407 121.885 137.917
59.2552 123.246 150.691
59.8242 67.1437 92.3245
39.6202 12.0787 179.577
35.5934 145.241 6.11924
56.6068 53.3746 169.843
45.0122 2.06425 168.093
56.4084 104.272 117.652
56.1625 88.1898 166.434
14.0291 100.635 122.452
61.5994 76.0885 104.018
63.9424 2.83346 135.264
63.3796 12.8522 107.187
22.9165 127.629 17.2817
36.7628 89.0995 124.4
63.3345 58.5323 155.479
78.9882 90.4854 163.012
66.6447 68.8232 168.94
48.6344 91.7083 130.267
64.0942 112.337 142.809
61.0337 75.8762 115.803
79.7725 17.6124 172.71
59.9419 110.518 84.8389
43.503 63.7542 125.906
57.0055 3.02638 106.726
64.244 50.1922 173.359
27.8694 212.622 5.05398
74.8165 48.6433 143.334
68.529 69.1184 182.735
45.1155 108.299 201.665
58.66 104.262 88.0707
60.9094 73.9134 151.408
74.3595 12.0978 179.496
65.3755 69.2814 123.885
74.2267 110.959 155.562
54.9829 49.6081 107.192
64.3167 104.015 129.55
66.4664 94.8207 175.837
11.1071 149.451 1.37277
74.9399 95.5537 182.931
18.2626 193.715 3.26097
57.5224 69.075 155.734
24.5963 76.6654 149.038
40.192 128.048 177.743
68.8944 106.27 197.589
68.9089 99.9005 89.3365
41.1882 62.2885 122.495
62.7518 7.11972 170.871
44.5628 102.156 93.5934
79.9671 78.6513 138.01
70.1433 68.3076 148.978
67.5903 13.2353 180.956
57.987 55.9964 78.4068
79.9096 105.362 88.9439
21.9892 71.6283 163.165
69.0223 118.582 131.819
60.1512 54.8153 92.7987
49.366 13.9594 173.658
71.5547 28.5186 148.799
70.1735 8.71751 175.872
52.9414 14.1993 148.397
59.1132 97.824 110.057
77.1565 87.4363 136.934
59.5493 103.119 123.859
75.65 69.4144 131.794
75.929 106.791 190.414
84.0566 80.4986 171.022
68.2005 120.167 184.807
70.646 99.5343 150.383
59.935 11.4383 144.441
58.9768 11.2828 178.606
55.0599 93.6192 146.922
74.5609 3.14953 117.757
69.697 115.976 96.3654
68.0389 60.5668 124.383
71.4966 79.8605 80.6181
84.5819 86.3818 165.979
42.0577 126.278 108.865
62.9323 23.6601 128.854
61.3425 85.9737 72.067
70.9441 55.2837 95.9903
61.5973 53.1209 104.923
66.2474 124.455 147.172
70.1853 64.5229 84.5481
58.8643 44.0257 136.632
41.5893 1.26687 133.509
15.0975 140.709 97.9919
38.7546 1.133 149.894
60.5468 119.542 97.0077
64.6005 97.6241 80.24
59.4677 112.378 118.777
52.2321 16.1359 115.331
54.8986 106.192 109.653
61.9507 6.87213 127.665
63.37 99.03 104.831
65.7615 95.0004 149.525
37.0951 154.04 1.12448
73.8855 77.6148 139.632
84.9886 103.66 168.36
51.2593 17.2426 111.972
73.1609 31.9461 112.389
66.0408 75.4316 75.2929
36.6793 190.081 2.79458
78.697 24.9529 116.714
68.3602 91.1478 183.078
52.7038 112.815 87.2064
74.579 125.539 169.019
42.3784 93.9539 130.859
34.5326 1.13082 118.485
71.7198 116.11 171.557
59.8448 74.578 109.201
75.9578 88.417 187.15
49.176 33.6879 101.845
65.1697 112.734 88.807
75.8907 74.4015 128.038
79.1622 70.4842 114.063
67.4959 61.4162 157.735
65.0927 99.7677 139.042
