ply
format ascii 1.0
comment Created by Open3D
element vertex 124
property double x
property double y
property double z
end_header
6.40347 147.522 98.3054
4.13527 136.172 98.8194
77.6553 105.347 124.691
4.27288 149.161 105.598
23.9624 5.09546 134.258
7.99589 155.551 106.999
19.0116 34.6935 145.872
42.523 140.866 138.18
76.9567 101.548 115.773
26.1823 140.486 117.275
5.83314 123.609 115.149
29.2501 105.842 102.185
6.67038 121.946 107.692
6.65797 148.532 121.267
68.0993 96.1574 108.049
40.382 149.28 157.27
65.2451 98.5319 125.147
12.3867 108.235 114.162
32.1945 144.015 123.169
38.7141 145.637 129.731
62.6651 127.397 154.342
25.9443 111.975 77.9509
46.0558 139.811 158.014
34.8845 151.192 127.976
4.15541 141.045 109.399
72.8771 128.347 132.095
33.7723 149.189 154.193
60.5609 95.2701 118.846
26.648 138.328 85.1422
32.5761 107.998 141.682
58.8373 135.613 147.753
7.64285 139.297 92.5341
79.9168 102.855 108.597
14.3695 150.087 95.204
3.92052 129.019 103.72
5.04596 90.3091 57.642
8.35088 137.453 127.621
67.3574 117.913 147.742
78.0031 116.613 121.045
43.9476 118.99 103.542
71.8001 101.418 125.971
27.0166 129.257 116.344
37.5179 127.146 126.673
15.5033 132.318 82.8017
5.55307 17.073 135.485
14.3554 154.25 105.014
7.17767 127.157 96.137
19.2571 137.933 102.61
37.8594 134.228 127.147
31.4394 133.853 91.9139
13.5252 29.3886 141.87
42.9493 109.48 146.91
43.0292 132.987 141.728
12.1818 6.72801 127.858
22.1787 140.81 93.4972
66.7021 114.41 122.793
34.457 157.143 152.657
23.4268 137.342 112.314
37.1595 154.793 132.53
16.4523 153.536 138.169
67.5708 121.726 129.175
30.8283 131.8 78.7223
62.0765 127.128 137.713
44.6432 152.642 150.463
13.2662 118.929 92.8421
72.3343 108.706 138.341
16.004 103.201 111.526
39.0057 95.6107 125.882
29.6876 113.43 95.4419
36.9117 130.704 157.206
17.0288 146.933 88.859
26.3949 125.869 78.5231
50.1093 116.149 99.1041
51.4167 112.346 80.6474
29.3613 160.261 136.547
44.55 123.67 79.6455
6.82951 218.987 250.732
21.2752 100.489 105.25
45.9841 103.445 141.757
17.5989 104.133 120.539
6.1353 21.7855 112.967
11.6306 11.0893 133.525
24.0192 115.267 222.962
31.7659 95.795 116.68
79.9446 104.79 100.92
28.4938 132.22 154.765
30.0741 39.9074 144.975
24.8597 133.834 98.3179
64.7706 133.018 142.947
53.7464 104.648 142.793
48.2676 121.119 87.1784
15.1759 141.79 83.5299
50.4474 95.2082 99.7411
45.495 107.244 83.7323
5.0674 112.228 106.529
23.5735 56.537 146.722
45.5972 97.8839 94.5764
39.485 110.173 81.9078
15.9908 118.804 138.135
77.5133 99.3192 100.714
40.5809 115.41 112.765
59.1779 117.689 132.56
23.8067 161.842 129.431
35.1711 128.394 96.0736
41.1677 124.841 130.468
22.1039 104.652 95.969
59.0011 99.6067 90.3547
71.1417 97.6384 98.949
40.4887 126.991 90.4432
21.3242 154.682 144.081
33.0785 101.118 93.0903
3.49128 96.1576 122.175
28.2258 121.27 151.626
12.1775 3.71907 150.718
61.6637 106.788 121.744
62.2935 97.2788 95.4148
70.6042 133.202 152.91
6.43406 210.806 188.063
58.8984 141.195 158.245
48.0245 128.417 145.631
34.6999 93.9052 106.747
83.3183 113.418 128.672
55.8195 146.25 154.965
20.1871 0.914257 130.299
