ply
format ascii 1.0
comment Created by Open3D
element vertex 594
property double x
property double y
property double z
end_header
14.5107 171.544 57.9066
6.09893 120.114 101.99
7.11384 108.067 98.5739
7.26518 160.104 55.8102
5.49033 150.374 156.511
5.16457 156.487 142.593
5.56947 120.288 163.22
13.4953 18.5456 214.796
13.594 43.9724 24.3033
6.04635 128.595 93.4129
36.098 12.5368 207.608
12.0514 189.346 103.952
12.0087 53.5619 23.7444
17.2547 82.7886 140.712
10.4482 12.103 153.87
4.17507 111.108 157.9
7.14658 164.163 69.2547
4.41193 93.3854 164.667
5.49198 139.003 54.9687
40.6868 155.182 136.553
5.53905 110.892 64.186
17.7789 10.9149 219.138
14.0455 7.75948 150.497
30.1247 8.51544 158.597
12.6423 80.9506 127.495
42.3915 10.73 74.6983
5.17835 122.11 68.1074
4.96464 105.433 72.9059
28.289 109.704 185.523
6.50358 84.9438 160.67
24.3891 101.177 80.138
5.54582 53.2084 25.6554
23.8823 81.4827 151.231
4.44039 130.134 159.38
14.1005 165.594 66.2581
51.8363 168.147 108.002
37.2548 160.498 72.8807
27.7036 5.83615 141.063
26.6871 126.749 63.3224
6.88196 184.428 83.9597
10.4133 10.1493 211.286
32.7426 5.0571 79.9202
44.2183 8.68916 69.2688
4.45793 93.5011 140.002
4.62137 22.1018 189.054
22.4977 150.376 91.3857
27.18 183.324 88.2412
7.37297 160.707 62.1932
17.4009 49.8107 26.1168
3.69172 121.754 149.998
13.3158 81.5214 117.577
39.732 81.7999 132.774
80.194 120.485 143.343
45.3739 169.6 105.901
7.33291 127.782 167.58
52.2288 12.6117 79.5885
40.5164 9.52183 88.7431
21.1318 94.5435 184.21
8.31197 109.663 131.301
4.24378 101.19 130.408
24.5644 13.0168 219.604
3.6505 19.3613 196.078
41.1907 6.35257 94.2842
23.4388 79.5965 139.108
7.63194 103.487 173.745
5.05916 126.961 127.32
27.7417 93.367 87.422
25.5161 107.929 176.599
28.1661 7.95576 168.808
3.47892 88.7241 146.779
40.3091 148.073 62.8945
42.4131 162.648 127.89
3.36517 9.99386 201.889
22.136 109.634 75.3581
17.0976 125.765 68.8528
24.9664 15.4846 195.957
20.8906 16.3711 187.298
9.28364 84.1756 110.323
23.6086 8.63123 156.377
32.5715 178.755 89.1474
30.8709 100.525 83.8736
3.87537 4.3723 225.205
5.56236 157.04 80.9255
18.4567 124.595 175.318
6.28913 148.702 85.7555
22.7117 2.33669 132.803
12.7073 108.472 71.8305
6.21571 183.651 94.2986
69.67 6.02789 130.374
7.18762 115.453 85.079
41.2953 10.4394 81.0136
20.6083 16.1268 193.792
31.9748 104.886 191.917
3.31633 108.103 147.958
49.0434 2.59651 174.928
16.9988 6.20371 144.561
43.1986 168.9 119.076
36.9527 102.933 89.2441
32.2219 4.93776 175.046
4.35531 100.174 144.837
12.2751 140.706 50.6693
13.5119 7.0478 169.404
22.8759 5.6297 214.08
15.4058 12.9625 174.038
38.1551 175.309 97.0872
10.7168 136.133 88.9273
24.3236 175.713 72.2884
55.3178 3.6033 101.359
18.7586 55.6931 26.7996
5.78097 88.1482 168.913
7.52862 130.673 179.532
4.34142 168.889 125.369
5.83337 84.917 100.147
5.53893 104.598 166.419
4.99505 165.497 86.8569
8.22758 100.05 105.237
64.5106 5.9064 115.789
5.67854 15.9926 179.261
19.6339 6.34806 152.507
30.333 12.2007 219.538
8.21946 41.4698 32.476
3.3123 2.42921 197.169
50.8594 128.66 161.372
25.1457 11.5665 163.441
36.0965 4.15682 91.0333
68.8433 9.90641 118.711
3.61009 12.627 189.568
4.52883 11.0074 223.881
6.36193 137.388 80.6281
31.6291 148.099 48.2766
16.5092 2.0166 135.225
52.46 6.33689 67.371
3.67463 12.6362 211.671
23.9667 131.988 74.8742
11.7634 3.07268 145.549
39.9654 164.963 89.7028
3.92118 12.5174 154.198
30.2208 2.76219 135.027
8.88628 6.9632 205.912
4.78522 115.271 146.101
30.7316 184.859 101.172
7.83966 122.3 63.3165
50.1294 10.3706 73.0225
42.1191 86.0163 123.231
27.8398 14.9861 211.48
34.8423 5.18318 73.9657
8.46924 115.341 171.335
40.4109 171.741 109.836
74.2776 9.95294 121.415
26.461 116.873 73.8665
7.83195 164.185 78.4577
44.9522 144.998 148.506
18.838 127.631 79.9417
49.6392 169.159 116.66
27.5267 133.042 57.7817
37.1152 171.179 101.195
81.4813 135.078 135.125
54.5845 12.0057 88.213
8.47235 23.8386 183.48
22.8711 7.16854 226.904
17.0413 82.7823 151.224
5.20415 118.83 93.6763
6.55488 59.3287 29.34
46.8227 122.757 160.705
6.52992 181.133 72.5657
41.759 2.28606 99.6977
23.3835 122.052 70.5477
14.5479 12.7259 165.337
9.8546 9.62765 220.355
45.7889 166.528 95.4317
36.5597 8.50432 83.6525
33.2964 169.947 85.8565
17.195 59.7139 35.5611
60.6615 12.3271 85.9758
25.439 7.60719 146.311
33.4914 136.807 61.8035
10.9495 182.299 124
31.6287 163.727 81.2482
7.29598 112.807 95.6523
6.02384 118.756 130.483
80.8739 127.048 138.49
6.63355 188.092 107.934
12.0093 187.896 94.2175
5.06952 8.49939 181.34
8.26235 143.368 102.634
32.6079 12.1586 194.602
5.15535 132.419 63.1936
38.6481 136.5 155.455
28.955 4.86056 223.32
49.6315 93.1487 195.934
6.15281 6.92398 150.424
19.6737 121.457 60.3473
6.37311 130.231 80.5691
3.95305 93.9937 78.0671
17.5861 116.334 69.0126
31.5214 142.871 59.1271
5.84097 170.428 77.9365
7.75459 134.377 171.115
18.1804 121.598 92.2218
3.4717 8.90164 161.612
5.79018 156.898 92.5532
58.6885 3.97633 68.1241
37.1655 160.038 62.2414
12.6774 62.5463 32.4665
59.2369 7.24407 107.562
27.5234 166.33 62.1349
4.48401 176.624 99.4263
26.6056 178.127 82.1105
6.00071 14.7058 167.984
14.93 132.256 92.6035
5.99914 130.872 115.495
39.4124 83.7822 159.187
6.0005 48.3258 43.29
4.5528 18.1699 174.395
34.803 111.405 135.345
30.0791 123.766 69.6194
18.7943 130.405 170.5
5.48221 140.997 109.691
10.5628 43.9702 39.8136
21.7536 4.9775 139.573
8.03384 186.836 118.919
5.3708 103.022 84.5845
6.96493 45.1909 26.3674
20.9125 112.807 183.605
4.22383 145.297 146.789
29.4784 122.251 174.597
22.8172 89.9572 99.1488
44.0674 101.155 153.652
42.1132 93.0615 194.349
42.7011 1.70131 177.891
31.2661 78.6229 136.351
31.4836 2.7669 88.5216
4.1544 16.0271 225.83
79.3464 132.913 143.156
37.0817 86.7806 165.193
39.8181 4.55617 173.498
18.237 118.487 179.348
34.7491 8.37521 169.545
14.4747 40.3025 34.7213
6.02519 109.083 107.259
11.1532 2.11348 220.051
13.8021 53.0931 40.7161
37.658 2.11774 196.027
37.6982 80.9976 118.484
12.8675 85.8483 166.549
16.644 9.94747 209.661
29.6015 164.187 75.0283
47.0111 4.76355 65.9026
8.34837 123.078 172.958
16.6206 138.068 99.9609
3.21458 100.138 157.176
4.90967 179.95 114.489
33.9672 133.896 69.1991
18.0514 17.9807 170.627
12.8706 152.863 153.612
6.68392 156.682 150.74
39.2148 5.40725 71.1283
69.5557 9.38808 90.1814
4.06926 52.0831 34.6401
10.4082 174.01 133.849
35.8222 11.7077 162.71
66.2229 3.64608 69.5853
19.2583 105.662 89.6066
6.19864 85.7708 138.554
7.54629 93.7717 105.812
47.3088 10.4578 90.263
18.5822 77.7198 122.131
14.7187 99.349 100.706
17.6695 146.324 96.6139
14.1431 179.761 66.8711
8.4401 174.059 65.6254
32.9048 11.7061 214.356
84.1859 10.0249 128.441
20.4034 189.83 99.4872
79.5887 7.89909 133.376
3.88024 86.1575 122.998
74.7686 4.79132 75.2242
11.4558 76.1202 96.3365
23.9419 129.609 116.821
32.6146 18.1103 201.423
4.57217 111.247 125.166
7.17486 19.6345 221.176
15.7074 21.2827 203.847
7.8808 83.4024 153.192
29.4447 85.0739 104.929
42.2974 89.6859 105.407
66.1188 4.99648 122.308
12.1024 87.9211 136.144
28.7912 7.96716 189.936
18.6125 9.005 179.173
47.0876 11.4852 80.584
41.5373 6.06543 214.434
33.0266 3.21361 215.752
19.9996 78.757 97.2121
81.6516 119.679 134.646
4.72488 142.084 162.878
39.1117 152.294 74.5588
4.73419 175.706 88.1426
35.5054 97.686 124.29
59.4274 166.796 107.237
34.069 82.5652 111.623
101.625 8.05337 123.624
4.00408 135.198 123.743
3.16669 21.9328 210.675
61.7409 92.9951 198.094
15.0085 92.0633 175.139
3.75373 156.279 132.665
23.1516 80.9803 87.3133
11.6264 86.291 104.105
4.79912 159.66 104.923
4.57121 122.997 140.719
35.6448 170.158 119.823
51.8362 108.258 106.968
76.1646 8.07044 106.262
4.99483 145.925 61.2662
17.9795 127.916 97.3849
27.0429 86.2199 161.863
12.0826 78.4102 105.713
4.24611 5.60722 173.68
31.5549 76.1455 146.734
12.8596 24.4343 198.158
12.8615 133.627 107.878
39.9267 2.88446 64.4703
59.4739 11.6995 79.3916
17.7668 19.442 195.741
15.5419 187.832 112.124
19.7648 79.1907 132.276
38.3022 159.303 120.488
3.8735 133.001 149.875
8.87087 141.071 95.8667
18.5342 133.39 106.487
27.1034 2.54853 191.088
21.4907 130.202 103.875
46.9083 99.4027 196.37
7.70389 152.735 54.211
9.7031 143.049 90.9357
18.8775 7.70483 189.093
43.9608 129.391 154.906
4.82097 21.3096 169.597
5.89023 90.384 132.561
96.9099 12.228 113.055
30.7887 182.233 108.692
20.0356 7.00226 169.156
28.6336 3.17002 210.415
29.019 159.232 86.243
8.42313 109.715 179.923
42.4884 7.01192 167.397
36.1723 94.5836 92.6552
4.33362 165.568 142.107
31.5162 1.58491 95.5663
95.0912 11.1275 120.846
3.01419 89.8803 155.921
23.4792 92.4029 77.9657
7.65593 1.66241 205.989
64.1912 8.44602 90.827
10.2518 149.782 95.7046
14.5506 3.48219 210.793
53.3394 167.704 123.828
71.3724 8.36487 113.648
20.2987 181.789 77.9879
77.7949 139.819 141.745
33.495 1.57015 179.198
7.99199 82.1473 144.859
5.20742 19.0495 159.935
14.8916 85.8585 161.275
41.7219 4.07162 198.968
31.6754 160.115 93.0738
12.113 104.815 87.5397
16.7331 5.05178 183.378
11.3639 111.459 175.124
6.8223 110.929 139.392
22.1974 17.086 208.57
38.6666 80.5775 143.79
53.0139 165.126 95.4204
35.3638 174.685 111.344
47.4072 148.856 73.7513
8.5341 99.2214 136.468
75.8759 11.3752 81.2118
7.89138 170.014 142.26
31.5573 184.806 93.8817
26.9902 100.695 178.635
27.3166 1.91916 174.179
37.8483 165.909 112.527
4.72884 1.88253 190.661
39.9765 152.005 69.4449
10.6345 126.953 115.312
25.9517 138.313 50.2006
13.5959 115.761 63.2986
26.6543 111.654 93.644
4.44231 102.965 114.761
51.9707 9.00223 84.9401
25.66 85.3203 93.1042
58.8571 10.0895 95.8041
25.7113 78.1903 116.8
4.14818 143.998 74.7602
22.7783 100.271 188.555
25.4422 1.54599 151.641
38.9086 147.091 142.677
3.23 2.09981 166.624
8.92516 6.32049 186.008
27.7951 171.752 77.5951
34.3927 2.1217 140.677
4.75259 176.369 132.047
30.0367 171.228 67.0361
33.7704 3.36688 193.353
15.3027 96.4211 169.45
29.1953 98.9865 125.372
16.4395 137.221 166.515
48.6304 97.1023 100.978
46.6237 4.51981 93.0848
10.0211 23.6928 170.889
15.2846 23.2867 189.13
18.2146 11.0149 229.741
55.071 1.70085 108.087
40.0405 9.8281 201.884
41.7684 110.208 152.255
13.6761 21.6575 179.064
41.4923 111.093 111.363
6.32663 64.9828 200.315
7.7346 141.776 170.447
37.0053 141.54 65.7163
21.4221 166.29 49.7545
4.15483 165.656 96.3587
37.5941 98.855 195.649
9.06146 148.338 163.134
24.0085 187.819 107.221
3.66991 138.686 135.293
75.9909 149.31 100.91
81.7958 125.991 129.52
3.92365 169.099 111.886
80.2561 115.833 129.339
23.9593 144.416 105.204
21.3806 3.18708 191.278
75.2225 109.258 126.072
34.3461 103.491 166.693
24.1844 47.531 29.7648
53.3531 8.26491 97.0532
13.4256 161.818 144.622
36.856 4.27641 147.318
72.0982 8.17351 125.98
40.0123 9.59767 163.375
45.1461 109.817 105.721
3.81148 149.158 122.74
39.448 140.098 68.8564
36.0231 139.903 143.263
36.1825 1.70392 133.931
76.7309 141.057 97.309
27.8439 78.6427 143.671
91.9983 7.4059 130.987
103.587 9.03026 113.452
13.4481 154.072 47.5428
43.8768 152.486 143.649
43.2906 119.502 168.807
3.48592 90.8552 93.0708
42.4639 104.626 94.648
14.5382 2.15709 175.501
30.1363 1.38772 81.6943
15.5708 89.041 110.457
90.9358 10.4311 84.5199
4.45028 90.0202 114.592
37.4169 1.87728 96.2394
27.2122 87.9211 170.887
59.7118 3.14698 116.913
18.794 19.0353 207.548
37.0378 152.285 132.401
17.6344 8.50342 199.341
58.251 10.1751 74.8785
40.7848 137.014 148.02
15.6533 186.834 85.8455
18.6258 51.3649 35.5035
70.5922 149.669 101.606
35.2032 109.397 78.1757
34.0388 87.5126 107.917
34.4245 130.017 133.856
59.683 1.65451 109.516
3.59369 1.56263 158.33
11.4605 58.8919 40.1102
48.0199 142.627 74.5488
50.654 142.85 154.331
21.0841 2.19411 223.746
76.424 8.76825 111.219
4.6252 153.209 101.106
31.322 125.936 135.343
84.763 9.0273 123.307
68.1522 13.5102 85.0571
40.8311 162.22 80.1009
66.8641 12.6424 80.1884
30.7073 90.8072 95.6269
10.0033 16.1877 184.385
29.8534 177.788 116.154
85.5263 8.90506 83.7209
33.9061 177.299 100.087
79.4556 10.7942 124.989
44.9423 1.55579 52.1227
18.5469 107.65 185.917
65.0775 8.05559 106.811
58.1336 108.949 103.944
9.91316 75.1809 88.5981
29.2729 165.734 68.9437
21.1501 119.956 65.11
102.722 8.79101 118.648
43.1284 128.98 163.83
43.0529 131.398 69.1014
44.2333 8.2497 205.282
82.213 145.748 124.125
46.1677 5.93519 86.2771
29.5014 110.365 77.0305
17.1317 1.781 235.162
15.7964 15.9445 179.384
33.7451 152.615 141.229
40.1575 100.805 101.571
50.5213 112.136 157.434
13.1783 96.2985 72.7566
34.8322 92.4495 190.769
30.8601 157.665 100.234
34.3608 114.591 181.384
39.9873 86.6447 112.317
9.31173 14.6517 226.415
30.8276 130.496 124.524
8.24817 25.4434 208.194
74.5961 11.5976 98.0978
51.0713 7.2283 92.3385
25.9995 113.822 88.9268
71.8725 2.67791 93.3164
34.7127 104.147 130.727
39.763 104.773 120.173
79.9825 10.6156 99.5423
70.5708 146.587 93.4128
15.5763 13.9182 158.667
68.413 13.7248 102.737
58.6413 105.202 109.42
23.6255 117.197 132.935
47.1675 89.1649 145.755
38.3516 121.428 173.931
49.8766 155.716 80.7577
24.1087 169.332 54.9619
86.0007 6.92476 134.138
91.0357 11.6323 117.184
76.612 143.909 126.854
67.8074 161.835 113.214
41.3749 159.721 82.9666
78.8407 8.0212 117.035
18.9003 2.79818 178.019
5.95006 1.2421 146.263
36.9157 161.675 130.35
17.712 108.163 95.125
42.742 83.8912 176.274
51.5846 1.69433 54.8717
49.8469 136.811 157.611
46.586 7.27318 171.486
75.1738 4.96515 134.01
26.2234 104.091 91.9406
49.5177 163.01 133.424
5.78367 1.25627 30.9677
23.6675 124.316 127.332
33.9557 9.23407 201.583
91.0168 13.0841 111.584
12.0834 130.959 84.7197
14.2387 85.9197 73.9464
89.3116 10.197 102.424
14.0763 7.34857 187.157
71.5423 145.582 113.892
34.0303 118.03 71.0897
52.9029 150.909 148.158
47.3896 86.9207 185.373
42.9983 90.2278 137.773
126.783 1.97908 64.4587
46.7742 1.2279 101.752
68.0929 157.243 116.844
51.9397 95.7223 153.098
17.9724 98.1212 74.6058
22.1784 93.0221 168.828
33.8902 92.8896 184.699
36.2444 128.837 167.058
122.567 3.77292 74.9629
13.4403 110.365 185.286
8.31202 120.494 134.596
37.7375 1.94661 58.6587
35.3229 94.9911 162.603
60.9537 101.338 114.949
10.7395 19.5542 160.078
47.4125 89.9685 110.015
38.8095 112.165 99.7468
94.526 11.9166 89.5044
27.3885 17.8543 204.599
79.1717 146.981 138.047
95.5437 8.91438 126.835
71.5528 156.39 124.736
30.2056 135.916 162.001
28.6917 165.489 131.321
84.4131 11.366 117.303
80.8985 7.48772 111.795
75.2395 154.344 133.039
14.2077 1.08866 202.294
