ply
format ascii 1.0
comment Created by Open3D
element vertex 178
property double x
property double y
property double z
end_header
5.57635 136.343 110.449
6.44121 210.543 150.865
22.7489 206.65 93.5681
6.57704 188.842 24.9694
6.75752 205.625 176.757
3.7184 120.421 123.216
21.8078 135.459 115.148
22.395 191.538 241.933
8.30771 128.957 104.343
20.4223 193.001 233.983
20.3751 123.96 110.067
15.1479 197.789 236.481
23.7362 121.654 120.371
34.6024 185.56 228.362
50.0879 190.564 256.961
17.3375 114.281 203.272
17.8508 196.829 243.368
15.2734 205.07 226.321
4.26453 128.217 112.444
34.2189 184.912 238.175
16.2382 166.324 76.4913
5.50969 177.983 107.839
3.45604 173.044 77.4203
6.38157 205.114 102.656
45.3095 196.47 212.305
8.83221 184.463 97.2908
21.2023 193.285 250.253
9.22909 119.881 128.313
27.9761 113.43 190.477
41.2188 185.076 239.882
48.77 186.327 249.472
6.5119 199.347 22.4759
12.394 211.901 226.153
3.50523 142.012 136.985
12.3725 116.707 116.121
3.8178 139.274 122.525
4.4558 182.657 185.036
39.633 190.94 218.851
27.4398 188.334 238.722
14.8985 122.603 105.748
24.2485 190.766 228.324
7.25663 141.219 209.998
66.5548 206.468 234.548
8.85898 162.682 65.3222
27.6596 190.998 253.894
9.55462 145.179 116.425
6.27529 161.538 176.022
40.6573 186.316 246.872
54.2817 202.661 213.562
4.33108 135.268 188.633
28.5398 187.553 233.101
35.2002 189.93 222.044
2.97799 174.872 96.8452
24.127 195.691 224.736
38.5336 195.444 213.099
5.23113 171.928 151.904
39.7375 201.519 209.006
18.9147 199.017 254.878
46.4208 189.716 221.6
52.4761 188.389 228.298
33.8094 189.205 253.625
27.2843 188.859 245.884
16.7152 200.088 229.26
9.94748 155.624 242.24
31.9995 197.962 213.17
31.3914 139.695 229.735
10.1661 196.515 108.169
7.04657 121.962 113.441
4.8922 176.722 9.56427
36.9405 212.623 207.267
6.0591 215.261 229.663
21.5949 208.854 215.042
43.6214 173.796 242.618
4.215 149.106 127.495
26.2129 197.676 260.56
41.3728 208.052 208.389
26.36 213.9 209.987
14.2844 149.29 121.894
24.9392 127.792 126.155
18.8912 117.673 126.552
9.21636 209.6 250.225
61.926 205.528 219.444
28.0209 145.63 126.032
2.89262 131.195 127.731
4.24394 95.7992 183.95
27.8118 196.604 218.199
13.1401 204.125 245.525
6.56622 218.065 58.0182
13.0215 202.907 237.517
2.4851 114.434 209.229
29.7402 159.851 91.341
30.1117 205.086 209.878
34.0092 185.542 245.495
14.9881 210.015 220.332
9.44223 140.085 10.559
18.1296 146.451 114.616
8.29292 144.286 106.169
10.4536 213.262 235.137
61.8719 194.389 241.188
5.46395 141.534 179.135
7.60476 179.219 191.036
2.2872 168.377 102.345
8.88386 218.594 99.7367
18.7895 201.392 221.44
15.9802 213.625 256.317
9.969 207.847 233.687
64.1403 201.471 230.498
32.0744 124.458 236.508
10.4389 137.412 102.865
10.9907 217.644 250.989
20.6681 217.91 214.474
44.8685 185.831 232.625
16.7261 207.094 259.901
16.1342 139.809 107.167
29.0466 189.72 224.469
14.447 145.105 7.47105
24.7949 160.425 67.1061
4.63376 149.817 114.117
21.2524 142.435 124.814
9.86662 149.96 110.664
5.76209 100.042 159.653
2.07407 120.314 143.588
23.5814 200.521 215.989
51.71 187.413 241.757
6.22422 130.916 135.363
11.132 215.236 184.687
14.0812 129.22 136.183
2.6647 114.854 201.348
14.039 218.182 221.021
25.852 145.071 208.544
40.6959 186.435 228.293
63.2118 198.273 222.603
30.3527 140.268 112.806
8.59673 206.533 242.95
15.9669 203.502 250.236
2.2447 86.8451 241.28
7.65952 217.475 237.728
2.54755 86.733 230.044
20.6397 120.968 133.335
15.5524 218.715 154.182
50.0812 206.117 211.43
28.4494 190.802 261.091
3.14523 150.439 45.2919
2.74376 120.743 96.8442
38.3954 185.619 255.537
69.075 212.304 236.881
40.3515 190.668 257.831
68.1323 210.634 255.42
40.6805 120.922 209.635
48.1125 194.755 217.045
5.51523 136.242 194.986
51.2587 188.495 234.967
66.173 216.998 261.24
9.70497 143.688 134.245
33.0853 118.729 238.488
16.0081 142.319 132.141
4.37143 179.464 181.624
3.57534 202.469 85.6049
2.13905 113.941 145.078
66.3617 215.333 224.975
66.1775 209.126 227.47
69.617 218.556 237.465
39.4046 218.699 206.158
54.3296 196.653 218.844
6.00477 217.984 247.503
62.5764 197.523 255.756
16.5652 217.903 262.197
9.63555 177.735 66.9314
13.0588 170.108 67.8797
52.6856 213.064 211.013
3.43976 83.6487 262.047
62.6238 211.51 215.878
5.09413 124.555 149.241
12.9153 173.715 79.6111
58.5804 193.108 225.35
32.7109 157.037 96.879
76.4344 218.92 245.228
3.32612 195.567 89.8379
