ply
format ascii 1.0
comment Created by Open3D
element vertex 1144
property double x
property double y
property double z
end_header
80.5309 67.453 110.306
108.922 93.0197 159.834
89.8069 126.835 77.4477
47.4425 65.1524 147.77
98.7371 121.893 164.892
45.3061 154.868 170.936
73.0177 88.6279 167.57
48.822 134.874 91.3417
24.8892 90.7532 114.75
40.3686 133.729 183.946
64.661 173.755 149.491
55.303 85.286 117.356
72.1461 80.6517 173.552
60.1809 147.901 81.6609
43.38 162.781 156.141
71.0563 116.671 187.095
24.3398 103.061 129.266
54.5012 43.6496 158.494
29.2583 96.6714 140.132
16.1883 114.464 147.441
60.9089 55.0928 157.622
92.4281 46.5801 133.925
88.2519 84.2961 194.087
103.612 164.505 143.021
35.3487 89.2034 176.499
85.7532 154.028 138.479
74.777 121.321 87.5111
82.183 175.256 142.946
100.987 122.403 188.843
37.4939 91.6837 151.951
83.9376 54.6097 104.788
14.3535 104.396 143.333
56.7136 115.802 169.575
57.2796 131.417 107.847
25.9234 93.3044 162.372
78.7803 175.397 133.317
65.3732 140.293 191.738
55.2136 104.077 177.036
73.4024 46.4683 119.207
39.5151 138.861 178.732
69.9935 174.763 131.952
54.3723 109.104 194.807
74.4225 98.712 75.1937
43.7277 73.3725 149.812
65.3308 171.506 121.374
57.2412 175.756 108.637
101.435 98.9393 160.972
104.964 86.7945 170.151
66.0955 151.439 144.184
64.285 75.2752 188.617
74.3723 63.6363 178.896
85.2097 61.4815 179.204
85.1395 50.6667 110.385
72.6163 176.523 122.937
92.6702 165.7 98.9395
54.7667 155.798 87.0666
93.3462 153.656 94.6182
75.9227 139.07 191.028
104.376 102.391 190.04
75.5849 124.935 178.511
94.7871 152.872 135.727
36.7669 87.1383 127.701
64.6069 131.038 102.953
94.777 77.8371 187.157
48.3164 98.8947 162.843
36.5288 66.6175 153.918
69.3216 143.326 79.3695
95.7824 164.029 141.172
72.9228 42.8377 130.311
102.04 71.8729 114.106
111.936 101.746 185.45
66.2052 159.93 156.213
45.6458 92.067 126.066
31.6194 93.491 125.394
73.4095 99.9414 201.516
15.2837 131.59 134.99
82.9822 90.8962 113.447
27.3243 88.2598 130.349
42.3658 135.114 98.4102
91.2379 128.037 190.601
100.354 51.4369 126.849
71.9072 176.507 114.456
32.0526 88.568 138.175
86.5147 153.172 88.4744
56.5944 71.5396 172.204
39.6364 134.137 169.594
40.2708 100.526 115.074
50.6951 56.9255 162.325
111.035 99.2373 154.489
81.0975 149.055 81.6115
59.9087 98.5126 159.955
74.8792 55.1906 102.287
110.673 153.463 147.357
93.7827 71.1865 182.342
90.809 173.828 139.119
58.8318 177.944 123.219
108.023 117.846 164.816
52.7545 79.8875 184.482
85.3403 76.4086 86.8402
113.781 108.511 181.853
52.1705 85.3814 150.596
26.4121 125.212 174.429
27.8001 151.421 113.299
25.7382 150.089 139.437
89.1273 132.877 164.468
43.0436 77.5667 166.959
36.0422 166.899 130.486
93.0968 174.045 131.623
54.4534 166.675 151.874
56.328 92.317 165.682
60.2681 69.349 163.314
53.9208 86.4289 140.806
46.0982 98.0251 189.647
37.0001 82.8638 172.606
72.3164 86.0857 196.488
99.5213 169.831 135.738
93.3883 151.162 120.237
57.81 132.882 91.4391
47.3537 171.988 140.168
64.4324 89.4305 175.745
97.8233 172.638 124.711
75.5185 167.194 133.318
33.4153 159.234 144.967
26.9662 96.6353 150.532
110.322 78.8291 181.48
64.6071 86.4616 162.308
93.3848 54.0988 108.492
71.5139 137.688 95.4103
34.4385 147.195 167.165
46.1154 86.5463 121.665
102.102 152.39 97.0103
97.9492 144.333 88.5823
53.9761 161.939 96.8416
95.9197 143.001 124.056
34.4839 142.347 129.625
96.1817 135.379 84.0732
88.1665 45.3658 157.33
56.6657 82.9894 130.949
34.8686 141.334 161.54
101.011 164.771 129.076
23.519 144.73 147.314
107.354 112.992 89.4823
92.8076 111.09 152.694
58.8451 145.81 158.532
24.2867 85.4726 157.899
39.7353 134.224 160.546
47.3876 91.5366 140.769
80.7471 165.844 157.929
21.9871 108.85 132.827
48.8957 125.099 193.006
88.091 164.635 140.491
120.579 104.64 177.08
114.284 117.809 180.997
78.7617 150.939 178.553
53.5216 60.9105 107.73
41.1817 167.708 112.412
80.2499 141.23 173.54
17.5754 83.404 119.554
108.287 89.3568 183.252
22.2389 99.8271 156.461
62.2837 177.809 131.972
21.3239 106.129 142.884
47.2194 59.1457 115.655
29.2436 91.0388 153.337
96.1801 66.15 155.877
102.943 91.4337 187.944
28.263 108.981 101.314
36.1134 123.493 184.099
69.8664 107.844 195.024
23.9353 77.2344 133.113
45.8869 158.48 137.59
66.5738 169.216 97.3117
42.7317 94.8753 157.218
45.4012 86.7588 149.834
108.455 79.7028 166.489
38.2855 118.726 155.562
23.1893 111.796 168.525
82.7713 46.4224 120.29
30.7844 96.2617 132.814
48.952 95.0102 78.8448
78.9898 114.458 188.803
55.0401 88.4278 87.2377
65.9549 96.2883 167.744
101.287 113.702 189.76
100.139 76.2217 179.828
33.7276 154.048 149.134
73.9979 74.9247 84.9792
97.5713 64.8724 97.4054
60.1393 76.4612 145.866
41.3988 91.6137 120.004
94.396 114.437 172.998
62.339 52.5 120.287
63.9664 175.395 113.275
115.742 71.9688 173.366
30.699 152.15 106.774
108.416 120.373 185.972
64.2077 65.3341 126.051
50.5391 114.233 161.421
31.0405 105.746 97.7854
92.6128 157.197 102.877
25.1767 130.154 99.9604
72.8349 70.5068 116.639
89.5216 71.6768 127.462
77.1611 77.0086 152.864
14.9119 119.793 141.428
74.2577 158.405 151.323
79.5896 44.5403 162.119
19.8914 127.308 129.35
127.409 121.146 164.09
53.6762 170.401 140.686
63.0323 97.6372 198.986
49.4319 132.953 76.8571
86.6662 145.669 181.703
60.2027 133.77 173.386
49.1663 77.5659 174.943
91.5545 81.7091 109.273
65.282 54.0935 164.377
42.6975 103.848 154.04
92.0679 48.7829 118.876
103.225 142.299 137.99
53.6922 143.215 184.94
40.8956 152.069 91.9774
37.2077 79.1807 109.327
64.6412 104.144 89.5422
49.9288 78.3854 138.807
57.1338 68.3298 130.603
62.0199 177.358 139.275
87.7906 126.528 170.003
17.7996 140.827 134.172
67.4146 54.4033 172.219
16.9159 137.566 142.04
13.5507 94.5727 136.776
93.8108 101.463 162.637
48.5922 106.929 159.186
99.2443 80.6156 91.6666
65.049 164.107 92.3868
63.0784 83.0705 194.63
94.7564 147.892 146.397
15.6237 130.311 146.858
117.172 108.519 97.114
25.8903 116.271 174.511
67.416 75.3038 130.182
19.4226 118.597 154.188
66.1708 146.927 181.357
90.7696 157.429 128.259
68.9712 88.8524 157.051
52.6436 92.749 150.725
101.289 149.154 109.106
105.804 168.65 130.343
53.1554 133.098 179.848
52.4651 139.979 82.6714
15.6224 114.063 119.408
107.616 96.3321 144.995
52.2007 108.051 170.456
26.1838 118.857 101.756
101.218 123.596 118.46
94.2852 65.9508 177.08
18.1125 96.0817 129.057
29.5644 106.757 148.563
87.4353 100.946 122.071
110.981 58.0177 133.851
59.4138 133.442 119.991
76.8902 73.4836 103.018
52.4742 88.4292 129.77
58.9427 157.838 132.631
131.079 111.031 156.986
53.4507 131.623 147.23
31.546 99.9519 109.619
88.8118 171.015 146.138
47.2403 132.316 175.735
60.4041 76.98 182.583
75.5411 108.36 170.625
111.394 93.1472 168.995
99.1281 100.219 101.017
33.5994 97.2322 161.846
82.7166 110.235 173.538
104.845 136.495 164.754
67.2717 145.577 150.069
19.9596 121.402 102.845
71.6983 48.432 166.48
81.3119 65.1481 92.3905
64.2964 94.7993 83.9178
59.0908 138.302 76.2854
72.2894 59.5384 163.253
21.3316 126.817 156.266
22.0638 111.906 156.038
48.5231 95.3769 169.873
49.4784 107.638 180.197
122.05 79.9659 163.147
42.3618 92.0503 134.397
81.2325 141.646 92.5398
122.413 115.518 158.559
73.5933 69.5003 130.134
62.4719 154.356 87.1115
66.4942 36.1996 139.949
54.0368 170.425 102.263
53.4331 104.179 187.208
38.5354 152.644 165.338
87.5669 67.9772 184.54
72.5911 84.1807 97.5631
44.0777 97.6596 146.453
36.125 161.614 126.606
42.3391 125.671 152.361
92.9187 95.3479 177.129
61.3758 40.5133 161.834
41.1088 107.832 80.1639
48.1858 108.121 192.686
41.3331 126.86 163.882
73.6467 177.27 138.468
68.3837 140.496 84.132
121.512 72.1524 117.136
98.3568 95.2064 194.99
106.529 133.24 99.7459
96.7471 157.18 162.694
72.4009 132.17 109.754
103.316 68.8033 98.9351
87.6484 92.1019 192.326
31.163 107.768 86.9412
101.878 68.9116 178.203
85.8344 161.163 91.8788
85.5863 75.9437 190.102
56.0452 57.7601 116.024
50.6704 57.474 150.991
23.7756 106.874 162.231
68.5034 57.5953 107.371
97.7722 68.0621 123.062
39.5338 123.649 111.311
71.3707 97.6592 91.8992
105.423 137.45 171.722
124.211 73.0452 139.264
75.4043 171.266 152.387
109.008 149.477 157.562
31.5788 100.336 127.207
73.607 83.903 162.573
61.1675 132.293 85.5277
24.1065 138.819 105.357
48.6352 72.033 155.861
33.1025 127.788 113.057
45.7009 148.649 136.969
60.9484 112.909 77.5089
102.652 161.517 133.906
101.194 139.397 116.752
44.9513 62.8095 156.189
93.0188 149.423 171.784
63.684 148.951 132.03
38.2888 133.502 119.284
77.4071 130.692 81.5863
96.4335 107.563 109.792
92.8882 174.248 114.559
82.2477 137.263 85.2269
79.2928 128.363 111.962
20.5453 131.308 110.425
63.8848 75.5722 151.638
52.7962 124.105 75.4969
48.3986 115.206 170.856
51.5546 165.204 135.072
16.6782 135.302 125
106.723 163.218 115.891
50.7312 71.2405 139.416
50.9013 141.903 149.442
17.7167 104.831 159.068
81.4091 142.02 79.0253
66.5288 41.2102 132.328
25.6233 136.649 166.079
31.636 133.825 173.461
78.4242 114.046 105.516
42.1921 123.338 178.349
40.8943 62.3853 138.53
82.4499 70.2572 133.114
82.9103 101.474 167.926
55.7418 64.6656 152.334
60.2477 152.703 164.054
63.8382 80.4589 90.9924
115.044 72.676 109.928
115.731 66.0579 115.907
60.8991 138.5 163.976
63.667 103.583 169.093
49.6865 86.6653 162.907
68.4389 94.7305 178.089
46.6477 121.68 168.276
97.6213 140.303 168.331
47.1408 102.988 77.2764
27.4119 145.911 153.997
32.1428 76.8324 127.123
90.4253 85.8054 118.507
101.768 95.8835 173.966
53.7343 116.005 75.1771
94.1187 137.098 112.503
41.0477 147.035 173.945
58.4701 47.4701 167.113
88.3001 72.2865 118.974
25.4918 76.296 145.823
43.7455 82.2387 141.161
117.868 100.1 165.263
71.1857 144.196 168.313
115.113 114.369 171.265
76.0087 124.444 105.417
49.3404 69.1512 103.987
35.6632 132.567 147.423
118.128 131.673 167.13
56.4639 83.2333 108.884
31.2536 90.828 96.3612
25.6133 150.952 129.403
39.8786 103.604 167.262
98.1558 67.6071 168.088
34.9831 148.702 99.4526
59.489 167.621 130.44
30.0822 101.508 156.929
35.5827 99.0501 144.303
88.28 111.074 186.114
52.1287 160.758 107.996
53.6954 73.1761 162.552
59.6296 104.915 188.588
36.3061 77.3502 134.039
105.833 141.574 104.036
24.6669 116.904 93.3851
44.27 90.8745 95.8577
35.4671 112.232 114.59
73.5165 159.801 90.9086
118.239 80.6762 173.9
76.5698 143.881 139.859
64.7565 85.185 184.697
25.8097 124.648 150.05
104.653 77.3201 94.8813
47.5577 115.849 192.315
83.4274 52.477 143.011
18.903 134.462 154.441
54.6417 92.2977 174.704
99.6735 140.028 108.14
108.77 80.1011 158.248
85.6638 108.523 74.3909
119.097 101.974 101.617
55.2108 144.12 141.59
94.654 48.0212 140.197
32.334 111.545 157.775
76.0135 72.934 166.188
25.4789 77.8758 123.282
68.7398 156.792 136.25
55.0128 84.4585 93.7498
30.1368 146.189 95.512
73.5095 41.4039 163.54
121.379 70.3643 149.54
83.7863 82.5005 172.664
51.2494 140.018 132.912
37.4613 160.962 138.553
63.9583 52.4689 113.01
61.6371 97.4571 177.607
107.898 128.507 179.672
68.3295 113.803 72.9605
85.119 52.2517 164.76
66.613 45.0097 163.68
89.1857 99.8959 78.6748
29.9708 158.904 127.532
32.2717 70.7529 145.286
62.1797 166.101 115.272
32.4998 118.469 101.427
27.7258 138.888 147.138
108.782 161.573 125.277
69.3598 106.039 106.387
40.7594 109.912 164.765
14.8346 125.793 154.252
49.7366 145.302 105.872
77.9081 63.2493 160.935
55.4401 102.202 167.287
24.7961 101.804 139.84
76.3247 101.919 171.131
72.7219 149.915 143.934
80.5802 121.67 75.0935
70.4065 82.1081 80.0526
49.3083 124.264 149.751
77.1184 147.177 88.6775
19.275 110.437 110.088
47.9618 55.2107 123.704
90.7836 104.556 198.198
108.305 105.22 95.363
57.6403 59.159 163.259
112.496 157.606 131.175
82.664 47.5996 136.236
88.7918 165.686 152.318
88.6017 118.729 77.0924
94.6477 73.8134 92.2326
35.835 73.227 112.998
68.011 79.7412 104.646
30.3186 119.997 117.988
48.6266 89.3559 188.704
90.636 105.323 175.94
46.6466 87.9096 107.754
66.8243 75.3122 169.872
68.6353 172.856 104.453
33.2926 94.929 88.5226
87.5507 127.208 111.574
49.2557 155.944 104.636
80.4431 145.991 158.481
15.0701 114.791 130.404
83.4971 176.234 120.207
100.198 171.125 115.514
95.9141 53.9393 162.438
84.3183 131.686 78.4554
84.1417 140.935 166.028
81.0281 110.975 97.8076
104.442 129.856 106.442
64.8273 106.048 180.928
104.365 140.653 91.3003
21.7426 90.5204 122.426
126.956 84.2984 158.883
61.2167 62.964 167.021
64.7928 114.244 198.208
44.2875 81.4633 156.005
38.0559 62.5602 144.68
68.9807 117.227 97.3386
65.6314 113.767 90.5372
76.1228 143.629 182.566
98.2022 98.9498 125.117
46.1281 127.034 76.1941
55.5373 138.025 102.605
91.4105 114.593 119.939
71.0665 76.4792 152.778
79.1108 74.5477 145.865
66.1024 79.8915 157.001
108.5 151.373 104.876
88.4565 137.137 157.493
68.4864 68.8264 169.014
55.8787 123.772 194.027
113.007 140.41 109.242
88.4564 138.523 106.591
58.8353 132.317 98.7702
92.9347 100.91 188.558
57.0706 80.4735 150.407
105.888 136.624 141.004
94.2108 147.656 112.592
95.0099 112.174 127.005
59.5551 125.022 174.659
31.9947 159.846 117.471
58.5131 69.0672 96.7634
63.9875 86.4085 112.355
112.68 95.4339 136.563
63.8359 129.238 181.578
83.2943 123.116 185.627
15.8652 103.548 120.42
87.6794 83.4671 181.589
47.5907 135.594 122.638
34.0058 115.985 83.4523
65.0634 95.8923 107.086
80.6379 86.0609 195.048
53.2586 132.883 119.128
88.4418 118.949 178.297
58.2798 70.938 142.922
95.1669 130.279 110.704
54.1085 139.953 122.065
61.6358 107.825 81.8318
42.0775 58.9275 129.44
80.4891 131.272 169.841
30.8178 122.187 163.97
100.995 150.995 131.391
127.365 81.2059 146.776
21.7329 131.546 163.524
87.9016 105.174 115.608
75.0382 166.9 96.2891
123.45 79.3257 153.511
96.9367 106.155 84.7815
106.69 102.28 126.948
116.246 97.5574 180.002
100.527 112.011 162.491
57.1206 140.801 95.4081
37.8526 114.637 178.081
47.5042 139.627 162.027
57.452 80.076 164.252
123.54 103.917 169.011
57.2499 167.794 161.065
64.7266 140.662 176.087
79.4289 65.1425 144.842
59.1376 155.051 103.677
82.9545 159.827 133.425
43.2639 84.7559 134.155
62.7949 42.5433 143.589
51.9487 100.29 87.142
60.807 144.865 119.442
102.702 79.0499 102.165
23.0565 137.569 135.795
43.68 143.44 129.209
95.5928 161.456 153.936
18.2197 102.481 112.127
118.343 105.249 158.704
74.7384 69.7607 157.646
83.8938 151.716 164.118
38.5424 87.8954 91.2777
57.1928 155.402 147.319
25.8905 138.778 157.129
100.393 79.1055 152.408
20.722 82.3039 148.336
88.5258 63.4372 95.8365
63.2187 140.206 140.795
73.5306 79.9731 108.442
60.665 125.902 197.124
79.2444 86.7971 86.449
99.4282 164.735 108.429
120.337 65.5902 143.048
116.385 88.2479 132.456
36.7059 82.2228 117.656
98.6534 111.973 92.2444
72.113 102.073 82.8839
92.7206 170.255 106.456
49.5035 70.0252 172.959
55.2023 83.4524 157.357
31.9216 85.893 163.563
39.8357 161.446 149.429
65.2624 172.94 127.294
65.7942 70.2797 105.249
50.3602 140.121 172.361
85.6982 63.0189 170.56
68.5892 38.8483 153.988
106.739 56.4078 122.485
113.117 81.9291 113.364
41.0263 110.959 156.626
85.2535 165.239 129.897
113.766 139.032 163.772
76.8684 64.8891 153.459
102.387 106.661 156.22
32.551 90.3802 119.775
89.8835 110.034 80.009
78.0813 127.845 197.442
51.7962 151.808 137.107
78.14 41.6707 153.106
51.9884 133.165 140.375
95.6253 73.9644 118.269
81.4232 152.798 150.525
39.7243 93.7279 84.9526
89.6466 141.049 88.0654
58.475 147.192 178.096
82.8182 54.7616 116.648
34.5333 94.3845 170.197
57.2913 82.4192 189.105
91.6945 47.7354 127.315
37.7663 101.276 150.28
64.8268 161.903 126.734
55.1305 166.561 112.83
117.931 141.34 155.331
33.5902 149.264 156.705
32.6976 129.512 106.727
113.8 65.0437 171.184
94.8216 86.9658 102.084
65.2458 90.4193 197.985
102.344 101.541 148.203
26.8988 154.017 120.763
101.914 156.054 104.687
96.4657 127.964 161.878
57.1903 152.052 121.243
54.0437 174.456 117.877
57.7565 147.955 99.6991
47.692 120.726 180.311
65.3769 108.069 191.964
74.1635 106.972 201.864
36.9616 150.136 138.202
43.6766 135.644 80.9129
94.5554 96.4305 109.774
104.8 109.201 181.136
74.3635 81.7695 192.922
69.9747 143.281 134.092
36.6855 121.154 89.0362
71.33 78.0591 189.482
105.709 139.799 126.005
53.4133 87.353 104.253
78.1648 95.3338 169.412
75.7057 98.762 101.218
75.5778 157.912 159.16
105.735 150.216 136.55
102.718 105.109 87.4541
41.8102 128.215 184.09
121.345 90.8382 172.29
56.9601 163.686 124.604
40.2153 73.4627 101.464
82.7953 136.876 99.4265
43.1632 67.6198 108.501
77.912 146.129 146.924
66.4445 47.4853 120.513
43.5774 105.588 188.432
37.1005 77.2918 140.44
35.8443 92.8841 142.631
71.7524 37.4879 144.465
82.8595 115.894 199.173
96.3152 85.4085 184.231
69.1287 133.57 182.454
85.9973 172.003 105.471
104.763 156.465 155.539
55.1327 173.458 150.546
49.0727 148.842 175.29
17.6224 78.3637 129.827
42.349 77.1943 89.3425
100.349 107.24 195.418
101.725 87.7234 116.279
46.3635 91.6618 163.499
30.1087 100.29 90.6541
65.5673 136.284 111.986
74.2373 116.882 201.177
44.4006 169.658 128.94
123.844 127.267 166.108
54.2 78.7173 145.65
80.8658 169.653 100.128
43.4327 114.775 184.779
92.9638 161.021 147.099
61.5474 80.6836 82.4609
45.8142 117.195 77.7574
29.6524 125.421 155.816
91.0613 161.432 159.186
74.4572 52.6885 174.526
28.8157 126.858 87.5966
79.4514 85.4695 177.119
33.6252 77.897 163.904
29.4458 144.598 106.62
34.7946 109.566 168.391
32.7858 107.266 106.941
48.6388 79.978 88.8499
47.3421 93.6466 115.047
55.976 129.328 79.8507
127.96 94.4399 159.101
74.7314 155.721 135.816
114.835 62.826 153.507
54.3434 95.4071 99.6591
39.4025 98.1294 185.097
58.224 95.6832 194.058
114.372 74.2764 122.336
114.153 88.148 179.67
111.625 87.5283 126.677
67.6327 76.4076 114.291
45.0922 139.209 153.478
27.9504 109.791 122.145
59.5422 164.755 92.699
82.8386 65.5181 123.766
113.943 128.358 174.724
48.9539 127.63 183.455
108.106 69.589 178.364
60.8012 71.6022 114.293
75.7846 86.3893 79.0874
32.6707 131.569 153.926
54.4511 172.337 131.78
102.652 146.306 159.694
56.4971 117.18 197.913
72.8418 113.363 101.948
54.5224 145.552 172.507
29.011 109.687 180.134
80.7129 105.741 187.434
35.8717 105.406 157.638
117.546 68.4635 127.135
87.5115 98.6577 187.852
32.0035 155.537 133.881
85.0425 175.713 128.148
74.0356 132.603 175.593
126.369 126.999 157.45
35.719 127.288 157.062
66.2427 93.7686 97.8196
39.3146 69.9633 166.275
97.8995 112.117 105.409
100.641 133.989 183.832
93.9792 108.25 193.045
53.8706 132.845 190.393
81.9032 49.7615 152.094
125.62 136.538 151.613
39.0417 130.44 81.1266
83.5449 133.74 182.789
53.8798 88.8839 194.284
60.7766 44.6842 150.535
79.3731 41.4993 145.896
93.326 144.804 105.449
74.2532 109.024 80.9591
40.8607 118.193 162.565
86.0059 79.49 124.572
20.221 118.462 164.288
76.5091 62.5223 102.603
71.735 171.907 148.786
62.9116 84.981 103.155
117.869 91.8244 140.921
83.7984 71.9423 160.694
46.6118 156.791 93.8091
84.9307 51.3342 171.755
83.1524 44.1389 130.745
32.8165 116.125 182.832
121.32 143.584 145.843
105.981 73.8325 120.146
45.7116 139.436 102.848
54.1527 106.133 76.1354
80.6765 69.8319 86.253
77.2955 161.776 125.034
115.87 87.3191 167.836
41.4464 168.131 142.888
110.348 115.376 132.642
98.3993 62.304 111.607
129.443 95.2315 119.859
42.8214 155.173 102.383
40.1685 135.884 150.705
70.6825 106.236 97.0025
61.255 78.435 112.956
83.2182 66.1711 155.645
106.809 87.9979 150.693
25.2181 102.288 121.888
116.214 96.2004 128.011
43.7623 134.891 110.805
26.2036 143.105 122.177
97.873 158.627 146.262
16.3284 88.4849 130.137
27.8052 140.612 114.002
110.216 66.7996 105.193
25.4808 145.11 131.434
122.815 122.128 110.095
67.3393 70.7487 98.2647
19.5401 109.569 122.315
43.9201 166.158 136.775
86.4836 158.535 154.748
79.286 93.0835 79.9448
67.1791 91.996 110.354
30.1453 135.996 121.99
71.0471 93.4517 199.037
56.395 144.057 147.667
16.3636 120.919 112.546
90.1754 139.549 183.687
72.851 51.1784 110.405
112.646 114.945 94.624
79.5285 157.661 174.964
59.6946 89.891 161.595
121.749 71.426 160.042
92.2914 87.3312 126.904
60.6981 111.358 192.162
107.431 63.7198 171.606
89.3101 89.7722 181.43
73.6341 150.344 153.953
51.1374 71.2822 95.7378
100.475 122.006 107.779
47.1744 165.192 111.078
58.9119 144.731 112.081
57.9895 138.004 134.4
88.711 147.734 156.533
125.234 102.813 154.926
60.5757 98.6424 95.9618
93.2452 116.781 194.363
74.3945 89.7938 114.145
72.8724 63.748 92.2809
117.956 65.3167 158.965
68.722 99.6501 103.368
64.9063 76.3552 137.463
100.53 141.71 131.424
107.181 116.169 154.329
56.614 38.3387 148.958
38.4953 166.79 120.037
97.7844 79.5668 118.406
82.3817 83.3079 117.363
87.4658 115.048 194.699
70.0949 106.113 177.796
41.3249 59.7531 148.888
49.2441 133.174 114.303
13.4116 103.153 134.305
120.257 93.4491 106.02
103.549 118.667 124.602
33.957 128.761 100.327
38.8995 135.017 140.211
105.529 60.2361 111.074
59.8588 137.941 186.113
50.5415 46.0102 148.476
125.943 128.773 146.54
77.9386 48.5783 168.966
42.5317 162.399 103.552
83.2318 95.5989 196.946
74.7429 118.397 110.129
38.3357 111.055 187.696
101.921 110.625 147.274
91.9362 58.9087 102.45
75.5722 47.4742 126.604
73.1018 158.153 128.268
30.0021 85.5452 107.654
89.4787 61.816 142.554
59.8686 68.0876 149.023
58.7392 146.84 165.857
66.5113 67.9962 116.812
83.369 110.034 106.156
57.9737 97.3598 78.8397
111.296 92.016 112.932
78.4329 95.4961 198.947
75.5471 135.723 182.661
119.986 143.074 128.979
66.1193 99.1902 76.9082
105.298 131.809 88.6901
46.2163 53.9595 155.106
80.8653 60.1176 130.649
44.4735 169.932 120.759
34.6749 87.3004 109.021
69.4904 123.039 76.9146
19.4663 126.72 121.545
58.8113 169.649 99.8252
80.009 131.686 190.145
65.4005 141.518 158.478
116.125 151.833 138.695
49.4854 170.241 127.292
39.7369 124.566 80.3909
95.4048 54.4693 115.638
71.6458 142.676 186.754
75.7531 151.737 84.9209
98.402 139.77 148.965
80.0122 152.268 142.494
80.114 157.656 87.9027
99.5543 51.7243 149.65
100.351 116.819 133.594
16.8656 102.916 127.804
95.4661 62.5624 107.25
80.586 66.9646 97.5537
99.9211 164.921 148.958
83.0374 105.612 197.562
17.0534 92.3783 116.836
73.9654 106.879 186.762
49.3979 94.2718 97.4867
111.597 136.029 129.347
48.4086 165.52 122.783
111.591 60.7258 146.735
21.8678 139.668 125.957
95.9222 108.759 164.073
61.2059 63.2422 114.178
91.182 58.5591 150.886
69.2014 146.203 156.835
64.3934 143.313 124.955
65.9615 159.195 88.5862
108.087 105.327 140.466
58.347 93.4903 104.798
26.7786 121.738 126.33
32.0787 98.8788 177.295
61.5176 40.2055 135.047
63.0973 88.7483 80.2309
96.8849 59.1591 171.162
90.56 156.696 114.119
27.7555 114.083 156.14
57.6275 59.6502 141.832
61.4616 154.057 124.726
14.2772 123.476 131.781
97.7258 76.5218 105.518
71.063 134.125 170.698
75.9886 54.1264 136.602
89.608 141.637 174.72
17.089 94.6642 145.856
62.3955 35.5892 153.217
76.0326 134.539 104.267
57.9909 65.2911 102.801
59.6331 160.651 164.067
128.722 89.4033 150.674
61.5414 64.7052 106.596
61.636 100.71 78.6493
28.6179 124.826 95.7265
61.5302 153.233 173.977
78.8646 67.1383 118.428
90.0744 59.506 125.42
59.1073 144.505 132.931
37.5571 139.306 108.657
41.0607 144.137 140.859
36.2636 66.6274 132.843
130.363 105.861 140.713
80.1166 75.8462 117.629
79.9123 108.14 76.9091
104.269 59.7619 148.679
90.1233 85.5556 86.1199
56.8595 142.218 126.532
130.644 102.424 123.856
85.7372 90.7433 81.3857
36.401 111.741 160.929
67.6704 65.9427 90.4636
84.7614 100.376 84.775
69.2266 126.76 106.329
68.8685 123.631 98.0449
26.0805 131.542 122.799
38.2231 155.547 98.8199
44.2851 71.8982 173.816
122.833 133.067 158.104
95.3061 102.019 195.928
67.3044 160.311 165.683
108.33 65.2887 162.393
91.7974 106.261 186.336
90.5393 68.375 147.694
86.936 118.01 111.851
75.9693 125.22 187.373
98.5774 60.7499 142.696
107.504 131.992 133.493
54.9616 144.699 107.18
99.9213 125.259 81.8109
91.2213 102.746 85.3436
24.6046 126.737 115.602
74.1599 46.2246 153.072
14.4658 85.9196 140.425
97.2478 146.71 164.158
106.479 64.2223 156.37
21.4456 135.662 117.507
109.938 126.926 106.184
100.953 85.7961 180.27
121.724 99.9164 148.123
40.2934 141.159 89.0037
34.7927 126.869 150.101
75.7458 70.7527 188.817
30.9322 137.87 89.7674
53.4628 52.9637 140.381
105.706 116.123 144.207
36.4725 131.518 96.0623
36.1523 96.0605 102.101
113.812 109.395 137.674
78.5542 61.9302 171.787
104.379 96.5656 131.741
90.2495 59.2441 172.708
40.9055 137.681 125.708
123.72 86.9369 140.366
34.7382 142.11 116.209
59.5803 145.243 151.269
92.6283 77.9759 91.0958
72.6417 103.684 109.239
103.975 140.095 149.861
47.938 171.229 115.22
114.159 116.223 157.455
99.8779 157.448 114.551
47.7653 87.6287 79.8045
57.3185 153.688 137.617
16.5879 99.0773 151.512
102.703 99.4404 92.7118
129.375 86.1445 128.39
18.6923 88.9029 151.751
84.1285 54.1868 134.366
93.0607 152.547 155.323
98.492 91.017 126.586
79.138 167.856 124.538
31.5288 77.1563 108.75
25.0737 115.797 115.315
130.177 99.535 130.146
62.5449 173.763 104.858
47.0872 88.84 88.7978
69.5723 132.244 80.2625
117.437 68.3951 165.55
52.3952 98.3176 198.039
125.03 108.015 149.375
109.534 123.659 95.3673
37.2426 64.7364 118.251
96.5186 134.18 155.5
108.373 110.269 186.955
89.6866 104.604 104.487
35.5768 136.235 93.6223
81.5665 170.728 116.287
56.4594 85.4744 165.424
113.463 123.654 121.98
62.3142 124.131 76.8916
71.4149 77.0299 121.736
104.947 109.675 133.714
116.273 92.8234 118.894
86.6446 70.456 139.403
105.481 86.7985 124.329
47.9379 68.1747 161.365
121.117 88.8983 146.261
52.621 159.67 164.434
62.7593 59.9454 137.761
89.517 49.1063 147.755
91.0386 113.702 111.059
66.827 64.4097 101.534
131.387 96.6009 139.884
37.3784 154.955 110.645
50.5788 60.2601 139.415
42.1778 129.231 177.115
83.9627 51.5361 155.263
123.889 137.27 141.619
23.4262 118.467 110.835
123.618 116.457 168.637
88.2643 61.669 107.728
71.4156 152.119 83.6338
65.749 119.515 75.5625
53.1936 146.801 123.618
131.727 139.629 106.178
117.399 115.476 148.482
72.2058 73.1322 110.532
129.357 89.5798 138.278
71.5905 169.757 109.979
122.404 119.887 120.84
109.829 129.742 160.358
73.0223 48.6604 144.691
123.464 101.701 108.92
35.3733 138.864 170.366
65.0001 48.8632 132.143
98.9898 116.388 114.523
99.7163 56.8091 118.574
100.633 90.5859 89.0965
75.6684 120.235 159.423
105.258 135.861 156.68
104.709 136.27 178.407
32.2579 100.458 101.488
111.966 138.784 97.6776
85.3707 66.7647 88.4104
108.514 105.625 150.841
74.6953 94.7233 81.3184
125.529 110.708 169.609
28.8648 113.975 110.871
29.8609 146.356 119.144
98.4598 109.712 137.721
55.9488 139.439 111.405
55.7688 49.9433 129.088
49.8178 52.0663 134.225
116.487 122.491 99.7413
100.097 50.9293 138.1
116.742 122.759 156.512
124.894 92.1783 165.175
97.867 102.212 112.166
36.8066 154.264 115.567
64.5533 66.0109 178.719
112.158 100.023 101.169
86.3536 105.357 91.6473
109.015 135.63 118.542
44.4991 87.0484 82.5739
23.9165 117.079 125.928
106.561 69.8368 168.409
124.59 94.2334 113.482
128.52 110.618 119.541
86.7598 159.247 149.531
35.4254 108.65 96.6044
118.946 108.869 165.444
123.202 110.743 107.9
24.1189 86.88 149.541
125.582 90.0957 133.562
115.701 118.303 114.035
118.094 136.536 113.873
46.4753 95.4546 101.988
76.2592 52.2613 143.846
44.931 140.059 141.891
100.026 134.777 174.489
89.7292 93.2174 198.803
122.184 144.077 136.74
96.9106 104.468 122.137
49.2242 143.618 140.034
61.4261 56.3999 128.409
49.6995 58.0971 134.948
100.171 93.2218 111.793
29.4441 108.213 162.286
22.6351 126.022 147.904
92.5284 102.395 129.361
63.3977 67.7235 92.7907
122.679 128.426 116.319
38.8079 158.835 116.944
49.6644 166.262 104.71
96.1463 91.6499 86.9383
33.4345 88.3454 103.504
72.0465 75.8873 182.892
108.467 73.2872 127.729
57.0541 51.1677 143.601
55.5749 73.7983 150.828
108.627 124.589 118.327
125.292 133.297 134.202
104.157 124.333 93.5013
113.969 61.9302 125.979
82.5618 163.076 100.124
84.1262 55.8709 171.053
