ply
format ascii 1.0
comment Created by Open3D
element vertex 841
property double x
property double y
property double z
end_header
6.15457 137.047 125.846
7.2097 109.928 141.126
5.83676 82.0741 219.57
9.79047 165.468 120.007
10.9663 17.3692 239.027
7.535 122.808 107.541
6.10005 164.544 148.77
9.66476 87.1528 142.865
7.02298 150.099 103.418
18.2199 21.901 252.237
9.24736 90.6946 158.268
7.00273 141.194 116.324
5.81178 90.5487 219.694
5.80252 33.3703 241.47
5.98466 134.006 118.405
17.0927 74.23 208.899
7.59044 128.103 113.722
9.02433 65.1122 242.154
20.8156 25.5456 211.261
5.87751 94.9926 203.625
6.29166 100.046 137.16
10.7238 77.9886 125.801
40.7901 106.402 223.192
38.741 114.375 106.041
6.8573 101.393 145.84
6.63134 93.2414 153.302
5.72041 78.1844 211.366
5.68062 27.5324 250.058
6.85892 126.771 101.096
7.74353 137.706 239.574
26.0885 176.276 89.7777
6.85104 141.456 132.259
12.9462 58.0019 210.979
7.34197 30.8864 227.663
11.1593 131.765 229.256
7.57945 35.8628 215.622
6.12474 132.617 134.735
6.03551 129.839 88.8031
22.8251 215.046 255.791
20.9308 214.233 244.126
10.9118 135.815 112.194
6.29562 2.52562 225.71
7.83643 141.795 161.315
15.9821 212.102 252.345
8.75795 136.262 106.618
14.7292 12.8949 232.696
8.66113 123.837 96.0909
32.7026 35.6677 251.501
6.7659 86.0492 132.217
30.1685 134.104 150.058
22.9788 129.961 149.154
14.9997 45.8861 252.515
29.7559 158.739 125.216
6.171 126.723 226.337
17.7662 13.9822 256.069
6.29975 169.826 141.424
6.33532 111.766 81.595
7.15601 24.6574 23.7542
29.1264 19.3323 212.861
29.1619 106.365 236.673
6.70249 142.002 106.08
16.5133 65.2413 207.675
16.7153 165.914 259.571
44.3688 99.2918 109.99
5.12923 110.776 107.679
12.0804 6.15554 219.313
9.10988 148.37 115.451
6.61117 149.071 247.976
15.7017 185.712 95.5646
10.9341 7.58147 226.591
5.92953 120.244 80.8918
7.83106 119.694 209.993
29.6967 86.2131 102.986
8.79508 144.472 230.201
13.9882 94.9988 142.266
12.8344 158.95 119.632
27.7063 46.6529 211.174
33.7959 111.486 228.487
18.7905 154.682 118.256
29.9243 117.538 238.668
31.8469 135.594 247.641
5.46751 71.9783 219.887
5.86926 67.6366 247.748
29.8048 169.377 96.9854
5.30137 15.8876 261.189
5.36703 100.514 107.116
6.27544 76.8382 231.163
13.9812 51.4485 213.701
15.0409 96.4031 164.62
38.9464 100.373 108.537
30.3724 80.3338 146.828
29.9662 124.671 234.748
10.187 95.1657 87.5171
27.4008 37.5627 211.444
6.5001 84.4558 227.368
23.0806 18.2641 212.319
11.5714 150.981 161.625
31.3061 130.003 73.4325
5.64689 158.112 153.06
13.3062 25.1328 213.395
18.5169 150.775 239.07
6.92567 98.8965 97.8329
6.06859 187.559 117.388
4.45208 30.414 261.1
18.7496 130.644 172.198
12.2059 120.672 167.941
15.3738 30.9175 213.016
26.1523 168.039 130.334
5.2726 142.926 147.064
7.27122 133.75 100.14
5.82435 149.958 135.105
6.15348 119.087 156.868
6.95469 157.018 127.613
30.7641 90.4723 97.4334
16.591 85.5103 257.847
5.49168 109.828 133.609
5.95161 174.018 105.843
17.689 128.111 159.005
24.3168 40.6621 214.685
23.6945 135.778 171.057
24.0771 113.882 149.983
7.08167 181.642 127.704
16.1328 111.83 146.913
6.51121 62.1335 220.608
5.54199 91.7805 135.056
9.33686 157.528 158.188
6.65898 181.076 108.808
41.4945 143.583 85.2519
7.44011 154.335 255.799
19.4231 4.32845 214.98
13.7999 216.71 259.108
5.43037 150.054 155.331
20.5899 184.814 109.62
5.85795 101.983 258.694
22.9618 48.5642 260.208
15.0034 143.8 163.123
21.9608 136.947 68.7707
20.2466 162.504 73.8658
36.7269 96.2104 210.953
33.7217 162.199 139.371
5.81318 44.3591 225.44
5.6986 76.9407 252.821
30.3794 129.699 170.257
42.0068 135.694 84.0254
9.02938 161.573 113.467
7.60212 169.644 114.082
11.6352 145.261 238.021
7.81124 48.0655 215.297
8.95888 119.948 261.306
16.0372 87.107 158.154
6.38272 131.95 151.911
9.1052 30.6678 213.762
44.7033 145.679 93.362
5.3953 136.542 79.8219
34.3606 146.085 139.816
8.40722 157.435 242.337
6.63747 116.949 74.4497
35.6341 138.118 255.463
6.07142 123.468 165.66
6.10216 128.212 79.698
19.8244 60.4947 253.395
34.0618 97.1218 237.729
19.7926 147.434 124.488
4.75827 111.34 116.164
10.3208 81.5795 132.991
5.8876 22.6165 255.145
7.9041 124.494 72.2264
7.67849 128.674 158.979
27.6217 32.2753 215.271
10.1297 182.037 79.6532
9.30659 178.616 117.471
23.3565 148.612 161.63
16.0442 60.5714 245.485
32.1029 148.93 155.13
6.67157 148.523 68.7285
29.1297 172.652 109.109
21.0428 186.963 120.4
7.35543 10.0987 256.758
6.13633 161.498 100.73
11.1972 130.709 221.557
16.9464 177.082 80.887
31.5217 89.3574 138.771
11.1235 113.679 75.1354
29.8346 117.235 212.2
15.3272 61.6993 261.25
31.6251 142.822 115.309
35.9062 132.453 242.907
9.89312 75.6479 111.162
25.8855 170.443 137.673
15.2135 189.254 87.5355
18.3467 80.2734 203.783
12.6873 66.0185 257.833
12.9808 22.7681 259.669
6.59063 118.96 88.6042
11.3066 6.21012 236.449
7.349 102.165 210.03
15.2288 169.425 145.408
20.3361 81.7782 246.916
36.613 153.009 149.537
26.3146 96.2541 91.3442
13.8752 95.2398 250.943
33.1581 79.2616 137.245
30.7033 88.5633 154.001
26.8983 132.956 70.8937
39.6516 148.222 261.102
16.8925 124.311 211.568
4.42863 62.7436 257.537
13.0622 173.343 77.6864
23.2534 173.482 118.779
4.98412 13.0209 249.402
15.1809 104.614 144.103
6.7157 41.0631 249.037
24.7986 90.1294 203.241
29.8912 171.4 103.538
32.1217 81.1626 217.213
38.6304 37.3638 223.81
5.82217 123.201 144.598
41.0567 68.4554 219.318
5.708 161.55 137.847
25.7288 50.0623 251.073
30.7976 89.2781 242.722
23.6102 21.338 259.997
40.727 35.0281 252.115
5.35166 119.907 121.726
9.29043 87.3849 235.164
20.785 140.279 225.775
32.2597 6.75604 214.657
33.99 211.391 259.346
26.0294 77.2717 117.152
7.16977 134.507 233.67
38.2737 116.344 241.286
26.5743 25.0273 246.214
7.10207 122.462 248.707
19.6834 120.083 253.839
7.61784 64.2334 207.409
17.9745 167.114 84.1551
12.302 142.8 122.909
39.0553 17.5799 217.708
5.03766 119.99 135.302
27.2732 136.813 166.578
33.8334 34.7017 213.59
8.77817 91.6342 228.806
18.1926 147.891 115.395
5.79333 127.713 124.653
72.5823 117.957 116.134
4.43613 92.8789 119.179
9.54998 34.8339 255.986
6.04513 167.935 129.21
40.7249 97.6612 205.011
5.16207 89.5744 105.214
5.23844 91.9104 126.405
6.67316 105.435 215.815
28.4325 62.4849 213.578
31.3096 96.9674 145.779
28.3434 147.708 130.567
16.4398 42.4986 211.433
7.63563 103.994 84.1951
8.39397 99.8455 90.9617
38.4084 29.8556 236.22
12.5306 165.015 72.6148
43.1357 149.189 88.4549
24.0043 101.691 213.712
33.938 70.6846 206.421
34.2329 48.9744 218.896
36.1546 148.291 148.206
7.09844 112.884 146.658
10.6684 88.8675 252.845
38.0647 45.8346 212.598
31.4527 138.993 128.661
28.3331 165.302 137.378
13.4539 15.7284 260.319
38.4021 104.311 97.316
33.8871 160.464 84.7937
29.6697 145.04 232.578
5.99056 2.81398 256.597
39.1894 93.5937 111.463
12.3271 77.1007 239.593
42.5694 92.1339 231.059
31.9222 157.266 153.494
30.7969 106.062 218.542
7.6855 152.001 261.64
15.1289 39.2313 257.757
26.3071 93.3353 250.415
24.0683 73.2964 209.199
7.52175 155.976 91.2403
31.5788 78.5129 208.598
31.1339 75.3817 222.477
18.0198 113.843 72.1786
5.99147 132.144 72.3233
36.6013 15.6952 253.181
28.2297 61.8045 224.942
27.1939 80.5764 109.267
7.68256 74.0398 205.468
11.9643 185.622 129.613
8.39238 100.093 218.979
7.49782 192.347 107.48
46.0874 99.5282 218.641
37.2958 152.46 84.4028
11.5054 1.58905 217.425
19.7533 105.009 168.034
38.7541 103.884 232.491
19.6308 176.751 121.852
37.1987 165.023 119.148
33.4158 41.4739 212.352
6.50912 180.187 100.041
11.8454 6.1336 257.043
42.6744 128.311 97.9374
21.6561 55.2783 261.214
8.11089 181.051 93.2124
9.76862 150.941 124.663
11.8294 74.1421 132.673
10.1187 118.783 223.49
26.7357 172.217 144.769
17.5142 164.583 125.199
5.43568 27.5414 217.417
36.7085 156.487 88.9181
7.13478 198.674 98.7051
27.7262 118.877 222.377
15.3501 122.81 155.347
41.7813 26.1033 222.768
14.0853 158.519 72.0151
7.21079 83.2998 150.583
23.9184 177.815 139.055
27.3213 87.1735 206.596
25.5805 144.449 115.873
36.8242 121.63 116.001
7.61607 165.781 88.9356
27.0263 105.111 93.5103
11.1173 99.804 150.04
28.1927 129.521 139.239
24.6847 210.229 261.116
8.21364 109.916 240.342
19.6824 95.8973 247.277
31.4415 84.0485 117.669
8.03386 169.414 82.3507
8.20639 168.983 96.797
27.9019 140.007 134.507
25.5973 82.3255 210.932
7.88531 100.357 79.7855
25.9787 72.7003 218.861
35.3557 113.25 114.679
21.3516 33.7691 212.896
46.127 132.768 244.026
33.4603 87.5844 110.389
14.3534 143.078 116.392
18.7993 123.156 166.339
21.1737 47.7572 211.462
8.61372 86.2333 204.679
26.6761 173.759 96.2436
38.4808 163.145 99.3296
6.41659 136.813 155.732
36.248 37.9339 258.735
7.69369 82.8292 112.636
29.8482 25.5434 218.801
21.2759 68.3469 213.716
35.5995 56.1318 217.057
4.4979 53.3644 233.3
26.2779 117.99 140.499
50.2554 68.6178 218.073
33.0553 93.4326 127.214
37.5776 17.3989 241.729
32.8988 124.616 222.486
31.1086 173.643 115.757
17.7418 156.39 162.125
7.01122 114.727 93.6463
21.1471 182.133 117.145
23.0692 95.7978 200.534
35.0485 26.5138 221.605
7.06437 173.872 76.1681
33.8375 84.4317 234.191
6.15808 16.6417 224.269
32.9277 99.9663 93.3456
35.4752 105.687 212.491
13.0701 127.983 149.847
42.8985 81.6447 229.618
34.8303 115.3 223.257
20.6139 67.868 256.692
27.6595 136.687 233.561
8.45143 25.6289 235.679
45.8499 122.326 103.114
10.367 144.165 245.355
23.1435 124.035 70.4022
17.6511 217.963 247.032
12.2965 183.125 85.796
26.889 162.94 82.7691
5.70935 34.2558 251.363
20.8742 145.478 69.1267
22.2777 181.791 125.255
11.1285 119.981 100.541
13.2251 89.7377 241.273
26.0746 165.213 146.203
21.9857 155.703 241.514
6.6021 149.632 82.8202
19.8319 173.395 140.799
7.25714 76.8112 243.304
8.01194 3.52914 246.852
20.9593 62.9779 215.024
22.4892 169.259 78.9141
36.7726 127.885 121.581
9.28053 12.7549 220.852
29.8973 116.184 218.054
12.0345 164.567 261.735
18.3431 86.1688 91.9194
37.6823 89.6552 118.592
46.2735 108.308 162.991
34.376 217.557 252.748
42.4809 115.995 169.427
7.58265 157.761 72.6436
3.57499 62.5791 237.593
16.673 35.4909 220.823
23.1333 127.004 257.902
4.80021 99.4721 222.38
38.7536 37.4667 244.466
41.4209 21.5696 254.015
31.0005 117.817 175.096
37.9733 100.313 101.692
21.9096 145.919 231.722
25.78 104.716 88.5167
25.9525 209.289 250.26
5.2973 152.853 143.809
21.9525 76.7729 256.579
6.86739 133.231 257.082
22.2358 74.1057 134.465
39.8485 85.6082 218.739
7.63377 139.979 92.2382
18.5806 73.3104 121.132
25.3459 20.5244 252.489
10.2957 136.198 68.6902
27.8188 124.411 214.115
12.6511 129.989 105.059
23.0757 8.5373 216.896
38.5308 24.828 239.133
38.2861 171.42 119.206
36.7458 14.1567 260.403
14.8018 18.5116 213.925
9.21329 116.41 150.433
20.216 69.4122 240.104
7.48577 172.3 120.234
72.2414 101.439 119.164
25.883 178.481 102.702
11.4223 111.48 98.3796
29.3908 209.501 256.764
25.8837 184.13 96.8851
23.5094 106.578 140.948
6.36391 138.414 141.524
30.9151 166.841 112.435
35.1183 89.7834 206.384
16.5209 74.5631 114.459
8.81272 83.2817 248.26
33.6514 141.814 150.566
34.1329 145.804 79.9734
29.2257 153.662 116.168
6.38033 145.659 255.57
18.8041 180.562 89.2674
20.2964 95.01 84.4299
27.9864 175.936 131.695
6.00029 106.307 202.601
30.676 145.487 160.614
35.7861 131.951 230.081
5.18872 98.0434 162.495
10.6619 76.9367 142.722
38.8555 127.861 244.105
42.606 86.2531 123.26
25.2556 142.66 123.612
10.5052 153.062 234.8
57.1361 88.2948 90.1774
32.0554 111.969 243.67
43.6927 2.33773 211.027
22.214 77.4235 124.717
47.1421 151.108 96.1296
44.658 134.698 254.264
25.4988 110.045 206.27
37.8527 131.947 72.2907
37.1508 125.207 77.0066
24.9532 87.4265 94.4186
4.21826 73.9164 261.025
9.71419 105.854 206.428
28.5551 165.908 89.1772
27.8841 74.9282 209.917
21.7904 122.261 147.127
6.77705 24.2587 240.626
11.2214 197.618 91.7764
6.4291 1.49606 233.564
43.9918 93.831 216.436
24.5008 114.712 163.434
10.3517 169.642 153.338
25.9714 80.2533 238.807
14.151 116.73 94.9245
25.9102 13.1606 255.156
71.5726 111.161 115.32
34.1474 137.701 163.157
34.3346 140.199 122.763
41.9944 89.2913 212.879
35.7381 143.541 248.836
21.2645 94.0655 139.64
7.08567 154.972 116.276
28.7343 19.4286 237.943
33.7936 155.235 77.8837
21.4764 66.0193 227.264
27.7547 1.96671 211.449
38.0588 116.57 171.181
54.3577 160.764 127.021
21.9958 110.842 155.275
19.3395 168.538 91.8989
26.8974 108.095 148.707
36.7344 134.158 116.555
40.609 159.556 92.5318
31.4834 120.058 73.6314
5.44408 20.2177 228.488
7.80748 160.978 260.924
8.64283 84.7745 260.159
43.292 153.338 92.6548
18.7749 211.345 262.017
6.57365 173.801 91.3814
27.8225 161.71 251.083
44.62 102.617 168.089
41.103 110.667 241.242
12.8722 82.2286 207.398
10.3337 111.479 234.977
6.58159 158.716 82.8602
22.8232 137.36 163.261
28.5999 97.7901 137.517
34.9626 93.646 102.246
31.0809 160.312 145.633
23.6856 99.6433 203.035
24.6495 99.9289 207.808
7.53165 53.9016 222.215
15.7978 164.776 249.869
37.5213 138.345 78.4716
16.9245 5.41858 258.777
39.6518 14.4707 229.942
33.4521 177.427 123.389
34.1851 85.9871 213.03
20.1058 78.9476 100.757
42.7656 108.445 107.302
43.6599 54.9716 223.617
28.9699 218.564 261.779
8.20746 143.326 97.491
45.4586 157.199 101.203
34.5692 147.611 127.779
33.274 163.487 93.8727
30.1819 148.562 249.709
49.0466 132.477 113.653
41.9771 133.801 119.082
19.3243 89.2511 150.273
11.2772 16.1098 216.548
24.1709 189.632 103.803
38.3299 162.198 107.017
8.82159 131.069 142.797
26.8499 84.2374 253.53
37.9343 131.756 78.1194
35.1272 97.6857 120.452
14.2714 215.625 6.44765
31.1395 129.549 219.286
26.8996 131.158 224.756
40.4326 101.325 214.243
18.8647 106.323 260.705
26.1094 131.816 228.946
16.1404 107.664 217.27
7.78624 108.022 89.1926
19.5826 79.2598 108.097
41.0396 86.2028 110.453
35.3784 65.3294 211.439
8.63498 120.382 218.346
28.4695 178.414 122.222
61.5501 121.319 110.281
38.7568 154.343 114.206
6.52198 40.843 236.252
11.534 75.7715 252.924
33.1953 92.5307 163.076
6.42792 175.282 131.056
23.4793 165.227 152.741
7.38929 48.9266 242.484
40.9964 95.8844 238.46
46.9512 51.5431 229.365
43.3578 137.916 92.658
42.0615 128.342 89.7015
20.017 60.8258 240.873
14.7981 91.7494 90.4973
36.8281 134.04 126.462
3.67672 50.1262 261.829
24.313 14.3766 226.632
30.6449 149.189 257.919
18.1195 173.721 88.5609
40.0778 137.651 248.573
56.8994 76.7351 114.979
26.5581 156.657 157.777
24.3395 55.021 213.671
6.83082 176.931 140.329
15.0529 108.811 90.4941
9.70021 175.167 87.4352
36.7167 1.66563 210.868
31.5669 163.911 260.591
6.2711 158.821 250.157
4.64897 15.9999 238.787
19.6095 97.2756 158.759
26.9903 40.7162 259.537
30.8261 141.293 255.93
29.7423 10.9216 232.329
33.2329 114.306 100.697
28.1628 128.23 247.643
7.13026 119.083 231.239
13.9181 124.134 69.1113
38.2651 115.491 161.358
23.2873 114.461 254.213
31.4808 97.78 243.878
41.8898 140.799 102.111
30.9101 155.497 131.672
41.1454 157.291 98.3428
4.96548 104.752 125.26
16.4337 52.4129 261.507
16.9808 96.931 152.734
49.8313 96.0657 230.927
22.1334 110.955 82.4296
15.5795 90.9436 261.583
41.037 108.329 162.666
6.30213 110.575 228.407
14.2244 80.9928 245.114
30.8659 33.3541 227.871
19.3651 12.0506 218.944
9.26461 124.008 215.069
28.7469 120.032 230.533
14.0836 148.441 66.9301
8.48051 164.169 105.331
38.3971 137.711 241.912
9.34947 163.235 251.141
22.8564 121.637 259.992
21.1227 155.46 260.184
70.1433 121.393 139.918
51.7919 141.282 90.9909
4.84382 25.7879 232.723
5.96427 94.7096 211.726
33.7486 157.527 255.385
31.9541 117.65 168.788
47.2805 43.5334 229.011
37.065 102.556 170.278
35.1381 9.00934 226.929
5.19876 50.1017 251.831
49.3283 82.2813 220.136
13.2254 101.146 77.9514
35.9648 20.7376 227.609
40.3793 143.228 255.013
47.0725 140.838 260.71
17.5581 10.1773 244.218
4.44926 6.33082 262.068
33.6335 154.844 140.956
29.9774 42.8111 246.373
30.9383 109.158 128.148
29.8428 131.138 239.925
44.9193 128.297 250.844
51.4939 87.9174 94.2605
33.994 83.2249 122.971
4.90209 83.5407 98.7982
27.4979 33.919 256.325
63.6675 87.4575 89.443
31.5253 19.8859 251.517
15.7038 178.337 140.923
36.104 102.536 112.836
21.0976 112.23 220.997
8.39436 197.419 209.477
51.1799 38.7211 259.661
4.74949 98.6198 233.201
9.67186 197.159 113.482
24.5608 120.978 226.66
8.56012 84.3813 54.3468
30.5834 80.7068 125.846
30.6167 95.5813 210.535
44.3723 158.189 142.602
46.6645 135.266 261.818
18.4478 105.803 80.897
9.03072 213.056 3.67515
5.83444 125.016 262.255
33.3143 16.5652 228.063
71.1662 87.8061 92.0649
38.0625 140.208 235.435
7.12378 101.038 244.296
26.0874 109.141 244.393
46.2373 79.6267 114.533
15.3057 87.9339 199.981
37.0372 73.1453 216.833
19.4845 159.611 245.902
39.7837 7.09731 220.115
32.8359 45.327 256.918
14.5251 79.2954 141.392
25.6839 44.8281 262.063
13.5934 110.606 207.556
47.131 101.122 224.802
28.168 165.212 104.99
13.0442 189.235 123.938
17.7868 15.8269 242.529
64.9696 94.0247 86.1644
8.02484 101.057 230.61
12.8508 62.3874 231.076
38.4692 119.999 81.304
22.9958 166.555 97.3916
15.9075 105.562 205.266
27.3116 133.67 110.262
25.3864 31.5588 229.83
31.9246 132.862 132.65
75.1169 117.767 124.454
51.0224 101.279 110.437
42.1846 146.987 112.252
15.3188 125.23 255.738
29.3626 122.306 76.8307
44.5451 29.559 261.804
32.3969 110.891 211.289
34.4349 83.7345 224.728
40.1286 30.9108 256.723
36.5038 47.0413 238.157
38.8669 155.258 262.003
39.7247 149.484 245.083
9.52852 178.021 143.77
23.5219 158.759 112.855
53.4969 117.535 254.05
74.7318 3.59171 261.75
15.9879 67.1941 238.184
9.29084 111.325 212.104
35.4658 135.574 108.565
36.8494 151.06 136.97
23.4675 89.9387 212.042
34.0873 120.674 97.5052
34.5116 81.578 204.95
16.1334 113.459 204.638
45.2394 110.465 168.457
48.1361 79.492 124.581
23.4303 157.336 124.283
39.5137 162.647 142.434
48.2139 123.702 255.405
19.0627 219.103 261.331
10.2004 40.7843 239.852
39.8767 50.6785 230.169
31.3432 126.701 164.597
10.4002 123.283 241.393
35.0776 116.623 88.0026
81.4424 4.27228 249.388
36.1915 84.2425 142.105
47.9027 98.6135 90.0473
44.1646 14.2627 255.502
71.5643 111.06 138.977
40.036 123.115 89.6619
53.7658 98.5705 87.7877
36.9006 168.588 128.952
32.2407 110.304 222.481
43.3165 93.5284 116.896
34.448 146.407 72.4995
33.4323 111.133 171.759
42.0242 46.3791 236.527
18.9056 133.108 108.284
28.1238 114.873 92.0094
26.837 96.2403 212.11
27.2519 141.911 72.5711
48.6976 138.17 93.263
25.7724 103.129 247.836
13.7963 139.857 130.776
43.1256 45.9428 218.003
35.053 124.089 159.629
40.0645 41.7461 252.462
19.8274 128.009 251.194
23.9147 210.359 246.238
18.7995 108.772 94.1323
48.318 98.8878 246.175
68.1591 114.813 108.289
20.3994 8.96762 250.719
64.981 104.757 91.3733
58.0844 97.196 84.587
46.6976 30.8174 256.475
9.71807 202.596 102.984
34.1408 115.07 82.5792
38.4441 122.133 167.36
18.3412 104.182 200.52
11.7281 183.744 103.726
9.61995 84.2418 243.561
36.0615 135.15 225.922
39.1002 143.778 140.109
22.8161 185.178 101.262
7.93112 164.349 197.883
26.1998 15.1068 261.668
33.8255 19.7619 215.902
32.107 28.5538 239.069
42.2255 140.443 145.181
24.5521 161.294 77.6479
18.2241 130.819 216.934
35.8564 54.5172 224.251
25.4897 117.836 99.8415
51.5366 88.9179 158.308
26.6964 120.226 248.336
20.6944 124.868 102.975
22.6251 38.2839 248.136
39.272 140.25 150.632
45.1993 94.1548 96.6592
48.4046 129.946 88.4439
37.9576 144.833 153.546
12.2055 1.77084 250.429
52.8065 58.485 219.781
7.05913 31.3198 80.2999
31.7566 136.414 237.582
47.7141 132.983 101.486
21.0354 103.669 254.135
6.26751 61.538 247.575
22.2369 57.3062 245.77
23.5451 15.6945 236.767
48.1467 156.292 145.232
41.4367 32.4131 216.782
33.9808 152.454 249.215
46.2856 86.3388 100.902
33.9935 122.886 262.17
48.225 35.7348 252.445
41.6351 127.087 84.3911
46.9397 89.6381 219.238
51.6351 79.8489 100.629
35.1877 59.7842 214.354
8.68264 87.3524 96.0669
44.6215 73.7411 223.244
58.2744 105.805 261.738
60.0889 76.3226 104.641
47.1573 104.799 239.675
56.9939 126.772 260.102
71.9156 103.17 132.601
37.5201 93.9867 247.888
7.24027 126.378 236.205
12.7239 102.175 199.378
17.7983 178.328 115.333
42.3446 95.6266 166.578
15.6575 35.5109 236.568
46.3013 127.779 259.682
2.92591 22.3619 224.098
4.32062 1.00358 261.703
34.4772 89.61 254.657
19.4535 1.10011 211.737
30.3281 48.3786 243.413
74.0526 111.817 124.376
43.0813 33.7568 222.133
41.9047 82.2863 133.6
49.2214 86.6937 125.216
46.8467 14.4615 241.026
41.7445 48.2198 223.218
54.1628 134.484 87.4041
77.4943 5.60409 238.408
14.3081 29.5731 262.14
13.6472 160.278 244.459
43.1858 37.0921 227.794
