ply
format ascii 1.0
comment Created by Open3D
element vertex 1017
property double x
property double y
property double z
end_header
61.3389 119.047 63.3668
60.9481 85.8179 236.104
78.8815 166.681 227.287
60.0174 85.3083 69.1708
55.2468 98.0882 78.1068
72.3036 167.321 105.033
50.8301 120.173 230.949
38.3938 69.2763 116.713
89.8281 157.666 51.0407
48.5484 117.515 81.1468
23.9605 108.597 105.785
73.7701 80.4132 224.258
60.9801 118.305 48.1233
73.8182 68.7501 234.332
57.6085 107.147 216.625
21.793 74.5829 160.948
56.3458 92.8732 250.356
22.0879 59.2421 137.81
67.2951 166.658 85.8922
103.95 157.104 48.824
64.1117 39.5201 126.684
29.593 99.4958 101.277
58.4181 97.473 56.8486
107.872 176.991 97.266
66.9088 71.7703 229.811
57.3145 60.6425 186.268
74.0265 79.447 233.577
53.7135 114.962 63.7221
64.4235 79.3547 229.018
14.2052 79.3428 139.124
39.5053 109.838 240.528
38.2806 124.924 246.136
70.416 48.9763 172.4
45.5991 137.465 261.704
46.8884 140.949 250.938
59.5705 89.6424 61.5554
94.0347 146.169 41.8468
90.3503 164.992 218.075
40.5957 76.6275 167.482
23.545 73.6207 119.483
62.1755 165.241 97.7419
80.7039 169.81 62.6956
117.184 152.951 50.862
22.2315 101.968 116.285
45.6876 143.159 94.636
51.7718 61.6837 178.125
51.7806 40.6338 160.461
87.9697 183.529 119.011
50.6314 62.4743 98.3112
54.0483 80.7322 236.411
68.2764 84.2057 220.121
58.2602 84.6973 243.832
57.5 105.42 265.179
64.2541 132.319 56.9202
55.7833 88.754 79.6009
67.5668 156.213 66.4818
34.4193 64.3141 178.775
48.7585 89.702 252.484
49.4 90.8301 238.507
57.288 56.2273 99.5679
45.194 96.8362 253.476
87.2224 187.063 100.692
39.857 60.7951 111.207
44.4141 74.9405 97.6666
76.3023 152.68 46.562
73.2854 162.723 64.1826
56.9784 136.429 74.5089
12.4166 87.9506 129.978
39.5695 125.023 231.893
96.9374 159.574 238.146
17.2744 82.0141 116.56
68.6909 40.7115 154.929
43.1076 78.4619 181.969
52.3132 149.406 168.818
43.2511 46.3051 156.168
69.4721 82.8724 238.26
57.0805 39.9166 124.364
59.4807 96.8211 268.962
88.6513 153.635 242.569
96.2793 135.659 43.7752
108.876 187.89 99.6761
19.0935 116.342 111.793
20.4657 62.7118 160.381
59.1921 152 54.0672
70.8423 81.2733 68.3116
44.5248 103.568 225.343
51.8672 147.769 75.6405
15.9393 108.623 112.379
64.5353 139.09 55.4601
79.2131 152.923 222.621
15.0857 111.635 133.21
54.7424 143.094 93.166
26.931 66.8711 169.012
72.8347 178.068 120.422
16.083 71.9713 145.733
10.7611 79.6263 165.597
15.1989 94.1727 118.051
80.8986 174.961 73.1983
40.4093 62.9225 168.67
21.116 73.3352 168.812
91.2896 183.661 129.678
57.0852 143.949 248.607
42.1847 81.1768 104.594
29.9492 98.9832 111.165
75.0617 162.305 259.164
104.935 146.946 43.9497
69.5453 171.948 112.256
51.7166 89.6273 268.956
87.116 135.443 253.005
19.9117 103.969 167.46
87.2701 150.369 215.761
77.4069 66.3925 226.733
47.571 99.1611 267.646
60.7852 124.907 210.549
59.2378 85.2552 255.245
53.2123 129.097 270.692
62.2826 65.933 185.513
29.2604 96.1211 186.112
57.826 47.8831 142.88
86.8896 156.29 226.535
75.5786 88.8758 210.332
64.365 149.654 163.522
32.8583 75.4371 113.949
19.1797 74.7552 152.102
48.7004 151.683 146.206
77.3864 155.227 235.307
118.74 107.273 61.1958
79.9568 94.9408 47.0356
106.607 152.848 239.858
110.613 182.897 102.99
38.7504 69.4613 102.065
47.8524 114.309 224.161
82.9702 159.262 53.1496
42.3497 107.79 259.797
47.6715 143.63 223.454
65.5169 113.769 270.825
53.9944 90.3551 230.019
69.4209 44.1295 164.658
56.3216 140.167 255.757
51.9409 124.287 69.4048
51.5352 85.3095 246.515
118.19 18.4248 98.765
68.2554 58.5035 179.597
57.8117 157.727 108.332
76.2042 80.6931 249.692
32.3905 63.0215 167.41
57.154 125.088 104.501
72.4525 78.2368 266.979
76.4207 156.799 268.543
124.67 21.7832 65.9652
100.106 149.573 248.418
111.238 8.86357 60.5683
62.0502 89.4449 260.854
49.5741 97.6966 232.899
44.072 65.4362 100.484
62.0894 152.267 71.1861
44.3113 127.856 99.0718
52.3587 149.464 230.607
32.4388 144.761 153.916
60.1316 145.613 59.7179
104.175 161.994 233.753
87.457 39.9445 132.471
39.0421 144.511 114.323
54.0673 145.236 151.378
66.7966 41.0746 139.181
51.8011 99.4306 259.289
28.8872 125.469 169.552
86.3474 165.537 260.628
25.1948 107.7 173.668
75.2134 174.459 90.7896
76.8433 163.13 234.602
80.451 158.626 134.428
42.7036 111.226 98.7167
46.6406 143.668 230.403
68.7945 55.0291 113.176
96.0565 186.972 79.3847
59.1531 126.565 66.0029
81.618 79.6147 215.443
89.4458 130.372 172.114
12.9125 97.1032 151.588
16.7089 71.4949 133.77
69.554 50.0151 106.94
39.6533 132.096 249.832
50.8756 67.9415 185.233
17.7182 110.493 119.206
51.4688 58.0109 113.472
11.2376 86.9719 163.862
25.6684 86.7032 115.04
128.051 15.7927 52.5082
65.097 155.696 151.224
96.8643 165.2 231.905
38.6361 53.1906 161.586
56.054 139.452 175.553
66.0207 168.48 121.408
27.5026 126.219 154.648
37.548 77.5076 176.262
68.1559 81.6962 248.457
29.9241 75.5089 175.841
68.6593 157.576 237.856
55.2697 107.794 71.2107
78.8039 47.8106 157.276
33.6917 113.961 104.173
23.2003 76.0389 178.666
73.1796 171.119 70.2009
107.59 182.862 117.701
55.8406 122.749 225.526
57.1769 135.436 272.145
75.963 146.263 272.762
72.0091 147.486 228.569
51.2419 96.5407 226.476
21.8691 113.118 168.657
52.4855 121.502 92.0265
67.2466 114.027 59.4213
54.1176 90.1766 206.892
20.7754 89.288 174.018
36.2199 65.507 156.388
61.8462 81.5757 271.128
65.4113 85.9792 227.172
69.0964 101.571 54.112
71.1375 64.1412 186.018
57.0893 49.8972 132.17
65.4342 162.304 230.307
110.585 113.613 67.8277
77.6404 113.502 56.3476
88.5014 153.002 251.857
94.1069 173.388 67.4557
61.4603 145.274 171.161
60.4961 37.6086 134.145
62.0405 81.9359 217.937
51.0762 123.119 215.277
51.7897 104.674 226.722
61.9365 159.282 238.74
35.9199 107.48 96.4436
11.1065 92.2978 139.651
88.0664 152.404 263.838
20.2485 121.149 171.659
52.3398 42.7872 135.533
41.2666 65.8301 129.945
43.0757 118.78 232.724
58.8311 145.495 104.429
98.7656 187.958 120.059
46.3832 105.221 271.233
25.0666 61.5501 149.631
54.6202 148.857 62.9059
72.7675 78.6154 258.069
84.7658 79.2604 223.381
102.651 159.663 249.984
52.299 102.034 63.2575
56.1043 74.4346 187.838
91.2135 78.0533 216.988
68.8785 149.456 119.545
51.2799 126.954 78.1308
95.93 176.141 88.7825
86.8617 70.9465 229.225
46.2666 57.9517 161.548
25.4346 139.329 138.931
59.109 55.2691 177.603
83.6734 118.48 43.8522
18.6704 80.1547 131.148
51.9717 131.841 256.256
57.3708 57.5332 125.381
55.2877 149.472 158.625
102.002 168.273 53.1744
79.9621 159.011 227.533
87.4661 46.3305 127.95
60.7038 147.255 210.524
47.0822 114.366 271.279
44.7877 82.7645 187.394
48.5769 153.414 101.058
80.8213 84.5463 63.7571
81.1373 64.9586 197.944
36.1771 85.4416 184.813
41.6305 122.979 259.4
74.5496 126.982 41.2424
20.1894 127.684 153.843
73.2214 154.074 166.648
30.1982 46.4451 139.383
49.2502 148.155 257.229
37.7952 116.381 234.527
45.1229 62.0122 177.056
26.9986 114.068 180.47
49.0881 129.624 243.904
42.5704 113.063 247.059
62.0973 78.1567 240.019
77.0117 182.637 112.159
36.8314 145.847 122.831
61.5902 141.412 266.731
19.3193 98.9836 161.411
56.4169 97.9757 217.005
24.5972 71.4846 129.694
55.1661 51.4617 168.459
43.4403 96.4087 198.265
73.0432 81.2324 206.006
77.0263 42.5211 123.24
53.6599 142.086 213.71
110.123 155.481 246.84
105.642 19.2689 71.4389
48.9398 136.471 217.64
47.8394 56.4333 168.745
96.311 164.65 216.737
68.5471 138.525 115.098
46.7573 133.793 83.629
51.1612 154.351 136.865
68.8781 85.9661 214.058
122.088 144.085 50.2042
60.7127 111.325 208.447
29.3529 60.3674 159.319
48.5675 140.985 175.452
11.2408 104.314 137.49
80.8244 131.889 178.105
13.6484 99.673 127.86
61.3986 76.4615 265.327
41.9357 109.067 252.812
17.4085 78.3054 165.518
97.8509 97.7112 69.495
99.8119 176.019 104.032
66.7834 147.068 54.7126
58.0361 154.383 127.012
64.9924 157.633 140.717
61.9985 64.2701 93.716
59.1786 152.605 263.316
109.26 162.164 251.503
59.4353 147.4 230.214
43.7782 146.687 151.351
126.189 19.6571 101.112
41.1827 151.853 140.991
49.4927 85.8364 82.001
52.3036 86.7822 258.168
53.0043 114.029 272.4
87.1656 67.072 95.7792
49.5791 206.905 261.184
32.2196 134.265 165.093
64.5408 47.4853 145.269
16.0219 79.4169 158.696
64.6227 137.168 210.369
63.1866 94.3135 220.404
52.8188 49.8953 122.71
59.2941 165.908 65.8729
35.7605 129.737 242.981
83.1593 78.1373 236.288
61.3204 40.3727 158.166
111.823 160.491 232.468
49.8979 107.816 217.31
109.305 111.794 53.5829
20.3812 117.905 148.869
85.3956 116.283 56.4285
44.7165 125.914 90.3873
90.1725 106.989 63.7394
60.5973 107.164 86.0235
58.3176 78.652 252.031
59.3868 113.366 272.397
48.6077 80.0945 89.1764
62.3721 157.972 76.8193
62.4268 84.0948 206.036
43.6442 106.984 187.45
51.777 70.807 93.2604
45.011 123.325 248.338
59.7407 138.748 221.759
25.1409 136.102 159.769
69.9346 162.182 224.549
44.3907 107.566 266.437
43.5662 142.253 237.107
43.0947 108.653 230.338
12.8865 120.068 144.074
104.144 171.036 66.2486
61.6135 132.645 259.626
22.1774 99.265 175.712
38.6927 54.6957 170.337
44.1629 118.908 266.874
68.8078 173.34 79.6467
78.4716 167.103 138.522
61.0773 45.1691 114.53
100.229 150.992 269.569
72.5981 134.123 184.197
141.196 3.79601 50.8634
103.735 122.078 49.7909
13.6987 106.853 169.365
59.1407 160.264 81.6527
54.3874 156.691 66.835
14.8147 129.063 144.146
70.0183 178.613 108.022
41.3295 43.139 130.833
57.4771 134.288 251.557
63.0788 148.37 254.551
45.0179 119.68 102.053
65.3274 64.5476 194.325
109.825 158.345 270.216
43.3956 67.9387 184.941
94.7395 158.042 230.94
30.504 95.7183 177.492
62.3147 156.913 221.574
81.8782 144.661 45.4443
120.212 153.144 235.957
58.3054 156.541 147.305
64.4989 161.909 113.02
114.93 20.0007 61.635
87.7243 96.781 50.1214
15.4586 94.4932 174.29
57.799 156.727 118.308
19.2708 109.569 154.367
95.6324 167.881 242.714
70.855 163.578 233.154
84.7353 159.187 273.536
82.9406 159.162 208.523
47.9725 130.035 267.626
77.822 70.2805 212.377
63.4886 97.1579 83.6783
98.3186 55.0474 120.461
92.3587 82.0039 75.936
56.6915 154.32 247.898
34.7508 88.4307 178.312
57.2966 38.8271 149.078
51.6841 134.318 89.1934
59.903 107.068 58.8123
58.8731 72.6714 245.039
40.2829 105.888 235.929
99.2004 129.896 52.9775
81.173 74.9078 203.696
38.0403 69.322 137.756
44.5389 56.0122 180.922
59.3514 71.7889 99.9934
51.8104 141.045 257.961
14.6276 79.3204 149.373
35.1548 81.2334 108.757
43.6273 86.3337 94.5856
15.7964 79.0542 125.277
54.1671 80.9345 264.83
44.2763 101.624 256.661
65.0684 147.569 226.204
81.3103 154.899 247.824
38.58 82.5961 99.8603
42.6144 201.873 268.097
78.1932 43.1188 105.743
64.3005 74.3041 74.8827
73.8353 133.475 54.0237
67.0999 73.5129 191.27
82.8193 177.415 90.238
66.8931 76.1123 205.478
53.441 93.3724 257.166
119.676 131.786 218.474
84.6652 76.1471 70.4875
53.5069 117.318 106.753
64.5631 51.5112 125.385
93.4642 155.975 257.744
95.9151 81.9683 222.114
64.8426 85.9264 53.8701
54.2895 53.6989 108.37
79.8645 171.05 123.618
48.8299 144.204 239.612
19.4518 130.464 137.807
78.5566 45.9684 112.69
52.8102 110.57 211.659
63.0597 52.5646 170.064
29.8599 87.2663 101.563
105.234 116.028 177.545
88.4471 54.9806 184.27
77.6989 78.5113 73.3198
56.2061 114.366 216.847
44.3683 130.443 226.075
73.6421 88.9199 52.8565
72.7972 146.657 254.681
114.175 109.374 216.731
73.1775 161.354 54.6645
75.7602 45.9873 146.461
88.9757 173.171 59.6538
105.361 150.497 263.029
54.1981 129.398 210.676
52.5324 201.426 273.381
68.5486 121.895 52.4772
79.2895 164.965 250.886
82.8631 67.9502 84.7711
83.6175 90.1375 60.6404
65.5504 161.929 244.189
107.415 95.6224 221.654
101.806 188.542 107.261
115.695 116.938 207.212
35.3395 68.1675 106.834
112.95 84.8367 225.768
61.3528 131.046 205.239
30.6959 107.596 184.109
53.061 148.829 245.092
69.9814 110.937 46.9334
39.0201 134.969 110.17
69.4787 34.7881 141.361
45.6165 132.679 174.303
52.1202 44.4151 148.943
93.0466 75.886 238.196
74.8767 102.107 210.088
85.5282 62.8554 191.015
115.266 162.022 54.6646
23.1374 69.4622 141.664
45.3535 75.0205 189.924
22.7163 134.378 121.718
15.1315 100.398 142.246
75.7682 103.025 43.8368
89.027 49.3495 139.15
31.9599 140.705 146.683
26.7447 126.304 147.217
57.6709 143.461 273.27
46.9849 39.1126 141.805
79.4419 147.013 168.393
37.7252 97.161 98.5765
58.8689 133.398 110.705
75.3818 140.388 202.177
41.8436 115.718 259.197
50.9356 91.7757 220.258
61.4392 103.585 49.8933
56.5924 112.092 83.0537
59.9844 47.734 177.053
108.703 139.347 45.9624
73.1826 138.457 177.673
86.5991 97.9167 66.119
51.5141 55.0589 145.613
45.5802 126.522 217.891
78.1618 55.8865 177.559
38.9385 116.5 245.363
84.6944 162.155 235.428
103.685 149.236 207.278
120.043 179.591 98.6778
130.155 29.8218 85.5105
83.1064 165.749 242.599
24.4275 134.185 130.023
127.829 30.2288 70.6246
43.5197 136.244 157.994
43.6291 137.618 166.564
124.398 27.6616 90.2603
77.6299 126.417 51.7669
139.548 20.5257 95.4871
67.003 56.618 97.1985
32.8439 49.3866 151.716
83.1133 140.742 187.497
91.4034 166.909 230.886
34.2147 130.789 95.5261
57.5774 126.258 220.106
47.1352 104.305 243.466
71.5356 74.5754 218.122
75.8268 119.147 61.8619
83.4867 103.362 46.4692
104.022 7.50784 66.9289
55.0074 144.322 112.012
49.8129 106.655 203.853
85.8788 145.435 169.173
110.816 173.78 60.8257
39.1648 130.225 179.17
67.95 146.288 179.5
61.2663 156.256 257.148
59.4238 76.8819 259.453
151.266 2.91735 73.6142
108.419 74.7838 227.143
107.005 184.969 130.196
57.9869 151.57 214.551
63.4227 90.8004 224.629
91.4676 175.164 76.2776
53.4135 99.3246 198.792
49.9611 131.736 235.499
97.3203 178.38 133.147
46.2542 83.7164 194.43
93.9795 159.959 248.19
38.6529 214.807 258.307
48.805 142.402 244.268
42.79 100.004 101.828
88.7631 66.0221 250.044
59.6819 104.713 72.6011
90.4052 90.947 55.8298
36.1699 140.924 165.082
64.1913 149.308 269.515
72.0305 94.0079 46.4679
53.9134 106.156 103.183
92.5884 60.1551 179.522
104.68 152.734 230.037
57.8619 139.285 68.0229
91.2541 154.09 203.933
75.9119 70.3054 203.438
63.976 152.751 232.387
41.78 131.479 239.102
28.1102 127.638 109.415
14.9527 111.752 145.476
109.586 162.968 223.276
65.2873 135.484 179.345
66.0183 75.1213 260.754
120.221 156.377 263.948
123.208 130.514 48.6269
84.9721 75.113 82.1878
15.7172 116.876 162.059
53.8239 158.474 75.7374
23.2173 98.7003 182.564
78.5864 70.7872 218.408
55.8377 116.685 208.736
82.554 130.749 185.466
79.7689 63.6875 92.9194
103.654 174.846 77.7427
44.1067 89.1761 188.64
43.0864 106.114 107.233
57.6701 85.0672 226.178
12.368 105.209 150.657
47.8871 124.04 255.722
82.7941 151.909 266.121
54.9714 130.631 81.6655
75.0691 141.659 214.889
16.0778 119.492 124.443
60.9311 89.8288 212.926
91.8 165.966 236.404
53.6146 122.91 273.987
90.4764 49.4227 109.148
49.4336 55.2906 133.713
43.7075 56.0652 119.727
60.781 120.68 273.213
56.4145 77.8832 76.9091
34.7415 101.025 194.352
103.492 65.6482 223.575
94.726 122.554 41.9564
35.8175 145.568 134.662
78.9943 152.735 151.601
108.132 151.031 273.951
69.0635 152.485 262.427
98.1087 150.391 227.699
111.215 102.574 63.7124
89.8721 162.307 268.613
74.7366 90.4911 84.3758
78.3976 51.3589 99.9455
64.2555 49.0914 100.669
120.23 173.411 66.4477
101.755 118.512 58.0624
52.9736 77.3237 194.725
51.2938 153.988 125.753
69.3613 45.6044 148.6
119.008 158.654 242.254
26.9638 134.645 112.105
53.3889 100.105 273.166
48.0676 115.114 197.566
58.4647 153.866 139.503
100.239 179.814 67.6711
66.947 142.526 203.373
91.653 89.6516 68.7287
10.8204 68.0229 142.776
117.764 99.2253 224.662
116.892 29.8384 81.815
35.2722 228.377 260.639
136.877 20.2516 60.1797
73.6921 150.928 173.453
144.994 11.2753 65.5691
16.281 91.1505 153.156
92.7912 76.147 246.233
51.2042 112.406 75.0141
123.983 3.44914 50.4473
116.065 180.709 78.1622
107.834 146.174 243.858
55.0716 85.1688 92.1463
96.4705 187.785 98.7178
92.5119 137.06 151.61
72.9297 160.88 132.774
91.2499 43.1306 116.022
43.3812 98.0074 241.179
48.5118 122.281 272.833
114.162 100.533 219.23
98.7922 63.2813 184.3
60.9095 72.2525 91.1422
84.644 78.8529 273.854
68.1561 155.047 226.317
66.3716 163.349 59.4979
16.9755 64.8838 152.148
66.7771 101.082 271.758
62.854 53.6451 106.935
15.6045 229.07 273.159
73.7808 73.5849 77.0873
81.4729 107.893 256.302
90.1879 80.3422 211.325
112.218 139.194 216.685
102.496 110.613 63.3352
112.044 87.7781 234.202
52.9121 62.8104 107.846
60.1113 110.836 52.5378
37.472 126.25 173.286
67.4792 160.929 254.662
122.631 163.046 59.0758
62.7468 95.8158 104.434
90.0208 155.772 219.64
87.8824 81.8154 67.6356
53.7651 156.801 90.3119
66.94 146.789 216.514
125.545 33.2734 78.1399
33.5553 72.4804 132.411
63.1661 173.385 73.6508
87.7645 178.753 113.035
89.6177 126.782 50.117
98.6195 52.5413 148.331
119.004 160.43 257.519
21.8551 84.5143 110.876
114.595 98.7982 210.894
16.5899 85.2417 169.493
56.3009 147.052 222.051
48.2027 107.686 69.4753
31.3929 65.2198 125.337
73.4506 155.471 127.168
56.198 138.845 185.016
20.532 125.897 117.601
75.5133 163.694 246.915
73.6453 69.0314 80.0525
121.999 172.439 109.39
80.6168 83.6299 210.102
49.8644 49.7262 161.61
21.3705 64.5718 147.15
76.5907 105.205 105.568
81.7727 136.511 48.8619
34.8185 121.309 100.875
70.0079 160.773 249.026
83.1272 42.0874 121.802
22.9162 230.734 264.776
26.5265 82.0063 106.178
52.5343 136.084 223.051
83.2948 151.855 137.715
101.04 90.7531 76.1044
88.4358 150.055 159.08
19.4812 112.213 108.073
82.8253 77.2012 244.717
53.1255 141.844 164.003
47.6983 136.68 117.113
51.7991 125.316 196.545
72.1513 65.4088 195.124
85.0157 100.638 56.4445
110.767 168.963 67.0385
93.0199 110.217 54.0079
89.3909 171.133 251.129
85.3466 177.973 101.66
45.227 149.827 124.43
79.6437 61.0894 246.324
85.4221 46.6595 164.164
103.07 60.743 111.847
82.0913 137.369 147.373
110.407 107.798 209.426
89.2775 181.876 242.882
77.3622 130.813 118.094
15.0473 72.6357 127.229
97.3275 74.0202 193.535
102.402 136.105 156.951
40.6142 138.36 250.403
46.283 128.364 108.952
74.6772 97.7986 206.134
68.7279 120.022 201.273
110.902 164.433 57.4004
33.2348 137.667 127.775
88.874 59.2487 150.057
110.599 172.929 126.702
69.5426 146.721 274.152
47.0526 87.7123 198.841
70.8297 161.434 244.503
41.9252 110.157 194.581
72.159 99.1005 274.386
91.2295 49.726 116.507
64.4756 138.416 185.215
67.1821 156.675 59.2215
60.3449 207.565 274.442
60.8969 129.461 189.282
43.6175 145.376 160.013
67.6188 131.941 204.836
95.1652 154.656 220.761
10.8545 86.7927 151.298
92.9186 117.199 49.6848
45.8142 111.508 78.4774
45.8929 125.932 190.986
86.2426 140.969 175.722
112.819 190.327 75.7773
34.3025 110.71 187.842
87.817 67.4905 257.087
55.6432 100.073 206.132
77.3677 129.308 202.908
111.751 176.286 88.0669
68.3639 41.7924 119.752
80.332 141.211 125.566
16.3246 124.584 131.825
119.48 157.765 227.825
102.762 181.457 105.21
82.8191 159.618 259.238
113.786 99.8621 167.351
101.419 156.712 211.572
60.7121 214.706 264.252
72.8015 43.4037 114.209
87.8343 74.5665 210.093
94.0837 66.613 220.96
78.2574 35.3654 151.2
103.135 16.1878 78.7468
112.039 155.244 265.417
80.0951 126.317 60.1402
70.8637 118.453 274.524
117.16 26.3789 89.0948
51.5141 100.755 243.761
35.4314 120.64 241.644
123.501 123.196 236.423
122.085 90.4532 235.884
14.8287 102.137 157.394
97.0084 56.728 105.398
78.0812 51.4344 167.264
71.0565 110.46 203.747
68.8167 74.4468 198.894
54.9274 80.3681 86.0986
42.2155 143.098 104.749
67.3824 150.724 206.286
47.2766 89.0172 232.037
120.744 173.326 80.7889
116.41 150.507 267.749
71.2682 98.46 91.206
120.246 185.461 89.6765
86.3939 69.731 198.524
25.4417 91.2316 179.132
50.5626 137.934 182.645
87.3092 61.5039 229.546
62.4845 88.1009 96.1762
103.662 167.397 246.127
51.8043 97.808 95.7621
117.78 115.948 219.875
37.1012 94.1226 191.076
32.8622 55.0128 122.849
99.8949 169.665 252.403
32.5207 137.967 117.012
63.2814 146.081 272.895
55.1127 138.573 233.848
76.5367 157.331 274.398
54.9155 122.303 261.065
92.3745 72.506 260.734
122.305 134.951 234.997
93.5427 64.9322 194.604
111.222 129.648 46.5185
96.5113 77.4439 228.847
79.7646 40.5934 137.596
68.3156 69.8767 242.995
54.494 94.8809 68.6593
78.2497 76.8662 220.927
86.8438 71.5829 268.009
64.3158 76.3404 99.4407
74.6707 59.0679 93.0795
81.199 145.627 177.742
55.4436 141.23 238.092
120.058 138.362 229.502
64.3728 129.597 109.833
81.0564 76.6821 262.271
67.3853 219.68 270.532
49.1565 99.7772 219.212
112.253 83.815 179.065
43.526 139.265 244.564
67.5914 110.083 98.5289
64.4262 151.943 243.57
72.6339 81.727 60.0766
110.933 81.8926 245.264
87.7215 51.832 102.486
62.736 127.539 117.92
113.45 101.186 160.402
99.7729 54.0693 135.201
80.9421 100.893 206.373
127.387 8.42905 101.488
71.611 129.957 206.422
86.0324 168.674 236.993
70.6901 138.567 191.698
53.0332 85.9044 202.235
102.968 64.445 174.494
91.3143 68.9402 200.466
44.2906 145.818 131.616
96.2882 158.341 212.506
88.8919 97.2586 197.396
52.842 155.713 114.233
121.558 185.718 78.072
38.64 121.948 187.578
77.8343 86.5658 272.185
113.81 154.226 257.899
65.6424 104.401 214.943
42.2231 120.267 86.479
115.57 180.029 111.952
77.3047 164.388 128.964
77.7465 76.1506 269.615
73.5639 67.6228 245.928
104.223 78.5348 242.305
120.492 101.874 230.106
94.1408 147.944 218.764
95.4908 108.315 206.214
61.1969 141.474 208.626
145.616 11.6399 90.4566
103.473 70.8181 248.497
99.383 175.226 124.844
42.7346 135.837 233.356
62.8354 140.13 241.211
87.7242 56.4239 97.3785
61.987 99.2002 74.948
92.144 68.8409 86.639
110.137 152.432 212.678
87.9385 86.6705 74.961
91.2374 182.436 72.4078
119.265 178.277 86.4108
59.5918 169.649 78.1232
50.6437 139.804 99.3316
70.823 105.549 274.054
30.1633 123.308 181.408
93.6508 113.018 249.09
118.755 134.624 211.242
72.2442 70.6757 264.086
87.9857 46.7803 148.132
61.0282 71.1579 198.938
73.0998 50.7709 141.022
61.7514 134.803 194.384
49.4838 140.162 111.602
105.351 164.399 270.702
99.5424 104.921 54.2658
109.92 176.615 138.245
87.1448 87.1444 199.012
77.4846 147.776 207.64
77.6272 81.6541 274.338
115.197 93.5744 230.194
84.4473 157.036 214.648
112.914 92.1809 161.363
9.43087 96.2178 129.186
61.8435 88.2073 274.616
104.469 156.034 274.513
47.9265 228.333 258.763
100.642 69.1624 242.42
122.567 142.692 215.842
48.7963 114.818 259.525
80.2669 150.031 159.507
69.1499 74.8012 247.338
79.7086 53.9052 182.402
90.7695 185.23 110.393
80.0607 109.648 200.722
68.254 151.958 270.506
114.05 161.503 261.644
82.4628 122.693 188.939
81.1799 146.415 200.809
93.2958 59.4552 99.8448
91.2855 152.467 270.969
81.7597 87.0961 274.515
56.3326 147.438 81.6119
97.7519 66.6684 190.265
55.7109 112.393 95.4301
63.344 99.691 94.7555
81.7171 69.0586 259.314
89.5173 127.123 41.8118
66.2634 76.4934 84.1198
21.5441 121.826 123.55
87.995 92.0558 204.371
102.728 169.524 135.56
126.29 174.235 120.02
106.304 75.4433 258.449
122.569 146.771 253.899
138.366 6.93528 100.902
107.043 144.968 215.032
60.3437 120.962 200.118
145.721 25.5956 69.4197
66.6254 117.501 209.783
132.785 120.775 269.328
15.4786 220.772 274.573
74.095 51.1424 131.346
72.9742 153.192 159.549
76.0622 145.23 158.15
122.266 179.471 79.1203
49.9273 120.633 100.507
91.9132 178.132 243.828
74.6312 70.0927 71.2095
43.142 147.78 107.002
81.9073 155.776 200.638
86.1324 44.8996 113.581
76.9798 75.0094 66.0947
61.7208 97.9305 209.952
94.5399 74.2499 208.402
85.4498 106.532 197.608
35.6362 201.418 272.539
13.1295 104.601 114.93
58.4993 120.418 107.333
55.3953 115.056 200.169
68.7224 86.7196 58.8143
75.4266 122.98 193.051
82.1203 119.464 195.411
47.0131 62.2752 106.268
68.2711 145.315 241.974
75.9489 176.726 102.385
102.895 64.5452 150.276
45.6748 139.815 108.257
66.8952 70.0763 251.243
68.1207 126.443 114.592
132.758 33.636 75.2897
118.053 143.446 211.651
16.7505 108.47 2.73287
110.97 145.192 272.56
60.8597 150.329 218.86
67.9432 226.889 271.801
91.48 168.354 134.826
90.4275 52.1608 164.568
91.7383 94.3838 62.9498
84.5651 75.8545 250.503
65.2849 142.128 233.926
136.393 26.872 70.1708
98.8667 56.7062 171.273
101.202 75.2798 233.683
116.995 140.195 241.513
53.8173 103.018 56.983
77.3727 138.67 54.8119
89.5307 146.404 164.248
43.2846 72.4237 105.044
99.2125 80.3038 92.3345
70.8579 94.4339 272.237
105.988 158.981 207.874
51.2956 116.431 264.749
114.296 149.009 241.603
85.2168 80.4107 209.527
69.9429 131.181 110.879
90.7328 120.792 184.442
67.144 74.7425 271.298
26.5779 131.486 119.182
100.466 56.356 161.748
54.1934 95.3661 101.594
84.4101 182.576 96.3351
47.045 137.169 236.903
83.66 85.9019 203.984
99.7185 99.4451 195.214
76.6025 132.24 130.065
70.7926 156.841 272.579
77.5894 137.056 274.622
70.5242 155.375 251.678
49.0617 144.354 107.182
54.7918 77.1371 201.402
36.7733 77.3271 102.464
46.6699 148.957 117.001
