ply
format ascii 1.0
comment Created by Open3D
element vertex 293
property double x
property double y
property double z
end_header
8.40061 150.513 115.734
18.8325 141.725 157.275
46.0737 121.826 139.575
19.3443 95.9268 103.323
47.5281 110.065 84.9881
14.5013 104.273 90.8853
26.5913 81.0621 117.864
13.1878 112.675 103.454
26.7377 98.8827 151.227
40.3383 107.332 65.5206
15.282 84.5897 98.6365
32.0287 127.224 155.496
49.2485 108.499 67.0751
56.3221 113.532 83.2381
54.1248 141.731 138.921
45.1097 143.207 141.843
14.9352 105.969 110.168
18.5814 134.738 189.44
42.196 149.078 134.816
24.8102 68.374 85.4873
18.6116 142.441 185.005
42.2391 130.286 155.659
53.398 68.4598 102.488
17.9302 95.5928 95.0784
33.5052 94.6708 69.2287
26.4048 140.894 181.378
34.276 81.7267 118.101
5.79172 126.878 123.074
41.1509 101.409 117.474
43.0729 65.0619 95.8811
39.1504 76.3832 70.1378
38.4678 122.649 158.861
31.0918 94.1657 114.109
38.01 107.767 89.5294
11.4881 132.967 140.134
46.1024 91.4811 104.701
24.4528 149.743 117.953
61.0411 106.204 72.4857
15.3883 103.094 118.283
46.1502 90.2059 67.6611
46.5596 113.204 133.747
19.6657 129.315 139.257
32.4848 77.7964 70.263
24.6873 78.0421 108.676
31.9767 101.637 128.561
24.7519 128.993 107.979
18.8966 77.0968 90.8808
25.0222 91.5753 107.413
21.1955 88.9257 119.17
26.2713 123.949 97.2095
22.0904 118.936 140.624
26.6572 72.8074 76.6314
13.3009 101.112 103.288
25.2474 88.5555 96.495
5.16821 118.929 130.439
26.5203 97.052 94.1336
32.7117 106.888 95.0342
16.0902 130.168 169.444
20.0816 95.7303 126.932
54.9102 65.8399 86.5178
56.0672 92.3421 120.208
12.7149 136.637 184.975
38.1158 153.196 124.504
31.7628 109.131 154.116
9.02299 137.461 107.729
23.4995 115.722 171.034
32.1955 84.7884 70.5234
46.5732 63.9486 84.1505
65.4437 92.3037 104.871
16.2475 124.873 104.188
34.2351 86.7148 83.0509
49.945 147.74 122.347
14.0843 140.483 140.396
56.6097 95.7994 86.2673
65.2828 106.296 97.2272
23.5607 78.9166 99.9007
52.1141 99.9189 65.7961
17.6759 132.918 106.521
24.3751 101.563 121.849
47.1873 138.849 114.216
41.7169 137.821 105.583
11.4409 122.409 127.608
79.693 74.5687 165.782
39.3163 82.8852 68.5776
33.4776 128.716 107.124
20.6157 122.897 177.553
27.585 138.323 139.673
20.4639 109.661 93.4098
16.9747 139.889 110.921
61.0282 74.4319 81.089
18.6155 81.9603 83.8546
19.5212 95.0207 110.932
59.9084 110.319 118.231
58.345 74.5144 106.689
12.5948 131.624 128.293
37.5438 99.9206 74.9567
29.4728 139.169 110.049
48.0191 90.4518 115.56
52.6963 129.638 140.508
66.5976 100.109 80.7586
22.0964 98.6876 137.482
53.0358 106.657 72.7204
15.0124 122.956 121.624
26.6115 147.56 124.191
39.8494 123.269 88.705
10.3152 146.7 130.543
47.8773 94.9382 136.333
17.1095 143.501 132.534
21.195 106.313 130.371
63.0313 88.4286 83.9201
13.3135 103.577 137.982
36.6199 119.208 80.9077
47.8078 134.791 136.558
54.7618 99.9833 121.791
39.3367 123.308 106.755
28.4342 91.2645 75.3164
46.2816 120.411 76.616
57.3405 80.74 97.5548
31.2058 108.013 146.789
20.7522 119.927 156.954
33.8177 81.8507 110.779
21.1258 90.1717 80.6343
40.6274 129.778 107.928
28.6753 88.9499 120.578
54.3546 113.588 76.6865
50.8988 134.317 107.069
4.52729 133.856 122.643
41.6804 76.743 115.288
49.5295 125.107 125.421
49.5381 217.921 35.6028
21.6526 96.2725 83.0373
24.228 136.074 108.184
27.5446 127.018 163.75
39.829 116.556 94.6016
49.1115 62.0575 90.7794
29.341 113.933 92.0187
11.625 154.455 123.173
59.3854 104.682 87.6348
25.9138 111.613 135.305
42.421 65.7788 81.0476
10.1692 86.4066 123.701
24.2244 155.42 131.286
57.2039 135.004 117.454
37.1965 103.388 82.1081
25.8301 229.018 87.0579
45.4005 112.523 71.4666
59.3212 106.877 107.466
38.0108 65.9614 104.285
56.4314 114.824 111.678
12.0076 126.243 140.781
43.5749 98.9798 108.522
43.2242 71.7363 77.3996
26.7609 139.088 152.858
38.8543 72.9196 105.715
45.8307 100.638 70.201
50.9751 88.4616 109.225
26.8611 144.804 134.752
31.6568 91.4302 129.774
8.53672 142.547 114.851
74.485 28.5638 254.251
25.9175 93.0323 131.146
13.6781 146.437 121.16
56.2989 98.8156 103.083
19.5049 103.191 83.9144
57.5607 106.97 82.3381
49.6309 96.2597 74.4119
54.1707 134.048 125.777
50.5995 114.656 116.149
30.1521 88.1576 102.818
63.9733 81.2784 88.315
24.5363 85.0771 110.191
54.282 70.9186 93.2626
62.4399 87.4884 75.6278
34.4496 114.725 85.1518
37.3463 71.6224 73.6249
31.436 106.102 78.6154
41.0397 95.1846 68.8193
49.8708 113.918 141.201
43.7941 69.6128 103.588
19.2999 140.039 172.588
24.6891 84.082 78.0847
44.4276 105.258 132.831
48.4183 77.8984 108.157
33.159 149.498 140.411
21.7595 142.04 142.041
36.8267 65.1957 80.4949
46.6339 76.3143 98.2145
38.8772 124.71 98.8417
18.5975 141.629 122.822
38.3798 81.1609 125.232
42.5371 97.5251 81.4613
16.3788 127.587 181.419
33.0024 110.255 71.9952
34.7204 75.0386 109.06
50.7994 70.1949 82.1509
12.7731 112.953 132.057
55.1681 79.744 103.735
14.5191 120.183 113.193
59.4928 97.6517 81.5026
60.375 95.1024 98.0308
17.5158 96.3301 145.95
45.0035 83.6055 114.003
44.1747 99.2334 140.078
74.1918 29.8826 259.821
24.9484 152.316 126.469
51.0751 107.143 94.8366
61.4589 73.7471 88.4741
23.0812 94.9473 76.4805
20.4228 136.263 148.921
22.202 72.8728 94.454
49.0584 141.347 133.71
13.9631 2.78118 14.8796
32.1715 67.882 75.7317
25.6599 127.33 172.874
10.8062 139.251 127.664
57.5074 128.645 112.103
50.9721 86.1525 71.8254
64.6925 88.7217 91.7707
55.0991 111.399 103.824
25.9617 114.815 152.36
53.1469 82.0527 107.796
39.6799 88.4713 74.3642
54.2719 98.1053 93.0189
58.5096 93.3236 71.4785
28.0221 79.4015 75.5578
44.219 85.7094 125.367
38.6457 108.022 148.677
42.663 60.4696 90.7649
12.2544 146.635 109.33
55.2524 89.049 101.836
55.8903 128.729 119.158
18.2986 129.556 114.981
48.7459 94.7872 129.361
54.0724 89.2602 69.025
47.0636 99.0627 124.84
7.94879 159.506 105.892
63.8156 95.8121 87.6561
35.3253 115.597 72.9946
62.0309 98.1147 72.7512
29.1129 75.3682 103.786
51.152 78.111 71.21
57.6276 95.6287 111.627
44.719 106.981 96.6325
28.3499 102.597 136.482
61.7007 100.291 92.8606
4.33301 90.9803 125.29
22.638 132.44 177.817
55.1467 73.5406 77.8469
29.3875 222.987 92.3113
48.1539 135.422 127.617
32.9541 122.46 95.1964
51.8126 142.034 121.5
45.2228 80.7652 69.8984
10.4479 130.021 115.753
42.9251 113.182 147.341
30.0982 102.367 87.2068
26.116 106.468 84.2123
32.2797 97.0786 77.0804
55.515 120.849 120.797
54.5786 118.728 106.573
51.8459 114.319 123.455
36.1516 100.91 138.987
30.0091 116.509 157.934
40.7509 106.22 127.909
44.7748 111.53 105.699
36.3741 149.784 133.503
17.6294 116.107 174.86
45.4265 122.459 107.204
36.0887 230.319 77.992
47.1746 117.57 106.718
44.4675 136.345 145.058
56.3423 108.091 112.778
128.534 51.7989 197.168
38.9297 87.6275 105.805
19.6837 230.989 102.218
38.2939 107.109 138.622
31.8543 71.6503 102.383
48.3979 72.3583 74.1715
136.986 2.56667 158.869
43.966 93.9511 75.2872
13.6064 99.2847 130.561
58.9286 80.9447 74.4789
26.7261 70.7187 96.128
28.3631 229.502 116.931
34.6308 108.673 134.68
18.2834 101.614 99.1698
41.8478 78.2162 107.299
52.1145 122.658 112.212
34.9116 64.6911 93.3394
37.3907 87.537 124.161
30.0447 66.0613 92.2383
33.4517 61.0194 89.8904
32.0083 67.0952 96.7657
