ply
format ascii 1.0
comment Created by Open3D
element vertex 624
property double x
property double y
property double z
end_header
31.0304 133.517 206.994
84.449 84.3168 171.845
15.1178 17.9909 231.457
112.638 120.104 178.419
20.0659 181.488 176.831
23.2914 169.42 195.916
16.8464 167.342 185.651
44.6506 64.1139 160.625
143.423 151.423 166.438
45.4266 129.695 221.77
44.7403 194.022 139.182
30.2097 35.8203 255.719
36.5143 56.5295 131.635
38.1596 46.3179 109.994
40.4362 169.465 210.1
52.7163 165.258 219.246
41.3904 33.5171 236.91
31.2297 38.4373 103.828
41.2103 34.7405 260.241
6.41812 21.7058 145.915
41.5003 183.636 200.756
27.949 47.6959 123.009
6.52046 18.5772 157.337
26.9453 52.4758 154.892
20.3928 29.1666 190.902
37.6658 188.16 190.164
30.7434 92.7659 155.844
35.3977 48.8115 184.884
45.7912 43.586 101.397
8.18533 5.84819 246.266
61.848 45.5878 210.778
51.8428 31.4795 241.288
29.8089 92.9128 144.916
18.9359 11.1935 203.912
18.5018 24.2826 264.6
6.49893 12.2321 164.028
30.8175 147.526 210.916
58.9152 153.799 223.232
127.57 12.682 125.021
49.3374 108.245 211.596
20.3515 27.4379 256.399
11.5777 25.847 126.526
46.1522 26.3258 228.489
24.3512 139.53 203.825
10.5332 159.738 140.864
24.2591 160.874 199.921
48.7028 118.263 110.03
5.24636 15.585 136.375
138.795 160.107 168.374
29.9259 155.26 206.335
135.573 183.652 167.076
7.52729 4.9438 120.771
21.7608 35.6737 112.242
25.4496 40.0352 187.056
116.85 112.543 163.471
103.816 134.031 193.79
19.3947 105.578 139.377
123.208 127.452 150.31
51.8311 55.7545 116.781
9.11253 4.51169 260.189
37.0458 160.551 111.124
21.559 11.5048 222.252
118.366 114.486 144.571
121.639 143.868 152.443
37.5156 91.667 171.584
31.6934 29.605 230.855
7.27358 11.4622 254.329
21.5044 150.351 200.389
66.0098 131.652 104.73
66.8825 105.828 211.143
38.6509 144.725 216.297
137.512 4.01437 139.354
82.716 103.5 205.406
26.0988 105.283 127.725
133.317 9.88386 134.227
6.56254 12.7104 127.51
48.3114 142.944 222.122
91.1447 156.448 212.004
63.7374 33.9789 234.567
21.2729 124.117 136.92
115.731 161.773 167.696
48.7794 85.7899 137.275
61.6766 108.358 114.123
55.0156 67.4423 158.87
17.72 40.5047 125.833
18.5352 108.179 164.9
56.5115 14.5994 79.0369
7.72128 161.979 152.883
38.6032 58.2411 168.428
36.8684 117.817 112.417
32.4958 187.715 142.358
111.295 148.511 125.508
22.0394 186.188 166.756
38.4953 18.5981 222.99
46.8625 87.3575 178.458
38.2512 31.0066 271.305
143.4 185.343 173.459
121.716 11.426 106.989
138.956 171.389 171.111
74.2699 80.8357 164.58
33.8604 32.2305 210.825
53.8821 39.7196 94.5701
60.976 143.094 225.142
39.7127 53.4797 119.695
68.0644 83.9745 139.393
34.841 192.317 181.276
7.67458 127.278 167.262
10.8043 115.06 149.516
15.7904 174.448 144.108
28.2058 30.7773 264.123
105.114 119.955 187.739
10.2134 27.6336 136.433
127.759 173.251 154.387
21.4013 117.411 189.403
41.4739 145.18 104.673
63.9602 38.8375 250.848
14.9778 2.9105 199.171
62.3056 143.389 101.871
37.792 86.9234 159.877
56.6699 183.068 207.63
34.4638 16.28 215.951
150.423 145.074 163.977
92.8357 93.2925 184.458
38.664 88.1951 140.38
46.5919 82.7333 148.913
73.4818 118.027 218.972
71.9091 96.4964 198.363
44.6769 155.437 105.747
42.3917 36.492 248.278
36.8042 158.356 214.64
11.0107 2.9928 190.419
135.911 9.86755 149.198
55.9224 37.9553 233.03
27.4253 185.197 183.516
30.5577 178.457 129.299
121.866 151.696 166.257
139.997 137.403 136.229
49.7384 40.5781 213.972
18.1262 150.826 161.107
10.8315 13.1329 183.639
88.8071 111.925 205.04
60.1268 80.9173 172.344
16.7653 18.7062 194.954
5.29537 4.35635 152.198
29.3282 141.456 108.527
92.0246 98.3629 190.68
18.6444 22.3416 273.196
142.204 137.019 126.856
128.596 147.325 138.824
121.808 135.544 142.779
20.557 146.89 117.124
100.542 105.249 190.647
29.4175 36.008 239.988
23.1046 25.1358 201.182
41.3161 38.03 209.223
44.9532 196.116 181.68
33.6727 171.813 119.378
16.0863 26.2372 116.043
44.0205 6.02993 222.565
55.1393 79.1929 153.197
107.988 176.092 154.038
49.9948 28.5704 221.308
5.32168 2.18714 137.901
12.6633 13.8265 114.824
30.3641 153.055 110.661
119.1 4.34967 101.457
66.9273 183.46 121.323
10.6835 29.0779 152.238
13.5011 141.065 125.708
56.4523 129.725 105.868
26.8344 163.899 119.102
33.9004 26.3859 261.35
11.9385 25.542 171.318
149.553 199.183 156.313
13.9889 3.25124 107.858
77.8804 113.425 213.335
47.4225 166.335 109.831
88.3714 135.744 216.899
8.58039 13.2028 241.325
12.7374 123.372 131.737
61.8434 53.6997 192.227
88.703 191.41 178.565
48.1785 54.4149 187.531
120.626 17.6688 112.427
113.171 9.25452 97.2477
106.06 145.274 190.91
85.4911 125.176 110.502
60.5718 108.783 212.844
108.491 170.313 143.59
104.652 167.267 185.634
74.4726 103.121 117.015
33.7807 130.512 108.063
50.28 133.553 102.587
30.3926 4.87827 220.73
148.478 176.409 173.561
100.53 98.6751 127
14.9443 141.377 188.007
18.9273 157.225 123.188
34.5648 21.7899 89.3592
8.27406 8.858 267.966
66.456 38.9937 242.03
45.9667 65.2091 148.406
73.2664 32.202 89.0159
95.6612 137.284 205.264
17.6659 113.911 179.463
81.9201 31.626 250.093
17.3437 104.711 153.784
20.8698 127.851 117.062
15.9962 3.61791 221.904
42.4022 45.3571 200.648
14.5071 173.862 165.117
131.997 17.8864 144.529
15.8262 41.0262 144.707
83.6951 33.9535 92.2207
56.3334 47.8046 102.982
29.8966 55.7401 141.134
53.503 80.4767 165.808
160.117 181.926 172.027
19.5292 37.5223 175.169
74.189 130.311 106.589
128.302 25.6039 140.826
123.728 158.852 136.429
64.9751 36.3486 259.044
19.1687 112.955 126.682
31.2029 51.9291 170.269
104.745 158.646 196.892
32.3062 169.222 206.124
64.7773 80.0305 164.141
124.849 3.01652 108.92
24.4725 23.8179 99.7301
68.408 42.2891 223.486
63.8597 119.049 103.363
87.6497 126.866 209.857
12.5959 157.174 132.053
15.852 14.7214 258.457
107.246 40.0558 187.237
35.4986 97.8599 181.247
134.222 141.501 131.79
63.5144 37.4546 91.7528
57.6869 92.8114 120.886
70.5003 178.213 210.479
59.8799 194.233 133.893
92.6472 173.656 128.043
133.138 184.239 157.64
67.0462 32.4432 266.706
8.44791 156.423 172.073
119.045 38.2532 147.354
118.14 118.627 170.803
50.0787 198.964 156.316
80.324 131.638 219.929
132.343 171.406 163.007
128.224 147.914 129.567
134.413 139.183 144.495
145.131 198.254 129.3
99.7803 129.464 197.431
44.2664 183.667 125.467
25.5764 187.981 149.284
39.4125 107.02 198.03
24.0551 19.9161 225.531
6.4341 149.893 152.721
7.64648 126.126 154.396
12.2355 130.545 179.914
52.1372 38.7082 226.675
101.304 148.908 201.928
125.625 137.795 157.596
77.3868 89.4472 182.407
109.054 110.115 179.094
56.686 188.033 126.224
115.459 164.075 148.122
59.836 94.4163 196.566
113.731 42.7057 165.58
27.1049 25.1699 210.496
115.241 28.0244 118.497
37.1987 30.0233 218.487
105.321 31.7502 101.606
103.453 93.8017 165.399
107.231 124.334 192.768
34.0349 36.7214 247.103
82.9338 186.123 133.549
60.6046 65.9025 170.436
67.4616 88.4679 125.428
104.049 24.3267 95.0959
76.7849 17.5697 78.4353
94.558 190.714 158.092
126.71 10.1483 112.871
40.5946 113.614 207.664
107.2 100.782 171.948
18.1701 11.8523 103.753
143.424 192.53 163.679
6.17812 12.7696 148.528
102.861 101.501 180.737
112.715 32.1621 191.865
29.5564 191.761 159.089
123.023 19.7279 119.297
124.39 156.61 126.288
58.5037 15.7866 223.943
62.0255 169.994 113.985
124.877 143.567 160.641
65.6679 167.226 218.519
124.124 32.9887 149.278
64.5531 97.6062 114.869
61.8196 54.623 111.056
53.5247 110.512 109.039
106.742 48.545 143.622
28.0785 24.0733 223.815
63.0856 63.6366 130.52
37.5252 196.058 163.186
27.102 20.5709 230.605
56.1302 125.481 220.357
86.3102 21.4212 264.049
153.556 159.202 171.863
84.0993 54.9277 117.641
13.2309 115.678 170.477
50.9892 146.504 104.113
148.77 201.65 138.021
44.0078 60.9207 139.254
76.3011 43.6825 208.916
18.754 2.74506 208.797
6.31309 3.05976 185.139
8.385 146.858 138.617
110.442 166.102 172.554
100.168 184.094 154.278
48.5042 94.7647 190.175
62.6319 67.6156 142.573
85.3123 177.964 128.691
50.2624 61.7358 174.104
118.53 130.629 135.465
84.6502 90.3108 184.464
78.9395 193.989 189.848
50.0325 36.8956 251.62
42.1099 175.829 117.57
113.347 157.974 175.926
55.1569 88.8001 129.343
55.8044 38.6251 216.138
28.6144 29.1559 273.434
89.1728 93.4564 128.672
120.954 23.9839 186.111
110.488 46.4883 151.168
25.9375 16.2688 214.122
57.5324 32.4356 262.804
110.476 126.28 122.691
109.931 21.5901 99.7871
42.586 35.5327 218.874
84.5806 183.324 200.604
157.48 140.417 154.59
73.3609 67.3213 143.289
44.7585 104.009 116.61
13.5137 34.7098 149.854
62.1973 31.1921 226.657
160.643 191.501 169.128
26.6418 2.44126 88.875
85.1955 193.283 147.05
16.6 124.215 120.858
153.751 150.725 168.874
73.5668 35.4212 240.55
42.9165 132.188 104.457
4.61349 2.32269 165.307
56.6359 134.877 224.212
116.856 157.829 158.645
88.7179 56.4935 179.178
21.2589 169.497 129.656
28.2366 9.53872 90.8711
93.4988 105.412 198.213
71.3334 54.0521 196.316
70.2711 35.2147 216.653
113.207 131.684 180.531
60.0143 33.6871 220.749
115.915 17.1385 103.344
100.349 107.236 118.739
47.628 120.862 215.953
77.0823 80.5706 148.813
121.73 166.402 129.402
131.37 157.938 157.183
104.799 46.099 174.573
34.9336 96.5051 131.952
94.0175 89.8603 171.888
10.3514 4.8516 173.44
120.021 131.518 172.963
61.9728 60.3594 183.544
76.2455 119.373 112.189
111.089 35.1231 113.288
68.7023 80.3625 156.323
47.2292 59.5935 127.876
9.83081 112.438 162.309
49.6185 32.5633 266.886
106.96 8.16378 91.1007
147.231 164.929 174.141
10.3321 9.3651 230.154
80.5167 33.5184 236.842
74.0793 52.5384 109.201
63.1926 132.614 222.779
93.0279 166.183 123.27
157.113 199.174 131.453
86.5427 49.4113 111.552
126.044 26.5101 155.768
113.04 141.623 185.205
136.354 7.07588 162.576
114.937 28.0752 195.767
71.9448 89.3585 132.742
93.9976 57.0099 169.769
107.605 154.585 188.152
82.0484 94.1926 125.324
82.2702 145.481 219.239
22.1512 49.5615 137.874
106.69 174.982 173.022
81.1976 46.1821 103.32
145.785 201.529 145.324
56.1812 63.8846 138.379
99.265 177.725 181.717
126.404 23.6262 132.075
35.073 104.915 120.187
61.2073 30.0319 272.693
25.0448 34.3419 173.47
90.9079 99.4915 119.146
71.9786 62.4759 178.412
132.451 21.3721 153.467
39.8396 33.1636 93.3278
104.672 16.4804 91.0313
57.6675 37.2929 246.102
41.5007 5.34238 82.1726
158.932 197.275 158.788
127.041 181.57 147.509
67.2966 196.735 142.757
21.0545 18.0997 266.127
106.313 162.379 129.407
66.5656 69.2308 154.878
14.865 32.9416 165.333
115.596 117.681 130.073
73.5723 110.827 106.848
117.591 18.3771 200.429
71.2645 130.992 221.468
105.321 121.02 114.966
9.3063 2.05833 271.678
7.89074 133.573 140.751
67.5751 49.4952 204.053
127.501 23.2598 167.134
68.5578 188.555 130.262
26.4564 103.886 167.743
112.292 170.755 161.097
16.8318 22.1901 247.291
143.284 137.053 149.123
52.2733 121.325 103.481
92.4574 88.5134 162.942
101.461 157.205 121.414
138.57 192.81 122.013
89.0935 29.906 236.5
158.537 137.542 139.731
123.875 168.8 142.842
50.0516 93.8509 121.96
113.061 160.456 132.715
72.149 35.8428 227.965
77.3863 26.6446 264.888
128.754 18.2114 174.907
25.9037 5.75397 212.617
105.312 46.7637 163.604
167.503 185.097 170.249
122.767 5.49905 200.969
126.076 131.532 162.428
86.9059 106.512 111.968
86.8052 27.2999 258.436
115.392 33.4814 176.168
114.183 140.024 125.54
23.731 25.1799 247.688
60.3452 155.008 104.793
55.3925 44.7008 201.548
129.724 150.835 119.837
117.461 32.5363 126.089
118.974 32.8108 165.547
119.528 35.6451 137.051
68.526 91.985 192.36
6.1681 139.19 160.322
136.426 2.67218 117.394
102.553 52.713 156.33
85.6426 42.0243 98.8106
141.93 141.094 144.731
88.6933 188.18 191.677
42.3669 96.1673 188.472
167.777 193.832 161.66
60.0627 98.6858 202.009
80.255 116.356 105.102
105.885 43.5392 127.745
140.204 184.995 157.728
147.508 133.45 137.965
28.2249 98.3969 136.496
166.803 173.571 174.898
10.2946 16.1147 262.793
27.089 123.862 200.035
74.5924 32.0574 255.923
113.804 106.738 136.221
99.3409 39.8991 105.131
81.3505 198.87 170.661
36.424 58.9493 146.969
92.645 48.9032 194.075
28.4027 110.682 192.043
88.6326 170.216 210.667
114.807 26.6063 110.085
83.1912 49.6087 203.895
72.6159 66.9001 166.089
68.7035 18.3907 80.6296
135.797 149.026 157.085
54.8092 100.599 113.881
121.29 156.444 151.21
101.194 7.32393 85.4048
76.5002 8.24569 77.9159
110.598 47.946 160.376
60.4336 200.319 153.03
165.543 198.129 143.223
23.1451 32.829 178.414
146.909 143.701 155.907
98.1012 186.282 171.057
67.5258 190.075 201.871
92.4064 115.843 109.922
152.612 188.906 168.157
143.08 193.801 152.265
95.6651 127.072 107.343
156.744 199.73 146.406
31.7436 95.0431 174.698
47.4693 13.7038 219.497
155.121 196.332 120.462
127.327 163.188 151.104
123.679 174.265 137.585
96.7618 57.6647 151.362
78.9212 57.7273 188.135
32.8161 37.0476 194.54
135.383 4.52188 176.965
22.0665 50.6225 150.976
133.146 2.95012 186.415
132.558 185.19 117.891
68.9248 83.3055 179.113
73.4524 58.5164 118.891
45.6236 199.345 168.881
118.987 149.94 139.441
119.156 138.936 178.441
109.395 99.4907 155.946
70.5876 43.9541 98.2866
153.79 131.787 128.143
78.289 183.356 126.682
96.5377 44.1862 202.057
94.0588 46.7992 112.628
95.0969 113.506 196.996
112.65 105.056 157.694
14.1815 15.7102 244.261
119.961 127.398 161.368
108.933 108.506 125.911
90.5444 24.7636 244.688
69.3384 201.12 165.42
79.8968 178.873 208.052
100.488 174.137 134.691
136.877 194.225 137.601
95.494 14.6983 86.5478
91.7696 37.8874 99.9851
97.7012 84.1373 152.843
31.4726 49.5094 176.057
8.89341 1.2647 251.509
131.632 148.061 152.149
129.685 156.801 150.136
103.585 179.368 143.406
78.7508 196.718 150.962
87.3301 14.7096 258.681
88.9392 62.1861 158.019
72.3344 100.219 110.887
71.7395 197.141 184.472
31.9927 9.48857 215.655
83.9151 168.797 116.661
98.4176 89.1786 137.381
125.866 159.331 146.571
54.1844 31.906 274.089
103.49 41.4705 116.485
98.6137 30.104 96.8808
27.9488 27.4324 241.163
75.5958 58.003 129.393
81.0995 162.805 217.728
105.947 44.8422 134.294
141.524 142.897 118.354
66.6443 59.0852 119.097
91.6875 8.63735 84.6653
64.3357 7.88099 76.9685
86.0855 83.6456 145.513
136.451 1.55757 148.619
110.332 101.969 148.846
127.099 10.4463 185.019
133.326 187.784 148.782
79.1848 66.8684 155.616
53.0253 82.2852 144.966
55.1135 200.442 177.127
96.9818 186.015 139.063
18.2432 137.992 193.639
13.1037 148.41 183.752
74.805 81.4332 157.105
82.9901 24.428 84.7905
12.6742 27.935 161.6
107.985 93.264 145.152
36.5575 41.9398 192.954
86.8307 60.2092 140.116
84.5213 153.716 108.879
16.5303 11.0851 274.741
83.7977 81.9123 161.093
74.5336 191.991 136.073
85.563 13.3997 79.8071
107.015 1.6255 89.6662
86.915 61.6554 117.199
98.2896 55.9265 137.082
69.6318 169.138 116.279
165.148 152.078 167.43
118.866 122.939 157.039
62.1065 60.1036 121.364
78.368 185.365 204.235
127.722 1.15681 127.355
118.381 140.175 168.128
106.591 27.2998 210.305
130.033 2.57988 190.931
83.7672 13.0427 265.402
19.9294 1.12934 97.1206
100.312 51.3309 121.87
68.8463 24.4378 224.837
157.881 172.558 176.408
100.985 92.547 149.65
134.653 143.052 121.807
24.5994 28.3138 244.252
68.5404 86.2469 184.205
129.148 152.45 146.331
129.802 183.645 132.875
92.9626 28.316 97.3747
120.323 140.518 173.106
