ply
format ascii 1.0
comment Created by Open3D
element vertex 696
property double x
property double y
property double z
end_header
22.4545 136.78 85.8844
22.5514 137.481 79.2775
22.6919 177.723 144.559
18.6805 66.5788 163.191
17.54 62.0724 76.9697
67.298 203.342 228.667
44.5097 110.175 62.9296
17.4665 126.074 163.343
23.2115 175.627 93.6671
17.4147 130.689 130.21
25.4485 104.415 196.279
50.7371 97.4596 76.4045
25.036 53.0958 212.04
15.6059 102.202 179.242
16.6629 173.249 185.714
20.2411 118.368 157.247
39.4474 154.221 76.4956
16.1767 66.3984 110.791
18.7929 185.262 140.696
17.2772 109.668 81.4532
43.1126 174.857 246.757
33.8517 171.25 29.1866
30.7493 179.16 157.793
46.9765 103.279 69.0267
58.3775 172.154 138.339
55.2224 110.527 159.207
28.5646 139.522 68.4455
20.1663 58.6075 155.176
51.248 146.379 89.8656
44.248 192.063 130.849
31.0826 140.796 48.7851
49.4206 103.871 59.742
27.5769 162.336 63.0472
127.129 76.8578 254.432
52.4823 52.5161 107.504
16.2593 89.4865 139.664
33.4069 172.339 158.369
25.0564 51.2705 218.981
48.9256 177.594 255.064
17.4512 133.328 122.781
49.9342 124.131 187.164
24.2898 117.959 52.5731
22.3719 130.159 202.79
24.6927 167.148 158.422
42.4816 169.342 122.94
31.301 51.4419 136.363
42.6957 172.177 158.569
16.5439 147.683 159.597
45.8681 154.538 181.929
69.8446 87.4986 88.6217
40.9288 130.131 60.2917
37.6959 111.064 68.6177
55.8669 142.074 92.7687
64.2262 142.993 164.496
39.8645 161.471 153.47
18.5582 103.484 123.772
28.5773 113.683 54.4482
16.5427 121.855 168.378
46.3029 146.881 71.8506
23.1643 152.752 199.384
23.268 161.543 172.439
55.4455 58.9118 131.977
25.8698 176.547 168.554
143.784 212.915 108.483
18.989 182.281 129.562
28.0528 121.582 197.583
16.285 123.523 182.618
22.2714 41.7498 225.296
85.5546 110.175 12.6714
17.6056 57.0155 118.448
64.1832 73.7202 83.0582
64.3756 156.353 224.077
33.901 64.6932 193.552
32.9909 148.93 60.7678
44.3979 139.7 85.5354
66.4396 145.133 127.361
17.039 80.8811 61.5992
28.7268 89.32 179.59
35.6885 179.821 18.4196
35.0203 110.554 60.5173
51.9159 166.014 20.9315
26.014 180.621 129.751
48.7312 134.317 188.296
37.5044 49.557 133.963
25.5624 130.751 49.4977
55.1708 103.287 68.6346
36.8687 175.565 99.3915
25.0949 69.8706 176.31
18.1928 69.8078 78.9417
79.7803 65.2908 265.35
19.5482 4.17245 216.579
22.2551 112.05 126.859
34.5918 170.161 168.549
29.7236 163.219 181.752
37.3448 106.498 195.824
19.3412 88.2213 106.599
52.3938 122.577 69.4744
67.241 83.8878 213.289
33.5773 101.916 109.304
48.6555 154.131 19.6396
21.9699 114.947 196.389
49.1942 167.544 121.458
63.0653 86.8373 121.333
45.9862 93.7236 63.768
122.83 14.083 194.147
24.6771 181.42 111.815
42.8937 69.0938 172.895
27.598 116.692 79.3797
54.9565 145.984 163.713
60.2245 58.7045 92.6167
33.4423 121.319 182.336
25.477 122.326 151.345
45.5224 119.253 146.776
39.9882 137.1 69.4774
18.9023 119.259 190.108
144.346 14.4651 177.774
19.091 95.8206 118.452
43.1758 116.439 183.497
29.4956 123.811 168.875
39.7133 109.26 50.8447
41.6332 155.194 158.585
27.1885 176.082 101.613
25.2117 175.257 109.077
45.6958 127.512 73.2974
48.0251 59.3466 146.437
46.5113 112.24 78.5796
49.5803 151.971 171.023
51.1478 161.732 128.204
43.9796 146.82 160.765
30.1078 105.271 53.1455
17.0875 115.035 146.383
28.4646 153.481 67.1474
23.4144 143.567 71.6908
41.9961 165.926 147.524
42.7549 132.016 170.12
49.2825 118.429 83.785
27.248 120.049 28.9223
22.0601 140.33 102.93
17.9859 190.125 160.192
26.5306 103.504 23.9212
44.5378 148.193 80.4915
53.5412 138.202 160.344
21.312 113.191 60.9853
141.456 193.561 69.4386
26.3558 122.14 60.7652
58.0763 113.512 79.8294
16.7041 89.8189 83.9744
17.0404 104.084 140.026
80.1644 118.666 86.6744
28.9067 105.299 110.959
27.2016 173.133 83.1913
17.8189 65.6569 156.45
19.0836 120.035 67.9422
50.04 82.8508 105.2
18.1508 102.02 47.4653
23.0691 122.584 167.31
44.8345 138.596 242.757
30.0813 82.373 147.428
34.5253 129.373 177.181
21.0992 105.134 102.371
39.5001 125.638 163.117
21.7783 100.517 96.9254
16.4494 118.646 125.494
38.5798 145.077 67.1501
17.0624 107.981 54.1613
17.176 138.037 65.3702
54.4451 164.399 107.67
24.1384 177.847 158.492
16.6545 165.5 126.52
21.1492 146.475 203.159
44.52 170.005 101.134
49.6855 60.1703 124.028
18.5358 26.9033 230.235
18.1366 155.939 153.48
31.2235 123.946 161.875
48.9318 171.552 155.251
50.8988 143.076 183.216
43.556 137.195 77.6811
49.1741 167.989 108.643
42.1843 61.4492 126.963
34.2306 115.577 141.049
39.6194 73.2064 179.774
53.7551 76.4559 171.525
16.9789 106.243 72.0353
21.035 68.5443 70.6682
65.7407 93.3811 78.8753
17.4692 74.8139 113.534
17.1343 141.059 164.052
41.8304 147.622 174.992
44.4677 169.912 113.251
54.3943 87.3966 70.5283
94.4069 107.489 10.1638
55.2295 140.535 84.1445
50.0835 92.1602 68.6476
38.3611 106.746 109.602
22.4074 76.1474 169.574
33.7756 131.639 47.4661
61.7962 155.019 160.788
21.4225 179.593 80.6255
41.2043 113.83 170.684
34.5105 126.65 63.3179
25.0081 59.446 121.299
43.6937 103.036 184.901
42.5009 99.5512 56.2804
75.255 205.774 234.689
53.6396 71.2405 129.313
52.1477 159.274 99.4676
59.6515 59.5115 117.085
39.7957 152.162 187.427
52.7608 134.929 93.5953
56.6434 85.9083 173.509
22.4711 89.0404 117.465
52.551 71.8579 115.34
19.7536 188.134 96.7824
20.3361 94.0123 183.197
40.5989 185.51 154.36
20.4636 46.8419 112.845
37.7445 88.2368 51.8747
17.026 149.841 97.735
55.3179 143.979 174.505
16.5765 123.183 114.07
21.2938 128.847 147.342
40.3212 80.6539 61.6182
67.3443 85.7312 80.7475
15.6923 131.865 173.463
32.615 154.117 165.699
55.8432 122.037 79.9068
54.0506 176.078 145.283
55.9763 101.093 113.92
22.8228 125.644 176.357
60.0516 125.281 175.267
45.507 16.0653 200.971
32.2189 152.275 192.142
23.2227 102.715 51.5663
42.3662 22.9612 209.108
18.4573 48.2287 119.449
24.803 174.165 18.4598
51.4956 164.424 141.159
49.1151 75.2539 82.1293
31.6583 107.661 99.4928
39.6356 58.3838 89.6932
82.9936 113.864 83.6342
38.9451 136.385 194.757
47.9451 76.3391 109.711
29.4121 130.421 57.9113
17.1614 165.368 52.1679
18.1716 172.063 74.9991
39.1489 49.0291 106.132
18.5315 89.9763 127.983
50.875 155.783 167.318
52.8101 177.519 130.497
39.5501 61.3078 159.74
39.8717 121.204 71.623
61.2859 160.373 248.858
63.6507 126.772 92.7751
60.3127 96.7617 93.901
49.281 167.274 166.796
32.2138 143.268 193.206
16.7966 157.382 47.2911
30.6626 117.106 176.261
15.3991 150.126 124.094
24.0073 185.377 152.867
57.7845 95.3358 74.4373
28.602 68.7834 167.078
18.1533 117.846 49.6079
30.2295 174.876 115.322
37.7786 122.138 150.733
31.7736 162.925 74.3675
44.4203 114.223 58.4047
17.8577 127.724 69.6992
18.3897 67.7112 64.3302
29.2312 46.6262 110.776
46.6953 80.9845 69.9375
47.7321 55.9517 117.747
126.807 215.032 112.538
123.513 14.5255 183.608
50.347 155.943 119.717
22.8972 80.7473 124.538
38.6936 175.947 108.344
52.1256 156.443 87.2081
28.3154 120.198 187.733
24.344 84.8292 114.645
17.5961 149.22 105.499
36.415 117.279 59.0972
18.8456 56.461 82.1852
35.418 166.893 175.505
18.6424 164.741 142.76
16.3668 96.7108 60.9708
22.0703 164.852 192.373
28.4739 125.395 38.4945
22.1836 24.0011 202.027
63.7536 105.059 76.9433
17.8008 63.1755 151.117
22.2453 175.678 120.898
22.5406 137.66 52.7631
50.402 83.3061 113.542
19.8592 180.315 160.999
27.334 166.578 71.676
71.861 90.125 137.272
24.9639 118.093 139.403
19.1551 124.885 128.976
16.8838 89.4551 96.4905
55.2545 90.6912 114.207
29.0237 59.3576 160.943
63.641 76.4931 156.18
18.5084 126.623 55.2396
20.8975 172.063 83.1108
43.6092 122.963 157.764
33.204 90.7778 190.002
53.1977 129.493 179.869
48.8067 177.74 205.685
44.3546 101.534 113.088
58.6624 138.594 104.236
80.6734 203.708 228.592
41.9388 164.54 168.583
16.5771 110.906 118.785
18.3848 70.3863 138.91
43.4526 166.238 92.9596
16.7479 171.483 163.398
24.4648 92.5186 191.139
56.8753 93.1305 104.965
16.4827 159.904 160.039
17.3137 82.5993 46.9104
45.4652 87.2425 56.2507
17.2279 77.4596 120.526
109.651 223.879 116.503
54.3619 85.1662 77.6648
115.309 222.839 120.545
42.9413 108.608 118.289
25.2996 59.8749 82.744
17.9535 152.096 139.518
52.5751 110.538 185.253
55.0449 126.192 88.5882
18.1773 49.4701 104.344
52.6267 156.588 159.686
17.6572 89.478 52.5309
59.5632 131.34 93.5478
58.2132 154.49 147.641
101.586 8.85665 239.525
63.3221 64.4769 94.975
48.1992 52.2128 133.433
48.6378 104.653 76.4921
19.5691 119.152 134.969
52.5376 131.701 88.052
37.1005 138.492 180.286
43.1568 62.5473 99.6951
17.8123 67.4488 123.398
58.7566 67.0721 124.419
16.654 160.252 204.48
44.019 126.421 64.1828
25.3895 162.101 23.8784
67.0538 94.2785 122.22
58.5105 160.136 122.889
62.7722 159.267 151.229
70.7798 119.314 98.4766
70.6445 4.24668 188.835
52.4654 126.998 76.0048
17.0456 168.892 59.1481
56.8197 130.854 171.689
83.0796 68.3203 259.37
16.3331 117.122 199.539
42.1372 115.383 93.262
49.4967 70.8828 103.713
45.0707 106.963 169.488
46.9091 110.512 190.906
53.4798 153.959 97.4336
72.4183 81.224 97.496
55.5943 132.204 79.524
56.7432 99.5292 85.3651
17.1401 148.748 79.0427
19.2032 27.3152 214.802
67.2939 105.34 93.8983
62.9532 117.09 131.987
24.9189 122.548 181.331
47.3551 163.663 238.402
45.1949 136.711 164.537
26.1056 11.9454 215.819
60.0011 111.317 100.473
15.2184 112.073 164.375
16.5609 127.519 200.507
55.4652 160.838 239.167
138.541 31.671 186.772
131.522 13.727 175.755
37.8392 128.61 74.2258
39.865 71.5135 62.817
39.615 52.5031 139.943
54.3532 129.435 162.247
32.2691 59.5231 78.4535
26.5191 157.812 160.795
56.1148 146.883 137.439
37.0005 134.377 64.3212
15.8979 134.246 112.653
16.5918 176.173 96.2746
58.7322 133.849 86.6642
59.7634 166.044 132.632
23.386 167.611 186.038
61.7914 148.247 163.087
29.5884 52.1016 126.218
23.9091 143.65 114.179
62.4085 47.6804 165.559
43.6508 164.457 84.5562
22.2879 94.4726 109.491
17.9398 79.0519 176.714
48.8725 142.9 166.257
16.4638 66.2848 89.93
16.7697 179.709 169.157
54.4224 107.047 81.0779
62.2234 43.5066 167.021
48.0492 166.265 30.3163
15.8812 106.379 106.065
43.9172 167.133 163.903
15.8053 82.361 109.425
32.8387 134.799 60.9446
50.1784 143.037 110.485
25.8676 48.9916 115.868
15.8392 65.8682 102.036
35.9209 193.013 156.558
29.0608 110.432 80.9878
48.4358 66.9384 117.346
61.4271 147.425 156.109
16.5132 151.599 207.981
68.9118 142.745 156.355
69.9805 137.525 132.61
69.102 169.718 243.502
54.931 185.503 249.68
17.7573 12.8457 221.487
62.4565 97.6957 82.0629
149.756 16.9204 193.094
66.0023 148.929 105.785
92.7075 113.963 12.7159
69.4116 138.706 150.51
59.2191 165.446 116.978
49.9461 140.101 100.083
21.9987 86.9091 51.3765
15.9224 78.1851 99.364
38.1766 117.931 53.6349
71.4159 90.5211 103.609
15.5625 143.434 175.576
19.3746 50.184 134.366
35.323 112.333 91.8461
18.675 88.0438 187.734
15.9443 165.977 190.752
29.5439 112.63 68.4072
73.5674 133.136 122.897
41.2164 124.359 192.033
58.7227 115.637 93.867
22.7043 145.492 129.566
60.7078 70.3641 132.411
27.8608 76.3435 121.696
25.1366 224.572 263.675
71.7559 94.7903 94.2024
54.5609 166.968 117.824
15.7133 124.342 102.426
30.7878 52.4787 114.204
31.8931 121.31 48.2891
37.8518 147.368 169.976
18.3687 55.9513 149.816
36.039 147.827 181.946
35.0692 57.3306 85.2827
46.256 162.155 246.274
35.4757 43.5355 109.004
69.0745 96.3982 86.834
24.7262 157.603 53.2898
20.0177 109.156 113.724
26.9258 95.8278 47.0576
124.851 24.6842 194.089
56.8013 145.473 124.421
58.9122 114.916 116.239
112.291 230.036 120.667
59.4967 134.421 166.737
47.8872 86.1167 181.686
17.6045 144.34 138.747
148.847 219.735 111.602
39.1102 68.4773 124.071
16.1576 94.8611 77.7704
20.0455 145.287 122.145
69.4661 90.6785 188.559
32.7892 118.623 55.76
16.8585 159.697 171.783
55.089 90.973 179.193
19.812 60.9061 135.826
16.2467 100.342 94.8265
96.9411 115.985 7.38954
44.0759 69.9801 70.9297
17.1542 151.875 130.475
57.2669 64.6857 106.741
17.2053 172.795 152.762
145.111 16.0611 201.316
67.8909 210.756 189.443
134.953 230.98 114.276
46.536 83.0818 62.1235
60.5999 142.574 129.287
47.3694 174.367 12.8785
64.9888 168.759 256.966
60.4326 162.362 159.837
156.304 192.181 56.0259
16.3339 112.594 111.628
17.0687 140.216 87.0917
36.7833 50.2939 84.1641
34.303 130.229 194.263
69.2412 127.941 224.848
35.6656 117.358 194.281
41.4344 61.4992 79.8338
63.2801 75.2491 113.94
23.47 131.217 67.4027
55.8797 121.344 93.3404
63.823 99.6594 100.051
31.9957 113.019 48.9406
36.2548 157.874 176.248
59.1442 149.065 99.2312
70.0365 76.2827 88.9751
37.0197 162.571 167.28
21.1797 197.749 87.7957
131.093 3.37709 195.089
18.597 137.317 139.154
64.3909 128.182 168.129
17.5038 140.423 149.038
16.1303 132.923 145.501
24.8302 163.32 9.82103
64.9148 113.795 110.096
62.7981 119.556 104.486
34.3195 155.922 29.2086
46.4228 57.4706 86.2042
60.8727 104.844 104.507
55.1784 55.2037 88.7397
33.2525 48.9762 109.473
42.5196 152.792 166.836
52.8856 75.2974 67.5439
47.0721 179.208 237.214
18.901 176.068 113.705
125.41 23.9639 184.161
65.6957 68.6642 101.649
50.9425 64.8407 74.4818
24.8589 101.444 109.908
70.5973 119.388 149.34
15.8564 166.946 109.212
92.7986 53.3928 204.457
64.4252 184.237 246.709
120.937 132.738 52.386
61.8517 119.667 85.6889
59.2066 152.17 138.539
144.284 22.5696 199.876
48.6237 63.7858 95.8032
60.0243 208.443 195.355
60.6466 133.17 104.865
44.1356 45.9686 117.039
55.689 62.6994 79.5078
39.9769 47.0454 125.445
23.5411 73.4295 56.9707
131.172 4.74354 182.388
51.9701 66.9926 161.348
55.9222 60.9522 144.966
35.7532 48.2707 92.8565
36.608 78.1084 55.611
39.6316 53.1351 97.6512
60.0784 94.9473 162.976
66.3953 113.531 89.8472
63.3955 138.47 168.915
39.5813 64.0541 72.8412
23.5727 200.957 71.4971
70.1904 127.785 119.071
71.0591 127.144 108.362
47.9065 53.9494 95.6509
18.8554 58.2999 127.705
59.4047 77.1171 77.2072
62.4275 49.8602 161.116
57.8563 152.587 124.836
17.8378 139.321 111.583
61.4366 90.1094 74.5003
38.0633 166.981 81.0507
75.7081 200.791 229.874
29.5239 118.93 67.1822
18.7726 142.909 70.3135
29.5197 68.6373 66.6674
138.905 7.24604 203.579
45.8839 152.467 137.042
61.6327 138.554 97.7949
75.2026 133.939 142.285
16.9501 145.274 102.106
42.9582 126.658 178.589
35.7455 55.4853 121.301
71.5827 139.597 108.539
23.8343 174.475 66.966
72.4225 86.9438 115.623
54.1321 60.3962 100.955
38.3875 107.841 101.785
64.4931 141.454 112.361
53.4232 108.487 114.355
45.6836 112.208 230.172
25.7499 197.226 85.5987
127.789 28.2235 195.463
64.0354 161.407 121.749
25.5397 57.2646 77.3169
16.0526 96.0127 219.914
48.2508 134.538 78.3039
22.6774 97.0289 26.5148
47.868 134.271 175.791
48.2389 71.9017 63.4709
69.9252 97.2042 130.579
29.0907 48.7277 98.1853
31.4928 70.2394 59.2545
64.6532 95.611 106.855
71.8159 77.3157 113.13
128.43 19.5063 241.316
47.7039 110.935 101.081
34.6382 93.3592 159.288
65.4117 128.482 147.101
57.2224 155.001 101.912
59.5777 65.4193 83.1542
65.5407 151.371 116.897
48.4461 184.918 244.388
74.1947 128.713 143.911
46.9644 204.934 192.807
53.6568 55.9367 116.691
18.3545 156.385 68.8075
15.7861 1.59431 192.836
53.5234 78.3504 74.0819
35.9446 112.272 130.905
140.197 213.885 121.288
49.8665 145.506 116.289
35.6898 196.983 130.138
43.4834 160.21 138.683
47.0406 50.2093 113.18
40.2563 100.516 158.613
35.5835 76.1853 223.013
91.3106 100.656 185.152
36.9991 49.0706 98.4807
67.6877 113.213 120.802
46.306 50.8975 126.402
33.7663 65.2374 70.9228
46.9877 39.7118 142.815
60.9156 70.1195 148.124
52.4852 161.396 10.7757
134.422 25.8938 202.439
74.8692 130.162 132.883
48.9922 62.7359 87.8058
19.5369 169.359 155.491
60.3185 125.197 151.451
33.4893 229.887 273.5
13.7293 66.0947 175.896
67.875 134.707 164.99
68.4479 123.696 100.713
41.0241 88.4202 134.135
68.4819 94.1111 115.77
37.0086 152.353 4.77857
42.5694 86.0005 140.545
28.2269 98.4783 26.5776
65.9455 105.579 112.156
57.4646 155.145 166.65
38.2516 63.3609 68.9544
38.4354 131.58 113.018
19.9743 222.33 269.886
54.6459 161.63 252.005
72.3074 83.8516 134.304
43.1859 93.8864 141.925
23.1824 54.4883 128.518
69.1017 82.4394 143.311
42.9987 87.0588 186.06
58.3479 108.479 135.851
70.7606 108.845 122.545
72.0619 132.716 112.692
108.145 207.566 37.704
135.437 192.51 79.9424
24.5352 45.5543 101.196
80.8845 44.1429 191.561
76.9911 137.62 127.158
64.3447 142.047 144.769
121.604 228.39 100.787
73.9982 91.4163 148.277
26.9392 61.084 69.3012
61.4631 127.926 104.424
24.3712 51.6907 134.188
89.6555 59.3712 197.265
31.526 231.306 265.886
86.5078 6.81104 244.935
19.2031 230.546 268.752
25.0113 164.869 129.462
73.2544 143.514 115.479
19.5741 194.301 72.2986
72.3875 125.951 131.949
48.2274 146.822 133.704
69.8479 123.945 114.502
71.3692 108.132 106.028
69.7792 156.048 133.476
29.2855 190.59 153.996
63.1311 95.4696 114.875
13.6672 65.0153 143.49
25.022 208.779 176.01
66.4231 76.4972 132.415
117.77 219.99 116.922
73.6376 78.5597 122.524
45.455 147.14 113.522
62.6022 81.4252 164.239
50.7469 132.954 180.931
55.8948 104.66 72.9204
66.003 86.8 163.092
