ply
format ascii 1.0
comment Created by Open3D
element vertex 517
property double x
property double y
property double z
end_header
21.1923 109.111 125.81
37.7446 194.457 245.559
70.9861 57.2051 113.054
16.4332 63.7172 2.99277
40.9576 228.95 250.812
43.5533 47.7457 33.0019
37.9321 207.047 222.717
42.7498 61.1078 34.1422
11.5324 109.917 100.159
46.7679 74.7358 113.752
25.9636 82.8202 30.7642
37.4965 49.3527 25.7633
53.5442 177.729 189.21
26.0309 92.689 122.012
51.6198 137.98 133.731
14.8989 145.159 113.301
24.3734 74.08 34.4635
36.3765 137.946 137.675
8.377 135.186 89.9932
29.1953 145.453 129.26
54.2659 90.2379 61.9628
38.5289 86.9091 91.7722
23.067 134.187 121.981
39.6969 88.4513 100.568
48.7658 107.803 98.5183
60.4731 63.2373 103.196
32.4863 220.701 185.765
52.9626 106.15 56.9028
27.5447 160.749 106.734
22.1814 143.187 119.431
63.537 83.2537 76.5892
65.3211 195.666 260.238
66.3499 92.8944 62.2687
19.877 222.007 251.191
28.8028 147.812 74.3006
38.4725 127.954 77.5356
82.6835 63.2169 119.021
40.7763 149.178 106.111
45.096 140.583 138.058
50.2794 68.4042 101.044
27.8687 198.022 235.989
20.1775 188.248 157.352
66.5593 77.6142 135.737
10.8418 140.949 82.0845
42.5471 55.8148 42.7775
45.0288 202.233 214.515
49.6562 153.738 103.439
46.9353 43.957 14.9451
42.466 79.5404 77.1611
16.9966 230.324 248.246
24.6241 122.621 98.1868
66.2606 133.901 56.9945
35.9741 110.348 55.753
17.836 64.3631 22.7126
60.9963 51.997 28.7263
57.3576 98.3438 57.1959
11.8035 79.1384 7.60663
31.013 121.23 129.853
71.1515 173.173 217.27
15.1375 114.734 109.856
41.179 114.661 67.7493
29.6818 138.693 126.454
28.2873 66.9219 37.4145
30.9062 172.509 210.702
35.8697 193.992 202.456
47.9152 70.0493 92.0443
32.2321 182.655 219.352
54.2014 68.1069 124.621
23.7104 81.5706 3.86159
13.2479 72.6219 12.4651
41.1547 151.295 86.311
31.0649 160.039 120.053
39.9274 112.183 90.3663
15.7207 107.426 90.4075
32.4744 91.5038 128.338
84.9567 75.0073 132.468
22.6422 120.188 109.542
21.5854 119.683 120.615
45.4509 85.0766 131.689
27.1943 130.074 103.906
58.8106 119.27 98.2077
35.1396 194.643 176.412
59.1483 121.227 61.9876
63.9403 186.882 255.112
30.2245 111.214 123.35
41.7837 109.182 123.895
49.3623 2.57463 53.8328
51.902 101.378 104.301
56.5027 72.8017 143.862
42.872 101.233 144.806
55.5731 150.787 127.886
21.3813 229.751 228.415
82.4026 66.138 134.258
131.605 6.56012 211.816
22.5092 107.493 73.7298
41.0617 96.3344 122.135
72.5207 175.778 209.852
63.2383 172.051 203.704
57.5296 135.724 52.6237
14.0709 224.136 224.967
52.5862 207.647 162.92
27.1975 89.7413 84.6934
73.7675 69.6329 91.6943
43.402 211.964 178.258
49.8785 123.276 129.381
50.7477 160.086 119.35
39.2783 208.418 197.413
77.3503 112.65 49.8268
29.3952 113.632 174.142
83.7339 75.2971 140.239
61.0832 64.1377 10.4235
31.8614 104.857 155.664
51.9632 220.088 177.979
12.1216 151.389 89.0326
57.2478 169.618 195.915
69.1086 6.69507 65.1901
89.0179 74.1416 83.8737
29.6336 146.484 113.394
55.1682 179.308 176.426
12.9311 223.759 244.379
69.4375 94.3151 52.9472
33.2867 195.818 229.818
11.6343 132.4 81.1177
21.8376 54.2833 13.1402
70.1638 61.4882 119.075
74.6782 59.6704 126.702
47.9823 92.0452 112.532
36.6462 207.804 213.402
35.7366 123.297 109.89
61.07 75.1498 149.052
28.1241 226.29 190.509
42.0097 126.765 56.268
58.802 111.308 51.7267
54.1802 153.877 123.439
83.9496 70.4059 122.827
76.0789 94.385 57.4405
132.426 23.1861 206.537
40.0515 90.3887 110.206
13.279 211.195 221.685
45.8203 201.671 247.638
42.5027 124.784 88.2138
50.8585 117.805 62.5239
15.8549 68.1007 16.4472
68.7818 65.2625 134.115
45.4066 57.6701 28.8378
45.2622 98.8396 105.23
42.6878 154.598 117.618
35.9518 92.3726 85.9684
22.3283 207.194 241.88
45.3828 203.574 165.859
51.8569 66.0957 43.3863
77.4301 172.211 241.713
74.2335 68.6112 137.386
41.5631 156.8 126.974
58.6156 191.37 216.84
26.7126 135.484 111.177
69.0601 174.023 246.992
19.1116 138.376 76.3682
47.6508 189.9 232.691
57.2365 159.463 77.5203
26.7652 100.977 78.4704
21.835 150.969 94.8795
52.8854 170.581 227.312
72.7897 75.6051 142.074
36.8547 85.4881 34.1209
26.7729 148.767 88.1073
37.8478 223.009 213.643
21.7331 115.496 69.4549
38.6773 155.414 101.218
59.8926 68.819 47.0021
45.5995 104.969 163.806
57.8278 170.987 239.647
22.081 117.856 90.0518
39.5918 219.602 202.191
30.0791 97.7105 71.3482
72.1538 79.2073 86.0659
70.7127 94.6329 146.728
76.3887 89.7836 144.458
44.1493 122.784 71.5352
70.2456 4.78962 74.5386
35.0151 134.616 97.8237
40.3338 164.881 98.0802
62.5301 78.2367 125.255
44.0904 208.547 229.241
34.9272 151.244 128.728
87.4145 86.3478 142.117
50.3219 222.642 254.564
36.3735 200.733 193.183
66.2022 80.2377 145.146
41.5678 118.122 174.909
33.3021 108.906 71.8108
45.7674 69.4624 106.5
46.2286 197.312 252.719
18.1127 212.572 235.629
14.5892 222.159 236.411
30.7008 230.109 260.873
85.4577 176.654 241.808
65.4541 59.4782 109.469
56.8208 73.9861 103.418
57.3976 227.71 252.133
62.4633 61.7708 138.667
15.6436 121.339 104.646
39.161 192.54 223.113
66.1468 207.642 255.123
51.9265 227.591 200.762
43.2473 158.409 75.2817
37.8485 230.608 189.113
42.7071 226.499 258.085
45.6376 87.0883 31.042
15.4919 152.918 104.364
31.9308 132.825 121.939
16.6222 202.617 210.673
55.7174 217.634 166.252
27.0124 193.77 188.203
49.7945 186.889 253.071
19.3703 99.4695 85.9618
23.6385 230.665 193.996
22.6784 191.189 202.411
58.8412 77.6721 138.128
41.0151 118.569 97.4794
55.823 89.3088 154.953
91.706 73.3475 127.513
26.5756 149.581 101.657
45.7503 80.5365 144.111
53.2467 156.925 67.2111
52.0818 115.885 53.3893
74.2281 170.762 226.48
26.6678 198.14 193.578
36.3168 142.424 89.4361
60.1626 73.8546 9.03891
31.202 105.508 62.2706
45.7271 195.389 210.989
65.6791 147.59 61.1997
79.1423 81.8584 62.2328
38.594 134.315 82.6961
65.3448 96.6397 130.018
42.5613 173.368 189.524
59.3243 100.221 83.0157
63.0284 217.921 253.416
45.2712 107.85 59.9892
134.291 19.1459 201.967
11.3399 107.051 108.464
93.2668 71.323 107.126
68.2084 86.3003 151.601
55.1232 91.2338 128.452
47.671 177.151 242.858
49.8542 146.469 134.926
136.967 73.9176 216.417
31.5774 126.701 64.5914
55.0613 70.9043 90.0215
137.93 2.52496 201.317
12.8397 223.884 207.132
26.6441 126.451 85.445
30.346 219.297 220.074
46.5374 209.783 257.602
63.9918 122.828 51.9408
61.6799 183.852 176.064
53.066 81.8522 79.1789
29.218 51.6796 30.9752
64.4038 97.453 106.934
136.822 10.6077 222.702
33.6734 78.5747 106.641
60.4719 147.554 134.777
35.8622 210.348 180.25
60.2872 86.8177 28.6935
79.3847 64.3242 99.3979
22.2272 217.08 190.409
121.232 176.514 192.457
51.5427 64.068 116.771
63.5617 170.9 225.952
43.6707 85.2565 81.4495
33.6143 202.464 245.44
49.849 95.8722 60.4857
53.5526 197.856 161.962
36.4944 145.495 80.9844
13.2639 153.912 96.5425
30.1218 143.205 108.436
31.5505 130.081 80.1857
28.7304 84.0614 101.833
66.3585 83.044 90.5939
31.5875 138.337 67.9868
9.82951 127.2 94.5186
71.2216 121.795 57.5389
35.2987 120.525 139.554
69.5815 148.944 32.2212
39.5033 75.9468 117.067
134.83 180.232 197.335
62.6789 186.571 204.757
12.4733 230.515 226.363
35.2887 165.208 114.437
24.7186 56.7442 26.0809
52.2514 132.42 142.847
56.4859 87.0823 16.5435
41.7889 68.8226 41.2463
72.8235 207.27 247.52
57.8258 60.1278 120.029
21.8272 192.677 221.027
34.1821 62.824 37.0242
71.2429 125.149 68.3991
31.7783 43.523 16.2359
33.7226 119.057 89.215
66.7128 210.486 173.04
48.8756 110.506 72.4473
62.2392 99.0602 68.9092
12.7858 115.904 92.6881
67.7614 160.049 95.9486
58.5921 89.6406 87.2188
40.0336 78.0555 100.36
15.5817 96.5142 102.535
49.0806 135.798 56.9619
43.7442 186.211 169.141
42.2302 138.714 62.335
34.0594 128.962 115.769
56.2869 62.7362 132.176
47.7224 200.396 233.697
134.018 75.0932 208.885
29.7482 218.815 254.549
54.9638 82.1589 125.496
47.7043 168.662 103.441
56.5396 83.2627 7.27941
26.6919 220.283 248.795
33.8183 47.567 2.48393
33.8387 102.634 168.207
72.3658 73.6709 101.097
65.8468 58.5226 126.01
58.9536 103.128 102.7
72.4885 85.9161 137.767
66.1727 113.722 92.5634
35.8234 81.6449 122.837
57.038 112.902 75.6119
31.4168 95.1873 82.3048
67.8698 67.2661 112.302
37.7695 140.297 70.7232
50.1414 79.6615 72.273
39.7834 151.906 67.2831
49.2635 87.3613 3.64757
38.645 201.635 168.433
54.255 112.216 141.36
19.5609 123.909 70.6962
55.207 125.985 52.5582
8.36666 146.813 100.316
54.5416 58.8822 33.9913
65.8688 191.794 167.25
86.4137 93.7306 57.6144
46.4141 125.221 62.0302
43.8398 117.053 80.1113
51.0651 81.588 149.671
56.9531 93.94 114.49
53.4762 178.483 215.975
123.822 195.065 183.097
55.7327 52.3915 16.0156
23.4095 151.285 108.936
31.1137 130.822 132.947
78.4824 183.349 252.137
28.1275 210.11 202.128
44.9186 141.13 91.6094
21.1991 111.887 84.362
60.1649 75.6248 28.4621
46.755 144.494 101.56
55.7554 77.1663 83.5835
24.0486 85.2882 113.303
47.0056 93.2427 127.767
34.6197 100.037 128.237
45.851 170.288 215.178
40.8727 109.066 136.257
11.307 230.847 214.592
27.9693 104.887 84.5967
86.0415 67.8233 101.472
63.5373 80.5296 152.139
37.8829 178.692 184.884
137.033 182.512 164.466
54.1845 203.061 250.586
44.2762 189.073 186.817
25.7624 179.206 203.354
56.8548 142.929 56.9885
38.2166 76.1463 89.7495
69.1237 189.004 215.609
57.2797 163.63 113.674
32.1131 188.641 183.077
35.7103 99.3097 158.215
17.5321 124.087 83.5292
60.4594 227.028 185.227
16.2391 228.735 201.414
78.8281 88.2406 57.0982
19.8195 223.123 218.726
59.0003 165.666 101.732
43.8867 97.7048 140.02
75.3972 148.449 69.6631
36.8507 150.134 75.878
78.7703 83.9736 90.412
53.0753 149.29 88.6408
28.001 130.873 68.9785
67.4234 176.712 197.284
38.4548 141.411 115.687
42.4748 185.17 233.812
46.9365 117.299 117.682
38.1676 130.25 66.0722
46.6505 65.7566 129.416
48.0077 179.606 224.212
16.6275 79.5781 15.4554
62.5312 142.307 91.8499
24.1218 63.9069 8.53511
81.5042 75.8482 72.1634
45.432 86.1558 65.5241
27.898 90.2043 8.17227
62.989 119.155 110.079
82.8509 104.134 54.3778
54.3515 215.332 212.652
64.9632 107.445 79.8863
70.1192 1.84336 58.7472
74.2741 77.7114 76.2634
66.5729 93.8524 113.322
83.5176 76.1224 90.8016
68.3063 86.9186 112.606
47.3118 127.128 110.801
61.151 85.8817 36.9552
79.9841 123.637 59.4966
50.7401 225.663 222.313
29.1602 138.996 94.1819
60.9744 76.6539 87.6156
82.2962 75.2066 82.6885
39.1484 184.674 242.902
127.717 173.428 198.598
47.8959 196.317 190.233
72.0587 77.1847 93.5393
38.2154 178.163 219.65
53.318 161.936 85.9131
55.9612 202.009 231.778
41.7299 96.6076 86.0859
94.2805 80.3418 68.4494
61.5468 154.027 87.9085
18.8723 85.0029 11.711
44.9545 81.2177 123.467
16.8638 4.27888 159.591
74.6843 66.6017 100.571
80.991 204.593 243.456
51.6876 203.42 240.586
15.9973 214.214 203.717
53.4294 101.555 128.826
81.2973 70.8857 101.976
50.0874 118.438 110.223
46.3956 203.833 188.238
76.2504 146.424 20.7517
69.0434 88.1959 96.5982
47.8427 83.0762 89.9331
41.4847 91.333 6.88541
64.641 74.7436 102.863
56.1497 187.946 198.408
18.3015 195.587 218.376
97.7135 79.0094 117.716
57.0914 107.653 147.046
85.2457 114.389 55.695
68.87 79.7113 113.475
54.2727 142.285 96.358
72.7981 84.0056 144.312
69.2098 101.648 48.1714
62.4927 73.9526 94.8451
86.5928 64.6554 111.834
67.9654 81.5397 68.718
69.7303 142.051 140.404
56.1224 90.9364 72.1905
30.7139 153.457 87.5619
87.0828 190.978 241.88
25.202 122.308 69.3558
138.256 165.398 205.437
108.252 95.3903 60.3294
47.1887 133.051 93.4738
19.3416 132.228 71.5055
72.0625 152.816 125.858
67.8787 156.814 84.1715
33.6702 88.7389 115.934
29.9506 146.89 95.4151
54.6273 120.34 154.62
42.6522 119.385 146.05
19.0887 86.5801 19.2642
139.201 11.6596 198.402
39.3002 146.637 111.985
49.8598 124.772 158.736
59.7518 224.876 190.967
65.9653 98.3989 85.0623
53.1799 151.414 107.169
57.0933 221.569 217.98
90.6881 182.092 234.984
91.4403 80.6315 83.6352
32.8449 210.042 204.742
25.247 59.0978 34.4091
70.05 212.596 184.017
56.0643 74.1636 115.084
137.975 216.064 184.747
38.0787 87.0007 118.253
139.085 210.735 171.515
88.5369 84.6511 62.1667
74.5982 78.347 127.136
39.9059 74.518 133.724
58.8906 195.16 205.273
73.8466 105.347 143.853
52.6706 117.822 87.9016
48.6948 215.549 229.655
61.4096 231.789 193.706
103.091 85.7107 67.4394
44.3415 49.1794 9.53285
57.6666 132.317 129.692
65.9493 105.459 144.37
58.3327 216.632 181.713
76.3659 197.642 172.694
62.2326 66.2047 29.173
64.7113 1.20752 45.7668
38.8278 80.2442 38.4196
44.9288 89.4632 22.2426
63.3631 112.309 126.529
28.3092 117.406 150.346
64.7085 155.772 104.278
87.7572 82.7486 130.936
43.6867 123.95 142.949
20.448 205.602 201.135
48.8767 135.796 121.44
72.5991 101.489 113.495
