ply
format ascii 1.0
comment Created by Open3D
element vertex 227
property double x
property double y
property double z
end_header
11.5204 102.096 109.957
37.5346 91.0964 109.86
12.2405 72.5753 136.788
29.4831 108.992 108.115
11.8418 105.537 137.076
8.23469 120.315 98.9325
20.3913 94.5909 187.805
16.1789 64.7074 103.341
12.1923 123.311 168.934
9.43722 130.2 172.259
14.2832 74.134 102.378
8.40863 76.9636 96.0746
10.452 135.264 155.531
8.29208 136.951 109.406
11.3851 110.674 115.307
10.5198 82.8992 56.8875
18.8702 120.563 130.942
25.9205 106.028 93.82
11.3238 122.794 62.6066
8.71796 119.059 132.499
14.5004 96.5832 93.5962
8.39589 114.295 165.227
16.5904 114.309 64.6182
10.1419 121.036 89.2676
17.3664 94.7486 59.7848
10.8625 113.216 51.5849
10.7463 130.623 147.349
11.0325 165.566 22.7721
10.0518 111.519 188.728
11.0531 116.6 145.423
14.3796 71.4953 95.04
30.8617 108.169 118.133
12.9831 98.8795 177.523
16.0396 104.325 65.1287
8.0326 67.4455 79.9025
20.4651 110.491 118.466
8.61548 49.6207 155.807
19.1263 89.7145 155.367
9.00334 117.164 183.788
20.8005 85.7351 147.449
25.3013 59.9414 196.099
35.0702 99.6101 105.811
13.0879 88.9789 208.515
13.7935 65.8034 234.661
24.9077 107.567 84.2815
37.6584 102.145 115.965
14.6935 109.598 124.465
20.8795 82.6411 83.4018
37.6214 96.2957 99.3583
24.5662 72.2979 119.676
12.4767 135.569 136.55
7.16214 94.5949 175.08
31.6832 89.22 135.439
6.68385 104.044 152.083
21.1501 56.1143 239.989
10.365 102.33 55.9221
18.5173 71.5387 115.298
26.6894 144.723 84.4227
10.6341 141.079 143.077
29.4181 106.048 144.694
10.0103 126.454 163.315
8.47377 121.593 152.552
8.74412 150.226 101.608
11.7297 131.351 103.628
11.5878 76.1583 89.4118
7.81333 134.519 98.6434
15.5743 134.898 40.3286
12.7322 124.282 142.496
10.0849 115.787 124.65
22.708 111.351 167.825
25.1239 169.495 24.923
8.57886 140.005 128.251
8.0287 127.489 127.134
12.0038 108.659 67.9319
9.61916 131.37 30.909
9.87806 128.867 91.0705
8.68665 114.159 83.0335
6.73579 76.3079 121.337
14.4573 43.5908 39.8179
8.62835 143.497 105.906
36.6326 96.2564 121.764
15.1638 92.9203 100.692
29.3516 83.3607 121.659
15.7396 98.1964 64.5852
17.8995 121.421 141.675
9.48622 104.751 164.374
12.5963 187.552 53.1828
19.7473 165.838 35.399
8.92912 58.1169 120.634
11.5906 47.0077 49.2637
6.6411 76.6502 109.017
29.7277 109.516 151.425
8.51845 64.6957 101.513
12.1403 70.9459 112.178
32.2721 96.9692 128.821
7.9542 180.119 257.786
10.485 181.265 252.661
12.3496 129.519 39.1681
8.51389 113.913 68.8854
15.9953 122.749 153.912
21.3881 154.345 23.2214
7.37617 57.4572 113.223
24.2478 115.244 153.864
33.9795 114.27 197.701
21.767 99.4915 160.649
16.9004 138.635 91.5118
14.7092 115.369 172.687
22.3059 185.889 64.1964
31.0705 105.452 135.625
29.3005 109.682 130.358
11.3762 126.424 135.376
14.944 107.015 177.577
10.7395 117.364 108.315
13.2721 125.845 103.091
19.981 83.11 110.276
22.5186 92.597 71.6428
33.3417 101.942 150.729
19.6418 97.7595 151.283
24.4298 153.953 32.064
10.0951 22.6868 18.9853
9.90391 139.104 62.8402
9.4864 89.1825 165.163
35.8989 102.078 138.571
11.9545 150.611 111.051
8.94385 143.591 93.8945
9.20398 129.964 137.982
8.66782 85.7813 64.6616
8.70791 147.312 80.448
11.6641 147.753 126.773
24.797 3.76424 195.273
30.7783 96.9936 139.417
21.4537 131.921 82.7475
10.2079 121.974 70.8915
9.55836 143.33 118.335
7.19959 70.2167 70.5996
29.2097 181.835 25.2514
28.3809 158.316 27.9053
21.8604 120.738 88.323
30.6227 97.4958 84.1489
18.3814 100.631 78.6813
21.2378 71.9404 125.741
13.6828 85.0799 151.832
7.43918 104.429 116.011
18.4884 101.694 90.1974
29.5614 88.3423 112.694
12.4158 92.0083 143.919
23.3354 161.385 19.6527
22.092 83.2332 137.548
18.3372 168.822 17.7124
11.6105 132.55 79.4799
21.9957 60.7578 191.66
24.9551 100.559 141.751
24.7755 98.4269 73.0754
15.7468 98.9535 165.231
11.3524 75.6912 145.237
14.8675 125.857 25.9397
35.643 104.126 129.448
6.35401 93.437 71.682
11.4853 91.867 61.5555
6.59557 65.9815 113.359
12.8624 139.411 101.838
14.0753 109.785 58.8147
23.7488 110.965 161.998
6.7012 90.8675 95.4841
10.1004 82.0307 76.3106
35.7589 94.0652 94.3686
18.9867 124.091 97.2039
19.009 50.5306 46.1192
11.7301 47.9549 40.5182
6.6618 76.2774 65.664
17.3871 155.738 29.9005
8.75417 153.01 150.642
32.1084 101.935 98.8257
15.0088 85.01 79.5353
17.1692 111.703 76.8304
14.679 158.906 17.9654
26.1404 164.335 29.9952
14.2414 124.387 117.239
17.77 94.3484 74.8978
7.81545 134.938 131.716
24.7795 101.877 134.705
9.53088 82.2632 85.0703
29.5945 134.47 31.9026
19.4807 105.596 193.058
5.88693 84.2066 80.2227
33.6921 117.105 187.237
14.1919 171.297 26.2241
14.4295 151.628 21.4869
8.98515 91.638 239.457
6.22811 93.8381 59.598
13.8076 151.764 28.1727
21.3895 173.122 28.4376
24.157 97.6084 150.528
22.2023 94.6057 139.958
23.9108 84.7889 121.295
6.9174 98.1866 147.623
8.30137 82.5299 143.905
9.42128 88.4224 106.796
9.71977 103.325 32.1516
7.30735 72.4839 235.634
15.3329 163.042 29.3697
21.9587 184.368 56.2145
12.8975 92.7734 161.882
11.9718 179.927 17.3011
29.3393 96.5076 148.029
17.9678 143.437 82.9003
13.2193 138.516 71.9256
20.9455 15.4452 166.635
10.157 149.502 71.613
8.26107 67.5323 224.3
23.526 89.2539 184.405
17.6634 76.5326 85.8672
16.9065 125.815 73.3398
13.2721 132.833 112.572
14.2048 80.0921 47.5571
7.91954 4.21543 168.034
24.6477 97.2316 113.249
13.6513 92.4886 242.17
10.2605 112.308 175.195
14.0846 131.684 125.505
24.7855 107.501 116.717
16.4264 117.939 123.728
19.6705 121.683 28.2236
7.58451 125.491 117.089
25.7419 137.252 36.7172
16.45 13.2378 165.767
10.5219 105.304 18.5076
