ply
format ascii 1.0
comment Created by Open3D
element vertex 229
property double x
property double y
property double z
end_header
35.4388 111.931 141.417
11.8062 82.7423 183.271
12.3344 84.2196 126.42
14.7477 88.8643 95.4581
22.6406 149.208 80.3345
54.647 107.283 141.984
17.3005 87.3406 136.754
18.2197 79.6154 101.456
24.8812 95.2462 74.4801
30.8574 115.547 69.5351
17.7177 149.764 85.2133
33.1336 86.7758 146.146
12.6048 80.1182 116.619
17.336 79.0059 136.586
24.3958 157.857 90.0104
31.961 107.466 254.549
16.7838 126.468 7.02326
10.8108 117.477 82.4132
21.3115 138.304 3.82989
13.5338 79.0635 108.32
40.0982 114.672 128.544
27.7558 142.714 114.616
15.9709 105.711 79.7708
13.7133 96.985 89.2971
43.1952 71.6382 126.974
54.8916 213.449 223.765
44.0222 85.464 131.162
31.0785 72.2148 126.651
22.2537 74.3986 129.903
6.04372 59.2633 96.6244
26.3672 75.5169 100.49
25.9336 143.956 74.5514
42.5404 134.811 78.8694
18.6695 101.034 83.1476
22.3258 75.0081 121.749
12.9601 60.9485 242.262
36.2484 68.0328 130.634
10.6364 104.812 2.6132
42.7874 103.37 105.778
21.7931 155.578 101.11
23.6971 78.8354 141.207
18.6724 79.9463 126.915
12.8124 113.481 74.4868
51.2346 97.7584 125.948
12.8173 90.7532 116.922
20.4857 147.875 105.283
8.13105 230.278 223.236
12.465 102.316 114.42
16.6257 121.33 94.2944
31.4857 77.9404 139.06
13.4999 88.7687 102.941
15.0832 110.868 90.2101
16.4126 141.359 83.8117
40.4002 144.074 82.9946
43.5784 77.1048 110.5
46.2974 136.53 90.3834
41.6366 100.212 124.171
20.0923 114.876 66.6662
23.5934 101.91 67.3377
18.3631 75.1726 110.594
31.1798 77.5417 123.348
27.0088 76.7237 117.541
44.347 117.505 136.281
53.2563 81.7509 134.769
45.3689 117.795 112.854
45.1786 114.945 80.0944
11.7221 133.142 81.3009
9.60786 87.5338 108.196
36.5682 130.87 73.4544
46.1829 89.4929 107.418
30.1732 154.037 110.987
33.3647 80.5311 90.8353
30.5586 125.163 137.265
14.2951 141.407 92.0877
10.1194 42.0675 215.258
45.7769 111.282 142.709
40.3343 86.1785 102.631
43.6544 146.561 88.9749
31.0329 117.25 127.775
42.1762 79.2418 125.437
36.6565 124.674 75.031
23.3796 126.216 67.5268
30.8148 129.757 70.8096
25.6636 136.225 69.8836
38.0099 114.486 74.1706
24.5099 115.496 70.2864
46.7962 122.304 81.0667
34.6628 110.836 132.28
20.039 110.715 71.6076
48.1581 131.275 106.584
21.1529 122.9 131.625
43.3178 145.452 96.4958
19.3133 132.607 113.241
24.5733 69.6194 131.471
18.4919 141.81 75.6557
34.3223 100.339 72.4184
33.0863 80.7756 116.359
31.18 138.634 8.78019
41.4942 96.222 112.124
26.2693 82.877 88.3999
12.6441 104.253 104.802
7.86611 49.8344 241.305
13.3043 73.8346 151.927
21.2717 116.18 106.827
40.9372 121.066 82.4988
35.9551 67.9892 141.487
54.3029 83.1844 152.138
35.0318 155.505 102.082
19.3609 68.9804 113.524
12.0321 98.004 103.85
40.8213 136.595 117.512
43.7744 101.615 149.703
15.0295 114.864 114.534
42.9452 124.577 78.0686
35.0194 93.1284 78.1314
45.3968 102.21 97.1387
30.6678 148.702 82.0351
25.6294 108.201 137.972
41.2098 95.4262 98.7848
18.1921 92.8849 86.5809
50.9013 108.328 3.63717
57.676 73.468 147.084
10.2623 95.1333 131.338
18.8751 127.149 101.621
28.3702 104.21 10.5657
36.6712 97.401 87.0436
52.8375 125.049 2.51
25.02 73.2481 106.31
20.6438 110.384 105.912
22.6126 140.798 110.671
49.5367 70.6496 139.478
41.1891 106.72 74.9909
15.2665 97.9065 126.156
19.0333 132.638 68.6124
10.6614 101.259 98.1671
31.8746 87.5392 82.4589
36.9133 76.1744 137.345
44.483 116.671 122.648
13.0832 133.544 95.6875
11.7412 120.907 72.131
41.9111 59.1726 23.5034
33.6859 142.223 77.8523
43.5238 94.3933 152.058
13.6016 125.641 87.8451
28.7148 107.756 70.6875
33.5431 77.9058 100.656
47.1211 78.1034 116.284
35.4431 106.694 148.979
19.116 59.4856 231.094
43.3015 85.1413 111.479
18.0103 109.367 132.608
50.9712 91.4921 130.968
54.0112 105.204 98.6598
31.4079 121.265 119.254
31.7095 142.467 2.7396
39.2837 85.0902 148.108
42.1578 79.6923 147.341
11.3117 84.0932 16.3415
37.0106 91.3063 153.158
39.6434 83.929 94.9513
39.4726 107.963 101.283
45.1857 138.671 83.9672
43.7847 89.1462 119.661
25.3869 97.4883 146.682
29.9696 187.724 204.058
21.9839 59.7318 242.891
56.1275 104.162 132.944
57.0806 92.7984 149.375
15.0626 156.057 130.068
23.1349 86.6464 82.1184
4.51708 230.939 216.775
35.2014 109.541 75.4362
35.6887 105.846 93.0871
50.4932 74.2089 147.602
19.4022 127.513 110.944
12.2329 102.049 84.3031
48.2665 141.311 97.5513
12.8335 93.097 1.55172
19.7084 111.679 121.412
19.9866 134.028 200.145
36.5772 122.498 123.088
59.5747 100.377 146.563
6.11754 60.1673 15.2659
49.683 93.2067 152.132
50.6763 127.497 118.756
8.89047 56.3285 151.185
41.7299 102.201 83.1085
14.7873 105.235 125.029
33.4883 75.025 14.3354
33.8325 70.4982 121.476
18.8237 101.597 105.604
40.4923 110.85 119.297
47.0175 82.877 151.999
44.431 110.76 150.63
49.6941 130.714 7.33956
17.037 135.024 103.531
48.9005 126.994 87.9373
48.0937 108.35 131.937
10.7593 54.8117 98.1525
40.9589 107.52 110.046
17.1166 99.1728 93.946
15.3604 134.675 205.79
6.79553 105.334 147.521
42.4874 97.0003 86.7145
40.0248 147.695 107.289
5.6425 67.3682 41.5949
44.058 136.06 112.095
37.2358 88.7845 91.478
6.77689 231.41 231.774
37.1908 100.866 149.713
16.5817 144.084 96.1878
19.0305 99.2259 7.01333
16.8129 118.175 120.335
13.9795 74.1419 122.165
28.7165 92.6795 148.249
56.0415 231.178 230.182
35.1416 67.5702 16.8884
21.1371 88.0785 2.25137
45.6082 231.318 231.019
56.3584 231.074 236.018
34.1963 221.14 268.746
16.8182 103.355 88.068
24.2303 118.767 117.024
55.1857 115.605 102.694
50.4573 107.225 152.055
47.3595 106.964 121.933
50.5567 89.5128 147.844
21.4583 130.201 211.794
60.4148 89.4534 145.628
