ply
format ascii 1.0
comment Created by Open3D
element vertex 831
property double x
property double y
property double z
end_header
25.7606 93.1021 96.2771
26.8111 12.7951 226.212
22.0127 167.372 93.7297
9.19453 159.195 210.05
38.975 80.2125 247.834
37.4337 114.473 198.831
14.7475 165.195 204.244
35.2831 35.2531 256.237
40.4465 143.328 211.276
62.9119 109.089 136.428
28.4792 144.385 213.824
5.06738 5.22483 234.566
6.89089 122.264 222.903
37.4085 153.52 211.945
22.8208 111.797 215.901
19.7471 88.8264 254.421
3.87881 78.907 260.28
51.5855 91.4512 121.313
23.1773 109.29 102.453
29.8208 154.573 129.161
47.5764 102.128 123.445
16.1287 176.907 96.0362
10.8971 10.6562 243.692
52.7343 86.4685 99.9567
34.3635 114.253 189.995
18.2189 6.43008 249.842
7.33664 144.444 167.591
3.33086 156.178 190.964
23.1724 99.5526 88.3053
46.1248 86.8877 90.9366
31.2923 147.77 146.404
19.4991 166.047 197.992
37.1284 5.66633 213.242
23.9539 149.425 141.236
29.6789 174.557 107.943
60.4147 142.863 57.6548
19.1048 176.299 104.303
41.3226 88.313 113.555
51.1027 165.681 137.571
35.6424 34.2956 246.199
11.1736 13.8276 230.298
59.9841 159.544 148.478
26.8315 108.916 190.231
56.5305 148.33 129.043
45.597 85.9717 107.443
18.3245 158.134 176.624
6.66662 151.124 175.943
8.92753 147.095 135.097
37.0462 152.101 63.798
27.0298 173.551 79.9818
70.0887 138.999 59.2274
25.0376 169.132 149.738
58.4716 106.955 86.424
48.0837 133.826 181.985
21.5494 42.999 255.926
24.1181 128.167 116.158
54.378 174.368 71.4173
33.8807 100.596 117.005
41.17 138.171 125.527
37.6002 144.072 63.094
47.9712 140.852 186.057
56.6139 180.568 96.0249
49.8057 141.737 177.445
58.7392 74.872 266.164
59.9011 190.098 101.691
13.9748 130.071 224.277
23.204 146.104 158.224
21.9363 98.3026 102.024
48.8365 129.293 171.627
48.2582 9.26955 217.603
3.49813 112.203 183.417
54.3144 95.2997 80.4683
5.56532 3.28569 210.307
58.2568 173.714 143.47
35.7893 158.248 67.273
3.40027 74.2448 251.89
21.4067 160.218 213.51
13.6116 112.315 216.226
41.8861 72.7472 244.56
59.5679 153.102 137.776
36.2978 136.082 201.8
13.2473 13.985 220.45
9.65768 142.877 160.118
45.1239 149.222 178.805
20.6819 174.799 85.5259
22.9524 153.991 169.688
44.2136 153.391 188.916
135.265 144.615 31.8712
13.8643 161.906 97.6982
37.3937 94.4292 116.347
16.9045 132.885 100.053
30.1353 103.899 175.067
27.6563 185.579 89.1693
55.6949 79.2514 259.97
86.4247 169.377 131.288
34.6564 154.912 170.923
42.2812 110.277 191.32
42.8197 128.969 209.671
43.7466 177.899 122.006
17.3865 111.265 207.75
21.8371 126.352 73.5037
21.496 135.41 75.077
32.4328 170.581 75.447
30.065 126.468 213.293
15.8345 43.7834 265.11
75.8637 150.005 77.0509
67.1062 180.63 137.085
39.8808 113.208 132.409
38.0284 48.912 255.239
39.7952 157.638 181.491
27.7662 101.151 193.859
46.3614 44.5518 270.021
16.9426 150.766 138.31
84.0329 104.748 125.682
46.8397 149.643 148.199
14.6905 111.33 88.0611
43.3474 52.03 248.577
20.4825 117.914 220.746
68.1404 163.733 104.607
45.0135 150.521 65.4951
44.775 133.349 201.976
13.2003 143.29 109.531
16.0015 168.684 147.099
29.0991 105.269 200.746
42.8977 99.1638 105.146
24.2187 109.667 169.743
79.9104 129.617 66.7676
37.1687 150.153 167.537
9.43906 104.238 194.587
76.3258 110.929 127.439
39.7734 26.222 246.713
29.8018 117.557 217.382
18.7001 15.2373 240.407
38.2718 92.4995 97.8503
59.863 100.525 131.206
7.71202 163.653 196.769
28.3835 81.3744 246.319
50.6161 162.196 62.8736
28.0038 129.149 164.015
19.9033 164.784 84.3981
27.024 93.4159 107.32
3.65542 151.417 131.036
36.9936 142.649 174.134
17.6569 156.349 218.884
42.9226 113.436 174.233
24.551 108.924 206.039
59.799 188.589 129.06
85.0393 178.785 129.865
50.9939 126.958 65.8698
35.7891 98.5869 105.32
60.112 79.057 273.012
50.9552 119.721 140.041
28.7264 142.354 128.149
30.4933 116.316 131.919
9.30242 107.248 179.926
74.2688 135.112 63.9603
27.8792 41.1283 272.46
27.3728 180.46 84.2032
38.7631 128.83 158.605
38.6908 127.518 215.272
45.149 158.383 140.746
46.2437 131.282 190.007
40.7713 100.334 130.835
26.2433 165.508 193.869
55.0765 86.6461 88.3902
59.3974 132.136 71.3328
48.4816 6.07293 209.47
20.0036 136.944 110.558
35.8802 109.977 181.831
18.565 151.056 215.258
29.3868 173.639 95.3397
29.9493 91.4812 87.7512
2.76299 155.758 202.231
15.1887 167.693 136.632
32.0058 159.382 179.486
22.2034 137.118 125.059
48.8441 122.835 188.41
22.2363 62.6571 240.622
60.5193 95.9 73.9859
84.4481 99.7682 88.6683
67.9812 114.343 129.315
46.6618 156.311 132.923
12.903 119.085 87.4399
25.3697 119.263 70.9875
33.9102 115.923 210.958
82.7663 98.2426 80.8065
49.5217 116.325 62.3942
17.9647 134.89 120.179
35.1096 137.82 130.532
54.5185 183.253 115.995
41.6628 7.6554 255.387
51.5835 108 64.0841
33.7333 148.458 136.021
33.9036 136.262 121.102
24.8701 164.307 208.513
147.322 155.819 34.9603
24.2564 164.687 202.556
39.8923 120.633 207.581
2.83357 109.223 191.433
22.2786 98.9746 111.783
38.3905 87.332 90.0486
29.1427 56.1016 240.982
95.7065 118.834 123.12
21.6046 101.247 174.237
33.3228 91.172 110.8
32.6467 152.558 203.812
47.9925 188.229 135.485
44.1378 44.9529 258.482
35.2773 104.207 69.7937
24.2363 164.657 143.202
34.4554 155.919 187.797
13.8981 6.89316 212.788
87.0999 186.047 101.735
40.102 120.476 164.191
30.0647 152.086 162.772
130.008 153.502 36.9438
43.6218 140.467 164.49
58.3311 129.345 145.406
48.343 189.331 90.2467
47.9562 144.548 199.082
40.9688 137.621 60.7633
48.3076 137.043 170.927
77.23 183.336 87.7522
3.51425 159.596 126.803
28.1612 112.481 125.644
74.4735 156.562 68.4655
29.3619 106.148 121.23
6.65397 226.339 170.021
43.3669 88.7635 83.334
36.6842 158.723 129.806
56.8495 151.856 60.6417
12.9839 133.267 88.8428
55.3268 102.511 69.6326
20.8663 132.62 154.099
35.0524 176.841 79.4447
44.2737 11.3757 247.744
38.1454 131.203 128.092
44.2459 137.287 207.097
46.4704 147.615 171.232
84.5404 186.376 122.692
29.2612 98.566 112.761
81.0393 122.76 69.0456
55.6836 198.999 101.011
35.3222 196.836 112.413
44.8893 197.344 104.023
23.4093 110.044 116.243
52.0684 152.124 122.425
16.594 104.638 201.844
38.9708 152.988 196.353
88.2225 178.454 97.1013
29.5638 135.519 159.461
15.2688 172.639 120.621
39.4444 193.715 95.7737
45.4652 132.182 163.891
34.7145 18.6241 241.984
31.0239 137.865 138.943
42.597 6.27316 227.295
31.2729 196.299 120.213
16.1869 96.2709 270.639
50.7033 50.7098 264.928
37.0344 167.652 70.0555
37.6293 163.501 134.642
94.7102 111.214 92.6534
3.69031 2.1993 242.905
59.0765 183.319 81.5186
4.20603 110.963 201.946
5.85723 116.558 213.412
10.3295 136.999 218.879
62.9253 128.77 58.0742
48.3431 171.228 132.08
13.0072 118.672 220.603
11.2995 113.528 106.423
30.3041 141.29 204.334
20.6366 189.66 135.299
53.3927 194.964 93.8035
22.6962 100.922 188.713
44.5322 172.23 142.513
29.9128 159.258 213.582
77.9901 103.361 72.3987
54.9321 142.248 119.59
5.6336 142.036 117.795
26.035 8.98384 252.086
65.5309 97.2535 121.721
15.814 179.6 138.157
48.154 147.686 189.16
2.97216 127.03 216.303
18.1948 101.094 194.729
45.6968 122.894 175.355
44.739 123.386 201.355
55.0432 179.439 77.1441
135.096 162.458 41.1317
19.2416 102.706 96.167
93.6779 142.408 81.1624
15.5453 149.311 159.745
34.6461 99.3571 270.889
33.2048 143.297 158.147
47.0051 118.294 180.232
18.4036 124.558 155.335
11.5236 225.372 176.823
86.2222 162.742 86.7501
27.5212 136.16 212.94
51.7557 99.7088 134.818
51.7294 87.1925 113.871
30.1478 188.197 127.004
71.4899 95.2115 78.7486
48.008 177.65 77.237
44.0589 111.335 185.204
42.0557 20.9206 230.228
12.0424 185.619 110.786
40.7164 91.3302 121.008
27.8577 163.584 185.337
40.7932 150.421 130.611
97.6676 151.459 97.8649
69.9978 161.689 92.5838
56.5342 63.7709 264.45
10.231 110.876 204.346
44.7565 102.063 69.5096
65.2026 158.545 63.6141
32.7283 12.7142 251.222
14.6081 144.066 140.536
22.0618 152.531 162.908
21.3343 104.833 81.2556
20.2188 113.557 77.8893
11.5232 139.922 97.5144
20.362 155.768 146.981
8.32158 152.089 104.47
56.4375 156.992 63.1926
3.65451 167.303 121.018
18.2478 107.097 111.571
35.2239 161.729 197.984
43.7468 109.107 136.497
44.3929 85.5428 99.1479
89.5355 184.247 110.734
69.6584 158.268 147.204
55.0376 196.031 109.035
11.6742 112.857 97.146
48.4123 134.653 196.459
76.6051 105.684 99.8878
84.1131 147.658 137.616
73.6712 126.73 59.935
28.7218 99.3203 77.1425
35.4512 180.372 130.224
5.28623 48.8598 269.112
46.9781 119.149 133.099
20.1514 193.92 111.963
14.5647 165.709 192.351
2.32634 126.572 173.836
65.1263 153.957 97.2019
12.6701 80.4043 247.478
51.4365 109.406 136.42
28.8702 130.448 154.831
31.0887 98.2844 126.239
37.1473 175.886 145.315
27.6662 155.113 147.356
30.6344 163.265 143.045
37.1505 88.5885 252.865
18.4493 127.358 221.575
47.2621 2.83515 226.029
25.9376 16.4588 244.534
69.3456 193.325 98.8471
64.263 104.422 125.258
23.3882 110.657 162.889
20.0211 135.453 224.299
50.1593 80.5055 252.72
59.8165 68.1818 270.615
16.5545 176.256 111.89
12.6605 90.1137 262.097
92.0062 121.724 130.184
26.7509 184.589 104.587
28.5451 95.2866 260.968
10.6712 124.119 94.245
30.0247 197.912 105.186
59.2764 87.5256 107.075
51.0255 129.217 55.7387
66.0882 139.882 71.9041
25.9283 196.829 113.545
40.5957 144.11 146.803
35.672 102.201 95.1147
17.3177 140.977 153.142
36.7383 168.164 145.176
53.2738 155.635 147.036
51.8107 150.054 135.887
4.90504 127.142 162.862
53.3537 6.60678 245.591
15.8524 104.374 177.227
43.2056 159.184 68.2147
57.2416 62.1591 273.491
11.2403 137.43 118.456
9.15044 183.182 124.615
56.2252 66.4153 255.519
21.1752 8.40968 208.918
56.3123 86.9287 268.048
79.0699 194.06 122.02
15.7128 107.23 102.885
17.8397 106.628 90.5101
44.4056 67.9024 245.969
79.2472 196.747 114.564
57.1213 100.461 90.294
9.54445 176.206 135.677
7.42775 61.0474 245.281
55.5144 96.6759 96.1582
4.65169 158.549 114.625
53.6866 124.021 61.456
56.9111 12.1776 227.498
6.64992 89.6037 269.862
37.9466 146.09 162.95
56.994 189.74 86.8673
29.9594 136.695 223.971
46.4004 91.818 77.273
32.2514 102.46 183.606
68.7379 148.516 147.302
80.0336 156.506 128.336
9.70078 180.559 130.689
11.0858 154.511 133.999
36.2902 94.0091 79.1758
33.8836 113.264 67.2101
83.696 96.8789 117.878
22.7903 99.1571 273.076
3.1292 224.6 177.037
35.9986 11.6685 209.763
33.6829 96.3444 90.4236
3.73113 137.463 216.316
4.09487 10.8414 187.537
38.2856 123.411 130.707
37.1485 42.9024 262.897
15.1812 186.522 131.889
24.0054 123.1 219.133
14.7283 132.035 246.853
8.28849 128.128 102.594
7.73627 70.0671 243.408
12.8121 117.739 160.741
12.2326 146.771 220.138
25.7491 132.461 132.728
2.6268 107.182 178.546
46.9883 197.645 111.444
3.44941 53.8773 255.874
85.9618 150.646 76.8317
33.8122 3.63763 254.201
74.254 148.355 64.9242
49 195.652 118.057
50.263 17.6057 230.744
72.7025 107.717 79.5563
12.1939 129.558 154.593
30.0032 41.3632 259.828
42.4859 154.193 174.664
49.1293 190.171 99.4888
8.72678 2.07127 221.077
23.7757 102.468 119.485
20.1733 139.03 133.062
35.9775 26.867 258.913
41.7167 175.139 73.9258
12.7219 229.77 172.623
2.32162 118.876 177.162
29.4123 142.644 68.2167
78.7392 113.364 119.798
24.8568 3.32407 207.532
26.1215 159.783 175.78
67.2018 107.4 69.5743
47.459 51.4316 256.461
20.4152 117.069 112.758
28.7005 153.076 197.766
40.0485 127.603 60.2789
49.4412 96.2271 72.8781
31.362 158.649 71.1966
15.16 157.41 85.7813
37.191 134.982 67.4105
47.1568 126.636 195.668
87.1136 171.913 107.88
46.2191 139.395 142.553
88.0629 177.73 120.259
2.96444 151.065 116.784
23.9111 102.655 181.316
42.7766 166.029 130.146
11.3367 134.549 109.238
3.81616 123.86 208.676
41.0873 145.658 124.884
56.7682 55.5248 269.089
62.8867 108.05 63.9509
17.0983 140.677 220.957
39.7508 162.901 152.244
56.2249 6.21835 217.172
20.5936 184.209 118.01
65.5278 179.75 81.8139
2.182 119.85 186.712
48.8188 165.675 150.16
141.45 168.201 49.3589
2.19364 150.39 183.329
37.7194 107.753 174.206
32.7434 162.454 191.303
21.148 193.488 122.817
70.3225 103.461 88.5925
54.0623 116.817 127.72
2.38614 63.4264 256.667
31.5866 112.661 205.065
6.04007 113.449 170.024
22.349 142.818 217.952
12.8074 169.788 90.4375
51.7549 147.311 115.995
53.2024 189.551 126.893
72.6462 88.5872 101.291
75.8109 92.0774 86.582
20.3139 163.986 189.513
38.739 117.739 182.334
48.156 137.051 129.581
13.9118 141.079 133.625
10.661 157.798 145.588
8.60257 153.4 217.932
12.5858 141.401 89.4752
18.4897 126.481 106.661
37.2867 117.217 121.371
10.5369 103.035 186.873
8.30264 2.23485 248.202
50.2557 173.861 145.336
29.8067 11.9515 216.258
23.8178 185.907 142.237
45.4195 15.9174 241.439
24.4451 118.803 156.484
72.5092 190.439 121.057
2.27305 141.971 208.298
40.5727 182.311 80.8643
50.2465 88.5186 260.265
80.7859 195.456 105.3
26.0565 19.5809 235.423
6.93904 142.411 128.169
17.5049 42.2782 273.087
47.2189 180.383 129.48
126.331 164.639 53.7534
15.3311 160.436 137.959
3.93929 168.226 133.352
38.731 55.4306 242.979
33.9788 107.158 194.65
10.3242 183.62 117.56
47.1876 141.374 55.8186
68.6658 90.0917 108.217
2.28494 78.0712 271.832
20.9946 150.957 81.585
32.0952 120.002 159.74
69.2129 193.144 112.517
33.253 104.39 127.861
31.0826 153.383 221.539
32.4725 163.136 151.997
32.4707 70.4336 241.776
22.3607 13.5423 216.756
36.7755 177.714 88.7711
55.5409 195.642 118.816
33.3932 188.567 91.4367
32.1316 145.455 220.936
52.939 57.2137 256.884
31.3346 185.842 143.909
67.7757 182.984 128.021
26.4022 2.19627 201.519
45.207 124.417 129.786
63.9989 167.993 79.9568
25.705 140.177 154.114
30.4042 191.133 137.132
32.1263 111.206 169.54
2.23159 4.28081 226.813
144.654 162.729 40.8458
13.3696 108.443 167.438
70.2981 99.29 137.478
70.578 165.444 82.6265
31.6704 127.421 64.8921
74.8573 184.969 129.395
4.59625 161.548 136.819
77.2182 164.336 98.2776
42.9997 181.83 144.394
26.5832 142.565 141.605
28.5885 152.481 67.4936
49.9859 72.8314 250.202
35.155 160.714 205.849
68.1085 170.642 144.578
28.4271 193.505 97.9531
70.3956 175.866 88.2815
55.2879 2.04773 231.425
98.8707 141.012 91.5087
70.5644 186.123 85.5173
54.6532 184.088 133.581
20.8764 176.528 145.61
78.9449 160.479 77.5849
49.8517 125.852 138.401
25.2781 193.415 103.904
30.6042 135.911 66.2163
61.8254 175.537 74.3709
64.5271 165.548 71.1885
21.9721 141.021 138.39
56.3164 162.873 83.6385
25.9905 104.277 166.527
147.614 144.296 30.5687
84.0708 161.135 141.491
9.75543 174.383 98.7716
22.4855 146.52 75.7736
155.293 151.785 35.3516
5.89134 123.213 198.91
45.9936 143.309 118.669
59.5495 150.233 123.987
7.01372 173.235 128.233
164.668 160.168 52.1999
45.2128 181.877 101.062
25.8786 119.651 120.71
72.7787 153.943 86.7151
28.4987 28.9818 250.471
10.7672 168.103 114.518
17.7169 53.2745 243.275
24.163 129.653 224.73
16.951 143.324 80.508
74.0883 119.209 66.231
33.5432 194.974 96.9549
40.9767 144.933 202.561
74.584 97.1199 96.1
79.3322 123.607 134.84
14.6832 119.237 205.097
17.1247 100.278 184.943
17.7123 122.879 120.462
7.55571 143.649 104.222
20.4931 17.3538 228.207
86.0433 130.292 73.2361
11.2518 122.318 108.366
40.7707 126.803 168.101
21.8098 79.7789 246.599
2.01896 57.8084 268.504
63.1776 149.131 148.67
2.14309 121.449 193.686
47.1196 98.7682 130.738
4.78736 168.11 101.53
52.8213 180.987 85.0814
88.9075 121.287 92.7291
91.3615 163.188 126.13
81.2513 107.062 92.6255
46.5825 181.938 84.7836
21.9078 159.7 76.2842
29.8467 46.5604 247.537
10.8437 161.038 91.1151
63.774 186.959 89.3056
93.7839 128.553 126.067
40.5752 196.859 118.21
49.0418 134.344 139.135
45.298 146.904 136.588
67.4035 157.239 76.8991
63.4389 87.4624 99.1904
90.522 178.422 106.297
55.5947 135.409 56.6579
41.6956 91.9068 128.215
87.7421 98.604 110.412
69.9886 116.199 63.2793
134.96 170.936 56.9985
84.4228 111.733 73.059
51.5877 147.085 58.0509
57.3033 114.897 135.609
18.3664 47.0147 248.884
121.029 154.764 42.3066
26.3698 131.679 122.952
84.7946 169.58 88.373
88.7501 158.74 133.768
45.3548 131.006 131.389
10.1348 128.528 241.853
2.22486 119.011 202.348
87.5651 146.643 80.4912
58.9102 149.741 110.277
51.0591 128.716 179.999
13.3995 189.122 124.915
41.4848 184.008 91.3979
31.0472 124.927 127.375
60.1728 90.7183 114.668
159.425 154.834 45.4619
7.14374 158.749 101.468
18.4351 134.266 242.334
33.4859 147.253 189.642
12.889 137.425 127.035
62.1715 192.719 121.605
53.857 47.7234 274.262
156.395 141.196 31.2268
76.9623 166.972 143.155
66.8437 148.539 60.8415
18.019 188.818 106.709
55.9964 164.974 72.568
25.225 189.12 94.9936
34.1684 1.97621 205.951
83.9664 156.909 113.554
29.9843 114.363 164.84
77.6794 161.053 119.358
60.2952 182.966 135.148
54.1459 154.04 77.9795
91.4591 116.559 84.0048
85.9632 122.093 133.974
43.8739 194.135 123.21
56.1743 141.114 141.019
89.1569 98.4849 100.546
156.352 163.602 48.9206
41.7244 193.046 131.001
43.6175 120.793 192.547
83.341 141.552 71.7958
20.0685 185.369 98.9004
142.162 172.052 65.6295
73.7233 154.418 96.1592
58.5598 94.0721 123.638
1.95982 69.4718 267.64
3.44093 171.071 110.834
26.4374 1.6548 257.406
89.0053 105.885 98.0776
41.3409 180.001 134.266
75.8359 161.208 105.943
38.4304 63.7345 242.426
78.104 114.41 69.8635
72.425 89.7944 93.6828
10.175 161.214 184.813
36.1979 153.303 150.724
79.4141 92.2325 105.53
89.4828 174.586 114.212
58.5142 107.284 76.421
69.4131 93.0148 115.999
57.4498 121.155 68.9019
66.2832 131.989 145.074
38.6453 199.433 105.877
36.3686 107.296 132.95
63.817 194.712 107.586
27.427 163.274 75.6834
81.5548 136.432 69.7384
33.8228 50.5581 248.038
33.8756 133.954 214.556
58.6795 1.98656 258.872
89.9085 135.088 79.8344
90.2857 127.31 80.97
5.66927 176.035 119.918
8.19485 45.8137 257.712
83.6109 95.4747 100.738
12.7227 117.716 115.489
79.9668 175.952 136.531
90.9148 115.873 115.346
40.6544 14.5674 217.438
64.4382 107.42 79.8789
18.2154 1.89138 209.021
87.6758 140.332 74.9634
80.3658 170.552 100.648
57.9765 86.7562 274.474
1.8149 143.745 194.055
84.2411 158.261 104.251
8.9328 99.4535 180.912
78.1239 141.544 74.8715
36.0213 190.635 132.305
74.8824 90.997 113.421
47.2601 159.024 149.874
51.7979 129.894 130.425
71.0376 174.948 79.4967
96.8846 113.669 101.383
41.6011 9.11871 207.487
47.7221 193.988 127.687
91.5707 156.004 126.302
44.1393 150.24 206.704
13.7937 149.663 86.2728
52.2032 129.818 143.188
87.1007 120.688 74.9328
67.1745 112.519 73.6339
81.4731 146.14 69.5502
48.8194 170.508 68.2163
81.4275 187.369 96.8184
81.9268 152.566 84.7806
48.962 63.8075 250.904
92.3057 140.909 87.2113
75.3256 145.006 145.631
11.5639 152.575 94.2667
62.6909 122.112 139.348
82.3498 115.117 131.167
35.269 196.615 126.323
140.419 137.042 29.246
67.0536 152.505 105.55
90.8119 156.542 88.0294
64.072 91.4495 86.2241
131.937 135.522 33.2314
21.6239 114.893 124.87
45.2677 145.666 128.389
88.0773 146.985 119.018
1.19766 126.848 180.345
76.3674 136.313 72.5116
12.868 157.954 182.196
79.2324 95.3942 112.023
2.16591 53.7248 274.637
41.8853 176.615 155.172
8.72107 175.994 108.391
124.963 162.635 46.9004
29.4536 17.6078 220.205
1.78594 134.156 178.09
43.4391 1.33451 204.451
89.0714 167.455 118.74
151.438 159.303 42.0651
44.6731 59.7154 250.925
92.3778 104.745 104.068
39.903 125.892 136.449
74.5285 188.824 93.9993
59.7254 1.58566 238.54
98.2313 135.25 99.2542
95.6101 132.322 88.0756
61.8318 1.56961 218.299
101.379 148.84 113.788
33.959 18.1596 220.352
41.8395 140.969 185.031
82.0281 174.569 92.5479
32.0502 20.3246 227.264
34.2709 118.071 168.926
51.6145 158.817 79.5084
73.1636 94.9749 106.13
92.2834 105.221 111.648
81.5624 179.188 91.7492
95.97 121.094 106.656
92.0155 149.871 84.3351
72.2363 109.662 71.3941
13.2983 1.16453 253.378
33.8244 98.0416 74.973
77.3699 178.878 94.5623
63.8455 9.21031 247.569
143.844 171.563 73.708
86.027 112.383 80.1881
89.8694 170.991 123.747
47.1286 1.17113 252.269
20.0321 1.1737 253.953
99.7143 128.4 96.1585
13.5322 169.674 100.415
126.902 168.509 62.8636
94.5825 155.085 118.393
93.4143 148.727 91.1551
120.001 164.032 60.7447
121.232 145.138 37.3893
150.435 166.464 50.0921
43.2971 99.1593 274.761
88.9654 108.148 89.2037
50.3614 142.012 139.374
69.7071 108.057 143.973
78.7298 138.591 143.575
52.2465 143.882 148.287
82.2599 117.694 58.1914
83.0857 164.295 109.336
78.3425 156.096 140.402
