ply
format ascii 1.0
comment Created by Open3D
element vertex 822
property double x
property double y
property double z
end_header
15.0129 19.8578 19.328
70.1294 150.277 110.093
33.6917 51.014 111.539
79.4544 130.125 220.245
60.516 26.1599 83.5944
66.4251 80.7993 73.4881
31.1208 15.6428 27.5014
30.2081 50.5401 24.3673
51.6159 23.4216 38.966
43.4521 173.456 213.291
42.3267 139.725 90.8313
29.7569 146.747 100.903
42.5858 7.90687 29.2991
17.5252 43.1005 18.2317
102.107 144.339 2.5724
17.4989 93.8155 44.4727
13.2169 9.27329 3.62316
14.4794 122.883 146.243
19.7762 33.433 98.5879
83.2762 143.902 138.551
48.8963 132.881 92.2579
70.3008 75.625 79.0251
31.0692 99.5154 104.51
55.4155 39.7056 93.3876
46.7588 150.039 92.1899
62.39 77.0112 117.346
39.5463 163.534 130.653
32.1818 96.8474 139.924
79.8444 145.715 129.633
13.9957 24.7002 127.611
55.5308 81.0765 69.7527
14.5284 13.1353 12.0008
17.1343 35.3532 24.1258
12.4089 22.7492 118.237
39.5559 59.7326 4.31295
59.9711 73.1894 61.799
22.7924 16.6114 22.709
32.8086 7.06241 32.4846
26.7017 97.482 123.623
49.8167 4.35116 114.358
16.3493 177.259 164.026
21.4343 217.424 58.9758
24.9163 10.6889 166.129
36.4178 91.7611 11.412
57.0892 91.1582 70.9429
32.7805 28.6427 36.9725
48.6334 86.5632 74.1169
31.6147 34.5346 132.126
13.1818 27.1203 107.034
23.9887 38.2387 28.2206
58.0706 70.2629 74.111
54.3192 19.7932 54.5582
29.3847 4.39694 174.411
31.8783 49.0974 120.137
49.9901 143.56 93.6433
35.5592 27.8695 25.2813
23.5054 111.018 149.375
20.4734 9.12686 17.302
64.7516 19.9037 108.102
21.5196 124.448 101.774
37.7244 96.0248 32.9867
33.8665 20.7211 17.3199
66.2854 8.69148 102.319
29.8949 93.4963 20.8886
17.1965 116.637 148.735
34.8622 149.964 146.504
23.2182 40.1438 126.685
55.2717 95.8615 103.544
42.913 3.96851 215.343
26.2306 136.834 42.2624
73.6679 96.9495 128.051
33.4121 162.186 162.535
20.4936 170.129 156.676
44.9128 6.25451 200.236
56.2958 150.218 159.966
14.7132 116.325 122.166
31.6871 94.4266 150.252
21.6727 126.292 153.371
14.5892 22.9957 10.4245
31.8317 167.636 153.073
21.1146 11.8353 125.38
28.5012 6.56862 124.545
17.1956 114.541 115.561
43.3391 13.8778 65.3577
22.4797 101.451 41.5489
13.0907 81.305 98.3884
155.36 8.42069 152.238
23.8074 12.4862 216.417
62.9706 86.4903 38.8522
40.4543 49.2052 105.052
17.1326 212.861 16.0008
52.1756 95.9289 78.9772
13.4218 34.6673 109.375
88.9205 129.96 50.157
27.6264 11.327 178.415
21.1723 26.3714 129.819
73.8693 73.0956 95.033
25.5287 48.4581 103.811
22.9955 49.2718 111.557
15.4071 131.315 51.7294
28.5457 29.3112 81.7709
27.4039 228.514 49.7611
44.2792 146.171 159.256
56.5364 17.9965 82.9704
44.2461 90.8045 111.762
45.8766 5.36106 75.2732
33.7749 125.704 156.071
63.0059 62.4642 87.484
32.0733 220.834 59.916
13.0507 30.5841 8.30389
12.3534 124.529 128.863
41.4027 23.124 77.017
118.87 219.756 129.263
18.8337 4.90567 221.845
39.5397 36.8493 85.5282
54.6506 140.517 92.26
31.5431 41.5756 127.189
31.7139 171.296 204.716
74.5862 76.3303 87.265
32.0864 205.016 258.524
51.5719 43.9718 118.778
16.2821 130.218 115.587
62.8331 103.035 100.14
111.78 64.8266 130.855
18.9429 106.652 115.362
45.3829 93.7359 139.087
35.1998 163.947 205.624
45.506 87.4497 124.953
38.2106 92.0432 127.576
59.401 84.3622 132.884
37.2794 114.974 146.244
17.8193 18.5231 202.698
50.9585 72.3088 72.9745
27.5546 108.174 95.6259
32.2174 114.061 92.6248
63.0933 62.2845 50.2673
13.2271 6.6058 185.186
36.8669 65.6554 31.7943
50.6576 66.5497 78.9556
26.0176 30.4218 33.8585
25.1849 138.031 102.321
36.171 7.99136 129.483
69.6353 30.9437 31.5267
19.4679 196.53 204.343
29.8577 225.739 106.41
26.5481 19.773 33.914
49.1809 97.0204 99.1921
59.5478 116.017 90.4559
43.371 32.9066 133.962
39.0857 57.5137 23.5747
66.1812 67.4549 97.6012
13.1186 35.0343 122.512
56.6436 74.9201 35.1963
104.508 229.733 145.181
24.7355 47.5772 20.3652
59.4822 141.974 164.006
18.1722 44.4254 119.778
31.1053 134.661 98.1913
26.9907 25.4412 131.961
33.8309 6.2591 78.6067
68.1632 29.3334 112.109
109.097 225.432 162.058
14.3212 27.7973 20.5602
56.0761 39.9137 34.6586
36.5525 50.4607 29.6279
23.8895 15.2068 185.99
69.8753 23.6782 34.2742
81.206 12.2316 48.7808
28.5835 105.507 118.642
20.6964 55.5217 3.38007
31.4022 23.6706 79.1464
31.3552 39.0627 33.1062
38.7693 101.425 147.142
79.153 131.085 114.112
55.1575 122.591 90.0215
19.1187 6.74687 26.8507
81.2255 133.388 207.296
56.6504 6.33089 124.322
63.4055 3.75213 47.7966
15.8697 23.7339 101.297
54.1234 120.276 3.22423
74.1175 160.924 61.0961
20.7267 107.989 101.623
77.3463 37.8658 3.49575
40.1641 24.006 59.9919
29.1474 198.367 267.808
50.8955 64.6889 93.9351
35.9539 2.34494 26.7981
26.8451 183.866 271.018
42.8326 26.7383 35.9266
11.7129 14.2807 208.421
38.8253 11.6868 210.28
17.0604 49.9562 3.99639
40.6229 130.449 160.942
73.9972 73.1659 20.6019
53.749 9.37403 76.4069
20.4113 225.183 89.5061
67.404 123.151 94.0474
62.1234 96.3713 81.1176
46.4954 165.432 126.81
43.8394 166.439 118.113
39.7554 4.39612 183.285
51.068 59.6508 6.2735
32.0642 19.0423 208.233
54.6996 31.5733 84.0171
18.0566 17.5139 211.432
33.0973 94.2522 127.571
73.6351 41.5293 8.90749
35.8531 25.3423 135.619
13.2023 38.2356 6.08708
41.1852 49.028 119.45
58.0509 28.5964 130.918
26.1757 2.1669 114.226
40.7847 186.551 209.416
51.7077 90.2391 111.169
79.0551 147.855 143.506
20.1576 141.199 240.444
41.1544 52.4516 12.8452
63.5462 10.6899 52.2424
71.1171 21.185 95.5246
46.5473 49.527 116.864
68.5645 85.3957 132.011
47.1885 204.741 41.643
12.8904 129.582 142.032
41.4961 19.5601 133.469
31.632 40.0663 92.7329
76.2973 147.99 150.12
48.4764 184.263 212.808
20.6717 138.111 149.704
79.1889 147.434 121.604
38.3568 96.7005 119.624
17.9529 6.85195 178.269
25.4719 18.285 216.153
45.8507 210.676 52.0921
20.0848 21.9081 29.96
73.6522 23.6044 105.862
37.5288 223.606 51.6431
39.8556 118.009 88.2173
24.34 43.1481 98.9435
37.046 42.8514 57.3668
67.9251 66.615 85.083
36.9773 2.84721 123.418
55.4165 41.1771 126.166
47.5455 166.9 136.667
27.3454 55.4403 4.16153
30.4245 123.825 127.271
54.0128 129.871 90.7599
62.5136 3.95494 108.011
55.675 20.3397 131.206
52.7688 127.358 162.369
39.2873 40.3754 126.566
46.7125 58.5183 16.2194
42.603 42.024 33.8434
66.1915 90.9185 72.0254
16.6403 222.615 97.6245
30.2981 19.8262 135.089
37.6703 145.605 157.128
70.775 76.9363 100.776
47.9981 133.266 162.535
23.0971 4.6138 95.8405
38.1977 147.542 94.681
15.826 220.763 59.7862
14.931 18.2235 115.029
41.3679 99.8609 94.5966
20.9447 124.967 128.192
13.0071 31.2673 117.742
60.5112 127.978 91.0655
38.9093 160.859 106.531
31.4245 226.442 71.8324
22.4324 28.1058 80.702
63.9134 34.5566 107.015
36.6633 154.994 97.7342
59.0579 162.844 143.089
50.3163 30.0219 38.7838
19.7465 134.408 248.272
34.8097 178.303 209.292
12.0189 113.501 130.965
25.7104 20.4733 205.555
40.5095 103.655 130.532
61.0588 156.519 107.151
72.5287 153.491 134.19
55.5531 156.389 154.645
41.3684 5.08679 190.003
62.2166 11.7403 28.1995
112.354 226.674 117.593
17.1985 40.1878 100.862
16.6716 16.4815 107.333
31.6456 126.1 92.2316
60.2297 24.1619 46.6326
42.889 139.049 160.606
49.4692 45.7131 60.877
47.6512 161.248 118.543
20.8327 194.278 267.758
61.1733 41.1863 111.752
55.1202 155.547 97.8076
26.2031 7.04491 224.164
28.6933 108.858 160.853
82.5073 134.706 150.765
63.6627 74.4079 28.791
44.5657 88.0436 80.3415
14.3825 3.3588 6.79845
25.3874 100.345 112.494
54.0931 47.8713 29.3425
32.7569 141.967 152.486
17.3418 131.886 148.62
22.8937 8.48587 111.558
29.6879 145.455 128.151
33.9404 54.4627 44.9616
52.5757 42.328 102.723
57.9538 32.5328 36.9686
32.4236 94.3783 110.896
100.884 228.146 109.084
69.7829 19.3536 23.0077
25.2764 46.9723 119.173
17.8541 29.3692 29.5624
16.7524 124.492 112.579
15.5566 176.669 174.748
67.4309 96.8336 114.31
24.8228 131.102 55.0637
32.6427 158.881 129.713
18.4811 34.0388 126.524
27.6974 155.595 123.047
63.2995 8.22187 35.197
57.4539 84.148 122.81
19.3466 2.18652 2.46152
27.9119 153.24 133.657
53.1281 161.838 147.252
32.858 230.311 18.8144
47.7493 77.4829 77.1768
49.0909 96.3625 146.902
23.816 109.071 111.737
17.6846 43.5269 109.655
47.9354 22.858 134.054
15.7686 77.0783 99.3103
76.1087 158.116 76.1891
24.3323 5.27436 87.4966
26.8216 82.7658 13.0595
47.4826 126.325 165.432
86.4184 125.767 139.327
55.4006 12.9987 38.5807
28.3594 1.86556 23.2093
26.3665 19.6072 195.244
37.7765 17.8077 32.5985
86.053 118.265 172.116
42.1614 10.8938 37.8788
26.441 137.321 111.365
45.8641 89.1298 133.22
61.5218 89.7604 139.111
44.2262 63.7405 10.165
19.4494 204.772 4.63857
63.8466 12.1004 2.93758
39.6086 14.8253 192.205
56.4327 60.7901 2.86374
62.0704 161.818 124.88
44.2748 2.63739 121.233
75.4491 153.102 145.401
60.2344 22.7988 124.163
60.5008 37.5048 121.061
18.9154 18.4389 93.3834
65.6645 21.3607 119.159
47.5683 19.7568 76.3685
21.4773 221.967 107.54
47.4199 127.22 87.846
48.7056 209.793 32.8276
85.2844 136.744 136.431
75.2682 45.9476 2.27941
16.8399 134.329 122.343
65.1037 20.4179 99.3612
16.7955 47.292 34.7319
47.4708 81.1085 96.8344
57.2451 3.993 38.0301
56.6216 54.3918 6.89966
41.7904 129.595 89.0963
59.3211 26.9149 32.6418
56.8506 64.1457 76.6096
72.0251 94.8525 107.105
28.4223 2.31389 83.2797
73.9245 3.91623 54.149
13.4047 5.92424 17.5315
40.3534 11.1085 197.809
28.0232 103.625 100.527
79.2594 100.438 123.054
72.4704 94.3765 92.5574
37.236 123.197 90.5795
47.0581 91.8549 85.9825
44.8519 114.574 87.0325
55.4088 129.488 170.245
36.7606 7.12797 221.684
22.9627 125.384 110.398
73.2932 153.157 124.987
83.8528 123.807 118.075
14.1405 229.207 56.6508
41.1702 162.037 169.293
16.2985 199.673 272.046
65.3379 19.2044 91.0442
25.0927 35.633 92.8461
35.4315 134.662 91.3915
35.8035 9.65867 180.101
21.3504 204.754 271.648
37.2297 17.1444 202.821
25.24 49.5474 8.87173
56.4121 13.7545 126.805
17.6386 208.483 27.3807
31.6944 2.69306 218.766
55.469 161.057 104.626
71.7456 95.7956 137.324
57.0051 149.129 93.6685
81.6462 31.1962 6.94781
61.936 34.3802 94.304
29.8596 12.7017 78.4246
45.9387 65.626 2.62921
50.373 47.312 109.889
83.0093 142.555 148.856
31.9407 15.8314 186.828
32.995 2.03539 107.698
49.9879 149.692 159.782
65.5875 54.7971 10.1108
28.4904 134.491 127.431
70.5938 10.0503 112.126
64.7499 148.808 100.468
25.3969 188.431 21.5367
14.646 14.2456 27.1564
20.3355 115.93 103.618
39.1591 121.131 153.391
38.2645 93.7559 140.837
49.3095 87.4011 119.534
18.1233 145.567 119.034
31.7783 59.4649 7.69559
18.0552 109.129 108.801
25.8284 223.417 98.3792
34.7566 39.1508 87.5952
71.3202 77.1534 13.6901
52.1657 76.1242 101.773
43.1884 221.742 271.756
69.451 47.8549 13.3838
47.1553 159.739 149.038
21.5817 18.5973 129.818
58.2041 93.8115 143.873
26.1919 105.03 106.69
45.7612 106.759 157.424
62.1091 12.7389 89.1664
44.8629 218.137 29.1106
74.7029 27.0658 17.5335
18.2755 145.265 128.568
156.228 35.6156 162.086
43.6614 153.396 97.8196
79.7709 25.0894 13.6539
30.9202 211.124 47.3721
12.0056 109.081 149.356
61.7913 135.431 168.564
69.2409 4.96201 29.8088
59.0973 95.4064 126.732
40.6584 159.662 144.524
68.5479 158.454 143.722
65.1896 111.139 95.8639
13.072 134.53 130.846
27.0355 220.666 112.83
83.5069 23.1725 6.04116
48.3971 6.49924 208.444
65.764 31.0855 117.559
61.304 135.054 94.7519
21.052 1.61002 11.1944
37.8675 221.518 268.446
20.7411 26.9228 93.0105
35.099 18.2586 76.2679
31.2429 133.251 150.326
52.8201 1.96551 77.1729
48.349 33.7696 84.4284
37.3697 119.105 160.151
50.0432 229.215 220.751
28.1017 215.565 119.504
15.2274 227.756 70.761
71.685 17.7152 105.464
63.28 92.1315 107.764
18.2082 117.042 109.856
43.044 218.642 212.355
65.2907 7.88628 116.62
45.1471 1.72796 204.69
62.1753 29.4302 111.785
34.6995 65.4556 2.27569
72.4575 87.0782 98.3446
58.3723 63.0949 96.3549
41.6338 30.3527 79.4984
74.8936 85.6684 89.9961
10.893 9.01262 217.861
57.7373 163.487 133.703
11.6638 118.225 136.887
53.3853 90.4082 135.138
41.7688 207.99 32.3113
29.396 113.5 153.45
51.9352 163.172 129.898
51.4701 218.683 36.1753
70.9111 120.967 100.781
13.9435 124.614 118.977
31.6672 46.9733 100.34
41.3877 223.175 217.725
24.2316 141.588 127.953
25.5371 116.319 93.9174
64.9597 81.4441 24.3571
47.4769 164.311 110.742
10.6477 1.65816 190.673
49.9401 39.3812 133.422
35.4884 102.745 96.5014
11.4779 11.7761 198.823
34.3542 58.6977 15.9922
22.8697 186.23 14.2943
68.7662 68.0652 41.2746
12.0566 21.2366 70.5929
14.4839 44.3045 43.5269
41.0036 152.258 152.647
50.1724 40.6785 36.7675
21.7014 142.831 139.976
48.3532 102.233 91.839
20.7305 1.5193 175.899
26.975 104.076 147.631
13.4698 135.993 137.823
16.767 123.609 125.791
79.7909 129.603 157.804
65.3831 114.204 161.47
73.299 49.599 8.30863
55.8034 17.7005 35.396
51.8289 32.0724 133.701
81.2618 111.537 154.669
25.0202 137.894 118.222
44.7041 81.3289 89.0057
60.7253 158.053 147.784
15.8948 9.22846 216.279
64.4198 59.0228 2.63848
67.8338 159.28 118.397
81.0453 15.6682 9.09229
13.5758 1.41648 179.7
18.6213 222.333 51.173
30.9945 218.861 39.4709
71.0997 29.9331 104.615
38.0444 91.5603 115.075
65.9863 82.5504 103.737
63.3391 35.9654 100.36
30.9411 156.192 140.081
14.0287 101.633 143.176
29.3741 144.658 111.251
54.7877 42.1341 111.2
46.0037 71.8859 80.7419
79.4861 121.128 107.903
23.8975 149.271 116.346
70.9215 112.138 153.038
52.2138 1.98914 204.629
29.2508 147.242 143.351
26.0997 120.618 98.5362
26.0815 7.01775 24.6693
53.7854 62.3502 85.5239
19.9517 230.238 75.2189
39.3773 107.568 152.889
58.9114 29.6043 121.621
58.4492 11.1543 80.5677
82.9732 117.248 115.492
85.2456 72.1967 74.0505
47.1689 8.41036 129.641
47.6511 47.7197 124.425
49.9993 13.104 35.6269
86.2946 117.258 149.111
152.037 43.5264 169.232
72.1932 91.0027 81.6282
58.6758 87.8308 115.097
39.1998 161.338 119.47
60.9721 127.963 167.749
50.5073 116.811 90.3316
23.9174 1.88049 219.388
85.6992 123.416 127.634
65.9224 158.72 133.199
77.1463 22.9601 24.7197
65.2825 17.4999 30.8837
42.4891 45.4289 95.9465
50.9003 98.9747 131.609
19.7368 134.524 131.347
18.6775 13.655 187.096
79.8599 101.619 145.498
70.4169 113.207 99.9025
36.9487 136.676 155.443
16.6612 215.949 43.2161
26.315 140.758 139.558
75.4014 121.14 158.958
35.1294 95.5082 103.545
72.4931 110.561 159.689
44.6977 104.588 140.297
61.3431 97.9171 74.8954
34.9088 115.314 129.451
48.0984 118.66 158.909
23.138 51.0872 1.48603
12.9032 155.621 129.005
90.5405 5.97767 2.1644
23.4719 132.193 106.071
54.7529 110.697 92.5555
44.8895 70.815 88.9662
34.3129 158.757 120.713
59.5113 103.737 154.639
55.9195 47.6202 21.1599
20.2124 46.0377 10.3239
35.3456 17.9704 38.0178
46.7116 54.292 23.618
61.3715 29.7398 90.8189
62.7384 98.2421 147.34
57.8788 110.766 160.465
59.4113 105.956 93.412
64.1783 48.2417 20.463
23.2059 2.58905 20.6112
57.4206 163.496 115.789
62.8625 14.5067 123.207
75.547 128.556 107.259
19.5302 11.3676 102.218
77.806 150.433 138.47
37.2902 228.729 62.0654
52.2854 52.729 14.0405
23.2664 131.091 141.771
80.2086 149.718 63.3838
49.5627 99.9976 154.227
51.9224 2.77287 35.2263
38.2635 42.4408 30.1262
76.0328 139.395 156.834
51.9556 1.50322 120.155
42.3099 93.7277 145.477
23.2986 15.1154 85.159
31.8759 204.52 273.562
120.288 221.998 155.418
25.3592 204.908 270.994
27.9684 139.969 147.735
61.1505 21.2536 34.6102
66.5142 81.9079 153.154
72.8571 104.815 153.403
28.9094 54.7637 13.5342
16.9919 43.5856 2.87723
61.0732 6.54082 89.9354
13.266 122.358 99.2688
21.4823 12.7865 91.5481
37.6756 228.935 45.0228
81.2942 6.63344 17.2258
36.5471 223.663 30.0546
81.6588 122.627 154.152
110.126 217.363 155.421
63.354 87.0158 125.75
48.3885 159.665 99.1325
63.6697 100.285 130.705
72.7425 42.149 19.409
69.3684 97.3385 144.79
71.2767 143.963 160.528
79.5919 104.709 107.605
71.3603 129.245 97.0581
154.568 38.9575 179.136
70.3701 18.6298 114.42
13.9969 34.4252 50.6613
54.6619 91.8722 126.143
42.7665 4.73971 36.0069
78.9966 112.105 111.613
32.497 96.6227 118.544
61.8119 42.9089 28.6851
123.139 216.76 138.276
33.8271 154.985 108.824
53.5275 88.8714 121.028
43.8655 98.7515 143.629
47.1563 154.338 155.155
54.5333 3.61885 108.491
59.3244 5.69451 117.307
72.1049 14.1813 31.7195
95.4159 230.237 108.597
44.0407 44.7019 127.622
56.1598 119.305 164.659
63.0509 110.123 153.943
17.2963 154.759 114.359
43.1176 97.1695 103.807
27.1042 1.75459 238.847
51.7637 64.8575 10.952
12.1963 103.262 149.405
47.2396 112.736 160.422
30.5327 119.068 97.5229
62.5921 72.6054 70.6199
73.6303 11.5003 23.8732
57.9178 97.4725 85.1946
80.9729 10.5566 25.2954
63.5262 141.654 95.8332
163.998 152.118 132.573
36.5259 1.52271 116.241
58.0792 76.7901 103.82
34.4311 186.42 273.81
22.1117 124.964 119.23
35.5587 219.192 273.11
14.2617 4.64188 220.639
70.5098 34.8066 18.0392
47.5761 49.8526 29.4317
83.7188 129.336 137.068
61.1855 14.4343 38.0496
70.6682 139.683 98.2763
48.2864 14.032 75.2522
71.2257 38.9758 33.6688
80.5183 67.2238 12.8298
39.7128 204.258 45.9162
77.2244 152.957 118.839
78.2817 139.503 114.341
22.7901 42.5406 46.2578
67.2307 94.2924 76.0698
68.2647 14.9545 97.9787
16.8755 187.092 272.748
13.7004 194.309 274.481
98.2947 119.719 137.25
12.8786 15.5446 1.25046
87.6911 128.551 123.142
52.4605 218.317 45.9799
28.552 153.949 112.508
46.8314 72.7964 96.1155
71.427 104.727 106.136
75.5856 113.431 102.429
79.5721 73.1711 5.2602
10.9488 143.772 126.459
72.5718 96.789 151.111
26.1995 20.552 80.8075
48.5779 1.38324 195.485
84.0202 134.157 126.364
69.5025 90.5719 126.639
46.367 227.495 46.1742
41.3151 212.606 272.321
37.1945 158.606 137.495
12.2086 104.251 153.227
40.8826 217.609 54.0614
27.2833 131.009 155.527
38.9004 96.0736 107.769
84.855 120.074 142.006
97.3412 14.4426 5.64297
52.297 94.911 89.3469
70.1488 156.676 150.077
65.8412 28.8476 100.083
32.4111 210.612 34.2488
78.4311 34.457 14.0899
41.3526 108.671 96.7895
60.9022 42.0517 105.232
84.0102 17.8993 19.3946
82.1031 112.8 135.307
46.7608 15.7597 40.4476
59.3558 30.3451 50.2535
59.8843 2.16916 95.3138
85.7627 136.536 119.643
61.3731 2.52274 31.3838
12.4517 148.258 118.105
59.1645 3.41753 81.8911
42.7981 225.82 204.472
70.4185 151.802 154.966
47.0535 231.239 217.75
37.5353 1.32058 80.6953
70.7289 27.25 43.5742
60.0896 89.4665 129.004
50.9322 143.242 162.41
48.85 106.824 151.829
80.0078 11.7076 15.8884
31.6271 184.128 203.396
34.6003 187.342 205.468
89.3562 112.79 135.617
43.168 77.4087 82.8764
27.2067 1.99783 104.027
70.2829 87.8079 117.345
17.0576 134.602 142.423
77.3158 138.178 107.295
48.9224 84.6402 139.012
71.6561 161.225 137.48
54.0267 155.412 169.281
39.0108 209.172 52.7599
92.6483 8.80507 6.25997
11.6384 105.68 140.35
71.217 81.5244 110.431
20.7345 9.36364 88.8765
31.2509 225.877 38.4163
19.1744 139.482 115.174
67.4692 91.6918 98.777
19.7764 39.9871 45.6557
72.5412 21.3148 111.799
68.1663 48.1507 25.0479
67.0267 16.6386 50.3094
64.3922 141.694 174.361
63.7203 36.0979 31.4741
26.2853 62.7448 1.21784
61.4729 84.2674 151.178
63.7812 90.9009 117.567
77.4116 102.015 116.21
37.8233 231.373 67.5617
52.1386 18.5497 4.21482
50.8702 162.65 137.35
70.0033 22.7159 122.641
13.8776 102.177 160.029
36.7248 161.137 113.345
65.6695 1.1487 68.1349
29.056 1.52638 36.5088
18.7041 134.754 137.241
58.9127 81.384 145.199
56.7691 103.347 147.414
77.8116 82.9863 133.707
51.4864 82.9725 133.575
75.3359 144.043 106.198
19.1731 150.397 250.871
167.615 141.594 128.945
90.627 83.9806 81.6492
27.2908 1.08752 91.3174
21.7982 215.192 44.8836
66.3739 41.6729 23.1147
90.1073 15.5635 3.15656
68.2437 51.7361 1.51443
49.8334 102.939 148.064
81.0832 154.63 110.086
21.414 228.942 48.0223
38.7134 18.0539 2.07522
60.9561 37.3462 128.311
44.2706 105.765 145.193
68.0296 1.50261 35.9264
61.5008 217.112 251.552
87.2455 108.645 116.053
36.8963 217.12 28.4942
65.1185 95.7797 93.7792
47.6748 94.4142 105.834
68.425 98.4382 84.9955
76.4965 29.6703 26.9061
168.368 79.6978 173.382
40.7809 56.0834 18.042
54.8259 141.612 165.341
87.7998 21.7455 2.09387
14.9685 149.833 251.519
54.3923 82.0352 102.782
59.5808 16.555 119.318
