ply
format ascii 1.0
comment Created by Open3D
element vertex 1016
property double x
property double y
property double z
end_header
9.25921 132.41 174.771
30.2766 151.684 118.663
4.42577 150.428 144.833
74.6386 77.8218 147.217
46.669 170.075 155.124
39.8929 102.356 143.38
44.4074 103.989 89.6365
5.60093 139.015 166.199
10.1538 144.974 148.491
5.85815 154.386 152.374
35.5311 96.6321 151.727
32.7962 206.941 146.995
49.574 90.0979 164.853
4.40619 135.015 141.487
74.4666 69.2009 132.993
22.0082 208.754 116.823
4.33412 143.347 135.175
41.2389 112.97 161.164
27.4274 103.176 119.607
77.2414 107.357 74.098
54.8901 63.1242 147.776
44.2691 159.376 121.65
21.1016 99.2723 132.102
7.35394 131.414 128.904
16.6149 103.83 129.667
64.3435 65.2884 149.953
79.5476 89.5984 95.0318
27.7261 159.57 122.103
26.8732 113.353 136.563
38.4877 80.1501 145.369
6.46709 160.291 171.763
105.669 91.6328 75.1195
55.5052 145.661 173.52
61.4668 146.655 182.664
8.29084 131.53 136.932
58.6173 83.2998 116.668
25.7706 97.7275 106.775
40.4201 167.855 118.619
65.4275 76.6131 166.62
66.5582 190.519 98.7076
6.48184 143.276 173.077
27.7081 187.9 168.261
60.0993 136.09 153.321
41.0808 113.038 140.072
29.2811 159.439 111.77
7.21428 170.578 116.848
32.7046 111.779 135.241
29.2974 211.109 108.697
43.0827 109.697 172.523
145.912 9.56918 23.3743
12.2407 141.662 136.66
112.608 107.618 67.3941
49.1696 66.7006 148.238
53.5311 175.351 199.479
27.2917 130.78 116.402
4.72013 192.002 142.176
12.9161 124.361 138.866
66.8725 111.659 146.698
28.9749 103.504 160.258
28.3905 95.6005 140.467
22.1369 159.045 164.785
72.0405 131.372 72.9189
38.999 207.164 99.6289
79.9944 127.711 71.1077
29.3714 116.669 181.391
77.2362 93.4388 119.871
24.6663 149.429 189.765
12.3396 137.272 145.047
40.1864 101.247 163.551
28.2776 92.6239 115.046
26.7829 178.203 127.96
9.87182 140.655 118.665
38.8758 168.525 108.419
22.0425 95.1435 148.036
61.9574 68.2777 166.479
14.755 110.786 161.183
14.8254 158.524 175.675
13.6789 128.064 178.594
22.0689 140.261 168.152
56.4809 211.617 120.633
56.6697 204.2 132.435
60.7368 153.934 187.315
27.3459 122.236 113.119
49.1938 128.539 179.441
97.4072 130.353 63.4304
18.4662 146.259 162.931
40.8766 213.139 143.476
5.38504 150.143 169.982
66.8314 164.797 177.268
45.7859 102.515 151.021
5.1168 130.775 165.977
66.1152 101.651 150.781
44.9229 71.8071 144.657
78.428 128.559 78.8862
38.2219 102.221 93.1762
113.502 99.868 70.1157
35.2869 127.838 121.547
101.356 140.111 63.7908
28.6792 86.8483 129.469
14.8854 139.658 167.87
41.6543 218.286 115.814
17.755 118.938 143.852
4.96527 158.951 161.557
44.627 83.0911 161.01
47.015 95.5354 94.0909
48.4424 142.714 86.4683
52.2114 126.804 110.438
116.159 93.0982 75.2143
41.562 169.243 127.543
58.6859 188.433 93.541
60.3972 191.825 176.62
11.4095 128.791 112.936
22.7442 116.39 159.525
37.3005 167.376 149.721
36.4974 110.252 169.042
53.897 130.924 88.2144
47.3545 173.294 105.996
34.8449 93.1244 170.315
11.2049 136.46 160.391
58.6795 67.9047 132.587
15.6316 169.617 104.982
94.2648 82.3624 97.6033
23.7736 110.447 157.917
9.43154 179.305 144.437
41.7048 125.216 101.477
59.9134 170.243 130.33
18.5275 163.177 96.0706
25.9575 89.2726 160.58
91.1122 113.9 67.6128
31.9122 157.567 180.467
53.0217 215.908 113.171
56.9993 91.0139 166.583
14.9384 113.36 150.948
59.0032 105.652 138.654
78.0264 118.271 102.581
44.5442 89.4693 100.572
16.9066 131.744 152.751
48.1615 186.986 196.914
21.7803 130.522 163.349
91.272 86.32 109.557
73.9714 115.896 74.0426
30.2992 113.244 170.291
50.626 123.308 169.975
58.5663 138.091 174.598
25.8849 119.434 170.691
21.5461 152.63 182.447
98.761 150.37 64.8979
26.2685 96.6434 164.95
57.8027 76.774 170.836
7.93562 149.928 123.133
79.6306 75.6111 139.113
3.82827 160.727 123.698
6.18352 153.903 115.368
13.3536 198.925 167.283
5.30509 140.42 155.839
17.8039 120.617 162.21
29.9634 77.927 148.075
118.326 87.5876 100.022
57.9295 73.1195 124.541
38.5378 89.7477 149.213
38.6906 134.519 97.6496
60.0717 136.605 182.08
100.608 82.1204 91.821
23.3634 121 132.705
66.4889 62.1172 139.33
31.636 105.493 93.7606
62.6731 137.002 104.955
25.2333 207.038 159.066
84.3019 147.647 67.1402
35.104 173.777 115.713
60.7228 171.561 200.437
17.245 149.115 106.752
16.0395 204.655 163.353
63.2472 169.209 94.0746
24.3358 92.5756 133.151
28.8431 145.962 104.633
80.5101 96.0084 80.952
72.6175 77.2146 161.668
72.7659 148.373 110.323
39.975 186.158 199.471
13.6384 148 132.632
5.62335 190.688 158.655
30.7928 177.869 148.056
16.0402 151.748 125.898
29.9317 154.794 93.3687
53.6931 154.496 193.283
34.2309 85.2328 131.752
106.6 152.082 64.9367
71.8785 126.316 179.993
34.2277 116.902 122.869
92.5276 148.306 107.635
66.7589 170.043 102.678
11.8746 116.143 135.254
54.5677 134.458 106.6
42.2905 180.829 131.456
46.6368 174.812 201.332
15.6054 155.793 101.201
44.9045 180.506 179.863
66.0072 94.7512 165.137
17.0278 188.396 128.43
82.3611 138.791 170.749
53.9502 115.035 181.053
5.80253 169.813 168.617
41.2472 166.781 135.665
36.4115 89.1292 109.654
6.65592 195.265 148.68
32.8686 151.643 189.109
45.836 137.103 100.103
108.093 84.0274 85.0227
48.4505 114.793 140.248
112.245 119.789 64.2398
102.764 87.4741 80.3837
57.1527 170.396 101.85
71.8362 87.553 166.167
8.73028 163.458 105.9
5.11342 146.321 160.353
60.786 153.803 125.542
12.4532 153.007 110.647
36.4301 220.413 128.76
75.3634 109.58 135.733
5.11889 184.776 151.233
41.9235 134.783 182.546
49.1859 74.2034 123.24
34.3733 164.387 123.589
13.8408 142.266 181.102
75.8776 159.562 174.112
110.303 83.888 93.4539
71.1057 132.401 131.12
28.2414 118.032 107.645
34.9047 196.749 167.777
14.7742 118.507 104.135
36.8794 123.106 174.412
45.8404 190.816 185.735
64.9926 110.505 107.128
37.8952 95.001 140.357
23.5907 102.165 140.195
69.0338 120.727 121.879
45.1155 221.536 126.748
4.52775 166.101 137.161
54.1595 157.578 201.961
16.3723 202.873 140.84
73.8375 71.4858 153.961
36.856 216.201 138.311
26.4587 132.118 99.6435
30.0991 176.053 161.286
20.5835 139.406 107.287
67.5693 153.032 192.724
50.467 169.218 102.096
33.982 85.4003 115.868
8.94473 133.176 150.877
81.0995 116.083 67.898
68.6881 110.296 170.141
16.5559 174.298 140.281
67.1343 109.112 139.653
61.8504 102.782 172.207
46.118 147.502 197.648
16.8299 110.03 118.229
57.973 113.377 142.16
50.0358 205.679 92.8014
34.6683 170.721 198.323
42.326 99.7792 135.609
36.9332 187.419 92.0098
29.2548 118.58 95.4545
58.7812 189.345 182.615
27.0571 137.926 104.272
8.56253 123.14 126.832
95.0422 89.6688 74.2025
17.6525 170.85 173.598
20.7439 140.363 185.445
81.2122 136.164 67.2976
40.9164 95.2211 95.5015
58.4654 217.393 142.11
40.6043 180.503 156.106
66.5981 69.7682 158.645
80.5291 92.4169 107.904
9.20088 182.483 117.894
25.2683 106.974 169.239
69.4662 121.433 101.345
15.0063 137.03 113.524
31.089 172.818 153.854
45.7346 217.905 136.704
34.6428 116.083 91.5345
68.0228 156.79 178.371
22.3017 184.775 173.606
94.0371 123.751 68.5863
10.4795 160.073 118.873
61.4199 134.339 121.803
46.4626 75.0978 163.891
69.7367 111.391 122.573
42.601 119.655 173.125
30.0024 187.03 94.8546
64.6481 81.7293 124.612
120.404 109.821 70.2223
6.84938 196.805 162.821
114.798 85.7258 88.9651
57.7038 116.723 133.999
45.0064 126.833 121.588
51.2986 126.532 192.43
16.1475 204.563 148.764
68.4954 159.328 115.172
48.2883 166.35 92.3879
38.5645 202.776 115.563
32.1829 99.1917 100.174
46.6851 102.158 173.973
106.743 97.643 68.7636
50.4132 155.274 119.79
32.9466 131.427 102.196
77.4961 130.055 120.818
39.0809 112.188 93.1724
20.2414 105.335 122.061
62.1287 84.6509 166.96
73.2813 64.411 140.447
136.795 84.0945 21.7992
75.9984 108.143 101.796
22.4994 111.703 176.216
25.6139 87.0944 148.772
128.098 105.771 78.0551
37.2347 207.925 106.894
33.3023 211.55 117.672
37.5428 101.698 127.071
30.961 136.903 184.826
69.8784 74.0528 131.12
11.1718 120.494 145.12
66.5198 81.9397 158.944
9.89386 150.042 176.133
64.7794 141.469 84.262
46.0596 104.786 160.625
64.9546 99.3528 100.291
68.2324 100.816 126.029
18.1038 105.174 110.381
36.584 136.377 181.386
4.78355 123.169 141.681
51.6421 65.1535 136.788
12.0045 123.217 107.898
75.8665 108.256 81.1766
21.0474 148.093 122.604
34.5324 175.514 133.589
49.4122 208.279 102.576
42.4903 90.1912 112.695
43.5081 131.481 108.765
65.0646 156.653 90.7836
42.8903 192.494 90.1636
28.9449 166.494 171.135
73.3074 144.354 151.061
17.8251 119.373 174.312
37.4369 138.622 90.2936
69.0606 122.655 111.242
59.3048 61.8962 137.307
55.3673 126.375 102.886
19.9838 131.463 113.66
16.5167 132.074 122.842
34.2046 181.48 193.776
5.22972 162.939 132.927
58.2872 86.5894 109.637
54.8107 209.441 111.383
43.2054 84.1392 117.246
68.0694 168.966 187.552
64.9925 106.257 97.0153
63.3754 165.91 203.712
74.2612 104.606 153.125
11.4814 140.846 125.942
74.4765 100.314 148.896
48.9301 155.094 172.857
7.61083 126.605 147.35
65.9724 126.345 75.9531
65.8145 78.169 129.038
60.7438 164.069 172.011
47.3766 139.742 185.882
53.3383 110.9 134.25
35.8694 147.943 94.7901
66.7527 138.129 137.619
56.9521 81.0001 123.101
18.3735 185.444 135.574
12.28 122.44 150.905
85.9578 104.519 67.5156
45.0867 206.776 114.631
61.8707 181.425 120.934
48.3955 137.153 196.167
16.212 208.372 155.69
39.0207 84.4215 164.599
62.957 143.914 121.677
38.1709 135.373 116.819
54.5389 169.002 123.663
39.2218 187.321 188.585
6.35586 122.37 169.088
48.4445 189.664 86.2219
49.6611 157.893 90.3298
61.1712 118.423 79.5573
9.73428 115.465 155.865
36.9061 113.767 179.408
40.7924 108.036 129.77
43.0867 89.4186 167.947
60.3924 176.001 125.18
68.6096 122.937 131.754
44.6007 78.1182 120.989
36.0033 82.901 123.219
35.3492 105.935 151.179
45.5146 162.641 164.659
7.85329 180.534 125.613
50.4536 162.803 199.41
75.4437 66.934 147.046
55.7711 141.727 118.135
40.1637 97.55 121.839
35.937 106.302 176.762
79.4021 83.9927 129.015
14.4227 174.225 159.435
25.5532 163.496 94.6244
64.0926 105.971 130.783
70.386 134.429 106.648
48.1045 164.579 86.26
90.5309 84.4492 88.8744
24.8711 150.783 103.982
42.8221 165.046 199.179
55.7494 151.054 165.17
19.5374 100.677 154.961
13.833 126.151 133.442
56.3366 130.684 177.53
35.6148 141.729 113.876
54.6852 161.449 170.639
57.6239 194.485 94.928
41.2624 144.96 88.4476
56.4387 175.873 108.223
33.498 127.686 186.011
40.3977 74.4724 152.76
67.3444 212.488 134.981
25.0063 165.211 115.495
16.4247 121.078 129.895
38.2857 160.307 88.7459
9.67926 157.678 130.115
23.9027 173.404 138.602
74.617 99.6371 82.4546
16.4947 111.472 128.163
65.715 179.068 94.7857
86.959 90.6234 77.1066
57.6077 64.2314 156.063
19.6474 174.898 101.774
54.0327 153.271 96.2445
18.6949 161.494 184.161
63.6323 201.379 124.791
100.269 112.278 64.3608
68.9074 185.786 108.048
74.0052 123.775 166.269
43.9396 208.553 151.383
76.4536 82.5814 154.582
41.3058 199.654 90.8224
56.509 128.52 81.1732
33.4825 197.939 116.942
9.56643 118.347 117.118
72.3154 104.782 160.63
21.6391 142.519 116.276
70.6476 132.447 117.168
57.2912 95.2162 123.051
73.0436 111.535 92.2904
67.9274 140.994 194.145
33.4389 82.0711 140.407
32.9548 198.955 106.927
54.262 91.6848 99.6092
23.9047 158.071 190.32
11.7195 174.154 170.946
43.3126 126.302 113.899
68.9239 180.661 194.071
5.05238 124.162 162.487
67.9266 109.217 161.985
28.6895 211.644 138.709
35.7656 185.22 108.81
49.5981 84.1453 125.511
50.9603 105.288 138.264
19.6733 130.221 100.189
73.8962 179.215 118.991
52.0691 187.356 191.685
75.1873 87.0352 148.313
24.8303 200.349 167.365
92.0345 139.658 63.5052
58.7989 177.735 134.115
49.0191 108.67 164.684
60.5944 180.303 99.068
67.373 116.142 171.246
31.8527 137.733 97.4764
45.6372 121.189 129.062
52.4007 80.5929 165.064
36.6774 173.377 179.984
21.9679 106.034 147.481
64.0613 96.7749 107.975
27.62 126.914 183.234
29.4117 144.487 182.683
61.551 119.033 181.272
46.1595 132.134 187.036
36.5204 157.638 119.833
37.9014 79.3103 138.018
47.244 197.748 129.854
81.8407 139.845 73.1902
27.2805 87.1842 120.456
35.1081 80.4373 153.962
75.7236 155.223 116.889
18.9448 177.876 177.121
23.3829 146.957 109.516
53.042 132.545 119.961
73.5089 116.384 150.295
55.1743 100.738 164.426
33.4585 101.042 170.869
59.8351 127.008 98.8749
53.7316 151.916 74.5996
54.399 146.335 181.746
83.5808 161.819 167.151
45.5113 209.625 107.195
29.6428 179.693 101.407
50.3762 183.06 90.7229
21.5844 194.768 110.811
17.1266 159.191 134.477
83.3809 120.459 156.291
75.7187 180.483 157.995
32.5268 93.8114 105.267
57.6578 145.841 101.202
80.4743 151.13 109.57
13.9471 187.903 113.541
33.6475 181.885 128.904
21.2432 156.106 119.401
75.4952 149.333 77.192
81.3152 117.892 147.262
31.9572 110.303 163.436
62.3643 100.089 165.481
75.2728 90.9727 144.128
60.9873 160.63 152.876
79.6562 100.271 128.32
39.1195 176.394 144.371
49.6987 141.264 181.234
39.05 113.81 132.773
45.3476 71.5966 155.515
58.7701 115.173 162.852
26.9109 183.884 147.19
99.4234 118.86 64.3111
48.1082 96.3814 129.748
43.7535 177.025 88.7418
3.81295 165.547 146.444
5.63665 145.712 128.357
83.3433 84.8986 90.9268
30.2542 111.688 101
15.7558 153.46 117.516
36.4809 142.755 186.324
13.4511 158.078 150.154
77.7819 122.699 150.167
100.738 100.715 66.1613
64.3335 111.922 119.212
81.9478 87.7804 83.0466
68.2153 142.223 74.6918
30.1783 170.612 118.818
85.1201 131.063 133.056
58.3329 141.376 162.656
55.9059 105.374 128.915
84.4987 93.6253 138.635
50.9152 190.715 137.039
39.0947 187.473 120.258
14.9334 164.991 169.916
55.0901 182.757 122.904
70.2542 208.704 125.871
78.6858 94.9065 88.7395
50.7029 149.903 116.049
13.9729 184.605 168.303
44.5588 180.652 142.55
72.1566 150.737 183.524
32.6332 181.882 121.309
42.1317 154.111 99.5944
79.4907 97.6295 138.977
68.3931 117.026 161.781
11.3644 117.517 171.748
95.0841 85.4902 83.7833
28.0753 204.443 116.852
35.8336 180.234 91.8228
16.4518 176.885 112.293
81.2402 100.457 72.681
16.2691 154.836 157.579
12.3614 161.06 141.973
58.8979 163.641 104.603
81.1989 135.851 164.533
44.7132 185.171 92.5017
43.0207 196.702 149.904
53.3554 219.977 123.068
21.6197 120.232 98.1772
52.3526 161.639 117.252
57.7279 163.867 95.4277
75.3873 95.6567 99.0955
71.077 152.37 172.852
69.2727 130.235 187.043
26.9906 174.226 99.2628
43.3998 146.403 188.678
14.1724 190.92 168.438
81.2507 89.4723 147.409
57.244 186.172 188.53
41.1585 140.925 185.877
41.9935 95.5121 170.098
43.3119 161.698 115.37
88.2865 133.958 62.9207
57.129 189.7 130.765
62.7069 147.723 148.865
20.9672 94.4575 121.705
54.9722 175.926 91.5019
34.4257 183.498 183.233
55.8331 126.981 129.333
115.537 115.541 69.7377
33.1184 174.498 89.0487
31.6967 106.697 126.054
26.562 138.64 179.012
9.49085 202.943 155.618
78.7817 124.274 96.5305
46.1237 120.273 187.929
59.9859 105.522 157.61
47.2322 151.693 183.163
39.1026 178.345 105.97
20.4265 158.502 153.603
45.1047 153.874 107.386
50.3466 85.657 108.371
60.6019 111.519 94.0508
7.51155 121.784 156.458
23.9929 211.971 128.129
72.8231 95.3464 160.183
55.242 161.503 163.136
53.1639 99.3636 92.3515
48.8081 113.065 168.133
23.4436 172.979 180.173
53.0989 212.061 136.467
45.4082 155.564 193.463
45.5109 130.499 93.886
48.2806 111.782 89.5567
43.6509 157.053 178.588
9.9845 196.384 136.954
22.9603 204.224 132.238
61.0267 166.138 138.885
67.4394 120.552 168.382
55.4696 66.1699 140.68
33.9984 174.098 191.153
79.5187 165.849 172.477
26.6217 156.374 171.65
64.9442 197.593 130.667
75.12 106.291 117.539
65.8165 172.76 113.657
47.3032 125.748 90.8415
14.012 175.817 150.006
64.3502 187.992 136.342
34.7588 183.589 141.065
41.7989 149.592 116.307
84.727 155.328 170.212
75.9812 131.741 112.28
20.5395 166.397 158.967
78.3565 189.327 164.966
48.6111 141.091 111.829
22.7566 156.341 100.721
42.9515 185.208 173.449
40.848 166.463 188.204
28.3224 85.2109 140.689
80.8611 119.987 127.967
34.2298 106.846 143.161
72.0076 158.666 166.174
63.0338 162.512 194.677
55.2439 69.8776 164.598
61.717 118.098 101.501
72.5922 156.041 93.8342
27.7489 167.854 148.178
71.7879 104.889 108.904
50.7447 69.4668 156.476
9.67541 135.123 122.089
15.6492 194.194 119.275
75.2394 118.951 159.514
43.9127 166.437 177.848
123.441 92.6993 90.8628
13.8042 167.243 111.08
44.5434 94.0389 154.555
16.6031 122.496 123.099
62.7423 97.9236 122.972
28.2102 188.781 135.95
55.112 146.897 197.081
63.3317 134.45 194.173
48.9681 183.163 133.73
80.819 160.694 195.806
41.5917 107.236 148.989
41.0543 76.3126 132.791
43.3075 127.564 179.078
87.3264 110.669 141.653
120.39 91.8325 84.0549
19.4928 130.733 180.828
29.441 165.56 129.761
46.0888 145.054 113.808
48.0838 166.401 129.785
16.789 100.86 118.601
63.6303 201.864 135.403
16.1815 167.566 131.371
31.6128 83.2051 160.254
107.968 88.3113 109.667
87.2679 125.851 64.9432
28.9744 105.135 145.597
26.2126 122.407 123.142
27.081 107.444 108.59
69.5696 168.555 120.256
48.0645 177.399 128.534
94.4089 99.9361 66.3359
59.3623 91.5619 100.008
69.2797 157.07 125.827
75.5326 83.8527 140.283
85.9748 85.7032 97.6814
60.2976 163.28 186.908
114.343 146.722 67.6596
10.7644 177.06 114.129
68.2261 140.161 126.918
46.2056 188.785 159.891
63.1948 206.548 106.666
104.472 82.1449 101.302
46.2151 145.503 97.7534
89.1914 143.63 114.522
71.6274 80.8705 123.964
82.6122 120.28 137.607
18.9898 167.332 181.374
65.176 68.5328 131.131
16.4285 148.632 184.14
58.0057 144.203 86.4879
65.2 139.385 110.353
29.4855 216.413 125.571
13.0964 182.732 136.759
29.3695 171.434 181.679
105.058 114.322 64.2752
25.2031 204.949 122.38
84.4171 124.068 143.43
38.4185 146.015 196.292
51.6508 160.513 177.914
45.5116 170.125 147.139
52.7529 87.7321 122.753
71.3614 148.001 100.459
62.5297 119.266 86.9213
69.9422 113.468 157.095
16.3251 137.396 124.997
35.8934 169.382 172.447
22.7844 201.898 117.294
47.8802 134.223 114.476
46.4174 180.33 98.6553
49.3516 87.625 118.22
57.8594 206.915 100.384
80.0145 175.217 174.361
5.24212 131.075 156.827
77.8473 123.703 111.15
59.5388 152.787 201.25
70.6454 130.511 139.833
37.9501 168.953 201.392
42.011 117.152 183.332
24.0034 191.213 123.713
34.3725 143.716 194.48
39.2368 203.301 147.905
64.0184 217.904 126.445
47.289 173.987 164.859
33.9966 166.581 94.3764
48.6977 171.933 89.5994
50.9923 175.14 180.05
24.5736 134.752 173.779
51.0812 185.339 176.942
41.4825 163.545 96.1907
52.5635 182.119 136.843
112.272 88.6488 80.7161
52.74 112.504 174.888
24.5964 126.914 174.097
50.2695 102.106 156.785
61.411 101.618 117.353
10.6815 201.947 146.015
49.9624 117.79 96.5209
41.9451 117.638 90.6879
34.4559 152.206 106.725
50.26 168.207 139.214
72.97 91.341 130.611
59.3421 123.626 110.05
23.0981 185.994 100.01
61.2353 122.234 172.898
80.7664 97.1142 151.425
55.2869 109.12 164.264
78.9288 164.55 184.41
120.15 103.457 76.6463
110.684 86.9179 103.276
75.6972 157.395 205.035
67.0106 158.263 161.192
55.893 199.781 96.0374
29.9745 152.073 173.345
5.12837 151.813 139.426
32.3243 166.446 180.147
44.7805 191.903 169.21
23.6645 155.614 127.233
26.5941 200.536 154.777
67.7699 134.906 173.764
33.868 173.26 142.592
52.9361 141.48 93.1867
22.1291 150.764 165.528
65.7341 143.803 201.567
20.5269 146.631 115.199
68.3089 155.921 101.658
106.85 130.156 67.7495
40.4897 187.145 126.867
53.0868 120.163 189.258
55.6303 148.576 118.53
60.3692 113.553 149.35
103.719 121.335 66.0523
52.5628 198.456 135.195
69.0309 180.112 178.038
22.0704 173.689 155.381
13.1326 182.25 109.495
63.5317 150.541 117.643
24.2391 174.143 168.895
28.6148 191.15 107.242
59.902 173.376 160.516
82.7165 100.832 145.788
53.8217 72.578 137.88
82.6506 100.248 121.666
54.6175 184.226 170.657
50.9938 142.846 196.881
71.1656 168.262 110.13
61.9322 136.657 78.1237
10.8792 174.432 133.74
56.9159 210.451 144.991
14.8982 117.239 156.839
24.1126 114.324 142.655
65.0375 86.5558 115.346
74.8222 135.591 168.459
54.6555 159.907 110.015
39.2087 187.178 169.052
42.4996 176.424 162.192
59.4646 116.867 120.843
85.3019 158.174 104.094
64.7359 111.494 89.452
68.5202 203.224 115.213
94.5236 156.92 102.284
57.8377 222.467 134.021
56.9251 130.759 194.43
77.8796 146.675 175.151
69.2867 101.841 96.7928
56.3527 120.076 123.114
48.008 76.3614 133.119
92.263 144.578 65.2109
38.9472 128.012 181.532
71.1468 176.59 129.729
71.3667 90.6934 122.528
20.916 196.243 119.705
85.8058 99.8868 132.688
81.0374 144.453 163.922
10.2763 181.053 159.176
8.29888 168.273 158.547
67.4968 106.483 117.018
89.0635 168.752 167.724
79.7236 142.467 126.278
68.4625 94.1653 110.723
70.5442 191.943 172.892
54.0869 166.467 108.909
24.486 208.983 143.971
77.3064 190.441 156.009
76.3737 152.525 100.454
66.5346 201.128 143.387
84.0699 117.494 71.7958
86.5515 149.154 164.98
30.5346 119.772 127.943
63.316 116.495 135.481
65.1308 84.3012 120.272
19.2149 163.895 144.284
27.4048 162.131 157.565
8.63454 192.182 124.289
51.5383 176.735 145.187
35.7776 164.069 184.708
94.3674 138.955 117.435
18.2844 205.035 130.495
70.3033 147.428 90.1521
29.9517 209.045 132.805
58.7861 157.586 120.367
70.9261 117.486 81.0574
54.9783 162.333 123.018
73.2952 159.588 140.725
38.1197 81.5638 129.651
80.5686 133.985 97.4181
76.7076 144.655 116.484
65.7255 139.914 168.774
69.3144 142.172 144.049
81.7365 107.464 154.459
34.9009 145.935 105.311
127.909 99.5855 85.1754
67.4916 188.764 166.61
49.8953 160.904 164.879
55.0187 119.178 79.997
83.5513 127.306 103.897
82.9306 113.994 133.515
38.248 194.36 100.173
80.7821 90.1893 102.39
34.3717 205.707 156.545
57.5787 187.794 164.512
65.8125 153.933 204.115
72.6919 116.507 88.8045
65.9601 144.713 98.9046
69.3482 68.4546 141.989
70.0617 134.93 151.808
35.5234 160.631 99.1907
55.8842 109.036 149.36
58.3335 120.713 190.244
21.5937 108.16 135.259
83.3533 89.9409 128.402
63.9109 209.085 117.022
39.2704 150.84 184.729
82.861 152.443 177.79
21.6766 167.171 147.433
59.1492 163.044 113.746
61.1484 193.973 166.644
37.9755 164.851 102.102
19.902 196.006 135.02
85.0016 180.974 162.532
64.4172 133.745 148.834
66.6301 195.535 122.426
11.1083 166.951 175.723
56.2199 106.16 91.1965
87.3812 164.46 93.9362
130.348 97.8301 93.9018
57.7642 123.036 89.2288
65.5131 122.205 184.97
48.5431 120.903 92.881
44.1756 101.266 126.295
12.5588 178.39 128.197
78.9617 93.292 132.754
101.055 86.2316 110.733
76.0755 190.16 172.864
73.2693 148.184 202.821
72.7207 159.754 201.022
41.9214 144.009 194.291
52.4176 82.2426 117.527
46.7049 159.979 184.509
10.9104 130.539 119.429
66.6415 186.49 174.522
70.3627 148.284 121.111
68.3624 156.496 151.288
77.5063 171.661 112.513
91.1976 131.646 68.2083
21.5532 121.246 122.685
72.0647 97.7046 153.731
80.6319 183.5 172.249
79.8201 149.68 200.215
61.3264 160.732 133.156
63.4924 118.734 110.894
66.8174 174.556 139.789
32.0444 193.73 156.595
38.5973 151.947 191.372
34.1866 199.904 154.299
53.7098 176.306 126.731
12.8459 170.043 147.716
92.8709 99.2413 71.4126
84.7935 109.165 130.474
70.3684 166.862 159.504
6.94294 175.138 157.08
36.3138 195.69 96.1608
66.4645 190.689 155.473
60.8724 150.281 136.066
55.3707 75.4063 159.601
15.372 192.245 134.807
46.5053 153.022 117.215
71.5545 96.2408 115.657
88.0449 107.076 111.964
21.5586 166.223 136.702
115.281 124.782 71.5408
86.8347 158.124 78.4706
89.6957 97.7054 68.2769
11.9436 142.551 155.529
62.2311 134.856 172.485
78.3316 129.159 89.1664
58.1867 168.488 145.787
47.2219 169.963 188.733
71.7525 120.892 172.145
48.9397 212.363 146.365
74.3252 79.9228 130.899
21.7185 196.909 125.174
86.5928 124.643 109.289
101.607 131.309 78.3284
23.4301 132.955 180.048
82.6862 106.527 144.154
60.3346 108.16 164.126
25.442 151.542 122.168
61.9247 175.75 152.176
92.1024 152.643 66.6815
43.72 177.101 168.967
81.85 116.24 111.729
40.264 155.914 194.181
28.6669 172.366 91.4046
35.2943 158.385 193.592
73.9683 137.385 198.603
76.0586 171.78 178.297
14.8069 137.954 119.826
36.7727 147.299 188.129
64.1098 194.994 104.497
41.963 182.225 96.0069
54.9287 163.741 79.8699
62.8467 161.941 109.592
54.698 170.973 87.8358
35.8926 170.631 165.915
38.9524 199.228 98.9747
72.8611 134.833 144.969
66.6886 127.776 169.046
81.1802 150.228 101.64
73.0795 127.579 154.694
39.1334 95.0188 165.267
77.0409 163.288 115.796
65.3896 189.342 127.476
72.6938 143.346 178.068
85.0296 155.197 196.538
60.1377 171.259 107.085
24.9818 172.916 161.644
46.5742 182.222 126.87
60.3473 175.295 171.552
51.4719 107.319 144.964
70.8484 182.928 183.416
83.7076 158.021 96.9496
4.11601 172.642 159.293
27.2395 168.2 158.927
78.6968 113.638 90.7516
42.192 126.478 186.548
96.7548 160.182 76.8896
53.9861 170.541 183.389
90.9517 156.937 188.71
9.9896 168.665 134.648
11.0802 132.853 156.589
59.9507 143.028 199.059
39.9444 133.533 189.206
16.4745 111.075 136.404
