ply
format ascii 1.0
comment Created by Open3D
element vertex 727
property double x
property double y
property double z
end_header
42.1909 158.482 15.6515
4.65916 152.243 141.965
36.8195 135.641 169.871
22.9451 75.0667 128.096
14.0389 92.3894 106.159
15.7111 164.114 114.108
23.1651 121.26 72.9997
54.6877 116.666 187.026
38.6989 175.169 19.7019
30.5831 114.121 75.2934
27.9293 114.418 171.163
25.8896 84.0659 122.368
23.4514 124.235 120.522
3.09855 132.04 90.8381
24.2206 151.907 100.999
19.3724 134.337 133.623
29.1927 138.309 108.441
29.4294 135.449 122.91
40.4371 74.6312 165.146
24.0975 153.759 115.321
62.0478 128.182 15.0569
16.0034 138.86 115.722
23.3561 126.714 138.144
11.4809 168.18 120.394
31.9581 100.232 84.1917
44.9074 127.176 168.258
119.619 33.6922 67.9326
33.4584 146.795 144.173
64.5421 108.144 77.3031
40.8388 151.785 5.11447
63.4126 198.765 19.7849
32.4178 110.034 117.128
28.8978 159.565 123.13
36.4945 115.897 134.905
54.3953 174.076 21.881
55.2222 108.452 154.843
2.71307 117.323 136.949
95.7559 135.02 37.6059
11.3056 115.469 89.4378
32.7423 162.061 117.638
17.0629 79.7958 132.246
27.6738 171.256 92.3601
28.4603 139.168 96.6747
37.8855 92.0203 165.349
36.0509 88.5709 126.432
30.5994 147.954 109
18.3156 92.2751 136.031
8.69741 172.181 131.585
75.9144 119.04 7.73736
43.2139 201.017 120.996
18.1108 144.737 95.1471
58.233 194.665 11.8032
15.6101 127.022 96.5506
14.7791 174.773 127.742
37.5676 161.291 3.26391
50.6527 81.8732 180.795
46.3085 185.027 139.273
14.0686 85.302 134.728
28.7186 100.418 139.217
93.221 3.25903 22.4838
3.97803 158.297 108.934
168.273 124.462 199.074
27.3211 87.5937 168.687
37.7907 125.016 113.27
22.9821 177.061 95.8589
49.8006 110.828 72.969
29.8788 131.573 129.639
12.7938 165.106 97.2779
23.0953 127.062 146.35
49.0673 119.729 70.0597
19.379 167.461 127.273
29.457 83.2369 132.647
56.6864 97.6522 87.6905
16.9725 126.669 114.949
36.9438 194.028 119.504
40.504 132.783 162.898
35.4687 133.273 115.595
44.5648 105.248 108.229
37.8475 79.1863 133.245
24.1112 112.175 108.684
32.6525 75.7544 128.575
35.7824 187.518 100.745
8.16088 145.968 116.914
17.5816 136.778 72.3438
4.86707 90.0559 114.03
3.89827 137.795 98.7023
49.6449 118.228 130.541
36.2657 139.606 5.97418
64.3219 107.153 178.946
79.5427 206.533 5.53004
26.3822 175.016 110.6
25.7928 105.92 155.488
62.9546 170.303 14.6876
13.4342 109.61 118.138
32.6124 132.902 145.24
13.8443 144.315 136.489
51.1304 164.477 22.58
35.1057 138.315 72.4835
3.31557 154.444 119.884
23.8733 143.907 119.629
54.3423 140.652 10.629
10.2288 109.352 148.027
5.77262 112.325 98.5945
37.8342 176.434 132.344
30.1428 76.4156 146.513
32.604 128.575 164.34
77.5929 191.555 29.9744
33.765 188.357 126.227
18.1626 122.179 87.9295
12.0534 139.77 99.7618
36.0141 122.791 183.704
14.9529 84.8225 110.902
17.6433 91.7571 121.659
59.0542 192.462 23.4428
50.4797 81.2062 120.648
52.7664 168.149 13.3022
75.964 92.6251 62.8869
36.4331 130.62 85.9803
16.4204 138.345 124.439
20.9133 176.786 120.869
46.7372 137.919 170.888
34.9952 190.57 109.354
21.8888 150.676 108.754
4.58749 145.217 106.931
27.7432 128.836 94.414
46.3249 190.381 93.3126
61.8693 118.957 181.677
66.2334 220.073 2.68925
31.8967 141.996 116.797
66.278 117.315 6.953
22.5874 169.631 99.6765
38.2742 86.1193 173.177
61.1543 125.107 22.2325
22.8374 101.686 89.8283
28.7192 117.762 124.268
66.2164 106.807 85.8331
54.6349 129.505 26.7285
42.4526 139.261 81.9518
40.1961 107.378 188.344
17.7196 147.715 124.898
17.1089 105.896 88.3986
21.2776 117.489 113.037
41.4384 117.713 123.953
61.0869 189.052 2.73496
25.4477 141.766 133.088
37.3946 157.427 130.021
6.40935 153.375 128.976
52.244 118.881 77.9871
69.0855 125.698 3.18487
50.1013 119.031 158.79
46.837 170.128 26.3473
55.4397 104.943 84.565
27.3371 73.6136 120.969
36.6718 148.845 122.983
4.28878 118.125 88.7713
53.5271 147.912 29.1127
63.489 15.1668 139.91
48.0904 24.5849 132.641
68.9137 116.256 86.0574
61.184 93.7887 175.906
20.5068 134.052 155.164
36.3947 87.9738 147.238
44.794 18.2899 136.194
51.6081 146.352 3.26562
45.5178 107.073 167.073
17.5695 171.383 105.08
3.28508 122.555 141.86
40.5655 89.8462 137.032
34.0443 160.159 107.29
30.7324 137.324 137.617
16.7345 128.854 82.454
38.8711 79.0101 171.031
41.4417 155.082 91.7165
12.1614 127.026 140.872
14.4532 148.656 142.499
61.6049 159.15 28.9442
60.1642 29.8547 120.304
18.6072 137.224 80.2955
38.6045 108.201 179.313
27.7833 181.158 130.447
28.8354 107.463 175.286
46.3456 124.242 107.993
18.4856 103.94 149.366
8.65139 137.225 119.837
17.7346 146.361 80.1997
10.6933 131.85 89.7877
55.0215 180.278 11.6931
3.92248 130.12 83.6864
48.1151 164.33 7.4537
50.6836 186.937 125.103
71.267 201.266 10.5004
30.1444 80.4348 116.571
51.4873 8.91928 134.592
12.0942 83.9934 116.599
32.6107 153.197 114.984
64.202 186.584 27.3438
6.76552 91.6644 132.57
68.0874 4.82171 136.836
43.3936 99.2464 91.5316
17.1797 138.595 147.941
57.3881 8.69328 122.057
24.7986 85.1214 110.333
41.0437 193.979 129.323
32.047 121.27 69.0515
47.3148 192.22 132.405
56.6327 126.485 182.318
41.8568 147.317 116.549
53.0526 106.375 184.694
63.6952 94.2472 90.797
43.0388 104.158 140.563
38.3068 170.743 91.9061
36.0197 114.902 171.184
23.5005 131.695 74.0478
36.1322 165.764 19.1273
67.1305 116.057 14.7678
13.1681 141.087 158.535
86.6918 2.56026 46.1641
58.9125 127.243 165.097
55.6342 91.6929 94.32
17.4892 81.9291 105.24
42.7944 190.526 104.424
12.3082 131.457 109.661
28.7417 166.162 133.748
57.5701 180.725 108.694
38.4179 174.933 121.281
42.4427 185.359 120.321
36.6032 94.7902 107.313
32.5171 118.639 105.171
40.0052 116.308 189.157
64.3319 191.931 112.592
66.9753 192.825 104.312
63.3528 125.072 175.454
16.4995 139.31 108.362
42.591 117.404 110.391
103.272 128.743 21.7049
30.0749 117.769 132.279
38.4014 146.551 131.572
32.9918 87.2792 160.199
46.1671 109.284 155.047
64.2668 185.284 102.175
29.8337 90.8693 104.235
45.4265 187.441 11.8141
32.506 163.445 10.7682
68.4159 4.01768 126.403
78.8982 185.386 26.7507
55.822 99.8517 119.444
61.6414 184.461 126.563
37.4177 79.4942 123.125
24.1243 108.141 114.825
25.5088 128.422 108.99
29.5175 180.899 99.0171
38.2684 137.694 126.443
31.35 111.932 82.711
31.9664 99.1397 165.106
28.9792 96.8105 124.838
97.6577 164.426 33.7776
40.7299 135.031 131.323
32.563 113.555 186.676
60.4014 82.1988 123.065
60.0728 136.755 155.432
31.4658 161.956 97.0269
9.40812 150.824 113.008
67.9971 11.3484 120.876
63.7026 181.351 16.9949
76.1669 181.118 34.3426
35.7693 128.797 123.382
42.028 170.976 144.833
48.8838 154.061 2.37799
41.7598 178.475 108.685
29.3793 128.797 81.6137
77.4095 84.2454 21.1391
27.9768 146.801 90.1829
56.7393 25.7496 133.267
22.6191 140.473 90.2196
83.5065 95.8366 19.4707
50.3638 82.1289 110.984
39.5817 107.665 117.159
48.9458 140.118 18.938
45.1875 83.6622 160.502
52.7444 189.305 17.4493
30.1278 159.047 139.301
57.2637 187.321 100.052
34.4406 188.155 133.603
46.1625 122.046 181.273
11.7459 129.599 123.024
47.8812 91.8783 165.175
36.9921 139.759 140.35
114.173 133.942 33.7376
15.8253 156.93 106.769
9.87343 117.616 79.4937
67.1669 191.329 17.8039
8.6604 151.963 100.455
67.4012 151.266 23.6047
62.6622 110.932 186
67.4074 169.178 34.1224
46.3098 105.909 81.0873
56.4416 133.896 18.9978
2.41422 142.973 124.846
61.4723 190.67 133.985
47.6372 131.967 69.7548
15.9779 112.271 82.1705
35.2461 104.665 91.6071
13.4613 81.5059 125.36
38.0689 178.308 139.998
4.67462 95.726 123.176
52.7536 136.738 87.3707
6.64951 123.174 106.723
9.49182 152.227 150.771
22.8947 111.918 82.9201
47.1269 142.889 28.4024
13.5702 99.6898 107.476
44.0204 125.665 94.1962
156.051 154.828 213.532
45.2409 122.648 76.7141
42.2763 163.845 23.1245
51.4046 120.465 84.4587
79.6098 174.447 33.7226
54.0891 107.145 136.73
20.9188 121.64 80.4007
36.4214 120.712 156.785
46.1346 182.608 132.359
2.98871 128.374 97.9072
124.9 39.6704 69.522
40.1355 106.79 129.614
60.7003 149.148 16.4057
78.7843 223.071 262.808
54.8846 96.6579 183.639
52.2232 112.485 108.726
39.5859 193.664 111.868
12.7316 123.549 132.921
56.0087 99.6772 77.832
36.9901 167.841 135.379
44.3433 142.795 143.305
93.9313 97.0324 22.0749
9.67708 140.36 147.921
106.669 139.934 34.9911
14.2798 123.345 108.381
50.3735 96.0561 96.7936
3.85139 134.88 106.379
84.1611 186.58 33.0629
148.129 159.71 217.464
26.6826 169.925 121.304
11.0045 96.3064 114.947
59.9807 93.7568 165.435
2.62879 119.181 127.754
55.2265 88.5965 130.478
13.1985 122.084 122.875
50.5541 91.408 171.933
8.88983 167.821 109.598
45.1093 182.877 2.129
16.5411 130.146 149.02
4.48564 127.793 148.889
31.19 99.0468 112.826
20.1498 130.593 124.689
53.9818 126.841 172.982
56.3955 108.773 162.868
80.6019 164.496 33.1103
37.8323 87.6803 101.83
70.718 159.419 30.4089
5.61886 114.821 120.879
19.945 114.509 151.746
50.1241 133.633 120.344
2.24097 138.582 115.795
57.5859 192.693 113.367
9.76894 103.957 120.256
130.819 35.1667 64.8772
62.4519 122.268 3.93411
15.272 118.389 102.18
27.5842 130.191 101.848
30.3302 119.829 113.673
80.9582 121.304 20.5891
33.1111 175.341 124.038
41.2446 124.295 177.166
79.8215 176.143 131.218
30.0479 174.863 116.133
10.5836 136.749 84.7288
45.4921 171.472 90.6405
32.6231 108.392 151.421
52.7982 193.093 111.963
25.9204 94.8682 109.808
48.7163 18.1452 128.083
40.5103 113.4 147.625
27.6482 119.843 101.134
20.8475 100.287 126.346
160.046 115.675 191.584
51.7553 169.165 2.53941
41.0781 125.929 134.114
49.0108 132.103 102.55
24.6162 157.692 133.839
2.54477 117.339 109.26
64.7193 133.294 7.89181
54.7596 191.308 133.419
84.7369 160.791 35.9381
41.5391 146.643 14.868
57.4009 131.659 3.78386
66.2012 169.215 131.674
56.052 100.936 145.384
50.203 117.705 112.797
27.3011 96.1033 152.634
30.2759 159.03 91.3219
50.1277 187.88 102.843
62.9547 153.389 93.5259
42.8799 127.009 82.2926
19.957 140.627 143.177
11.8368 102.401 134.722
31.2948 182.896 110.577
43.0339 102.016 179.105
20.8259 90.4782 113.618
47.4095 164.301 146.063
8.62014 140.91 127.58
22.4791 160.961 105.2
37.935 144.568 91.1516
8.81352 141.593 133.921
59.0997 182.853 91.3457
88.5832 117.196 16.5528
25.2007 88.6038 129.122
72.153 160.778 37.7862
35.0847 124.839 132.638
14.3527 152.775 97.4528
39.2478 156.219 100.351
17.7681 103.339 139.167
8.41631 131.341 98.7769
11.2881 159.362 101.167
17.7452 145.422 106.928
43.4976 141.962 1.97576
54.6427 136.365 163.05
33.368 148.489 94.8405
34.1844 107.833 141.615
35.2875 127.781 96.6718
46.9789 151.865 18.8008
39.7848 79.0239 153.945
28.6754 190.341 110.944
37.6909 119.683 81.9026
52.1336 124.42 120.544
22.3415 106.913 143.684
43.3827 175.917 5.83373
2.55875 119.984 95.0653
61.81 9.30811 129.498
25.9845 111.788 91.7147
58.7752 95.4453 103.208
54.8449 103.748 166.156
64.8804 140.894 2.099
39.8479 148.109 141.569
66.0623 101.389 166.156
89.324 121.427 8.29461
21.9958 114.757 130.369
13.0304 116.999 119.539
58.068 168.879 93.2046
27.2525 106.412 148.462
72.6821 215.787 3.20947
48.1865 109.185 92.4317
47.1167 188.775 113.572
33.1602 165.91 104.274
48.4168 125.072 127.076
46.3228 168.249 95.4191
20.4151 89.6728 147.552
67.3436 32.9896 119.059
19.0772 77.124 115.657
22.7377 148.732 151.509
79.5773 130.201 12.8385
30.0156 144.873 80.3002
36.9787 128.096 73.2127
40.184 162.179 139.126
25.5801 121.718 85.0057
29.0825 93.5787 145.61
52.1816 189.586 8.1136
30.2352 145.691 126.702
41.92 172.801 9.10569
40.8404 115.823 92.7553
3.23705 129.926 122.012
47.513 111.905 124.779
41.0979 96.0605 141.127
3.59027 109.421 140.726
64.6635 90.4658 101.962
3.17723 139.469 138.742
67.5909 187.73 7.42107
72.3871 165.708 28.5185
61.5735 93.3515 143.76
23.0936 79.8284 137.105
3.37487 131.697 141.437
33.0012 98.0197 176.928
30.3745 112.803 162.205
28.3435 108.031 109.416
24.9449 183.333 119.367
70.7626 191.601 123.974
41.9057 110.945 72.9357
65.8294 127.129 126.514
52.6468 127.678 95.9538
36.5613 121.47 148.233
71.0737 182.537 100.091
39.0097 103.97 150.4
13.4914 151.322 117.117
21.03 112.309 156.124
36.4922 165.324 148.431
44.4876 96.7242 150.245
44.024 81.5213 146.467
54.0985 169.19 115.805
7.86153 127.911 127.578
39.8316 132.549 69.3294
56.0062 17.9918 120.467
148.927 151.454 215.155
35.7477 102.207 112.317
74.2296 172.812 36.6474
65.1223 111.401 128.262
45.2854 149.874 123.453
34.6753 116.074 121.402
33.4499 105.964 184.631
69.1018 142.077 18.9781
101.313 118.83 6.09339
61.769 161.884 147.463
49.9668 18.1418 122.33
131.664 34.6446 73.5798
47.0731 174.352 125.762
49.8168 137.632 135.437
48.847 145.238 136.25
47.3068 167.508 104.474
48.0411 110.551 100.924
75.0953 183.08 93.919
35.4725 155.444 84.2267
25.1523 83.5315 141.791
44.7891 90.1491 106.557
43.8548 182.443 95.1316
40.2593 134.525 155.708
92.4412 123.543 14.1071
100.209 188.028 27.4983
19.92 116.65 101.708
52.4956 90.501 108.444
83.5583 115.614 26.0158
16.0685 89.5654 142.335
17.4336 113.613 146.111
99.1473 2.67912 40.7814
28.4153 107.18 132.092
43.983 173.849 116.479
4.57994 125.902 118.771
20.238 131.524 100.242
88.8351 1.38806 35.4874
67.0918 165.193 89.5892
89.588 129.63 28.9055
18.045 132.934 89.8407
9.74921 101.182 142.21
68.3285 84.8915 65.295
75.7281 140.256 2.62897
52.8165 111.035 147.274
47.3595 189.875 2.84461
47.0665 137.611 1.70467
40.0225 151.84 105.179
58.0483 152.539 151.919
47.9198 177.561 103.272
26.3762 161.133 110.847
48.2261 26.137 126.387
71.2075 160.052 116.637
35.1122 146.83 82.3267
88.0223 120.293 27.8645
63.5008 109.521 169.116
89.0244 189.379 28.8214
39.9876 160.259 124.075
168.137 128.4 180.951
70.3539 165.206 147.565
58.4782 3.64586 143.699
34.1682 95.6976 154.697
20.6682 171.113 113.372
56.0049 130.083 131.757
62.5523 25.4362 106.738
49.1179 120.722 92.5902
35.0123 116.78 181.583
28.8429 108.662 165.447
40.8489 142.297 97.0128
70.6508 19.1407 131.498
74.3287 124.676 20.5081
28.9503 105.934 86.0944
31.5724 100.791 150.143
77.5327 137.638 29.9782
37.5809 142.045 14.8726
78.7527 190.767 18.5805
79.6438 139.104 10.3972
39.7261 142.448 105.517
65.3244 199.161 7.84495
34.4586 90.5836 117.379
57.9475 112.85 78.1034
36.5107 101.354 146.453
44.0565 136.182 74.4329
26.0437 139.28 79.9104
49.3799 140.568 127.884
27.3431 137.05 151.704
1.45491 124.614 106.895
53.3484 170.966 107.382
71.8233 184.794 108.653
32.3897 179.286 90.5021
41.3333 137.27 100.27
54.6516 176.477 93.6889
47.1771 107.553 179.056
15.5791 126.103 74.1534
78.4648 168.215 23.4759
63.0464 131.627 132.926
1.6683 145.153 133.723
36.8962 111.145 102.103
19.7578 105.747 107.957
49.3066 135.132 145.053
72.8477 118.51 73.8565
49.7662 116.77 171.101
41.7304 180.379 127.107
45.1131 138.108 92.6191
37.953 177.762 99.2829
35.1507 158.198 11.0867
24.8566 102.466 167.66
42.7773 153.971 23.8655
54.1747 192.583 120.297
49.7893 142.428 107.65
70.4113 126.396 75.7571
47.5296 91.5305 144.595
44.6622 156.147 110.668
52.4443 119.157 99.7794
46.4823 120.913 136.226
93.9759 3.97127 37.1017
33.9212 106.69 162.833
27.1202 87.2984 148.358
54.6198 131.834 103.87
86.8103 133.442 18.1271
62.6272 1.37424 128.202
41.3779 131.222 100.97
46.7285 141.492 157.117
38.4048 121.585 93.1389
43.804 151.885 132.222
54.1629 110.103 174.501
42.3741 188.425 274.445
76.1998 184.016 135.25
57.2628 160.625 98.1017
64.8787 131.226 169.367
166.353 114.099 198.229
71.6 191.133 116.472
166.946 112.042 191.993
68.889 149.245 13.8931
41.7687 174.359 101.307
68.6791 170.866 89.8378
45.3725 83.8983 128.646
69.9353 129.483 23.9567
64.7565 122.396 86.3987
67.4156 179.44 10.4284
64.27 105.923 110.644
46.0972 100.231 102.074
46.1001 99.4467 124.979
53.554 88.8865 148.755
58.8341 125.073 74.0937
39.3857 170.728 107.956
48.4926 178.114 13.8285
59.8839 161.163 113.051
76.1992 210.991 2.91339
33.7383 172.935 103.191
39.9939 137.996 109.991
51.6745 178.699 118.748
77.2371 195.771 8.61222
20.1205 104.989 129.797
59.3999 169.515 84.8092
77.1834 173.346 84.5444
83.0529 146.795 11.6405
34.0653 149.396 1.45692
66.4934 157.853 84.4648
17.9815 114.004 120.498
51.3472 139.808 150.861
50.6391 133.859 156.131
43.3571 151.631 87.0265
62.1737 177.077 95.996
43.8297 127.421 181.919
54.3769 113.709 89.6479
53.2206 159.037 10.218
22.3177 119.993 100.018
63.9015 128.618 101.193
77.5175 160.423 146.153
57.5929 125.215 87.985
35.5504 105.921 122.315
66.349 208.618 1.21408
82.9858 155.532 18.8034
55.9379 178.827 129.943
73.1832 111.03 74.2122
104.414 158.259 38.2207
65.5698 92.2698 120.027
86.758 114.445 1.57801
88.2285 137.204 14.1212
35.7013 101.924 156.723
96.0694 1.16657 49.2915
60.0168 118.694 124.277
49.1168 126.412 87.7161
65.6193 127.99 182.272
84.104 141.857 2.34534
97.406 85.8343 23.6784
6.75619 138.314 88.6563
93.2715 182.601 24.3966
99.1033 179.884 34.4299
65.4063 102.511 121.442
91.0872 98.7332 16.6217
104.942 170.769 32.2347
113.704 143.078 36.7815
90.835 144.029 12.5658
26.3164 107.038 161.004
51.0042 167.154 135.937
52.8816 104.265 177.639
67.9654 118.032 170.867
169.256 117.656 175.088
14.2919 136.16 101.678
6.21802 146.997 139.587
168.367 106.049 187.79
77.2913 197.217 1.22516
23.4795 97.5959 148.077
81.8363 187.883 135.41
47.5528 149.992 116.912
2.81249 142.54 149.936
107.677 153.134 38.0511
57.3382 147.332 142.778
32.9363 174.912 108.429
61.3579 19.9667 107.817
66.1258 189.505 125.947
107.998 135.477 25.5649
69.587 140.111 149.873
53.8598 127.48 70.3331
59.4156 97.3856 171.365
49.669 148.606 143.12
73.3833 176.054 21.0306
64.8786 175.173 138.444
60.2973 198.606 1.10569
60.9207 146.913 147.306
45.3739 84.702 141.182
76.576 175.226 139.884
59.2491 111.005 109.221
54.8346 99.5078 168.691
105.451 123.952 7.26097
88.974 137.223 25.868
25.1524 148.741 127.032
