ply
format ascii 1.0
comment Created by Open3D
element vertex 599
property double x
property double y
property double z
end_header
22.389 151.92 135.309
39.5979 109.224 98.0146
49.5719 106.418 159.66
17.8206 103.653 141.584
32.3831 168.359 147.666
105.053 110.903 123.477
25.453 155.576 144.536
44.115 135.929 163.791
24.741 75.1707 121.579
74.7815 141.839 171.256
98.2264 165.08 77.7597
39.8343 157.999 85.5459
57.11 111.393 80.061
79.1689 91.4207 100.129
58.3649 131.797 163.508
27.9341 136.171 91.7392
59.4247 106.649 76.1382
26.6472 149.323 149.93
96.503 200.367 119.961
91.9124 192.593 115.279
49.7537 129.206 163.474
50.6797 123.859 72.7831
93.7364 188.02 101.333
48.2392 180.871 101.115
101.869 137.443 73.7194
73.5442 189.496 93.9326
84.8468 101.311 136.412
67.9228 195.915 103.613
20.906 96.3663 140.755
56.0505 178.723 96.2514
70.4313 191.153 155.611
35.6249 180.047 142.829
63.538 62.6853 121.309
20.225 148.378 126.874
30.2619 131.712 144.795
54.432 187.72 96.4307
77.1325 199.599 110.417
47.1763 165.732 165.24
95.9726 100.479 115.679
57.6364 150.496 166.961
85.7886 113.359 153.978
114.705 189.047 124.498
54.1873 178.059 87.2018
46.4571 86.4219 104.786
31.5862 153.558 154.478
18.5022 139.951 127.807
40.0902 186.102 137.526
34.3661 161.925 95.406
43.0585 118.349 144.303
33.372 127.006 84.3614
22.9964 146.055 141.754
101.442 126.593 76.1983
92.5358 120.476 155.547
83.1596 96.3601 89.7895
110.958 147.731 84.1078
18.2051 135.145 121.353
46.1517 114.195 79.5921
21.451 144.291 113.093
34.804 180.848 113.355
43.3101 94.0282 154.107
65.0058 180.456 82.9654
56.3004 67.732 142.935
47.1441 113.854 156.063
18.8014 116.186 120.721
48.7419 176.494 95.0881
110.986 195.322 121.157
60.6201 197.563 107.362
27.1015 156.652 126.098
25.0495 161.92 132.014
50.9794 76.707 149.07
94.8955 141.976 162.896
88.3289 199.655 108.773
31.5381 145.002 99.7193
29.1608 142.255 145.107
90.5357 97.5082 126.481
44.9367 162.32 157.62
75.2274 97.5042 80.7162
37.68 108.964 86.1933
77.8099 186.072 131.691
18.2238 124.046 125.763
55.0551 79.2373 98.5699
51.8448 87.1334 98.1815
33.0914 145.791 85.24
105.32 155.299 77.9374
75.2981 105.428 74.3422
77.5395 149.659 160.186
70.2329 106.464 137.927
47.465 196.46 135.93
46.3817 107.734 83.7828
78.4165 196.363 143.322
50.1559 135.098 168.269
94.8879 191.153 108.303
29.9649 154.237 104.127
24.0085 129.124 99.4878
30.4546 141.863 152.581
61.9707 81.1591 102.251
45.9944 125.172 84.8799
38.484 162.139 160.321
28.4003 170.257 133.43
28.1043 173.68 116.838
101.798 193.458 106.555
87.2846 193.463 138.189
85.884 93.3251 112.743
57.1581 85.9979 145.507
17.3821 116.898 133.191
46.9118 184.262 156.412
92.3605 177.285 157.907
66.6319 127.577 257.484
44.1727 103.062 150.921
53.6679 100.189 157.756
80.6108 185.421 124.947
18.697 95.7644 132.656
33.3064 115.634 92.8532
72.9786 95.9304 88.8293
114.722 180.631 123.78
57.7812 104.757 84.4762
45.2635 126.501 73.3066
60.44 147.471 76.0981
61.1164 192.354 98.7358
43.8895 189.547 145.051
75.0917 145.218 65.5358
100.067 147.812 71.5375
17.1297 131.557 133.652
61.7935 140.796 65.1084
22.5262 155.83 119.327
31.1611 99.2598 108.173
22.8645 137.126 145.282
29.876 135.496 102.665
55.5407 193.625 104.273
75.3236 172.944 91.8891
34.4742 117.993 83.3582
27.8714 86.3665 114.548
149.94 48.8094 151.883
43.6959 166.407 86.4573
46.6652 158.923 78.8449
68.828 195.716 111.206
67.895 194.486 96.3962
83.2861 167.537 73.7276
40.5571 171.388 93.7502
42.7439 98.0135 88.6433
35.3089 132.856 157.842
74.6101 185.199 123.12
18.526 142.957 119.506
16.8116 115.345 140.411
73.4833 96.7408 131.428
51.7034 155.183 75.2748
82.5157 135.895 68.2934
56.2515 142.457 170.23
83.1134 182.52 161.279
86.5069 183.166 144.738
25.7526 92.7772 112.94
13.5224 133.556 270.233
67.9661 180.319 115.919
46.8362 173.076 88.7589
100.727 194.567 118.115
23.7008 112.346 144.067
97.0805 185.158 152.779
17.665 87.6628 120.763
88.8512 105.072 80.107
60.8239 168.334 169.377
54.2113 138.338 69.6277
76.5641 152.562 67.7357
77.4293 102.651 114.765
83.4101 201.397 112.588
72.7265 129.238 62.7541
28.2703 115.719 123.544
67.238 114.687 72.3287
51.4368 146.59 170.008
42.7162 130.483 84.1105
24.4105 157.374 113.707
63.4969 151.692 173.953
87.0091 134.927 163.568
57.8347 159.508 169.576
93.3364 97.1731 108.491
49.0247 133.452 152.86
107.84 193.104 111.275
18.1203 111.341 127.413
44.5261 150.248 75.7244
42.9838 118.288 160.145
158.013 146.851 153.558
62.2263 123.838 78.1568
69.6893 154.374 174.038
108.512 168.239 118.272
33.3657 150.339 91.8385
78.2822 126.661 67.1868
92.0223 144.01 67.6385
75.9614 170.138 83.8514
18.6591 108.131 136.779
64.5194 199.545 128.512
80.4881 109.59 146.669
76.4025 196.598 103.854
53.2185 165.173 169.579
73.1597 195.847 117.49
31.4208 92.1983 99.1191
35.6772 158.577 91.0716
84.1419 183.654 94.8412
73.5012 158.508 70.4466
94.2145 134.957 157.282
69.9678 88.8082 127.924
36.9259 89.0011 154.159
81.0455 172.706 78.8783
68.1055 194.78 148.13
21.5612 123.309 144.308
44.3822 122.974 163.586
86.133 159.187 168.182
32.6238 136.755 153.943
79.7937 197.608 134.977
94.9067 194.19 143.656
94.2921 200.234 113.268
66.2681 94.47 84.5021
62.7502 186.671 155.722
90.1673 100.492 120.864
34.4646 226.299 217.521
39.0124 182.288 107.818
70.2279 128.397 169.69
86.7201 112.613 72.7369
30.0808 97.2397 160.327
83.7173 100.377 142.897
46.3956 95.7417 95.9472
40.3198 174.283 103.738
57.6638 195.593 145.262
59.6244 172.819 79.2473
84.7909 126.215 163.507
82.0863 105.816 80.4306
62.9437 185.687 90.7379
65.5937 102.142 151.102
73.5217 94.9042 100.998
99.6668 159.784 97.9115
65.4102 185.717 137.186
68.2795 141.49 173.106
59.2187 80.1816 140.174
62.2835 114.937 70.0725
34.6843 137.426 83.6352
27.889 82.3737 107.536
70.7628 123.33 175.467
69.4973 92.5993 108.74
63.4525 79.4549 112.05
27.4001 119.845 146.306
93.1372 157.834 162.496
63.051 173.614 158.772
29.9258 163.741 101.342
27.8183 110.04 113.176
71.1028 86.2418 97.6193
43.0981 140.693 159.654
48.9953 165.975 80.2216
46.8811 187.214 149.875
55.9794 183.791 124.977
54.9892 118.056 69.3957
112.697 188.876 114.144
79.6105 92.6662 110.483
56.0746 67.7929 114.495
20.6425 81.7852 125.472
106.461 162.005 86.0663
43.5174 121.626 151.156
26.8748 101.786 142.97
58.0023 134.425 67.8427
38.5879 123.243 84.764
60.0547 76.2662 144.635
35.5279 110.618 148.772
37.7417 142.019 162.341
91.22 126.758 161.443
37.2267 171.422 143.946
61.6959 154.59 70.2312
27.8406 118.629 96.5346
21.0043 107.799 115.108
118.536 179.965 131.224
36.6581 99.0273 151.277
81.5016 185.302 138.549
90.798 169.902 81.0395
43.4515 184.908 103.881
48.7379 98.3096 86.8719
37.2422 86.8813 103.787
72.1611 137.802 62.1025
78.5454 181.107 84.0344
63.1741 134.104 171.035
24.8153 150.592 104.605
65.6392 96.2103 132.112
58.8869 95.1699 87.2391
97.8334 158.687 75.0462
113.924 189.341 137.46
91.394 100.55 90.2423
74.5556 172.8 165.284
103.621 158.063 155.513
24.7174 80.2759 114.63
63.2008 183.269 114.694
36.2538 104.967 93.8741
79.4204 199.98 120.431
59.5698 193.395 156.088
50.2822 114.72 163.716
69.0738 164.622 172.343
53.5574 61.7098 127.176
58.1567 178.334 163.845
45.2063 191.782 116.299
81.5735 118.233 67.9102
117.942 179.768 109.615
19.9413 105.301 123.878
28.2733 141.073 105.33
48.5884 90.1583 91.5644
43.0298 152.741 162.396
49.2735 84.6853 153.814
73.2813 107.92 127.482
105.028 196.875 134.269
106.842 142.495 79.9776
65.3062 132.458 63.163
33.3258 95.4939 144.635
33.8562 183.928 133.818
52.094 186.092 132.248
49.7523 184.461 142.191
99.9278 165.606 100.456
63.3821 84.3845 93.083
87.7517 198.822 121.885
86.5902 187.856 101.674
52.7091 129.855 68.4532
86.0637 101.088 106.983
58.3998 127.289 71.3208
51.2329 91.6234 158.314
57.5983 199.091 129.345
70.9931 87.7337 120.134
67.632 148.022 64.2158
36.2585 172.796 154.911
111.303 139.45 142.605
68.073 158.788 78.8476
38.4536 98.0923 91.6273
56.936 186.254 150.503
94.0154 186.36 89.9282
68.6669 188.875 142.362
52.894 72.1092 107.396
52.9012 135.966 121.935
89.0747 144.149 163.452
70.1279 171.395 83.9124
99.3044 153.031 160.419
39.1525 187.239 127.911
57.9911 113.473 163.006
72.3204 124.313 150.763
106.464 159.736 148.741
107.693 196.952 127.657
48.8039 134.796 75.4743
62.1586 196.564 133.749
72.949 111.069 148.335
29.3893 176.072 125.638
70.8858 183.157 166.413
49.107 64.88 142.736
64.9795 186.653 123.165
80.1567 153.66 170.302
32.2246 85.1625 102.337
68.2732 109.054 68.1251
104.825 134.057 82.925
25.0408 127.2 112.858
77.8592 138.867 63.0636
25.7782 108.374 103.884
98.908 140.178 157.38
79.6174 99.82 106.026
93.5232 198.536 133.607
52.824 149.324 80.51
42.6779 109.983 151.537
25.2024 90.3338 120.701
53.9683 92.8969 91.7325
81.2869 121.444 156.602
49.4507 194.142 112.18
24.8987 121.281 101.69
106.538 146.413 153.015
73.9286 190.155 140.872
93.661 107.808 138.242
19.8413 86.4569 146.465
117.308 157.351 98.4663
68.4398 117.602 165.179
96.5189 148.309 155.551
160.168 97.3813 268.415
61.0102 68.6936 117.404
18.7809 82.1595 135.249
52.3408 102.966 84.8676
43.1292 86.1696 96.5569
89.0715 190.419 149.553
58.8548 98.0036 79.0449
68.0887 120.143 63.6505
63.0427 86.324 130.167
53.8367 68.7478 133.712
94.2683 132.229 66.0741
66.0155 183.397 162.523
31.8691 104.576 98.929
54.4448 181.367 159.306
105.616 125.213 84.479
59.6012 188.642 138.923
30.4816 93.1774 151.512
84.6615 172.549 165.658
15.3097 90.6601 133.777
81.3803 193.791 97.6761
90.139 182.891 92.8391
74.1679 126.165 164.246
94.8808 162.994 84.4699
53.719 144.238 75.9289
78.465 185.76 160.649
111.622 140.109 86.9391
26.3837 100.193 116.066
79.1649 91.0986 118.089
90.4418 114.834 144.321
26.2166 225.378 212.675
96.9592 119.326 86.5651
113.535 173.552 142.174
31.6881 78.0195 106.031
57.0087 106.162 159.188
76.8286 164.56 161.815
101.752 108.39 111.917
114.098 139.56 100.478
60.1132 182.571 108.242
80.5354 198.989 128.374
46.8903 144.892 75.6791
34.6322 117.288 142.378
106.419 187.36 102.363
34.641 120.282 153.984
17.9119 95.1947 123.535
66.378 90.6928 148.47
22.6741 130.659 106.541
59.9913 159.115 74.6311
57.1387 162.404 77.6015
84.5099 145.23 69.4876
34.3158 173.136 135.473
78.5534 94.0882 131.672
30.0037 111.448 99.9125
54.4442 189.311 141.051
75.0715 140.334 163.196
60.0904 124.485 168.629
61.3925 185.917 126.607
54.1679 197.969 117.29
67.404 171.148 75.2828
96.5145 105.455 91.9901
62.8478 86.4204 141.386
58.0862 70.7073 123.914
49.4796 84.5381 123.878
112.993 178.524 116.946
40.5862 135.6 80.4126
78.3336 143.968 74.5517
28.8187 152.467 96.0465
88.8929 194.048 131.32
51.7942 189.604 106.722
58.5923 190.876 117.497
22.454 91.6983 145.181
69.8573 192.149 136.837
40.6568 115.96 85.1379
46.0029 137.78 77.8718
34.2562 87.1713 159.404
74.3721 91.9531 111.807
76.8842 113.509 67.9044
29.3314 120.068 112.097
36.677 168.487 100.842
82.2769 151.228 159.08
37.9643 150.918 159.866
88.3945 163.399 77.5189
37.7348 76.5931 101.345
67.8603 188.807 131.708
92.467 121.717 70.912
87.1546 157.036 158.767
48.7129 192.49 126.803
84.2539 154.533 72.642
111.975 126.389 123.003
49.5105 109.522 77.8064
20.4367 119.521 115.417
75.6204 154.687 171.618
28.8532 128.73 89.389
110.01 122.835 101.801
72.0419 190.809 130.632
69.7529 184.009 122.012
38.7376 178.614 119.36
112.671 160.526 113.139
105.08 169.574 95.0651
99.3421 107.505 126.313
56.0424 136.914 159.096
66.8826 91.0803 137.19
115.697 154.849 104.821
95.4956 111.945 77.5656
98.0257 130.632 154.76
25.3949 120.828 107.04
52.4665 186.537 162.65
47.8635 63.8449 132.07
29.5452 123.209 152.183
30.7866 108.811 145.596
91.1748 198.471 127.491
37.2587 84.5573 97.7367
48.1735 152.04 167.05
77.5927 130.566 161.822
82.3341 140.66 161.67
107.765 115.85 112.672
112.925 181.65 110.064
72.9773 95.4265 124.186
62.7822 92.4425 125.015
108.003 165.399 109.49
56.0315 190.528 134.667
111.006 132.348 99.4194
90.585 157.859 74.4359
19.309 112.712 114.658
21.4054 135.835 109.339
100.225 136.608 151.834
64.1217 85.445 122.12
53.3553 192.353 122.038
111.508 183.247 140.777
37.9744 69.9732 108.236
34.4152 183.165 122.129
98.6385 192.082 125.41
52.0479 87.22 130.238
82.823 190.632 145.521
27.52 96.1535 147.402
83.0885 127.389 65.6506
86.144 97.3704 130.528
58.327 182.84 116.697
107.756 121.116 133.88
95.3627 102.467 101.848
47.7147 71.5477 137.953
89.6591 188.249 95.4668
103.004 128.336 100.286
38.0828 173.622 128.181
64.4225 192.021 111.042
65.4678 91.7288 114.981
102.981 169.892 88.2588
87.9285 130.818 66.5772
38.7254 122.663 155.473
77.6577 94.0809 122.129
30.0786 172.046 109.49
74.1467 116.169 155.488
28.5214 99.6643 111.442
70.1644 98.2892 117.639
93.6332 178.173 82.5819
50.5522 85.1745 134.16
58.851 95.9278 135.742
116.84 150.369 94.9608
58.1662 80.8554 126.98
115.201 144.835 98.9775
69.3518 103.179 111.762
46.1897 72.1549 143.206
78.1142 139.018 161.137
116.883 170.052 99.3257
112.817 181.937 101.602
71.8162 178.57 82.2182
107.236 130.034 141.156
22.1056 99.1954 120.059
66.0922 162.875 77.8515
72.4099 100.923 143.341
45.6104 68.5409 112.22
52.4463 190.257 152.279
114.059 161.688 99.9481
108.234 203.733 140.088
101.384 120.404 103.091
112.372 119.483 117.808
110.554 174.059 95.6325
48.4104 78.8219 137.633
81.6196 166.43 160.099
66.1387 131.723 120.008
69.8124 94.3476 144.173
22.3897 127.333 119.061
47.8056 73.8728 125.026
74.6769 101.501 149.29
99.0138 113.355 97.1447
102.198 179.526 88.0109
50.4767 231.266 2.1073
90.3971 100.34 101.251
108.255 128.33 89.1009
102.089 189.242 95.6054
99.0288 126.947 148.691
52.048 77.3567 131.769
52.5099 85.3361 138.903
85.786 195.895 127.822
114.975 170.94 131.12
102.707 117.376 86.1993
112.253 154.327 133.918
46.4276 79.1306 102.305
107.802 138.447 99.1136
95.188 117.922 144.551
26.167 114.456 119.777
66.7784 110.17 156.199
46.6133 27.1786 217.905
111.984 170.724 125.169
70.4099 98.457 152.155
21.2009 89.7839 117.573
103.887 174.249 151.178
57.0414 86.3865 134.855
47.2441 73.0824 130.347
82.6777 95.403 119.776
46.4668 138.206 128.628
109.278 158.478 125.077
109.441 180.49 145.81
36.7445 42.8062 140.027
108.583 117.472 106.46
73.6178 109.043 159.319
59.7395 81.8077 118.47
104.697 131.977 148.45
92.6483 167.188 164.806
72.0029 186.232 136.611
101.174 117.398 139.065
92.5615 115.055 94.1527
77.5537 153.614 37.0215
26.459 100.797 122.416
23.0298 138.244 112.645
111.765 148.861 141.943
112.743 126.002 131.816
101.917 109.463 102.108
101.234 184.706 89.5044
26.0901 121.463 116.015
79.5293 160.932 162.706
94.6454 115.132 133.642
152.479 163.997 274.735
