ply
format ascii 1.0
comment Created by Open3D
element vertex 664
property double x
property double y
property double z
end_header
17.4991 160.181 107.148
43.9492 119.994 172.363
62.2803 80.3891 45.4526
11.6678 92.4143 85.7975
35.4557 119.342 166.057
47.2736 89.3168 164.558
36.1029 160.027 139.86
68.2848 48.7508 68.178
25.6113 164.432 72.2416
17.4124 71.2454 74.4388
37.1814 53.147 113.767
75.5693 99.5039 169.478
58.7706 54.4543 135.27
39.2343 149.015 167.145
52.671 45.9413 70.7633
10.596 96.3145 69.4763
40.0108 175.062 126.554
19.8867 152.428 67.2512
14.7989 119.608 121.54
29.2256 123.032 158.957
40.5825 95.7628 162.726
58.3731 168.687 154.025
45.1064 137.773 166.798
71.0474 124.561 36.2403
53.9887 41.6549 87.8732
41.0116 44.9966 87.319
37.2069 180.403 110.235
11.8062 99.8574 78.3705
26.8839 151.34 154.964
37.8976 71.7824 146.28
57.8926 69.8626 146.986
70.1778 56.1952 138.879
83.1627 56.8067 136.628
111.85 96.8236 126.826
23.9734 105.909 149.736
60.7421 151.998 173.074
25.2079 157.203 76.4929
51.3154 134.777 175.629
67.0394 138.878 175.128
76.3456 116.737 175.996
28.3379 155.278 55.5255
41.2678 125.372 170.663
48.8092 68.0715 150.607
114.56 114.674 124.831
90.2594 171.33 107.649
38.1579 157.726 161.809
54.1719 42.9286 79.0122
32.3864 162.792 128.626
101.748 121.041 149.175
17.2449 149.988 75.1606
38.8019 166.083 59.0322
72.3222 44.4004 81.4318
116.791 95.5964 99.0083
30.6069 171.507 96.0529
18.1459 155.698 95.478
115.039 125.087 111.25
35.0432 147.987 51.672
54.353 47.5553 113.56
16.0045 81.5454 115.581
42.6422 132.893 171.291
94.8439 165.238 115.695
60.1548 127.84 40.4477
40.8262 170.678 146.696
108.978 77.7433 89.8914
23.2775 77.0709 64.6205
47.6816 50.8021 62.5105
53.3062 181.524 113.925
37.4665 97.3573 47.1246
134.331 157.454 228.279
70.4659 108.747 175.388
34.7062 54.7567 124.839
46.4151 146.2 171.858
35.4238 51.4848 74.8682
61.9721 169.978 55.6302
68.2967 116.918 174.601
21.6218 130.308 69.193
42.2819 49.196 101.682
40.5025 61.7255 60.5224
27.4988 56.5331 75.3064
28.4421 155.385 65.6503
20.4766 63.0824 94.6505
39.5693 96.6004 35.992
115.187 91.6086 114.99
19.2291 106.239 64.6994
71.5003 80.4542 161.043
58.1918 157.573 167.406
49.011 54.2204 128.797
57.476 180.568 95.9703
15.4615 115.816 81.2566
30.6337 170.804 86.5842
117.201 120.568 103.356
115.721 116.822 116.788
16.8701 78.7596 84.0054
64.3583 107.331 37.6203
82.2863 47.7892 86.397
40.2393 152.197 161.024
34.1238 55.1892 65.8881
119.561 111.915 96.4915
83.5346 166.605 126.819
102.85 107.324 148.112
74.5885 41.7971 115.236
65.8832 61.8925 52.2755
11.5296 88.3098 91.5537
109.046 127.882 134.109
33.9842 63.4613 50.2096
45.0013 89.4392 35.4706
38.8479 91.8589 156.02
96.3216 92.152 63.1187
90.0976 47.3112 113.393
74.4906 49.924 132.622
27.304 169.301 110.505
112.042 105.258 130.41
117.214 119.881 94.2858
21.9794 61.4348 114.001
30.0655 159.083 147.263
131.658 155.079 240.614
35.0316 49.1875 84.7302
37.3099 166.013 152.231
53.3634 146.14 175.446
70.8067 43.8396 122.522
15.1522 144.609 72.418
28.1236 163.469 64.7927
22.4533 67.9237 58.2774
77.7166 40.0672 100.715
35.0288 99.6143 160.491
20.1859 160.06 83.9168
29.0069 53.5555 86.6968
17.1112 78.8019 74.0512
60.1433 42.2787 98.9403
30.6432 148.453 59.8415
64.6649 130.936 175.516
113.75 128.869 127.588
72.9223 46.6555 74.9981
105.005 53.2724 106.633
12.0875 89.8022 77.4497
22.5354 150.932 144.641
32.7422 92.0101 37.445
18.4638 162.599 100.37
43.0478 168.008 137.865
61.4785 175.421 143.553
135.587 148.155 232.612
65.9195 122.357 44.7064
62.8259 49.5348 126.856
24.7448 56.9827 95.0523
52.7855 133.923 46.8776
52.9352 103.303 171.474
14.0615 81.6089 106.4
19.805 154.137 121.249
36.492 119.014 53.4585
59.0422 136.249 176.167
16.5313 87.4281 112.412
85.859 104.892 168.203
30.1759 55.8884 111.958
54.0746 180.921 123.176
24.3286 70.5641 50.6527
110.067 78.186 82.2107
38.2521 111.787 44.06
41.5804 85.8389 153.877
29.1842 60.2915 117.338
128.576 152.9 233.71
24.5345 86.6548 45.8104
66.1733 101.36 170.622
38.9212 141.249 46.0821
17.0021 67.3809 89.102
63.9407 120.714 33.2358
41.6632 53.0767 64.7926
36.3138 48.1157 93.9921
57.6283 66.3189 50.4534
116.175 115.802 108.511
43.7998 103.957 165.25
16.5667 77.6702 57.0187
135.827 162.069 236.222
11.0519 103.576 86.3457
48.9956 152.803 169.067
18.7966 135.813 143.65
52.295 127.715 176.679
101.983 138.834 143.35
90.1945 46.0739 97.8785
59.8465 62.2067 142.318
61.5763 40.7259 87.4241
38.562 177.612 86.2306
58.7026 115.904 37.8167
47.5358 159.954 164.728
67.921 69.8441 166.187
32.2957 149 161.013
55.4085 178.053 131.588
40.5164 161.165 55.9969
46.406 174.478 140.604
66.1532 64.2185 150.02
61.9724 44.8908 75.5538
113.032 109.402 99.7228
83.7832 129.35 169.803
73.343 130.359 47.6503
47.939 135.158 38.0559
65.862 157.978 163.158
94.6275 128.083 47.7405
21.5169 61.7153 76.4283
18.3268 100.482 71.9488
51.2193 127.659 35.3504
15.9607 132.615 130.069
64.9834 141.876 40.9293
112.842 83.7371 118.128
83.8243 114.743 173.626
12.7599 84.9469 99.1557
39.4332 47.5739 116.649
61.622 178.442 124.466
66.5176 86.9063 166.227
99.0086 68.9354 85.9304
48.9044 57.3249 138.607
24.0771 69.0404 121.685
68.0926 75.9912 44.1211
61.0971 121.38 178.255
117.434 99.2898 88.2584
69.8734 69.4252 51.7564
80.2616 50.4945 125.202
99.3015 161.738 107.161
14.4458 148.585 112.26
110.725 115.275 134.09
104.429 69.5344 102.678
115.777 89.6513 106.332
78.1331 113.038 169.315
101.857 154.783 112.606
109.676 84.6606 125.685
76.3337 126.633 174.931
107.317 92.3333 133.784
117.984 87.282 97.5302
23.7739 131.278 156.431
41.2436 174.704 109.693
31.3419 169.603 77.0178
15.9307 127.663 135.44
82.7136 101.488 47.0568
31.0372 170.402 118.176
26.5857 140.15 152.065
11.9367 80.7995 73.6983
118.573 101.523 107.585
46.7809 42.8635 80.2893
39.0818 133.318 50.4534
30.9544 100.246 153.831
59.2029 52.8596 57.172
117.915 102.68 114.648
40.4476 46.0765 78.7523
78.6441 165.812 53.5808
22.7296 163.258 91.3779
31.7091 76.2659 48.4242
99.6553 58.2448 75.6949
27.6584 81.5551 55.9368
85.9445 94.1916 165.859
42.2108 56.4905 72.371
118.581 110.313 112.133
84.3244 196.809 241.01
50.2581 72.5047 42.4648
73.6839 43.5895 108.007
92.5563 135.536 163.449
31.7977 159.013 155.143
49.7181 112.008 173.046
92.3515 55.8013 129.438
20.8335 62.7305 83.6531
34.2271 47.6526 102.093
27.6103 52.4948 103.421
47.0516 145.908 164.182
31.1631 110.95 161.268
68.0902 97.5499 41.705
12.8848 97.7581 60.7639
48.4901 172.585 65.5258
30.8515 172.72 104.389
43.6202 177.37 77.9902
66.7552 175.336 131.74
54.3525 183.275 104.281
71.3953 153.563 53.1908
58.3794 98.4814 169.309
88.3941 70.7306 144.067
19.8364 114.982 55.1953
90.7264 47.5756 106.914
38.3827 169.612 66.7445
36.6179 175.98 119.847
37.0412 170.532 132.986
20.127 80.3898 50.4933
50.0901 97.5574 168.952
26.9653 138.779 161.003
20.1284 149.856 129.185
48.4279 54.6895 56.8518
113.541 130.541 116.707
27.4404 153.613 139.045
70.1969 162.014 48.8714
102.836 72.4166 77.3215
31.9717 141.049 46.0875
63.9478 92.9638 171.438
120.056 106.298 100.557
71.5694 168.676 57.0214
93.606 53.3212 119.37
45.4497 59.6799 53.1866
31.0719 79.3842 141.752
104.286 117.271 144.016
96.0519 136.572 156.074
28.2483 64.5288 129.13
87.4511 129.884 43.8791
67.8261 176.82 77.538
58.2978 75.3182 159.913
89.4635 139.414 49.8155
100.427 150.356 119.605
116.602 81.0215 99.3611
67.8563 43.8136 94.8387
45.7577 108.697 36.7314
105.484 129.475 140.921
43.0515 163.592 157.208
27.1949 112.505 155.837
88.0362 49.5172 123.427
58.3556 151.522 43.2934
65.8349 51.6532 136.621
73.2559 135.99 40.719
67.1464 72.2091 149.12
109.205 63.1816 112.407
82.6421 57.3479 67.9952
18.0023 90.1202 50.2089
71.3951 139.301 82.8746
99.7744 158.351 118.299
87.1484 116.143 162.292
60.8663 134.715 48.3082
66.2265 181.072 104.785
22.87 58.5849 107.135
47.8838 170.467 155.583
91.2701 123.078 167.8
47.7422 102.209 37.1385
48.2695 84.5178 157.072
89.4443 157.882 62.37
79.2423 106.37 173.201
66.9479 149.262 169.167
96.911 158.244 91.7651
58.8266 92.2704 36.5835
60.578 50.5038 66.2957
18.9498 91.503 65.4395
61.537 85.9406 40.7784
67.4694 64.1957 141.662
56.6156 99.9972 36.5156
100.735 131.138 151.702
62.6563 129.712 89.4729
26.382 113.856 61.1887
33.7415 88.338 150.512
94.7958 64.8081 82.7259
97.6745 118.283 159.609
38.1032 108.157 158.977
112.676 98.3783 75.3102
65.569 169.939 63.3147
43.3929 111.006 171.803
85.6799 173.556 98.4161
42.8722 67.906 53.478
68.5473 40.075 102.757
14.6329 127.92 125.529
137.89 155.323 238.438
91.388 109.782 46.2255
56.6473 58.2909 54.0653
83.8048 119.949 42.6154
95.0744 165.667 101.838
29.4427 113.93 45.9645
112.552 76.7042 115.001
106.431 105.667 140.777
89.3895 107.535 163.095
81.4405 44.8722 119.478
109.57 72.5865 108.735
84.063 147.654 158.358
66.5387 41.5545 115.205
74.5719 147.022 43.0704
95.3231 65.3277 137.035
83.5765 78.5395 60.9196
95.2391 158.885 127.359
54.9238 156.949 46.8512
88.55 151.399 137.496
95.1182 133.799 149.742
77.5732 59.8519 139.983
80.4084 149.642 47.4472
30.6431 130.733 159.918
25.7414 96.6939 140.365
101.555 69.2322 133.728
18.5015 69.9759 112.624
22.4505 169.712 105.283
47.8125 130.668 51.2452
84.2123 131.284 159.534
48.3283 40.0192 99.4789
51.9024 113.623 33.4933
74.3131 65.3017 57.6205
47.7167 96.248 40.1825
38.2105 171.523 77.2028
21.0344 154.539 132.429
92.0908 88.6637 154.934
63.1314 109.683 176.138
71.6749 57.798 57.4242
16.8626 71.4062 104.784
107.161 131.776 124.429
110.909 136.746 115.942
57.7392 110.796 174.108
55.0712 117.36 177.034
24.9495 165.885 122.037
79.56 178.395 110.832
70.9458 154.355 166.906
119.687 90.0762 92.0944
99.3361 77.3644 139.516
92.0215 59.0794 68.8214
54.8939 107.411 37.3266
102.364 140.266 127.929
37.5847 64.3953 136.929
35.2276 105.635 38.5552
70.9271 124.958 75.6772
48.6774 45.6827 105.066
107.851 122.653 128.022
111.378 137.965 104.107
64.1118 176.91 86.306
102.704 51.2285 95.5964
57.8087 89.6293 168.707
62.1772 164.718 60.4428
51.9744 64.0142 55.4793
104.888 99.3403 142.134
81.0255 88.3706 159.564
50.8202 175.915 73.6369
80.6132 43.5678 94.8472
98.8421 87.5877 143.03
13.2136 133.206 114.406
72.388 160.258 159.962
14.577 85.4795 83.9684
75.1716 82.1299 48.1974
48.2462 177.134 86.1953
79.1375 168.507 64.4239
38.4738 79.9532 151.64
46.2316 49.2886 72.8125
50.3243 85.5031 39.2252
81.9103 142.829 45.8922
14.8895 132.389 92.2141
81.0489 131.975 46.5252
43.4457 182.662 96.8036
67.7061 73.2243 157.546
82.8862 181.993 241.357
16.6185 113.136 70.1011
28.7891 91.5422 44.2537
114.221 95.5953 119.261
65.7602 137.535 89.2248
38.9052 140.141 166.58
90.4653 158.43 143.309
94.7371 150.292 131.567
85.1282 69.05 55.9612
87.7409 151.054 54.9821
66.2371 54.9231 62.3125
12.0389 108.22 67.5113
60.33 134.625 77.4572
12.1064 133.653 103.397
22.5224 145.808 59.8534
103.628 121.2 64.8511
48.5762 3.54978 161.323
14.9242 140.282 89.1849
83.2908 79.7044 51.3084
16.4559 71.4474 65.6753
15.2254 112.714 61.8303
98.5096 111.296 157.995
94.5381 82.6127 54.7351
81.0031 89.4967 45.2337
99.1514 62.803 122.519
77.6395 66.2801 148.626
57.9382 43.2378 121.564
38.978 46.5004 108.031
57.4157 170.612 69.0659
21.3006 119.842 62.0295
69.4029 174.49 70.636
105.382 79.025 131.321
77.4502 175.151 90.946
77.1737 134.481 76.9423
94.4217 81.2333 148.912
22.2013 74.5781 125.449
33.4551 137.169 164.996
64.1974 124.585 81.79
103.112 146.86 97.1121
93.9751 97.3463 52.3333
81.6564 79.8141 155.646
53.9457 166.821 56.0249
112.98 104.317 108.056
108.088 78.7922 72.366
98.9169 80.8656 63.9435
14.3573 140.515 100.551
46.5621 179.576 114.781
34.2076 165.138 69.9742
44.27 180.892 104.954
18.1892 143.155 126.257
102.237 144.056 136.248
99.3174 159.271 100.694
77.3934 73.1826 49.5956
24.4799 167.3 96.7217
14.0106 107.467 93.6144
30.4271 83.8497 40.6051
113.212 109.533 83.0096
114.006 131.333 94.5629
14.6476 127.82 79.1932
96.2739 54.6973 83.0329
27.1207 87.2119 141.809
13.2295 127.714 85.3587
106.913 100.968 71.4799
32.336 72.8627 43.0525
83.9895 143.598 163.925
64.3327 39.1215 93.1363
48.075 78.1104 155.645
35.44 173.297 113.288
86.985 97.2882 159.23
112.961 86.9859 74.7103
113.51 77.8374 105.708
80.8705 60.4021 63.3097
80.4914 52.4617 74.2303
101.59 149.253 87.1431
55.8541 41.668 105.634
78.8792 109.786 39.9636
14.2753 73.6031 86.3377
18.6049 110.136 133.521
55.0363 139.631 39.0796
67.3691 172.731 141.511
71.7668 134.409 170.603
23.0011 160.809 126.467
88.947 86.7399 51.0803
74.3826 43.5182 90.7882
51.7354 182.259 94.2804
98.7891 131.214 58.4876
76.4731 138.117 167.717
47.1569 162.968 59.3292
50.0943 64.1782 142.007
33.4368 230.248 272.154
14.1198 106.84 103.525
12.0856 136.759 96.2803
58.8358 87.1029 160.739
36.4574 81.706 43.8053
109.757 141.471 122.911
50.7768 119.395 42.2132
100.178 115.391 59.4806
22.0381 88.5893 131.274
39.7243 84.4021 37.3886
53.9643 50.9531 60.6727
112.814 73.8499 96.8504
75.2003 149.032 165.615
36.6861 59.2477 131.9
79.4658 168.764 135.527
98.4961 73.6128 69.8024
97.1578 119.846 52.9046
83.4545 160.199 60.951
31.6932 133.979 46.2465
55.848 148.802 50.9152
95.2602 88.8937 51.7848
91.7062 65.7187 127.282
47.5552 161.778 50.7939
15.7407 142.513 83.0067
34.763 158.032 58.9402
95.2966 152.396 141.414
21.328 138.232 66.0075
112.666 116.977 78.8278
23.0806 97.3951 51.6859
66.4543 179.545 114.732
95.6331 154.801 81.6266
46.4288 47.3863 122.92
69.4624 111.722 36.4668
68.4864 125.618 175.921
96.501 60.4678 92.0426
49.1259 150.62 48.7728
94.5267 74.6622 60.6902
44.727 82.8244 38.94
73.3096 179.471 94.1092
31.5922 165.325 140.364
90.1604 53.7019 77.4288
92.8198 140.815 145.728
100.511 93.9379 146.251
73.3117 142.482 168.937
29.038 106.846 54.7886
89.0862 60.4869 62.6971
107.281 113.422 75.2236
83.4642 48.614 78.3053
108.83 62.4513 105.43
81.205 154.52 148.961
66.035 134.86 72.1921
111.475 73.7444 79.712
85.5757 169.185 66.3677
29.0577 122.471 47.3373
100.208 108.742 54.7684
107.685 69.1942 91.9533
75.8891 178.826 102.113
27.9776 122.39 59.5132
88.6804 141.81 153.292
83.5655 167.254 83.5063
90.8391 164.175 89.8652
100.061 64.058 70.4515
81.1299 155.152 54.252
52.4793 161.853 160.6
63.2022 136.76 154.495
82.1523 155.203 157.56
55.6734 179.962 83.7735
104.55 60.4458 99.5785
79.192 144.196 51.6717
67.7004 163.718 149.257
28.2076 161.693 136.182
15.7469 122.46 84.583
82.8089 158.356 138.618
22.3299 121.876 54.2862
31.3571 130.416 51.2704
52.5275 122.341 46.7644
76.6269 33.3406 29.7442
72.7929 177.104 118.198
59.2067 120.433 83.959
31.4575 99.4546 41.145
109.096 141.413 128.491
22.1504 85.6548 63.7598
62.5825 175.071 72.7816
101.423 103.188 64.5361
12.6015 102.084 102.133
78.7181 165.338 145.193
56.9327 109.993 82.7925
94.1435 149.532 149.582
91.7439 166.222 95.0502
56.1152 164.448 50.1447
91.0175 163.287 128.119
78.0595 73.0828 154.332
66.2217 134.66 83.7141
58.5 142.022 170.863
83.7013 65.319 146.934
62.3082 118.798 78.7226
73.1934 116.825 38.5816
53.694 155.64 52.6362
97.0473 56.4557 112.334
96.4062 48.8406 102.983
69.403 131.212 76.8356
13.7956 128.746 109.163
88.4291 57.4076 88.8126
44.3465 45.1519 111.919
81.4922 72.3718 148.352
105.201 103.822 67.78
25.5608 231.352 272.234
62.1058 162.368 158.536
106.168 93.7724 60.3578
25.2986 66.038 69.5469
47.7477 230.022 274.268
58.669 82.0103 160.043
38.9233 122.916 39.0419
30.7061 128.535 56.8185
81.9015 158.88 152.93
16.0484 133.846 100.079
45.4112 14.2249 147.879
13.8321 87.6818 67.1643
11.9813 121.021 89.2983
16.897 124.385 89.2609
59.2437 148.498 165.338
52.8338 1.56555 165.895
13.1462 126.435 99.8317
40.5324 125.405 42.5646
87.4468 75.4595 151.014
94.3818 52.3274 188.92
85.6896 186.385 243.9
54.9242 84.6556 157.724
95.2631 105.025 57.91
19.1195 99.1971 53.6445
55.9675 121.636 88.8349
108.218 142.224 85.9652
11.6418 132.955 83.5016
77.7218 174.255 124.948
46.0894 46.9753 116.657
111.98 98.8232 65.1371
15.0764 99.0843 96.8957
98.5245 57.632 97.8181
18.3858 113.228 141.357
76.5913 121.146 43.6754
13.7959 134.231 86.3002
92.9362 146.02 59.0771
25.6171 106.42 58.0549
104.904 62.4628 90.908
90.871 46.7397 90.4292
90.1449 159.898 81.3295
