ply
format ascii 1.0
comment Created by Open3D
element vertex 485
property double x
property double y
property double z
end_header
28.2113 162.967 90.1059
15.4941 140.418 90.1085
38.7404 128.941 101.93
66.9742 158.426 83.3049
22.4671 225.596 52.5122
14.1025 139.114 81.2894
39.1184 207.675 55.4317
43.2611 214.689 29.2559
54.5909 164.903 79.5921
47.6427 97.8044 76.4286
23.6916 97.9837 71.3169
18.8187 219.789 57.1417
13.3951 208.609 46.267
22.8173 142.197 70.232
41.029 161.37 81.3386
40.9752 90.3287 77.3743
14.4875 170.926 61.2931
58.4121 92.0638 78.2228
16.4002 192.599 30.2223
12.891 110.981 92.9872
46.9371 81.8311 91.1065
30.1561 122.11 59.9177
41.0482 226.735 41.6507
38.6874 112.605 74.0954
18.2412 198.291 45.6452
53.7933 104.662 57.9492
36.929 107.989 77.79
37.9699 191.846 52.5338
44.2103 103.208 58.5408
119.255 66.0103 35.6889
20.8627 151.726 74.2036
26.6346 148.742 110.789
52.4776 84.9888 74.3998
47.0526 119.278 53.904
38.2747 105.911 120.516
26.3792 105.819 82.2671
62.2246 96.1445 126.516
12.5395 196.634 34.0817
21.9196 144.244 98.0262
36.0866 102.849 109.902
39.0345 147.436 69.7642
48.4415 89.8253 66.0866
33.9165 221.222 50.7319
39.6946 85.1532 100.609
30.477 135.458 80.7969
27.511 138.326 61.5004
47.2996 103.388 102.98
17.7438 100.346 87.3037
45.3592 91.0516 92.4416
36.2729 102.973 59.6575
31.6643 199.318 65.7259
75.2003 107.755 86.9823
42.9396 161.187 109.958
34.432 99.3081 72.4145
27.016 156.55 106.896
40.9581 99.4342 103.691
61.9885 91.8992 99.7189
61.3666 161.752 76.2242
69.2476 93.3694 68.748
42.6811 218.325 51.6428
13.3545 200.636 53.0277
40.696 99.7431 90.1657
32.944 108.609 105.31
27.349 112.958 99.1773
50.4985 125.4 120.833
13.1578 123.598 95.0494
30.7909 112.447 90.9985
39.0949 184.488 47.3858
82.7849 94.3893 103.202
53.0863 102.813 72.3418
61.5816 103.412 116.166
35.0731 161.409 109.042
19.906 192.63 53.7339
54.8538 163.288 87.7437
62.7455 112.528 116.165
50.2451 220.855 41.9492
33.9799 100.913 101.974
75.1166 127.159 122.467
47.2781 124.606 64.262
70.5426 140.951 62.8845
19.8511 117.758 88.6206
54.0256 109.149 118.239
51.8253 96.575 102.255
15.9372 112.272 108.341
59.0078 88.5408 88.2283
31.8051 96.2627 79.5543
17.7506 132.441 101.471
45.1935 106.343 126.699
35.6275 227.748 56.3945
24.4003 128.643 66.5066
57.4678 80.5161 86.1223
65.8822 92.5139 119.948
54.9082 89.0316 112.449
65.0424 85.1893 76.184
24.7253 117.237 77.2881
21.3632 123.291 82.039
30.4813 164.013 84.6064
62.4014 108.316 57.6005
33.1383 151.203 101.965
54.8051 96.7051 121.727
14.8038 165.991 47.2212
34.0805 140 89.8732
51.5383 88.6474 118.51
18.0752 138.423 105.632
22.6558 216.062 39.0039
44.0213 99.0787 122.236
30.3409 94.5648 112.95
33.4918 109.074 83.7325
33.9036 89.7536 71.7655
25.9173 94.4038 105.752
13.4187 205.808 35.4491
83.2385 90.859 92.1539
30.4797 124.178 125.115
70.9276 153.819 74.9034
39.2389 104.738 71.3344
46.1726 144.716 130.641
62.0495 163 92.4618
45.609 101.275 69.7694
26.2734 91.8988 94.2253
49.1967 150.618 108.426
68.2793 112.807 104.26
44.6108 97.0027 64.5345
53.2071 81.8157 93.1869
59.2975 104.148 76.6254
23.2795 199.619 27.8123
124.494 60.7021 41.5438
29.6796 104.486 67.5986
36.5772 96.9605 66.8756
89.7374 113.121 107.038
67.6937 91.5908 113.036
42.5687 127.625 110.278
75.3565 89.1942 74.4152
31.7378 102.797 116.915
35.449 91.8024 92.701
19.9204 214.344 30.5081
21.2591 199.06 64.8009
17.3909 123.542 77.4949
33.1671 132.644 74.2232
34.7174 123.94 108.928
45.8475 133.898 114.443
59.5519 126.002 115.079
29.457 144.648 97.9811
28.7383 140.252 76.903
28.559 139.27 109.359
45.2 105.504 109.611
51.473 99.9813 127.785
40.976 130.624 130.84
36.9325 124.951 67.6922
70.0129 98.9695 76.7166
51.0736 101.336 116.64
22.8524 128.881 111.201
54.0667 118.299 114.773
23.484 133.36 73.0063
23.9019 106.627 110.808
46.348 116.431 120.752
67.2493 137.882 108.8
58.8161 93.3457 118.656
57.6741 129.955 131.155
83.5138 110.191 69.3498
55.6775 86.1926 103.701
30.0299 220.439 58.6963
22.737 148.412 67.2232
18.831 128.352 105.928
22.7952 118.228 108.031
38.1717 135.275 118.454
30.9742 94.9113 87.5572
29.9792 149.169 93.4685
43.4566 120.506 113.06
58.4062 115.495 120.849
27.6769 128.236 120.044
53.1568 91.0742 92.0135
34.5007 90.5764 100.094
60.8844 145.387 72.1315
54.9594 120.441 122.895
63.276 152.147 112.586
49.0022 113.327 63.7326
62.1618 113.664 129.725
64.8833 147.782 118.66
27.4673 119.742 101.602
60.4203 158.365 107.83
80.5489 120.349 121.209
27.2653 122.775 94.462
53.3852 159.442 110.89
70.1653 152.004 119.106
36.3627 93.623 116.167
65.2235 156.596 100.414
53.0846 91.3093 98.2205
21.8942 97.6662 96.8742
28.7433 111.015 112.337
58.8628 100.774 99.8078
39.9404 96.6528 76.8965
75.8233 116.613 61.4258
69.6188 92.0411 79.3581
48.8285 188.066 49.5342
64.9756 122.876 107.768
24.5648 213.633 56.8505
52.6572 114.204 128.673
56.8732 148.51 127.169
23.4211 114.4 84.6098
27.2274 140.772 88.0302
36.326 158.121 95.477
26.5717 111.312 73.2642
65.2156 140.604 114.241
61.1217 95.2609 92.9736
85.213 107.287 104.874
14.0149 129.175 88.8073
36.7831 147.246 117.552
19.974 101.872 106.757
62.5178 100.51 58.0731
73.3486 156.786 91.4145
46.7501 106.197 73.3974
28.5448 116.92 117.671
79.157 98.268 95.8643
50.3044 154.142 91.4479
50.3714 136.028 134.553
57.0974 205.643 50.7688
34.2345 134.938 110.368
42.6798 142.891 123.803
57.7903 150.455 65.5574
76.2369 107.872 64.2708
72.3412 104.877 119.045
45.4899 89.3295 111.097
77.8885 98.6634 111.389
56.0878 102.856 107.027
25.0929 122.03 114.042
78.3041 115.827 114.302
36.75 123.608 117.84
33.0567 154.444 79.07
47.6722 83.0763 98.2102
31.159 138.649 99.5158
45.1823 140.161 69.1039
53.9851 163.146 98.6043
59.848 97.9488 85.4627
37.7746 115.776 111.222
54.5388 108.008 126.743
40.5272 118.185 127.349
76.6629 135.586 66.26
45.1903 92.0602 118.111
42.6801 112.169 130.087
40.1361 142.583 102.945
44.7656 138.494 131.373
28.5861 108.523 121.455
77.9159 87.8516 96.6522
53.0909 125.184 129.09
21.2725 117.155 96.2281
65.0633 84.2109 102.741
72.4254 108.673 100.972
24.734 113.404 65.3537
44.4925 166.825 90.8547
74.2726 126.375 62.6043
87.1127 108.724 97.457
29.9496 138.522 116.72
24.1566 130.217 93.227
19.0835 187.402 38.8433
85.5038 102.449 83.2518
44.8899 93.3902 98.5984
81.295 136.991 116.068
47.3988 154.96 81.9532
75.1363 156.125 102.786
43.3216 151.217 91.1344
37.5608 91.6985 107.306
87.1131 121.659 68.0139
36.4112 188.432 34.8849
29.1663 89.731 99.5588
53.0651 97.0644 61.9447
31.9037 103.692 89.6545
42.9053 111.368 111.931
70.3533 127.346 56.9459
68.4796 116.729 111.625
24.8324 207.24 37.4697
68.055 115.496 57.8997
63.1921 145.681 100.402
31.674 131.717 101.858
79.6744 149.459 102.984
15.9108 113.954 76.4134
20.172 130.853 82.6438
18.8815 132.569 91.909
67.2493 99.9133 120.546
62.481 124.163 133.818
64.6743 81.2542 90.2053
78.8654 104.166 104.028
49.1128 131.207 131.944
31.7263 134.895 58.6698
30.5418 87.4165 108.729
43.1952 182.731 39.6271
40.8148 99.4989 115.178
70.179 133.53 118.611
77.2434 91.3697 106.121
32.7551 202.768 51.5095
51.9708 84.6995 81.5208
46.5507 96.0357 105.845
75.5158 152.654 84.0687
26.8424 104.028 103.941
34.524 129.376 118.167
81.7213 118.907 70.2952
70.0753 98.0795 105.357
71.6491 109.481 70.245
30.7508 120.098 81.9493
30.2396 220.512 45.3
41.4673 157.342 104.204
45.7981 84.9527 79.7921
68.7211 103.129 64.403
67.5535 118.835 126.149
51.3543 91.6634 107.809
25.1284 200.299 40.7803
78.3338 150.269 92.1947
56.6877 153.234 83.0948
76.0039 102.03 70.7422
121.689 74.867 39.1811
23.314 95.0935 78.7015
83.032 113.897 110.794
69.8474 152.284 98.7817
25.2833 104.474 89.7082
59.561 94.0547 108.811
50.2341 106.095 132.194
115.695 71.8021 44.8691
69.5943 110.768 126.141
49.7173 95.443 84.0613
73.1608 148.081 104.456
30.8444 114.486 60.83
27.4308 143.071 80.0997
71.7314 89.821 99.2063
30.4358 125.768 103.33
11.527 167.476 53.3631
74.253 119.721 121.425
40.0623 129.99 85.3381
27.2173 185.902 42.6554
69.9259 148.365 112.133
66.2284 105.736 121.503
74.7326 111.026 111.917
55.1503 132.757 121.311
18.8961 128.501 61.2639
58.6601 100.029 63.5262
30.9372 127.374 77.8413
27.4091 100.288 111.133
67.5597 127.735 120.972
15.8791 225.102 211.295
27.0697 94.6669 82.9062
46.4621 125.089 132.512
16.3981 106.346 101.882
60.5057 81.9017 99.588
74.7235 99.3768 122.772
118.642 80.3103 37.5559
79.6867 122.327 109.952
65.7667 105.607 81.6272
58.3352 149.413 111.181
42.0144 202.829 60.2113
65.0684 119.551 116.141
39.3108 123.892 129.765
55.4126 141.403 109.028
22.5806 112.702 113.991
71.2318 82.4289 89.2634
18.8332 121.126 105.05
32.6571 113.554 122.064
43.9506 127.809 121.316
63.1361 94.7231 66.6151
49.0983 143.932 101.717
35.7215 146.506 92.2479
71.2249 98.1101 114.03
48.6116 92.8157 123.032
70.0947 143.433 120.785
17.4514 108.428 81.9654
41.8164 92.31 84.4732
45.3633 126.407 88.004
66.4419 106.577 109.372
65.6155 128.019 111.494
36.659 184.194 26.5509
54.0893 152.087 98.2387
14.7786 114.307 102.193
44.1231 213.19 40.4584
53.3432 140.225 127.794
63.1862 135.802 122.506
67.326 79.8297 97.2816
60.1745 118.568 133.543
81.3324 143.964 105.462
22.5103 157.485 78.4566
68.9149 150.835 89.653
50.1025 194.901 52.6513
72.6875 103.439 94.7627
36.4106 112.336 126.388
32.2809 210.725 228.594
19.0662 117.938 70.2245
77.7622 116.15 100.924
73.7107 111.067 119.473
41.4588 160.111 116.493
54.9665 94.0083 83.9842
61.0668 121.935 67.8889
48.5028 108.653 117.691
58.6016 148.481 88.3865
88.0837 104.092 91.0556
62.0516 131.094 120.896
60.0802 107.471 125.466
30.5588 190.376 28.7824
38.6499 149.814 107.987
51.1924 89.1522 71.0258
42.0275 142.903 88.604
35.5529 127.605 127.888
48.0759 151.498 117.983
26.7653 231.222 216.738
44.2725 142.372 112.63
64.8955 85.0343 84.0166
62.9444 144.173 126.356
77.5611 130.221 116.266
59.158 118.871 110.488
37.1014 215.099 39.5018
80.8037 107.205 110.298
51.4919 128.069 75.6008
31.9563 147.472 86.2196
71.0961 134.289 103.758
51.453 127.816 114.756
14.2361 173.056 72.4015
49.3373 191.869 42.978
67.8141 133.885 67.5353
19.3914 122.932 96.2023
19.0384 107.787 93.7079
57.9454 131.793 96.8623
59.5397 162.186 104.486
70.4939 137.454 125.751
84.2366 138.768 107.984
90.0054 118.14 96.8099
72.1059 121.744 107.162
23.7422 103.829 99.3863
85.4405 112.064 91.6904
49.7841 127.089 96.5068
73.5539 94.2922 88.4115
51.1211 145.989 118.612
80.2091 216.685 20.8362
63.5715 99.0681 106.293
32.2641 105.786 97.1234
57.8144 108.624 110.772
77.2939 134.686 101.826
67.9463 153.191 108.866
67.4174 97.2963 94.1709
73.2788 106.531 78.6427
78.7031 144.957 94.2102
79.0135 98.9543 80.5147
82.8004 104.891 95.7851
46.9097 138.061 120.212
85.5143 144.363 88.7411
80.6697 145.302 76.1371
55.0365 113.949 94.8594
73.7139 119.766 71.8505
37.9585 146.857 100.645
25.8337 212.177 63.5141
71.329 141.088 98.6493
59.8101 138.566 124.642
76.4299 94.442 77.8811
72.6488 128.357 109.724
88.5401 121.46 107.016
54.9807 127.932 66.1552
11.76 229.289 211.163
47.671 129.571 86.6629
19.8122 202.124 36.8452
49.3005 120.3 97.0561
45.7923 194.086 48.9025
50.6316 198.7 45.0692
31.0017 181.516 37.8749
62.8183 88.9609 113.063
60.1043 116.266 86.8471
74.1494 141.356 108.321
56.043 144.272 117.734
86.416 139.533 97.3583
83.8992 128.922 104.553
80.9457 98.4683 90.3123
77.6 109.235 74.0297
67.7307 125.557 70.1536
67.2741 98.4605 85.5778
87.1778 129.24 109.817
55.5239 115.815 79.7769
61.1884 124.769 125.049
22.2977 224.717 222.005
79.2335 128.631 106.075
79.5054 111.197 80.1261
50.9729 123.81 82.3431
65.6578 104.376 102.023
54.7463 120.688 80.9014
38.5168 113.032 48.2967
84.9861 113.921 77.8676
35.4252 90.0213 8.46495
60.5343 142.308 93.1074
42.5119 136.588 20.4376
79.9342 214.021 15.108
75.4613 112.699 94.4608
14.7494 230.314 196.251
18.3031 111.8 87.4905
