ply
format ascii 1.0
comment Created by Open3D
element vertex 1763
property double x
property double y
property double z
end_header
51.2985 44.4178 246.297
15.9035 15.7198 216.744
47.6714 197.419 187.56
46.9626 55.4733 184.529
22.0422 178.594 123.615
29.8717 156.787 254.625
29.3079 142.373 92.1046
31.3676 140.704 110.811
40.5381 82.2265 139.303
21.072 49.1409 199.374
83.2835 50.5749 135.384
21.5244 5.54837 241.952
19.9965 139.775 109.178
28.5356 35.287 237.342
23.0099 110.692 172.143
41.9118 119.701 68.8617
24.8844 151.581 170.921
50.4235 193.953 124.319
12.8664 129.416 149
23.8686 3.98135 229.492
22.6504 95.9991 127.227
15.8575 90.2519 124.47
43.0011 115.059 79.6529
64.3451 123.172 219.24
93.3792 50.8666 137.652
70.0884 24.8183 177.023
40.3116 122.334 133.951
62.8056 204.622 187.132
56.8582 71.9349 91.1967
29.518 92.805 159.956
47.6328 99.648 150.609
62.754 65.8152 95.5413
20.6811 141.597 160.564
27.9451 15.9767 221.004
20.19 72.2687 119.753
18.8235 89.2037 100.744
25.4743 133.784 152.59
40.0362 221.625 187.494
27.5978 147.468 177.219
29.4531 11.5666 16.2051
27.9174 11.2699 25.464
41.9566 34.8911 228.566
29.6185 189.908 135.296
94.2122 64.6024 160.752
30.421 148.879 95.4256
94.3097 92.5326 52.2928
16.7346 133.18 121.674
45.5027 121.177 154.76
31.8654 113.195 106.774
42.7473 196.781 120.522
41.158 141.138 168.037
64.821 62.0032 143.924
12.56 114.107 177.391
11.1315 150.56 165.61
37.1614 4.16119 198.176
38.63 70.8788 119.947
45.185 185.838 169.913
42.0723 183.087 189.364
55.9876 203.48 177.695
27.92 122.042 184.602
22.6509 109.582 180.032
52.4162 17.5828 176.738
10.746 146.143 137.917
45.0877 135.611 265.428
13.3743 150.973 175.919
72.6895 75.8037 164.091
34.4207 134.085 134.589
31.7481 127.225 168.672
84.0917 139.827 54.1003
41.6258 101.702 139.051
41.0051 55.826 222.957
23.8162 130.567 171.729
50.472 70.4132 144.281
17.3503 220.388 206.037
29.5186 180.846 106.926
62.3146 111.238 191.868
18.7246 122.307 187.359
40.6607 30.2372 170.221
20.3796 115.752 148.175
84.7044 74.5964 52.915
47.2416 195.033 113.792
17.6401 44.2657 216.425
18.2339 13.8166 225.595
35.3745 106.581 88.6222
45.1489 20.6271 210.558
63.376 98.176 50.0921
37.0018 103.219 121.638
23.639 101.474 119.773
84.5292 67.8224 78.1505
94.2945 66.0403 82.9939
63.9785 212.867 113.224
19.7942 130.877 114.257
18.2948 144.622 3.56579
31.587 92.2251 152.958
79.2521 70.617 169.146
67.5878 212.014 100.585
26.77 82.7802 141.707
58 40.1872 226.14
40.8269 147.25 231.666
46.1057 169.256 213.87
15.8485 28.3002 225.934
30.9533 2.32797 251.317
41.9347 124.815 169.18
41.3563 53.3326 234.858
29.9163 99.1196 129.685
21.1669 4.97653 5.14837
22.8397 144.727 117.193
42.0834 183.208 219.915
44.0578 72.4967 130.294
29.0233 154.305 79.1171
19.7931 113.408 162.378
92.9978 67.0243 144.078
90.8943 49.637 125.788
60.3136 198.343 97.7283
64.1141 101.294 189.382
61.4043 220.712 226.205
54.1741 197.959 169.051
51.2598 96.5785 165.13
72.9744 115.032 61.6933
29.5538 100.636 105.607
33.9342 190.773 116.23
21.6258 36.4018 193.187
34.9956 3.12099 206.584
35.63 120.896 166.403
26.6804 134.029 129.772
14.6178 109.825 168.528
26.2615 130.118 87.1473
15.184 35.3991 221.242
33.8345 133.252 126.893
24.8712 17.2687 241.448
26.5943 130.808 186.963
29.1239 13.7227 214.522
36.4445 177.08 156.84
56.5565 50.5324 239.47
58.5801 204.911 100.72
22.259 134.46 165.158
61.3011 85.6302 169.9
12.3427 37.7136 196.401
41.6004 82.754 149.665
59.9251 45.2415 245.925
55.7928 189.991 126.822
57.5554 14.2939 253.843
35.3946 6.14876 86.9559
62.0688 184.549 203.746
78.3277 65.1565 101.759
12.3231 102.665 108.957
41.9125 130.696 107.46
71.7058 79.1362 114.466
52.6651 181.71 140.811
41.5127 197.449 233.943
23.2413 126.302 94.099
87.0439 164.825 69.538
10.2435 137.559 164.595
44.7516 103.561 183.285
56.3697 26.5582 262.037
83.0645 64.4623 85.8902
55.4169 56.0366 181.009
11.1299 135.996 147.057
62.5637 77.802 70.7207
68.1003 205.532 179.216
46.7596 224.604 217.009
68.4063 62.601 127.449
28.0644 81.8228 98.9891
56.2829 134.656 218.341
11.7379 127.713 158.433
35.7323 16.0437 209.675
56.2612 33.1819 169.47
44.5552 41.0651 238.872
25.5301 149.9 101.477
13.0002 138.45 265.841
10.5911 138.633 129.92
40.6513 173.687 80.1362
58.2819 182.514 156.777
56.2543 98.6419 55.2172
32.7693 154.62 125.392
32.1514 47.8214 196.668
37.4517 91.5835 160.365
34.3476 58.4514 207.642
58.9662 45.2281 189.163
13.1027 114.095 117.754
22.9978 124.392 129.399
73.2244 180.114 81.2083
22.7267 47.5259 186.334
28.6144 8.67993 10.1534
35.44 73.5472 125.814
46.8545 95.3495 113.244
14.8034 118.522 124.779
61.5322 75.461 125.66
20.9366 32.297 178.736
30.7949 24.18 242.004
56.9775 35.7126 191.258
20.6263 112.292 108.711
103.272 64.8006 160.118
51.6655 206.996 124.904
30.1465 18.5094 261.032
48.6222 190.409 217.075
51.8027 130.846 272.444
42.8931 131.128 95.7674
61.4879 56.4548 225.069
48.5518 45.6773 190.919
18.6252 149.229 105.095
61.4862 75.6736 116.539
50.6508 146.975 72.6353
47.7312 135.849 171.058
22.1063 98.9338 160.06
58.5065 194.383 218.616
51.5966 106.331 89.606
56.8431 157.386 207.264
40.3447 107.588 72.281
40.8864 139.021 140.698
24.9778 14.8076 249.113
65.628 6.46868 177.123
34.7718 78.9819 128.942
10.7059 138.596 155.481
40.4617 25.9779 204.247
48.9832 85.2958 106.565
15.6987 133.228 3.18457
46.9485 127.654 264.407
74.7967 198.749 180.036
42.3907 95.9114 181.932
18.9428 115.728 182.473
44.1842 174.343 148.307
36.6513 97.0643 113.355
92.9193 223.362 266.012
75.6806 155.001 57.5485
30.184 175.809 146.762
23.845 34.2281 229.293
45.8648 184.826 207.209
26.9864 142.015 102.068
38.9764 197.186 137.321
50.6139 8.77186 182.242
79.1569 208.446 126.721
90.2204 149.972 54.434
28.1046 137.019 179.341
69.9731 23.3162 188.457
70.6068 119.532 215.008
60.5235 201.552 173.408
71.5138 64.3186 98.3328
29.6525 180.884 254.962
19.9375 104.388 166.609
61.2838 65.0617 121.72
16.2178 120.024 153.658
41.4165 172.441 192.17
44.7032 64.7202 121.308
12.4888 90.941 107.355
34.8469 145.983 100.577
58.0085 30.8739 238.051
22.9687 25.3575 244.76
24.3049 126.845 164.796
15.4292 153.481 156.952
42.0313 181.632 124.757
39.619 116.72 105.442
36.4106 100.361 172.398
20.7891 157.083 100.663
33.7556 125.698 70.6118
78.2318 83.6075 186.342
44.3651 179.883 179.989
55.1179 101.708 150.217
51.8139 5.57477 201.906
48.3018 168.229 82.9884
41.7122 203.914 238.186
32.5423 25.6909 170.8
40.4412 143.314 208.371
73.4506 201.468 96.7247
39.2047 85.7077 169.102
14.7379 142.158 272.96
25.896 19.4747 255.16
39.6666 38.854 171.164
32.6572 89.2002 96.1499
49.6729 122.019 139.149
46.5657 179.284 116.183
86.61 72.9947 178.17
56.3323 122.858 260.289
36.8531 16.8263 263.644
46.3688 5.09424 255.684
35.332 100.141 90.7173
30.8032 173.318 248.422
34.9103 125.828 181.356
47.9559 182.267 106.602
41.7966 115.469 139.145
56.412 121.14 106.281
9.97443 148.855 157.271
66.2791 69.685 79.1692
35.6724 119.995 126.462
39.3847 114.42 118.155
52.671 125.655 202.105
30.3045 128.111 243.448
27.5918 106.286 109.481
92.9505 79.8757 176.653
36.3826 83.1523 161.967
49.2792 172.014 269.779
46.7641 227.506 224.712
52.5827 215.047 210.573
17.8752 159.417 260.516
39.2443 67.411 136.257
49.6008 78.9605 81.4655
40.2399 189.465 108.471
17.4759 79.9453 115.521
57.1304 124.444 174.729
39.1649 83.1275 98.4594
13.0926 81.5754 107.786
42.7163 63.9388 111.396
63.16 24.8576 173.176
62.3374 192.249 137.192
18.6659 119.254 114.602
39.5146 33.4266 198.825
53.4342 165.839 184.453
57.0465 189.647 97.114
36.1076 142.27 106.542
48.7094 123.587 105.406
38.5514 15.3154 191.354
15.7511 158.667 269.835
38.841 167.233 93.92
43.8847 82.5643 160.151
33.3534 26.8485 214.829
52.8396 142.71 110.75
39.8843 100.907 96.5911
68.0067 125.837 53.2184
61.4402 46.4675 218.278
67.5646 188.463 83.9401
60.3267 80.5271 156.758
39.331 160.154 89.3399
22.5172 157.08 113.363
63.4935 56.4678 206.795
91.2787 205.15 127.267
65.8148 78.2682 58.5316
30.4476 224.089 211.685
51.1552 208.996 232.597
67.8847 133.479 236.527
27.4391 153.397 117.73
57.1173 79.916 105.772
49.8374 113.671 139.796
35.1831 187.269 148.343
70.1212 91.7274 49.2415
20.1316 126.197 158.363
53.0228 195.225 136.494
17.652 102.799 102.867
62.3941 134.55 70.0341
78.4594 144.88 54.2834
55.0057 202.652 185.789
53.0569 112.128 81.2313
70.7344 207.213 142.667
60.4548 189.467 85.8439
49.5158 72.6205 107.964
58.132 35.4875 247.727
29.2063 94.4324 94.0689
79.1077 102.075 186.099
66.6421 56.486 142.835
33.3499 85.7059 142.939
59.6968 65.0333 108.642
37.8342 141.07 270.236
20.1569 225.035 200.321
22.9136 155.715 165.081
63.2218 197.589 167.015
45.1142 178.307 161.148
13.4379 147.445 267.863
43.1117 181.988 256.731
23.995 8.15597 192.432
29.8647 77.3502 133.906
53.0524 191.772 205.014
40.5722 183.477 104.444
56.9836 110.294 57.8972
35.0715 113.814 176.137
23.6255 161.068 251.635
21.4979 50.2273 208.873
35.1268 142.535 144.209
32.2177 134.071 150.926
58.1613 149.849 71.3208
58.5639 22.9704 245.849
13.2933 127.744 132.8
44.6104 158.437 187.29
55.751 39.3612 233.194
44.8225 27.7302 219.458
13.305 130.941 138.449
106.783 155.092 57.5184
55.613 185.676 190.22
54.8597 89.9037 173.421
53.0526 134.038 71.3235
48.1135 98.3855 96.4769
21.166 12.9909 181.585
11.4427 107.843 118.505
89.7535 66.2145 167.152
64.907 194.98 208.945
63.1109 129.969 79.711
42.8886 205.295 228.214
44.4216 93.1115 104.922
54.6016 103.098 170.183
31.4047 92.7847 143.617
82.6225 57.6898 116.522
66.6962 51.2282 198.789
75.4169 133.376 51.8559
46.0949 72.7443 119.143
93.9783 68.6154 63.4223
72.6826 105.474 189.737
56.6222 11.6795 175.395
20.7959 91.5972 135.319
34.8306 148.177 84.8937
72.1364 82.7974 90.9784
46.6892 195.793 140.291
79.5454 201.104 191.326
45.0803 44.9193 223.876
48.2416 187.766 185.042
12.0713 112.171 126.621
79.4337 79.4831 54.8724
46.0682 159.657 207.159
78.9526 102.541 47.203
44.7662 105.19 104.385
33.0362 115.255 117.036
37.7604 138.189 173.854
32.2593 114.816 76.0684
32.9849 156.812 94.1865
49.4639 147.437 211.824
51.7157 102.439 64.9207
51.9465 201.165 124.479
41.5544 18.6493 11.3484
32.1493 9.55664 182.022
52.8632 6.78396 15.2182
31.1058 8.52012 209.511
38.712 150.604 219.17
10.5258 126.505 167.399
12.0399 160.872 255.203
50.6814 223.67 206.367
70.3269 125.993 253.72
64.5009 50.5133 212.371
55.7594 171.85 138.901
53.9776 18.3216 191.55
26.7889 184.974 120.503
47.5882 79.1207 156.321
21.4751 154.15 271.594
87.4856 53.0868 153.93
45.0098 27.0881 268.333
37.11 47.873 229.947
61.1304 193.1 161.69
74.701 36.9338 239.595
97.0529 115.582 55.1683
53.8416 145.124 206.193
48.1401 136.896 136.925
37.5439 95.1534 165.26
14.8028 139.617 256.386
87.0827 124.522 207.992
56.3336 87.1232 93.9569
77.3859 213.676 113.086
29.0775 3.08087 29.898
63.7518 164.979 249.059
24.2622 45.7769 225.405
10.1933 139.372 121.267
72.8062 56.6893 123.224
28.3109 144.209 231.835
44.3439 177.385 94.563
47.6687 132.537 218.723
88.2299 87.7927 48.6842
34.3834 135.045 93.4282
35.0498 124.471 250.604
37.7052 47.4484 239.511
25.5283 108.661 93.2371
55.0324 31.465 184.517
52.2804 199.38 106.148
27.7925 159.217 101.292
50.5085 33.6067 236.248
65.0167 43.0775 194.298
55.4488 41.7762 174.59
77.6807 203.701 119.434
72.8662 66.8285 134.685
44.0747 96.83 130.168
48.4229 74.7723 90.3189
34.3232 149.377 166.584
60.3005 26.7821 232.188
63.3197 195.99 127.752
45.794 60.062 205.949
49.8293 121.468 68.1062
45.6933 47.4067 177.558
95.1515 69.5794 90.5405
54.8975 78.5805 75.9344
43.0752 60.6609 198.896
52.6476 184.841 165.765
93.2459 79.2486 56.67
60.1395 223.59 202.723
45.1578 105.222 159.114
64.9918 54.5042 189.361
39.7801 13.6786 254.307
54.5838 189.831 241.263
28.0784 93.4667 122.895
77.8222 67.0286 159.369
72.914 216.044 108.415
39.8931 42.0734 243.061
52.8468 126.02 160.519
93.1345 62.723 119.619
38.8854 158.296 120.122
47.9948 182.653 151.802
14.7802 149.806 145.329
16.9139 13.854 199.237
24.9652 180.375 88.6005
82.6588 68.1655 163.962
44.1828 157.556 149.945
47.1901 196.886 174.875
48.0767 178.632 214.704
20.0628 127.334 102.537
25.8634 41.1151 218.572
13.2751 173.298 273.747
24.1338 166.913 123.789
82.0691 80.7256 168.072
47.2947 168.86 199.78
79.6 116.109 49.7637
21.0832 103.2 109.732
47.0052 160.231 81.9015
34.8386 13.1555 6.00864
30.8735 157.363 229.81
16.4565 174.338 265.173
12.0572 164.077 245.363
62.2774 201.237 140.007
50.7921 65.4028 111.096
51.4208 168.743 158.326
17.9261 15.3361 239.538
49.6317 30.037 227.141
37.1034 137.165 85.385
36.4626 151.405 262.456
66.0938 170.631 206.51
17.7365 157.037 150.336
65.1986 116.642 52.1234
18.4705 74.2764 128.244
26.0582 144.143 147.836
51.6172 88.2014 100.166
58.7676 97.104 102.138
29.3031 139.115 163.173
86.0039 69.0418 61.121
68.48 164.75 162.352
61.2075 201.654 149.489
63.0576 135.351 88.8575
57.9006 196.63 257.708
30.5294 146.325 122.103
41.4797 131.884 137.627
75.5984 85.6594 172.511
58.9891 167.843 166.63
29.7361 13.5619 272.293
62.9056 87.8998 137.219
55.2563 48.9207 217.418
66.0178 62.6401 89.4685
11.9779 115.185 162.063
54.0267 121.958 209.087
72.5407 89.0686 186.663
10.6657 137.746 175.399
39.7843 24.801 263.453
50.1935 14.6795 11.2854
64.6761 122.697 87.267
51.2462 203.118 239.576
29.5509 135.153 118.033
93.7558 79.6345 116.317
55.5342 191.339 114.037
45.0211 83.9021 77.324
61.7651 200.238 115.144
17.9227 224.941 212.282
12.0784 153.093 244.071
21.0419 140.414 137.535
35.0244 182.822 100.846
40.5893 103.885 150.977
83.759 174.22 72.0792
49.781 175.504 167.324
36.7844 110.039 135.15
88.3279 132.541 49.1387
53.3025 98.125 119.536
97.523 54.0078 121.735
17.8843 177.817 243.825
59.7757 109.571 177.247
41.2697 162.421 229.763
73.2042 116.924 166.352
47.738 17.8165 256.652
31.6564 169.966 110.568
41.8871 135.859 219.65
64.4151 122.166 67.4695
15.3201 28.8223 219.202
51.5701 100.329 142.604
24.3901 142.933 182.759
32.2546 121.315 95.8078
29.5845 135.023 244.835
45.1394 108.065 168.494
48.1934 195.469 155.372
36.6188 143.16 135.792
46.9873 97.0724 136.813
44.0509 195.997 245.622
52.9514 177.52 99.2913
55.1154 110.718 172.908
47.4312 162.908 153.765
17.8174 137.409 8.7927
14.7685 179.248 260.558
49.5349 30.2889 193.28
31.2995 175.007 123.651
31.7608 136.766 235.478
29.6251 99.1182 116.398
64.8583 148.086 72.3051
18.6666 15.5751 208.835
49.0174 30.1865 170.509
61.0353 116.546 59.6253
37.5328 197.662 127.359
102.524 145.083 54.0522
31.769 35.0273 204.14
11.7393 177.572 237.313
38.8942 94.2327 104.127
39.0467 86.325 127.516
82.4977 205.428 104.334
79.3248 71.9046 95.7035
109.741 121.188 45.9487
90.1097 36.3327 228.666
53.3246 60.2712 198.158
51.0005 196.404 179.072
13.5984 11.1104 231.88
103.469 125.852 48.5037
15.4776 100.792 116.838
42.813 100.378 81.829
44.901 171.679 158.928
87.5959 75.5653 60.5709
62.055 97.3348 135.257
44.3093 172.231 206.193
26.5341 38.634 177.436
21.0803 165.458 267.642
48.1834 27.991 254.7
32.4523 168.186 101.18
46.836 143.76 188.254
30.3914 122.249 129.786
28.9079 127.975 118.274
76.19 118.366 209.433
12.6962 24.3646 202.905
11.1097 122.436 179.854
90.2815 128.67 212.874
51.134 33.7089 244.172
54.8861 200.321 222.642
38.6342 107.629 81.7558
24.3804 174.177 112.951
61.5683 131.702 85.1105
41.1734 146.577 76.5021
43.9927 124.407 143.167
58.4438 98.9291 188.325
71.2176 65.7676 85.0407
47.0563 169.716 174.654
72.2958 203.589 192.742
40.0971 13.7537 201.756
55.0754 2.60901 260.969
29.0481 112.439 178.296
24.5298 154.905 136.339
55.9075 101.182 110.751
25.5013 142.738 4.39538
44.0696 95.3445 145.225
16.0041 157.895 164.629
37.6787 154.601 271.529
40.3436 135.863 158.502
46.7269 126.08 162.032
70.1689 209.549 127.191
51.6946 93.7471 63.2769
74.4334 9.80861 181.969
44.0818 6.88232 91.7798
21.2256 122.192 106.566
39.0663 216.997 211.354
73.579 128.113 201.165
37.5728 19.2526 179.466
56.5676 23.8516 209.269
57.6626 205.309 131.495
22.6007 130.203 133.668
11.2759 87.905 115.746
38.8714 20.9184 18.1607
49.4073 62.8536 124.622
13.9956 145.586 251.342
18.2426 130.209 265.34
24.7291 146.268 106.638
33.8417 91.8392 125.447
32.8998 38.822 174.164
85.0111 80.9233 66.8227
40.1888 131.339 273.91
58.5543 114.726 140.679
13.562 20.8046 190.726
49.3074 130.805 211.108
46.571 116.617 178.272
34.1353 104.374 140.906
22.4916 7.97372 257.437
36.7748 147.627 127.994
57.9052 141.627 221.207
31.4865 5.9748 2.79046
18.0719 108.487 113.966
14.6098 89.2287 141.857
50.1909 114.049 103.707
50.5221 104.107 99.617
73.6939 34.3162 179.587
51.4126 194.928 201.03
70.4324 197.994 134.121
40.5514 153.526 85.2344
67.027 39.9201 237.456
68.8008 70.0157 114.321
44.2381 148.705 117.736
16.5441 157.506 110.515
47.8682 181.975 142.65
41.6029 106.868 108.441
57.1456 160.541 77.7494
52.0975 88.0298 67.9665
74.0055 75.0337 52.4258
24.6753 5.97052 269.895
29.8887 3.3904 269.718
42.4538 52.4367 193.875
50.713 134.499 84.2365
71.4264 124.272 65.813
36.5173 215.468 227.956
61.6766 94.8882 181.206
46.6382 187.793 117.549
20.5405 157.508 238.761
29.7522 3.37959 261.58
21.5347 179.652 265.844
32.6219 52.3518 181.557
46.5353 19.411 185.006
58.1446 16.5567 239.529
40.3111 155.625 211.903
75.4135 86.358 48.8677
62.1515 35.3468 211.107
24.2011 72.5284 105.8
11.0078 143.277 148.246
72.2424 73.0526 89.1916
66.9145 60.4606 120.312
37.4042 115.988 87.7996
67.4115 102.922 55.742
36.4862 47.7659 179.298
58.1113 83.4807 60.3791
43.0143 146.136 146.556
60.4135 84.0193 162.824
42.6712 134.117 202.361
68.5781 71.2225 66.3594
52.6058 171.891 219.584
66.0417 74.5637 163.413
38.0412 138.064 100.43
50.1565 176.709 186.423
30.937 53.2765 190.441
56.3616 51.13 184.361
63.5226 71.8659 72.0297
54.3108 126.961 89.6544
40.98 30.8123 246.323
61.7102 108.156 67.8518
56.7233 25.3744 269.972
42.8205 178.556 207.935
55.6691 205.821 114.835
52.0188 181.514 123.525
68.7911 79.6112 107.137
66.5111 191.936 223.686
62.0543 141.112 69.6549
83.7099 90.4655 55.1918
20.191 80.5263 101.922
64.5671 3.73734 200.199
97.3319 154.558 60.1021
51.4427 10.5078 194.069
57.6193 125.774 267.031
77.568 57.7867 146.7
27.653 51.9128 204.462
31.1401 25.0258 253.534
41.6308 191.156 225.526
34.3218 55.1054 218.997
69.2752 203.6 171.237
49.0247 22.1708 172.317
79.4002 110.373 54.7705
24.3137 118.472 92.4922
51.0123 193.275 161.86
47.288 104.46 115.242
77.4097 59.0965 136.546
27.5894 130.201 81.7138
49.0058 195.978 146.804
76.5994 45.1538 197.315
28.3174 165.048 147.779
19.2279 140.129 146.006
21.3192 2.44021 195.219
22.0642 8.91165 217.996
22.4947 155.707 230.202
19.9683 22.5908 229.027
36.4304 178.885 93.5456
59.2182 121.393 157.007
25.659 111.82 87.5115
36.051 57.9592 194.714
103.225 72.1735 94.1456
47.7851 85.5305 113.639
47.5974 167.181 192.399
48.7406 38.9175 251.149
28.3594 181.891 274.01
31.8855 9.14296 252.67
51.4451 217.714 230.284
27.2502 117.468 84.6554
39.6843 125.919 101.237
50.7245 48.7316 235.003
49.2257 113.483 186.694
66.7418 84.0819 159.722
30.6884 108.291 95.6618
27.5852 103.829 98.3727
65.8278 79.8334 173.588
73.3054 118.967 200.838
60.3393 73.7509 152.962
51.7499 181.9 132.82
62.9591 23.2075 264.671
40.9412 156.148 162.606
19.5074 152.392 93.1869
37.5526 96.0859 129.799
43.502 187.939 100.188
42.8949 167.969 182.081
66.7988 121.96 164.555
12.8871 83.1572 129.86
67.4771 196.262 185.641
80.1973 74.0678 135.689
23.6441 161.634 130.863
60.9255 55.032 233.923
65.6834 213.48 120.66
61.3465 104.672 109.351
61.5319 161.063 174.518
84.6041 212.622 117.198
60.837 20.8734 207.514
43.6606 141.022 197.534
22.0577 25.9981 237.218
33.3419 137.274 165.943
84.6267 96.7223 51.2314
38.9176 170.096 165.026
32.5917 35.215 193.796
21.8458 79.7355 129.916
67.5592 112.483 76.0803
49.4833 58.5902 216.594
29.1753 66.3938 113.972
45.0097 70.0515 101.346
21.74 187.944 249.035
74.144 207.318 133.654
58.9554 171.797 193.758
63.7852 124.57 74.7985
50.1331 136.163 202.298
45.454 201.672 126.876
39.1754 133.001 241.011
39.9938 75.7426 106.557
34.986 182.719 161.56
22.9697 213.504 217.515
93.3825 59.3667 132.326
33.2364 124.848 118.099
64.2065 100.868 146.87
35.7711 146.516 200.758
64.5456 130.883 264.554
34.7166 10.3989 28.9702
31.5333 69.7802 119.125
55.5509 62.2074 124.709
76.2311 93.4377 54.9003
22.3649 105.367 150.688
54.3339 144.798 141.442
59.95 127.09 251.041
34.2555 98.7934 97.7732
39.2256 185.515 232.968
43.5695 116.578 168.424
45.0888 92.9682 168.447
56.9631 227.714 231.197
39.6217 133.218 259.599
46.351 18.4293 19.5595
33.0007 34.8347 245.911
17.6053 155.854 250.851
69.7319 19.5889 256.429
63.5567 209.316 131.728
45.5721 151.982 205.709
29.8989 171.554 129.071
48.5496 94.1186 173.674
45.8786 4.39277 188.675
27.3812 163.331 119.508
20.4012 36.4911 205.189
71.0244 87.2116 135.416
44.7938 145.088 218.899
20.4996 70.5461 111.658
37.5006 137.586 71.4888
45.7748 197.905 264.972
41.5948 224.679 210.289
58.2252 115.776 187.583
18.9765 156.333 133.369
11.3717 175.367 248.334
63.5162 163.324 216.713
38.1022 4.13212 178.698
75.2714 129.515 228.581
29.0114 137.59 1.63715
19.7947 115.711 102.86
47.8613 226.698 235.138
71.8366 202.449 124.769
29.7571 165.623 252.342
51.7508 109.897 147.973
80.8467 97.2281 185.122
34.6555 138.962 229.94
72.4223 213.116 121.506
53.5222 85.4944 163.804
32.7203 3.34835 95.4879
54.067 171.565 164.2
68.95 16.8228 227.506
85.9992 69.1733 70.6111
55.2745 176.629 231.064
45.1982 230.559 194.838
20.7107 219.549 232.62
55.45 176.357 129.689
12.6539 139.077 139.027
72.8712 50.9462 129.443
66.5202 6.38308 213.923
68.83 86.75 177.55
107.398 79.9172 65.1168
28.0483 140.939 139.066
62.3799 70.8154 88.2881
52.3587 163.731 236.843
75.5595 128.181 219.28
57.8852 203.54 106.535
14.7439 142.129 126.127
32.2011 224.306 221.188
45.1259 78.7501 121.688
59.5243 98.5023 143.599
29.5262 164.07 244.181
89.3817 59.9916 155.521
46.4612 153.389 228.849
22.1949 155.217 144.514
19.6886 119.378 137.433
55.376 223.765 219.983
26.2236 168.033 261.134
52.9508 116.96 158.346
65.1839 16.8632 180.143
66.3842 125.671 207.072
27.0793 4.24706 93.8721
36.4002 40.0608 224.18
69.0126 194.975 90.8447
65.0759 108.912 49.369
59.9417 200.688 131.664
33.875 224.206 201.134
24.0134 6.98275 203.089
55.356 187.903 136.433
40.186 120.133 115.147
43.0729 187.219 198.336
57.5555 24.1933 184.479
47.5136 4.19035 264.196
51.6357 201.993 256.055
25.2872 68.475 126.128
31.0898 17.7012 172.096
80.8758 123.728 199.26
31.7123 154.073 242.073
51.437 180.492 268.298
57.5876 71.8689 144.747
53.3657 201.804 263.238
66.4496 118.622 95.1841
50.8984 187.757 100.841
54.8239 172.456 206.326
28.9235 141.436 255.592
18.7951 152.658 117.877
86.9412 4.57636 191.048
86.2887 113.38 54.184
39.8714 114.54 95.2053
35.2526 186.133 267.882
55.6285 55.8258 203.686
62.6308 204.79 166.269
63.3945 120.969 260.705
51.7136 202.094 133.258
16.513 5.66455 225.804
17.5924 230.746 209.152
72.9963 18.0924 182.145
84.2475 52.5405 147.182
76.1821 119.376 54.5796
75.4324 188.822 88.2152
89.1675 89.0879 60.284
63.7144 149.018 230.661
43.1572 100.676 166.69
102.379 52.2054 138.232
86.2585 199.726 190.055
31.2979 217.401 189.916
70.5482 48.9763 237.527
16.0033 230.808 198.076
55.3107 175.995 243.222
59.581 72.0145 102.366
76.3494 206.024 180.59
61.2495 178.361 100.712
36.1679 66.558 111.156
21.7468 86.2291 145.4
44.661 28.6937 261.395
93.437 69.3722 135.875
51.9563 95.3355 184.319
28.5971 174.157 234.978
45.5817 173.448 238.474
26.87 10.2204 183.128
64.4322 104.013 84.2126
66.261 112.651 64.6558
36.1371 105.93 177.143
63.4427 194.983 239.607
19.5186 148.301 175.894
41.8886 137.277 114.373
33.5022 20.9871 268.077
24.1468 3.02967 210.272
58.6849 195.083 186.22
49.2641 129.782 142.777
60.956 185.747 92.2752
67.5443 19.1408 247.115
56.6602 177.52 214.534
45.2723 3.59867 17.883
35.83 176.314 272.532
74.4712 76.138 153.158
29.7618 1.45903 242.309
59.3057 116.11 100.586
43.519 174.658 168.02
53.4884 2.13478 190.934
62.2294 169.279 215.301
55.8843 115.619 65.4682
17.8297 143.386 245.711
31.481 132.704 178.566
43.2551 12.0395 174.07
75.9928 19.6032 249.198
45.8247 157.135 114.555
51.6476 162.135 267.587
92.8037 88.418 182.3
80.9288 42.0471 236.667
30.2301 98.8131 167.221
57.7554 2.71233 207.51
71.7834 108.968 54.7963
37.0988 157.556 145.3
11.559 16.5387 204.763
55.8784 66.3229 142.295
30.3128 167.231 236.304
14.0137 165.439 270.856
49.2274 159.765 196.865
29.3955 212.107 215.096
31.6748 170.018 147.261
12.7662 121.722 131.373
56.297 196.065 143.222
45.255 69.2006 139.513
48.1363 135.691 235.682
85.57 59.2073 151.273
14.5654 124.358 117.742
91.2639 68.0028 96.8044
53.7821 192.143 104.989
49.9053 178.812 90.3409
59.8826 158.752 163.902
58.2758 119.446 125.569
45.5415 63.0212 133.041
95.0171 70.0724 175.204
11.5756 162.962 235.052
36.8776 7.76143 187.26
32.4391 129.584 269.1
34.1235 106.416 104.033
83.5985 188.607 125.478
59.564 101.924 122.018
72.6958 69.0387 59.5189
66.5978 181.431 160.488
30.9852 43.1935 202.999
52.5692 173.908 226.262
52.1579 159.271 217.72
71.3313 205.633 151.73
47.564 146.349 268.055
10.4979 29.8711 216.276
75.9907 130.209 264.911
21.1408 134.613 274.056
41.591 211.282 217.989
44.9895 130.858 242.649
56.1315 88.3249 114.538
20.969 171.626 232.477
44.4866 103.86 176.535
71.9743 164.014 200.606
52.9032 65.8754 94.9768
84.3481 63.6315 95.2005
56.619 6.10084 251.3
84.8341 70.1928 88.3017
60.6541 195.475 204.371
62.7843 186.163 114.971
67.9713 140.287 80.1548
64.6987 168.254 69.6214
78.1989 59.4364 111.419
107.923 59.619 116.571
41.3546 191.021 114.468
36.6736 69.5561 105.126
47.0197 123.584 86.3191
52.5465 69.4789 101.002
40.3017 75.7417 145.29
35.5452 158.074 105.404
61.4398 118.722 202.081
25.2499 182.316 240.591
80.5033 50.9828 223.433
44.5669 125.374 94.0998
43.9936 121.443 246.498
32.7768 121.323 109.974
67.1847 112.066 177.945
47.2237 103.753 124.754
25.011 165.301 141.576
59.4832 156.378 72.1088
84.5292 128.723 224.535
47.33 195.547 220.238
14.9604 149.755 124.683
75.786 64.3939 147.035
77.8081 67.7722 82.6179
48.1772 188.449 191.67
33.3498 141.537 78.9086
11.7378 95.6833 114.587
55.5576 166.41 209.575
50.3573 123.9 182.759
28.4484 175.673 264.719
20.8082 147.061 273.94
34.8576 190.835 257.174
75.0806 79.3841 69.5069
105.743 165.511 60.5424
28.6622 162.84 262.959
56.291 162.992 160.837
61.3279 41.4631 203.867
54.3999 56.9839 211.14
54.728 153.657 185.729
73.4544 189.355 120.796
33.2766 147.302 133.037
78.5042 72.0788 68.9243
80.9171 129.296 52.6179
46.2356 179.237 266.56
46.5395 143.491 135.883
84.9652 59.3248 126.083
96.348 71.2406 101.656
44.3166 180.684 230.613
80.0905 165.452 206.211
73.5781 172.104 73.7819
77.1294 72.9849 59.6196
40.359 187.184 156.478
51.7837 12.0597 2.23179
22.3241 154.512 124.266
49.2724 1.80542 248.755
67.9858 196.69 153.432
90.3535 52.3231 149.632
19.7008 25.4154 213.444
20.8909 82.2829 138.93
50.667 135.433 192.512
22.3105 93.3254 148.305
52.9208 122.092 271.068
17.3312 160.205 234.061
30.9089 99.6677 138.846
45.0665 149.902 166.08
51.0809 137.018 157.192
19.1749 140.277 184.925
63.0945 178.998 85.2424
97.5873 84.1189 59.8481
56.5115 128.869 254.744
66.5837 128.363 272.878
59.4825 105.798 91.1844
74.2717 99.7889 82.2757
84.19 201.275 130.896
48.775 229.507 209.598
27.6032 107.004 167.201
67.3217 9.70551 203.552
44.7196 128.192 272.918
17.5106 158.753 125.355
23.0545 99.5443 99.9579
51.7607 102.671 157.52
34.7586 24.1352 225.346
95.3621 118.022 48.3442
26.1352 129.032 106.636
56.5466 149.823 195.262
75.2916 198.359 236.533
55.7658 27.2977 174.68
62.2122 204.708 196.99
15.0904 151.069 263.307
58.3633 175.371 150.386
45.2887 104.342 131.955
50.1878 77.6663 110.689
49.3586 56.9994 223.938
60.0837 2.46648 233.896
52.9525 146.263 226.81
22.0421 77.8685 151.145
45.5379 113.003 120.824
38.2048 162.795 163.119
44.7663 171.793 221.91
28.2172 54.2032 212.466
74.4704 187.27 137.921
63.0792 39.3033 222.162
29.7132 133.321 98.5729
59.9935 182.664 195.681
69.2155 27.8285 257.757
36.0741 148.439 117.699
112.241 59.6319 123.281
65.5391 37.1894 251.224
105.411 121.036 53.8485
59.4225 102.856 68.9069
50.4334 115.4 79.1287
63.4797 30.8018 196.957
31.8202 167.019 269.192
44.7358 12.4017 193.899
55.2106 158.007 252.695
11.5947 117.8 156.434
41.3022 130.324 146.92
54.7618 134.513 243.615
72.5183 199.522 151.077
77.399 3.61987 185.03
86.401 96.4706 184.78
55.9386 152.801 123.23
76.6535 192.067 192.124
22.5973 228.001 242.263
60.6796 63.9926 138.611
83.7796 56.3095 141.265
67.3343 97.07 112.113
53.4308 197.387 267.202
65.7694 68.4226 144.506
51.6574 94.7285 108.056
37.956 87.1195 152.434
31.7281 176.544 101.011
10.47 155.333 261.731
50.8428 62.1395 117.526
46.734 162.846 258.578
78.5182 195.297 123.137
50.332 185.865 246.745
74.0276 185.429 163.588
79.1018 193.57 228.183
32.0775 162.113 156.352
81.4106 64.1147 152.051
29.3702 178.766 135.042
27.021 227.751 188.562
71.8817 108.202 72.4009
23.9659 136.788 116.458
63.7346 74.8731 142.682
87.1442 126.156 49.8722
38.6302 131.813 174.999
43.5512 29.7023 194.375
92.3115 81.7269 68.3032
71.433 11.9228 250.132
11.1773 112.605 147.539
94.7919 224.018 257.709
61.8379 7.44605 188.007
46.0925 53.2338 215.931
48.6838 58.4153 193.455
56.6016 166.33 97.4914
64.2606 62.2835 133.099
73.9547 67.904 149.976
64.8257 129.993 241.844
70.5777 53.4556 206.895
57.7854 90.6077 76.0008
57.0513 149.121 232.595
48.0246 131.743 70.1788
29.2146 9.03898 265.843
26.4485 25.8088 222.975
50.3575 84.2958 143.79
44.7907 215.975 224.898
81.9728 33.7817 227.345
64.7235 202.598 244.623
21.6688 39.0416 182.557
42.7877 128.54 177.321
46.6694 139.345 76.3989
33.0264 1.53222 17.841
65.4191 83.5837 96.8257
10.8925 170.574 262.444
97.8316 63.3117 167.407
41.6027 92.8599 82.2938
62.0863 27.1277 220.213
55.7247 200.282 248.069
119.555 111.8 55.0369
22.2104 179.841 253.723
47.9672 87.8317 161.678
26.0354 165.724 135.694
58.329 133.015 200.555
53.8518 191.406 150.976
48.3716 50.5017 230.027
65.3073 32.5721 254.777
82.2964 121.204 50.6651
46.2116 75.219 96.0364
70.9026 46.1838 213.07
17.2635 3.87339 217.31
33.6262 169.526 159.674
12.3476 107.055 141.743
51.1661 17.2447 203.705
57.1061 201.881 228.875
54.7392 137.19 168.609
38.4815 190.631 242.268
27.3182 214.808 229.22
72.1147 2.05946 179.936
16.3448 150.006 134.874
57.8065 102.614 80.9285
101.983 70.5272 86.7447
69.1759 189.771 271.008
58.0445 136.313 270.234
50.9671 182.569 238.134
66.3373 201.538 97.5437
27.1302 122.888 268.975
21.1816 230.845 204.229
40.5694 108.031 178.521
82.5325 77.0056 121.584
51.6697 128.157 248.747
79.7649 25.1682 187.945
69.749 184.64 218.55
80.8073 51.7572 119.564
69.6456 114.447 190.459
40.5063 118.242 180.104
15.1011 112.348 156.13
85.5005 195.938 181.035
41.4292 176.595 176.064
77.9186 199.204 133.92
80.5691 171.239 212.054
41.5931 102.429 115.199
60.651 78.4621 79.4939
70.2399 194.98 124.282
91.1118 219.799 272.102
29.8634 44.3093 177.677
76.5179 213.122 104.591
35.7003 178.997 147.284
55.4217 154.645 223.934
28.5586 35.3333 189.003
87.1665 72.2741 159.027
75.798 91.9471 75.2311
32.437 172.588 259.662
89.9696 160.855 58.7188
74.0114 56.8431 222.83
14.9342 183.886 250.214
44.988 144.17 124.525
75.3652 65.6248 75.6395
63.2244 199.778 201.815
55.9677 163.156 200.815
67.5098 53.9866 218.658
40.8221 137.855 232.426
51.4848 159.807 213.208
70.3054 196.681 194.683
23.2559 116.508 97.9706
32.9799 230.261 236.038
50.5986 221.433 199.581
72.7603 184.641 234.8
54.1437 77.8026 88.924
66.1035 145.296 85.1246
40.6979 32.046 253.707
47.7557 4.09053 273.872
10.2747 96.4491 128.102
60.6333 97.7075 128.934
60.6778 144.241 162.873
46.1783 188.259 202.836
64.2579 101.183 160.714
14.0871 119.026 146.283
35.0201 166.112 261.83
80.071 85.4557 180.474
28.4344 70.9846 129.626
46.5434 193.913 170.809
69.7906 89.2056 89.1756
65.2795 12.0471 177.378
20.9437 134.252 261.851
80.7751 199.224 171.752
48.4401 187.266 232.141
24.5728 6.30065 252.077
77.4331 206.75 169.737
40.1209 167.853 236.373
50.253 179.167 251.264
39.8558 222.201 237.878
37.175 211.597 208.17
82.4783 154.853 67.3809
17.9801 151.891 234.051
79.4932 37.7388 186.303
80.345 185.875 190.475
25.1785 124.513 260.807
49.9219 94.8678 77.1547
36.8735 13.9852 13.2413
61.4665 179.78 111.416
74.2948 131.965 255.945
163.45 16.2596 28.8925
20.8927 44.13 189.944
69.27 145.107 163.415
64.9082 73.037 157.552
106.453 71.4326 161.13
70.1691 228.213 234.126
49.5571 92.3701 94.0177
89.6572 212.971 262.51
89.648 73.107 79.4476
56.3659 110.165 97.6438
70.4775 68.5309 105.745
74.826 104.702 65.6019
64.8043 106.114 119.053
73.5317 29.3483 250.455
78.2698 192.447 92.0692
47.2728 162.919 171.44
44.9461 163.466 159.683
114.189 65.671 128.282
30.7607 129.729 257.247
24.6329 175.273 242.895
95.4573 135.724 53.0843
101.202 215.626 262.757
85.6236 81.6126 181.314
65.9828 121.15 193.76
67.0329 43.7386 245.044
73.7426 89.1636 159.128
26.3694 94.3855 141.167
10.9879 229.124 213.091
53.3757 79.548 96.7279
34.3308 155.882 164.489
64.1215 99.5769 100.089
69.9897 45.6679 180.447
82.2621 211.288 98.6014
78.8852 41.141 211.749
35.2016 174.836 239.984
55.8619 192.466 268.275
70.6483 95.1269 185.359
29.5424 183.797 269.583
83.0383 75.4192 91.2228
67.5536 134.058 255.849
64.7412 28.509 186.871
57.5429 172.262 145.252
30.8987 29.811 176.098
62.2425 149.968 108.234
10.5158 186.261 261.534
46.5779 132.493 155.163
101.522 62.0944 111.861
22.727 132.817 95.2863
34.695 151.397 105.433
46.63 121.422 111.549
41.9664 23.3953 272.728
43.4169 190.771 267.284
28.6828 117.505 166.257
41.4292 192.505 262.521
65.3069 109.81 102.213
66.7284 174.388 226.845
58.2987 182.848 148.424
55.3149 183.589 210.987
44.0862 76.5355 108.306
52.953 57.2976 230.964
50.9251 107.17 186.809
81.0419 7.11638 226.313
51.4821 107.802 118.167
42.2825 197.814 259.438
77.6507 108.68 182.118
64.5116 47.3675 180.594
20.3464 165.564 201.373
58.6304 144.557 177.139
60.5807 158.931 152.752
69.2289 13.7836 212.268
34.2173 53.632 203.189
16.809 106.575 133.071
55.7961 184.757 266.017
39.559 123.901 110.3
34.2003 180.737 240.504
69.4371 19.2785 270.423
45.7929 160.177 217.582
71.6581 104.993 87.0293
62.3171 113.454 120.314
33.9831 74.7436 138.574
53.3422 98.0347 79.7043
82.8757 196.3 142.373
66.9101 184.261 234.75
68.2001 125.986 60.2182
39.2919 230.37 218.066
37.9579 124.258 265.884
75.0103 89.4896 180.389
39.4387 1.88897 100.998
53.0131 169.321 259.18
65.9994 135.348 135.987
91.3713 113.727 52.5792
45.7775 150.983 263.939
21.1583 144.398 102.657
18.6783 131.597 248.659
31.3436 1.66971 79.659
68.5635 179.092 271.948
63.8079 197.8 257.944
14.764 185.947 266.133
31.7877 221.554 239.611
66.379 126.78 228.036
63.9671 159.066 82.2882
25.2254 1.46461 188.467
57.3522 142.27 72.6046
21.0128 127.882 255.499
26.5236 22.8445 182.519
83.3762 87.39 183.625
67.5868 151.072 64.7025
60.6337 61.0981 203.326
56.7304 129.672 79.3203
12.5608 9.4215 191.62
57.3035 137.954 119.799
57.0167 206.009 248.994
44.5483 191.426 238.444
64.6231 181.999 170.829
62.1752 1.26309 220.916
94.869 144.264 44.002
14.1486 220.861 214.722
65.8833 7.8033 225.442
90.1112 206.067 270.615
70.2403 4.61001 190.446
43.1488 161.027 106.226
63.4682 132.801 227.957
87.1266 194.962 198.656
17.4102 168.886 237.562
85.567 155.634 60.2002
89.3136 105.929 187.317
106.62 114.157 50.6026
67.045 198.445 250.173
106.489 75.0872 80.3404
27.4627 154.832 239.901
73.7466 15.8572 222.918
65.3849 160.678 198.698
26.0051 165.715 237.843
54.1009 172.946 123.437
52.7783 158.534 173.241
13.9519 3.48535 207.165
80.789 182.451 114.296
60.2757 7.93841 243.701
96.0109 196.935 119.959
51.9233 132.14 111.067
46.4295 44.1441 170.233
33.9707 129.997 116.027
76.1441 54.3008 229.12
87.2072 202.057 108.923
34.8533 135.563 264.835
55.2979 110.922 118.729
56.8456 127.973 238.325
66.9359 193.655 199.534
69.5665 11.8469 191.45
57.7716 230.941 243.758
57.7312 26.9825 257.165
53.0745 107.504 131.95
49.2007 152.801 272.811
33.9895 165.416 115.202
77.1623 138.325 271.71
27.7222 21.6584 177.874
24.6505 110.39 129.439
65.3658 170.128 90.9318
62.259 205.823 125.174
64.9494 48.7542 241.446
44.2408 50.2209 174.14
83.0217 193.585 133.606
27.777 114.337 139.533
34.1666 183.644 248.105
24.9535 167.129 273.05
71.3613 91.3899 105.712
68.5364 195.496 236.028
51.0924 141.663 273.75
28.9673 175.104 106.279
41.7021 151.81 274.096
34.4165 167.742 232.505
63.3446 135.211 247.698
46.499 126.973 256.405
53.1785 169.574 106.019
89.8019 78.6963 137.485
105.337 67.8354 75.7159
39.5765 229.572 236.14
35.4607 148.121 228.321
37.663 17.9243 272.4
59.5131 201.265 235.19
56.3476 219.016 197.849
27.0963 1.48829 10.2995
63.7144 137.172 225.189
60.1209 137.408 238.549
66.5769 144.234 237.028
33.9592 132.1 157.897
96.5587 85.6288 169.367
62.7251 225.904 235.03
37.6203 178.363 163.594
66.0345 16.2443 238.435
66.9185 99.924 182.767
75.8637 71.3117 123.561
71.4557 60.7779 92.006
37.3917 42.5688 200.261
87.5753 67.5613 107.252
26.3372 124.441 253.717
20.6197 161.974 106.892
63.642 167.681 152.459
94.5645 172.699 72.0138
46.3859 146.498 229.688
57.8113 197.517 150.748
71.0358 136.559 273.499
82.9656 213.237 262.242
50.5514 195.136 271.395
54.0543 146.343 118.679
13.653 154.762 274.639
90.7302 55.0172 117.992
40.0976 102.612 128.832
61.6018 215.546 210.733
104.465 223.571 266.383
74.8937 203.675 162.825
92.6416 218.359 254.704
48.2232 189.457 258.469
55.91 51.9703 190.74
70.4473 188.698 213.274
55.2778 132.373 100.03
23.5962 1.08261 240.042
69.7867 180.636 229.084
11.935 102.42 135.193
98.8446 210.979 273.8
51.4454 141.646 192.713
78.8425 65.4308 106.83
57.4733 123.229 183.433
110.641 58.0905 138.355
49.636 231.316 244.11
44.5048 164.712 88.5681
54.3735 193.363 212.147
44.0891 162.242 268.207
72.786 195.361 167.489
50.7301 120.693 94.7447
26.5553 32.2685 184.459
42.6273 138.962 72.6664
32.9298 175.2 233.745
78.5155 50.1153 234.623
59.344 113.56 162.549
57.1828 2.27063 4.29349
67.2839 161.588 68.511
72.6655 191.359 198.313
41.2918 148.08 159.607
43.7774 49.1057 242.814
83.4782 178.677 200.125
54.3401 31.6417 255.833
73.358 99.5407 70.7295
37.2489 187.795 272.184
69.7023 79.2773 99.0608
66.3999 224.873 213.542
58.5486 88.506 155.812
49.2435 164.729 210.503
23.5612 174.366 96.6737
63.6241 165.582 184.57
55.1575 80.364 142.723
61.6864 172.612 266.882
53.5766 88.8245 148.686
57.3815 97.3407 73.9024
65.629 187.253 157.893
39.3415 150.512 112.58
51.5323 110.034 162.434
62.644 152.395 165.015
24.4837 158.354 83.9128
80.1708 31.4571 195.068
75.5962 191.565 213.618
94.489 61.9399 111.406
92.3194 198.278 258.75
72.6221 111.728 157.689
24.175 131.022 273.515
78.2499 187.409 128.891
77.6238 109.251 78.0948
66.9362 191.659 263.307
54.1276 184.919 224.924
42.0545 85.7734 68.8393
85.2995 182.458 86.9333
31.3903 151.988 147.527
35.7051 97.5159 82.0592
86.8728 145.761 62.5002
54.6316 22.6445 274.658
100.636 97.4713 185.974
79.5991 164.03 69.315
85.9296 91.8656 178.068
113.813 217.495 260.298
13.0258 158.759 238.274
53.2149 123.013 253.583
39.1591 183.973 132.968
42.2882 179.212 248.777
80.8629 47.4159 212.537
64.9282 202.29 231.896
52.8274 196.209 193.3
77.9581 76.5081 158.584
64.4179 135.274 194.484
57.6583 194.144 273.532
50.588 231.453 188.663
71.9519 107.074 135.891
53.7178 159.212 111.529
73.4971 19.2767 214.012
20.2063 3.2027 255.26
16.4001 137.513 181.725
26.5529 160.416 155.472
56.0641 76.7105 115.959
38.9281 36.8684 244.605
87.2007 38.6057 201.538
53.09 140.912 130.614
35.5596 131.007 108.506
126.808 177.838 74.6142
100.955 59.9833 120.261
84.8965 80.9225 113.821
47.7201 171.111 92.6777
78.3596 15.8772 256.745
74.265 9.34449 234.135
84.9931 94.7818 70.6573
102.478 66.1549 131.821
91.442 2.73338 200.806
54.1277 224.054 202.059
63.1724 129.974 94.6847
83.9481 193.481 119.962
87.5965 41.8504 232.139
39.9886 166.229 112.182
68.2947 8.54376 185.027
76.8655 179.059 225.545
68.6462 69.3047 155.045
55.2734 142.282 186.125
67.5059 74.11 147.647
22.1994 156.483 156.376
68.1012 86.5773 101.199
43.8518 188.151 274.024
63.7557 186.917 255.48
86.9565 24.93 189.467
38.5129 1.27106 255.763
31.0206 158.916 160.756
87.3123 207.953 117.959
26.7455 29.8776 243.267
78.5358 30.601 244.183
53.5772 118.8 149.065
59.435 117.684 80.4627
76.6378 63.931 152.951
26.8854 29.7824 215.373
70.5503 7.1127 274.499
79.8816 195.221 201.418
50.8292 175.855 238.806
67.5772 183.089 97.9273
74.6593 43.4432 185.578
35.5988 30.5588 254.397
32.1493 44.985 225.14
75.7328 20.1928 200.466
48.0598 167.421 96.7492
55.8344 31.7154 226.817
46.7427 162.313 228.379
99.6963 106.913 57.7308
39.2678 184.535 240.9
82.3529 99.616 60.9742
51.921 158.086 179.569
58.7774 154.893 136.852
63.1034 198.284 195.118
11.4618 145.692 273.525
64.5212 82.4835 88.0153
22.0676 76.8705 135.95
48.1397 128.086 206.328
73.2506 135.578 266.338
97.5424 75.7856 156.523
57.7492 126.751 153.416
91.1301 56.4446 123.773
65.9072 24.2617 260.916
56.3234 195.517 235.157
107.856 57.4604 130.053
64.5215 178.262 144.004
79.9278 188.007 222.726
34.299 17.1125 274.78
16.2972 231.352 237.944
42.8558 166.254 102.741
68.6858 197.102 261.113
81.341 199.171 177.033
48.8148 129.377 173.854
72.1361 11.9413 242.491
47.4634 192.962 180.265
55.9167 127.067 146.054
40.5368 176.269 231.185
32.691 81.4474 139.175
63.8814 107.722 136.106
30.5023 1.09512 22.9888
41.8629 118.662 86.4255
82.5759 178.814 216.725
69.8445 118.928 207.553
73.9115 188.145 225.189
62.1351 152.275 242.673
84.6999 47.5608 217.347
57.6366 200.429 196.581
84.1948 192.066 185.38
76.8662 87.0657 165.335
81.5852 23.4504 223.754
15.4715 35.8995 208.679
21.2038 20.3176 234.525
49.2599 191.137 165.93
40.4306 163.932 115.869
65.8135 137.83 145.417
27.6548 171.568 116.783
83.3106 206.525 119.997
55.9357 164.651 84.26
65.3877 162.426 239.563
99.3907 204.716 127.158
54.8289 198.937 242.313
40.1952 1.05882 208.575
65.7699 132.026 164.506
44.6158 186.208 227.286
85.4434 178.761 207.785
32.0506 106.365 164.818
22.1461 9.82399 186.046
118.463 120.307 50.7314
36.2204 52.1919 193.599
35.5176 126.914 274.748
80.0486 193.144 274.32
108.787 220.177 267.829
82.8129 39.3477 194.119
31.1417 231.518 183.361
65.2599 159.369 231.239
49.6863 162.612 104.781
61.0844 170.9 253.146
66.9084 90.9886 128.529
52.6415 170.581 245.698
69.6387 130.675 115.259
66.8243 173.326 264.643
87.4006 127.508 198.109
67.1501 203.443 163.564
43.0043 187.17 248.469
41.9165 93.5116 74.0654
34.3012 225.039 237.113
52.2832 140.718 219.161
68.2278 118.972 185
100.404 80.5932 160.06
76.6694 113.393 190.315
77.2138 186.972 272.424
32.4598 145.626 71.6441
66.394 152.539 79.2347
