ply
format ascii 1.0
comment Created by Open3D
element vertex 810
property double x
property double y
property double z
end_header
36.0678 94.7514 104.109
25.003 148.795 180.769
12.4331 129.936 166.558
11.9854 124.951 159.009
11.8548 135.023 160.12
12.7229 120.753 143.337
13.7349 122.865 169.974
11.6246 126.449 150.217
12.2098 130.158 142.526
25.7764 131.916 188.55
12.0808 118.251 151.337
10.4557 139.852 145.217
20.072 158.95 154.733
45.3493 171.311 150.58
10.459 143.716 152.77
12.8811 145.461 160.803
28.2276 90.6335 166.352
17.3314 137.911 175.18
25.7875 163.938 141.607
12.4 125.372 135.044
74.9716 133.879 88.9234
14.8615 141.585 168.369
15.0678 136.441 134.243
35.3078 111.794 224.319
19.3993 151.659 168.065
44.6021 108.864 202.138
49.1634 168.929 130.35
14.1428 105.224 158.588
24.909 140.544 184.265
16.8206 123.454 177.085
50.5963 92.7688 94.6362
42.7304 157.877 185.44
32.2191 163.134 129.531
45.0861 93.4243 191.351
11.1504 134.921 151.049
53.7364 119.172 88.6058
30.7226 151.076 116.446
45.5012 165.528 123.623
49.6378 160.771 111.316
64.2997 76.1672 197.975
56.6039 92.5094 243.65
42.6159 159.814 116.589
41.6155 153.516 241.037
17.1104 117.425 127.22
23.3892 118.074 239.088
37.1106 81.9555 174.645
34.9423 148.265 111.494
88.0379 91.2674 214.317
68.8182 100.29 234.614
11.9425 150.51 145.727
33.4057 86.2764 163.939
25.5462 100.801 182.277
60.0389 80.3347 199.363
14.5029 151.578 137.749
65.6935 145.096 93.118
11.8795 137.263 139.806
62.5024 165.215 269.714
16.7372 131.794 128.969
85.7485 124.167 88.4107
21.2461 111.785 182.244
31.3221 156.336 179.552
92.9981 86.353 209.963
55.0436 102.19 272.63
14.3371 115.205 170.452
35.0877 81.1285 160.45
71.935 152.692 189.045
107.717 126.593 125.342
31.5584 102.264 190.906
74.9745 87.4793 211.043
21.8505 92.1406 158.079
21.6603 93.8871 140.244
20.1504 155.241 162.403
45.0828 79.5007 181.532
16.8622 108.075 167.038
16.9171 122.795 257.796
20.3843 96.965 147.933
31.9811 86.0035 171.066
17.1872 131.828 178.357
13.0545 114.146 157.012
84.6143 141.208 98.507
101.635 85.9343 103.187
71.8174 149.974 98.3334
35.3687 142.756 190.703
14.0282 108.122 143.404
23.9617 90.2357 149.439
106.218 134.905 127.867
73.6154 125.295 83.9936
27.3879 145.779 246.055
22.117 98.7262 160.453
56.8322 100.014 263.14
36.4941 113.246 198.145
67.0941 96.8893 86.6712
45.8333 116.322 204.968
62.8887 136.051 88.8991
79.3162 98.8119 88.3352
111.804 120.228 124.808
90.5207 80.6329 205.156
35.1298 168.329 141.634
39.6419 75.7496 148.197
53.3088 164.469 174.303
43.19 105.552 224.765
58.559 109.485 83.001
37.6695 105.025 197.808
76.3403 85.1608 96.7283
58.6327 154.287 191.091
14.5487 122.617 129.924
52.2281 173.401 139.671
38.0413 165.723 125.468
32.3776 89.1512 183.873
34.3987 140.232 105.628
118.24 99.9734 187.772
50.8183 100.709 222.821
30.5552 166.304 159.798
45.3584 154.084 234.121
52.5132 111.325 206.039
88.2496 77.4165 103.172
89.0721 117.818 88.8993
88.9079 102.807 89.3619
29.0867 123.637 191.862
95.4962 95.6477 211.977
107.478 120.849 118.297
49.7783 155.256 106.541
42.4035 153.821 109.079
66.1715 61.0082 154.103
25.0342 161.846 161.524
102.138 110.75 99.0613
83.9317 80.4812 207.94
21.0736 127.153 241.623
103.654 69.9405 182.015
27.4299 108.54 186.427
40.8802 163.93 262.23
45.9027 134.445 220.548
69.3182 139.025 88.8086
71.9492 117.266 82.4481
97.6676 71.2356 113.833
19.3651 123.062 249.744
114.037 112.743 127.197
61.3086 141.683 202.225
20.0859 111.322 127.062
21.5554 106.615 174.819
46.1888 165.311 174.741
42.8311 172.226 142.324
12.9017 145.059 139.406
51.742 76.0009 185.171
95.98 141.079 121.299
52.9372 110.303 87.8657
44.1423 98.2097 94.8667
26.8657 88.5146 158.976
55.8508 65.2312 140.609
56.7361 89.0063 93.0896
97.3766 70.3062 184.229
12.7207 115.415 163.577
38.1665 126.61 96.0767
69.4583 80.1108 205.893
61.0874 168.085 127.717
111.152 116.272 118.294
47.2786 87.1372 193.854
18.4799 144.519 129.142
65.1226 68.6264 114.587
96.4665 144.677 129.439
86.4094 155.466 112.712
54.4405 92.4047 235.448
14.4831 152.308 153.212
51.4899 159.287 185.601
20.2268 98.0259 131.372
33.6461 161.723 172.219
71.7859 89.1329 91.1895
41.0333 151.393 189.408
55.9985 168.234 166.609
13.1016 113.822 137.919
48.4487 70.0945 138.195
49.7196 68.0002 159.164
25.6685 111.715 110.782
79.064 81.8871 210.494
43.623 74.0372 128.992
115.369 107.624 123.378
68.2236 154.799 103.062
77.7326 63.6821 137.987
29.2783 91.3285 175.678
47.028 163.806 255.093
111.949 124.126 131.258
32.3324 97.3969 186.262
16.2482 103.95 134.634
38.058 87.3936 110.737
29.0922 163.515 135.366
103.161 133.752 114.106
67.8038 96.9412 242.37
28.5638 98.5268 176.855
87.682 86.1276 94.1196
115.765 108.347 192.903
77.8681 111.778 85.2284
37.0039 98.5992 191.835
103.319 135.454 121.401
62.1245 95.4362 251.033
70.0365 146.203 198.143
72.7523 72.0245 197.711
78.0012 147.788 193.743
109.728 64.1522 170.66
116.405 116.642 186.853
61.5646 94.7649 238.791
52.0196 94.4695 254.094
14.9935 111.39 132.22
17.6047 112.632 175.494
71.2184 79.7154 98.6668
50.0509 114.03 218.96
68.0531 159.537 106.848
51.1336 67.797 130.036
15.9709 102.111 152.71
42.3619 122.233 92.9617
93.8462 57.666 153.589
22.1251 138.304 121.018
63.0154 102.402 83.7305
19.2864 146.9 174.848
56.3045 171.392 133.236
87.5883 62.342 119.363
102.592 63.1611 166.136
103.457 62.3252 173.009
25.4369 111.361 237.868
63.5011 173.133 148.313
29.4432 117.847 229.252
53.4742 138.192 203.4
94.8315 79.8772 105.118
117.074 85.4522 153.168
46.5852 76.2189 120.31
103.686 80.7691 108.113
39.831 141.732 99.9044
87.8293 72.6126 109.099
103.726 124.377 196.189
33.3766 85.1239 128.873
31.0774 99.7937 249.636
63.1395 62.4007 139.143
56.7942 132.914 87.3207
37.7744 80.4715 168.812
91.2481 74.8622 200.638
81.1227 59.0047 166.775
26.9705 156.469 170.737
44.5228 83.4681 106.714
33.2931 151.488 241.322
69.4362 87.0086 210.924
36.1726 86.0599 180.607
37.6937 167.257 134.539
32.8292 107.246 196.664
88.2051 69.045 193.527
70.3229 116.627 266.36
30.7379 87.4198 146.403
99.1125 79.0143 204.091
48.2283 133.054 91.3411
86.4221 155.303 133.23
49.018 92.3959 248.056
122.769 92.4446 146.374
12.1098 108.623 149.649
107.371 125.982 108.935
75.2137 161.748 150.823
21.3822 121.938 181.707
121.14 99.665 180.539
56.7519 171.729 150.132
54.5929 149.31 96.8858
24.7257 115.397 187.49
34.8842 80.9132 141.552
62.0043 102.815 222.128
45.8308 140.165 200.374
19.809 133.515 252.378
33.1853 107.689 100.636
21.8967 101.591 168.773
32.276 147.486 188.932
124.189 92.7902 165.451
92.8565 149.771 135.818
108.723 114.253 110.509
63.8264 147.439 197.254
19.4498 129.571 272.512
41.8116 146.792 104.549
39.6843 78.2077 135.837
34.899 166.357 165.907
42.99 165.113 269.952
53.5894 138.557 91.3511
69.4408 141.349 202.025
64.7242 68.2692 184.034
76.8108 142.048 201.192
36.3226 157.727 118.381
23.455 146.209 121.249
64.3647 92.1832 90.8711
58.4594 64.0023 154.53
26.471 123.431 106.989
35.5048 96.4667 111.582
119.534 116.835 164.397
50.2749 80.0031 190.022
15.8979 124.75 267.787
46.6985 110.811 88.2616
62.7127 162.864 262.105
96.0927 94.4947 94.5832
92.9309 56.855 145.886
71.7197 71.1678 108.905
67.8129 99.0055 228.095
36.6208 169.644 156.825
31.7168 82.2085 150.659
48.0414 127.651 204.656
40.5466 125.49 219.404
64.2605 151.836 190.885
36.1312 154.648 184.696
64.6122 86.1957 206.214
33.2124 169.096 150.843
77.8439 132.142 246.838
22.7866 94.9889 169.66
35.2421 148.333 234.038
92.1986 149.913 126.543
82.0351 66.1345 176.813
38.5541 148.13 227.093
55.4915 114.611 83.6191
36.1825 77.6617 154.688
71.6138 167.772 152.951
76.6166 154.558 181.1
21.3193 107.717 271.967
54.2462 166.123 123.255
20.5504 153.61 132.966
51.1773 103.179 88.3398
22.3551 111.723 246.235
86.8653 56.671 145.943
27.2984 153.242 121.423
61.7892 159.691 252.118
61.9925 115.579 81.7874
43.8427 169.317 132.965
65.3479 78.1725 100.527
110.922 109.415 115.524
31.0613 91.6575 119.543
71.5583 111.628 84.749
39.5998 80.068 121.129
59.635 96.0604 87.5014
65.8636 109.675 82.5162
95.4048 132.5 186.883
55.6535 145.911 199.052
96.03 135.185 192.298
88.6858 61.025 129.632
60.3323 73.9358 108.217
78.028 160.694 156.666
48.2931 145.215 95.8277
42.637 160.93 179.032
75.9483 141.681 252.972
116.055 113.747 179.395
69.0994 157.944 185.637
59.6734 82.5207 97.8448
112.596 120.912 188.627
30.466 130.321 228.11
72.9745 162.619 115.09
101.676 120.377 203.817
81.5732 153.648 173.975
81.6773 57.1077 149.113
94.2217 117.444 92.4419
18.234 160.532 146.756
78.4401 71.0167 196.968
52.9246 162.983 251.149
60.6211 94.8769 231.304
30.7068 106.309 232.906
26.8217 90.9189 132.218
47.5935 70.8633 171.388
96.9 102.463 93.0511
89.5246 109.841 90.7518
85.5031 135.56 92.0458
108.994 77.1953 115.887
117.463 109.063 133.03
17.5456 102.565 143.746
60.1739 99.6912 212.101
117.739 119.372 171.132
61.6664 161.56 111.593
71.3946 62.2528 138.078
116.947 89.7326 122.122
33.7813 125.82 223.277
101.384 90.9709 98.9484
47.0968 170.061 163.917
40.485 165.49 171.663
56.9984 160.635 242.464
77.1123 129.374 236.288
111.526 92.0061 114.342
115.423 81.1308 187.796
46.7494 72.1568 160.302
67.1042 74.4178 106.58
79.5145 127.013 88.628
64.1441 86.8432 93.8544
79.1577 150.933 101.289
49.8481 166.438 272.679
40.9833 120.756 204.589
52.8982 122.226 206.743
58.0027 73.2786 187.283
68.4613 160.677 270.488
123.968 110.046 164.667
99.0004 65.0052 130.799
124.106 101.23 173.379
87.6855 130.447 90.7801
54.7434 170.546 160.756
113.928 102.268 120.244
27.7582 88.4223 139.847
93.7194 64.8904 122.45
71.3513 66.0967 118.978
80.0189 162.797 131.527
109.079 74.9047 121.862
47.1204 151.378 188.302
101.405 133.314 185.738
105.799 123.323 102.996
81.7278 151.695 187.5
40.2625 97.2331 265.877
99.5879 127.441 102.084
58.3649 71.3839 176.643
44.9125 110.045 93.0348
29.0014 142.662 111.419
65.2146 162.628 172.217
60.6802 90.5824 208.455
71.9306 102.149 84.0974
107.554 107.511 106.391
9.67503 130.159 229.081
102.691 106.282 206.854
109.332 130.356 161.675
20.5445 112.614 252.997
68.6679 84.9233 97.3036
53.4468 89.8726 198.176
19.1034 131.098 122.087
20.0087 113.241 119.643
47.5784 95.8794 229.52
90.1101 70.4887 185.866
78.3303 91.4875 90.7069
38.5664 140.878 197.135
109.191 71.0178 135.167
110.792 126.477 177.484
110.786 113.86 193.533
51.147 87.0905 100.53
76.1458 160.606 164.338
77.1615 61.5111 130.073
45.788 72.4382 145.112
110.508 70.9901 181.191
105.729 82.7903 202.504
80.4319 142.706 94.2154
95.6129 132.196 98.4171
99.4949 75.1894 108.996
62.2877 168.148 161.118
85.4633 156.678 120.248
49.0813 72.2753 177.818
51.3312 157.724 232.525
77.5262 68.082 117.415
116.73 96.1066 128.092
88.3262 65.2065 176.947
44.7237 90.6555 101.8
38.9396 77.3334 177.761
95.2807 144.157 112.992
59.6321 124.534 85.0973
99.9248 120.817 97.1193
76.4439 58.949 149.571
41.5213 73.9153 156.245
118.407 97.4618 152.912
66.0868 120.81 82.3732
49.2916 165.812 262.768
47.8551 149.939 195.473
57.7753 131.363 206.659
55.3983 88.9798 205.981
77.2056 116.432 245.291
33.6093 155.889 273.384
107.53 93.613 104.944
82.8208 143.586 191.895
44.8978 162.318 248.043
124.402 90.0371 159.358
54.3848 97.8515 88.5631
83.0301 72.6954 195.738
94.7869 146.643 119.619
98.083 57.9648 139.741
66.6854 74.701 192.729
25.8099 95.4661 123.223
116.023 106.085 185.07
35.724 156.931 248.855
57.6556 157.623 105.525
57.682 70.3862 114.808
27.3722 165.977 148.985
121.947 101.736 161.257
52.8786 102.536 207.856
37.7353 83.5978 125.135
91.3434 70.7987 112.542
68.2406 93.8841 214.384
22.2391 120.079 116.388
106.673 93.0893 202.838
118.634 92.6217 137.357
53.4217 150.53 196.919
95.8546 140.402 174.771
27.6229 104.958 109.761
52.331 72.1484 117.145
65.1333 170.362 154.079
40.0299 101.241 99.0257
39.8882 133.501 98.5109
91.7965 138.083 98.4874
116.465 69.4655 155.615
83.7042 151.835 181.097
93.2614 142.624 182.776
58.9159 96.9243 257.393
19.4412 117.997 273.579
93.9206 126.177 93.6523
100.106 132.873 106.254
107.53 130.32 146.335
45.3732 94.8336 260.81
92.8492 59.773 137.349
96.6145 123.738 202.086
101.426 60.2162 161.111
69.6463 58.8315 148.229
86.1796 156.481 142.23
64.9398 164.93 117.913
109.837 65.6293 158.678
114.955 81.2258 123.826
49.54 161.732 241.62
68.3359 107.046 261.083
56.2389 166.431 267.624
25.0412 104.036 255.724
59.1526 152.654 230.654
18.8171 113.996 267.781
75.8749 60.1299 166.046
60.4852 152.811 99.3421
105.241 128.665 181.157
93.5334 142.573 106.75
115.128 99.8003 192.03
41.4505 168.273 161.388
91.5405 68.1311 117.6
41.5925 89.6398 106.002
93.5516 58.3185 164.793
30.4802 116.064 103.25
47.9534 97.3794 204.271
89.4169 59.1028 173.477
64.601 140.774 224.44
115.56 124.816 164.172
101.639 59.378 150.509
49.11 149.506 225.465
47.7933 150.71 101.833
68.9617 106.196 224.128
90.668 95.2267 90.5361
72.4343 69.3863 189.954
31.0081 115.456 195.663
82.5611 72.2261 109.082
100.407 89.2172 205.355
52.9878 66.8311 150.872
79.798 105.749 87.2888
99.896 134.124 173.891
120.884 105.927 175.989
86.5272 156.836 127.8
68.6648 63.2392 173.311
38.0122 94.3708 244.694
32.5648 99.6453 271.132
88.5552 150.887 117.247
99.2188 74.528 190.907
31.0355 131.036 196.151
19.006 158.1 140.641
58.4321 78.4076 103.366
31.911 124.389 101.441
102.288 70.8259 120.46
35.0606 97.5629 235.445
66.1519 61.3808 164.293
38.6389 135.305 201.247
57.1441 103.685 86.7333
44.6334 135.383 95.1704
73.3397 75.9175 101.668
95.6592 60.8391 169.921
58.4221 65.5245 129.253
58.6094 162.708 178
39.9965 95.6059 253.159
30.4005 158.789 124.12
67.5354 157.995 262.667
103.705 74.7894 114.798
83.0189 142.447 200.433
116.796 92.7122 188.453
113.642 84.3034 115.566
120.76 93.8059 151.447
105.568 131.593 173.692
107.629 100.763 203.173
43.4948 96.9039 198.143
41.6685 115.693 220.488
99.6457 95.4212 207.661
114.768 70.0098 166.206
58.173 67.9396 172.325
53.5351 126.804 88.0642
95.7401 69.9488 194.798
123.231 86.9897 150.378
55.0681 104.216 217.949
108.399 129.195 116.718
100.59 139.048 111.921
69.1377 149.569 264.881
75.8312 135.372 259.974
119.452 80.5972 156.583
32.6661 161.249 269.693
76.2822 121.171 257.697
95.9405 64.0155 180.541
63.9681 160.748 181.355
84.7324 92.0895 89.7643
72.9365 58.7534 160.866
39.2765 161.339 250.686
113.739 68.7603 145.921
82.7245 57.1166 139.986
48.06 120.872 90.9117
71.561 166.819 137.084
78.5539 75.2182 104.149
83.4379 85.6914 97.506
108.052 86.7654 109.766
78.5273 124.31 249.169
111.339 119.155 135.879
105.343 76.2027 188.208
52.3198 79.3956 106.995
104.069 104.311 99.5057
75.4806 76.3761 204.117
30.6595 100.065 107.907
25.0216 132.668 111.286
59.9131 143.9 94.63
57.0614 166.422 258.574
75.9569 64.308 174.922
111.891 102.049 113.302
53.6966 139.673 220.908
41.1434 114.289 97.2007
64.6351 156.687 244.49
83.924 160.258 138.405
42.9585 82.6098 187.393
115.805 96.191 120.07
113.906 126.114 147.336
66.9587 167.255 124.767
81.3889 75.5258 202.834
105.563 79.4526 194.995
65.521 164.907 165.521
92.6958 101.737 215.819
73.2266 147.554 246.479
31.9724 135.353 108.327
63.2352 170.253 137.733
75.4093 143.736 91.9357
120.334 82.4586 162.217
68.676 131.165 86.9809
106.922 112.816 200.126
100.677 140.844 168.127
67.8759 63.0069 130.32
22.4406 109.033 261.556
118.113 86.6864 171.694
109.472 125.482 164.945
103.154 64.0667 179.356
72.3182 161.22 176.555
47.7746 77.5507 109.323
118.254 74.743 150.989
110.378 67.5064 176.817
116.353 119.373 159.06
80.7277 62.8468 121.312
118.757 80.1865 146.736
87.943 138.863 196.705
99.8492 141.516 137.808
49.0395 101.014 93.9616
73.3346 64.803 181.769
59.6654 98.4869 226.092
99.5446 68.3548 125.909
27.7039 101.648 265.631
104.033 117.273 107.76
58.8154 145.26 223.749
51.1029 172.768 157.145
42.8787 76.1231 166.076
110.025 108.351 198.011
77.4864 58.4562 135.258
82.5407 91.8693 214.16
107.927 131.873 140.139
116.184 91.9516 195.852
84.8274 63.7828 185.15
115.299 86.8046 192.789
77.9894 157.543 169.82
33.1462 131.414 102.37
39.3416 91.5008 190.483
78.9176 157.45 110.206
41.4385 99.3447 273.514
109.004 71.512 128.307
78.7605 162.793 123.307
104.468 52.3964 119.401
118.167 101.269 131.005
34.2305 126.542 199.34
116.815 110.88 140.203
104.325 97.2515 100.067
118.048 99.8383 142.285
91.0626 59.0726 159.039
92.4652 83.128 99.4256
110.62 65.1803 151.441
69.9104 154.638 273.727
36.838 102.483 228.035
94.2529 131.057 197.159
122.491 112.264 170.427
94.7403 47.2287 142.393
119.425 84.8 141.676
52.7718 164.171 117.021
70.3871 166.996 131.103
118.626 73.3535 160.231
119.31 101.522 149.607
45.0798 133.229 203.42
109.526 99.3419 108.627
110.132 78.3323 183.052
103.097 61.0509 145.693
97.4513 113.377 96.2545
119.917 93.007 182.545
118.348 106.637 147.365
85.4635 150.161 106.021
103.07 74.5924 198.809
58.1853 132.153 218.711
98.8491 138.243 104.737
105.09 132.54 135.658
30.0104 140.302 233.181
40.1124 161.34 273.976
115.02 121.495 180.338
78.2074 113.904 231.205
82.0687 79.6014 98.7197
124.339 86.69 168.019
124.66 96.1412 169.713
115.699 70.2828 173.389
112.775 100.113 195.863
97.9001 71.7248 200.025
109.394 66.6227 163.382
72.8516 126.916 265.717
33.0682 97.5479 259.022
36.192 122.112 201.712
101.428 140.331 123.179
41.8433 100.472 200.089
104.849 116.628 201.884
66.4092 170.862 142.792
102.086 60.0443 155.426
37.3171 164.187 257.453
106.126 63.9663 139.924
64.4604 128.215 84.7686
81.9372 66.9855 188.386
108.342 124.706 188.78
68.9946 102.052 252.255
72.1832 166.69 144.85
76.2132 110.22 242.41
123.324 88.7979 175.348
76.318 70.5142 112.9
71.5623 137.735 224.142
122.207 104.656 166.217
88.8611 145.674 106.149
130.579 116.483 133.306
63.1839 116.362 215.037
22.8227 104.264 123.471
36.1295 113.535 97.5015
95.9152 60.7459 176.988
62.0442 65.1665 122.644
95.1625 88.1809 97.206
65.7437 107.761 273.115
116.502 82.7193 136.852
111.109 70.8478 141.178
121.204 80.1921 166.637
109.518 83.2462 190.646
70.295 127.96 221.744
114.227 82.066 128.477
54.6213 112.058 216.114
116.372 79.9464 180.678
73.7296 144.511 232.762
112.198 125.594 154.064
70.4239 152.869 254.546
83.6135 59.8937 172.585
68.7076 137.411 274.465
85.8461 58.2795 154.558
58.521 167.131 104.586
116.689 76.1476 143.804
119.316 111.749 184.582
118.658 102.484 137.6
79.9578 96.6969 215.441
120.959 117.67 121.113
62.4766 106.351 216.309
62.0677 121.458 208.864
81.567 161.386 81.5858
55.9238 184.573 134.369
41.1529 125.46 200.734
113.699 104.927 201.157
118.974 85.5287 180.27
36.641 137.003 222.162
12.7902 168.045 195.744
121.368 108.769 151.188
77.26 140.586 240.211
105.187 130.88 107.52
117.833 118.107 148.102
37.1533 185.377 242.364
43.5565 141.939 222.153
117.047 114.106 144.664
38.8691 85.1271 117.086
27.748 104.453 274.337
37.6219 88.4531 220.752
62.5686 137.233 205.375
27.5546 101.118 239.875
82.8685 117.931 88.7183
115.472 76.1187 165.746
100.153 128.88 196.177
44.7892 91.8151 237.593
109.091 86.1466 198.741
105.129 129.032 187.839
51.6524 92.1954 205.593
24.3185 126.407 234.082
71.3669 141.952 265.186
74.9851 92.7988 216.547
119.466 86.4865 185.276
74.7102 174.466 97.4041
55.0332 123.725 217.118
82.2761 162.568 141.409
78.6131 110.238 216.848
64.4398 160.728 274.343
76.9434 136.06 228.391
72.7796 112.086 254.995
63.6585 130.863 210.098
118.159 113.423 157.522
115.182 82.2641 132.531
67.9589 106.069 214.858
67.9123 117.256 274.496
78.6085 159.886 85.9061
59.7035 116.63 211.118
66.6082 123.294 214.793
119.273 78.7651 174.016
88.6808 146.336 183.131
62.0474 155.742 235.616
90.4451 130.84 203.253
93.6512 119.794 206.495
69.8838 151.381 239.666
71.9019 113.721 214.578
16.6138 164.403 197.392
121.432 110.512 144.274
84.5454 136.286 207.597
58.0237 166.877 274.639
