ply
format ascii 1.0
comment Created by Open3D
element vertex 876
property double x
property double y
property double z
end_header
43.0998 91.7086 162.623
15.2098 92.3541 200.106
69.4028 57.597 133.638
69.1547 163.73 127.832
69.475 36.3309 148.708
74.0648 137.404 78.5039
45.8313 102.182 228.228
39.8315 50.0048 162.068
32.4142 85.6232 159.501
77.9065 155.68 164.682
34.3175 157.864 184.217
25.5617 86.1892 151.279
48.4467 142.036 146.188
57.4568 121.851 227.106
47.9544 123.515 224.93
70.0952 40.3382 156.484
30.3433 119.33 221.311
52.3491 89.7889 125.603
81.8205 62.1902 113.833
59.6248 91.7908 119.752
52.7828 87.1198 197.729
16.1802 166.082 103.742
37.0606 124.276 132.458
13.4944 92.9295 170.328
80.85 49.9661 131.848
42.6799 119.406 216.645
69.2916 49.5071 110.595
13.4283 128.258 177.914
88.826 99.8602 148.955
23.1032 139.56 187.722
60.029 32.3117 159.035
28.6758 177.431 151.266
22.0718 156.075 159.846
65.5709 150.737 76.4772
33.037 82.885 170.036
31.3355 107.401 225.506
91.6246 67.5852 106.41
48.5515 168.357 175.507
66.0526 155.526 159.4
43.9255 118.43 133.876
38.9741 105.049 116.538
67.3532 47.4302 136.145
31.6689 158.424 112.254
33.0887 159.505 98.6794
92.6992 65.8675 94.667
80.865 156.916 195.518
22.7113 130.593 151.716
29.7311 139.354 201.93
32.6862 146.319 79.4728
25.1101 65.7991 146.995
48.4878 172.248 154.708
34.9989 98.7659 176.057
42.7642 110.45 175.211
86.2512 129.507 104.807
41.0276 146.585 146.933
71.3779 91.8513 202.905
12.9813 77.2457 160.969
26.8839 47.7387 161.819
22.895 118.321 97.814
28.8655 173.479 140.522
64.0565 184.209 153.372
61.849 76.8143 216.505
74.2727 73.0404 212.747
92.8823 141.942 175.21
64.093 183.765 128.29
14.4678 103.233 185.622
67.2339 126.371 209.38
23.3587 78.077 197.087
12.4585 100.923 209.76
97.3091 56.436 125.111
18.4805 119.638 173.787
98.2372 117.329 84.2712
42.7723 136.02 154.085
88.2693 61.0286 120.775
75.6868 39.2416 182.245
29.9278 96.3315 223.444
56.7732 137.482 209.865
27.0408 129.518 113.635
15.0107 71.7512 174.788
69.1509 77.2269 113.162
31.6913 82.712 144.877
78.6744 98.5466 222.393
15.1511 100.12 107.635
63.2084 104.109 209.844
97.2131 104.812 222.168
82.4455 61.4688 97.7362
84.2414 49.8986 181.853
37.8408 123.232 205.482
58.0625 34.2942 148.461
78.2115 32.287 151.758
79.725 62.273 106.622
74.4299 113.054 164.285
78.6601 137.671 225.718
18.5368 131.598 171.335
33.4453 167.433 106.762
67.4651 161.072 194.721
31.0237 58.1324 157.208
87.5246 51.7663 145.546
21.4295 146.783 128.635
41.2857 139.392 136.462
77.5144 86.2817 92.4698
43.8954 128.125 211.654
67.6116 95.1034 139.349
24.9841 144.796 178.633
16.9717 83.7126 154.966
19.6583 150.9 149.891
32.7219 137.295 159.054
64.1789 132.674 76.9055
78.3303 74.1806 112.383
32.9917 101.48 218.364
54.1711 184.428 125.256
99.0284 75.3342 94.4876
58.2347 84.5441 211.375
58.6367 153.531 202.205
27.4239 155.221 151.309
69.8788 135.311 125.919
22.2709 126.621 211.37
81.7428 142.444 103.166
87.2297 80.5451 102.203
82.4146 94.9908 214.827
21.4404 121.092 155.449
57.8536 120.58 118.225
49.1366 146.97 207.027
12.1201 167.671 121.804
30.7447 145.101 130.712
95.6 175.997 117.203
16.4094 157.123 119.619
52.5357 41.2241 178.636
52.5771 121.738 215.543
64.2862 82.9892 119.951
81.5014 155.993 176.246
82.9527 58.8254 138.617
14.1535 140.725 201.784
96.5359 58.3944 191.014
36.7802 170.365 156.345
77.3994 174.751 132.275
19.2752 107.945 219.773
100.769 84.883 124.603
43.4836 40.2898 175.52
40.0904 133.548 97.5906
23.0871 136.503 125.582
55.2089 88.7015 173.748
57.3536 104.311 111.267
61.1202 91.3026 204.723
59.4255 41.3963 135.628
36.5391 43.5807 167.499
22.1712 124.465 167.421
80.1091 168.126 195.122
24.8432 55.7937 172.817
39.9556 164.335 165.127
103.19 136.343 92.0141
74.0146 46.6568 178.967
54.0508 104.386 167.117
23.5782 89.5352 220.542
47.8977 160.243 181.063
70.4622 170.815 144.397
21.4249 127.455 126.31
99.9127 68.973 109.405
12.2182 117.695 192.762
87.3653 59.136 129.098
33.366 92.8103 151.748
61.3211 168.598 187.814
55.7968 159.708 165.337
65.7091 96.1922 150.221
53.5919 136.998 89.7987
37.5169 135.219 208.251
56.9397 136.647 175.322
45.6822 55.2882 156.602
74.0187 33.2356 163.118
28.3161 99.2591 165.964
62.9593 98.7993 197.902
85.5337 79.2492 199.684
38.5025 111.872 105.617
91.4421 63.501 145.441
65.8167 103.269 163.14
73.8774 68.1956 205.706
23.011 166.533 160.8
91.8046 150.738 186.184
31.3243 119.785 94.2254
43.5724 101.157 129.179
34.1557 40.877 160.497
49.3379 151.933 185.68
23.7947 165.338 101.483
97.5582 65.4089 162.826
97.3547 114.495 100.981
81.4201 98.7213 202.214
94.0855 67.9932 153.48
33.3862 160.318 132.159
22.824 66.9332 175.094
14.9552 84.454 197.18
12.1452 131.577 105.554
62.9512 60.4315 140.108
101.182 133.334 192.677
99.2196 99.7279 209.891
23.0951 166.039 149.401
85.6085 79.6118 222.355
106.335 132.01 83.3125
18.2263 133.513 192.138
74.0333 181.696 174.052
33.9861 58.3896 165.551
48.8214 107.56 188.871
38.336 65.4233 178.165
28.7 109.672 208.129
21.8054 58.423 164.5
26.1285 79.0258 214.113
51.6312 99.0971 121.606
79.8899 87.973 195.763
69.6323 57.0195 177.3
38.4302 113.66 186.726
42.713 161.378 200.451
10.463 96.6682 190.708
14.8046 145.167 109.833
80.891 72.1319 128.504
33.9933 87.4987 221.218
10.6994 148.045 129.4
40.9059 135.141 89.6372
70.2433 155.937 176.142
14.8241 124.071 221.003
96.2034 128.823 84.1717
84.3428 117.578 81.5259
46.2456 131.656 220.4
76.5901 116.92 207.396
67.7073 59.7506 222.598
65.7445 153.765 216.979
20.1102 93.8945 182.193
42.3219 144.738 101.051
69.4926 200.556 117.765
11.6145 140.647 137.247
31.5069 93.9281 206.144
81.4923 75.4675 207.656
58.4482 135.367 118.56
16.3578 103.322 174.032
43.4703 157.243 190.084
57.0495 163.423 174.22
14.2736 62.0041 164.572
92.1503 65.8392 136.575
54.4184 70.4288 151.374
52.3868 31.7935 167.129
30.7177 151.593 166.22
94.9405 75.6721 157.264
45.6825 76.836 152.19
32.1975 123.535 213.716
30.6273 152.631 122.419
52.3639 99.1286 178.989
89.8427 134.442 96.63
43.7101 147.904 177.616
49.7354 101.409 157.664
101.354 165.384 95.7715
99.5966 96.757 221.399
22.7018 35.6328 174.283
70.1411 144.143 217.419
64.988 175.722 93.8874
96.9248 60.2819 100.782
51.985 152.604 155.255
57.1774 110.504 103.347
91.7669 125.491 230.153
70.1851 87.2207 133.37
20.8382 138.141 82.2075
81.2437 143.27 160.391
25.8323 115.807 146.798
61.7021 128.157 122.529
77.5628 118.311 226.124
59.4247 122.672 93.0833
97.9723 85.3188 135.316
19.5745 99.5954 190.707
91.9205 114.468 158.505
22.3928 130.512 203.049
57.5968 52.9875 150.79
13.914 125.803 187.221
62.3148 153.909 142.768
74.8712 161.392 208.552
51.9294 177.619 115.49
21.6131 115.027 215.206
25.7198 139.934 168.448
64.1742 65.3104 110.872
11.0398 160.632 108.877
83.92 89.649 204.635
73.8464 158.645 78.0586
16.9769 132.67 144.816
85.2595 55.8722 106.872
28.6476 98.8103 154.068
62.4158 77.6758 195.676
77.7646 165.268 177.402
64.0917 138.46 95.0206
28.6503 47.914 146.025
97.7777 162.602 148.126
96.1067 63.7898 182.628
79.7208 151.135 206.839
18.822 169.219 141.173
29.0357 135.827 151.212
34.4965 166.442 122.917
36.1738 63.0235 148.796
97.6849 171.853 150.001
65.4888 70.5754 183.863
11.4094 150.203 95.4341
53.8 94.9213 207.705
23.6539 88.0445 198.764
64.5056 110.496 224.642
73.9581 141.93 203.973
59.766 88.0528 164.049
73.1325 144.689 148.048
64.2382 84.5637 202.714
72.0643 104.962 218.349
14.8224 99.5095 132.312
34.5277 175.805 127.923
81.2042 137.243 172.977
50.8895 40.9224 154.219
93.3222 155.884 174.897
51.5463 97.4295 219.597
107.312 130.153 210.258
55.4448 53.4806 143.125
50.5791 186.113 115.055
72.5377 63.3355 105.262
18.8195 163.881 127.502
61.4534 161.406 150.21
96.5039 136.033 223.494
116.025 146.33 180.644
78.6042 81.3861 173.25
37.6606 105.444 208.877
90.1707 95.7699 209.558
75.7931 104.147 152.37
96.7982 139.116 184.168
86.5822 182.264 148.749
52.6644 123.148 98.8345
54.4962 132.271 224.871
42.3261 58.253 140.33
92.4142 134.736 151.274
112.414 84.4209 173.509
29.5801 130.728 128.065
70.9455 81.4369 211.585
12.7533 110.605 208.275
93.8743 85.5711 218.544
76.304 184.911 82.473
9.8727 105.133 195.968
38.1862 129.586 126.731
67.8969 87.4437 161.379
13.7872 80.4602 144.858
74.5031 168.902 86.2013
47.8608 30.8742 150.295
89.506 92.946 224.833
79.9726 162.017 67.5168
96.7693 177.478 142.299
47.0699 137.74 210.485
46.37 157.075 169.563
38.4435 146.564 158.674
12.3355 117.909 223.977
59.5803 52.6059 130.123
100.589 64.2386 150.256
31.5162 63.5647 169.15
108.381 144.719 203.615
89.8262 96.9402 117.346
55.8772 63.5426 141.791
91.5814 74.654 125.893
92.54 43.0697 175.961
26.3636 137.022 79.5874
26.2886 165.895 131.882
33.2485 108.943 180.064
48.0334 127.383 86.4435
99.3896 132.064 213.818
71.4547 178.143 155.76
53.3695 167.726 89.1311
104.793 54.7082 178.904
38.6582 174.213 149.205
84.2897 183.595 133.678
55.7327 80.2878 131.616
90.838 66.3908 171.889
100.101 148.809 168.054
17.5843 156.905 143.04
9.9206 110.101 137.873
59.3155 146.684 184.681
113.353 165.403 118.752
87.4639 54.7504 213.643
101.902 69.1879 193.291
45.2665 115.256 205.65
41.9063 101.149 192.273
41.3427 175.286 122.54
108.442 92.6034 210.145
85.2656 117.618 229.064
37.0921 80.0693 175.376
78.3202 69.1416 121.297
45.5481 74.1997 185.225
32.2969 91.6328 214.318
73.6374 73.7642 180.687
70.545 62.1625 116.816
78.6301 187.279 117.154
42.14 102.332 183.425
88.1872 75.4711 107.946
77.7693 181.124 123.115
95.6465 30.5308 151.206
82.6462 39.6717 147.543
108.523 69.0789 91.64
94.4306 96.018 141.702
88.1547 86.197 125.899
59.2084 92.1283 220.536
52.8272 182.551 151.665
41.5384 94.1841 204.955
107.995 86.4085 159.702
65.6934 160.704 78.3713
72.6271 90.5286 154.42
94.7366 47.7337 185.794
90.6073 123.977 77.269
37.7527 120.112 167.097
21.673 118.843 221.793
65.0349 186.74 105.076
69.7894 114.575 81.5609
44.5029 69.5904 147.302
12.2462 163.724 137.001
117.409 115.513 85.4979
45.324 85.0644 207.898
72.5484 160.284 153.05
72.6577 182.55 93.1297
99.5777 48.3375 171.074
30.3897 64.8148 184.674
108.349 167.672 128.035
79.5431 109.982 224.141
88.4778 104.947 225.56
47.6149 42.3216 165.167
108.716 168.846 142.824
36.8481 48.7921 189.714
68.4772 178.648 111.996
62.7359 78.8119 172.254
38.4973 34.7285 156.455
85.2987 115.252 163.367
32.8974 159.933 156.305
23.0639 155.024 121.718
79.3616 178.119 157.088
60.2403 147.449 212.592
51.9091 88.005 143.37
77.1398 113.526 154.103
48.559 170.087 164.686
70.8455 152.231 201.536
64.7096 141.399 81.0042
11.9287 118.18 150.613
53.2903 163.199 155.661
50.8198 146.543 87.2086
75.8467 62.0974 124.897
16.8116 142.553 92.9782
121.978 86.8769 107.566
70.5388 185.971 118.968
39.4578 149.716 90.2034
80.5048 136.586 144.759
104.939 91.3513 97.1329
88.1217 79.0093 153.623
38.0531 116.506 118.192
66.1351 176.999 122.051
44.0617 108.04 218.506
51.0903 98.4156 128.609
76.0863 102.982 164.3
12.3617 77.7465 201.413
77.7003 139.219 211.093
99.8143 151.915 206.123
40.9281 154.928 78.4461
69.1561 85.4509 172.512
91.1767 154.77 207.799
60.3376 37.0484 173.326
85.0388 72.5787 93.7842
52.9827 44.6959 142.773
60.732 41.9469 157.69
77.1272 107.971 69.6563
31.928 71.5845 143.349
22.8924 114.593 125.422
25.238 101.874 216.315
38.0021 92.0905 214.731
19.5636 150.503 103.128
36.0957 115.005 132.258
67.5168 74.4151 205.711
10.9172 135.909 120.469
106.255 141.919 211.701
61.5864 123.158 104.99
30.7955 112.585 121.208
85.4044 80.5398 186.928
37.1894 151.595 173.82
42.9755 99.3061 146.51
51.5419 127.807 122.879
61.7439 101.454 222.106
66.3095 81.2527 220.483
10.21 117.751 142.917
53.8385 129.05 92.8452
64.8144 67.693 221.76
36.1582 87.6343 209.27
70.258 126.009 194.084
106.442 112.547 89.6111
80.5112 147.187 82.3812
71.4828 180.129 135.077
99.273 155.398 193.211
73.9501 156.249 109.593
62.3936 24.5251 156.139
9.94755 68.3252 184.344
103.125 56.107 144.659
95.3807 185.815 155.162
65.514 150.04 153.347
70.2309 119.279 225.215
60.4061 115.579 84.1395
19.2887 169.367 114.798
57.5357 156.105 85.8011
74.4112 91.0335 213.031
75.4587 122.123 94.2742
54.0016 133.231 104.022
38.7104 84.0355 214.787
49.7377 180.991 141.255
73.2159 123.962 145.986
90.0575 42.7657 155.032
68.2049 153.795 97.6245
83.8889 84.5371 91.3184
56.9457 129.204 71.4552
11.3647 78.6512 169.686
109.548 121.669 203.1
66.1114 181.886 138.693
69.3532 93.2589 193.785
80.5812 87.3468 151.223
118.934 99.9927 198.496
72.9051 174.634 103.245
28.3133 113.38 107.09
85.2053 40.3866 189.188
91.2494 175.102 136.108
116.976 66.2666 152.333
85.4912 75.9224 142.354
65.7294 163.572 206.025
22.1712 75.8569 144.886
106.93 75.344 122.693
111.159 163.243 138.549
101.881 89.395 200.81
9.82892 147.722 151.06
99.727 167.786 161.144
91.3162 168.985 140.845
82.5259 184.092 98.8884
63.0306 138.162 223.115
69.5531 157.14 186.972
74.9002 133.472 166.484
71.155 20.1103 172.132
66.8029 131.38 224.955
92.4217 79.0389 115.754
103.917 168.843 102.473
45.8535 152.635 197.459
68.3809 113.413 155.326
39.5288 58.485 191.304
106.459 145.313 192.341
111.852 163.493 111.007
65.0074 94.7235 175.103
75.4296 68.0025 194.534
106.779 87.0416 104.183
71.8517 147.969 169.352
55.5623 90.232 189.352
21.6443 108.821 168.901
111.499 82.9511 199.142
97.8092 161.8 182.408
60.4325 92.005 132.917
90.0991 39.304 165.837
91.6164 83.2555 208.599
103.127 64.4079 101.996
75.6553 184.905 107.009
53.5162 178.149 131.504
95.8189 67.9713 119.273
62.931 54.2207 189.871
45.602 119.537 116.657
88.7963 160.185 85.9442
92.4865 141.013 158.969
93.8954 70.8448 199.2
110.5 162.127 98.3767
63.0873 40.8088 182.144
84.0745 183.869 110.043
45.8175 183.848 133.446
77.2235 41.2224 171.496
34.2025 64.2611 193.868
107.137 71.2743 131.85
72.916 144.309 86.8635
90.3396 177.624 107.717
14.1133 64.0911 176.542
85.62 161.39 184.37
107.679 154.408 195.519
75.3199 131.828 117.677
24.0449 148.506 138.303
109.753 60.7622 165.514
34.9592 65.1276 202.455
86.4971 184.159 142.779
64.0349 38.5043 199.453
82.5006 38.6531 161.056
79.238 176.085 73.4042
95.1411 52.7724 151.387
37.3516 126.904 162.819
43.0467 84.4064 139.611
23.1359 68.2262 161.805
104.846 156.493 175.78
78.0977 128.281 228.366
55.3841 141.789 219.555
41.2646 88.2875 151.6
72.6742 133.422 93.5512
57.2149 97.6981 172.251
35.8238 177.204 182.779
15.0939 60.7883 206.853
67.9097 107.161 85.8952
61.4038 175.391 112.471
62.4169 163.297 109.035
114.686 133.021 208.421
62.5148 153.822 103.313
79.896 84.7098 162.469
84.7257 91.9886 134.457
92.1911 121.715 153.867
15.337 144.477 122.013
46.6018 130.509 113.8
95.3406 169.871 88.7062
67.3616 152.035 127.025
55.716 151.815 136.146
103.534 138.851 174.89
58.5798 97.9194 157.771
88.0748 61.3045 192.668
81.1457 175.785 93.1447
47.1836 169.47 112.48
18.5781 69.5698 155.897
57.2459 122.614 79.8447
64.9668 85.3089 223.76
46.3344 50.6014 180.018
57.4419 145.763 93.6439
98.3012 87.4998 106.73
90.3142 84.3793 139.63
98.0166 74.4968 166.752
45.9934 46.0197 145.122
14.7353 129.932 127.286
80.8302 143.292 127.652
66.0985 170.344 83.2217
82.8966 106.966 93.0091
98.4971 72.0701 128.788
90.7149 81.3806 91.8796
44.7852 48.4637 191.428
54.2818 109.32 223.369
61.3825 165.641 86.8651
19.275 48.4442 185.252
101.153 79.8817 113.445
86.4636 143.098 201.831
48.3488 81.7615 222.685
58.9082 134.344 84.453
100.988 174.03 123.317
71.3543 160.065 92.6725
83.8948 53.9416 190.438
35.6774 71.3772 206.389
104.274 158.101 161.686
89.3686 164.997 153.684
100.474 168.506 113.56
107.343 52.4776 167.193
116.978 89.0433 99.8785
74.9601 151.808 129.613
106.125 127.358 176.871
39.0582 106.585 133.458
87.8936 150.544 231.954
128.903 109.597 80.6567
47.5521 140.064 93.5624
83.9575 42.9465 116.777
94.2968 76.0673 146.333
100.669 87.4498 211.572
118.197 144.483 193.003
111.79 81.4877 111.161
38.7049 128.698 114.357
57.945 154.106 113.058
91.4451 80.7448 165.416
107.164 171.831 151.693
101.165 104.425 86.7281
41.7049 41.3396 150.613
29.563 131.769 208.326
36.1631 107.311 158.477
65.8767 66.4653 195.482
84.7188 38.5788 176.16
66.4113 96.9649 187.107
27.1091 166.983 120.128
104.145 72.6056 157.668
68.0278 42.3754 206.347
78.4566 163.425 139.647
25.9429 114.889 134.509
56.2196 154.53 183.073
108.837 112.556 115.496
104.85 113.815 166.557
66.0523 155.69 87.3572
33.7175 125.631 109.269
79.1235 73.2115 227.687
64.2038 109.761 99.3253
96.9957 144.297 214.153
103.252 141.32 99.5792
28.3635 44.0618 177.839
11.0867 88.1983 147.691
88.1241 130.689 224.895
82.2944 66.0354 199.818
78.0708 43.5845 193.286
51.6557 176.012 94.7694
27.3098 156.868 103.179
94.9277 139.443 206.314
76.4312 98.8872 141.363
78.4649 180.518 142.407
108.177 122.15 80.7196
77.2627 147.653 143.154
62.5742 179.688 167.077
21.0444 130.78 188.21
55.0227 164.023 95.2482
78.5515 94.4102 167.872
7.93312 122.651 183.839
108.44 82.7698 214.825
19.0806 119.434 188.692
80.9862 131.169 94.668
99.6992 147.808 137.207
8.36298 142.643 119.42
97.4407 126.781 164.386
35.8818 152.769 192.305
70.1429 44.748 194.628
73.8223 82.6883 188.252
96.7086 89.6558 95.2888
104.692 95.0557 92.3094
87.2893 147.318 220.622
80.6171 69.0399 179.688
34.3121 120.789 149.173
106.042 154.918 93.2052
116.517 158.032 106.36
87.2873 170.287 115.476
51.3203 130.136 127.908
69.9183 188.402 68.6637
93.6665 159.104 161.83
66.9283 186.449 110.51
79.7859 83.6445 121.647
108.649 175.929 117.553
47.6519 107.492 115.887
64.1762 81.329 187.569
52.3503 132.211 215.213
15.7091 101.793 146.417
116.031 126.455 181.459
106.455 90.4006 190.113
82.4803 126.472 203.759
65.4278 142.738 134.566
91.3809 152.397 158.75
96.1915 144.123 85.7846
56.5138 164.738 113.401
65.8997 164.258 176.815
44.9945 107.158 199.073
11.8668 149.402 187.997
31.0205 55.6227 194.378
80.8357 159.247 90.3265
37.8219 110.738 226.253
59.8737 162.182 121.038
48.2241 106.705 206.689
78.5616 175.231 114.768
123.95 106.014 191.431
71.409 118.5 88.3858
110.929 104.571 84.8653
57.3529 187.777 114.871
107.677 114.121 78.6087
45.4073 33.4109 165.646
31.3561 109.65 153.781
110.096 101.888 95.7479
64.1588 58.6597 191.687
66.944 178.054 74.5819
79.212 199.726 116.613
111.465 151.628 168.486
107.338 59.6454 187.319
28.989 84.0185 207.71
87.1093 130.772 163.324
125.341 134.224 89.2524
63.2056 118.319 192.909
105.158 132.49 201.19
70.5896 29.5393 131.788
38.6166 169.227 113.975
62.2228 157.861 184.639
48.7092 130.868 89.6387
19.0086 112.389 115.073
67.8527 27.68 154.109
93.5771 151.159 228.98
111.187 151.696 185.974
84.1291 143.367 139.455
125.201 73.3856 99.5306
115.404 91.2963 201.614
105.858 112.738 213.415
114.284 111.529 209.682
118.873 132.503 197.23
82.4952 134.327 154.053
20.5874 163.395 111.868
62.5573 121.357 90.0915
105.81 147.009 88.4518
72.259 59.5977 197.49
56.1477 33.6242 131.097
75.687 82.7014 132.725
81.7166 143.63 181.854
72.771 135.124 224.403
116.669 152.203 96.1672
81.3337 176.546 187.635
66.1445 156.963 115.18
13.8543 112.464 93.8885
65.3096 143.171 109.346
107.457 89.9301 146.464
118.644 143.477 171.644
58.7583 104.233 122.191
88.0261 187.488 158.59
96.5258 127.392 128.318
97.8375 119.47 217.807
58.9199 118.806 188.344
88.6557 144.261 92.958
123.642 116.147 92.3885
119.838 123.659 203.89
63.3734 43.7637 130.186
84.6946 113.496 146.158
68.3231 170.365 70.755
41.7987 76.0039 147.365
52.516 56.7898 184.433
110.003 104.37 150.933
91.7176 161.115 131
69.3838 87.4944 230.269
112.626 77.4109 188.753
69.1035 184.851 81.0916
66.4333 110.434 181.412
122.571 86.8801 117.245
82.674 150.507 219.153
88.6077 175.624 178.744
110.982 104.044 201.624
94.7306 83.7402 188.763
124.844 119.26 192.84
59.4987 172.256 170.902
97.5888 125.284 220.975
94.1323 41.2738 133.651
92.5142 116.653 135.522
126.597 96.7194 105.981
17.7238 119.169 110.697
97.6697 108.036 135.152
53.6382 153.637 109.092
85.0236 123.139 152.816
56.3968 109.052 142.315
89.815 133.769 86.3028
109.929 108.582 109.559
40.3608 174.485 185.183
8.83456 151.288 156.362
122.724 83.1109 184.947
101.135 64.811 139.573
40.9045 72.4327 152.49
105.772 96.0387 126.984
73.0845 147.421 106.9
77.3159 130.515 141.241
120.533 85.218 143.856
25.9648 59.2866 191.135
93.4013 131.718 136.865
47.7581 179.265 126.522
93.8291 145.121 111.32
68.3202 180.902 172.087
96.4885 66.4611 216.287
87.0995 107.728 151.421
117.387 89.8044 191.671
16.4546 100.721 124.587
112.68 136.019 196.522
105.281 75.3946 89.3336
139.27 117.928 85.19
55.2879 102.009 128.453
112.268 142.776 108.851
15.1253 96.705 141.792
132.92 125.123 85.1214
103.901 94.4333 153.25
117.947 88.2371 161.495
58.0331 119.727 135.213
53.4848 173.366 102.606
111.981 68.7589 164.652
106.318 117.05 185.561
99.5643 154.178 86.355
72.9198 61.7684 169.787
59.4274 119.935 156.468
27.52 31.7995 172.147
120.777 149.967 163.914
77.7044 62.8663 197.732
103.511 114.986 123.695
14.7165 105.845 140.885
9.39623 111.599 119.32
111.758 110.063 81.3199
46.1519 148.254 122.273
28.1685 118.349 177.018
34.2763 60.8118 186.021
45.8505 83.7592 228.41
114.117 65.4796 137.217
103.074 101.065 158.861
86.7175 86.0178 168.815
82.6252 127.33 183.726
122.594 93.6234 117.973
119.997 74.212 143.078
115.071 170.775 162.738
108.418 65.1085 148.725
88.5088 72.8131 174.95
113.389 128.048 101.074
