ply
format ascii 1.0
comment Created by Open3D
element vertex 483
property double x
property double y
property double z
end_header
20.5876 168.238 147.745
80.2291 141.925 93.7923
15.448 114.028 219.288
15.3442 169.059 142.711
60.2069 117.013 103.61
64.9343 116.279 80.0239
13.0717 80.635 236.637
87.549 134.829 171.655
61.3179 93.0731 166.887
20.3136 37.6868 214.016
18.1921 220.186 15.4888
37.4282 74.9683 88.5031
101.073 145.321 87.0247
64.13 131.616 120.911
84.1762 141.489 87.8022
70.0048 114.193 91.0054
14.7664 56.9434 117.829
11.3353 46.0308 132.592
61.6007 107.813 174.535
23.9201 126.906 227.48
54.2898 98.8445 114.65
72.236 132.672 86.1505
72.5232 135.096 105.877
63.5652 135.23 109.42
87.1426 83.0083 174.413
21.3557 62.3822 123.399
88.0146 145.122 146.63
46.8235 104.504 119.91
65.1845 127.12 85.0057
91.5996 142.257 84.7748
81.044 139.544 101.652
71.4488 127.047 157.486
76.1281 132.637 96.3123
20.0616 104.454 216.969
82.4983 141.808 140.176
55.6663 123.81 97.9409
94.5559 131.447 76.773
37.6986 78.0135 235.638
42.0735 76.0889 114
11.3704 58.9255 133.331
32.6744 59.9763 110.425
68.9229 138.559 100.925
94.8834 86.6742 180.216
46.9841 97.1766 146.222
20.9652 78.5876 217.267
64.7268 130.146 96.0081
131.017 139.684 106.158
27.3239 61.8484 117.669
93.9502 152.233 102.608
21.7062 171.874 131.736
36.9129 185.59 232.38
29.4196 184.98 232.72
64.0775 101.774 179.896
103.622 154.2 120.288
62.644 129.629 102.587
97.2655 138.245 80.0986
73.81 129.717 135.82
86.7355 135.872 179.466
29.0501 185.836 209.626
71.8894 107.151 76.6304
77.2616 145.115 104.544
56.7655 127.238 110.341
62.5217 115.206 169.885
87.3441 130.796 184.836
67.4165 126.421 166.505
77.0648 119.005 181.978
74.7313 130.793 150.076
75.2534 142.361 115.416
73.9439 130.977 164.134
98.8173 67.6994 153.649
129.931 103.178 153.797
68.0848 76.8574 134.242
57.2911 118.791 88.2223
89.0797 143.433 137.612
86.2636 150.071 101.153
73.7985 127.342 79.4278
14.0108 139.272 16.2488
93.9295 152.692 111.279
89.1357 141.607 166.449
56.7752 109.231 165.398
101.284 122.46 73.3457
30.9141 179.064 210.573
100.309 152.659 98.3606
91.0767 124.081 188.196
52.8191 109.831 150.238
33.5506 75.7559 223.386
71.3956 135.709 91.6463
48.9467 113.122 114.683
80.6061 137.191 170.385
56.1602 99.4159 105.382
12.3006 91.7597 229.299
54.9714 109.566 112.486
84.8546 149.918 112.008
58.0479 116.729 156.133
81.9009 86.4606 179.258
78.894 121.698 75.5329
81.8461 139.473 160.603
11.1959 69.8806 118.994
66.6443 128.009 143.984
68.7695 91.4594 178.71
88.0751 127.958 85.7198
69.6102 106.613 183.906
21.3059 179.848 142.761
13.1657 33.7522 143.246
81.1414 131.91 87.488
32.7291 69.9775 230.845
13.5665 37.384 219.036
51.0347 114.677 103.151
85.9933 127.051 78.4659
92.171 115.357 73.6635
11.5702 183.359 211.185
22.1324 88.8208 243.911
69.0339 137.982 114.667
84.8871 74.645 168.634
32.2964 167.521 223.372
20.9165 186.16 234.318
20.2817 54.6077 112.758
63.2333 110.547 88.8348
51.9076 119.927 125.391
75.8656 111.792 176.493
51.8125 109.34 158.552
82.9854 143.087 130.6
79.6554 111.062 75.7078
84.8405 119.39 73.7534
22.0435 182.303 241.228
105.696 76.7876 168.648
118.373 108.365 97.176
15.6069 148.565 157.789
117.963 84.5098 175.565
90.9739 148.465 93.1725
83.4418 123.817 182.364
86.2823 136.538 93.0022
46.777 109.327 125.057
112.02 73.464 167.133
62.7172 97.3981 173.872
63.6083 78.5721 129.142
16.3306 176.199 27.6463
15.3932 164.416 134.216
77.3278 73.4627 145.693
77.2095 129.673 178.475
124.088 138.837 91.7149
130.697 99.8637 145.495
74.3863 100.807 185.631
118.06 152.692 103.597
61.344 108.604 97.2858
13.4222 41.972 211.183
52.8342 120.406 109.806
25.808 84.9559 220.392
14.9975 73.4681 226.882
88.5414 136.216 81.2454
91.6381 76.3596 171.465
70.0758 78.8125 161.533
35.6806 191.375 213.407
125.363 85.7228 127.425
25.2274 216.956 15.1567
53.8212 105.145 107.773
18.3966 49.1695 213.493
94.5039 149.707 133.928
11.8038 159.174 137.692
24.3864 131.924 221.229
55.0737 86.1155 128.76
24.729 226.746 14.9832
74.6039 88.9493 179.972
85.2437 148.001 123.551
71.6098 124.262 176.203
13.2187 78.59 243.747
83.4934 71.3635 150.152
68.1138 130.118 129.665
52.2306 94.9108 130.075
16.5816 171.213 21.8777
29.9076 164.971 217.746
62.2516 82.8235 120.295
126.67 89.9425 144.983
28.3538 168.587 143.13
80.8191 103.692 186.429
73.2439 126.718 91.1708
90.6567 115.914 189.51
58.5674 121.728 115.538
124.28 78.3139 134.493
45.2485 106.521 137.316
65.5839 128.177 113.784
59.879 81.1351 138.717
24.1431 162.504 141.25
96.8025 130.043 186.11
67.4794 86.214 166.905
101.178 118.565 189.727
73.9106 113.329 184.531
79.968 124.4 89.5241
69.1119 92.9468 97.0619
15.7802 133.831 234.627
110.655 142.821 86.9591
49.2939 99.0942 138.429
12.3567 31.5867 239.453
99.0325 153.472 155.112
69.5309 112.077 177.485
74.8628 135.686 119.399
101.698 66.7334 159.009
92.524 124.933 73.3414
17.7668 82.2283 85.3256
96.1441 155.495 142.787
80.0627 81.2596 171.891
98.8935 63.6789 143.149
60.1701 122.352 134.143
24.7701 225.34 4.82843
20.6906 76.1408 233.411
98.7096 139.362 177.278
44.427 77.7382 102.841
88.5733 138.579 158.246
126.48 85.727 135.835
52.2568 92.2578 146.714
135.757 104.902 134.581
44.456 66.5776 105.27
141.56 125.787 129.014
123.823 102.222 112.076
20.8446 75.1769 122.116
73.24 74.9912 154.466
83.2839 92.9821 183.966
90.8163 89.5657 175.21
65.3321 96.1067 91.286
11.8296 112.485 208.272
11.0029 56.5352 158.602
91.2307 152.232 120.093
23.7569 215.205 253.686
91.2372 151.543 139.542
49.3567 105.21 129.829
76.1773 98.0226 78.8936
15.0435 73.9047 217.828
115.458 133.639 83.221
38.298 63.492 119.452
53.1175 118.007 135.129
25.7619 140.236 17.0775
103.167 132.54 78.7231
72.4835 117.631 77.1863
93.4361 149.529 151.74
20.7455 172.102 214.823
93.7783 64.8423 133.204
81.2216 137.507 150.804
18.0208 141.328 160.556
138.673 123.7 138.56
62.5307 87.5177 102.622
101.319 79.2944 173.106
96.2558 150.083 125.061
28.5577 82.467 114.865
32.4504 76.9889 82.4304
75.422 110.63 89.4796
92.2725 72.2006 165
11.2882 106.024 216.178
100.82 70.9067 165.603
25.3749 92.2965 226.653
137.324 117.186 135.218
60.9966 96.0606 101.202
120.331 91.9986 107.465
96.585 94.3722 184.512
80.3915 102.619 178.778
17.582 185.549 207.962
62.8027 102.552 169.803
134.973 109.194 126.717
46.6765 94.3516 126.431
131.86 110.089 150.058
99.899 150.057 107.796
50.5284 108.651 106.079
17.5461 229.727 5.94879
129.057 92.965 134.524
110.225 158.595 156.357
30.9771 163.738 237.686
35.905 77.4294 117.258
71.0516 120.273 169.525
76.4062 133.123 127.293
54.1921 89.2314 155.668
25.6042 72.0029 226.963
53.3146 109.624 94.6107
16.69 229.264 211.397
57.7128 120.752 146.799
122.41 161.784 143.28
121.839 158.655 132.704
109.75 67.9898 161.02
60.9934 124.155 91.7029
87.3593 108.501 77.9465
79.2062 112.86 83.5318
89.6219 141.417 175.66
76.8351 72.0277 131.46
85.2116 74.4489 162.237
115.7 116.057 82.7225
130.128 109.86 159.41
17.3898 183.454 22.236
72.6171 131.102 171.059
71.0231 75.1585 141.29
98.9885 144.381 170.558
66.3287 76.6008 146.367
29.8394 85.6418 239.077
102.442 135.288 87.893
134.151 117.948 155.898
116.527 146.604 93.6874
110.842 63.0292 152.306
80.7611 77.5804 158.785
78.4255 134.12 81.7362
21.918 230.098 216.692
11.7871 63.8404 90.9768
115.023 150.77 168.537
103.739 151.817 164.546
123.111 117.3 96.4313
116.614 155.771 151.945
12.0217 60.0647 209.105
14.7493 3.63339 216.611
115.4 95.7866 181.502
65.6131 120.107 174.677
49.746 100.53 154.97
128.881 127.244 106.295
105.036 64.9818 148.398
10.8031 95.7187 57.9679
10.2742 65.3906 99.7005
108.724 165.631 134.389
62.7678 81.4683 157.704
93.1377 103.832 76.8477
107.277 148.512 98.4878
107.602 65.1012 141.907
106.854 157.408 132.387
9.9969 83.8183 90.4886
91.3701 147.883 116.199
98.4646 81.7826 177.002
34.819 165.814 229.219
87.1179 101.093 186.13
26.854 167.096 231.69
76.0117 81.6065 164.928
16.2764 160.028 144.799
76.237 74.5682 121.649
67.4847 120.511 86.8173
73.17 79.8451 170.048
12.3472 177.725 216.346
21.0598 88.218 234.727
94.4444 144.444 164.846
77.9981 95.203 91.9614
95.1509 122.84 84.7248
96.9388 149.022 142.312
112.371 155.541 113.361
10.8736 130.269 226.915
13.7911 89.6222 55.2851
80.5941 103.587 79.4154
83.3051 142.209 121.836
85.6729 97.5208 79.1707
104.179 155.888 112.156
116.414 66.6859 152.627
124.67 88.7878 153.971
134.932 131.978 108.615
123.639 84.9744 118.156
83.3014 112.254 187.838
75.1607 134.919 139.553
72.9065 137.14 125.987
127.747 145.311 100.909
127.188 119.934 168.542
105.569 159.998 149.865
91.5716 143.404 155.548
122.124 93.2659 121.08
105.588 141.977 179.274
83.048 91.4156 173.733
88.2629 67.6769 154.209
105.516 125.219 81.0309
15.2666 217.747 252.141
104.682 94.6287 184.585
70.1803 74.0211 121.22
60.4354 101.036 93.5918
29.3536 190.331 227.637
12.6056 143.786 160.993
123.347 113.007 106.167
130.45 91.4062 151.191
12.7023 178.91 21.0555
104.208 105.243 187.992
19.4321 123.065 13.3978
81.3399 92.3027 84.4995
107.029 151.837 93.9736
30.3737 85.5698 229.536
63.6871 84.1796 151.595
133.915 131.986 119.102
127.644 98.3846 136.444
55.705 88.5859 113.751
55.1405 85.2254 146.57
76.9409 134.181 157.307
56.9442 88.0987 142.753
11.881 58.9349 146.246
118.449 110.711 90.229
80.8856 131.592 142.975
24.2321 181.847 135.64
109.95 155.736 103.006
15.7524 125.302 221.918
135.738 128.55 157.055
100.141 146.538 162.138
14.7269 89.7763 218.774
121.518 81.8473 107.648
120.418 74.2141 120.159
46.5206 73.4347 93.1311
31.1849 189.233 220.185
18.0993 3.34884 212.151
118.997 100.973 101.756
93.8699 73.0638 158.833
105.598 125.41 189.465
117.881 65.0321 143.058
17.9121 31.903 143.423
82.2267 89.8124 71.8961
105.523 114.084 74.6156
111.415 128.175 82.7142
85.9743 116.524 181.846
136.431 123.747 148.466
30.2706 75.9357 230.358
106.825 137.271 82.0765
108.468 151.567 162.51
121.681 122.988 182.778
12.5515 128.517 45.1418
99.195 75.7789 169.307
93.0783 65.5456 121.687
120.216 86.8462 163.556
68.1853 84.8081 106.439
124.096 155.425 148.129
21.966 169.029 235.151
120.982 125.397 94.0428
127.742 82.3056 148.769
90.6799 110.021 85.3956
108.315 84.9735 173.19
94.3726 105.283 188.72
64.7102 126.233 129.277
62.1369 123.134 157.706
131.017 131.648 162.285
92.237 98.484 180.392
10.3369 18.7457 210.722
111.442 157.927 120.51
117.114 120.257 87.5013
28.8139 184.943 240.046
24.9681 168.441 225.754
99.0181 109.51 73.1798
128.803 143.707 164.443
123.629 163.382 129.623
130.419 105.327 140.629
14.2359 30.7603 138.975
18.3667 64.6119 94.6391
140.049 134.163 122.099
127.622 149.936 111.74
11.4596 219.389 223.212
87.9813 67.671 140.454
118.141 161.205 152.794
90.8928 71.2357 150.051
107.097 131.582 187.134
128.39 130.931 98.8166
87.798 88.2879 68.8965
31.4659 80.2579 240.041
113.513 140.828 177.906
23.8791 172.74 143.875
61.1581 91.6226 110.421
111.781 89.271 177.247
110.113 134.048 180.734
135.303 111.246 140.127
123.837 97.8515 163.487
115.705 80.2615 169.793
136.647 114.462 114.89
124.231 107.461 105.064
127.774 100.214 159.011
100.962 91.2961 176.53
11.5669 90.7867 67.4578
24.3794 182.485 207.587
134.72 144.152 154.844
11.5162 84.1874 55.9764
100.059 75.0082 160.253
10.5485 159.958 184.004
25.513 159.552 274.643
105.84 64.2453 129.271
113.13 112.029 187.683
130.022 106.704 126.942
51.4088 88.6282 121.564
112.26 103.184 186.679
28.879 178.928 134.018
117.52 151.227 162.407
102.063 103.49 78.0118
22.942 145.304 274.376
18.6739 148.908 274.171
122.762 153.635 112.337
97.9811 110.754 187.625
11.6759 123.339 42.1714
103.247 111.848 81.8849
129.371 91.8113 162.222
57.311 121.079 160.578
12.2008 63.6654 211.774
17.4928 155.174 274.7
95.6845 130.478 179.292
110.184 148.602 173.795
130.776 137.939 157.407
