ply
format ascii 1.0
comment Created by Open3D
element vertex 692
property double x
property double y
property double z
end_header
12.7735 191.018 97.7816
84.7965 105.429 77.7002
110.685 73.1126 101.023
60.3982 113.844 28.4793
130.254 88.6335 117.153
74.7764 76.4357 75.0294
99.4981 66.1077 90.8231
83.8112 96.7461 81.4
82.2685 41.6559 53.7431
87.1295 75.3798 83.93
76.6542 44.765 46.8811
47.6932 55.8792 194.963
64.7821 108.311 48.4477
78.4962 105.783 69.5267
70.4913 48.5422 42.7684
150.037 101.992 116.017
55.3929 74.1253 6.90264
154.046 78.9085 112.892
56.1125 103.96 33.7582
69.3953 46.739 32.8882
130.755 36.9906 81.9562
84.533 52.0572 61.9557
69.6673 122.778 18.0642
161.328 31.7621 27.034
20.3329 177.516 103.151
33.7815 210.106 86.2255
61.0976 100.161 52.9602
66.6044 63.7667 60.3299
92.3484 30.5352 20.8129
70.5776 110.562 53.6385
83.7571 54.5557 70.9614
94.5582 72.4197 87.8905
93.9039 49.169 72.8232
7.61893 154.592 106.555
93.2546 84.0193 89.0878
146.138 48.7222 95.0265
84.3037 133.854 3.41413
56.5531 98.2176 43.7481
66.9762 74.7682 67.8592
56.5586 108.535 22.1675
78.3994 48.6733 54.555
17.3571 194.036 39.1737
82.7422 118.861 60.4368
16.1651 194.319 59.3434
89.0015 31.9478 37.2749
11.8742 182.236 102.114
80.6644 132.056 26.6465
105.118 95.2647 100.1
64.8435 83.0135 65.4319
74.7422 41.3414 26.043
150.033 33.0011 68.5398
75.8936 86.0255 75.4922
61.9644 60.1113 12.5869
140.454 42.0876 88.8012
88.0359 33.5224 12.5372
100.43 29.0123 45.9287
96.5562 141.381 4.51871
24.2795 200.882 95.9341
69.9501 88.4814 68.1325
3.36767 190.963 48.3457
146.022 109.785 114.212
61.0087 66.4858 5.15272
11.2414 154.658 57.4284
105.648 106.228 96.3644
72.7126 107.352 63.3428
92.1689 140.124 14.5584
14.5787 196.363 92.147
104.044 34.2926 58.6184
65.0442 58.2842 45.6283
97.1386 109.93 87.9907
52.1376 88.868 38.3856
74.8843 42.296 36.8923
9.25859 190.557 43.4102
5.11788 200.95 60.7745
119.703 122.483 95.3298
64.9551 116.866 38.1025
115.196 55.3766 89.8804
111.731 45.3904 76.2977
80.2253 110.62 63.0236
56.1554 101.178 3.67055
67.0778 58.4235 5.35954
3.92994 142.43 93.9928
104.938 116.099 88.9231
149.738 31.3699 6.54315
102.718 27.9779 22.4304
69.5924 69.7724 65.9303
163.814 62.1082 103.125
86.3634 133.074 47.0712
75.2549 55.1814 58.0976
121.461 87.7366 115.737
2.86341 165.914 55.9209
164.166 36.0973 62.8506
152.801 26.0431 26.9635
115.322 48.8745 84.0417
25.3033 160.52 55.5226
60.2612 108.224 40.1969
15.7562 161.809 47.6669
153.97 5.87021 40.1844
18.9821 186.991 99.3694
34.0988 178.814 94.9522
111.395 106.835 103.85
79.8534 130.47 14.2518
90.8738 104.109 83.1701
14.9857 139.836 59.7993
26.5355 207.301 91.852
98.1758 27.6398 28.0966
16.7961 159.197 98.9258
155.287 86.3177 117.469
4.80816 145.671 54.1575
122.134 27.9604 7.09721
31.3692 188.115 34.9681
4.04587 171.892 46.7217
131.378 77.4133 115.913
22.2175 24.433 37.4068
109.894 35.6864 68.974
80.4229 80.9781 80.5741
74.2625 51.8234 3.47631
88.7174 34.1427 248.297
112.427 92.2567 104.955
75.3934 120.96 44.149
9.18186 155.302 64.1408
29.4725 198.916 43.236
157.157 40.1269 75.4189
85.1352 135.622 15.5813
84.0679 35.6189 41.5303
115.037 23.8807 40.1187
138.307 76.7156 117.866
66.1033 59.5605 54.3976
54.8598 85.0436 47.4385
56.6259 177.643 42.9981
62.9774 115.037 15.4771
28.1395 195.365 35.8679
17.4294 171.11 38.4212
76.4113 128.138 32.5766
74.2972 114.759 58.3556
53.0625 77.4639 34.9
57.3236 91.8262 50.4168
142.213 31.8769 72.2476
132.61 25.5555 13.0802
82.5548 115.743 69.0308
114.107 39.6998 77.4319
21.489 193.12 34.889
12.136 188.633 90.2748
17.7452 186.607 37.282
165.968 50.6839 90.1879
154.74 37.6642 2.8267
97.6618 28.8391 15.8037
67.295 103.921 57.2768
11.4776 186.803 37.4625
149.232 28.9271 58.3381
129.123 23.6804 34.3004
76.3756 67.4962 74.1817
107 146.126 4.05287
13.5736 178.754 37.504
11.3546 197.535 52.5036
22.913 148.45 70.5303
165.497 43.9074 75.4708
89.4935 139.626 23.7277
107.696 63.0725 94.0349
116.918 22.3155 28.7794
103.019 46.1003 75.1061
47.6967 100.809 10.2518
137.108 27.2691 4.11681
137.968 37.2962 82.4017
90.0855 55.6804 78.4609
78.3073 96.0543 75.4139
78.7348 38.8476 41.7158
102.254 130.745 146.46
87.4773 43.4052 63.3582
60.3127 77.2601 58.4241
13.5717 174.815 104.162
140.254 22.7608 30.7169
65.6587 120.278 28.0373
36.1871 205.91 90.1832
145.164 25.341 47.1781
71.6218 125.048 26.7297
54.9605 69.1272 28.217
29.3109 175.832 34.4756
75.821 46.0444 7.97434
49.6765 155.288 45.2895
67.8391 48.8611 23.8295
3.36387 193.483 53.6354
57.0692 68.4071 39.2831
21.5376 184.41 83.3223
100.29 95.7051 94.0028
127.321 54.476 95.6545
78.8865 37.1617 31.0828
84.5164 111.96 75.2743
64.281 111.889 3.52268
105.778 25.2747 14.8845
2.92985 135.415 65.9279
106.491 59.5237 89.1938
65.822 52.8706 14.9907
130.719 110.194 115.067
102.055 39.1923 68.2832
64.4149 92.8028 63.5049
147.533 38.4167 77.9453
79.6105 127.305 3.18287
85.0602 86.922 82.2563
52.4951 72.6214 21.4735
73.74 60.0074 63.5053
50.8623 186.099 66.9374
104.599 26.8594 32.015
49.3587 101.28 18.8611
14.7044 154.857 48.2357
74.2584 123.381 7.36517
19.0126 200.48 52.4914
49.2893 208.913 73.0078
98.7981 86.5936 95.5427
116.387 61.7668 95.6128
71.7237 123.977 38.21
94.8914 32.5319 6.49928
109.48 42.6101 67.4171
120.597 42.5475 84.7272
164.011 86.9384 112.838
122.065 50.4468 93.068
56.7416 189.145 48.559
109.919 125.877 78.5294
137.41 57.4626 101.265
120.96 38.6565 75.4439
12.3471 196.404 46.2391
48.6012 157.992 56.3513
49.4535 95.9042 28.1309
132.185 118.22 110.872
28.3252 182.444 86.2065
29.8806 194.282 65.3264
126.687 124.025 102.515
73.0747 97.2832 68.2772
70.5767 73.3993 147.669
123.453 61.3699 101.443
107.508 52.2029 80.2412
148.46 43.2864 86.797
141.562 150.673 150.362
8.25405 159.67 48.0154
38.2435 211.688 75.2969
90.2245 93.5706 85.1647
59.9178 68.152 53.6811
127.796 22.6529 21.8372
134.684 21.8089 23.619
60.4968 57.8231 22.4198
141.985 24.4634 15.4604
27.3057 182.034 31.0457
44.4426 194.615 45.0478
130.701 24.779 58.9476
110.822 115.442 95.6849
108.148 26.4199 39.4808
43.468 151.277 45.8569
2.63412 193.155 60.7601
120.438 27.2075 61.1463
148.688 86.4675 272.754
32.7483 181.092 81.9356
89.813 127.559 59.469
100.733 146.986 8.91095
44.0261 209.221 83.3184
142.105 28.9372 60.4012
152.18 201.732 230.203
121.982 34.6885 66.0098
21.5508 136.32 57.6004
58.4027 169.103 44.8497
44.7793 212.505 69.1666
65.2336 54.035 38.2377
166.398 9.61728 214.332
56.9126 64.9685 16.4439
15.5272 164.454 102.053
68.189 118.574 6.94433
131.74 45.8147 90.7992
27.4388 207.404 62.4372
79.9937 123.874 51.4206
135.841 106.573 114.972
127.04 30.2682 64.3803
62.3524 54.4909 31.8229
12.4445 200.867 65.4466
108.526 152.433 15.9234
97.7403 115.464 81.4234
74.953 127.952 17.6776
94.0546 28.5338 33.7637
93.4475 36.1612 54.9305
100.813 30.4966 7.77089
163.868 95.7541 109.464
39.1399 188.993 79.8987
24.3446 189.696 32.3611
12.7371 151.687 69.6518
114.035 87.522 109.539
57.8185 62.8106 32.1512
160.2 53.6811 94.9052
17.7729 140.531 48.97
2.27767 173.551 60.6869
48.5041 78.2652 16.1462
3.6802 185.046 60.2097
131.832 32.8871 73.9729
137.275 70.2291 110.41
95.0956 128.358 69.0715
122.612 77.1271 114.133
35.7556 86.077 30.1488
57.2849 170.642 37.0118
15.1619 149.905 93.5
89.7059 123.597 65.4034
26.6021 152.857 62.9791
17.3058 148.197 200.143
75.0417 43.6865 16.2713
3.9278 159.431 68.3871
87.8058 38.5552 51.0017
28.1904 147.277 65.1254
45.7698 89.432 16.0287
3.98404 164.866 49.8471
19.9825 176.184 33.2527
89.5606 189.816 195.188
120.032 116.619 105.264
20.0092 153.135 56.7159
107.01 81.2976 102.982
123.447 110.482 112.965
12.1851 184.444 80.254
13.155 145.134 51.0716
112.371 151.534 5.05662
116.37 105.868 110.296
85.292 32.6333 26.2632
164.697 74.6343 108.905
90.0935 63.8019 83.3038
158.509 29.9648 53.9025
83.9268 128.205 55.9191
141.326 150.439 155.229
55.9069 162.102 53.4975
147.505 25.387 20.7163
12.2812 198.106 75.9981
99.0529 36.2209 55.6425
165.158 111.913 112.07
94.5121 41.0484 67.5284
72.1062 52.8198 50.7686
5.14626 193.976 73.8771
136.339 64.471 105.698
80.5127 130.949 43.0777
134.323 28.8788 64.5105
3.90597 164.864 99.5003
12.2669 138.305 76.515
57.3628 179.484 14.0625
27.3838 191.954 98.4156
69.025 115.682 46.2145
96.6635 58.8414 84.5986
43.539 175.982 38.2927
165.635 34.8705 38.4483
145.516 73.329 116.151
161.765 223.954 165.848
102.182 76.0185 259.14
130.252 26.7535 4.47481
126.744 43.6406 84.7864
9.75997 172.464 42.9849
9.13596 165.678 44.6429
98.0622 103.835 87.5607
4.11719 177.401 66.2591
164.873 38.4741 18.3536
37.2799 193.14 39.1234
3.56467 186.413 67.8418
60.1209 196.112 53.2096
94.5301 121.372 78.4339
21.1731 182.725 32.0503
101.495 53.476 81.5646
33.7948 194.765 94.176
140.684 101.675 117.705
44.6059 59.766 257.776
91.1085 135.985 1.97435
9.05918 196.066 58.5605
32.5144 189.018 76.908
16.9814 203.551 59.9508
119.458 149.791 2.07329
107.734 29.0137 6.67772
115.307 24.9185 9.53412
92.3336 98.6058 88.446
149.239 135.003 99.0104
21.2767 194.742 94.8057
168.859 81.6388 108.789
3.24771 170.437 102.615
49.4321 82.9768 26.2563
2.54754 179.99 52.5044
31.7644 79.5541 30.2174
47.6563 82.2348 9.15328
44.332 193.1 53.668
156.249 31.8021 14.6605
153.619 53.4944 98.0412
156.285 28.9024 37.4577
163.181 40.801 7.45994
37.0588 96.4989 17.1771
19.4203 199.1 44.1897
130.37 61.1862 101.164
81.203 36.9684 18.6274
99.2588 76.094 95.2376
160.764 104.652 112.55
35.4641 183.684 33.0938
125.977 130.46 94.235
135.965 17.2495 102.448
4.14272 157.427 57.3257
35.5313 164.402 36.6026
2.39181 187.45 76.695
146.145 25.0075 37.7391
150.128 61.6062 107.077
39.7226 59.8904 26.7198
5.16038 122.317 66.8612
117.015 34.0095 63.3406
26.8892 186.298 99.2703
92.4885 31.2516 45.9153
49.6333 157.136 36.221
118.626 22.5933 15.8428
37.3618 141.173 39.7844
124.625 96.9537 116.876
112.87 31.4992 1.70193
161.11 46.7113 82.3735
84.1125 38.9253 5.73967
42.9611 200.818 47.9396
158.988 135.122 98.2631
55.3115 204.568 72.7545
92.4218 112.465 73.2331
2.75478 150.75 70.1631
79.9927 60.5556 239.441
123.019 23.5734 33.3212
110.96 23.6397 27.6051
33.4347 166.532 45.34
32.3501 206.191 27.2293
9.50302 164.115 78.3592
49.1392 189.122 42.3847
153.051 129.679 104.32
46.89 190.46 82.6066
164.847 139.249 92.6221
120.806 69.3792 106.691
134.86 128.326 101.961
33.6109 155.632 51.4282
168.461 98.9811 105.975
28.7574 201.99 90.1241
126.531 35.458 73.615
163.51 34.4871 49.1852
6.40194 182.794 49.9854
47.3943 141.717 223.106
43.1138 156.518 48.1346
123.812 25.0368 16.781
109.951 28.3732 18.1177
52.7131 202.842 56.2709
38.6789 158.724 51.1236
82.0566 71.2352 78.0424
3.29982 170.676 82.456
32.7658 41.7704 29.8461
136.963 49.1772 95.2284
110.603 29.7814 55.6015
56.1049 163.297 39.8782
104.246 149.194 27.1743
127.393 23.4837 46.9692
22.5937 144.401 46.0111
152.22 29.2291 50.7055
41.1515 216.017 142.486
124.342 156.513 7.56935
56.3636 196.457 45.8814
150.719 152.381 3.90302
7.0769 186.421 84.8491
103.788 134.405 70.4561
26.9672 165.004 48.9548
23.1135 172.474 98.7553
19.1952 196.465 75.4011
37.7958 2.0224 64.882
33.5529 204.54 64.6179
59.9265 64.6181 45.8522
110.123 25.9701 49.5723
40.2368 198.445 61.9409
133.764 23.6618 43.8948
98.8723 124.906 72.09
45.6079 71.8904 38.9397
33.9079 160.035 54.2619
30.4121 158.76 41.6743
11.4482 145.951 87.3665
154.142 46.2004 88.5151
6.48298 197.33 69.0412
143.127 87.2017 118.517
25.2307 10.5922 37.4763
29.519 197.229 94.4219
159.543 96.1253 115.27
31.1154 50.0885 38.4612
16.6416 159.105 88.7351
3.67969 149.491 98.1348
89.2955 139.554 34.1771
41.9133 192.75 89.4838
4.39192 98.5806 62.6149
27.9279 140.704 55.7111
32.9546 198.122 70.2233
17.7136 144.664 67.5277
14.7739 173.922 19.5482
115.302 156.26 15.0637
33.0427 201.495 60.3955
144.252 58.4143 102.521
3.90912 178.471 80.491
41.9068 165.181 39.3077
17.1292 179.592 96.4301
36.5843 174.028 39.2528
22.4162 177.403 86.6679
8.9523 147.309 67.2603
41.515 150.489 40.5367
39.2208 179.059 42.6553
154.079 93.8103 117.937
44.6323 150.023 36.7536
88.9813 21.8228 9.61731
120.844 24.9475 47.0088
26.6361 199.922 68.9398
38.2662 54.022 20.2836
168.923 103.745 111.928
18.2762 33.9971 9.6563
111.81 124.91 89.0047
59.3442 183.266 46.6707
155.971 69.422 111.337
44.9218 205.139 80.8094
21.017 199.391 68.3351
91.745 117.757 74.6023
31.0932 5.45652 28.8826
135.933 136.809 93.2318
158.737 187.671 3.6501
26.4428 200.004 51.8156
73.3004 57.9278 1.38302
58.713 171.874 51.3866
130.842 20.35 66.7798
51.6709 161.075 41.9802
33.036 145.901 35.6188
7.53745 150.932 94.0811
45.0155 21.6345 79.9054
55.6464 75.3848 47.3466
137.57 23.9279 50.1185
6.94525 53.2716 84.592
46.8088 95.3884 3.65874
40.1459 185.637 35.5183
62.0991 193.604 58.9083
9.91371 158.713 93.2741
30.492 140.989 45.7703
34.8225 157.404 39.5881
5.39674 163.518 81.783
14.6152 169.27 97.0867
60.254 182.595 53.8142
2.37609 151.995 91.3828
29.7248 205.853 52.6932
9.35844 158.534 98.878
35.4704 198.293 48.1472
167.118 127.718 103.101
127.637 159.406 13.6133
15.9284 168.226 82.5295
128.14 71.2145 109.587
6.2558 180.312 93.5804
22.6023 177.221 91.4122
88.6771 173.788 211.662
57.4604 202.932 65.6846
158.314 37.9885 64.682
169.071 71.2156 106.108
25.5686 181.139 98.2101
41.4937 151.142 32.3101
7.65459 184.265 77.1185
27.19 43.2857 35.1007
3.01517 145.768 75.373
36.1835 143.475 44.6543
32.9359 223.889 68.8844
18.6575 162.127 85.2233
40.4293 201.694 88.4489
161.087 116.374 114.183
60.5034 73.5277 1.34675
113.343 32.4073 60.4088
144.55 157.784 9.54156
31.9459 145.334 56.572
92.6754 134.025 53.263
25.3501 153.378 52.1674
166.577 88.847 104.084
137.279 162.389 263.161
9.08717 164.631 89.6861
7.01743 157.661 88.9254
3.73091 138.656 72.5925
6.11312 139.054 83.4361
118.884 98.0916 114.556
53.7874 134.814 95.4344
50.128 190.399 54.2879
52.4356 201.969 78.1299
9.68794 144.111 62.8148
24.4984 159.982 44.8503
81.3922 64.2434 253.737
2.65085 153.274 78.1741
62.0496 206.963 31.3229
21.9268 142.576 57.781
156.249 122.819 108.81
31.9027 157.706 22.8508
42.2099 192.25 74.6297
66.8566 203.995 40.7533
166.509 120.52 106.813
49.4932 179.412 39.8959
82.7868 24.3068 8.23102
48.4277 86.7843 3.06521
14.0198 148.777 83.2514
32.8422 142.479 50.5014
41.2273 199.333 67.9662
36.9651 199.13 66.6963
141.937 128.842 104.086
168.568 59.8209 96.4308
38.7075 29.3828 80.0181
99.1612 135.318 59.3791
20.4453 95.6559 121.303
17.2959 152.458 79.2056
40.535 67.0657 31.3023
101.331 104.322 91.1136
40.9861 171.211 41.2448
93.5303 165.322 19.3654
49.6841 193.058 75.5069
3.61476 219.746 1.43412
11.9651 140.46 70.4284
32.5508 199.704 76.8629
1.78364 173.93 71.2013
101.681 126.079 79.0841
24.9637 154.932 45.2677
55.1616 81.0375 1.31017
7.67675 181.236 43.8258
135.195 157.035 5.68283
76.4035 32.7333 3.70453
144.316 32.0095 1.38828
103.815 148.818 18.317
130.233 178.453 89.9797
44.3817 164.441 56.3227
3.38302 189.405 13.9089
31.1945 190.746 82.1485
2.70195 125.871 5.56378
161.696 223.328 155.613
38.9358 187.31 88.5013
55.0751 197.083 73.6427
2.62071 148.195 84.9375
158.57 105.624 117.964
45.4438 199.023 64.0603
159.668 67.5999 274.5
30.6822 190.85 90.2909
32.2654 152.587 40.2294
47.1998 196.725 80.4305
6.81237 174.669 90.9305
3.6911 119.432 76.793
13.5891 159.205 149.445
157.228 118.722 127.807
84.9288 133.856 34.1532
26.2877 67.7479 225.597
13.9126 175.006 88.6174
67.9146 199.486 37.1575
139.068 162.187 16.1398
9.03547 166.452 98.7891
44.3918 185.091 42.0311
106.929 128.674 82.2283
125.098 137.245 85.3927
92.874 37.9032 1.1236
168.196 134.004 97.1401
155.144 144.555 1.68395
57.1052 178.62 58.8904
168.972 43.2309 61.6084
7.09267 149.41 78.934
140.261 143.046 87.737
49.2091 169.629 48.5354
148.733 147.853 84.0629
12.6765 165.961 29.3429
21.5105 38.4914 193.491
9.451 178.451 85.256
3.13139 166.523 94.1351
55.918 192.353 71.6475
2.8606 109.582 70.0026
62.9735 175.818 24.9528
24.2385 167.577 44.2211
138.371 172.123 92.7948
31.255 150.709 46.2234
7.96561 121.502 13.8731
11.9684 171.067 91.3926
40.1751 98.2241 27.3901
54.507 174.515 51.3105
157.864 151.605 6.17255
119.315 130.636 85.3789
37.7537 200.085 52.1809
162.7 170.177 47.0929
9.56356 160.402 82.2426
51.5228 166.05 46.3884
95.9481 185.192 155.055
169.706 54.2853 87.6779
25.7151 215.71 65.0848
7.93377 172.375 103.646
98.3795 146.428 24.3278
169.129 54.7168 81.799
5.9825 178.503 20.6047
56.839 198.319 66.4489
7.07986 156.738 79.4779
130.746 162.016 20.3915
51.7308 200.897 64.8156
37.2816 198.423 86.0035
39.6011 155.518 42.4066
26.7637 202.084 28.8458
165.898 145.062 81.5907
44.4684 202.947 72.6047
29.9868 68.9158 226.505
165.359 168.929 228.204
148.611 142.446 91.4913
56.5099 193.17 59.2376
150.334 161.63 17.5335
143.459 150.636 1.55554
49.475 202.394 74.0184
37.1023 201.061 60.6538
23.2406 145.553 60.9731
