ply
format ascii 1.0
comment Created by Open3D
element vertex 463
property double x
property double y
property double z
end_header
28.5427 156.828 148.499
26.1812 89.2011 143.907
12.5988 97.0233 106.792
80.4459 71.8754 143.019
58.5998 83.0171 171.326
25.2527 147.456 103.882
70.7945 113.458 167.091
39.1598 167.487 137.868
55.3358 156.425 96.5524
24.2888 122.569 103.608
28.1121 150.763 158.71
34.9802 148.859 92.1344
16.4306 111.179 87.6879
90.7042 129.593 152.384
15.6456 105.435 140.926
58.7789 72.0467 90.6202
12.5575 134.056 147.245
16.7647 133.479 105.389
31.2427 160.978 140.228
12.3961 108.824 103.851
21.9311 110.936 97.7089
43.7329 165.836 115.735
31.2308 78.4994 153.501
80.1669 76.1952 150.643
65.2913 162.212 120.692
47.0365 95.5386 78.9907
40.2766 165.879 146.721
50.2852 150.82 90.1452
72.0268 83.3987 166.9
30.6605 66.9547 110.701
45.5876 158.623 99.3139
68.2306 85.7745 152.724
53.0067 148.13 170.787
36.5075 124.545 175.422
20.0957 121.987 166.617
17.0722 91.964 116.547
49.3377 169.59 140.18
13.5059 145.859 135.129
12.6944 82.6722 118.774
28.1547 120.851 167.25
74.9138 160.227 120.202
12.7374 138.186 138.915
51.5197 106.538 174.28
11.9438 113.743 154.717
27.0521 91.6702 86.1983
25.7257 78.5363 140.682
32.9198 64.8937 120.289
14.4047 112.93 96.062
37.8002 86.1419 157.739
75.7975 93.8219 170.908
36.6937 165.704 118.921
78.7275 120.96 172.111
11.7442 118.795 107.251
46.3937 98.6111 168.762
12.0193 125.769 110.764
12.838 112.007 112.969
63.166 61.5726 126.188
36.8355 157.982 157.916
60.0937 137.542 97.2193
40.0438 94.7421 170.994
70.971 166.207 134.507
52.134 93.0306 161.547
43.3793 149.877 169.601
28.8441 141.723 165.944
22.2708 146.107 132.883
16.181 110.242 162.427
49.2853 96.6022 178.19
92.6208 76.1108 118.675
25.9153 127.606 86.5872
64.4645 151.8 96.776
44.3544 65.6229 101.147
39.7154 89.007 164.945
36.8825 70.1765 146.897
24.8109 72.3163 114.142
56.5989 74.2293 142.849
22.9828 143.71 118.608
11.6171 110.539 139.234
68.0847 163.281 109.087
11.9698 142.995 113.095
58.4896 169.495 139.945
27.3405 82.293 90.6468
86.6155 105.862 84.4114
30.0657 83.0296 158.861
81.0252 132.652 166.006
81.2044 73.5514 103.958
53.5627 78.9946 151.356
44.9784 159.339 160.255
35.6696 75.3284 139.856
12.4821 104.071 95.5354
14.7719 106.844 150.291
13.7186 143.159 104.332
28.2495 73.6409 100.348
20.045 142.345 157.569
38.9309 143.957 88.9314
87.245 73.9701 134.865
76.4918 100.477 99.8175
12.0399 125.477 152.247
36.3528 150.959 165.472
56.7317 104.613 166.843
71.7131 119.962 94.1419
74.9697 131.153 172.466
39.7065 70.5423 95.3998
23.6292 101.663 84.6459
36.4953 146.089 109.044
66.2472 75.6619 137.637
86.5821 124.213 165.918
20.473 76.208 131.769
51.949 159.496 104.536
18.8564 132.081 94.764
46.8756 81.7023 169.187
57.1125 131.513 80.4467
62.7551 89.4591 162.079
20.6679 150.3 145.59
12.1142 82.698 141.717
67.0547 101.774 160.554
12.512 126.745 100.546
44.6526 83.194 151.392
30.4245 75.0548 147.64
41.7497 133.549 177.632
61.8554 76.969 149.902
66.375 89.8086 172.836
93.6412 124.403 145.141
13.133 99.2714 144.173
77.7586 66.4387 110.191
66.9199 142.179 86.6122
24.7001 138.521 106.35
87.9552 95.5264 113.447
59.7805 166.825 124.847
10.7447 148.233 119.83
79.6928 68.5153 133.497
33.6062 91.0976 162.371
71.8907 165.356 126.671
53.1289 168.241 118.777
30.0592 101.973 155.493
18.4444 122.413 145.265
68.3626 125.591 176.227
41.2726 78.3459 88.8683
61.8715 77.4749 163.498
43.2405 61.3808 118.272
35.2236 153.352 118.889
41.7746 102.146 174.59
27.3344 131.024 166.282
32.5453 83.5792 86.2214
37.5399 95.1177 78.3037
63.4236 155.18 165.202
70.5956 76.327 97.0055
27.7885 74.47 134.372
11.7417 132.222 114.258
20.4853 136.791 131.177
79.163 148.253 94.5912
40.3391 70.9792 156.02
50.2612 169.621 128.712
29.5204 157.565 113.157
64.0091 144.4 96.5674
14.2891 117.566 122.587
70.7837 71.7965 151.956
12.5547 100.21 112.605
16.7769 121.266 160.067
73.3817 151.861 161.895
11.7174 123.578 119.272
12.5602 121.3 92.884
53.0837 77.9638 94.0695
73.2527 113.604 89.6021
20.641 130.91 157.617
51.9182 156.133 164.631
23.3704 76.377 146.763
11.9064 132.203 122.21
59.9433 116.636 179.476
21.8149 95.6137 101.78
16.8636 84.1807 150.437
88.3717 93.3326 89.4562
43.2238 76.1807 162.499
89.8105 120.146 160.157
30.8827 165.116 123.956
75.9802 97.7748 153.664
52.0592 119.943 173.126
58.96 136.37 86.7846
30.6784 94.2255 169.178
53.289 75.9039 162.81
25.8833 141.019 93.0366
58.6396 61.2121 119.18
33.8506 136.133 96.0306
92.8988 77.2061 127.951
79.8945 105.771 105.414
39.6728 85.7718 84.3934
78.9267 156.319 144.676
84.8198 99.7476 147.061
53.2488 78.2053 84.0309
92.0068 103.04 91.2804
27.7477 151.335 110.049
52.5179 87.2754 79.1867
63.7299 97.722 77.3093
63.01 74.2697 156.972
12.1311 124.902 142.62
83.7862 84.2293 154.808
70.2417 64.6246 134.182
90.2158 96.5611 159.081
78.2775 99.8058 160.955
70.5616 164.969 143.399
38.729 139.671 101.563
37.583 64.6988 106.071
13.1674 117.219 137.858
27.0015 134.473 91.0758
27.1966 99.0673 148.993
40.7218 166.906 128.987
11.5645 138.625 128.778
13.058 96.0855 137.496
31.0375 157.493 129.2
12.1198 89.6069 96.7676
88.5573 128.905 89.3277
42.4133 156.268 111.859
38.8077 117.919 77.9169
17.959 77.6879 117.211
85.9677 107.401 151.24
49.9744 163.61 111.02
76.3867 106.259 90.9724
51.088 60.0349 115.559
92.7281 107.561 133.984
58.0562 62.8928 102.264
64.2424 167.496 149.068
15.942 143.255 147.204
81.5325 150.099 155.243
72.7062 111.503 76.1372
64.2246 63.486 141.833
19.0731 134.594 161.641
17.3443 75.1537 107.4
83.4838 121.488 84.664
55.9537 95.6585 77.2515
22.9089 79.0563 103.764
11.2874 120.429 129.552
26.017 154.309 123.066
72.1101 65.9929 106.401
11.128 90.0628 147.073
72.0703 68.9046 100.105
57.12 162.375 112.918
76.6879 88.5728 84.8854
85.5798 96.2833 127.904
78.8672 149.737 103.468
52.9521 130.549 178.952
60.7119 170.115 131.396
46.4048 66.3483 141.617
92.2559 117.285 137.873
38.2633 63.6794 114.124
42.5089 66.5479 134.732
55.7379 67.4774 149.231
80.169 79.3718 97.4371
24.3113 110.881 83.6707
83.4525 141.383 158.697
46.5663 125.786 177.536
70.7353 141.905 167.787
39.787 162.933 106.534
81.8319 161.078 130.954
50.4987 121.53 76.5524
25.4938 110.753 156.301
56.0279 144.91 95.0281
68.0251 89.5164 81.2127
66.109 112.356 85.7629
21.1446 11.7821 33.3
49.1174 125.685 135.329
12.6923 130.366 133.353
39.7439 62.4076 126.088
54.2698 126.463 89.8738
75.2597 158.955 105.087
83.3276 105.979 169.311
47.1281 71.3848 149.121
67.372 146.234 104.047
54.5154 71.8739 157.503
88.1654 148.671 118.976
71.2402 138.048 98.1838
40.8653 112.839 177.284
47.1648 141.138 96.0448
89.0808 146.361 137.623
55.7027 64.0274 111.892
48.5205 135.086 80.6416
94.1932 93.0444 98.5053
22.4083 155.801 129.305
89.0876 84.3632 100.512
52.7674 65.9583 125.461
30.2011 114.71 79.665
91.1712 139.928 146.642
12.5005 77.4936 126.975
24.0315 119.392 85.4331
57.3362 114.356 76.0808
43.387 109.976 169.812
34.1364 134.213 174.518
97.0201 94.7767 147.35
80.0522 113.753 79.9411
82.3873 89.0393 125.546
24.9993 22.0273 34.4529
13.9609 100.352 85.2872
42.5132 74.1966 103.198
34.8134 76.6435 91.6147
61.4641 66.037 135.132
64.8204 108.751 76.4573
87.3622 156.21 123.781
77.3491 105.539 173.175
86.7757 114.801 166.17
37.0933 141.724 171.711
82.3936 95.3355 83.2934
61.4644 156.388 103.81
93.2869 137.611 102.721
62.1774 122.668 90.0946
33.7974 107.506 170.52
64.2274 76.1981 85.6606
30.3572 153.066 98.3541
82.4886 158.827 113.963
60.4056 84.3977 80.5247
47.2163 111.255 76.8392
77.6742 92.8613 147.304
19.1349 123.906 96.2207
73.5622 62.6232 126.198
79.1604 131.266 87.2094
72.9478 148.735 92.5829
44.4445 123.54 81.968
51.5439 62.4259 102.969
84.7557 84.4654 91.7505
26.0992 68.7152 127.523
45.7785 61.9351 109.051
56.9047 106.239 74.7348
77.1291 140.358 87.3875
16.4639 79.9223 99.4689
47.3885 61.5771 126.599
52.483 150.409 103.647
71.9912 97.7034 174.127
95.4431 131.449 142.07
82.8781 91.3693 165.446
48.545 132.328 137.605
33.5804 69.6206 99.6405
40.2852 106.882 76.6776
36.0028 155.449 97.1201
94.8682 83.9606 137.722
68.2326 83.6182 139.884
26.3409 131.049 171.435
21.9016 94.6895 153.983
64.1728 68.6006 97.5353
53.7884 113.272 180.854
44.5683 119.606 177.464
67.2265 152.122 112.868
33.4649 132.185 88.1615
34.7192 66.823 131.187
21.2177 92.7391 163.042
71.4568 99.2405 79.9684
68.6157 78.921 160.034
40.1064 128.924 80.3288
86.8877 141.52 96.4086
91.7404 112.278 158.649
78.7736 153.638 125.665
80.3227 94.3131 105.864
87.0418 105.662 161.167
97.6091 111.607 141.736
67.0281 129.562 80.507
43.7088 103.776 82.8463
88.2317 133.319 158.401
78.8861 139.89 109.195
100.53 127.761 134.108
74.1929 111.996 177.94
33.4857 124.802 81.238
100.424 114.708 131.604
63.5279 66.8637 107.414
100.848 103.283 131.361
96.6449 96.8578 115.455
51.7485 138.787 97.5806
67.2912 118.078 175.053
86.0133 154.669 135.261
66.8452 63.0787 119.603
22.6772 17.6833 27.6594
14.1417 92.2216 129.324
77.4121 80.6843 88.3061
67.4829 113.557 179.956
86.7903 80.2826 141.104
91.3193 140.94 114.739
30.8005 69.0437 141.079
21.6788 154.669 113.515
57.864 98.2355 178.037
97.0918 85.9752 108.135
88.9123 148.355 128.862
46.4185 79.0443 84.4296
91.1478 87.8584 146.61
30.8052 101.155 79.7769
62.6548 99.2808 174.819
100.821 104.434 120.773
79.7057 128.845 105.637
99.8024 123.019 127.056
80.7775 90.847 135.172
10.6468 82.6695 102.306
70.7394 131.31 102.117
99.1741 93.7966 136.721
18.001 87.4051 129.628
14.1415 81.9002 94.3755
64.605 162.967 159.457
62.6532 125.16 83.1368
74.6823 97.4915 91.3766
45.3546 148.592 102.205
34.9206 108.262 79.5263
65.1021 62.4416 113.833
103.214 114.979 122.113
56.3624 146.035 140.262
82.8261 120.046 94.9648
54.5873 139.488 84.127
86.2392 150.902 104.529
75.5033 81.4331 113.817
64.6605 136.769 174.491
57.7292 120.664 77.9549
75.3175 66.8877 118.86
25.0679 69.757 121.494
63.5126 123.429 77.1862
70.4575 79.7191 86.0714
83.7735 88.095 117.296
55.5082 136.079 174.88
18.1356 104.724 132.349
13.0385 102.348 125.465
98.3586 103.694 142.414
98.8323 130.112 105.234
78.4023 84.085 138.504
87.6304 78.7964 109.337
20.9925 114.491 141.268
82.3528 71.5826 122.011
15.44 6.47311 41.4101
82.9839 112.658 94.8476
74.6449 100.745 177.91
72.2193 76.2287 117.422
65.2846 133.427 91.8738
58.5577 121.385 133.071
100.202 123.664 112.007
81.8313 140.902 89.5671
59.536 159.57 159.526
87.9268 149.244 145.81
60.7795 134.558 140.505
17.3036 96.5922 161.431
54.5732 145.808 133.185
55.414 62.4922 133.168
58.0889 169.624 160.005
97.8806 131.737 126.309
84.6047 76.8256 116.143
78.1627 131.649 98.3205
37.4222 68.993 109.82
93.2179 120.175 152.074
27.4027 50.1566 46.306
82.0457 146.689 114.973
97.1192 138.044 138.098
77.139 72.8931 114.16
85.5859 118.82 146.41
89.2444 148.992 112.196
77.7571 75.2314 123.384
60.081 100.626 116.403
69.3811 122.743 76.383
55.2228 131.005 126.707
98.3813 97.8998 123.198
30.5994 109.937 59.0071
11.5239 108.454 123.375
98.6663 88.1418 123.277
53.2661 96.1207 131.851
71.0385 156.564 151.675
52.301 144.802 138.095
81.4871 80.6057 125.705
55.3011 95.0434 121.122
10.4139 143.234 122.12
67.3142 131.25 88.2737
69.3051 107.506 44.5675
58.4028 140.438 140.211
46.6397 142.892 134.629
85.4132 98.2158 135.009
57.8569 164.914 159.661
