ply
format ascii 1.0
comment Created by Open3D
element vertex 974
property double x
property double y
property double z
end_header
11.7397 32.1852 267.421
13.8079 59.0539 162.135
14.0108 81.1191 104.229
33.4669 103.807 217.473
14.1133 44.3186 245.209
12.3927 167.303 96.6625
25.9812 31.2392 240.098
16.0899 138.454 89.6455
13.9158 59.4236 133.715
21.3631 76.2203 106.034
39.2761 61.4573 260.931
11.9842 124.92 173.216
19.6829 204.853 41.9238
14.7691 127.525 209.972
25.8607 52.1388 229.392
41.5983 198.486 103.548
38.2399 106.686 226.589
22.5171 133.242 178.892
37.1221 76.792 158.184
25.3899 77.8612 9.67926
16.1329 68.2777 109.255
13.8216 84.021 77.3456
35.5637 159.745 81.6327
39.4735 131.672 148.736
11.1087 107.882 111.485
11.2645 114.426 73.0636
12.7138 97.2698 85.3469
12.4527 138.292 144.896
12.4922 75.4962 117.165
24.2597 88.2012 172.096
33.4106 151.446 106.775
27.4879 72.5089 221.582
37.4058 125.17 154.205
24.5766 60.871 225.743
29.3954 56.9587 263.557
29.3124 53.5245 270.792
12.4841 85.9031 164.239
27.2774 141.49 95.0604
13.0816 165.051 164.717
31.2579 15.6132 244.881
22.7865 13.125 256.038
63.5768 98.7992 122.027
11.633 118.957 116.066
47.0742 63.0075 127.386
35.4551 93.1594 175.127
10.0496 99.8955 263.204
19.5539 109.462 219.398
12.9718 133.488 96.2998
36.878 138.097 139.759
10.7004 76.2426 144.349
12.9292 39.4632 256.468
20.8571 24.2031 147.215
10.7967 74.8765 135.622
30.1216 129.066 4.1341
24.0071 47.0188 150.055
15.4171 38.3578 48.234
11.5062 141.251 81.6795
10.4823 120.621 78.5163
11.056 100.022 215.077
17.8336 70.2293 220.903
20.2533 9.16742 73.9607
31.3834 179.62 17.8571
14.3847 118.881 93.3142
11.7532 121.004 151.386
11.7169 110.834 242.18
41.592 96.0153 218.172
33.5467 166.885 88.9395
28.7181 69.9686 117.175
52.6847 131.65 158.763
53.3973 95.8666 145.461
18.0184 76.9424 216.313
17.8991 15.8769 150.421
37.1772 179.428 104.498
27.1761 72.5977 161.69
38.2198 55.3061 144.352
14.2467 164.406 152.27
16.1206 172.236 253.528
11.9962 116.249 173.881
16.802 128.182 269.355
14.4607 188.612 31.6366
10.3353 60.224 233.202
31.6099 28.5903 41.2442
11.436 48.9769 157.29
17.2121 142.868 96.3084
18.2001 116.41 158.494
15.7522 63.5734 86.0921
30.5819 133.715 84.2112
19.1594 86.9165 19.2954
14.3175 40.7803 123.432
11.1073 158.755 103.626
27.524 186.145 52.591
16.8372 96.5335 164.816
38.7488 88.4032 223.105
51.7228 121.551 132.965
42.4976 150.306 107.495
28.2255 162.384 167.931
65.7343 93.8634 87.5812
11.3943 148.884 88.9208
54.4775 66.0822 105.692
10.8253 115.066 85.0027
11.6389 99.7938 129.444
62.6555 100.769 83.9381
10.0909 128.21 143.941
31.4135 126.301 162.445
22.5033 37.7297 243.61
11.0778 64.5231 225.468
28.5738 45.5714 266.131
32.3713 147.439 168.586
43.3622 113.964 168.595
12.1212 100.394 105.798
20.3308 40.9799 264.983
11.5952 129.346 71.0588
10.6491 107.249 92.4738
18.0805 192.107 40.9803
11.7133 83.4725 86.3674
32.4294 100.388 155.474
60.7824 59.7605 134.569
27.1262 50.7557 173.629
35.0763 64.3207 146.192
43.1904 85.2246 237.474
41.4939 55.4842 130.724
11.1489 100.946 166.409
47.885 170.625 134.289
12.3133 163.374 88.2253
40.4054 178.286 130.443
12.7029 61.5556 113.439
28.9164 80.9177 163.459
11.8135 75.1737 108.556
14.0824 88.2299 98.1855
34.3362 88.7391 167.96
52.6268 104.833 150.795
11.3382 114.407 107.257
37.754 144.806 80.3588
75.1913 116.289 119.067
11.5067 96.74 94.5549
10.1166 102.671 271.176
23.9518 151.167 143.015
16.7317 187.239 136.292
12.1091 66.1441 119.654
44.7987 77.4242 174.394
14.1513 75.5951 94.9001
19.2286 86.1759 210.642
54.1969 77.497 148.235
21.0054 93.4687 170.397
26.4867 63.2279 141.206
11.3547 47.2837 252.141
28.1703 95.033 167.572
22.7745 160.04 85.1333
20.7012 78.5984 24.4605
36.9106 121.056 67.2214
9.97552 73.1756 221.125
41.5288 60.9976 151.758
9.60935 128.872 115.607
11.912 68.7428 265.058
57.0605 124.287 140.859
31.9576 58.4871 116.687
35.6369 46.1945 248.878
79.9536 109.941 119.547
10.958 124.601 102.075
58.5158 119.11 128.077
51.1626 86.7947 133.746
37.1726 74.3479 117.911
34.4317 67.2998 125.277
30.0178 168.876 39.785
12.997 117.143 206.558
12.239 129.532 81.1809
10.0191 81.2442 129.594
10.2387 55.2603 145.394
47.1509 120.584 157.521
9.96147 114.187 99.9763
52.3823 54.2698 129.343
29.5501 131.618 151.313
37.4894 87.4892 265.791
23.4728 52.3523 106.806
37.7398 179.516 115.255
11.1977 75.3141 126.009
17.8473 199.261 35.0215
12.171 182.769 130.465
14.9929 72.3205 85.03
59.0782 125.837 159.362
23.5133 182.487 143.952
12.2395 138.285 177.463
15.094 92.5716 156.576
25.4102 116.028 65.8461
54.7645 61.1141 144.728
37.3158 81.493 170.68
35.2867 197.168 50.7359
31.7858 49.275 110.857
9.80379 106.186 157.728
12.6454 82.5315 157.466
10.9001 111.983 262.729
32.5326 62.6836 131.936
32.1624 152.201 116.998
58.3583 148.085 139.991
13.5072 151.24 96.9026
11.796 29.5359 256.742
17.7866 52.8866 228.019
24.9486 60.0795 133.289
20.7189 44.859 24.4302
41.3123 133.934 73.7685
10.7785 85.9361 220.234
33.3217 168.668 130.318
44.4564 89.729 248.993
47.7138 91.4187 108.703
32.5263 162.799 104.267
67.2121 70.7667 150.023
12.1148 27.1274 149.746
11.7207 62.6862 128.644
45.9262 163.134 148.864
10.0091 88.7688 132.712
11.5907 138.732 238.302
20.9496 190.865 123.111
12.4035 74.0734 162.247
42.2317 73.5432 152.588
16.5657 122.503 67.1713
15.7629 40.1957 38.3653
19.7013 38.4968 135.905
16.5274 35.9486 251.927
60.9809 75.1434 144.54
12.3394 64.6665 257.46
33.6526 58.4218 139.147
18.5882 53.2244 190.532
29.9367 173.116 155.967
38.9834 62.4968 130.363
29.0859 192.884 31.5409
10.7198 95.5644 224.69
27.1574 121.317 153.873
48.8979 185.981 23.2121
38.0541 53.3735 76.0052
12.7327 108.691 170.54
21.1183 119.035 170.477
29.0898 113.646 265.896
12.2717 93.4146 271.815
30.7646 135.014 144.333
24.2469 157.043 78.798
49.0455 164.82 140.989
62.5123 109.214 81.8941
13.6333 109.905 250.386
46.6174 100.732 138.524
26.4667 59.0349 126.288
12.3216 96.7688 122.796
18.93 126.852 5.90845
31.2015 21.9023 45.686
36.1504 136.477 165.903
20.8236 71.8036 272.133
37.4036 68.6248 229.407
17.9497 38.8802 238.754
12.1217 146.499 138.539
24.6214 132.066 90.4344
10.9084 104.841 255.427
48.7103 90.0696 173.736
53.1414 59.6371 136.733
44.0963 65.3803 249.027
42.0078 156.777 157.765
12.8515 171.206 119.256
10.4564 87.0195 124.411
31.2368 53.728 150.656
11.7478 139.567 71.8667
16.3301 57.7852 126.299
10.1019 127.965 162.624
58.6796 161.766 119.168
30.0049 117.327 243.442
48.9386 60.8754 149.077
16.8825 75.2251 76.2847
18.2217 28.9473 41.5094
36.265 206.868 35.3201
31.9114 170.621 142.279
47.9626 70.5636 148.823
20.7031 181.095 32.2634
36.0921 98.5225 75.6873
46.2505 127.795 65.4387
27.4288 57.399 159.185
57.7513 167.532 115.467
75.6704 134.131 140.421
31.8627 121.811 179.234
72.4836 100.037 143.297
42.2627 147.574 153.716
10.0991 115.855 127.919
19.7415 117.608 214.796
42.1806 58.1029 242.232
24.1621 174.372 269.484
27.7364 45.0269 237.713
52.3327 54.2254 104.248
10.8036 135.782 106.956
36.931 109.304 237.565
18.4872 55.8676 156.003
12.5197 118.89 258.329
28.1346 104.919 210.99
12.761 41.729 272.039
35.8384 155.707 163.077
78.3103 113.753 106.364
38.2723 120.631 166.229
46.2041 123.113 162.393
12.5227 51.297 256.633
29.0261 76.859 268.634
37.8804 93.3043 81.6288
65.8648 88.9514 143.569
27.1577 112.836 45.6065
11.835 144.423 169.273
31.0392 48.6267 122.452
12.2976 83.6799 114.812
52.9357 162.875 109.282
46.0338 118.598 140.936
13.5043 194.648 125.24
54.6803 114.693 160.579
27.3529 7.80692 81.2894
12.4894 118.784 232.151
9.9802 89.4825 263.73
19.6269 188.113 266.029
19.9179 123.516 178.883
33.7879 86.5758 81.7707
77.6721 110.571 133.725
40.7822 161.638 109.497
32.6993 95.7992 210.106
18.467 142.84 3.57826
22.2479 45.2748 47.082
11.8579 160.209 140.846
64.9554 98.3369 141.336
27.226 88.7668 213.885
11.0874 146.215 233.4
20.6496 129.203 221.136
13.4565 126.953 92.5837
37.9978 68.1046 85.3961
37.7592 49.5209 125.078
10.0405 39.2151 134.64
39.2118 148.584 86.8874
63.943 115.788 119.146
49.2536 119.756 68.4816
11.5955 116.088 237.484
19.4305 20.8143 257.433
11.5251 118.888 161.074
42.9472 63.0057 117.512
52.9528 76.2538 156.287
43.5953 158.691 100.218
13.2611 93.1474 114.18
30.3649 189.262 22.4933
36.1091 84.1745 98.1769
39.1804 201.038 30.0922
57.9613 90.385 125.883
59.4365 158.383 106.054
12.5752 91.1036 143.628
23.208 103.816 153.904
28.7261 57.7809 238.418
36.0406 53.9238 82.1787
12.0137 107.361 226.986
20.3027 72.8829 163.354
14.6995 144.85 9.28655
64.0322 72.0865 159.002
27.6552 195.821 51.7306
9.97333 74.557 243.895
22.5109 49.076 271.384
42.0525 96.6481 252.44
46.0022 147.642 123.218
10.6244 79.563 227.255
36.4163 23.168 250.837
55.2978 65.7514 116.714
57.5155 96.3351 134.718
51.8472 55.4167 121.997
41.6985 102.075 84.1082
32.186 83.4908 220.582
46.9169 152.045 80.3534
11.9397 69.3655 129.608
52.5401 105.217 159.466
13.3092 88.6364 211.675
21.8154 43.5436 127.545
23.9018 152.921 91.5974
61.9746 126.656 117.559
10.1586 38.7672 147.529
36.3918 88.5485 214.432
13.8727 135.593 10.4061
13.8513 76.0942 271.804
13.3161 139.592 270.988
20.157 195.728 267.219
40.1863 82.9189 107.734
15.2718 29.6556 10.4361
42.8651 173.013 127.557
10.7861 151.241 151.242
30.6468 177.953 136.491
39.7766 110.894 266.496
13.798 220.446 255.613
23.638 109.499 213.916
45.2692 44.5205 75.9248
11.2359 75.4569 263.051
35.4884 76.2964 228.79
31.8621 172.104 110.166
41.4663 175.759 24.3319
11.6761 84.9516 272.013
22.4339 36.1132 51.3945
72.0305 150.437 118.784
76.1042 125.891 108.659
50.2927 83.8217 168.069
34.4527 49.4523 242.362
41.9675 89.0076 258.591
27.0126 158.443 160.921
36.7735 184.155 126.696
47.7162 71.6083 106.631
10.9531 123.547 109.031
25.957 117.224 249.702
61.6421 59.7346 106.138
10.6004 102.087 115.696
54.0528 86.834 144.118
15.8625 100.319 75.3091
45.8007 139.258 155.817
11.9822 106.431 85.9576
52.4054 188.235 100.996
28.227 206.204 47.9995
28.7999 18.6062 258.637
29.7831 179.983 141.279
44.2341 93.4393 157.683
29.177 140.186 68.6996
23.6546 164.909 115.794
71.5504 146.516 112.341
10.524 150.489 107.66
23.818 32.983 248.901
39.9016 81.9176 227.289
52.7842 99.3442 93.0515
31.0657 116.411 169.457
24.0559 13.6799 60.215
64.194 140.513 140.885
60.5752 166.582 125.422
64.991 90.5866 121.728
62.1735 110.255 127.706
42.6052 171.089 143.837
44.6662 171.794 102.753
42.3889 68.8267 158.389
41.0947 204.558 45.4333
71.2691 99.8468 126.889
12.9743 63.2089 97.1869
11.8811 13.0093 84.2199
28.5072 110.185 54.8809
16.0019 170.159 22.5462
9.67317 133.086 122.198
36.7696 107.815 171.571
40.4493 143.395 95.3011
12.5623 53.5663 113.036
53.1817 111.479 138.053
40.3805 98.6301 150.03
41.0295 175.255 120.276
31.9573 19.8527 63.5149
74.2809 90.452 137.12
35.7229 100.07 266.872
50.415 131.916 85.426
12.8671 99.246 140.498
16.2023 66.2347 155.923
63.9858 106.634 144.533
16.1087 154.277 143.707
52.9195 119.436 93.6017
38.831 181.834 143.996
31.0885 178.373 41.6527
44.4048 131.016 166.195
31.0178 187.148 44.1096
15.1947 175.239 89.7899
20.9469 107.006 159.405
25.6027 37.5048 261.595
11.7409 120.145 214.071
51.6916 90.892 119.633
41.0482 102.046 161.58
67.8392 117.408 127.472
58.3349 109.945 133.897
26.9872 190.94 265.517
37.1965 26.2677 58.9722
26.6051 174.913 247.85
21.8096 173.571 198.987
16.8502 25.7956 157.127
16.5195 97.4723 204.456
31.1234 160.975 111.493
44.9312 48.5171 68.0663
16.971 27.4904 244.371
63.3342 153.186 100.43
16.3076 47.6146 119.031
43.9161 91.2794 241.56
39.1434 53.8342 113.076
9.95173 94.2709 254.621
59.4463 131.734 137.22
42.163 149.602 100.1
45.1646 51.6977 123.147
68.2016 91.7162 103.179
48.8118 153.178 154.78
38.9177 162.496 152.058
9.06065 106.241 142.21
66.9424 133.721 125.667
46.0847 87.8121 129.233
29.7668 204.393 186.069
60.5914 61.7117 121.602
36.8809 41.0438 227.447
30.621 47.265 71.7445
66.276 48.9777 100.058
19.2821 30.9093 32.2997
52.8035 170.229 125.035
65.3674 84.6931 164.347
23.2011 45.9267 242.814
27.117 159.782 150.071
18.5308 99.0695 213.412
62.5453 109.688 101.597
40.8203 173.839 110.27
35.6293 136.854 93.4329
48.1304 140.305 140.317
28.4151 127.029 241.081
16.3666 60.9924 224.5
10.0582 72.3116 235.011
12.8753 58.9637 247.102
10.0899 102.497 235.349
50.6577 81.2909 127.138
34.5517 140.379 129.95
16.2252 50.4 237.616
37.5016 38.3898 71.8843
32.4722 35.766 40.1564
33.4516 62.6833 270.107
19.8759 167.997 240.785
23.3381 68.4018 146.742
46.4178 52.4128 116.165
22.54 221.128 181.43
10.1469 52.0906 234.023
24.1938 171.173 30.9252
10.9331 113.51 120.665
46.3369 131.795 131.457
41.86 149.383 161.582
32.5984 41.8327 258.143
38.0672 66.404 252.7
15.7167 185.596 120.51
42.1799 109.67 256.723
40.0079 52.4918 251.688
33.6698 112.188 76.4163
43.5063 136.67 80.5291
34.5363 137.162 173.65
40.516 83.1665 90.021
35.5019 50.2704 261.976
17.8808 117.107 264.826
10.4772 127.728 218.574
62.1612 75.7712 168.332
74.4185 143.278 128.29
26.2981 180.625 98.6095
17.259 80.5959 151.089
18.8776 113.071 225.437
14.1211 110.717 213.229
65.989 70.2436 133.492
50.8364 157.75 137.292
64.4199 103.2 135.534
26.9021 194.968 40.4941
30.9602 110.669 159.197
31.5755 91.0301 73.0942
60.305 114.646 91.1193
57.0804 131.14 150.78
45.6131 94.0093 135.31
28.4036 97.0633 160.984
58.9979 82.0476 120.869
39.7308 199.461 23.0494
14.9578 69.8614 144.259
32.1924 31.2619 251.11
31.6723 57.0124 76.9376
19.5158 114.455 152.286
48.6586 166.432 106.071
67.8564 147.793 103.521
49.914 86.1538 162.191
58.9558 143.257 131.176
72.2905 85.0033 122.57
10.5884 138.595 129.355
27.2533 127.948 65.4072
46.4077 56.9803 137.908
21.8665 52.8793 122.13
49.8596 113.893 148.204
9.57786 143.678 151.047
69.3312 108.454 119.424
61.9105 160.593 131.226
17.282 158.891 169.982
23.8355 119.32 232.304
36.2679 71.5971 259.75
23.4861 147.183 178.027
40.4815 63.6872 140.372
35.95 53.5461 67.0614
10.2604 150.97 129.072
44.2637 78.1331 127.545
31.5124 125.69 173.106
39.8374 96.1018 261.799
61.4421 33.7507 144.109
14.7981 200.515 230.238
34.3769 93.1829 155.132
46.0292 55.9538 104.575
30.164 110.583 68.8304
75.2444 136.28 101.391
63.5793 61.9114 115.157
32.4493 117.495 230.465
24.2627 61.7391 116.865
45.3873 94.5225 97.4957
68.5141 88.8905 95.9079
14.4494 15.5898 248.783
48.3958 89.2979 78.0182
58.3089 114.26 148.046
54.0141 158.544 149.721
79.2693 131.33 130.731
24.5789 122.322 264.975
24.8173 41.8178 2.21565
20.9261 22.0757 243.252
53.9778 94.8922 162.226
36.8701 122.94 81.003
29.283 147.6 231.238
23.1512 114.749 53.089
33.1571 106.58 267.263
65.329 146.724 95.6971
41.1792 81.542 257.833
19.3257 182.226 261.836
24.7886 66.9313 264.217
39.3768 111.263 84.1039
9.49766 97.3912 245.918
12.5914 151.836 245.073
20.4521 20.9171 51.7493
55.5155 67.3852 133.355
34.7572 149.945 75.9889
43.9314 165.331 88.5024
49.297 74.4275 165.942
22.2721 179.998 21.9076
47.9741 168.837 115.39
27.0965 158.201 124.362
10.9458 159.836 129.221
32.7595 56.5956 231.284
32.9307 26.2822 259.661
53.2025 104.81 82.8057
30.4772 165.934 121.087
45.8744 74.1502 256.474
77.3656 140.199 122.404
38.1889 20.0619 157.313
50.5762 58.5046 111.361
57.7493 89.2031 170.922
15.8556 189.025 261.804
53.4473 128.865 127.64
24.4021 129.068 230.899
57.3006 155.553 139.376
10.3594 144.892 161.625
21.1642 37.4317 14.4526
57.8036 54.5471 113.662
11.3191 165.738 110.862
26.6305 145.826 141.062
46.4181 93.7729 84.1617
23.8644 187.158 108.851
30.4575 65.5389 160.675
10.3868 32.0187 114.531
10.5021 33.3021 274.02
60.0713 71.6425 124.867
27.4735 162.594 136.619
34.6066 199.446 18.569
41.684 58.0076 253.965
61.7325 64.1258 146.79
27.3727 38.0191 56.4361
36.1578 158.237 96.5781
43.8654 92.3022 143.109
32.2965 79.0341 107.685
37.5201 166.34 116.617
13.4505 17.5816 78.557
117.215 113.341 36.2363
25.869 62.2756 269.681
44.9074 77.593 121.495
74.1811 142.187 104.915
55.3763 112.07 76.4551
59.3428 67.3057 159.545
45.2764 147.374 137.214
50.5158 73.0157 116.491
59.7175 99.6124 111.359
17.9237 151.089 87.3268
40.97 106.552 73.3335
11.2688 164.574 123.407
23.4476 81.7091 154.494
62.4197 65.108 139.674
20.7245 147.836 55.1168
53.1259 105.795 143.024
23.0868 45.7836 112.336
57.1426 141.762 149.836
50.3317 157.004 103.163
22.9428 31.1638 9.22613
68.2729 146.061 136.294
25.2431 170.476 85.7875
54.9056 70.9627 162.515
15.1946 132.852 157.149
55.568 127.654 87.6377
30.3196 10.4887 251.91
38.9241 76.375 100.193
32.9665 170.834 97.913
31.0229 65.5123 227.85
16.4766 177.582 270.041
50.9835 141.367 129.151
11.9395 110.496 269.372
40.0341 76.8008 85.8766
23.4597 168.507 152.991
38.1352 59.6761 235.017
42.3979 200.92 37.847
36.1071 106.516 273.475
13.4579 155.612 159.466
42.5203 167.27 151.362
47.6349 105.92 162.593
55.5652 138.28 78.4179
70.4899 149.651 128.301
25.4215 122.318 272.099
112.197 148.185 11.8413
10.1831 74.4231 252.762
43.6937 155.309 117.64
16.1049 142.906 249.36
55.5359 126.868 121.923
40.1428 130.336 131.168
49.9879 152.238 126.569
36.293 173.704 135.013
46.36 66.3743 98.1597
60.5464 77.7731 110.593
31.8282 165.231 153.709
66.1222 125.683 131.463
43.4273 19.0722 167.147
49.4419 102.367 72.4666
65.4217 79.626 139.182
18.3878 101.03 273.279
52.5392 131 135.915
64.1536 94.5952 160.304
15.8234 169.632 204.717
38.8179 89.5324 163.033
8.81107 87.1119 233.063
21.7803 142.421 13.4237
43.4285 115.927 80.6465
26.4684 176.926 235.099
48.725 196.259 27.2557
37.0525 72.8912 268.59
47.7069 73.6692 86.6933
38.4945 146.915 111.811
11.6931 186.124 103.412
19.9557 71.8773 149.65
18.584 60.4058 102.213
37.6383 115.234 241.508
16.0837 169.791 112.427
13.2261 125.818 256.362
75.0165 123.907 140.732
11.0205 106.623 100.087
64.7084 70.9482 102.105
16.7248 135.453 234.035
55.3244 81.8119 83.132
31.344 93.0698 270.594
35.7853 80.4443 80.8653
77.3294 96.657 130.896
11.09 144.024 115.862
14.0457 53.6696 268.529
27.9071 33.9676 31.2029
12.6923 81.9726 14.833
66.308 104.898 113.479
45.325 108.89 165.944
67.4685 106.627 93.0703
35.9307 67.3069 165.524
16.9912 115.868 249.751
34.2831 86.6645 156.646
11.3214 82.5304 214.705
70.8615 132.917 119.498
23.3399 175.284 49.6271
28.1334 207.168 36.8313
13.4023 107.848 205.648
32.444 53.797 255.813
38.6359 100.861 232.845
33.2135 174.303 31.2007
30.5923 54.0084 100.413
49.5179 65.5442 89.9254
24.5386 155.28 134.956
31.4917 75.6499 78.242
18.759 150.732 50.1003
23.6975 126.431 257.863
45.173 139.251 124.517
16.5015 27.3678 53.1557
34.4191 134.599 76.548
30.1877 102.345 71.6908
16.0065 181.4 140.83
31.1047 41.9121 44.9468
19.7296 30.832 1.98349
52.4016 79.8833 116.101
61.0453 142.697 90.2961
41.0225 74.0729 110.861
15.0757 179.863 26.4455
22.966 13.2891 247.478
39.7866 141.13 65.3593
18.7326 55.7515 148.866
13.3469 30.6193 191.091
50.3259 199.173 91.7094
70.602 68.7123 145.815
40.7419 74.6349 239.824
80.5633 133.344 120.402
66.271 96.3317 151.973
76.8114 129.667 101.275
12.901 154.171 75.9511
16.382 195.181 107.299
43.7937 81.1504 264.409
21.2512 138.289 171.219
48.2942 122.157 149.635
62.0513 157.031 116.326
72.1547 126.17 98.3092
48.6867 153.947 145.679
59.0944 126.661 75.5664
36.3601 145.379 121.259
73.5229 120.94 94.0893
39.0498 140.38 157.702
38.9917 144.315 165.505
71.8941 106.09 137.807
29.1132 176.106 216.298
40.5266 100.823 242.521
30.7982 211.951 181.705
68.1603 77.0548 121.694
59.5393 132.974 124.562
21.8371 149.571 169.508
34.1928 130.76 180.222
63.8214 154.358 130.649
67.6664 116.667 97.3989
55.7284 123.797 150.941
28.2128 128.883 251.812
45.9939 157.624 85.9041
18.8536 37.6594 198.67
19.3718 159.407 155.388
17.8423 190.53 94.2772
41.9857 62.7904 162.639
21.6088 101.124 206.804
24.6816 151.943 72.4073
24.0715 167.615 139.162
20.5012 60.8248 261.473
32.843 120.071 77.7666
21.3763 119.157 258.271
34.3794 173.445 146.989
13.0441 176.55 124.61
12.9467 61.1897 4.11054
12.2634 121.424 140.577
42.9506 146.322 145.063
68.9735 154.15 109.317
43.8524 125.34 89.6578
13.7783 141.273 216.812
22.0261 106.851 194.761
43.6519 194.803 20.0478
30.262 12.0267 273.079
44.7223 80.7912 159.461
30.1293 24.2158 243.4
11.8528 171.618 133.915
41.9227 104.489 248.176
72.6509 72.7555 121.553
35.466 84.63 272.723
53.2755 164.42 131.136
35.8103 128.914 87.4012
24.7914 180.22 272.192
68.4 65.6256 127.676
13.2835 21.3013 61.1382
75.4362 93.1951 122.743
29.3601 187.286 37.1326
56.8275 153.27 130.718
21.8354 104.41 166.374
12.4319 119.335 269.727
10.9483 174.893 146.265
18.3512 170.115 134.687
72.6397 100.514 115.262
64.6697 124.886 108.965
21.509 101.048 194.603
22.3806 138.926 67.7745
59.8117 98.5468 154.845
42.1915 164.69 96.0467
30.6766 46.2048 136.716
63.5909 85.5678 86.1149
30.9714 130.853 71.1525
54.5029 119.139 79.6902
44.5835 96.3255 229.865
39.9161 149.105 120.713
67.0607 118.107 111.659
13.9911 182.585 272.769
48.6736 230.596 53.1072
47.7988 66.2067 164.286
27.2577 46.3685 39.2914
23.1688 172.546 106.936
35.736 71.3855 149.667
26.6329 186.521 128.517
73.1241 135.866 131.113
20.1058 139.038 239.447
14.1513 135.019 167.25
45.8187 134.307 162.076
66.2784 112.269 108.99
59.4442 152.994 93.756
16.3279 175.668 106.106
46.26 186.711 95.7854
72.0343 126.307 116.122
56.9998 80.4639 165.945
56.5972 89.9554 80.6679
20.4433 22.437 60.6081
16.4208 177.376 145.918
75.5327 118.744 101.812
42.3702 73.6072 244.807
107.385 147.826 17.7597
63.2024 97.1364 106.336
50.4137 140.935 86.1804
22.0481 184.963 42.9615
83.2084 74.8993 214.897
36.1853 212.666 49.1426
31.8699 30.3061 223.544
64.0398 80.5494 98.8185
76.4301 139.582 112.119
77.1259 122.996 123.825
34.2259 94.9187 274.13
12.0207 119.974 274.3
48.5737 2.84761 2.07633
39.8876 40.6782 64.3088
70.3548 80.6784 112.288
24.7326 106.364 269.392
72.8262 77.9535 156.814
17.0181 187.246 274.344
69.2691 141.951 98.6428
44.969 145.25 73.0635
21.0265 52.9624 135.361
74.6031 106.21 100.784
36.8981 113.146 252.593
104.178 124.557 51.4041
65.3303 108.534 87.8932
55.4043 72.4624 101.726
31.5237 136.46 4.36474
23.8189 180.04 112.698
22.3537 191.377 273.659
22.3053 57.6071 185.148
12.6549 136.072 221.253
46.4946 152.166 91.312
23.5472 176.742 17.057
69.388 67.3492 117.802
50.8248 136.655 72.3094
66.2352 100.716 110.177
33.7931 41.0956 64.6209
38.5454 196.189 110.226
22.0806 87.7462 274.104
34.8858 128.439 169.039
49.8134 66.4209 142.812
63.2361 117.802 155.322
30.6852 110.812 254.318
52.8294 115.17 86.7437
72.6722 73.308 138.005
30.9508 157.972 131.005
69.2119 36.4544 142.546
20.2923 114.928 274.442
18.2025 155.392 179.223
24.3662 47.1762 134.619
69.9691 131.294 90.0969
67.0057 78.0053 94.4588
25.6168 112.08 221.424
17.2822 143.737 172.779
26.4955 58.1633 189.434
74.035 115.09 139.685
68.8257 158.765 124.39
24.419 51.5134 250.868
28.1988 68.9869 274.48
63.7497 132.362 85.3493
60.5218 159.751 141.284
59.8554 122.065 89.1882
52.1484 147.489 93.1728
13.8291 103.256 202.539
67.1545 124.823 89.2084
60.4056 60.2673 128.138
25.1755 15.5316 273.199
16.7414 63.2892 1.96895
66.8377 135.726 147.094
74.1558 132.886 113.002
20.3032 38.1196 8.91921
81.1558 131.686 111.988
34.6449 149.363 69.5434
75.279 91.6039 112.297
39.6285 1.95415 2.12785
28.1229 50.975 140.359
67.6138 114.154 142.751
24.4781 54.3095 255.926
111.178 151.549 16.661
69.6811 99.1195 96.5032
29.584 177.956 268.164
38.0357 112.23 165.954
14.907 198.802 224.274
29.5791 130.697 168.002
12.3509 52.1352 263.89
15.8398 8.39152 170.869
13.0362 10.3818 2.24114
116.403 122.58 62.7548
27.9047 102.058 270.957
18.1296 193.866 247.425
41.9034 124.058 135.547
43.5687 140.134 161.493
32.0824 194.007 260.404
68.4371 138.457 90.9005
22.0903 79.3907 274.835
42.5268 195.058 141.709
