ply
format ascii 1.0
comment Created by Open3D
element vertex 455
property double x
property double y
property double z
end_header
55.6385 172.968 98.5479
80.6703 131.411 149.073
39.9883 173.259 85.4351
23.3415 136.96 129.464
30.0847 169.148 103.242
38.6471 147.189 138.045
54.8911 86.9686 99.4112
19.3494 127.439 117.993
50.9703 99.0026 117.657
82.5629 125.669 143.704
65.834 100.474 142.627
54.1654 88.7995 108.295
23.6882 172.371 87.8977
95.1456 121.001 174.719
32.3479 123.104 102.47
42.8801 168.618 97.4699
87.5386 101.123 126.546
31.8821 96.6873 82.9704
53.6095 135.73 82.7548
22.0704 107.911 92.2177
58.7416 106.302 148.707
106.056 101.737 177.897
26.3269 137.605 101.808
79.0108 124.471 170.651
78.4594 191.755 169.728
66.1199 108.001 103.63
62.9239 95.9215 126.823
49.452 156.587 119.963
33.8822 139.817 112.234
26.4323 114.242 117.715
36.2968 130.944 118.821
25.4757 123.923 105.155
85.6598 117.792 177.13
23.2555 117.372 86.6328
66.8167 88.8836 113.59
69.0326 141.936 135.835
31.9635 171.644 86.2642
26.0573 156.197 103.663
39.7622 127.726 101.949
53.0537 188.051 95.5171
60.5668 163.5 121.796
58.7507 135.694 144.137
71.0827 90.5658 135.859
33.1902 128.023 135.303
34.3862 176.286 79.286
61.6982 109.217 144.86
30.6716 115.368 82.5606
84.6023 98.3948 145.436
16.9459 120.345 102.334
40.4264 96.0178 120.996
35.5733 92.487 104.546
24.711 107.823 107.251
53.2497 127.222 109.054
22.5907 144.297 92.8053
34.1876 111.253 112.712
67.0429 106.182 156.412
59.9524 145.117 134.756
66.7404 133.136 143.365
110.266 110.909 173.428
69.0215 131.687 150.264
101.485 111.327 179.09
67.6716 115.048 161.769
28.7341 94.1291 102.912
34.6452 109.717 78.6267
90.6374 90.1481 142.587
46.5598 174.853 77.1167
40.4367 186.53 100.644
41.7565 123.998 127.008
35.0408 105.008 116.205
42.4456 120.775 113.392
51.6913 151.239 108.124
42.2154 136.909 77.926
44.1399 144.224 80.8184
32.0649 155.83 111.666
18.9303 114.1 106.054
112.985 95.2927 171.691
52.8233 115.78 89.1717
44.6327 132.285 111.81
24.9852 126.914 124.195
84.5015 135.442 120.794
44.2467 87.1494 103.093
34.1427 106.187 104.2
44.2727 106.528 125.329
27.9757 163.965 88.2832
107.574 91.2437 137.171
86.8776 90.2115 150.732
65.3985 97.1728 115.72
94.3728 91.3044 149.618
31.3377 147.643 134.703
64.2784 123.65 104.831
108.205 123.098 156.01
40.7526 140.957 131.654
99.8872 90.9486 144.421
83.0824 134.318 140.713
58.6408 105.142 81.9748
96.1899 125.858 162.191
45.8772 116.604 78.2916
72.5936 138.802 128.808
31.7165 157.313 86.9214
73.5171 105.367 136.302
59.5501 93.6684 119.189
27.0928 93.3436 93.4717
69.9756 162.203 101.543
20.4502 118.384 115.023
44.0246 126.343 118.812
58.0895 129.434 147.822
30.777 123.863 129.101
40.3542 165.271 80.0731
78.5843 100.644 141.77
74.1222 126.06 105.648
20.8049 161.014 106.672
52.0752 189.661 87.9831
36.993 183.015 105.683
71.9138 108.02 165.482
45.7901 133.718 135.37
99.4192 93.3085 137.182
46.0326 127.803 137.183
51.8306 137.976 140.07
23.9992 101.712 96.0463
42.4084 99.5516 106.611
66.4434 181.24 92.0962
28.8943 152.635 98.2803
109.526 118.019 164.707
35.8742 141.6 104.602
40.0639 118.429 79.3572
43.5205 120.612 89.9735
74.8793 129.424 114.049
97.4058 123.792 107.695
41.7031 108.149 100.388
51.4351 129.199 118.858
62.1066 169.697 108.472
22.5597 125.891 92.8372
115.831 102.514 160.065
67.8148 137.307 122.392
61.4722 125.798 151.72
111.262 92.9156 119.936
82.6073 118.011 97.5829
66.3527 131.379 114.742
27.8705 170.977 156.528
38.6691 127.972 76.7507
49.3709 96.0583 128.292
34.3941 164.89 81.6199
21.1798 158.682 97.2391
78.5226 111.839 167.531
40.4422 177.814 75.5988
114.008 103.955 113.274
73.4745 110.163 106.348
38.9267 177.012 108.461
25.7361 129.794 101.518
90.8994 94.5625 174.929
22.6013 135.635 93.9115
49.9592 108.082 138.559
45.1667 183.613 110.293
112.226 90.6638 146.724
44.9929 185.815 93.2951
66.5853 102.286 132.301
39.761 153.166 126.178
113.756 102.595 173.182
29.1564 136.314 87.9246
46.0541 140.398 136.686
53.3297 103.119 136.688
28.3914 177.344 93.4438
51.4593 124.472 133.263
94.4841 112.658 180.633
49.5033 115.026 137.722
28.8991 99.3291 110.521
93.5263 133.485 124.552
101.868 122.416 163.023
63.9346 178.915 81.0605
29.6703 156.753 121.575
100.975 128.044 118.175
114.817 94.4849 137.309
77.72 91.558 132.923
42.0855 146.245 127.084
55.2746 126.025 85.716
76.9246 129.899 156.666
25.1331 148.387 104.356
104.209 90.973 129.274
34.2053 140.028 130.129
36.0561 113.919 119.966
20.5468 111.996 100.048
44.8297 141.008 87.9543
67.6172 87.8119 124.712
47.853 86.796 93.8802
34.2836 87.4128 97.78
82.2478 103.365 117.102
89.2847 92.3143 160.596
46.2628 108.979 79.5727
21.0203 138.162 121.835
46.9537 120.054 131.114
40.855 169.197 110.921
56.9044 165.035 112.059
20.7011 147.482 121.702
52.6883 114.107 80.2383
60.8194 148.925 104.857
31.3104 164.365 110.751
36.8267 154.427 81.8694
18.3625 125.203 108.605
83.3545 117.09 110.193
75.2105 133.955 144.521
30.131 143.704 127.249
80.068 124.132 114.098
65.2967 169.722 87.5684
30.9034 105.288 82.1814
69.8318 129.616 123.45
81.4841 101.491 150.327
83.4017 114.703 149.605
46.0483 112.585 130.222
23.8173 100.929 103.949
46.6209 106.038 115.001
80.4538 118.516 164.01
115.93 94.5008 152.554
95.2122 131.013 115.755
55.0621 111.789 143.798
17.0254 134.497 115.804
43.8716 127.244 84.3602
92.1917 92.5778 120.629
115.902 115.565 158.941
99.9095 132.58 126.233
67.715 121.088 100.749
29.8745 170.004 95.6802
59.8158 99.3165 132.086
69.0747 120.007 196.111
59.3294 112.327 84.3891
58.3141 184.027 81.6674
44.753 160.804 83.0221
51.8585 93.7441 83.7228
53.5809 120.996 81.5384
69.6655 136.107 137.611
82.2498 92.576 159.712
67.5455 229.219 190.154
17.3074 141.211 104.621
109.346 116.484 148.325
28.9257 147.079 121.173
58.6089 154.874 118.515
52.932 91.6282 115.125
22.3546 112.342 112.494
19.9084 116.388 94.3191
67.6855 126.493 112.352
30.8068 116.684 126.295
61.2112 94.728 108.571
95.8031 95.0411 156.295
105.734 118.889 109.287
56.0368 96.8126 124.279
65.3318 109.054 87.4032
113.454 111.612 165.52
27.5575 162.023 95.3823
89.7664 132.321 136.13
16.8642 145.364 111.539
83.0502 131.131 132.596
73.901 157.153 118.724
60.827 95.9259 88.2409
86.2578 121.996 167.485
49.488 105.788 129.333
69.622 90.6864 104.542
46.4209 133.457 89.1587
117.247 115.852 150.054
30.5808 182.583 90.7876
84.0228 133.277 126.815
33.7938 134.94 134.803
16.6143 132.453 106.653
24.9545 170.457 110.328
57.653 138.438 130.76
46.1076 89.3906 87.9965
91.3343 111.605 99.3392
43.1099 100.435 113.913
50.8808 103.547 80.837
84.8052 126.083 197.944
101.385 120.96 124.648
112.405 114.228 137.131
15.0747 215.706 79.5138
36.5746 180.886 88.8547
39.6554 132.398 135.694
58.7949 140.078 120.009
57.9024 155.222 103.859
106.76 90.6562 157.738
103.573 91.3915 111.548
36.9264 107.208 126.937
36.5491 122.213 121.958
41.6115 104.635 84.627
24.5281 108.159 83.6287
18.9859 139.368 99.773
77.268 230.775 184.589
46.6243 136.701 104.554
105.217 119.001 172.626
34.1505 177.966 102.309
68.8146 120.322 153.12
23.1713 169.445 94.3143
70.0379 125.442 159.815
52.0016 181.951 81.9132
82.3763 92.8703 152.353
76.6371 133.548 120.554
83.3005 95.9921 170.529
105.045 127.67 147.124
41.7684 140.377 105.331
77.6715 124.569 101.225
78.0268 135.474 137.802
46.5724 166.688 115.593
88.6048 92.7786 113.028
85.1876 122.603 102.382
63.0604 137.652 114.147
18.1797 152.941 119.011
77.1587 97.9243 162.314
37.5979 145.23 80.0712
97.7131 105.908 98.6865
74.3878 95.6652 144.833
61.0008 143.33 111.509
53.4359 118.594 142.867
67.5999 128.198 93.5552
88.6878 128.301 128.988
60.4641 130.953 96.5471
30.2868 132.685 128.988
84.3567 123.756 152.067
103.517 178.917 156.291
47.9001 140.102 113.728
75.1642 118.623 102.779
16.1113 138.769 110.379
78.7858 99.3968 127.623
99.204 130.6 150.917
28.4504 120.101 120.191
69.3058 103.144 97.7148
78.6261 107.062 147.518
39.7951 184.008 84.5922
20.0741 124.279 97.7694
105.464 91.9579 168.845
101.11 90.7316 157.607
108.219 123.441 124.289
75.7893 92.9783 157.224
54.3287 97.3091 132.322
45.3404 182.162 78.4159
52.7959 153.922 87.5162
107.077 101.022 101.148
39.5694 89.2288 84.474
75.1607 95.937 95.9919
53.3161 131.006 137.798
72.7661 114.735 99.3254
41.2706 113.559 124.458
88.1075 127.571 109.589
106.536 91.8005 147.179
48.1189 145.084 134.352
35.1165 154.385 122.77
58.7061 169.736 81.3669
39.7237 180.618 96.0928
96.1035 91.7492 129.022
47.8509 149.114 129.774
101.861 90.48 120.996
126.562 122.499 248.254
25.283 145.496 112.188
47.1172 149.769 91.7978
116.619 110.48 143.192
25.9649 132.431 89.5259
32.9065 125.511 83.336
79.0153 111.411 108.283
47.3036 126.367 91.13
61.7142 127.955 88.5792
65.0232 115.921 96.3298
58.8228 120.759 92.1055
87.7193 183.801 154.976
44.4101 158.046 107.874
73.1726 112.715 91.9782
85.2183 110.677 97.1104
86.5584 106.289 102.584
95.0128 98.3347 97.4442
38.5564 125.03 135.587
55.7357 127.051 101.008
61.3859 160.129 94.1401
102.646 129.674 134.752
54.3531 123.706 143.664
89.1236 94.6542 102.869
67.5603 116.297 84.365
46.8583 142.103 98.4613
78.849 95.3308 123.254
59.9024 152.42 131.696
31.7329 121.299 91.3046
45.9458 135.173 97.06
62.1117 138.817 137.974
89.9562 125.988 158.738
79.5269 104.085 104.391
69.7445 157.436 96.6064
112.68 92.1258 161.671
37.5565 131.605 81.926
49.8336 147.081 117.679
38.7885 137.086 93.3499
52.2377 169.827 80.7636
72.8638 105.192 112.026
101.964 123.472 137.486
113.617 92.9629 130.047
64.2408 94.0099 96.752
88.5754 90.6412 133.158
89.8736 131.076 146.002
77.3656 115.51 155.61
54.534 149.195 132.808
64.4245 154.483 112.492
41.2651 117.25 118.365
43.2608 93.5738 84.2629
94.6615 131.358 148.675
93.2274 124.782 132.644
95.0247 91.0754 163.226
71.4611 100.333 119.541
84.5103 102.614 183.915
49.6322 163.649 80.9223
28.7314 126.586 88.8226
61.4873 166.849 97.5661
92.741 118.504 103.023
42.2867 159.074 89.0445
134.605 124.172 247.132
50.1579 126.857 96.8609
81.3297 106.556 155.213
25.4583 153.795 116.764
30.6134 170.115 252.4
102.674 112.388 101.813
58.9587 171.965 116.184
19.1006 152.597 109.109
37.6765 117.008 88.4999
66.4337 121.963 93.3274
84.5366 92.1994 139.884
81.6741 117.411 76.1301
113.823 108.505 135.683
28.8548 146.72 83.338
96.8762 127.929 139.959
60.2167 126.451 121.416
93.1271 137.704 184.944
81.7783 114.452 103.264
106.476 119.289 117.248
72.3022 104.867 90.3219
58.6936 146.718 119.881
114.002 110.638 119.339
75.2038 96.5973 102.556
89.9286 95.4942 135.472
72.6313 96.6091 130.21
116.53 108.536 153.047
110.703 111.624 128.201
75.8069 99.6774 111.077
92.3893 122.59 196.732
74.188 131.51 130.923
46.3819 168.373 83.5136
75.855 120.683 173.396
57.2886 134.036 113.409
112.648 122.424 140.189
109.101 96.5917 106.445
118.554 102.303 132.049
69.4213 104.625 147.537
57.9615 172.123 88.0794
23.0089 141.316 103.303
102.846 124.911 129.784
59.9619 116.204 154.297
67.8134 97.2818 106.512
119.248 102.008 149.843
76.1379 101.149 173.388
51.3211 61.3943 132.426
118.381 109.443 127.973
111.973 113.208 109.864
113.313 99.6144 146.154
77.2903 124.155 154.006
24.4796 174.114 105.529
