ply
format ascii 1.0
comment Created by Open3D
element vertex 804
property double x
property double y
property double z
end_header
55.8683 74.3361 59.7875
40.6031 54.09 74.7186
38.3828 103.448 113.428
48.2365 34.5314 101.403
71.7799 56.4436 54.4037
66.3176 53.1409 78.3657
18.4114 79.7162 116.596
23.8505 161.555 126.938
40.7622 76.6749 44.7294
78.5565 134.968 203.082
58.3254 95.0924 76.9625
43.3848 59.5119 48.9351
14.6569 69.3154 114.223
37.7521 69.6589 72.7399
49.8351 43.5749 63.3214
45.356 85.2648 71.1974
62.2482 46.8654 57.768
69.7721 51.2038 87.462
48.4789 133.926 109.791
55.2441 62.2301 127.853
52.1233 34.3789 78.1413
27.8416 84.1611 90.0302
54.2498 55.6948 103.872
29.193 96.7123 58.5568
54.6023 49.6918 59.2581
20.3882 92.3743 63.6223
90.0385 221.392 155.727
43.4724 68.8992 51.5601
43.8649 36.5458 83.4678
58.8585 71.8519 112.666
79.4263 54.6954 64.2497
55.1383 67.9802 53.3882
22.0522 164.628 114.925
63.6277 65.3323 51.9856
36.2965 78.5587 86.1943
53.0891 57.8035 78.8548
66.4988 52.2709 70.4894
62.9685 63.7772 111.621
15.7986 157.424 94.7709
36.2192 102.045 71.243
18.2764 214.336 206.525
67.9199 71.8799 61.612
70.3821 65.7853 47.9135
58.8383 40.9929 106.776
23.0387 177.222 126.579
54.8943 56.1008 86.296
65.226 117.722 64.2539
37.0625 91.1219 125.405
58.9227 45.2722 95.3589
31.6528 121.137 97.7193
53.6496 77.3913 75.2721
62.6541 63.8994 79.9682
74.2463 76.7366 50.7555
11.9387 91.0653 100.716
46.4475 70.216 112.313
9.98339 100.967 99.5993
42.593 71.2071 81.3424
12.5125 94.1273 64.9315
64.7929 106.289 62.7225
30.3121 42.724 102.643
57.5059 76.4887 83.8317
45.3542 154.646 87.1116
21.5195 113.489 53.5829
61.1161 51.5657 119.36
38.4501 172.155 121.207
40.4321 170.293 132.281
51.6432 39.784 84.6687
51.5441 99.7067 68.4234
37.92 151.486 154.29
47.8302 83.4663 110.815
57.9533 137.141 106.683
16.0402 62.8592 62.7156
64.6669 57.3588 57.5884
60.1477 92.1512 52.5877
53.9669 50.2609 75.6916
47.4599 56.1539 58.3737
87.1538 63.4213 105.85
47.2885 88.0812 103.933
16.73 137.922 191.92
24.2702 151.585 124.216
49.9592 80.2796 58.8605
49.4876 88.0181 57.1983
39.5552 82.3259 120.339
19.8087 149.984 149.464
75.3385 49.6145 78.4481
47.5562 40.9825 73.0456
42.1425 75.6412 120.338
61.4715 90.3694 118.238
38.2451 85.3248 105.447
58.5524 59.7496 71.9859
85.9851 158.547 264.61
48.085 159.5 158.674
87.9944 57.4252 110.613
46.4915 83.2344 125.629
15.066 141.216 114.289
50.6031 76.5987 105.24
37.7947 74.2372 111.002
36.515 187.554 142.463
88.4541 82.0514 120.392
38.9176 112.17 70.1988
35.2267 79.7097 49.0826
26.0715 78.0667 72.4634
82.4272 68.4367 62.1354
40.7224 91.6784 102.222
49.0248 178.704 157.194
28.6405 42.4043 65.1735
62.9479 82.7819 106.738
54.1948 87.8992 99.1349
78.42 89.8427 54.7944
61.7745 61.8086 99.9912
13.1105 85.9452 107.874
64.6901 152.046 154.667
53.7264 49.7049 99.0443
56.1356 38.3607 67.1203
56.5416 34.2117 95.1431
13.9875 64.7234 70.2805
26.1361 177.057 120.034
50.411 64.7382 68.3405
28.3546 82.7372 51.9683
45.4212 189.406 115.472
34.6323 135.406 144.617
29.5602 80.042 105.108
61.1814 169.395 158.589
87.84 69.5882 117.324
56.1187 85.6842 81.2289
19.8644 90.9381 113.828
30.0987 49.3625 65.5644
52.0895 151.057 157.146
39.358 119.041 96.7918
21.4551 132.154 63.6695
65.3943 83.6269 121.652
66.7379 61.4621 65.4237
65.2757 72.6446 122.418
18.6571 71.9325 64.5036
29.3587 166.678 111.036
75.6452 160.991 152.656
14.191 159.287 114.675
14.4339 149.332 108.892
62.8709 37.4315 72.536
43.7033 48.9304 60.4755
37.7237 153.371 71.2572
34.9796 64.8949 58.7489
46.5072 30.5071 91.1723
48.568 53.1188 49.2531
66.1386 81.6483 56.3011
67.6261 101.144 128.598
37.9335 78.8557 77.6543
7.19978 199.785 228.892
56.3727 101.902 107.437
82.3549 169.906 268.419
54.7563 44.5097 73.7427
20.9539 57.439 77.1023
29.4627 57.7281 49.8091
60.0095 154.26 113.263
81.7529 81.8351 129.144
28.3646 60.6898 74.213
37.5983 175.014 158.134
72.3027 69.163 113.724
63.6584 33.9728 86.3557
16.5644 117.579 65.1301
60.8498 70.4858 44.5578
28.6612 71.1436 48.9095
26.4417 82.4832 96.5735
71.2649 47.6267 66.6385
16.008 62.4348 108.439
54.3855 144.863 158.106
57.3285 69.8799 131.511
44.75 146.755 143.318
54.7504 82.8272 115.455
50.6197 49.5403 88.6202
60.3812 50.1342 108.21
73.1061 36.9356 90.5204
26.1072 154.683 70.3585
91.1565 56.7689 100.843
52.1159 116.534 116.191
36.9236 38.474 102.91
43.469 178.161 136.705
16.3816 129.969 109.737
84.6979 72.4548 124.237
26.7241 40.6814 75.3484
44.9848 45.0259 107.314
23.0272 167.66 98.4584
40.6346 85.3908 79.7175
58.779 95.6382 62.5109
50.8129 175.401 140.706
20.7378 99.7052 97.1782
37.1454 59.6131 124.34
63.2484 119.596 142.642
55.1069 69.8389 104.141
58.3312 54.2983 64.8208
81.2967 49.5175 109.78
14.9866 161.298 106.276
5.99191 80.4678 85.4825
27.95 53.724 112.394
41.373 101.065 99.8035
95.1926 59.531 91.7302
71.1667 89.1031 130.106
78.7153 59.5361 114.675
38.7465 52.4315 117.714
66.9584 48.6817 111.863
40.6351 47.8612 75.9158
43.2861 157.578 124.659
50.0154 87.9441 91.05
87.4939 52.1381 81.2228
83.1106 54.369 101.097
62.9317 74.031 102.279
28.2188 72.4848 66.7728
18.4598 50.4251 101.85
69.8039 78.7284 118.763
52.5142 70.0784 71.7014
38.1641 97.1231 89.9987
87.9567 214.167 168.208
69.5737 40.5706 71.196
40.1406 90.294 116.744
37.6649 66.2906 108.803
86.0548 73.76 78.5916
49.6646 75.2254 45.7097
54.5313 162.737 73.4664
51.3849 192.565 123.397
36.8758 93.8672 63.5502
68.552 113.759 57.774
87.0346 88.4463 115.699
53.868 79.5686 99.6398
9.03136 74.6108 74.8
49.6336 169.813 87.9624
46.6932 112.912 67.2622
5.85346 103.725 71.675
26.8332 100.19 68.8016
33.0218 40.8686 83.3374
25.2327 125.645 59.5347
17.9792 74.5762 79.7172
74.7477 108.702 55.0795
74.5649 42.6347 84.6715
40.6607 39.6024 74.0536
54.5936 86.3802 128.334
28.313 113.592 64.8542
87.8022 55.6751 70.4679
14.2023 136.173 110.511
43.3447 144.713 62.436
18.7221 188.62 116.328
50.3795 111.901 95.7939
23.5652 63.7065 109.802
91.1695 70.8434 107.397
47.8956 43.3121 96.8514
55.3657 138.367 57.0476
37.9774 160.427 139.118
10.3026 216.341 201.515
29.8477 54.4086 75.2441
41.5076 90.1397 54.4747
44.8811 70.2039 61.2832
19.1315 144.937 128.621
12.7334 122.063 71.9591
24.8106 228.354 230.535
44.2461 171.556 159.868
108.203 3.46687 138.675
49.36 42.188 89.7664
41.5129 83.608 51.8005
8.83892 122.951 80.2272
32.9908 163.649 125.738
23.7047 206.741 216.031
20.6025 134.396 112.364
51.8654 147.546 111.395
25.3546 81.3472 120.984
67.9388 222.473 166.826
61.2564 161.296 115.405
57.6441 170.096 80.4879
22.9979 224.963 205.8
29.2421 171.158 126.266
9.42733 55.6129 83.1343
47.0436 96.4678 114.222
64.6883 86.1291 99.5
35.3396 118.772 119.113
63.1611 104.556 52.3746
76.1317 97.4889 64.5375
13.5485 150.572 98.9208
26.5762 73.9823 83.1559
66.9089 37.581 101.005
42.4015 110.734 48.5468
46.4125 167.558 119.297
29.2241 227.602 212.544
73.7803 81.3811 128.071
65.923 98.3043 67.2095
46.4352 91.1018 120.253
42.2532 164.995 83.4675
20.462 47.475 79.4725
10.9678 133.91 86.2072
27.8064 172.868 96.7134
7.33352 66.3269 78.8847
29.8288 118.198 105.559
42.52 101.97 47.1464
9.91736 110.825 70.1985
38.4364 79.4086 108.019
74.9647 129.442 144.988
19.4311 99.7639 70.4895
36.346 117.476 89.718
52.892 170.481 147.84
27.9313 54.5396 62.5436
15.7336 55.8111 88.5665
18.834 102.808 56.2423
27.8122 113.828 72.4256
85.8956 79.2158 59.9639
25.0586 140.469 131.585
50.9796 61.3889 108.593
52.7051 85.9482 50.2392
67.0058 76.4825 49.8022
56.261 176.444 140.308
70.0465 59.5359 94.2865
54.1878 91.0057 119.604
52.8598 93.9532 106.355
70.1139 78.8092 90.3448
35.7213 62.3766 51.783
24.2284 127.865 109.16
76.2592 217.759 155.674
31.9357 126.472 90.8748
48.6438 59.3715 65.0361
55.4016 109.04 46.2177
32.1062 90.076 119.308
52.6323 147.382 92.3944
27.7733 185.405 129.475
24.4885 106.981 48.2452
33.7675 178.455 122.935
14.0924 104.514 74.6466
70.4058 46.5117 97.4998
25.9055 95.442 103.236
45.3861 172.724 105.219
43.9737 157.226 153.192
31.594 113.115 106.451
71.6152 61.3018 112.225
19.7023 46.2349 70.0716
32.4708 150.633 127.103
33.504 168.291 107.097
57.0504 58.0532 120.094
29.9233 159.227 79.5996
8.84457 116.679 76.766
56.0497 89.8331 59.0717
57.3353 174.238 97.4596
12.2201 137.036 79.8597
92.4032 95.8235 117.449
35.6431 188.975 130.117
62.3923 102.082 82.3652
19.5804 150.397 120.206
49.0231 148.374 59.5789
15.0582 74.7107 90.4742
35.8509 66.3981 42.9317
92.8985 66.2644 97.3087
39.9144 122.323 113.615
49.5906 100.741 100.918
17.6489 124.971 57.5228
57.628 156.32 121.384
15.0841 117.722 110.186
20.8469 213.282 233.728
18.862 94.5801 78.3048
37.9851 146.351 134.181
84.9804 63.2416 68.6268
26.244 124.187 72.1388
31.0194 113.87 58.5461
46.0515 83.3503 86.4211
49.3824 165.147 98.7941
36.4111 173.76 112.249
55.3133 126.061 65.9303
62.2279 81.0317 77.8952
18.7772 53.4884 68.3202
39.3373 61.0117 77.7532
38.4192 91.6856 95.6543
11.5332 57.6779 69.1232
13.2085 128.802 65.3211
32.5872 108.484 51.2058
86.1554 210.005 159.851
33.19 78.8317 121.448
67.2059 137.631 155.479
44.3171 115.056 106.397
52.1511 40.0013 106.866
70.5026 95.8585 105.706
30.4877 73.5279 111.405
50.816 185.611 116.761
96.4369 72.7297 79.5238
68.7896 75.3191 79.2491
54.7445 155.654 97.2399
25.7377 108.595 103.813
56.7066 63.8392 89.1766
56.2669 119.98 72.0232
49.0391 121.789 100.637
28.6355 63.6741 116.454
5.1903 125.707 89.8121
26.6577 73.3867 57.7524
17.7659 134.013 96.7267
79.4609 96.0646 127.743
59.5623 111.578 74.7133
80.8141 48.9842 86.5277
26.114 66.3254 69.278
29.2117 217.537 232.043
32.9393 105.068 100.692
48.2989 167.446 113.039
38.5941 149.976 124.082
42.6894 127.182 128.769
4.30901 217.386 205.207
9.59475 81.5274 67.7825
45.3183 157.456 68.0652
54.7894 115.239 60.5205
51.0487 195.72 135.84
18.658 80.6539 108.618
34.2903 108.47 42.6695
27.0009 87.0203 108.547
40.2756 40.6595 64.1498
17.3265 81.8098 96.6692
67.8819 157.737 100.005
32.1029 45.5181 57.3931
65.3028 158.475 107.924
8.02559 60.0115 75.0343
32.0067 138.852 134.401
50.4317 91.2311 78.7184
14.3866 229.865 202.734
91.384 229.243 160.707
43.9599 185.385 141.473
7.61784 127.849 72.0935
27.4433 117.087 118.149
21.5766 113.213 65.9063
25.0645 162.003 97.1331
38.3107 161.675 76.7182
22.107 167.535 87.9252
42.5147 121.906 107.378
8.98654 118.906 64.3255
62.3233 190.48 120.232
40.5835 176.939 92.653
43.4052 37.6219 93.115
35.7832 45.5834 73.4186
47.5949 49.678 120.048
75.1718 49.8455 104.911
65.8811 92.9622 82.1207
21.6118 121.473 113.728
22.9552 121.725 67.3065
72.7353 166.689 146.495
50.2668 99.7756 121.86
44.4111 175.751 150.507
72.8757 139.258 209.395
82.5812 86.9933 123.491
20.028 132.559 89.4484
56.3663 104.102 57.9623
47.7936 52.3041 107.007
35.2275 118.189 53.9509
68.4112 96.6801 97.4687
91.711 88.5791 101.894
65.1968 117.737 50.3397
16.0582 223.321 233.971
16.7564 92.9058 90.0335
57.3055 181.848 153.817
46.033 128.702 93.7901
69.4455 70.6515 100.509
68.702 166.738 123.944
15.0071 49.4984 89.8713
76.868 106.951 65.3306
50.5843 98.221 50.8877
72.1685 177.374 149.552
69.1753 162.363 154.591
60.217 79.8241 51.0496
49.8147 78.4538 51.1843
32.9489 154.26 143.28
68.9181 149.329 105.853
53.3687 168.185 154.194
39.7907 182.772 123.061
53.0669 95.0256 65.3238
51.1257 76.0489 87.5058
92.0171 79.906 105.959
45.2979 159.327 139.885
59.5362 197.537 131.466
13.747 61.2963 86.6741
58.8213 189.048 103.258
35.4323 48.5544 108.619
39.327 139.122 150.641
21.9891 65.3002 51.5135
21.1828 116.484 94.9521
87.5624 92.9978 108.257
35.3765 100.918 44.1281
74.8785 135.271 150.786
30.4607 136.064 119.921
64.6522 150.695 147.35
78.2442 72.9766 105.292
73.2872 76.3807 109.91
32.6217 109.404 96.1954
70.3365 54.3556 114.622
27.2907 106.138 63.7936
34.3896 56.1545 110.601
26.1669 128.397 96.7678
79.7412 75.6857 58.3332
4.58546 229.314 227.128
71.6704 92.3389 85.7992
48.0221 120.231 113.396
17.3436 121.073 91.9931
31.5414 69.6376 119.813
15.9403 68.1642 99.7712
7.40719 111.927 95.7052
23.6812 45.3925 106.616
85.2741 81.6946 82.0054
31.648 87.841 63.2769
37.0141 138.299 124.067
61.6465 150.675 105.041
36.7596 52.2156 52.5359
50.2064 120.914 43.0072
72.5276 187.506 135.814
94.3727 61.7878 77.6229
17.5715 58.3389 100.502
76.0443 104.752 96.7438
15.6849 220.791 201.492
47.027 95.3292 74.449
76.2805 167.02 271.07
11.0705 85.4971 82.4957
31.7494 38.0972 94.7064
24.4539 122.251 94.4456
17.9734 144.144 98.4775
27.4894 44.8204 83.5213
21.3652 87.4525 102.697
32.0019 217.798 213.703
9.51711 98.9536 73.6679
60.7764 79.4507 127.473
65.5733 129.581 60.0825
94.9958 221.367 166.944
56.5078 105.089 74.9752
30.2257 101.689 53.0145
34.9713 176.779 99.6506
60.0683 168.678 124.484
51.4519 54.9902 116.89
36.8584 40.8803 92.5698
10.9868 109.572 92.2522
21.7069 105.691 62.1561
53.6834 186.662 158.53
47.2775 139.262 149.941
44.6208 61.9905 120.533
52.273 47.5326 115.326
15.0442 215.07 236.624
52.4072 154.974 117.876
30.8039 168.179 90.4151
26.5693 49.5472 95.3696
16.4696 67.5523 83.1202
9.61571 102.951 85.8852
20.0289 70.3919 105.789
15.2935 116.812 54.8004
33.0108 223.865 223.024
33.325 162.119 87.5776
80.611 99.0454 57.6987
31.5431 96.2916 112.68
16.3761 86.8259 93.306
55.6381 186.108 145.668
15.978 138.149 75.5305
46.0214 162.822 75.7164
94.1146 83.7297 89.7645
25.372 71.5229 112.244
4.88476 113.458 82.134
9.82918 80.8046 101.295
37.4467 36.4112 82.4666
7.17626 210.508 236.987
52.4112 161.934 104.662
11.9046 118.895 100.33
46.128 110.248 56.5802
86.2555 170.403 102.522
73.2133 101.959 118.103
65.9315 181.793 124.697
28.8773 172.658 103.584
21.2149 108.973 106.984
85.6869 105.64 63.3099
53.4597 172.723 82.485
35.4359 44.216 113.492
47.5424 113.612 82.3263
19.1583 122.668 77.1387
59.2762 122.988 49.5373
19.647 147.12 84.4623
32.5405 166.192 119.105
72.815 84.2121 55.4574
7.91949 94.5256 79.956
17.3065 130.795 71.3702
48.0473 77.1292 70.7212
63.6241 190.248 110.551
68.5828 125.443 132.47
65.8848 66.9256 130.146
9.85734 126.158 86.1584
16.3028 115.418 85.9333
30.3867 122.489 113.974
35.5749 118.866 45.1817
15.6373 206.245 226.103
59.827 152.063 89.8639
25.7676 214.676 210.526
72.6725 91.9648 118.393
18.3296 122.235 102.415
39.482 173.363 101.578
62.9622 53.8921 96.7243
17.6737 60.4117 93.9797
43.3306 103.939 82.9154
21.3113 132.525 121.734
57.3623 116.666 45.8578
50.7878 114.1 125.83
73.0124 70.3789 130.898
44.5601 150.221 71.6027
32.7392 131.405 115.791
84.6754 53.0446 92.0847
11.5941 53.585 98.3381
12.8585 121.625 86.9517
5.27734 112.878 66.9995
15.393 133.404 84.5903
85.4929 77.4619 71.9375
65.9445 84.2232 63.9486
73.9531 187.721 100.154
76.7486 64.5445 91.2538
52.1684 162.562 92.1607
45.3118 118.853 62.5894
25.1058 98.1939 92.4632
57.4035 127.135 52.4806
9.81006 225.217 232.224
27.2225 158.047 88.2618
45.4901 108.553 42.3605
48.559 36.0515 92.6165
56.8298 124.219 108.338
70.0536 117.057 136.023
37.5077 115.689 40.8428
13.3385 99.27 93.4747
16.9305 84.8661 85.1558
19.3365 141.081 86.0257
66.4936 108.811 99.1044
69.3745 101.839 92.8738
95.9464 85.5921 108.484
42.0286 131.814 60.0307
14.6909 145.635 91.7839
72.2545 86.4438 101.583
32.4534 141.77 64.7518
79.8942 96.1056 118.552
78.2628 97.9434 73.2063
13.1654 95.9421 81.5468
10.147 70.0512 94.6552
56.2902 101.542 98.7838
46.0988 184.345 127.405
13.2355 125.806 92.4799
37.0654 114.943 77.4445
78.4734 81.2809 93.5909
57.2718 98.597 122.986
4.5362 99.8481 78.8369
21.0229 126.887 101.738
23.624 130.657 196.087
21.3647 151.197 89.2804
82.5985 81.489 108.373
19.302 42.3331 93.0352
21.8375 158.975 87.821
40.2675 109.564 84.0688
45.8547 179.699 110.463
24.9797 125.278 126.47
44.78 193.611 137.745
67.7316 82.9178 132.079
75.1847 67.22 55.9129
10.1545 79.9656 93.4534
56.4986 149.466 104.397
29.3264 103.058 94.6243
64.413 71.7319 88.7773
59.3039 185.422 133.293
28.3133 84.3664 73.6409
48.0824 174.363 122.732
87.3428 61.9277 85.4567
82.8584 162.649 146.446
9.08067 142.198 96.6351
43.8508 135.482 50.2347
87.391 163.799 97.5381
80.3845 160.813 107.517
97.158 71.6483 89.9342
48.2572 116.194 98.4308
10.3662 58.5162 92.1721
40.4408 135.061 119.555
60.6096 124.17 88.4623
67.2674 91.6583 117.646
11.0942 70.5583 86.7664
75.5129 178.448 114.899
43.8299 141.689 53.6306
60.5427 111.868 124.976
27.9578 81.4615 62.1987
77.9657 155.556 272.598
19.6013 84.3619 62.8043
72.019 75.3524 129.122
73.0417 71.7747 89.5877
83.6087 93.1791 75.5097
69.2598 124.708 146.361
33.8747 104.681 90.3219
43.4794 133.75 55.4535
76.1161 84.6248 105.881
21.2968 131.757 74.0523
63.0407 134.922 147.582
34.537 88.3267 133.434
56.1007 160.57 111.284
97.9559 97.0708 106.064
26.5507 39.9197 88.1853
26.9223 126.191 49.8009
63.8627 176.141 94.9723
83.3596 230.59 159.457
72.6728 87.4536 68.7228
90.9701 101.171 111.831
102.691 2.73804 141.556
67.0343 166.355 149.767
62.408 164.005 153.43
28.2569 131.201 64.7352
74.7377 173.296 89.0766
24.2511 124.486 118.705
21.1831 118.949 87.9049
68.7254 114.517 102.414
22.4027 143.115 89.4814
53.2974 173.675 129.721
52.4022 181.471 97.6885
81.4072 86.9356 72.8748
55.1678 150.193 60.8814
64.4453 171.459 83.4908
30.6387 114.214 121.684
89.1955 65.9414 75.1763
39.7341 65.7664 122.511
45.6122 107.761 98.6994
59.5422 79.1732 93.3503
87.108 96.815 64.4923
32.0446 124.518 68.5014
67.4288 83.9269 74.916
20.2223 125.346 122.665
54.6928 157.337 140.746
40.5663 139.383 71.0807
52.052 73.3721 123.305
63.7811 179.551 156.498
97.1833 94.4 76.6462
5.43729 108.535 89.1337
13.1276 144.975 102.734
59.8046 124.651 59.7514
58.072 135.248 114.448
56.9573 120.982 99.1494
14.4109 205.198 218.039
40.0189 141.63 143.821
35.3331 116.91 127.049
69.6375 135.949 148.497
34.6496 129.236 57.1019
31.5718 119.112 80.1563
86.1106 105.738 104.902
14.6672 92.2286 74.9395
72.6124 144.355 114.134
30.2453 230.558 221.474
84.9585 181.569 127.753
11.517 64.6411 95.5036
8.6873 230.771 202.173
93.3397 82.1492 97.1944
74.815 76.4319 69.65
48.4296 177.533 115.472
84.9719 170.192 111.774
72.0635 146.099 131.875
49.5992 170.473 80.0583
57.5666 137.469 150.598
52.9734 170.527 124.386
60.206 144.039 73.9245
31.6301 110.053 72.8609
48.8119 66.4107 123.051
44.2522 133.671 145.373
41.4291 193.949 132.748
60.2151 186.337 94.8688
44.0524 172.295 112.282
21.7781 230.527 273.882
18.9285 162.834 100.718
33.0528 84.0222 58.7474
10.5625 88.6638 92.3128
32.7866 90.2317 56.7036
79.0825 167 92.2124
5.36484 221.747 236.862
54.5503 134.65 156.842
69.152 91.0433 52.1222
81.5984 163.736 272.057
49.1909 159.815 146.629
75.0523 100.417 111.281
15.5077 129.679 102.272
62.4077 106.822 114.341
89.1557 59.1055 125.206
63.9494 154.172 84.5312
68.2762 153.987 140.15
67.4912 77.3593 132.999
53.1657 114.198 48.5803
40.3362 134.215 141.13
42.4946 143.402 79.1824
27.1379 128.733 190.529
8.89878 117.337 90.6706
60.4363 157.149 144.37
69.3855 194.859 112.4
14.7763 149.329 69.0932
64.167 174.327 151.109
84.6667 88.2535 63.0167
58.7718 116.598 50.8486
20.7895 127.045 79.9974
60.0849 129.812 151.455
89.4074 88.6285 72.7639
39.0526 121.378 41.2199
52.6953 154.144 79.865
57.6261 119.809 63.0087
82.2435 123.043 66.334
69.5495 126.918 103.946
40.9506 129.133 139.473
51.8428 182.517 124.477
70.3813 90.9319 122.859
110.493 189.6 273.598
77.4633 158.91 87.4429
47.9159 172.436 145.063
15.924 162.912 94.4538
55.7658 115.087 126.553
71.9078 155.205 84.4878
62.4275 169.813 116.928
88.6631 152.875 141.885
22.6428 110.953 112.933
46.0181 89.5956 97.8952
44.0649 181.216 75.7314
45.9662 108.338 105.299
74.6057 122.423 140.73
43.981 93.4974 68.6128
