ply
format ascii 1.0
comment Created by Open3D
element vertex 802
property double x
property double y
property double z
end_header
32.5847 54.2546 119.217
39.2871 57.1216 34.3773
29.2644 3.70348 47.1049
67.6867 63.2397 60.6833
34.2871 146.722 130.893
10.2398 86.1882 99.7127
60.9089 62.275 73.0483
28.1277 53.2045 25.3793
41.3718 48.0841 91.6866
39.4326 67.4597 141.944
44.3078 86.3022 152.505
16.8202 110.055 134.662
17.8539 101.009 135.014
63.4236 60.3144 133.056
73.8936 26.5653 52.4485
27.5687 54.3411 90.5113
17.6611 5.84327 35.1447
41.4205 152.001 113.434
37.747 111.554 133.102
18.2966 33.6524 24.2093
37.6666 80.4003 53.3864
51.3192 67.7248 28.544
30.6826 55.3265 79.1781
54.5123 49.9577 73.5044
42.8157 65.8982 23.3694
12.3435 97.3981 55.6529
77.959 50.8573 86.6923
36.2691 156.076 78.4748
65.6489 84.5951 140.311
42.6546 27.3847 51.0535
22.2265 97.6578 121.615
13.3209 35.9417 11.0031
57.6843 63.9392 14.7172
10.8516 121.73 65.2004
24.9739 77.8195 51.2817
66.12 93.2271 145.12
41.2645 70.0571 53.0041
12.2901 20.674 21.4887
68.6338 122.169 152.131
41.0694 80.2895 46.4144
26.4799 77.3808 203.922
26.0425 134.317 50.7892
61.9709 59.5883 34.0948
38.2468 150.541 62.4652
32.2061 149.96 104.873
32.0224 150.423 66.3196
19.1894 105.002 73.8196
40.2151 147.732 89.0658
41.6766 52.291 73.1978
21.767 19.2299 36.1023
69.0083 42.5175 95.22
103.389 89.7673 136.404
70.9935 155.939 60.0636
43.0892 67.4306 68.5337
39.0014 16.4545 51.1105
70.6358 39.8502 116.731
75.4959 57.2968 91.4556
53.5845 13.4905 56.611
10.2023 87.1519 66.1496
31.5041 114.856 109.765
32.9067 88.8181 107.963
59.1086 139.301 46.6549
43.6318 154.583 86.977
27.9075 150.35 78.2223
13.7152 94.0741 83.8219
58.15 57.9604 60.2662
37.9309 100.099 153.032
19.9244 125.315 192.86
79.3889 54.3349 74.9512
28.2632 106.91 48.3077
48.8453 95.8306 157.793
94.0631 60.5497 135.932
30.5436 137.156 94.4255
71.8338 69.8344 76.606
42.6 145.942 119.002
89.5304 54.2096 13.8331
60.3563 148.956 143.11
23.8788 51.9394 2.92473
46.0377 152.347 130.044
30.6635 133.68 139.981
50.2756 43.6469 52.4699
44.3877 145.573 55.1894
27.9157 131.026 96.8554
18.6861 93.7097 140.409
98.4028 74.0311 137.582
45.047 70.4146 13.0056
40.7021 54.8518 131.301
64.2858 50.793 140.373
8.89301 83.6704 116.831
11.5905 120.336 126.381
9.17089 10.8327 8.84252
73.6576 47.3619 79.0471
47.9961 146.894 83.0565
60.7813 65.8868 29.7893
26.2393 9.76549 41.6141
46.7562 52.8231 114.717
29.0124 125.884 45.7172
90.4285 108.34 149.171
73.9125 40.9482 90.1843
89.5862 86.9334 146.06
47.4636 145.918 137.626
65.7677 157.181 80.2579
34.1544 84.4494 147.119
58.0182 93.6993 151.001
20.5006 41.8527 5.86992
54.7615 158.503 127.971
68.9063 144.252 143.418
91.3796 64.6976 143.456
40.3921 124.027 101.875
29.0879 57.5227 6.28467
49.9978 156.922 118.222
62.7752 153.991 127.598
74.1909 84.1163 145.176
81.5975 52.2391 134.928
92.9838 90.7276 135.956
91.7896 46.7071 9.02054
52.6068 75.1622 11.7179
52.4601 52.6799 124.003
14.8829 78.5318 59.3941
61.9017 54.5381 125.954
55.9584 68.1759 4.09655
15.4281 14.0218 28.4126
32.7366 56.7736 14.4784
8.62932 108.283 71.8447
25.6838 109.751 118.548
79.318 168.973 90.8451
61.9896 75.4649 22.1172
89.729 40.9098 31.4816
34.5272 74.6378 143.556
67.3532 59.0352 68.3983
20.179 116.295 50.66
75.225 84.1113 156.323
9.78783 115.214 109.827
26.8207 151.954 113.147
45.9786 55.7168 45.552
42.6478 152.878 95.9162
69.6678 65.7617 30.2602
64.7507 53.9966 44.7197
86.0233 70.8429 150.247
34.3905 109.798 218.792
100.29 71.3815 76.3807
93.9044 96.3206 146.37
53.8435 150.219 131.596
74.6225 42.8636 112.353
55.4075 56.8993 25.1558
62.0494 53.094 147.796
72.9895 91.7985 44.0853
71.8606 151.145 133.469
81.1887 46.9119 21.009
95.3148 59.4425 102.202
17.4063 107.637 245.25
39.1967 49.9632 111.755
54.4511 71.8956 21.3377
71.2814 117.379 145.834
51.9177 135.58 152.417
33.6263 141.574 59.1972
34.4387 73.5418 94.3836
12.1452 135.829 188.061
12.0257 32.7294 3.1816
34.8509 64.35 58.9127
78.4839 3.01884 48.5686
71.4518 69.3032 152.832
102.642 83.0023 123.189
35.1614 72.6093 133.017
40.2556 60.223 120.845
62.4478 145.343 72.4439
46.2871 46.7129 104.334
59.1323 62.5679 41.0453
12.8208 24.8847 12.1691
48.9683 61.2867 116.944
15.3587 76.636 131.382
77.0284 40.8585 47.0153
43.5903 138.55 49.2943
35.764 61.2452 24.3742
69.0691 158.182 73.945
46.1771 110.455 152.991
85.9956 64.2691 2.60046
64.5923 45.7853 50.611
68.7232 131.033 155.268
73.4279 159.323 128.563
102.558 78.277 129.054
39.2798 125.219 138.978
31.615 54.8203 110.79
38.8513 119.538 121.474
22.9155 131.214 120.183
37.2809 111.598 145.046
74.287 48.08 123.425
22.8198 130.436 187.301
82.9416 70.6934 57.9597
23.4155 27.7151 33.0447
24.3292 111.483 125.039
42.115 109.491 102.221
77.0064 133.839 137.912
76.5908 40.601 104.827
68.0133 138.454 148.116
61.8971 48.2017 128.646
62.5487 65.5649 3.83427
50.7996 74.4402 91.5051
47.6608 121.522 45.4768
62.7143 134.32 93.276
10.3122 99.2886 74.9256
54.1092 160.782 79.4343
40.8518 116.615 128.303
75.5973 90.3791 53.096
9.70303 121.174 92.1309
31.9377 71.9568 51.3942
103.14 75.0582 95.6079
86.4891 53.4848 91.8066
92.4783 55.2118 95.6741
59.0605 136.482 150.529
51.7141 164.445 102.193
44.8919 142.782 94.6915
29.1918 35.9754 41.4258
52.7555 149.644 143.359
32.6664 29.8432 40.3058
32.2426 123.651 145.448
97.3569 86.2916 146.888
46.2466 159.293 106.16
17.948 144.992 83.6222
30.4264 21.7001 43.8
73.6795 153.822 109.915
76.1388 75.0944 151.528
47.3859 89.8933 40.6284
9.0033 127.255 100.863
84.355 61.847 91.7976
62.0402 149.815 135.75
40.8947 43.6447 107.295
69.6518 48.5014 40.7303
96.7513 37.4925 28.3451
87.0102 52.8452 124.246
75.6798 69.1809 55.685
60.6892 165.722 102.119
50.1279 54.0539 67.9097
47.3482 118.137 142.913
62.001 150.271 89.3137
60.4683 159.283 69.4068
25.3165 154.051 91.5567
51.2547 107.931 101.674
91.4389 41.5729 19.2427
43.673 52.3736 99.4895
17.5508 82.6662 134.883
60.3256 122.117 94.0151
47.5582 152.194 60.5607
57.3782 135.769 83.8359
76.4207 47.6399 43.7853
50.9061 60.3862 35.145
66.3247 17.7179 53.779
8.28391 129.512 185.145
19.5339 87.3563 51.3041
49.626 141.507 144.07
48.9052 115.386 107.637
33.9921 152.734 96.6663
55.881 107.811 152.203
60.4606 143.893 148.036
67.8756 82.3582 149.16
78.3002 58.9253 65.2939
54.1377 63.5819 55.0848
62.7262 72.3189 157.118
59.351 78.8274 89.849
47.2217 44.7501 44.7525
34.5153 84.2394 224.886
73.875 50.7499 32.5163
10.4001 105.612 104.799
39.5271 64.2428 5.10846
56.2592 154.478 71.6435
43.4962 64.0154 29.7667
19.1402 115.908 105.94
13.7764 99.8467 118.972
48.1568 71.5591 47.9799
16.9069 67.4537 72.0609
40.9014 142.835 105.12
30.8884 119.079 47.2436
86.6368 19.0635 41.7934
52.3148 107.746 38.682
49.578 60.5684 70.8719
31.7735 122.517 100.691
41.0046 54.3823 42.135
47.1851 59.7122 62.527
17.2228 93.1645 102.666
96.1559 82.768 132.22
50.6881 164.224 113.959
11.8983 89.5369 126.614
88.2168 54.3264 2.58061
81.4132 63.8331 116.038
27.5382 68.8976 133.12
15.8642 23.9961 2.32491
80.3597 44.1864 37.3919
74.9801 54.9717 130.377
51.085 53.7746 136
37.1486 81.6684 101.907
22.394 146.892 91.8767
19.297 91.3078 118.758
64.3872 105.307 110.812
66.7111 124.842 64.5964
69.9649 39.062 51.7594
45.279 69.528 2.38237
39.6826 30.9841 45.2587
69.8719 66.2703 143.565
57.7894 40.0032 115.575
45.5789 98.7453 40.8141
33.4135 108.84 127.96
50.8559 44.9641 81.9783
15.3307 5.05566 4.32732
69.4307 56.2576 40.4617
78.9857 68.7941 2.30318
65.3903 42.0438 121.203
19.4836 125.494 64.117
69.0495 80.8467 158.996
65.7705 70.1709 26.5768
57.2345 70.5185 147.269
64.8314 40.6358 86.2138
96.6267 103.83 144.681
17.7547 39.5616 15.1493
39.1187 57.5946 91.09
98.4035 60.5903 114.002
59.4633 113.706 107.87
83.217 58.2864 101.289
16.3316 107.829 57.2672
38.0046 109.539 151.806
19.7344 88.0025 241.057
36.3849 50.9179 83.9483
20.6015 120.734 135.517
8.91259 124.179 191.419
50.261 33.2418 53.6718
61.725 106.023 141.584
79.1979 163.598 76.6524
84.1534 113.628 143.581
42.7998 72.6709 90.5703
76.4761 107.08 126.082
23.2908 73.7974 130.914
85.6604 107.751 66.4893
55.6426 21.9516 54.6337
52.6729 110.178 110.789
44.3852 62.1124 134.008
56.4843 52.909 50.2369
79.6493 60.5578 145.943
10.3185 84.8429 86.9613
18.6195 137.094 197.634
56.7639 38.5415 54.0891
59.1838 84.391 159.101
77.8515 145.767 131.195
16.8793 74.239 125.172
41.3822 114.144 106.95
14.3449 143.881 91.2513
20.5362 96.8971 227.736
78.2373 138.63 86.3813
55.3029 111.326 142.622
68.3064 87.3685 107.237
87.1773 62.0734 70.0364
27.3613 66.422 87.1078
79.5977 124.824 151.215
35.6316 61.3185 67.2644
42.4228 64.467 112.26
59.2042 130.45 54.205
31.4169 90.2719 265.797
72.1561 138.39 59.7546
85.0742 57.704 139.984
56.0164 140.97 76.68
65.6124 86.7601 91.1966
53.6345 135.4 52.0851
91.5333 2.83146 37.3723
77.298 61.7248 29.4434
107.898 23.15 9.99175
89.5454 36.1449 23.6016
82.109 56.7276 111.234
77.2615 112.368 154.235
65.9659 98.6599 108.566
27.8988 88.9402 45.6891
24.8475 83.6522 139.703
10.5478 129.05 197.849
65.866 89.17 156.617
67.034 154.625 101.107
80.4576 126.99 45.9139
40.1594 155.335 69.8292
52.5748 123.527 151.734
24.0925 103.091 142.563
55.1684 57.1949 40.8362
10.7041 98.6974 103.257
52.4061 115.41 154.093
69.6622 152.094 140.636
78.3399 149.711 124.211
83.6285 50.231 104.625
78.1177 157.981 102.446
59.9692 83.6639 150.555
26.1628 115.987 243.765
82.6046 68.0269 87.2699
87.822 82.2293 65.5249
102.236 7.8174 27.1708
20.833 107.446 115.919
105.798 25.322 17.1489
21.2009 123.332 101.08
66.2343 6.75647 52.4167
111.547 19.7871 3.04582
56.3344 107.305 43.7441
33.6159 94.9978 211.594
8.54334 82.0415 78.1291
48.6854 153.789 67.4495
50.6953 152.788 91.0375
26.8934 89.3044 120.608
23.793 140.773 64.9415
15.872 143.73 107.394
69.4312 75.979 14.2487
78.1054 136.754 128.317
48.2476 61.4663 144.675
63.8471 160.962 120.798
87.1804 55.5858 129.707
17.8558 131.765 59.5972
45.6069 57.7784 83.0227
54.0297 101.036 39.3352
48.7888 17.0961 54.1969
78.8202 145.475 140.488
24.1568 90.6151 102.802
31.2517 105.773 144.805
56.3883 90.2313 39.5687
71.904 114.793 96.0506
39.8268 115.655 114.826
69.1677 160.167 101.007
11.0578 124.1 73.8229
99.7881 63.1983 94.8782
60.1472 93.6454 159.043
89.8762 129.638 47.9767
10.7129 136.088 87.3508
97.7444 68.807 128.366
89.7934 108.395 46.1534
92.1547 66.0548 73.2287
69.8336 83.7944 125.237
107.229 12.3302 19.1128
40.1437 133.271 52.2068
76.7827 14.4727 50.5039
26.6034 93.9377 144.636
43.277 101.085 215.583
15.1781 136.683 76.7749
88.201 57.8093 22.8089
50.2777 142.881 60.6115
9.60129 24.7966 2.83265
60.3205 3.64476 53.4636
64.2333 63.0275 148.815
57.8716 77.166 98.5677
43.8568 123.814 109.803
91.7518 95.1221 51.4837
80.268 46.3107 98.4724
53.8641 126.409 156.746
59.8074 161.462 109.866
37.4442 124.785 46.9004
66.875 54.8106 28.8462
42.1117 42.9879 49.44
84.5203 81.1625 55.8313
62.5357 89.7314 43.0116
84.9422 159.257 102.763
59.8491 61.8457 142.474
29.7073 114.164 234.744
96.5428 64.033 83.994
94.7556 66.0797 117.743
109.08 134.392 67.9149
14.4894 2.44921 266.685
79.9931 79.9623 114.88
111.588 13.7336 5.97744
40.8226 128.806 131.087
82.9781 131.067 144.146
64.6663 96.4654 100.073
62.5443 139.617 57.143
79.2497 56.0772 121.647
73.5445 129.209 47.4777
71.8244 55.5079 71.1745
93.3725 26.2948 35.9667
92.0741 100.433 113.696
68.9177 109.033 154.737
26.5828 118.661 102.897
87.1416 8.94874 43.6999
79.0578 62.6874 73.2432
73.3346 80.2635 47.0798
18.7562 133.74 101.468
40.7672 86.3553 272.374
68.3678 83.6726 86.4452
25.8377 77.2002 245.706
20.8144 67.7495 62.4871
75.3992 55.4946 144.483
73.24 73.3431 3.01433
15.71 72.8092 84.0319
10.6653 122.083 115.081
63.9336 36.7984 109.532
37.5325 83.3669 261.034
22.2648 44.8316 18.3739
44.3311 129.966 144.679
49.8776 66.7337 96.8944
36.8928 103.687 253.366
62.8846 95.2192 91.7014
34.2398 50.731 104.161
20.4285 106.902 64.9906
54.215 64.8853 37.1811
96.3634 116.079 54.9998
54.0264 76.0546 154.552
59.5586 138.467 67.4397
64.9833 132.442 48.6142
99.0554 47.647 5.88081
61.4944 103.366 128.107
38.5138 92.5017 228.678
92.408 49.7114 21.731
85.7031 141.821 55.4987
23.412 100.424 54.6207
102.648 69.4919 115.801
40.756 142.671 136.713
45.7744 147.393 67.9321
23.9309 57.3752 82.0169
29.4013 56.1961 97.0655
15.0529 112.613 69.235
102.647 34.6064 14.9748
41.8075 64.7174 98.3963
67.7017 31.9736 52.46
61.9734 100.974 159.21
60.279 146.519 50.9796
72.9786 65.6962 116.918
35.4816 105.242 42.3777
22.0293 109.536 104.147
54.0844 44.3461 88.6887
75.3838 108.684 43.1596
70.1759 166.623 89.0602
57.1454 147.871 64.5548
30.2233 108.802 250.914
74.6122 132.461 147.526
25.9792 88.2073 261.97
86.7776 93.3486 152.413
81.1259 156.954 65.1072
78.6914 81.2548 84.9357
91.6375 95.9939 67.8524
60.5691 154.284 61.3647
99.9095 29.7202 23.4732
25.5862 101.207 217.522
90.8508 101.644 149.73
47.4073 105.651 156.579
15.3019 129.13 67.7949
73.9049 140.02 135.82
14.0059 92.1478 112.95
34.5132 52.0271 91.7898
83.6949 56.0513 31.7418
72.7849 59.2649 33.5465
20.7711 84.2656 231.425
36.7876 97.8659 42.4832
12.8132 5.73642 23.3532
28.8197 67.4738 59.9605
71.9293 56.5916 122.43
28.1352 134.975 57.4326
34.8992 101.336 225.182
95.482 112.744 138.136
49.7101 109.564 225.346
81.9128 98.8306 46.9788
83.8597 74.3479 65.9538
69.6279 168.161 97.1471
69.9467 116.459 111.529
85.4503 87.0699 138.614
30.6089 93.9836 136.573
101.848 98.135 111.517
39.0107 115.804 249.796
90.0071 157.066 109.534
66.89 157.881 134.411
67.5631 76.7174 81.8963
59.3868 102.589 104.518
31.6816 126.567 76.872
73.6662 71.1193 24.7637
9.86152 90.7894 61.0505
76.8325 134.542 118.903
98.7783 46.3975 17.925
35.3353 150.293 123.864
38.9219 109.751 121.112
27.5589 46.7005 31.4731
94.5958 124.824 55.4551
45.5216 157.202 77.6794
68.3064 76.7145 90.1005
55.3064 73.8423 102.932
103.194 106.639 128.593
83.0612 107.86 50.8
77.3169 104.045 157.706
48.2609 127.455 41.9213
14.7883 19.9598 228.297
61.0922 38.3364 97.4935
31.3453 151.313 118.074
96.348 14.9899 34.3698
88.8156 71.2359 114.983
94.4556 59.144 7.54118
73.6267 95.2511 153.406
31.212 101.19 149.947
14.562 98.5199 93.7698
96.4163 6.07707 32.9392
100.135 40.5045 19.7079
74.3051 95.6509 106.288
69.9611 142.428 102.57
37.9336 98.3356 262.189
82.0339 120.026 58.1034
100.418 98.4971 133.181
51.8104 49.6005 47.9907
64.8804 77.1842 46.5719
86.1666 136.513 119.834
7.06875 126.053 77.7494
94.4803 80.4888 113.309
54.3431 65.7222 152.854
7.13752 104.547 63.076
24.0808 82.9722 252.767
78.398 138.142 50.7511
106.317 112.808 58.1583
95.1257 80.6168 122.843
10.2817 111.187 57.2884
18.1759 102.155 251.72
36.6548 134.64 46.5174
81.6985 66.5301 64.8383
25.6626 122.446 53.718
86.4331 101.056 63.3206
48.5166 53.8627 127.861
16.7086 138.024 98.0502
47.3142 75.1269 150.948
60.2284 124.679 46.044
53.5513 78.3951 42.0744
78.0726 27.0398 2.91918
34.4979 64.0666 97.8389
27.7426 60.3369 66.6014
94.0594 97.2675 128.684
68.8671 117.774 42.4522
109.542 9.49999 12.3597
49.792 2.01589 51.6289
86.9405 80.181 108.51
12.6875 104.514 66.5909
41.4042 122.543 39.6175
36.863 157.468 95.621
27.6795 81.3404 228.521
15.5791 89.0637 257.458
100.258 23.6992 22.769
103.442 16.9313 21.6651
60.7297 122.003 152.554
57.5356 76.1772 1.63359
41.9688 4.21931 49.4298
42.9244 105.44 225.25
85.0001 34.3497 42.2455
10.7616 139.455 106.5
101.534 66.3781 121.607
39.5176 58.7401 108.956
16.7366 61.469 90.1065
7.81359 92.0866 116.043
21.9711 100.207 235.251
67.0872 123.957 101.896
56.983 147.825 84.4002
21.7035 99.7393 241.91
81.7574 122.067 125.96
81.765 91.5919 58.862
37.419 1.95585 51.6336
29.2945 89.0934 229.547
92.8212 124.569 141.566
41.7126 134.397 121.156
69.4747 1.65946 51.0954
91.5482 76.8484 101.525
72.9089 71.7979 109.697
24.6847 147.902 100.043
29.1959 97.9383 46.7112
93.3184 54.8869 109.004
28.0381 50.0101 17.0729
33.1973 59.9982 129.71
24.299 53.9214 100.729
63.1461 146.334 57.5482
91.6579 89.5006 59.7679
75.0125 88.476 84.4047
31.9312 125.561 38.8821
59.8322 72.8227 78.3105
72.1359 160.997 116.603
53.9933 127.544 47.7315
66.5346 108.154 43.5858
39.8554 89.2825 218.504
46.9183 4.33698 46.7998
97.0257 151.32 105.479
15.7476 12.2112 272.455
27.0133 127.662 116.716
76.971 165.856 102.825
80.7352 74.9397 109.801
111.083 129.564 185.892
102.057 150.986 98.8245
31.9815 105.866 243.25
25.2491 90.8108 217.894
61.5671 28.8074 50.9901
16.6248 37.5318 1.61234
69.2475 73.3187 103.123
81.0473 134.115 92.2185
92.2705 121.532 135.481
49.4371 93.9598 216.152
43.7353 63.3567 104.564
87.3749 78.1325 116.252
80.61 153.874 130.815
83.4441 128.541 135.328
11.5766 18.3075 4.56671
62.7411 82.9521 97.3337
69.199 85.5314 98.9627
86.1173 115.453 49.5318
36.8556 104.546 211.66
66.2121 82.8891 111.181
64.9928 112.254 89.6062
20.4275 92.0589 234.014
87.1049 162.5 75.8662
46.7413 84.6769 219.081
79.8671 50.0499 113.463
8.33607 92.4438 77.2455
106.153 30.3375 4.30697
69.4089 67.9013 1.80551
41.9111 84.0016 231.851
35.046 92.0869 236.251
51.0712 112.132 238.021
24.4281 102.512 228.382
87.9747 162.461 91.5917
72.0536 125.263 107.82
79.6283 83.4591 74.3534
50.5223 59.6839 138.12
64.8873 79.8805 103.776
63.1136 68.1971 141.706
97.8529 157.067 94.0076
61.7854 70.0043 110.469
33.8659 44.4474 34.9331
31.62 78.6339 237.665
12.3954 110.922 90.8308
9.30541 94.5402 97.4939
25.8187 96.7039 253.581
70.1958 105.299 95.1195
64.956 115.935 99.4036
57.2002 142.707 109.724
73.1908 135.251 109.07
35.2228 35.7278 46.4458
63.5203 107.469 152.962
41.3717 114.504 234.981
44.5154 94.6083 257.018
72.7534 81.0899 107.879
29.7616 98.3601 260.676
75.9425 128.916 57.1982
9.61288 3.73927 1.48557
49.8203 65.4334 1.43673
52.8355 130.37 134.675
85.8788 133.465 137.52
91.5016 68.9695 79.6065
95.173 103.949 53.3621
38.9031 112.723 229.523
54.0108 118.783 222.586
94.849 137.549 55.5186
106.48 79.8517 88.946
32.4634 66.641 1.34191
71.9558 112.59 73.2905
77.6098 31.5261 1.65707
70.1223 94.577 84.723
16.4731 20.971 237.926
55.56 133.514 120.089
48.963 93.0756 224.606
32.6131 80.1511 250.162
104.037 2.48606 19.3555
45.3278 105.672 81.6365
34.9759 25.9785 46.8224
26.9725 108.951 231.125
53.6971 118.1 124.951
16.4712 33.4955 225.204
47.1632 86.1596 253.664
8.31579 70.4081 81.0505
42.4478 60.7055 139.464
82.8925 85.0297 151.672
79.4429 89.4372 148.636
107.801 81.3428 104.01
100.719 141.251 61.006
92.3248 47.4341 1.53661
72.478 91.6876 95.2766
65.3907 92.9192 120.391
100.453 116.696 123.906
65.8587 158.007 115.151
78.3642 64.0945 92.6967
48.1755 120.018 245.432
79.8765 145.128 112.89
40.8445 117.686 240.593
89.0154 149.368 121.015
41.2963 95.5874 244.766
77.466 71.7668 116.499
43.1185 107.293 251.998
83.4534 121.062 112.827
89.1723 113.259 61.8745
107.987 43.6243 4.37343
43.7234 98.7978 233.865
41.1129 94.5801 101.192
17.6259 56.8479 218.943
86.0247 147.457 108.808
26.567 51.7072 105.608
109.041 93.9074 95.7664
101.621 115.899 61.037
38.0744 44.1023 38.5886
76.4322 16.0342 4.88719
99.3366 88.54 62.4379
97.8422 139.714 118.362
58.2643 109.421 105.985
44.2791 113.39 76.7236
73.8553 105.488 100.17
32.8531 44.2688 39.5334
23.53 48.3818 12.6357
37.9129 80.8655 248.634
105.476 108.354 106.971
12.0668 1.05779 12.5792
24.9304 58.3142 234.257
112.369 122.639 76.73
13.8067 110.507 102.723
51.2949 148.206 62.8354
97.7356 25.8186 31.7458
94.3434 1.30036 27.77
49.3702 92.5721 248.968
49.5064 111.408 254.12
8.84352 13.4662 1.04482
59.5095 160.898 90.2456
