ply
format ascii 1.0
comment Created by Open3D
element vertex 625
property double x
property double y
property double z
end_header
19.2918 91.2504 222.63
33.4757 40.4664 180.327
49.7652 82.1718 117.701
22.8907 99.7961 115.352
13.5506 132.276 60.4491
32.5697 88.6377 124.93
31.944 19.3166 195.991
47.9783 52.1771 173.701
34.6547 53.4883 178.446
43.6872 36.736 267.373
29.468 98.1439 200.146
18.8302 107.9 102.252
17.6675 111.013 94.704
11.3272 143.125 67.0579
20.2054 62.1222 212.622
29.367 81.1033 221.037
10.9678 126.184 93.2192
12.2 155.126 64.2234
38.3944 35.0971 235.128
9.63149 149.511 53.7195
47.524 43.734 244.897
35.2594 31.5099 199.488
95.3868 102.662 87.7123
73.9735 75.1065 112.833
73.3019 79.5494 104.644
42.9956 89.5091 244.452
16.8886 120 65.9773
30.5569 46.7152 160.928
45.13 48.7122 237.068
34.6852 119.72 139.872
21.8512 106.842 111.113
38.7567 19.3372 234.027
22.5279 117.885 61.5256
37.9632 41.5275 247.69
37.4666 51.3469 255.868
32.0661 95.9529 129.487
51.9108 114.8 148.121
30.699 43.0046 170.972
13.8315 128.585 66.6811
60.0796 84.3886 126.276
36.4467 39.9043 256.633
38.4996 172.232 86.6373
46.6227 23.947 174.863
39.2512 161.994 107.349
43.5904 59.102 211.804
32.2437 172.952 80.6494
29.3962 25.7629 191.104
37.0445 16.0113 212.678
20.082 142.3 114.31
80.2369 140.926 95.9276
75.9399 82.6364 135.413
30.9962 76.2781 213.769
91.364 79.4419 108.066
37.5807 100.381 234.65
10.9301 56.3082 226.043
43.1405 86.3464 116.273
62.309 99.4119 143.815
33.842 47.7852 234.447
15.3188 133.261 113.482
17.5227 119.271 114.528
8.45162 70.7318 219.169
23.4814 109.1 120.395
15.2178 42.9213 216.676
12.658 137.997 87.2017
48.5837 57.9741 245.871
25.5499 53.5985 203.609
37.6484 29.9095 181.545
34.6403 98.7197 137.311
60.4869 114.804 147.148
41.4273 70.3524 188.008
47.8226 89.9966 85.9804
44.7801 73.4444 233.58
23.8341 149.299 39.3096
27.0172 84.9911 197.424
68.2313 82.5649 136.003
32.1862 126.272 139.174
52.5645 54.9722 185.184
32.2899 35.1001 204.973
19.9584 53.0625 215.912
14.3954 117.151 79.9868
12.1428 141.244 58.4421
68.3497 140.903 149.69
14.516 55.0396 207.4
39.2839 90.4508 132.726
41.0517 96.2756 194.159
43.3344 70.5824 249.864
32.0952 43.775 205.63
13.631 123.221 73.5513
36.1338 59.2598 249.547
54.4448 155.668 133.772
12.3261 136.811 70.6739
35.3151 60.0185 192.346
35.3201 58.3452 213.824
61.5386 128.219 151.167
37.0987 91.1127 234.123
11.7138 152.125 71.7488
17.8363 155.22 42.1
40.2786 60.3828 240.081
23.9224 94.6915 193.345
27.7822 112.228 63.6735
58.1195 122.348 75.0941
48.4864 47.3876 165.152
64.3612 121.022 151.059
41.1789 78.6969 219.376
33.1825 33.8963 173.265
35.7528 103.565 198.512
60.3722 135.679 150.831
64.3534 74.1171 112.287
29.2789 34.8669 236.818
13.1983 46.0709 226.006
39.1413 96.9273 226.218
43.5437 80.1253 247.759
26.9457 103.339 125.531
27.6119 153 117.469
22.368 149.885 109.071
35.5594 83.4402 200.521
18.0171 65.9252 191.84
15.6118 140.382 50.9683
28.7415 99.8953 99.6748
58.473 38.6243 167.143
37.6236 21.7693 203.99
74.9185 105.302 47.6537
76.4182 78.8194 128.27
49.4275 67.2646 238.908
36.5407 129.783 39.1632
17.6614 127.965 116.818
39.0837 154.131 131.327
33.288 166.002 94.4969
15.3699 55.2341 254.907
48.7123 166.014 95.5207
29.2255 156.077 110.499
16.8595 116.109 102.948
37.6113 63.5917 175.271
84.4522 78.9072 121.239
50.2319 84.2516 132.851
29.7064 160.667 45.7276
25.6852 47.8808 178.898
48.297 99.2812 236.906
22.1187 105.468 228.374
33.2574 51.9531 241.602
73.8884 88.6986 139.477
86.9571 106.446 144.725
20.5006 114.889 70.754
26.2118 33.0062 250.139
15.8139 67.7155 217.87
55.9608 123.552 146.772
48.1178 101.398 145.389
54.8163 55.0499 167.066
46.1861 89.5731 110.284
58.5848 85.0103 137.318
41.1396 25.6783 242.278
14.2531 120.248 107.837
58.2777 98.3312 176.861
30.4492 32.1299 165.954
10.9354 60.6701 214.301
27.1599 165.634 89.3248
19.1373 113.181 109.957
83.9387 162.535 57.1973
81.8247 90.6652 136.398
35.8507 100.136 82.0788
35.0141 82.4419 226.478
37.3782 19.066 246.987
30.9449 23.828 211.863
9.89942 145.394 77.2169
32.8329 152.849 124.864
42.9573 161.027 130.357
14.4324 150.942 48.7265
46.6454 124.379 70.0819
48.9301 65.0275 203.26
92.8222 84.7325 101.313
44.3971 30.4363 250.506
31.0528 170.575 53.1617
22.0043 100.921 99.3944
55.1869 43.9226 206.637
21.2921 115.763 121.579
125.158 167.736 131.419
83.5577 81.2583 132.605
44.6092 18.1798 199.188
44.8976 170.504 81.6823
43.2202 16.6052 207.717
29.5132 43.0054 248.075
35.6121 115 52.4701
46.146 103.042 222.426
47.1808 41.9999 205.99
28.2086 44.7061 215.184
17.0249 147.907 83.3464
46.5825 132.099 142.17
48.0108 147.529 136.142
54.4753 107.107 147.792
56.1062 145.702 138.023
35.3896 133.995 141.283
32.1964 36.2783 156.11
17.5327 145.674 103.159
33.0159 153.956 39.661
51.3937 37.3864 168.372
31.7532 173.464 61.4272
48.5755 115.416 52.4327
24.7563 53.9463 192.15
95.7958 149.581 117.416
54.6178 97.8291 142.777
40.4958 14.8409 248.727
48.2376 165.51 60.4738
22.9313 67.3937 201.237
42.4121 119.823 46.5172
33.7565 44.5458 151.738
39.0534 35.3489 193.728
36.1855 73.6567 180.021
13.4852 129.355 85.8866
64.4546 156.11 131.561
47.1196 89.4114 230.295
45.0875 129.077 43.9238
78.4141 94.404 142.184
63.8899 29.3712 211.894
37.1178 137.5 37.5339
39.5802 45.0501 209.694
71.4322 24.753 181.664
43.8721 105.891 144.739
52.0103 76.0658 245.588
45.1153 170.978 64.6682
43.6671 92.3449 139.322
71.3164 60.9094 241.136
62.9409 105.635 147.77
39.0221 158.797 48.878
75.5668 110.755 148.536
39.9971 147.399 135.408
22.6165 169.726 51.9934
59.2377 91.923 141.407
19.0622 115.525 87.1414
90.9117 158.593 55.7313
60.4444 76.365 105.074
31.3521 146.017 36.2125
50.8914 143.874 44.5988
59.7783 34.6892 200.395
40.4327 163.344 100.398
43.7909 153.644 54.7256
34.8608 110.427 61.5034
42.757 24.0441 218.126
82.1106 82.5523 99.2003
42.5297 49.5897 218.841
14.7907 120.439 97.0998
25.2562 24.3177 244.583
52.7298 156.211 59.2716
58.7446 163.57 109.602
96.5862 148.256 136.245
70.9149 132.366 152.657
57.3014 92.6018 218.255
43.2818 118.006 76.0112
58.9533 75.8314 122.573
40.1881 54.1074 171.298
39.0445 168.407 55.3274
56.8957 94.4712 183.761
68.5249 79.463 128.923
50.8454 116.736 72.9015
38.4054 104.481 72.0184
27.3493 112.856 125.987
16.1629 149.699 90.4326
40.0774 108.083 213.594
14.3754 165.392 51.0009
29.851 68.9109 192.258
20.4925 108.639 74.2791
40.7761 158.628 117.52
22.5373 164.35 47.1142
63.6816 96.7209 84.4855
41.0606 64.3537 233.828
46.9451 104.464 200.326
80.8735 122.196 152.477
10.2889 129.46 79.1634
45.0442 96.5142 206.037
39.461 56.2545 230.537
17.1069 136.775 106.005
45.5644 83.7069 187.687
63.9276 72.5628 118.514
51.2144 85.8674 246.767
35.7398 97.9295 94.6825
117.644 176.135 114.432
53.4945 30.2376 211.872
65.7088 131.144 81.4977
47.6125 28.4516 230.384
40.1436 49.5681 198.058
119.774 156.683 137.59
45.7155 60.237 177.539
23.6061 124.086 127.707
37.553 28.5925 156.369
82.0722 135.188 153.159
62.9004 51.2919 190.077
85.6272 98.0277 137.78
133.991 169.086 140.883
49.7722 84.871 105.385
72.8904 140.109 82.0909
34.4499 103.276 76.7634
51.2782 135.348 47.418
64.7661 24.8263 192.096
21.6297 128.071 49.2055
53.6049 82.9246 94.6341
24.4058 46.1182 210.284
28.2637 130.169 130.559
51.4712 79.952 125.152
36.2008 167.925 65.2453
44.378 85.7 134.399
15.3342 27.1937 227.144
15.4546 70.3963 228.19
26.7839 144.805 118.155
68.4517 167.959 103.547
12.4217 158.012 51.0484
51.1391 102.604 213.487
94.3164 178.162 78.238
15.1643 1.93094 184.873
51.6736 18.2288 189.362
27.3428 120.968 131.678
53.975 166.497 81.1268
98.7124 94.0106 101.63
53.8234 91.1906 237.722
47.8587 68.081 222.14
45.7003 153.571 134.697
91.3178 90.4691 96.2058
42.9079 96.8779 81.9907
39.7426 103.806 60.2098
66.7947 90.8305 141.866
26.2682 120.649 49.1385
42.1178 35.9344 151.304
43.1849 166.418 90.0328
76.2134 76.905 120.582
78.5962 129.09 154.166
87.8866 102.713 78.3279
41.6927 126.111 143.221
18.2577 133.905 52.0953
38.9233 112.993 143.08
83.4977 111.124 148.475
97.5093 112.871 148.027
14.2054 147.866 62.3847
65.7811 111.69 242.978
71.0518 101.02 145.494
12.3117 127.908 104.189
24.0697 68.5632 223.51
42.2493 160.294 57.8918
65.8492 161.622 102.574
33.499 142.634 135.413
55.2773 21.3918 209.359
26.1148 95.2192 107.463
52.6327 76.8876 234.245
41.6305 174.683 74.2495
96.2936 124.18 151.389
48.0598 94.7939 76.9406
74.7543 133.208 76.8855
31.5274 144.845 128.989
94.5163 96.1268 138.989
28.1809 78.0769 206.154
79.8677 116.325 149.541
79.8782 91.4485 86.9642
49.7866 162.19 110.451
61.4355 141.896 146.349
69.8475 151.204 128.266
45.6826 29.305 179.869
20.894 161.374 84.8777
12.0767 120.652 86.7996
54.4201 138.91 145.994
28.2432 55.5978 210.978
25.2324 132.392 123.189
79.0364 102.109 82.2987
35.778 90.4325 103.711
94.4368 165.711 62.3967
33.9005 159.498 116.141
31.8797 34.4261 215.024
95.0285 151.427 127.843
20.0258 123.453 122.269
28.9118 93.8279 117.912
85.5276 151.722 136.857
97.3219 87.3816 125.878
34.1339 108.911 133.225
52.8272 65.4478 179.226
38.1886 24.9876 225.382
94.6502 27.9222 271.084
82.2521 79.2383 111.831
71.1439 81.7683 97.0247
47.532 88.4826 97.0455
29.0032 107.639 71.9654
49.8054 157.502 102.129
51.8761 34.4472 227.444
65.4605 110.048 113.802
15.7117 141.114 94.5566
22.336 110.276 128.831
18.8753 106.292 87.841
12.6476 136.609 99.6808
22.604 103.717 80.9652
81.3095 111.141 40.9094
42.1419 20.3743 189.491
75.7916 141.091 148.312
53.3864 20.9298 198.654
6.99025 45.0319 223.055
68.5445 151.885 119.201
28.1231 99.946 91.7185
49.6331 13.1565 148.566
63.6938 160.26 120.933
36.1852 176.874 68.2938
63.1911 124.624 52.6677
100.551 100.063 96.54
56.6508 158.992 123.679
49.6483 19.0546 212.366
79.1944 103.032 145.799
68.4789 112.13 149.985
36.557 105.655 140.302
29.4691 136.025 134.141
27.0084 99.512 216.879
15.1062 155.863 81.4997
58.7415 37.7891 183.011
41.9482 136.889 138.924
82.1612 115.572 67.683
41.3978 90.1017 98.1051
36.4508 93.3046 85.5545
50.8477 172.673 74.2935
87.7403 103.798 112.08
98.2832 106.208 140.605
60.8273 30.2177 165.221
39.5397 150.451 38.0667
58.631 125.337 82.4633
73.7399 145.435 141.368
89.2299 135.255 149.989
58.9286 25.2332 202.775
44.7103 149.37 42.4672
72.7113 158.168 109.001
44.1435 111.676 57.8802
30.0437 161.011 103.721
32.7721 26.7175 242.171
46.5713 35.9193 236.463
68.534 107.188 106.474
66.7721 162.304 78.5412
50.0417 52.8958 195.637
56.1946 30.1047 223.967
36.2189 81.7419 192.248
49.3097 38.1085 197.505
61.3365 151.741 64.265
118.535 172.557 106.023
45.7487 138.944 40.0617
74.1204 146.366 72.8635
23.4464 139.308 39.2422
52.148 96.4506 225.307
56.8356 83.5468 238.705
45.1204 115.825 145.738
27.4269 113.072 133.637
73.2551 119.673 63.6646
63.6873 149.368 140.249
72.7552 121.424 152.345
47.8517 141.808 141.723
83.9945 167.19 61.4426
63.3552 66.7067 196.961
46.8747 95.3834 143.812
45.3403 161.969 119.865
53.4831 166.189 71.7171
54.9861 160.885 66.81
45.78 102.236 64.4376
57.067 140.828 52.8643
126.72 177.811 114.27
83.6476 147.912 143.589
28.4191 102.504 83.7236
55.1109 104.164 64.2721
124.782 164.156 122.897
41.7102 51.0562 246.465
70.6439 59.5918 227.443
36.7625 84.3557 114.468
53.0395 145.464 62.2582
91.999 92.7257 133.687
93.0719 97.218 92.3625
77.927 47.3993 240.17
58.9386 143.703 60.567
66.238 49.3773 235.418
126.535 163.165 142.165
18.0551 153.243 74.9793
48.6797 68.2891 214.592
49.3331 127.547 146.631
49.3111 26.0066 220.361
33.0142 164.701 49.9349
58.1428 23.4871 221.804
8.03572 12.7031 183.614
31.7831 88.7888 109.224
96.1179 174.25 70.6833
58.2697 96.2941 228.701
63.187 105.95 63.2825
88.2038 87.8741 131.083
62.504 109.198 53.821
60.123 88.1087 229.231
8.20951 148.292 64.1826
72.8362 151.473 137.859
24.1728 138.955 121.629
53.0667 163.984 88.3741
94.1567 111.012 107.543
108.572 117.107 140.146
55.5409 125.182 57.173
81.9746 89.6095 95.2591
26.3918 158.825 98.8769
91.9835 84.4013 122.424
43.7891 41.4386 252.936
56.4813 101.135 76.2249
50.5694 44.7966 199.614
38.3283 36.1846 216.391
68.8889 94.0875 77.1149
88.3166 126.81 152.244
101.115 85.8409 105.371
62.2419 26.7933 179.533
83.3647 143.246 148.311
47.4797 151.01 48.0938
83.138 179.258 77.4002
44.8874 54.4319 252.195
55.7676 29.1908 181.445
66.0625 39.2903 210.719
50.3252 144.479 53.8806
95.6078 83.5549 115.961
22.9532 154.454 91.4573
75.6428 124.015 78.7721
73.4629 101.858 75.6116
62.5963 74.6836 196.719
96.2744 139.877 143.383
146.525 169.415 128.403
27.7286 145.142 125.061
52.0617 82.6868 201.359
75.2066 158.356 128.817
48.8103 7.06628 153.393
91.3619 150.435 138.504
17.1108 128.543 54.5617
71.5594 108.708 65.5863
60.8618 84.7568 209.487
73.8784 90.9098 80.2835
91.7387 101.318 143.14
124.939 175.561 126.468
31.7964 133.539 47.3715
65.0927 83.313 92.8338
59.376 58.9319 226.207
87.3302 113.562 75.9214
46.6849 41.6331 158.303
65.0076 22.9693 155.863
64.0995 34.5812 223.132
115.873 167.441 120.461
46.4139 125.318 53.2862
72.1138 65.8994 204.158
58.6929 161.086 95.1713
79.5372 150.239 132.925
65.641 101.23 73.233
69.7213 126.171 55.7923
54.1056 93.4033 207.568
65.5453 115.741 126.205
82.0528 172.145 66.3765
63.1201 13.496 180.871
60.0469 133.828 56.1853
21.6336 154.39 98.3098
133.001 170.003 108.587
58.8781 143.043 66.909
92.0803 144.878 145.899
48.4754 107.724 57.5334
110.805 123.659 132.897
89.3717 117.098 150.757
65.6842 36.7806 191.605
105.773 100.837 131.88
85.8686 57.8536 239.207
67.0474 69.1742 219.108
73.711 130.725 63.2757
141.041 152.363 139.564
53.4689 17.0859 178.454
76.0783 117.511 115.478
145.577 160.983 134.62
58.4445 86.4443 89.4515
92.04 151.438 57.3713
133.453 159.314 143.88
100.999 97.85 136.016
79.1833 116.533 101.427
64.997 141.601 58.8542
104.483 91.354 111.359
78.2236 149.263 85.3368
69.8239 88.5893 89.5336
107.319 109.536 135.796
55.758 112.115 51.7721
56.534 38.3604 222.805
69.2859 152.256 68.3716
51.1389 163.634 123.589
105.724 128.937 139.068
107.523 112.067 88.5498
87.9945 41.6123 274.311
119.13 172.42 125.71
57.7338 154.182 76.8777
85.1657 100.019 85.9565
83.7692 160.879 123.64
78.3176 173.658 81.944
53.6176 89.7091 94.4405
78.9524 148.758 60.9833
101.854 114.729 75.3088
69.2508 59.4673 191.084
65.0613 47.4169 248.407
61.9176 51.5073 219.832
68.9775 163.065 93.9031
66.268 144.694 68.8636
74.8767 169.904 92.4798
61.3973 137.548 38.2971
81.3404 106.579 71.093
84.3422 174.249 92.1098
63.7987 153.554 84.7686
46.2308 111.301 68.2467
75.1011 87.5583 87.8199
47.5084 68.2261 180.042
73.2135 163.199 118.431
70.3549 79.6041 201.281
92.7668 117.64 80.4011
74.7904 97.7402 71.502
49.4199 39.478 155.19
87.8536 1.18201 59.7853
79.4811 56.4783 245.819
64.6277 110.714 71.1434
70.1214 152.568 105.025
64.5979 118.732 116.152
70.9391 122.115 122.217
72.2848 122.799 84.5751
76.4324 158.221 88.0372
54.5953 93.0521 230.855
76.8153 121.169 104.727
101.519 137.596 139.552
65.7834 175.793 102.915
25.0544 25.644 236.488
41.9672 164.17 94.8835
80.0834 1.12432 51.9522
60.5842 17.4679 179.458
28.0415 133.792 43.7046
43.4897 15.0563 185.43
66.5314 85.4168 85.0555
68.7193 33.7627 218.952
64.4012 67.2249 227.966
107.517 137.03 133.642
57.9134 108.721 62.571
70.3508 121.9 127.423
