ply
format ascii 1.0
comment Created by Open3D
element vertex 325
property double x
property double y
property double z
end_header
14.4203 212.641 109.953
17.6153 109.604 109.798
48.2718 7.62116 145.18
29.6288 204.197 108.272
30.1113 230.298 105.391
11.44 177.384 180.263
22.1113 132.095 178.933
17.6726 25.5594 119.052
21.061 198.611 132.286
17.6618 40.5792 141.04
32.8207 135.744 191.519
25.5042 32.5625 121.486
25.4262 130.979 130.512
23.3475 117.222 270.03
47.3085 154.892 196.962
11.4557 29.2123 138.687
50.4764 3.47887 136.743
10.2586 31.3359 94.1922
42.6111 13.7132 117.151
14.4551 15.8706 139.374
17.405 123.406 233.485
30.7241 73.3763 187.934
8.35031 157.214 68.5348
19.2563 7.14868 148.057
40.282 229.829 143.353
10.832 136.368 174.243
8.33457 109.203 251.28
49.7787 13.6302 29.7946
18.9432 44.9404 117.73
16.5973 40.1355 130.972
6.79964 26.9366 123.323
11.156 7.36134 131.145
13.4034 15.2323 4.28527
31.6113 156.986 224.968
33.4742 101.678 196.504
40.8468 106.288 129.801
8.64366 126.543 104.01
34.5285 143.893 252.257
37.2753 160.289 136.46
32.8226 133.823 245.79
57.5185 8.15229 122.989
18.1251 118.054 249.495
16.8081 139.622 197.36
23.9619 121.65 135.979
20.505 26.6805 145.833
8.82154 10.3235 103.553
8.22118 209.352 118.717
26.1591 111.181 118.907
19.2575 150.305 145.242
42.5413 123.209 217.415
37.0183 79.6842 203.8
29.7003 96.8699 120.688
28.2313 113.858 238.052
29.285 147.786 75.4682
38.5015 129.078 167.767
38.6766 151.445 141.561
34.2617 35.6013 125.914
22.1544 195.076 112.611
30.4982 153.377 154.148
38.7233 29.9077 31.612
26.511 134.91 113.659
22.0514 76.3212 106.77
53.9876 104.382 196.596
17.7771 149.575 193.063
20.2248 138.85 66.1997
13.5091 37.0789 109.123
135.73 113.246 261.271
28.6302 175.404 151.471
33.6896 114.514 228.51
27.7449 148.479 256.234
29.9067 44.5672 113.611
13.0229 15.8656 82.5223
43.3984 2.86868 103.141
34.1029 98.2947 127.952
31.6048 137.87 96.9891
46.1946 94.5017 176.868
107.13 31.0546 190.554
78.0373 161.513 131.138
29.2379 2.4925 151.792
13.6645 71.6818 107.155
15.0094 83.9736 118.103
22.9472 157.772 196.718
44.3129 22.2932 140.401
51.2097 5.12203 109.536
16.1448 20.5201 131.94
26.9035 56.1813 44.3005
23.4949 17.393 150.805
35.3373 11.2385 109.162
23.9815 211.817 133.242
37.7276 127.128 261.297
19.6308 108.84 175.077
69.5149 158.491 95.5433
15.3278 105.031 273.303
14.1093 131.477 264.649
29.1066 196.773 124.254
26.2683 164.509 198.108
58.8852 128.657 226.637
66.9631 130.071 215.569
45.2704 18.4514 106.081
111.691 21.6235 188.734
48.954 21.7998 127.599
31.1152 114.524 262.948
32.8741 28.3112 156.577
31.7578 150.849 207.932
14.5796 146.782 88.6641
30.8014 25.7981 110.881
7.74499 137.907 103.954
20.6982 221.25 112.217
44.0623 3.13548 224.441
34.5536 64.3329 93.6553
52.8926 114.944 187.75
16.8839 148.808 239.549
19.9421 104.159 69.2986
14.1611 92.816 135.574
13.4287 200.367 126.626
45.4207 108.024 172.654
32.6797 167.764 206.527
13.983 113.939 114.631
23.2632 113.702 168.273
46.0072 127.606 260.883
49.5856 35.993 40.3264
28.8973 95.3858 184.76
17.9417 44.8892 191.58
101.173 21.8389 186.832
39.0465 86.3036 139.598
15.3005 111.344 150.106
23.0217 121.428 77.4074
8.59092 128.568 150.396
46.5477 143.232 232.378
13.9533 161.675 48.5168
30.9889 12.3099 151.269
102.65 24.4935 179.035
51.7479 117.18 118.961
13.5273 3.54285 141.203
45.6429 141.093 186.875
38.7851 29.3665 100.549
33.8816 92.5101 217.757
40.7871 83.8075 79.3208
20.4494 125.657 243.129
113.709 50.3688 88.5746
15.2301 71.9587 119.769
14.7616 12.8481 111.214
35.8102 126.357 74.0058
41.6787 98.3847 108.22
33.4753 121.405 100.612
16.8851 155.745 159.092
45.2582 75.2252 75.9972
46.9636 149.778 239.256
39.2087 101.408 138.808
47.7257 28.719 45.1393
18.8411 98.7046 137.416
44.5443 23.0648 119.716
18.058 157.475 127.966
53.3621 87.6113 195.906
33.4595 129.294 105.682
14.9667 132.474 248.118
121.77 179.307 226.289
9.1215 184.726 150.211
55.293 95.1012 210.336
29.4498 106.154 82.9878
38.7152 89.1956 169.503
42.5242 122.42 235.829
10.2647 124.073 94.6855
38.4607 73.951 185.509
33.7425 115.237 69.9929
38.6828 146.276 221.849
25.9944 38.5339 152.109
24.7761 14.7118 94.2547
8.82977 144.326 162.401
60.1286 14.2564 114.914
44.6938 127.826 118.086
117.886 37.4948 77.7554
59.1284 22.0896 122.818
43.8506 113.425 111.381
48.45 8.58931 123.993
18.8259 78.1616 96.7599
53.6751 98.1127 213.549
26.0242 132.539 30.3814
32.6303 86.2737 93.664
7.51243 42.0951 127.189
46.015 102.222 207.807
58.5458 30.1474 132.209
20.0889 141.793 253.344
73.6493 169.047 99.8813
48.702 145.043 126.601
30.5296 80.1983 101.087
10.9266 198.483 121.956
43.479 67.8976 121.552
35.6644 156.286 193.54
22.2009 3.78037 108.241
13.1354 130.61 78.078
36.2313 87.4844 111.192
5.82118 16.6036 119.799
9.81438 12.3932 121.185
45.5564 228.638 115.06
24.8675 139.977 194.221
20.3617 46.6453 45.046
21.9003 23.1652 88.5533
10.4598 2.39016 136.674
35.4821 122.24 139.67
58.9205 108.637 128.795
25.5982 138.961 204.556
15.3794 108.854 128.279
37.0771 91.0535 184.802
31.3366 101.809 165.698
125.208 166.869 219.498
30.8094 76.6047 127.75
55.016 182.092 167.607
29.1397 3.60558 100.658
44.8173 132.852 153.601
30.8854 107.11 69.1764
15.7085 154.073 174.169
42.8424 163.941 151.822
35.4675 36.2182 113.023
54.53 97.533 79.066
56.7471 80.0993 192.359
22.1262 123.181 218.668
18.3892 24.4641 134.732
132.487 16.7225 91.9026
41.9382 152.131 208.395
38.6764 49.3498 132.052
33.3762 174.575 188.794
46.166 134.613 98.133
23.6401 71.8344 118.495
38.6681 170.435 177.816
15.11 6.50743 239.037
11.5198 154.395 119.934
78.4309 161.219 109.377
42.8266 68.0825 179.789
25.1987 119.069 96.6352
43.1939 152.294 240.423
30.793 149.871 242.329
30.7475 142.758 150.157
16.4023 130.142 82.7435
33.3793 209.421 123.728
19.9747 95.8756 153.945
21.0879 117.466 89.73
57.6987 17.59 128.656
19.8492 112.983 190.212
16.58 24.9487 86.5185
38.353 135.2 142.938
36.644 46.4198 53.8241
35.5329 228.712 130.505
8.40161 118.717 269.799
68.4484 113.009 229.265
29.3705 113.479 253.055
19.4912 2.64576 97.7749
14.392 186.287 147.56
33.9789 172.911 179.107
40.08 40.624 28.6987
35.3072 105.348 218.977
39.8934 62.0055 108.09
13.2169 93.2008 165.101
14.0393 114.419 262.054
52.4856 78.7183 127.293
18.7979 90.882 125.064
7.14105 8.85586 118.994
44.1019 39.4751 108.43
41.5461 83.7257 167.59
15.2821 106.992 153.418
50.1552 75.0658 172.244
32.8663 223.215 138.467
61.8983 115.41 219.58
37.9026 144.725 152.511
16.4385 13.4881 86.6966
45.1161 137.701 256.541
17.5883 152.499 234.632
31.7529 103.136 215.457
31.8643 158.509 137.651
26.8298 211.912 108.418
41.8529 109.722 137.043
44.0945 90.8011 130.865
42.5405 120.724 123.247
12.2534 127.998 269.58
51.9106 102.594 187.501
49.6626 87.1556 108.325
13.7435 82.2181 80.4077
16.7258 61.6682 105.82
50.6516 167.694 159.427
21.0819 122.962 109.81
23.0881 19.5736 2.88714
48.0971 88.9802 170.981
51.1535 112.941 111.66
47.9681 39.1132 134.753
14.8968 221.155 133.619
72.4353 223.024 213.334
26.4888 74.5964 130.601
34.225 111.602 268.783
7.13215 121.964 274.107
38.3709 117.339 240.862
38.7164 85.1932 66.8597
30.2234 96.206 67.5938
63.4269 119.605 235.27
8.00189 78.5908 118.328
107.928 21.1107 178.04
31.5249 123.249 235.292
117.228 65.2685 81.3461
43.027 99.581 194.006
16.76 153.268 87.183
20.6774 115.969 239.765
32.8861 59.1311 43.1629
50.907 155.471 154.709
39.0933 112.21 100.434
40.2696 104.935 159.539
28.0976 119.574 151.034
45.7746 167.492 176.946
64.0962 154.48 133.92
40.2288 49.6114 138.242
29.5562 73.4258 92.5498
25.4587 96.3308 252.755
42.726 45.4867 52.717
60.3173 145.391 143.523
31.8607 117.105 76.9478
29.7269 224.769 136.606
34.2182 72.2434 176.05
35.0971 78.6152 112.788
49.0831 139.685 250.544
27.4004 26.9065 154.598
36.2887 90.1035 65.9996
66.4589 163.832 132.675
24.1853 46.0141 49.3514
30.3184 86.285 88.5578
119.476 172.864 213.005
31.0315 116.263 89.7044
12.904 0.920214 119.7
