ply
format ascii 1.0
comment Created by Open3D
element vertex 836
property double x
property double y
property double z
end_header
33.1445 100.72 114.554
33.1032 54.6925 183.227
28.7981 129.918 80.8179
44.7501 103.41 73.1253
6.05411 29.4308 172.424
7.23876 57.803 147.448
24.5865 105.448 132.294
12.5368 20.7946 161.899
14.719 140.921 145.35
10.573 39.8259 235.235
53.7112 95.7458 144.774
15.7298 137.054 108.703
8.94177 69.0976 147.409
36.2271 124.119 145.784
54.4295 193.619 255.606
19.1029 202.723 243.827
21.3363 135.629 99.1831
23.5879 32.4304 157.135
4.40223 55.105 179.013
13.8645 36.1534 153.699
9.45813 54.5063 193.146
21.4795 144.834 39.5435
39.1739 55.7288 144.313
14.2803 47.8723 158.94
24.488 132.456 57.8845
36.1656 195.499 248.462
16.0064 17.3528 152.508
12.2092 42.1963 193.384
19.7065 128.879 108.006
17.4269 90.7869 125.007
7.90237 133.709 76.439
38.9516 93.6589 104.253
15.4384 103.357 132.157
52.484 119.246 114.153
14.1855 131.066 59.978
52.038 140.713 46.9911
7.73499 135.439 104.216
49.5487 138.131 238.498
40.0347 57.4997 127.698
20.2713 94.3432 138.696
30.6975 142.601 267.149
26.0009 96.8508 127.691
23.7959 137.527 68.2574
35.0351 101.539 103.629
25.8866 38.5035 150.056
26.0751 103.875 125.034
23.0126 148.385 136.932
9.69011 130.494 127.628
4.901 47.4497 229.376
16.1293 130.09 115.265
7.71456 146.751 48.7956
21.7717 118.372 96.4051
43.2407 115.197 69.6192
27.2821 38.7275 128.335
5.56853 133.406 141.484
5.55277 52.9259 241.454
11.1471 31.127 163.244
31.6536 89.7637 125.92
18.8369 55.3236 131.488
3.15276 146.065 110.18
16.0656 132.308 50.7294
67.4785 164.377 46.8958
21.5781 145.401 105.318
28.9366 164.629 225.188
32.3401 21.9599 153.258
46.5841 95.7452 81.6812
23.2535 88.8432 133.436
3.49565 48.3635 165.886
7.26005 197.945 252.035
35.2074 57.193 162.502
30.5451 140.71 38.2932
27.2811 128.658 66.6975
40.6123 120.968 150.883
37.0917 21.1378 175.29
27.1197 26.0989 174.049
29.4351 30.1978 134.97
10.3246 156.216 259.468
26.1961 131.499 48.3803
20.4507 74.387 158.573
31.3517 213.118 270.281
15.2747 131.027 78.6529
37.0184 110.99 155.789
15.0787 146.274 257.636
75.2473 96.9924 80.7366
28.1072 213.145 233.913
3.33205 47.5821 188.457
36.3124 158.419 53.8222
40.8189 126.125 76.5084
54.5509 139.199 259.463
34.1591 63.1313 172.668
36.3105 97.2429 91.2834
9.38335 142.575 137.856
41.801 89.009 123.077
43.595 174.927 253.115
51.8749 200.526 261.428
36.6563 36.3053 156.599
22.8 136.461 149.206
9.27585 57.2446 235.135
47.7594 99.4039 94.1043
3.28437 191.739 200.276
4.50465 180.647 271.286
33.9014 152.538 224.504
25.9732 130.811 95.1889
7.00633 139.833 124.335
41.2332 48.219 127.159
45.3489 31.2065 171.912
2.64088 17.8472 89.5634
3.5784 144.707 57.0011
45.0289 104.971 89.7017
3.06432 40.7168 172.471
21.6843 122.239 105.321
19.8559 113.856 102.545
45.4546 46.398 166.913
28.452 66.342 129.75
24.9616 48.1921 127.679
19.8719 174.081 100.654
33.2316 175.053 236.03
42.2545 129.646 141.819
11.613 138.579 44.2259
15.374 33.5658 185.316
29.2412 169.439 264.625
7.52932 134.56 119.578
30.8836 142.495 75.7652
43.0022 210.074 250.363
20.0519 118.017 123.936
38.3007 116.426 90.6084
46.7212 137.296 135.241
16.4305 65.4294 154.064
59.8925 126.878 133.417
38.333 151.853 71.9196
17.9012 201.225 236.473
56.6971 32.9062 153.784
22.6292 150.095 224.758
66.3924 91.5164 127.395
11.319 68.6361 28.8184
17.7786 176.115 90.9843
29.0594 104.359 108.824
56.5665 152.367 230.789
34.7466 154.479 63.7824
35.7188 137.128 233.767
19.965 71.629 141.575
43.6102 160.029 115.056
40.4603 94.4522 113.856
52.897 51.2637 141.934
24.7962 168.363 92.2636
61.2439 140.897 242.351
19.0777 115.177 114.039
47.2811 139.116 247.344
48.0599 89.0045 131.405
55.4434 99.2051 76.1781
78.8907 166.634 113.269
28.0797 175.761 89.8576
10.4427 110.007 119.837
12.0539 124.626 145.558
58.7108 110.341 123.521
4.10838 190.819 242.822
42.8932 134.602 49.9587
44.6743 63.0685 155.629
22.7826 134.654 78.8347
25.6441 112.494 95.1747
2.40262 78.3649 161.126
42.6806 37.742 175.912
42.0115 152.122 246.868
49.9052 30.1892 148.28
49.3103 197.087 228.532
74.3306 100.021 138.962
38.7056 51.5797 156.905
27.5086 142.614 227.212
20.2445 120.956 111.8
20.3177 67.4951 133.009
50.0144 176.055 240.667
37.1599 143.367 66.1127
27.2533 126.476 88.549
10.0025 118.834 136.286
28.572 26.1304 162.053
14.6116 50.6302 174.849
35.6673 148.443 255.199
5.60157 60.069 159.486
59.3589 117.354 144.223
89.7644 92.2823 102.81
19.3707 35.5424 133.541
31.9372 98.8657 96.573
87.7072 90.7225 112.012
41.6469 167.512 76.0016
17.1192 116.361 142.631
46.6559 95.4274 108.425
15.5853 143.777 134.248
4.88096 173.617 249.952
22.9494 111.13 146.966
25.5876 165.475 67.4414
46.1738 175.19 82.5684
9.62089 144.726 104.798
67.1158 184.344 79.9983
39.5225 165.713 61.0089
49.2834 24.908 161.054
32.0812 120.578 85.4127
37.291 104.191 90.8398
66.3745 120.11 135.582
45.7175 148.423 46.0429
41.6981 116.03 83.4276
38.2917 14.6381 167.8
34.877 85.8157 135.341
11.9333 167.783 68.5149
40.1714 194.826 231.88
36.867 215.866 261.13
46.0851 210.237 270.896
40.0673 56.0879 169.56
2.67248 38.881 181.859
63.4342 95.5263 113.654
39.9364 65.5594 130.779
17.3538 210.676 250.07
57.0158 138.442 117.897
76.4884 153.063 102.897
40.9518 136.248 67.6861
43.3877 17.0917 157.373
37.8911 66.1865 162.527
31.7376 154.097 249.625
29.4776 108.559 90.262
26.9059 218.214 254.645
20.7608 190.574 251.122
6.37072 124.287 117.429
16.547 47.8062 137.014
21.2713 21.6235 160.378
53.769 96.9236 88.2387
8.35696 125.609 133.66
31.0132 167.916 73.7705
4.05992 214.926 266.724
8.01341 157.75 62.214
25.6232 170.817 253.042
32.7992 152.553 120.74
54.2423 92.8539 95.3417
4.42586 152.526 56.8015
19.0654 49.209 224.995
84.4296 105.63 71.3092
3.72449 172.116 92.8635
2.55912 168.339 104.298
48.9185 36.3612 139.672
49.2547 47.5472 131.856
5.96251 181.244 179.164
82.6496 184.824 79.4631
24.3214 168.719 104.372
11.727 38.0501 146.577
47.0868 158.529 67.1311
7.04826 166.969 239.708
25.8991 197.9 232.444
6.25939 72.1469 28.4445
35.3295 32.9075 178.788
54.1621 126.963 123.849
73.7423 97.3377 99.4552
36.3645 150.214 238.526
31.843 91.4117 146.271
17.5805 44.4113 241.982
15.0861 21.0257 171.345
73.2191 109.151 141.853
40.723 46.0488 175.054
37.6348 73.0048 155.781
15.1795 154.359 47.1109
55.73 42.8485 141.328
56.5878 96.0973 104.483
31.2641 137.444 254.919
69.4349 178.667 256.732
65.5336 103.127 75.8433
21.5468 26.4333 178.636
22.0596 180.735 84.5617
16.4827 178.656 242.993
10.8326 160.183 249.086
39.2363 171.347 261.296
56.33 139.708 249.807
3.6705 38.5661 150.487
52.4208 41.111 168.478
31.6133 147.027 59.955
15.5415 149.87 268.703
67.6516 201.488 251.82
39.6733 160.403 239.43
5.88725 139.372 81.9723
36.6995 72.7288 135.795
35.885 111.245 109.219
36.4673 105.882 76.9864
15.9818 134.297 86.6779
42.2875 143.857 232.377
52.1047 131.71 120.282
45.8458 70.225 149.494
59.837 90.0016 137.349
33.728 90.8683 117.19
54.1415 151.67 121.475
23.2709 106.516 114.78
19.4017 163.506 239.935
5.08341 183.255 244.539
2.86885 157.652 91.8749
45.3796 40.2949 161.256
8.47062 138.23 96.037
56.7989 177.095 96.1871
36.7879 206.6 255.014
15.3995 151.903 107.64
10.914 101.26 138.863
24.0806 97.8223 149.448
14.6015 160.199 52.67
72.8766 169.123 59.4777
61.7335 213.34 259
28.0892 210.006 242.213
18.5498 167.973 65.5192
14.3186 145.341 231.73
50.9323 123.739 149.316
50.2346 93.9541 116.66
10.2983 52.5459 222.375
36.6342 147.024 46.0882
21.2952 145.688 128.246
48.3201 140.663 130.374
41.6047 92.8293 95.0028
71.8233 167.529 257.425
13.2478 61.2697 180.394
70.2372 181.098 67.2956
9.47239 134.683 85.5465
86.7158 174.016 112.459
41.0421 143.61 129.755
74.6494 100.669 130.768
78.6281 116.188 71.689
47.3868 142.35 264.437
28.2334 29.0944 184.846
24.5669 26.5138 145.919
5.1349 53.9555 159.061
4.38328 42.6854 242.029
29.6194 62.3502 178.554
37.1639 169.443 66.8855
15.5766 67.9558 163.953
18.1382 104.626 119.91
15.1891 145.795 118.141
2.65735 190.849 261.539
22.4111 63.2242 182.673
10.1505 119.343 127.014
25.7384 186.782 246.593
61.006 181.177 64.3082
32.6331 150.776 41.3876
45.3347 168.316 235.861
9.98105 26.1728 153.187
33.2977 54.3054 129.844
61.3864 208.397 252.264
2.78066 136.948 92.1324
27.8726 222.018 244.154
57.9704 99.1668 117.871
26.5482 70.354 172.289
52.5885 105.65 67.6881
3.96706 47.8595 151.854
52.68 96.916 125.02
96.9519 99.36 98.9327
30.9566 177.421 79.3064
43.2258 100.177 151.182
23.0364 117.244 88.5929
36.7238 55.4371 174.878
17.573 174.455 72.51
36.0481 135.549 43.8161
34.7592 205.304 267.551
24.9572 120.181 147.078
42.3296 200.967 260.968
29.6772 76.9481 160.343
24.1428 125.706 99.1372
47.7548 69.9911 137.869
25.6612 97.8578 118.263
29.395 188.727 233.742
14.464 23.3193 180.042
80.0231 152.436 45.3025
27.9127 45.9266 144.204
51.623 183.729 223.547
51.8114 114.49 131.672
96.9894 122.978 130.444
72.9102 121.955 64.5374
27.1055 56.407 133.648
5.36529 215.455 258.089
70.5988 116.824 141.555
4.87725 155.412 268.355
7.28016 173.361 242.729
2.95593 35.4835 164.264
18.5978 123.079 98.6323
18.3956 105.093 143.959
30.6065 146.481 129.832
41.6209 29.9181 139.108
57.463 151.406 104.985
47.1157 215.657 258.574
6.37241 134.84 63.3406
13.6339 40.3369 140.133
33.4277 123.755 69.6385
16.6755 130.999 70.2203
5.09835 199.079 175.386
73.9624 179.311 76.0324
65.3033 177.369 76.4785
12.7602 111.087 135.906
16.2218 130.62 150.673
26.0378 180.211 242.267
26.6964 152.43 269.254
72.3385 89.512 108.458
52.8268 61.47 140.526
66.3024 150.254 103.934
97.0401 184.318 100.876
32.6203 157.775 262.027
34.0834 139.443 247.841
45.0284 20.5577 169.502
21.1247 55.3205 191.398
64.5068 142.198 60.0672
40.0615 195.761 242.552
60.9462 171.258 229.588
54.9206 167.149 244.577
51.7266 159.154 119.213
65.397 181.944 96.4971
31.0197 120.071 76.2637
29.9119 16.7493 165.63
89.2207 180.234 105.917
24.1061 177.679 75.8366
30.6538 38.7994 184.011
26.2163 177.352 230.472
22.1712 144.96 112.974
55.5517 176.537 250.39
6.95416 186.49 256.121
3.14371 170.551 79.9105
65.8286 168.925 108.756
32.9877 222.654 262.77
37.9897 219.271 238.73
102.671 121.873 118.551
75.9393 179.598 100.541
57.5625 167.15 255.537
40.4603 172.098 87.367
53.1939 120.205 139.641
28.7093 108.092 103.486
5.31974 197.252 191.667
36.9595 174.014 78.9836
64.7133 117.411 65.4017
16.7353 148.273 124.637
23.9229 223.164 273.205
71.3989 162.694 106.954
81.9241 147.861 98.0181
9.52805 60.1825 137.399
21.4685 18.1171 166.977
2.81982 21.9206 102.292
64.0229 151.143 254.645
10.4863 175.724 96.0965
73.2849 193.518 256.82
27.1909 141.124 144.021
16.1606 163.699 58.8989
36.3459 109.21 86.5744
2.04007 29.4738 78.5721
42.1589 140.123 138.572
13.6115 133.967 95.164
17.8851 144.853 243.062
21.3284 136.481 256.011
90.4973 95.788 92.7637
77.0204 179.025 61.2196
31.1281 103.687 156.258
51.4555 129.803 66.8697
71.8078 156.408 106.423
65.5792 184.154 86.9374
16.5457 193.621 237.045
84.8587 178.04 63.6745
30.6065 163.086 105.972
53.1356 57.7332 150.449
44.9998 110.649 79.9025
97.4068 166.98 110.787
30.9828 178.867 252.164
67.9743 144.567 257.768
15.2126 153.852 249.703
45.752 187.621 228.815
36.3363 141.654 141.317
21.9459 132.549 89.5151
2.52566 188.858 271.229
92.9028 131.037 127.603
47.1474 52.2591 155.498
92.4195 111.586 75.3569
4.16103 159.133 110.471
86.2424 158.061 50.8012
48.0604 175.144 90.3406
67.4675 171.307 265.842
13.0494 166.531 237.523
41.6562 138.123 255.866
100.686 176.661 107.535
81.3 118.577 140.64
2.35475 145.668 69.6839
22.7246 109.023 107.191
85.1492 96.131 85.663
28.1742 67.93 148.768
44.9841 200.41 272.852
40.515 219.439 248.35
91.0723 102.275 79.308
60.4173 180.518 91.3371
42.461 108.019 113.169
86.1779 153.03 104.776
62.5826 166.356 243.273
84.6217 182.67 100.317
18.6486 170.582 254.277
65.4597 157.841 108.865
87.9356 113.928 84.6385
39.5785 165.489 50.7119
63.3153 96.9105 83.6384
11.3861 54.6368 168.006
61.4069 147.56 269.956
18.6906 176.587 237.73
41.619 152.742 228.843
45.27 162.72 103.739
61.9594 102.228 127.163
18.5171 57.002 169.485
56.5638 171.15 101.448
37.2963 108.046 148.606
36.2874 159.143 113.247
50.492 206.117 256.107
31.5561 188.123 260.588
2.17589 113.418 27.5739
53.6862 212.223 267.779
60.0225 177.339 72.1171
59.2926 113.801 71.8086
52.7639 32.3963 164.853
2.34531 196.799 269.182
23.3076 150.142 121.424
45.3104 144.969 61.0206
23.5563 170.574 236.998
43.3199 166.165 91.8793
45.5455 149.725 263.746
51.3877 41.0788 147.787
50.566 139.83 67.7996
50.0404 112.889 149.313
28.3167 42.2187 193.322
28.8715 162.677 96.5512
68.7517 178.425 58.2011
76.7919 139.009 96.5615
53.5803 147.526 54.3413
5.02519 164.823 258.482
37.64 179.712 257.307
51.04 164.777 260.438
20.5966 140.791 247.93
6.99765 206.061 258.269
78.2879 129.961 98.1126
7.92611 31.2063 182.896
66.7688 149.014 54.3197
36.5899 166.784 107.609
8.01543 201.832 244.877
100.468 115.848 126.368
13.3892 178.418 79.2417
108.058 173.72 92.1787
94.9818 158.753 108.616
51.8894 143.666 121.072
56.3363 109.625 79.3627
63.89 139.88 112.116
31.2093 172.258 273.684
73.999 91.2629 115.575
87.9432 163.63 106.4
98.0038 113.132 137.846
101.662 121.531 107.953
23.9928 157.747 251.016
70.8237 199.871 243.276
63.5712 125.091 114.262
81.8007 98.7643 95.0472
31.4299 179.37 264.575
54.6524 117.961 121.735
42.9547 155.675 121.801
54.1042 177.49 88.4664
71.8648 161.898 232.727
90.2782 99.1707 126.955
40.0004 129.349 70.4074
67.8246 133.54 113.244
36.6368 166.398 94.8027
49.1304 182.577 235.296
45.5613 149.131 121.911
15.8762 64.4012 141.173
3.47202 205.031 266.228
87.3762 119.947 87.1627
5.30755 63.7353 19.7173
71.8694 156.044 42.25
46.8064 157.21 106.69
96.6785 101.148 107.835
52.432 180.675 79.4738
90.2303 180.27 73.5073
21.4977 218.089 261.051
31.8508 150.597 263.024
2.26822 100.826 187.078
65.0267 187.138 243.876
57.9159 129.779 113.981
41.5879 139.232 241.892
92.1245 97.4156 116.687
14.0817 182.262 253.288
56.1533 155.973 255.873
78.6751 132.756 104.519
24.2036 216.364 245.842
16.3761 201.339 255.761
37.9672 37.4483 133.453
48.8018 91.2312 100.923
46.0043 168.395 64.821
34.2979 45.0033 182.277
89.1405 104.844 121.345
52.463 154.341 109.87
33.8866 162.566 250.195
89.6448 138.759 120.926
52.9417 117.965 74.6843
45.6279 160.468 230.054
97.1466 114.827 104.714
60.165 146.998 239.329
34.1864 136.462 57.7482
58.7787 135.406 62.134
95.7508 119.78 89.2697
7.42086 163.158 81.2102
26.938 150.761 114.676
53.9086 42.5445 157.739
2.08846 169.134 271.411
49.812 136.249 124.171
22.3292 158.669 108.235
47.9217 127.741 128.572
59.5045 165.637 55.6562
22.6339 38.7877 189.23
56.0827 116.588 150.074
49.0996 213.714 238.422
11.6611 198.338 238.752
64.029 154.673 47.9067
51.8165 158 101.009
73.2315 140.315 54.3246
67.263 132.123 65.9774
55.4042 155.17 51.9469
79.7695 176.341 107.142
60.2374 209.73 245.36
70.4763 129.949 119.149
2.30254 154.499 105.339
51.7014 217.085 262.918
75.7226 142.579 103.505
47.1868 151.126 232.508
78.6419 184.162 93.9519
59.4349 121.495 83.7603
23.7 172.119 271.909
66.7885 122.536 124.492
18.4469 219.405 271.021
60.2854 144.377 52.6452
76.5912 122.582 136.172
28.5403 107.023 98.0783
14.4026 154.571 273.934
45.6302 107.182 143.426
27.8991 161.804 55.7979
82.403 125.313 134.138
3.93727 175.035 263.233
44.9135 218.764 269.77
63.6818 100.999 144.745
70.2868 131.077 95.6364
74.7932 90.0965 125.114
80.7775 161.975 104.869
16.5279 153.669 235.514
60.6158 95.4435 94.24
6.20269 154.07 82.4077
2.09275 180.606 253.34
16.9816 213.4 266.392
82.1902 163.273 56.3526
81.3742 135.7 111.983
33.854 225.73 272.158
42.8299 125.836 132.035
31.323 128.884 140.795
58.5669 103.71 141.324
57.6099 165.663 107.13
11.7413 135.954 68.25
69.9198 176.969 101.056
68.6124 189.205 250.088
52.0312 167.95 66.0128
2.28498 139.836 62.8686
46.2649 127.548 64.9932
30.0368 154.57 109.053
97.243 109.635 85.3738
40.4512 165.203 274.097
11.12 144.593 126.152
44.406 119.446 136.305
38.2635 148.551 124.611
27.3203 136.833 242.117
49.3333 119.708 128.153
53.1742 217.114 254.135
8.6391 174.021 82.9631
62.3552 163.257 233.353
33.1572 162.873 64.764
37.5951 184.346 249.591
63.1238 159.042 256.448
10.2202 161.396 110.04
57.8891 181.611 82.2423
65.0198 179.643 223.244
19.697 183.345 247.936
34.1355 172.525 91.7802
86.5921 130.298 129.314
34.1729 28.1408 143.488
56.7948 99.2156 130.91
75.0964 150.218 250.495
86.2483 133.294 102.481
53.8515 174.272 72.8185
77.0686 103.778 73.4062
33.9314 203.338 243.589
63.9465 173.413 101.41
1.96616 180.715 262.029
82.6985 135.275 120.674
8.96986 199.521 202.758
54.6158 133.71 85.0747
61.7107 126.165 64.3246
45.1247 145.725 126.082
19.6718 161.88 228.933
82.7488 145.611 66.8322
1.8524 146.803 97.0121
7.49907 157.923 72.8306
72.9166 170.533 110.332
30.5211 135.966 138.01
67.0397 111.607 71.5501
67.0701 135.958 74.885
68.3393 128.299 78.6247
47.0607 119.563 81.0095
1.45251 54.1498 270.75
25.3465 160.03 273.832
85.9353 92.1785 132.924
60.83 179.061 256.643
85.7411 121.972 76.4822
8.8723 163.354 266.752
70.5194 166.012 251.079
58.9935 188.633 223.528
68.7295 151.964 271.813
74.4003 150.376 56.3744
47.5797 131.526 85.4841
103.547 159.8 71.1986
89.8895 180.779 83.5091
45.9007 169.352 99.4886
81.8463 164.465 243.79
60.8364 122.937 121.594
70.8113 132.578 105.216
41.5898 124.395 87.5695
88.4902 167.338 258.761
54.3369 166.546 233.777
40.0913 166.067 101.013
1.65249 162.019 82.6364
61.0163 135.471 100.649
47.6182 159.348 56.1176
39.1692 31.0046 150.947
62.1793 95.6783 141.586
79.9491 179.687 243.476
81.3216 97.598 135.667
48.3146 183.537 255.378
35.1258 204.652 233.423
1.84153 189.979 183.351
7.83965 148.303 80.2965
17.6462 163.992 102.66
49.1637 173.156 74.188
74.6918 122.04 128.326
89.3624 126.338 135.664
49.8627 126.419 74.8852
75.7032 135.802 119.494
79.4554 130.975 126.104
73.5139 126.308 124.534
82.4995 97.3989 102.327
12.1234 165.16 103.119
65.0801 142.069 67.8902
76.4046 108.545 148.392
1.85 144.702 86.867
60.3564 183.646 239.031
22.8345 162.149 57.7016
55.2317 91.7728 153.513
52.5103 120.803 83.5077
40.5493 192.256 265.25
91.1679 173.864 67.4278
63.3908 89.7005 107.317
80.1145 171.172 247.773
15.7361 162.198 98.0725
75.5041 167.819 240.498
81.9152 143.925 55.5844
51.5886 212.084 245.783
59.5807 143.894 107.662
65.3795 152.006 233.057
53.5064 139.776 110.922
71.0133 90.0798 99.5055
81.1824 94.4403 107.531
59.5624 107.702 133.289
67.5918 103.309 94.3404
63.4418 160.241 227.177
64.6145 201.043 243.924
80.9962 90.0801 119.894
38.0084 188.467 260.078
54.1431 184.351 245.437
84.1484 97.0414 123.551
73.059 184.647 90.5687
48.1097 122.997 139.483
95.2676 106.855 112.252
55.42 96.0069 155.962
75.2592 213.945 272.729
40.1611 93.8165 151.326
97.9979 105.104 126.556
60.3217 159.626 106.613
67.832 201.055 258.554
73.0668 142.982 67.8786
73.2713 109.257 70.2538
85.5041 196.475 257.807
58.8047 203.406 240.182
62.7667 209.334 269.322
95.2123 152.432 98.3483
19.6603 127.151 94.9262
44.0629 187.213 257.714
8.48909 190.751 187.69
57.8862 81.7244 148.624
66.7354 144.351 99.4404
70.2118 157.844 253.902
84.7018 152.228 60.4787
11.7114 60.3571 161.834
100.133 168.794 67.7262
71.6629 110.677 76.3997
75.4245 122.642 79.7996
50.5399 172.45 98.2873
67.9233 137.454 100.923
92.7106 121.26 99.621
63.9732 180.355 249.082
38.3731 155.178 233.405
68.8754 112.47 125.467
15.761 140.897 124.713
69.2682 104.315 116.508
1.84129 59.8462 169.152
60.4896 167.29 61.7157
103.43 178.968 82.2521
15.4219 158.523 235.306
39.8624 208.471 238.96
89.5623 106.338 145.034
76.9159 149.1 72.1518
35.829 211.644 227.196
82.9967 182.209 89.1833
11.7535 207.195 271.346
23.4427 72.5383 150.31
70.5924 199.906 233.776
13.7257 208.466 274.523
80.5141 183.755 260.408
64.7278 164.639 257.787
32.111 111.896 99.6556
52.4626 160.22 271.758
72.2225 101.588 90.7365
73 161.539 244.897
88.7698 204.548 258.69
101.409 105.944 91.5985
3.39038 202.301 274.702
70.1526 210.617 262.787
80.4344 100.677 145.791
51.78 123.493 133.675
106.868 152.032 96.541
2.58221 1.36347 131.532
20.4932 201.503 259.186
62.8503 147.365 234.417
101.105 129.769 110.317
77.8381 173.316 72.6891
80.2668 205.179 265.805
4.03282 158.101 76.141
55.7898 193.938 225.042
