ply
format ascii 1.0
comment Created by Open3D
element vertex 396
property double x
property double y
property double z
end_header
24.5976 199.917 229.414
33.3892 152.744 85.2893
27.0545 95.1431 100.388
7.51278 218.352 33.0977
8.3386 153.63 178.058
40.2751 160.887 218.797
18.2105 127.931 114.477
14.5032 127.056 165.228
11.9847 116.667 106.694
8.12003 155.39 91.1852
15.8244 110.113 103.053
5.59089 83.2348 129.58
7.28527 162.274 116.495
41.718 88.3401 65.4091
21.468 60.774 122.689
40.937 162.522 265.141
53.1733 108.686 55.2454
30.9921 205.387 103.576
9.26908 25.3753 169.626
48.1752 158.121 220.782
21.3315 55.0062 97.2277
42.3712 57.8931 179.524
34.1874 66.9221 159.876
6.22357 109.338 151.648
11.4854 133.148 153.441
23.5631 122.669 165.923
6.67992 96.6004 164.591
114.062 180.12 241.841
24.0901 147.76 155.092
33.3937 207.733 237.007
29.4394 61.3931 133.589
25.4828 107.443 138.15
29.2522 139.917 85.0853
17.5188 227.896 73.9845
7.37215 13.9234 212.156
52.3121 126.676 114.993
11.2817 146.857 159.248
44.1595 83.9096 136.671
12.455 89.0544 169.204
11.3337 27.5978 176.77
32.1756 197.924 174.014
15.506 172.864 105.621
18.4047 61.6937 134.912
27.3757 107.053 103.573
29.0956 137.33 150.151
50.9268 170.751 253.386
6.76794 67.4018 133.473
9.67997 73.5068 142.487
9.73992 225.299 68.5813
39.918 148.948 148.779
34.8587 165.773 143.87
16.6882 117.583 168.311
5.95923 80.341 138.362
5.97052 61.0012 93.3062
131.726 181.075 239.088
17.4614 91.5578 101.938
67.0315 124.692 57.1622
5.90944 153.102 83.8158
8.67096 70.988 95.561
13.6635 130.888 61.212
57.4528 141.39 55.1701
13.3621 137.166 125.342
64.1654 136.077 236.001
10.8362 52.741 121.148
54.8062 124.417 149.658
23.0938 62.1747 142.202
5.39128 133.638 89.4373
11.7892 140.493 153.166
6.38949 124.966 115.14
31.4896 60.6754 91.0726
133.387 170.46 239.574
5.50642 125.059 120.684
19.8168 149.753 136.222
7.82319 200.774 177.36
9.90647 223 42.5735
20.7041 112.887 143.663
46.9573 55.0763 78.9345
37.3231 215.899 208.313
82.1666 143.045 36.8311
39.163 224.291 176.148
28.4761 221.426 150.012
15.3429 146.471 62.8921
17.6131 70.7019 156.78
40.5951 189.529 6.21998
35.2289 75.1601 164.242
9.03061 147.408 71.3023
53.3959 117.154 135.021
49.3791 77.1021 166.482
6.01247 90.2676 92.7611
27.9472 51.0226 91.5858
8.98575 119.875 163.418
48.511 83.108 156.975
25.9204 51.7497 119.501
22.617 178.286 127.326
130.427 177.303 234.272
42.5497 60.4258 142.088
6.08251 154.872 120.854
24.6199 131.332 167.561
5.9042 158.322 148.828
7.76496 168.571 118.931
59.0095 56.3403 86.0284
8.12495 133.401 114.668
6.13115 85.1234 72.0304
11.1888 197.046 182.649
23.0634 54.2895 114.676
5.17395 103.025 88.2335
39.4183 111.431 144.935
85.8563 107.004 44.6324
43.1369 133.263 149.15
15.6448 191.952 176.253
30.9512 119.926 166.261
134.799 176.096 239.87
23.276 176.531 140.379
20.2476 121.302 107.505
26.8089 49.5528 107.655
33.8006 170.935 134.015
19.1544 79.6443 99.6933
50.9956 158.414 271.51
7.96502 136.08 138.032
25.4441 121.109 137.826
84.7577 141.13 19.9287
103.267 66.2935 231.504
16.7494 148.36 153.526
28.2136 207.044 173.466
24.2662 215.763 159.941
44.6348 64.6397 152.266
9.84743 36.8017 179.883
52.2285 114.146 155.878
50.7082 177.615 268.933
4.86459 91.6121 80.0781
32.2904 85.6303 174.142
42.6435 109.173 133.517
40.6979 61.0551 71.4522
6.04052 124.972 98.702
6.5333 58.5195 114.015
38.4364 72.9902 68.939
38.2655 99.5332 144.85
35.3958 210.508 160.97
30.226 165.317 150.822
21.3921 88.9689 175.183
35.605 81.3806 104.135
6.74924 111.384 100.51
26.3813 100.67 162.694
45.3135 90.8749 172.503
114.761 168.398 238.31
26.9791 226.277 184.331
29.6747 72.8841 106.366
4.64643 221.337 184.101
6.46827 124.785 68.3295
30.4563 211.38 187.376
63.9217 77.4645 187.502
24.5613 139.378 70.2582
48.7506 69.8106 158.793
41.2309 103.276 51.9904
23.0842 55.5934 83.8789
26.3947 157.084 62.7455
25.4412 144.779 145.922
20.2277 223.112 66.5301
24.6639 130.867 157.434
34.3327 223.983 183.293
6.79752 147.733 101.856
7.69762 90.2138 122.104
36.158 94.9095 176.236
5.44618 154.219 156.185
6.87393 93.9824 152.083
8.72398 215.063 162.964
4.72339 69.9108 120.992
15.1007 97.6072 178.019
14.0181 85.5119 63.3444
4.76048 146.28 134.644
30.4128 106.188 51.0329
63.7865 62.8977 95.9865
16.5896 177.963 125.912
9.07245 32.2518 175.885
29.3377 56.4517 120.752
48.5287 137.143 128.221
26.1539 79.7995 105.621
5.51416 139.833 97.8917
9.64881 166.491 98.1537
52.6632 56.8594 72.6001
26.7477 63.7787 152.146
9.62448 149.683 151.327
19.5197 67.3213 70.3613
48.2715 118.4 162.483
9.54413 211.181 152.392
5.49798 119.124 76.1682
69.3916 132.157 241.764
7.67997 99.6385 100.647
24.7812 159.347 150.957
12.4435 98.7885 107.051
29.5859 113.096 133.685
14.0974 88.2569 96.9497
34.1104 129.053 83.7845
5.39787 143.759 82.3363
34.2635 61.0689 72.0753
26.3503 133.898 52.9643
31.2556 143.197 94.636
13.9452 158.816 155.134
5.89775 119.502 153.067
40.4359 76.9045 88.9706
7.45277 79.4965 159.026
4.97313 140.473 160.455
15.0834 108.152 56.6
28.774 92.8431 53.1881
37.5922 104.853 173.309
42.4351 126.239 165.149
11.8701 215.294 146.124
65.9427 135.754 178.905
55.6443 129.239 128.345
22.0774 139.319 139.028
49.9563 64.8885 98.9177
6.96511 230.405 65.9464
5.76696 130.512 148.375
48.16 94.5929 159.1
5.83423 105.311 112.691
97.0746 101.01 34.0455
57.2149 126.207 54.3437
42.3098 116.259 166.947
30.1644 152.337 152.832
32.3398 57.2873 105.194
25.9366 116.941 141.889
8.7014 136.647 72.7105
26.3971 143.232 160.419
74.8716 126.638 177.792
12.0018 62.8787 120.072
29.4514 175.544 127.273
13.4338 204.811 188.16
18.6753 165.297 80.6967
48.7232 99.6451 155.06
46.6609 137.205 51.4218
34.9755 110.426 174.313
42.9889 57.8991 98.5632
52.5157 145.934 142.153
6.24425 108.039 168.492
37.3051 106.596 143.474
56.6041 64.7757 149.885
74.4173 117.917 273.483
13.3677 203.557 145.504
4.80705 138.902 125.117
68.5353 69.2147 135.977
16.8755 120.671 56.1092
57.55 62.0423 66.5921
100.951 106.875 47.6025
16.6629 69.6965 112.504
6.99808 163.519 104.542
41.5848 137.23 162.586
10.9301 230.108 79.0764
12.4281 61.7665 130.163
42.7046 178.745 272.357
112.949 172.283 237.062
5.52433 132.913 106.067
49.1341 147.141 122.063
17.9969 156.351 150.948
35.8655 147.788 156.37
63.3753 72.8226 59.021
33.0398 230.643 69.2452
24.7321 66.566 156.737
56.3881 134.867 121.394
23.9904 101.739 133.686
49.8368 123.428 156.45
69.5292 166.755 91.0692
74.4356 85.3304 161.669
36.0801 63.8347 114.687
11.8635 188.409 164.777
28.275 126.745 112.26
55.5931 140.371 113.818
42.944 167.887 124.44
37.2744 212.254 213.249
39.5308 56.7336 120.414
37.7448 69.6423 91.0002
37.6686 59.9173 102.797
32.6188 116.34 154.187
108.799 225.187 249.159
25.0882 226.873 163.098
6.92828 109.16 65.8315
32.5759 147.002 141.816
39.5143 146.864 129.351
40.4029 58.9391 131.8
37.6181 67.3326 80.136
11.6344 69.1204 107.648
13.9343 51.745 96.5417
14.2307 67.0205 75.18
36.9928 139.178 139.956
33.0114 55.0675 82.5105
32.616 78.8312 60.615
24.7069 59.1638 105.067
12.1451 82.8378 161.463
32.6628 106.245 137.915
43.1939 98.9771 152.676
21.3255 141.897 72.0482
65.1039 84.2158 169.038
31.1863 132.71 74.5383
18.9467 54.625 120.847
38.3664 155.913 146.629
81.3235 132.319 18.6217
19.5935 231.312 218.559
30.178 219.584 187.977
21.8658 230.824 179.484
6.79661 166.642 131.11
13.1593 164.741 153.075
40.2885 145.684 137.562
6.91336 160.626 142.898
4.30345 73.1191 95.414
7.60247 100.29 63.9938
68.7696 100.818 60.0447
70.8443 119.933 73.6219
8.78233 71.1767 77.2172
20.181 111.863 133.958
51.7369 165.498 68.8814
22.3563 96.6079 53.8572
49.9305 172.041 78.5337
28.4283 146.573 75.0168
31.3839 62.7488 111.649
60.0059 61.6761 138.677
38.9515 175.099 78.2429
93.2001 143.531 41.322
100.123 137.319 19.2082
5.66683 143.739 152.187
18.9341 104.55 185.233
10.5009 103.163 59.5369
33.3609 146.128 53.7713
61.018 59.8415 107.032
15.9702 32.2073 178.954
8.79286 80.4158 96.5799
40.9006 54.9064 87.8188
7.77446 231.222 173.455
119.153 174.004 73.4693
44.1744 87.2733 56.5714
34.3392 57.0016 115.069
12.2366 173.658 123.961
30.2611 170.25 145.807
38.2608 71.3842 102.844
44.3655 78.856 102.663
42.0944 68.4603 111.952
4.89351 115.158 89.8631
34.8534 55.3186 92.011
38.8886 145.373 77.7498
124.946 209.074 247.432
40.7297 157.467 58.8525
26.8921 144.784 54.9204
19.0791 105.099 130.459
28.6467 122.849 50.1772
40.3818 115.171 131.468
57.699 170.687 96.9649
10.253 166.525 141.12
45.1578 162.206 127.43
44.8765 67.8194 61.3353
57.4102 57.8129 122.442
72.3903 81.5789 176.239
16.8238 158.017 69.2913
80.6448 79.5489 151.512
63.7128 81.2831 76.8342
7.90584 127.878 73.6805
32.8863 230.997 170.371
56.276 168.921 110.021
75.0786 129.49 171.626
50.4351 97.8146 68.7028
51.3248 57.0262 105.197
43.0869 76.6458 58.3579
35.4235 67.1509 107.624
65.6391 66.1164 128.009
11.5811 76.8396 111.061
11.6938 75.0615 104.628
59.5286 132.8 61.6536
57.0466 169.094 75.9762
41.7733 160.42 134.297
36.694 52.8063 98.1867
84.1673 123.615 48.9397
7.25513 65.4885 160.087
44.5743 175.106 104.166
33.7858 102.835 143.733
39.9808 57.0836 109.333
35.0391 171.481 74.0925
8.99178 134.248 130.546
68.6259 78.02 143.936
81.8973 112.138 24.3237
48.0213 155.246 136.577
28.7015 153.993 78.3724
48.9844 61.3259 112.864
74.4086 70.3815 69.7769
44.4703 105.173 154.322
87.6248 118.157 51.0582
56.6213 126.027 158
51.2112 86.6422 94.7828
6.19493 116.324 104.237
8.21265 147.355 108.896
7.61314 231.552 34.9993
72.3292 130.959 246.825
51.7572 58.5775 118.413
36.3224 109.474 232.183
97.6515 17.9799 222.075
62.8766 101.073 59.2565
8.65892 136.156 157.635
18.3229 163.579 155.72
24.5832 12.465 248.635
47.9876 91.3008 100.407
