ply
format ascii 1.0
comment Created by Open3D
element vertex 320
property double x
property double y
property double z
end_header
13.3534 121.309 130.197
33.0153 206.844 54.6283
6.01884 121.506 32.5832
11.9748 129.619 37.7929
6.64136 143.305 121.39
26.4872 126.976 59.2821
7.22467 131.792 84.0748
9.72495 120.161 122.457
88.844 224.085 15.1639
35.8279 131.873 57.2395
89.3644 229.804 22.7183
38.0461 96.4944 35.8675
27.0347 177.634 106.8
14.9382 141.566 33.2065
10.8275 130.593 68.7379
42.8997 144.92 58.8303
8.50996 163.027 82.9405
34.107 211.449 63.3744
24.4225 129.125 122.601
44.6822 91.7405 26.2938
16.9704 146.397 64.5669
11.803 131.838 127.949
6.42573 128.61 75.1413
8.5855 158.415 116.967
5.00331 153.727 81.9263
8.42776 129.348 106.84
67.1543 151.744 81.6349
48.8523 126.992 55.471
11.8132 221.602 66.5134
17.414 154.06 124.695
79.0546 204.437 20.6527
15.4274 216.866 54.3312
14.649 144.96 126.366
3.12091 126.271 120.97
14.0283 160.773 69.6786
7.67533 142.042 73.7662
18.9896 156.247 65.2005
32.4485 149.282 60.2429
69.2385 124.288 105.338
26.1952 117.465 58.8005
46.8908 88.3826 71.7323
34.9816 90.2073 124.64
23.9349 132.988 129.198
35.2485 111.059 25.2495
144.334 63.8106 131.327
22.0021 214.577 25.9072
6.05755 211.749 51.8234
62.3181 89.4632 91.0667
26.3602 176.542 83.323
81.3546 205.309 3.55661
4.61385 204.384 77.6317
12.054 218.215 76.7309
23.2135 131.632 40.5233
87.9766 229.898 33.1691
16.1078 126.613 68.3577
25.0497 168.915 74.0785
16.5401 211.928 81.5219
60.1128 164.408 103.359
57.652 86.4217 81.6392
61.6031 112.99 4.10589
55.4326 136.539 20.1149
37.4513 123.696 54.29
6.81582 140.048 14.4103
27.679 137.251 59.9817
48.925 86.0168 5.61202
40.3249 131.557 124.553
3.96284 199.285 52.6722
27.2878 142.823 36.0929
31.9074 170.796 117.074
131.903 64.5856 148.235
58.5804 208.015 105.56
3.81712 182.918 39.0222
5.32363 85.1574 91.124
49.6395 202.732 34.8562
21.0533 191.932 53.4666
23.7634 87.6287 18.8301
30.8709 8.3771 32.2533
12.2557 145.967 23.3759
51.3555 139.944 58.4603
50.4314 172.613 99.6205
2.74516 89.2637 96.0136
18.8329 134.082 64.7117
21.8321 200.941 48.0589
55.3498 98.4511 3.55278
35.7001 122.619 129.882
50.1731 206.195 82.6862
65.6748 99.7062 85.9209
36.0087 114.895 53.3683
61.4323 124.454 2.50527
2.95864 132.512 101.203
29.757 108.869 55.8321
40.3383 9.31857 41.3105
51.8157 106.285 34.5333
3.076 141.657 81.7898
58.8022 97.6586 74.7192
3.89775 126.304 28.6086
46.3593 145.273 20.8324
48.3378 156.645 67.025
3.73131 115.786 76.0297
83.3752 201.51 53.7373
21.9303 111.755 131.335
70.1051 199.029 3.67943
59.0429 224.971 57.6407
69.8288 118.061 96.2415
127.919 74.2531 133.264
52.6775 193.933 4.39981
21.7716 78.333 97.0876
26.7323 225.094 42.8291
39.355 200.204 3.79136
19.3555 108.841 35.2069
8.39208 36.2623 30.993
77.4948 152.877 109.27
55.0721 140.968 6.9726
46.92 116.603 128.396
22.0781 148.568 31.2556
45.5694 79.3002 89.7397
48.3315 89.2403 119.388
8.92403 97.5132 25.5881
12.5807 88.1674 14.8538
34.7496 152.781 3.28729
29.074 213.944 76.7577
28.9902 179.365 92.5198
63.7123 160.239 87.6421
44.7883 138.159 33.9061
19.5232 177.121 93.6453
32.6821 214.527 38.921
38.3811 200.155 18.487
66.3599 112.761 81.6783
61.2105 194.972 11.824
36.9621 175.231 107.733
38.6745 157.548 125.659
19.8333 166.906 116.939
2.82208 140.774 112.191
54.5634 95.9815 18.2736
87.438 219.532 7.8958
28.7475 209.931 2.89131
58.4229 119.554 74.6715
57.3006 108.105 67.9539
53.959 120.564 65.4178
64.6587 99.1505 96.3288
12.7005 185.62 60.4717
19.7131 6.8619 37.8368
62.6617 106.948 112.174
3.04554 156.028 108.213
58.9159 120.188 23.2575
17.7777 225.256 28.9232
42.035 149.383 10.5813
3.69113 216.581 68.1835
8.98292 92.0658 2.71765
37.839 226.864 52.6375
12.1232 81.4308 95.589
21.385 137.511 37.2163
59.9781 131.7 12.154
46.4141 187.386 96.5242
3.64245 130.125 113.028
35.6012 150.309 25.2487
41.7004 110.655 55.1831
60.6677 122.385 12.3991
57.6203 156.645 73.7847
14.0592 219.436 12.7484
36.8331 115.728 42.9073
55.7613 165.998 82.3387
78.2253 210.79 31.8488
78.9676 145.411 64.1068
40.6841 178.465 92.5949
59.5307 106.645 10.6023
71.2746 193.897 61.7593
40.3475 48.6589 3.9318
43.142 9.68697 32.1885
88.4905 229.86 2.63078
45.2619 194.579 16.7332
154.715 56.9459 131.675
2.59638 137.462 90.9856
65.3914 200.538 28.6759
55.0843 209.58 100.177
21.1995 202.484 83.8424
40.8086 190.491 92.2091
71.5502 127.963 84.8075
81.7956 218.619 79.3165
14.3741 97.6625 133.214
46.2142 119.232 57.9133
22.9279 89.8975 29.8885
43.342 172.819 82.1629
7.78192 175.595 88.7182
45.4729 227.776 60.7916
84.3944 209.234 10.9028
52.8261 201.835 95.6693
2.3747 117.204 117.046
69.5446 139.54 79.4885
51.9394 131.09 27.2444
2.86277 108.007 116.781
43.5084 169.27 75.4717
28.1403 137.572 39.5426
28.037 206.266 16.6798
2.9709 126.35 88.5502
50.7383 168.424 114.538
7.42314 181.279 81.2684
79.4074 188.716 64.8078
55.72 213.831 50.8209
83.3969 222.966 40.0985
34.7187 81.5361 115.912
19.5022 214.739 4.47092
5.18301 85.9277 99.8331
65.4228 137.721 116.553
61.1818 110.797 75.4981
72.9715 136.102 100.886
53.7726 120.158 31.6623
8.73295 119.824 71.9947
32.4953 208.657 30.4191
53.1668 103.101 122.024
64.0248 132.811 70.2496
2.05695 120.591 99.8574
25.7211 59.8564 12.1195
34.2002 137.938 125.364
84.5815 218.798 24.754
78.1064 120.324 1.70532
38.7244 76.3346 91.6492
49.6223 112.786 65.837
65.2746 109.673 99.6941
69.6777 209.703 40.8484
60.5942 11.9613 7.16233
56.359 152.837 120.686
21.045 149.838 1.81156
32.8045 202.762 80.0214
82.375 226.913 48.9683
46.5378 123.122 131.649
37.6938 127.224 104.311
8.87208 82.4614 100.768
61.1052 123.956 63.824
2.99074 127.844 7.89445
76.3679 216.857 48.3052
36.1182 200.665 70.7892
73.6114 109.929 114.892
25.8398 68.1571 3.45709
65.4322 120.482 111.455
2.43491 109.421 6.6287
22.5705 100.937 120.776
55.8653 84.7054 95.6725
2.11381 207.03 63.453
68.7494 204.555 80.7687
29.0124 103.161 37.2643
27.5481 44.3084 6.49614
53.2482 99.0812 28.4349
62.2194 98.4502 106.087
59.8174 109.87 120.334
3.29331 101.471 1.41537
21.1336 191.748 78.7459
31.2684 112.686 131.903
27.694 161.575 124.324
38.245 8.08813 28.5085
1.4971 101.422 87.1277
20.899 46.2822 5.31382
86.6012 208.776 85.4234
66.611 204.736 64.5579
21.2149 153.131 9.37532
1.51183 99.2779 95.5868
86.4052 106.835 48.4902
59.1751 207.189 41.8212
23.0322 150.098 26.827
45.2493 101.346 127.198
4.79226 189.395 61.4864
75.3183 153.451 118.487
76.5907 163.961 110.024
22.4128 92.5491 122.565
68.1354 194.488 74.9702
51.8832 192.198 72.6486
44.964 211.754 47.0961
30.1964 84.5682 11.7068
76.5138 202.756 86.0721
83.7549 215.043 7.03694
24.8559 129.693 72.4899
22.3873 222.449 65.5194
62.3059 118.525 120.447
15.0765 99.7932 115.729
11.7665 103.252 119.634
13.0463 226.981 3.68268
2.97701 83.0396 97.1077
59.7628 130.633 123.18
14.3254 202.427 83.19
22.6138 86.698 11.3978
72.2503 222.465 72.2417
47.4592 134.659 129.732
59.2866 195.999 78.3055
41.018 98.2887 128.524
14.524 190.321 77.5468
68.154 214.025 76.1968
126.996 62.6377 138.147
19.026 87.2554 114.792
80.507 112.639 116.172
71.9708 225.285 54.8218
92.5776 198.903 61.7193
8.04677 231.372 15.5977
31.2368 155.27 13.0785
36.491 98.2611 60.1052
21.0076 150.401 15.2538
8.46771 94.5227 114.874
14.6781 225.697 22.308
80.5961 213.863 53.9403
16.8448 231.344 37.8246
5.36163 136.287 1.3636
53.888 120.298 112.35
51.9945 191.355 83.9181
31.4898 56.1369 12.4984
57.8284 191.151 91.9177
31.4842 86.1932 19.2012
26.8215 93.1883 120.371
31.8092 231.546 56.6334
25.7923 230.676 45.9341
24.3503 218.771 70.1649
2.57534 201.959 91.0684
37.9195 78.3895 109.796
4.87138 179.03 41.8644
13.7538 86.6717 106.822
136.017 71.5546 141.52
44.6806 142.521 132.273
130.698 73.8818 143.128
31.4974 129.865 74.2308
43.3011 1.20161 33.7908
10.8496 98.1157 112.141
26.9966 217.887 63.5718
