ply
format ascii 1.0
comment Created by Open3D
element vertex 2054
property double x
property double y
property double z
end_header
49.1316 149.717 183.506
80.5966 143.949 168.142
54.3534 176.547 187.147
51.181 165.883 138.936
65.0551 191.231 201.559
30.9181 24.8717 146.559
43.9128 166.383 123.61
25.2708 110.404 238.746
26.2902 119.231 149.072
33.9515 190.263 204.517
39.3177 197.837 171.452
28.1145 189.242 139.553
40.2909 200.183 193.72
60.8578 154.873 173.743
60.2834 208.376 165.29
49.9544 37.5545 92.5448
28.584 163.05 197.771
25.9156 10.3982 47.5823
57.303 181.976 180.839
14.5761 127.205 249.707
94.1244 150.927 198.879
9.47681 29.3668 177.17
19.3864 125.075 128.949
39.8712 211.464 177.208
49.4577 120.641 80.8984
54.1133 181.765 201.011
34.8599 59.1394 102.738
98.2377 168.232 147.586
44.2677 205.068 183.924
12.878 190.059 177.891
96.1525 194.354 181.712
90.7792 156.473 152.206
7.70163 19.6726 158.726
38.0246 61.6312 233.327
12.2503 34.5835 162.463
29.9846 92.6372 169.421
28.298 132.384 77.8321
80.7244 148.807 154.368
84.3597 214.905 190.61
54.7034 218.932 214.731
47.8705 189.93 178.735
7.02874 134.946 109.335
80.1286 160.166 158.562
33.2432 101.722 250.066
92.6051 171.394 194.407
57.4129 187.468 191.514
11.2944 14.7079 37.0742
7.99202 139.858 98.3516
69.1188 154.981 168.739
39.5286 156.556 220.379
30.3108 122.876 130.585
20.5768 31.7416 228.62
27.225 142.149 116.031
55.4168 166.446 183.541
49.3026 153.031 174.688
60.1465 155.159 166.391
12.8927 146.726 111.255
29.0454 119.275 260.359
15.3969 5.64013 184.534
16.268 166.967 169.786
40.4814 25.7506 153.667
85.7952 142.901 108.284
50.5201 200.5 198.875
84.8573 162.892 182.733
67.8451 191.564 191.729
44.6935 199.077 178.788
66.4476 167.844 159.411
8.48879 21.2794 180.606
58.3944 170.265 215.978
54.7597 167.799 236.716
12.0631 206.726 166.468
59.4407 140.606 177.29
70.5117 135.253 197.725
103.967 176.746 182.133
17.1775 71.8761 157.042
44.2469 180.831 165.234
42.0868 155.446 176.21
52.5047 176.21 160.53
50.1327 201.26 167.985
29.4106 60.4352 254.764
46.19 161.208 229.144
33.1766 136.549 124.501
92.8154 167.084 156.043
38.4309 53.1041 263.852
42.9821 183.058 241.758
86.927 217.887 124.136
35.8637 155.258 191.972
60.8659 177.949 194.853
31.5081 20.4486 228.381
65.6676 215.063 184.424
89.9363 203.997 231.89
35.1008 194.559 229.446
83.1611 184.145 196.481
120.823 177.328 161.281
22.4853 215.164 191.798
41.2605 170.776 165.26
39.183 3.59512 179.941
33.7621 93.3389 110.415
83.4649 171.547 175.077
14.9184 222.77 175.414
29.4463 112.031 25.0679
48.4059 23.6496 244.838
18.7498 121.916 79.7983
22.6694 16.3045 231.02
75.3775 222.279 207.192
22.1728 90.5616 168.881
51.895 227.437 146.07
16.3434 34.6053 153.614
46.566 50.4646 237.647
16.543 113.14 122.652
15.8317 184.495 214.861
56.4436 160.757 218.224
86.0856 214.58 170.142
41.5407 203.528 164.416
51.6156 186.686 167.179
61.1383 139.413 190.648
40.1821 171.458 145.174
40.991 39.4017 78.8857
72.2327 142.451 169.304
81.1075 202.509 168.78
34.0866 50.2712 73.685
59.5588 135.893 198.626
9.68924 120.935 33.2464
37.0442 164.88 168.886
58.6739 106.49 95.0715
69.7593 193.367 182.391
26.4841 41.4586 171.184
25.5447 50.2493 82.7935
10.4239 34.139 239.137
31.7778 164.804 184.413
84.6298 182.613 187.288
58.6508 188.044 218.983
43.8681 9.34055 163.429
61.1267 181.789 210.364
17.8501 121.837 87.0123
7.59566 9.82619 172.052
40.3199 10.0645 155.221
94.9376 166.722 213.661
73.6898 140.068 204.472
22.2957 215.091 167.278
56.6079 175.818 170.558
19.2445 133.292 113.225
32.5202 225.52 157.079
16.3517 69.0218 148.56
79.6449 191.129 195.765
58.6048 194.669 228.96
9.07141 198.877 201.031
85.6234 181.492 177.232
69.3114 162.764 205.336
13.9568 210.931 173.407
25.6328 104.246 90.3831
89.5712 191.767 198.553
37.2758 222.792 140.825
96.4114 174.211 180.065
62.8658 213.012 157.158
82.9001 173.838 125.838
101.817 173.598 156.042
50.9067 188.797 150.909
34.525 39.6833 164.48
105.606 162.805 168.16
66.6771 215.581 218.284
29.7099 218.477 172.324
59.4584 159.221 209.003
25.8389 163.758 161.205
93.3857 154.868 162.975
60.3467 202.106 150.483
44.3174 190.407 143.772
15.5242 62.7352 90.0158
6.92132 28.7748 169.681
85.2875 225.883 191.185
10.6819 106.666 151.45
87.1497 177.463 195.525
65.1528 153.971 152.876
31.8726 37.5662 227.298
54.7689 164.914 175.603
21.7156 219.338 175.291
57.9106 163.347 189.238
31.0742 7.84621 150.358
86.123 203.006 214.59
36.679 224.364 170.907
26.0016 11.3344 118.147
83.5986 192.524 179.333
71.1029 179.028 196.43
39.7421 150.444 85.604
61.9111 176.735 203.915
21.5805 172.005 163.921
45.2923 190.607 207.724
60.1844 193.883 169.504
65.1431 216.33 141.636
60.1134 192.294 213.321
38.0053 71.1141 246.388
64.5525 142.513 168.901
38.5419 161.464 142.197
71.2937 161.026 162.488
78.1548 140.235 224.919
29.7873 111.795 76.7582
51.6368 222.258 179.405
40.4036 181.613 188.253
37.8464 10.0007 244.215
17.6761 171.903 184.811
99.614 35.0225 221.639
29.5455 180.286 194.781
77.2532 218.576 194.943
22.0013 199.709 192.611
23.7929 154.664 101.289
36.9444 194.231 114.05
23.1282 134.896 128.538
32.6417 152.413 180.449
47.6604 80.8173 110.062
45.599 175.365 222.257
73.3299 204.561 230.159
21.0653 6.2763 251.475
55.6832 165.23 126.341
35.7004 67.883 154.075
41.9987 143.303 225.561
53.0162 174.653 204.92
15.8644 221.332 183.297
43.0494 6.22064 173.931
42.9553 159.936 209.278
14.5697 77.1616 254.294
32.0852 177.498 161.935
38.8245 32.0756 119.1
35.2624 144.307 94.7463
56.3314 195.791 199.764
9.69322 12.8447 71.8317
40.0507 104.372 231.587
25.4177 227.071 164.262
38.3963 51.9005 97.9588
89.8296 213.953 111.725
42.5283 193.151 186.077
46.3194 217.16 121.744
62.8827 214.119 175.494
23.6406 155.873 179.883
9.71038 45.5478 112.647
63.4312 156.24 147.513
90.1769 205.378 147.284
41.8481 184.769 201.172
97.185 150.941 187.56
38.6843 173.767 216.609
50.7563 29.2753 262.783
83.9272 219.873 184.209
11.2741 13.6512 30.3448
43.7431 131.838 81.1364
61.045 178.803 224.976
46.6049 229.556 189.8
30.3012 62.6361 108.63
37.8096 17.783 148.976
28.1932 199.795 135.272
32.8015 116.473 152.374
78.7883 154.417 177.165
9.63698 34.3677 251.927
40.6942 165.323 224.835
33.4676 206.344 130.731
98.3726 210.215 117.915
29.1745 5.97672 131.197
44.0337 171.613 186.943
23.9178 40.9542 159.303
121.049 206.424 175.489
114.359 177.159 189.867
25.5044 119.199 82.8951
74.4396 177.046 189.103
17.8503 213.674 210.879
42.9472 219.388 131.103
17.8296 174.232 209.996
95.3874 218.517 165.443
94.6098 205.04 189.049
27.3356 213.916 126.814
82.4269 158.646 195.622
103.116 209.223 211.116
21.7714 65.3823 95.9364
87.4342 193.995 117.716
16.8826 100.427 121.599
10.7239 175.63 168.745
16.4674 205.151 208.753
113.993 192.52 186.495
41.8771 224.534 121.127
49.1911 99.0147 247.787
84.2238 148.464 162.731
62.7841 180.511 127.296
73.4236 222.695 148.181
14.3057 224.534 205.924
40.5544 208.394 116.404
51.5313 105.461 178.799
10.8658 104.242 244.092
25.3163 190.789 193.364
25.1419 101.435 247.251
11.8409 127.448 101.643
109.73 204.32 192.874
47.8344 179.354 149.234
62.1178 199.28 129.308
38.6292 61.9393 258.205
18.3467 30.6791 98.4946
52.9885 114.894 175.181
59.9594 174.689 163.703
42.0032 44.9942 114.617
14.1855 177.961 160.611
50.8181 105.035 93.2521
84.4537 218.019 201.568
48.022 225.455 114.503
43.3675 205.535 149.872
59.2826 201.604 142.282
46.6427 229.457 173.805
28.4432 191.285 127.742
87.5505 196.952 223.948
44.5516 181.625 157.006
62.1652 185.172 114.827
95.7051 157.869 205.578
40.7828 217.267 239.146
24.9473 26.2234 227.038
46.989 20.3904 251.81
48.801 120.028 177.542
35.6099 200.056 200.878
48.9324 174.137 132.745
101.354 218.488 220.455
15.1167 163.138 246.483
47.9084 162.118 190.31
66.4552 95.1333 227.842
46.4547 210.435 143.425
110.302 227.541 150.073
20.4687 209.346 128.782
28.2447 65.7318 139.453
19.5707 204.634 168.38
18.0016 11.1303 260.712
67.2664 223.467 196.255
66.6205 183.27 199.405
27.1905 20.5834 88.1916
42.7978 42.6265 106.28
78.0441 154.323 148.906
21.8692 96.6051 173.718
43.4608 18.2668 265.784
18.6067 163.786 176.732
32.9284 220.334 131.711
32.9717 227.011 123.44
99.7037 189.878 143.852
24.9343 187.358 186.638
23.4753 221.027 133.075
37.4059 10.4065 263.997
60.7269 191.717 156.069
32.5143 182.523 146.423
62.5644 166.716 225.069
73.616 217.026 184.547
24.6148 200.98 183.327
39.311 70.5433 135.597
22.6977 143.407 126.82
71.2337 187.663 206.111
16.6155 18.0844 233.674
34.2115 170.619 201.993
57.3355 211.444 222.056
118.142 214.16 182.972
14.8801 18.0295 261.295
51.3671 198.739 110.314
43.3295 112.752 225.342
54.9251 207.578 209.119
24.6792 217.076 198.753
58.9858 99.9548 93.8151
26.5509 199.752 219.723
55.8967 167.558 230.883
29.2595 127.584 259.167
36.4896 199.093 144.147
73.6999 130.699 231.469
82.4828 188.074 170.763
22.8667 145.777 98.1884
21.8904 158.97 165.318
88.6394 207.05 200.945
33.8075 89.7921 160.644
25.0382 132.614 69.1985
114.093 218.033 162.392
40.4465 26.5629 230.827
12.3558 192.508 189.056
50.2271 181.274 175.072
48.832 187.614 221.708
54.9751 228.429 132.425
41.6241 225.674 215.335
31.5698 150.473 99.5794
34.4533 227.151 146.557
18.5565 2.82491 61.5273
65.6484 220.377 150.314
69.5426 190.069 246.875
30.6863 139.107 223.631
68.9136 173.561 208.061
9.48062 118.287 244.352
29.4282 137.925 110.322
88.0974 158.101 218.112
49.8349 176.402 194.034
15.6387 227.046 193.513
67.6216 196.738 224.718
26.3173 109.666 37.5266
41.5255 49.4971 230.91
64.4277 169.308 200.239
53.2021 106.022 187.111
48.0842 132.488 125.149
90.8717 214.504 219.744
47.4717 174.788 173.421
79.0559 166.215 164.71
16.2507 42.697 232.121
62.4905 212.34 212.118
43.1871 193.217 151.041
50.7551 188.951 184.623
66.5592 157.756 214.087
49.2018 213.75 113.909
108.103 206.595 152.908
35.3458 92.6805 120.601
79.3634 149.852 108.168
45.4128 54.5716 256.847
53.0136 220.708 147.048
88.0956 177.255 165.152
17.5602 95.2622 103.457
57.5451 195.503 260.482
19.8323 112.124 217.81
64.4705 202.764 211.291
37.982 26.7195 84.0437
31.922 54.6879 229.402
29.0775 17.0469 271.944
10.8217 188.582 170.126
36.0769 16.2383 187.906
14.9757 203.526 220.119
30.2687 4.29721 254.491
90.9361 230.339 130.808
29.3787 10.8705 267.454
54.6857 223.551 114.061
72.6776 186.097 129.207
62.5759 228.126 135.677
36.1075 33.8542 110.197
47.1403 190.939 196.527
24.0461 164.739 210.646
20.1954 194.57 226.941
50.1285 145.346 109.189
37.5094 170.06 257.255
88.2891 172.59 184.847
7.48933 111.98 224.051
91.7003 219.191 177.594
66.2398 139.772 203.366
88.9453 185.676 167.831
46.4264 47.385 244.294
44.1312 159.76 147.462
19.5606 205.99 144.536
64.4621 215.12 107.991
35.5318 110.675 220.923
24.2384 15.0641 145.73
20.5966 29.3707 188.367
36.6331 156.169 104.371
9.00703 215.905 164.983
29.2902 169.44 178.767
10.5978 55.93 98.4983
94.9473 202.495 206.207
27.5431 112.764 97.0961
19.0912 32.2059 270.39
68.8796 164.845 144.665
14.7142 68.1771 264.447
26.7274 9.29483 187.818
87.8995 219.414 158.939
23.2761 111.545 87.8653
5.40292 19.0287 170.501
46.3502 186.619 171.581
26.9167 161.074 189.236
46.1514 33.0987 85.8058
69.2279 194.441 254.039
73.6528 153.615 218.393
44.4956 47.3075 258.59
26.2232 63.7982 147.495
13.0541 193.394 211.713
10.0343 220.07 158.343
58.2634 192.164 136.543
66.9862 112.918 175.448
66.6999 178.147 165.727
9.07072 63.9501 257.345
6.66925 44.6567 104.441
33.8994 37.0572 100.564
44.7295 195.915 158.326
28.9421 7.67751 124.02
68.6643 192.408 131.555
12.4218 213.439 185.76
65.5499 210.045 270.749
36.4729 101.652 169.018
91.9195 168.63 165.703
13.4329 35.227 83.9171
61.8486 170.479 192.437
111.585 207.421 182.052
87.7883 216.174 133.898
72.1663 194.88 222.016
30.1078 6.62277 261.24
50.7625 189.615 230.173
42.4367 149.502 198.594
29.4297 98.7125 231.979
87.4536 153.156 207.986
85.7902 211.253 224.186
55.7228 140.919 196.883
12.2146 36.9723 172.274
24.2086 219.088 227.031
19.9508 126.973 97.4813
34.8908 97.5131 103.629
96.6115 218.07 187.445
87.0559 160.407 147.144
116.348 183.911 181.282
40.4742 176.233 231.747
86.4902 134.923 114.539
65.5095 143.299 158.637
69.0061 187.797 214.301
29.85 140.141 265.69
32.4557 184.318 155.797
84.1937 224.816 172.16
93.8374 186.886 205.922
42.9838 35.5024 100.534
45.2008 210.538 157.384
84.6663 189.356 151.768
55.8435 145.013 171.709
32.8322 108.975 119.099
27.4414 105.663 30.5507
86.5344 193.038 190.771
98.799 161.382 156.855
19.4659 23.6529 96.7421
41.1489 105.426 82.3239
38.4929 16.9745 270.477
54.4374 89.5208 99.1455
10.7026 30.795 264.124
21.5191 15.518 190.924
35.9947 114.688 160.036
33.9108 97.8621 242.58
71.6909 179.635 217.101
21.6457 66.6616 234.494
62.8976 200.209 160.193
108.262 223.807 175.488
77.8619 138.667 177.063
112.095 174.292 179.191
37.6959 213.505 218.883
95.4128 210.879 228.163
86.751 217.082 144.563
48.7219 121.875 114.967
66.237 177.871 188.291
57.9537 175.016 119.784
12.9557 178.97 145.285
37.0995 174.327 122.114
11.9484 12.1882 46.7686
10.5701 205.074 189.247
38.201 187.563 226.034
61.3783 208.061 140.582
47.0314 14.4503 245.819
19.5179 109.175 226.012
71.958 148.112 176.279
81.5683 177.356 158.876
74.78 223.602 156.903
17.2476 223.499 168.647
45.231 224.132 161.381
19.8345 61.7253 102.74
31.5632 116.866 122.025
10.2456 79.079 156.424
52.5189 51.7014 273.015
75.2319 196.319 173.878
48.6521 143.402 174.126
52.6257 102.739 139.748
87.6755 227.239 181.165
79.1487 155.669 166.963
53.0581 218.302 128.852
27.484 123.085 99.58
35.1227 34.1431 155.46
50.456 118.808 87.6543
39.4883 107.138 157.314
45.5569 163.841 183.832
51.0958 158.713 161.876
17.6787 87.6316 264.647
23.2282 35.0484 181.584
39.409 163.875 132.767
79.4226 198.895 233.045
23.4285 186.297 155.45
17.1236 41.3953 268.328
67.9411 228.402 168.212
53.4367 148.51 159.176
107.548 228.499 157.932
34.6744 169.955 158.387
15.065 115.125 229.171
20.5766 4.98304 132.307
19.8547 141.184 88.5092
8.45413 122.754 90.8013
70.2388 150.585 110.57
23.5006 122.284 234.466
28.2329 229.534 194.147
35.0197 136.432 82.8952
110.087 183.484 188.56
28.9679 66.1775 92.3794
111.32 211.659 174.86
21.9764 225.7 140.914
38.9524 16.3889 234.138
64.286 105.599 141.757
12.844 104.995 158.217
79.9382 227.014 252.762
50.3843 200.457 175.27
57.1252 229.858 164.422
26.9642 40.3026 271.757
18.0941 8.46404 50.4348
44.6144 216.371 208.955
27.2302 207.552 138.189
21.0661 196.388 122.727
68.4599 144.444 181.939
59.8392 78.4885 249.005
31.9925 75.9921 245.362
18.9299 202.874 136.767
75.818 216.143 218.432
14.6339 186.499 146.321
69.5152 195.164 158.676
36.8739 164.855 151.243
25.9181 121.871 27.6812
25.6587 142.181 76.0288
58.3543 224.257 153.766
41.1182 99.2923 158.408
70.3973 208.189 174.755
10.009 184.896 184.018
7.21806 214.9 191.907
17.4816 146.179 91.5806
39.6244 44.6853 72.2928
92.7536 180.924 182.011
7.71122 133.883 89.266
18.3322 58.0254 109.225
52.8077 200.437 212.5
40.0154 23.0127 183.414
68.2646 215.836 202.655
32.2055 221.045 192.955
45.4874 99.0826 146.32
25.4785 113.771 118.754
76.8639 180.376 174.836
35.1291 204.781 207.885
49.9193 193.812 165.207
40.8888 145.646 179.85
115.882 210.007 150.805
13.6902 209.633 139.039
13.0305 2.81723 157.857
40.2539 67.9033 143.304
39.0806 53.1098 235.343
34.1028 19.6117 92.0932
46.161 25.5697 92.0649
72.9575 148.655 163.789
48.2035 114.408 106.349
75.5787 215.837 253.508
87.3521 174.12 223.576
93.4539 117.869 225.37
33.486 24.2043 187.659
104.354 205.073 203.362
44.4272 198.191 140.544
39.6153 206.872 140.269
32.2295 153.667 90.636
64.9131 197.631 179.371
108.915 183.232 158.354
49.2671 152.92 145.225
39.1606 188.365 194.784
18.7894 167.799 192.119
24.4686 84.9666 161.786
28.0238 107.746 171.517
24.6556 94.0024 97.8519
50.0731 25.8494 256.207
68.8632 225.029 110.93
25.0841 208.708 212.409
9.78921 201.303 146.702
23.7078 188.875 177.464
76.5599 126.143 223.959
47.8025 218.373 184.827
9.15785 49.4223 263.135
17.716 122.57 21.932
47.0968 31.6987 238.843
39.3397 50.8214 106.372
80.1142 206.235 202.658
46.8707 226.034 134.73
8.63852 104.806 270.978
29.8374 11.474 235.761
40.085 32.2794 171.245
80.2912 197.943 221.73
58.1266 227.652 123.626
26.4631 11.8014 27.0071
120.459 194.771 175.035
24.4859 169.644 198.743
74.8495 214.56 164.589
71.3591 183.737 118.659
35.7385 156.248 148.461
14.0399 192.48 151.616
81.1128 209.649 152.632
27.2224 154.217 116.176
27.0063 104.838 252.934
68.5116 199.275 143.056
27.4435 144.526 230.122
10.0063 109.974 34.3398
56.0409 166.569 203.534
49.0248 114.509 112.995
99.1583 209.743 218.293
71.1718 163.36 193.626
49.6727 175.105 119.637
100.836 180.414 164.674
17.5103 153.411 90.3147
68.15 114.432 188.104
70.3278 184.429 161.468
97.1399 211.611 196.759
32.0957 35.0773 272.42
48.4226 114.454 184.494
51.5776 152.989 152.157
69.1056 175.975 230.802
9.14841 18.6645 249.691
55.7842 226.876 205.312
71.5636 185.005 222.937
34.9491 125.292 124.582
76.2358 193.099 120.625
20.8587 125.012 117.598
50.1175 152.888 212.246
22.835 177.457 222.879
54.6664 192.553 205.841
16.6924 125.662 32.9259
30.6025 229.598 175.923
6.85281 40.4356 99.9345
26.2311 104.464 132.747
7.63734 209.732 178.181
19.3279 177.462 139.808
34.7293 175.158 209.444
27.0645 104.102 122.119
35.1566 23.1948 114.821
76.666 163.216 145.584
14.4817 176.365 198.075
33.9962 141.936 104.831
60.3051 226.665 195.03
80.8812 227.237 165.898
111.892 211.207 214.97
80.8239 219.948 248.83
37.6581 79.4272 156.754
10.5155 107.616 229.158
13.0331 144.94 85.6604
76.872 189.43 166.322
24.8646 131.972 86.5992
47.5181 45.2658 85.4133
36.853 224.865 199.927
74.7766 119.996 229.42
23.9845 118.732 156.755
53.847 229.94 219.802
14.3996 31.6183 231.95
24.8642 228.314 264.573
85.5478 145.526 188.295
92.8799 203.472 223.277
36.4941 5.03622 250.143
23.5059 170.55 152.354
56.2356 123.161 98.7419
12.1615 114.387 255.611
83.9519 205.739 118.947
100.821 215.637 146.972
31.3974 42.4864 73.9991
20.5593 120.696 218.151
28.1254 201.274 123.764
12.657 212.185 146.923
63.001 223.959 116.482
36.1108 31.7048 228.833
24.2039 124.048 227.568
38.5572 64.4154 242.871
51.9221 147.188 207.4
85.1262 164.715 174.451
31.3951 216.872 139.302
42.8514 148.435 214.221
29.9583 76.1361 260.091
32.2335 25.2951 273.017
25.0608 114.007 127.473
35.4883 152.821 210.831
59.8668 184.601 158.689
10.5155 95.3075 166.666
23.4811 230 175.37
14.5014 195.35 194.748
38.6348 131.834 122.054
76.4038 151.48 199.306
53.9847 204.84 145.729
91.3931 165.722 172.983
114.289 230.095 189.164
34.3199 29.0051 183.573
85.6217 144.379 177.513
40.3883 29.8481 92.0728
24.2197 196.283 201.447
71.6069 141.554 245.822
66.0452 173.099 137.59
38.0031 222.572 164.93
22.5071 5.70992 80.2069
50.3588 37.9948 263.129
45.6375 16.1963 171.564
38.0131 175.994 141.491
26.7588 29.6396 102.638
95.9904 217.759 134.271
41.994 99.5888 150.547
36.0134 218.26 120.87
91.4686 160.657 190.3
68.3096 202.878 112.88
42.888 140.666 95.3898
82.9596 147.868 198.971
17.8406 194.627 216.886
117.358 191.094 167.215
14.3971 17.7643 128.476
22.498 27.5118 83.9127
118.423 219.263 172.466
65.6175 224.944 182.466
62.0862 149.556 161.347
33.1282 168.378 223.937
75.4168 184.898 232.604
46.3694 210.54 232.775
23.2275 165.011 94.3809
11.322 189.157 158.558
30.9224 209.96 190.245
12.2295 116.252 22.7502
16.3193 28.6216 88.6764
14.8166 12.0958 253.655
8.91387 78.4148 144.612
11.5593 101.176 145.437
31.0042 71.1931 253.589
92.3614 184.6 225.039
81.8442 221.076 262.026
103.798 225.993 134.213
33.5165 103.124 6.66724
51.6373 184.451 126.709
62.3886 172.747 156.678
48.7125 126.17 227.341
37.5435 165.668 209.685
20.359 78.3096 260.551
32.5601 182.483 129.677
14.1622 172.464 178.018
53.4787 115.842 99.9095
77.2524 122.131 121.571
59.0992 216.029 162.773
56.896 135.407 147.455
30.376 72.4698 132.775
21.7095 115.808 100.187
46.8568 167.667 61.4793
96.0205 217.741 247.427
27.9308 21.5494 102.136
36.3249 111.755 98.729
16.5815 21.9505 268.586
98.9994 194.102 161.902
14.9174 132.659 237.443
118.044 217.099 197.259
97.5512 203.424 156.753
24.2988 113.586 17.2325
89.5013 199.898 211.039
18.6295 123.704 108.93
28.7495 228.54 142.014
51.4034 140.749 232.116
42.0378 36.6133 232.964
27.1185 149.496 124.377
6.71374 93.7464 150.396
20.9245 206.643 224.225
52.6371 93.7487 268.972
109.691 216.422 146.992
46.3956 167.158 265.915
38.3676 150.125 98.3077
27.9008 157.394 171.234
21.6872 186.679 221.653
20.2652 57.3683 267.174
38.9707 166.289 191.426
82.2811 165.248 189.831
30.1378 25.1717 81.0415
36.5248 212.424 197.573
15.4639 105.227 138.573
16.7914 180.793 189.987
50.8048 209.177 217.691
80.0251 183.186 222.326
19.0333 150.788 238.692
109.185 199.179 182.873
60.6197 190.219 124.493
63.2265 169.269 210.268
17.8271 225.302 226.255
28.7328 200.633 169.886
82.8163 208.896 232.164
75.5182 83.8685 77.2959
32.6265 181.633 185.505
38.0893 102.085 96.7379
78.0721 162.8 217.527
97.6413 191.615 226.2
33.4355 42.2945 270.687
41.8022 94.5714 260.297
79.3228 218.12 149.881
13.4358 96.8918 233.64
15.0595 218.995 190.09
86.729 216.756 250.253
10.9484 3.63016 168.196
33.1932 191.871 150.469
42.5612 111.656 101.141
12.8836 130.366 115.929
118.705 223.423 183.503
29.8028 218.332 259.981
56.5743 205.714 174.605
22.4218 28.3816 148.536
30.9895 228.896 131.624
39.1535 147.471 204.079
33.4868 205.501 224.744
16.1602 17.9479 149.834
63.5371 199.082 120.047
19.3905 134.194 81.9546
38.01 63.4371 123.604
41.8034 213.813 146.667
84.3479 141.753 205.07
56.6561 91.2246 127.654
47.6106 155.162 196.244
78.0487 170.431 154.254
37.5132 200.957 184.796
40.7611 84.6193 111.112
45.8088 179.386 196.285
36.8255 217.563 185.093
25.1752 2.64994 195.921
62.4707 89.3912 138.025
75.1018 201.901 183.926
37.2394 38.6395 122.813
24.9776 161.365 154.62
73.2696 140.878 107.229
85.0357 186.915 159.928
85.7005 206.343 252.171
41.6178 136.424 248.7
51.2484 205.01 153.917
26.3149 119.163 106.618
43.2138 13.7417 182.773
44.7097 106.072 140.285
77.7517 214.401 242.335
77.8349 220.259 115.238
71.0505 168.927 224.779
27.5467 60.6225 116.209
72.5384 168.628 212.48
56.6824 159.593 144.144
70.0858 113.846 108.21
34.8546 108.294 105.871
10.1422 207.98 200.819
87.0914 202.583 190.108
35.0678 145.766 83.7909
35.1762 3.29826 192.042
45.5936 172.029 256.185
56.359 218.311 182.394
85.8877 126.775 222.968
95.9997 226.742 199.971
44.7326 128.779 118.116
79.8429 116.582 122.309
54.3116 154.184 137.862
36.7548 183.693 141.352
59.4675 84.0893 242.989
7.1523 101.454 233.442
40.298 228.283 181.468
22.8695 97.7825 269
15.2232 104.523 30.0365
86.2715 166.313 222.272
45.9278 81.5919 262.593
28.9363 136.579 244.756
24.1948 51.9592 75.252
118.427 211.188 191.849
46.6099 202.226 160.068
56.8346 96.0753 114.159
100.903 184.906 207.409
33.6589 171.351 191.582
94.6299 215.702 204.284
59.1026 202.833 114.923
35.6504 142.454 232.142
96.5393 161.777 183.757
65.7643 17.9334 48.8353
81.4717 174.626 186.576
14.2629 184.663 207.304
58.0908 149.717 154.504
58.2317 181.421 236.374
17.7204 212.78 201.076
39.5936 93.621 156.235
86.1897 185.622 234.829
26.355 53.4509 122.768
79.2992 139.723 193.013
87.5601 163.56 142.404
15.4004 15.9319 80.4749
15.3966 197.067 172.306
37.7846 103.622 117.79
16.9471 106.958 40.3106
83.7583 118.501 228.239
12.2609 7.03089 85.242
8.24359 25.7711 257.28
10.0045 4.68534 176.978
44.3467 19.6677 162.232
66.8963 228.461 159.402
46.899 188.441 215.79
37.2958 120.074 80.7391
46.8432 53.1018 43.3265
96.0105 216.827 154.384
59.6378 128.411 139.043
109.214 191.444 151.976
65.8965 175.778 214.152
86.3459 226.894 142.311
50.0009 136.551 110.665
9.21511 39.1189 94.0543
48.4174 137.544 260.125
68.4138 194.173 148.481
20.7652 213.015 138.964
43.2782 223.806 151.385
33.5375 130.469 242.018
19.9292 100.65 253.692
51.7877 79.5001 263.576
27.8454 81.2033 250.937
29.8179 5.88183 42.6965
47.8663 190.362 115.789
78.7698 164.405 226.42
103.986 168.79 182.649
25.6054 6.79178 241.258
40.6704 110.532 5.82179
56.2728 164.778 151.461
100.648 173.264 192.291
36.5438 111.519 242.152
41.7297 109.356 145.34
47.9673 200.875 261.755
95.2179 156.957 194.509
108.807 218.029 180.012
33.9185 166.464 129.132
50.7408 184.586 138.688
97.9575 187.17 184.142
39.2147 58.0894 240.982
99.8332 230.24 142.966
12.8441 125.19 233.149
73.7193 176.088 163.324
86.4283 151.258 176.004
34.5522 184.247 199.91
33.2613 156.764 163.086
7.27094 11.5474 162.832
40.9899 9.88764 255.828
31.8917 70.3179 233.804
77.9665 92.7311 136.314
9.89527 177.222 88.2238
16.9001 9.94406 242.584
95.5096 126.675 222.847
8.78248 87.6834 143.484
35.849 126.079 242.485
23.6883 131.918 243.107
54.8303 182.122 142.016
11.1347 69.5345 241
30.8801 192.859 174.059
19.1999 87.5147 115.347
46.6019 109.675 87.1126
22.9196 37.5626 76.3892
22.7562 116.189 258.73
29.632 80.3556 158.285
17.1234 102.929 221.292
97.4817 173.913 214.85
91.3667 189.415 218.548
45.1901 84.7886 149.265
68.8585 185.375 233.564
27.9946 202.568 206.592
56.3478 211.187 112.46
70.2407 220.627 191.519
47.247 18.3263 260.417
23.1358 69.732 154.154
14.5029 162.184 270.903
69.8497 183.105 180.134
60.4256 85.6928 268.444
20.5563 108.724 254.993
17.5511 162.697 185.694
15.9587 109.6 93.2051
32.2331 207.49 182.57
26.1155 17.5509 126.294
61.8795 136.81 139.308
11.2635 53.2881 236.339
30.2975 214.106 120.234
6.60008 116.274 106.947
52.0347 182.927 156.849
74.2775 143.585 214.119
74.4001 228.81 165.694
24.9483 22.8279 188.32
109.162 229.63 211.198
63.7204 187.658 149.115
63.8351 197.752 258.808
16.3377 172.277 150.774
50.1513 32.0338 249.926
21.3305 134.079 266.133
32.1169 230.255 264.18
71.3809 153.194 185.132
22.5135 229.74 237.808
54.9241 139.54 207.486
56.4072 120.113 128.687
9.72336 13.9157 256.275
111.475 187.024 196.336
13.9938 89.7345 150.106
18.162 101.655 170.68
54.3285 76.7378 256.627
105.192 194.846 187.772
21.0872 223.894 216.907
19.6264 195.015 134.166
68.325 96.5424 141.468
22.9687 16.651 32.0931
82.6338 194.86 127.192
40.291 118.712 88.9866
41.5044 52.5305 243.663
28.283 213.459 177.396
19.8299 226.251 187.355
101.423 206.972 191.755
13.7094 85.142 273.848
9.9216 89.9698 134.258
40.2341 119.046 220.997
107.357 229.682 187.122
41.8083 138.965 86.6645
118.726 201.166 182.424
31.3986 219.432 180.307
27.105 34.4891 154.944
31.3374 158.312 205.82
64.4617 156.224 135.561
36.2244 87.1634 139.884
65.3172 143.219 128.523
57.8855 206.043 271.281
11.1064 148.929 93.3086
53.8977 202.352 263.616
22.528 39.532 229.495
115.831 224.003 154.11
14.5435 182.126 106.451
50.6752 162.538 148.804
61.4334 204.621 108.017
22.1796 114.107 250.513
50.3149 196.188 231.326
41.3342 134.766 129.5
37.747 206.385 124.948
43.7396 20.5729 232.546
53.7195 121.753 169.858
40.9005 107.192 151.607
78.6759 129.924 119.633
7.15145 204.801 154.224
11.9835 217.64 227.164
40.7393 99.5886 7.17759
24.3627 215.238 144.681
62.5237 195.599 251.579
70.1577 211.376 150.83
41.3789 178.212 210.674
34.1934 159.947 226.484
35.74 75.5669 142.851
8.10238 83.547 134.44
37.1377 230.155 174.558
69.918 109.738 120.73
22.2165 21.928 133.104
17.9985 99.7091 144.01
110.211 192.898 170.089
43.4917 79.9761 121.655
51.6987 213.204 136.467
75.6407 181.606 154.064
100.138 200.152 221.491
9.37344 223.451 245.311
17.8475 186.905 199.767
11.4067 25.279 263.843
44.8951 147.329 97.3541
116.496 172.981 156.06
53.5349 159.453 201.86
73.672 144.907 188.434
45.0334 118.918 99.2933
86.3133 94.9734 123.1
56.3708 162.365 225.279
47.0592 202.927 122.72
57.9304 209.315 184.21
35.3166 51.5712 121.538
44.2001 199.758 116.059
79.4831 175.332 225.124
41.3864 143.609 109.992
57.9692 183.924 244.496
87.1032 205.387 158.408
102.3 223.72 186.772
22.8708 177.942 199.838
46.2888 228.527 270.365
80.5578 172.933 136.533
45.6088 113.434 239.153
6.28582 115.014 236.569
103.953 168.206 176.117
44.783 113.347 249.309
43.4036 196.544 249.419
54.6387 160.003 194.503
63.3998 161.348 142.253
48.8385 91.5021 241.559
52.1616 191.5 216.662
31.0711 116.328 95.2499
92.7003 194.227 145.302
23.8701 209.609 173.866
78.8099 112.628 105.811
87.0866 104.961 116.473
17.0679 103.276 24.2967
26.3116 54.5362 103.785
48.4667 92.1107 150.053
92.8937 149.326 175.547
27.897 202.184 176.107
50.7595 46.8824 250.324
29.6512 40.0197 125.315
20.0749 112.853 164.166
59.2743 201.333 191.704
9.38851 193.912 166.206
11.4943 78.6756 135.97
109.355 170.687 167.243
16.5942 13.7076 62.6755
85.9361 190.751 228.703
92.5226 225.121 223.748
16.1633 44.8447 121.594
50.5246 150.873 166.392
72.797 224.835 126.807
46.2118 91.0894 89.5546
12.3907 51.2291 106.876
30.4081 69.1476 268.236
79.0347 224.28 180.449
43.7879 192.063 172.173
46.8396 26.5901 271.514
55.9901 206.753 125.155
51.8464 128.093 121.734
19.2786 166.663 100.862
14.3533 114.993 248.334
11.334 218.931 213.231
95.9167 156.962 177.153
92.8416 210.714 135.159
77.1461 227.979 187.453
85.6752 177.04 216.719
70.0675 200.515 196.054
29.6433 138.744 73.4881
26.3279 177.792 166.645
39.3271 32.4602 178.018
44.7955 57.0713 234.353
44.1793 211.054 219.628
100.169 201.036 142.927
9.19776 99.2658 160.521
20.1898 9.3291 150.93
83.3173 225.158 131.387
81.8333 161.882 152.334
46.1182 24.7606 171.771
52.0073 207.632 186.559
60.5691 100.942 244.666
23.6378 122.61 36.8929
12.9938 198.279 164.326
54.4519 160.281 168.032
82.4258 198.212 111.52
35.3607 35.0132 76.0056
36.95 49.323 43.1207
28.2564 111.143 141.867
44.7983 53.5433 250.466
26.5078 87.3197 98.3592
67.1211 135.827 124.706
9.44332 11.53 182.729
22.7336 213.059 250.625
38.4159 204.67 238.424
14.4566 104.51 113.118
56.2899 152.064 215.742
22.9024 224.353 199.562
69.7971 222.745 208.628
66.6 144.044 212.326
6.60661 51.26 246.267
71.4232 210.803 264.622
44.914 96.565 92.3889
55.4358 197.278 161.607
16.7562 113.658 80.7224
70.93 121.709 110.405
44.7714 121.737 249.649
12.8987 25.2968 234.773
17.3316 55.8693 81.1467
25.843 102.277 273.965
17.908 160.82 233.411
67.8171 179.342 152.441
12.4323 149.86 102.248
43.8216 125.766 79.255
35.9756 87.4703 151.167
39.3284 25.146 272.255
13.2127 30.4321 107.205
29.3947 212.562 199.836
21.6517 190.402 205.333
62.8623 200.807 202.428
16.8235 49.4725 75.8704
110.317 207.002 165.855
10.3895 69.9475 143.778
50.291 179.066 234.876
99.654 195.73 190.298
28.0876 136.819 251.943
57.8902 220.027 140.199
16.5813 187.357 138.453
113.364 196.852 207.231
20.6241 127.267 222.071
22.3963 110.197 231.653
80.6236 197.826 191.093
77.7498 215.879 229.578
76.5324 138.067 186.37
78.1125 190.53 222.012
20.6763 83.1833 149.983
40.8248 196.915 124.899
49.9231 157.703 224.225
108.399 218.489 196.514
15.9048 59.1727 257.317
22.0496 165.496 270.749
40.4177 87.9259 89.7015
25.6094 141.597 85.0917
121.235 214.9 158.002
104.363 177.277 200.555
101.391 191.188 217.838
102.211 166.45 204.908
18.2719 50.0504 262.35
7.376 43.427 244.254
75.0397 222.058 261.7
37.4605 141.284 75.4664
108.62 224.094 218.429
107.244 124.333 234.538
21.5298 17.0111 43.015
33.1733 230.996 136.583
79.4411 98.5246 105.783
34.309 114.857 84.6705
46.1804 119.209 236.961
93.3394 211.539 161.598
10.7776 18.5278 240.82
88.3809 185.294 129.919
39.1207 190.643 169.328
22.1137 78.5009 159.813
101.909 186.209 135.596
78.0121 116.047 237.215
18.7922 96.9121 237.95
39.1269 79.7516 125.016
23.8858 210.512 186.354
37.6592 139.924 113.668
93.8738 225.253 140.062
26.1237 179.562 133.622
43.8737 159.856 57.2845
17.4806 36.9781 178.018
101.781 168.916 164.528
38.8018 157.777 263.527
35.5218 114.563 225.463
83.483 201.327 142.465
44.3421 151.702 152.555
33.7621 147.747 200.144
41.4959 99.4802 255.721
22.8531 161.81 242.863
26.1923 132.371 105.573
27.4061 201.848 228.582
82.7266 209.368 111.962
39.9508 139.376 238.866
65.8084 138.691 185.708
92.9521 133.427 219.974
12.4075 184.42 93.6835
73.7391 164.698 132.81
11.0886 120.239 110.219
72.2074 92.8926 75.5807
17.1382 71.9852 237.694
70.9343 210.043 199.973
103.968 165.911 188.045
25.1765 46.0767 228.038
9.64004 70.8591 255.396
15.3445 230.671 198.896
47.2842 115.865 138.68
30.7545 148.827 269.782
11.6226 41.2211 78.7372
88.5395 157.257 170.824
119.52 212.758 173.172
93.4746 219.031 213.497
95.1279 177.394 163.907
16.3062 37.0086 95.1831
74.4646 182.13 203.897
24.0084 181.752 88.8909
63.3655 114.288 107.512
39.3819 206.766 199.457
69.5668 192.791 112.808
32.319 109.315 84.249
16.6231 226.613 162.558
107.116 189.223 136.463
38.9447 228.116 131.197
35.6846 46.3622 228.508
70.3665 94.1427 101.736
80.0774 209.518 175.992
77.5083 223.259 269.132
18.7112 12.138 27.4096
15.219 179.186 176.401
22.2771 68.7003 241.927
103.934 209.887 158.677
41.0708 219.84 203.209
103.516 217.536 211.701
46.4776 29.8952 96.6325
20.5933 184.836 166.218
44.251 87.661 153.579
12.4319 25.0965 152.744
76.0848 86.8951 118.796
59.4456 221.1 221.826
36.827 115.46 148.033
17.5266 179.531 154.052
84.1467 135.149 226.287
69.2266 195.546 170.541
26.8839 168.232 219.109
14.532 168.914 105.218
33.1557 134.7 231.293
21.9323 168.084 142.262
94.1668 179.934 216.397
19.7058 37.976 269.634
118.441 206.132 159.559
77.0718 216.338 209.164
9.68096 135.472 120.441
72.6187 155.272 145.552
117.284 201.302 166.715
28.7445 137.801 129.411
16.2781 106.89 16.9283
40.6033 36.9544 176.869
35.7814 109.652 166.04
61.3013 203.361 178.734
8.54796 27.1937 244.374
25.866 156.662 210.86
64.4384 225.342 211.569
86.0006 107.913 241.643
26.5121 103.84 266.737
45.8372 160.353 132.074
40.9965 85.6287 132.161
18.8915 39.661 167.08
14.0822 103.268 166.247
37.9485 159.432 156.496
31.9779 173.56 136.37
106.303 134.809 229.683
35.3078 10.9362 236.408
59.8505 100.349 104.129
13.221 122.413 224.662
79.1783 219.651 224.21
71.3137 137.43 190.239
15.7659 214.721 220.218
69.5068 209.955 107.652
70.3895 224.836 138.069
54.6372 221.373 157.918
16.6051 217.474 162.91
69.4416 230.6 147.093
46.1339 171.743 236.461
30.5119 77.5485 108.108
27.3541 113.701 164.632
24.6002 179.441 146.48
73.2681 191.176 235.927
85.0568 221.713 115.104
64.1259 201.995 265.362
104.369 179.724 147.053
44.6137 199.65 212.425
53.8403 97.0374 243.169
25.8376 75.5685 241.627
65.6852 130.638 242.37
75.8098 162.077 138.598
20.7186 14.2998 268.053
73.9303 203.477 262.156
113.715 194.715 196.481
72.7571 149.851 151.297
46.3511 204.095 204.662
28.3299 223.289 218.106
14.5806 94.5051 110.067
87.5118 230.73 170.595
28.1615 149.774 188.459
28.7562 210.571 249.926
68.1301 176.273 126.606
75.3527 184.43 195.843
75.6535 175.024 127.466
16.8963 111.324 158.762
72.4071 35.2157 264.017
87.2104 171.363 138.91
25.0675 62.6992 266.803
23.8004 103.474 137.945
42.461 17.9933 153.674
48.37 104.801 256.645
27.0173 173.29 269.596
107.053 196.483 143.581
28.3643 95.3312 271.289
71.7578 188.291 176.103
29.3778 181.71 230.366
32.3945 120.803 251.656
85.2874 180.36 223.062
60.8124 193.225 113.735
113.625 198.888 147.408
12.4705 185.136 164.79
15.438 58.7705 239.557
79.7636 174.574 167.306
28.6292 103.949 220.601
78.9864 226.381 122.304
30.6175 189.876 234.102
41.6038 208.809 204.541
7.23035 107.161 105.824
55.3244 226.715 173.254
40.1492 100.516 2.08745
41.1284 221.775 190.58
22.0352 29.7968 119.585
93.9738 227.933 158.353
72.6903 119.479 253.26
13.8562 49.2079 233.861
47.098 82.4647 253.737
21.291 95.9426 242.742
50.1193 32.0332 104.101
44.3095 125.519 239.823
52.8922 97.1384 91.3552
66.7694 83.4609 135.302
25.5017 86.5681 146.758
42.024 85.4805 250.506
85.3784 230.077 113.798
92.4908 230.777 118.172
67.0985 222.923 124.555
10.2684 175.63 188.615
37.2518 2.29715 169.807
46.0412 205.2 228.588
21.6493 180.082 181.163
95.7925 162.321 197.449
106.167 209.582 129.533
14.8174 123.459 120.319
47.9896 108.136 102.528
10.9729 70.425 135.929
69.5716 156.778 138.545
28.4608 127.599 86.0288
91.404 195.123 218.685
27.5315 7.49118 69.8094
30.1118 2.08015 158.458
75.6546 207.418 114.475
47.4533 146.471 117.938
37.4733 60.4868 92.0913
30.0931 210.787 237.461
93.263 167.763 140.583
23.2027 90.672 234.73
31.4094 85.6441 106.943
41.7289 42.977 89.4983
14.751 227.741 214.665
28.8999 69.4328 153.892
79.8244 112.319 137.276
7.29518 139.036 272.924
22.1971 39.4567 175.209
84.2322 181.058 136.411
13.8652 167.219 96.7714
69.3145 229.496 220.571
30.3868 99.8677 126.255
61.7586 162.536 162.589
17.534 183.861 126.951
26.8312 99.249 240.634
108.652 207.973 141.02
72.115 133.41 129.829
55.5796 189.322 246.596
44.3574 228.365 201.292
25.4652 156.268 91.7051
115.355 131.53 233.289
63.0124 229.349 173.326
103.026 225.725 146.58
25.4107 119.714 248.207
93.7294 177.416 137.065
53.9672 194.777 116.095
30.2389 138.409 88.7927
8.86332 201.036 160.461
14.1379 197.843 182.65
25.9602 97.5373 225.302
67.8916 211.229 227.189
30.558 166.358 145.598
58.7189 219.34 169.492
40.4319 185.122 217.497
50.3082 134.048 88.1519
50.4216 138.512 96.6426
8.30997 114.762 92.7423
23.6262 185.831 124.791
56.1 82.6653 113.547
18.2655 117.899 254.915
98.8783 59.7479 53.0402
70.4368 208.601 161.614
66.3453 231.149 199.801
79.4235 182.306 207.226
11.8385 62.2038 248.873
26.5405 122.262 70.1449
84.2835 215.842 241.161
72.0619 99.9923 105.584
20.0119 108.712 109.75
10.663 221.786 195.571
34.1838 127.59 100.018
13.7235 98.1065 152.263
18.5271 116.425 157.733
36.0651 220.284 212.619
15.8899 20.5303 187.474
47.1478 157.628 53.2995
88.7368 161.884 213.039
76.1516 231.087 256.186
8.83646 116.387 115.986
60.7032 148.799 182.636
22.7443 208.267 241.474
14.9734 115.842 103.976
54.749 130.74 101.537
49.5655 90.1052 143.161
54.2803 88.8678 134.207
109.781 126.821 248.091
93.787 175.846 205.995
26.6312 62.4282 231.603
41.9115 32.0604 163.018
71.3047 135.077 237.936
18.3997 119.638 240.173
57.3842 136.246 96.0894
27.1794 170.61 132.956
16.2572 97.3914 136.025
31.1079 155.555 107.305
47.6346 229.816 150.716
84.2652 228.863 120.86
101.956 218.272 198.476
8.08132 3.71662 29.0337
81.466 87.299 115.471
23.7779 2.19634 182.093
12.4448 36.5504 116.833
27.5728 126.509 248.842
47.5616 191.299 249.489
28.8951 176.174 264.905
111.337 197.553 161.759
99.2189 161.352 172.931
22.0255 125.461 250.029
20.6484 133.095 233.338
23.3291 22.4606 271.805
47.5139 126.32 90.8012
85.0042 114.168 246.447
95.6839 199.385 122.235
37.8539 148.274 115.849
70.2108 223.796 119.278
46.4937 145.856 204.327
43.4322 101.945 123.473
28.0035 89.3049 104.575
38.4167 230.376 269.354
15.8048 75.814 128.116
32.7996 204.858 214.918
35.3928 216.802 254.934
50.5569 83.9402 242.596
98.3715 113.64 232.747
59.3273 149.901 219.901
48.1743 200.074 255.35
18.0045 210.548 155.449
41.7856 50.3693 119.441
112.685 182.647 167.438
29.855 160.368 222.079
16.6163 141.48 258.9
42.8912 24.6757 76.2708
45.687 178.359 206.928
47.1266 88.955 127.94
18.8955 112.739 141.862
53.0788 225.48 188.87
87.8375 198.123 247.557
50.3867 91.987 120.814
74.9559 227.657 219.085
53.7277 131.831 229.028
38.8813 110.029 79.6272
25.9019 124.715 81.9255
30.1248 125.633 76.2053
95.7046 183.804 129.072
71.8275 131.107 122.563
47.9354 100.918 113.412
110.976 221.035 210.905
75.8649 194.366 152.249
40.3026 212.374 166.047
79.4337 134.236 131.049
29.9384 76.2525 127.858
49.6185 149.641 96.848
25.5403 230.599 213.858
58.6452 107.719 110.639
27.8353 209.921 220.504
63.7878 186.377 233.654
36.4843 202.802 232.843
27.4559 81.412 140.704
99.9308 185.462 155.643
21.138 107.202 272.132
67.4069 204.439 251.224
21.4104 101.541 232.438
25.2567 149.262 82.3416
35.7029 145.496 170.208
62.0966 186.494 225.689
12.7832 199.137 141.747
77.2227 156.957 116.094
50.7525 211.192 272.617
39.6903 122.999 130.923
23.3027 217.747 260.654
40.8414 193.245 244.706
34.8943 231.288 214.181
65.2234 147.375 116.361
39.2137 128.387 219.848
11.7127 184.31 136.346
27.0025 51.7738 265.997
28.9959 84.5945 127.733
57.1874 192.246 252.421
89.1861 220.38 233.326
25.0608 1.93307 170.68
5.01274 104.042 241.331
51.3844 192.155 254.43
29.3441 175.147 94.9907
44.4174 67.9805 253.367
89.7732 230.252 227.652
83.1276 164.001 136.678
78.9235 133.84 108.598
39.0512 176.904 153.309
32.539 190.366 195.607
8.23598 47.0118 254.023
87.2313 159.728 197.094
100.56 127.228 247.063
42.7311 206.009 261.482
11.6275 41.3784 237.879
43.154 141.975 192.307
53.6933 199.177 189.35
68.5119 95.842 255.047
58.4853 104.539 171.926
66.7972 99.4356 117.777
11.3717 162.315 235.935
68.132 167.084 126.45
60.3705 113.897 135.986
79.9983 168.157 212.327
117.184 196.447 156.169
35.6725 224.787 260.191
5.60853 127.628 97.9675
29.7944 190.013 221.343
34.322 79.5604 98.834
27.5019 6.42962 38.2231
37.5977 229.833 237.545
50.8227 203.488 132.19
90.6056 196.157 132.78
16.645 129.334 106.724
12.6454 206.723 152.658
37.0756 112.519 137.389
30.5208 107 98.2349
40.0223 158.585 184.719
46.5153 31.7796 267.16
43.0484 185.979 233.616
50.8351 157.864 127.698
100.684 223.289 124.303
114.472 191.734 177.376
14.9018 9.97741 154.547
55.5108 146.683 104.537
84.0016 133.056 217.703
26.8032 136.801 232.63
38.9362 119.99 250.74
62.7047 78.5248 124.361
22.5165 229.448 209.036
18.8078 108.65 116.097
23.1545 154.882 196.877
53.0691 102.053 109.751
62.6318 103.478 253.24
15.5582 202.581 176.437
21.067 3.33726 23.8639
63.4563 197.628 243.917
61.8849 173.466 235.601
22.4016 87.8602 123.926
47.8606 123.977 128.365
40.0957 37.9704 268.982
93.6368 169.656 219.523
7.22797 159.065 273.517
12.0343 105.569 95.7801
97.0464 198.599 131.846
74.1451 105.011 113.187
112.684 209.608 200.216
45.0588 152.888 161.382
39.3529 63.3468 249.918
51.6434 133.391 237.181
5.68857 91.7269 141.695
18.089 154.693 105.717
34.2093 47.2382 267.527
17.8999 230.829 166.558
69.9797 217.717 271.351
52.032 121.667 105.478
13.3469 104.505 252.568
9.06206 200.541 127.292
96.7061 230.14 208.371
46.6813 218.354 169.228
17.9865 209.764 240.925
110.635 216.392 136.071
106.485 230.141 174.084
106.645 192.35 158.982
57.0255 114.816 111.171
81.88 118.242 113.078
55.3571 92.0744 248.07
42.0655 172.148 133.727
15.8754 105.287 100.058
54.1037 219.684 208.823
20.3771 230.483 155.492
85.4598 226.472 245.513
62.0142 120.118 119.524
42.7957 226.385 262.811
42.7037 63.2138 130.668
45.6632 217.395 272.379
26.8305 124.904 121.363
90.4092 198.17 155.088
28.9115 157.94 274.407
110.167 175.062 194.983
89.7708 205.862 133.794
62.1612 90.4322 100.844
30.0808 3.87694 95.9054
43.4802 186.96 133.347
67.3015 103.981 103.849
38.0543 198.497 246.869
8.16568 90.3064 272.25
34.5953 56.7509 44.9225
54.9487 104.348 258.28
67.3843 122.668 176.898
62.6178 113.659 130.374
70.4649 86.7275 133.754
55.037 231.154 210.995
64.5957 136.964 117.236
49.8888 144.456 197.515
42.0175 209.244 246.883
28.7794 225.689 242.695
71.6238 161.085 224.717
95.5401 224.183 118.767
111.466 229.67 203.438
63.9518 228.145 152.342
34.9228 49.7673 259.674
25.7306 191.493 166.117
18.09 92.3067 135.572
60.8237 202.625 233.298
67.2873 105.748 112.452
35.6705 53.9164 51.8412
26.1115 228.712 150.434
19.4854 182.101 132.39
73.1581 228.037 226.281
35.2077 59.7388 85.2127
27.866 87.2206 155.286
64.3567 120.006 168.613
33.6286 142.642 274.253
28.2328 206.486 232.243
94.4468 225.645 215.035
20.9347 84.501 129.97
32.7558 211.032 260.72
102.192 128.276 227.966
36.1566 122.11 75.3483
21.1725 25.8352 273.036
46.0455 153.794 96.8033
101.449 222.433 172.318
88.9283 136.96 123.07
18.1357 112.106 146.881
68.9426 167.765 263.734
49.1814 188.539 244.35
83.1207 161.072 201.661
44.9479 79.1092 141.276
48.6628 198.833 236.076
16.5018 218.804 250.722
25.0778 231.296 167.834
63.5093 106.168 107.985
26.9735 140.909 274.197
103.563 197.075 210.477
19.0597 93.8877 125.391
46.9094 54.7546 94.9186
102.202 190.839 196.207
82.1079 218.926 232.618
45.5926 217.704 152.247
21.1063 222.989 149.57
90.427 219.91 225.985
24.2942 7.07212 258.164
76.4934 156.01 207.315
49.2353 85.0175 98.9516
53.8973 112.125 115.595
64.0173 82.9997 113.361
54.4709 183.465 117.718
95.2391 151.477 182.182
5.64907 59.6876 245.493
40.4408 201.904 255.116
89.622 146.623 118.921
13.1505 87.3892 162.503
69.2247 93.9007 134.012
83.7594 103.47 108.538
105.535 214.959 185.811
42.2299 55.4105 40.3497
47.9511 141.424 265.541
21.7979 44.5724 74.8933
129.583 167.965 166.014
75.5657 197.62 139.709
94.0025 109.176 243.963
40.6978 116.267 244.657
40.1131 56.2254 113.944
77.5721 141.382 233.772
25.0833 133.371 273.863
63.4731 79.3805 257.533
29.5704 61.6392 97.3963
65.3887 223.3 133.978
39.4669 77.9478 101.595
11.9308 152.715 240.085
44.303 59.4059 87.0662
107.937 189.015 203.302
113.837 210.507 143.967
45.3705 58.4494 245.706
44.6414 211.055 270.329
34.3904 1.43882 200.457
48.3689 229.259 206.235
17.89 16.003 32.8216
121.641 221.231 165.649
46.2031 96.1051 137.821
109.269 178.81 173.132
46.5228 214.074 173.031
71.7279 113.71 139.012
55.3053 214.579 119.22
90.3786 123.074 224.863
17.1774 230.717 249.135
10.8032 39.197 244.782
43.7057 40.9902 235.219
29.9929 108.146 138.662
84.8879 230.009 232.679
49.6267 83.3203 144.563
83.8776 231.293 185.528
82.8418 185.424 122.423
24.5662 142.025 262.403
76.3373 208.735 107.935
10.0182 111.295 104.9
30.6832 16.8879 128.08
100.021 186.134 199.094
54.3479 231.41 177.231
22.2728 122.671 256.728
100.617 230.231 186.117
38.0958 119.809 136.21
54.7043 98.6589 97.6569
109.907 196.767 138
84.7714 224.843 156.067
8.23049 61.7972 115.443
68.6716 107.843 132.463
38.914 211.039 251.043
25.707 90.5732 129.789
47.4818 231.263 125.256
80.0776 231.266 198.648
31.0555 118.106 221.96
46.3782 108.921 133.283
26.0474 89.7645 91.4724
62.887 195.046 239.81
31.5435 90.0074 88.6195
32.1011 207.372 252.867
80.8894 123.629 256.789
38.9159 216.907 262.327
69.0168 230.613 175.928
12.3318 209.176 242.159
42.0343 90.967 135.885
28.0298 118.377 35.4691
15.2562 1.22804 48.2634
55.0935 147.332 189.488
114.206 228.763 179.699
101.997 201.432 132.654
51.6573 91.8479 114.086
58.5628 178.308 138.131
38.3488 231.449 143.187
8.82447 141.635 241.292
35.8689 109.969 140.962
25.256 48.1122 271.247
95.6347 181.038 207.152
85.696 199.305 150.237
90.8622 222.048 117.285
83.5296 229.96 207.689
45.9002 67.3419 124.749
127.695 156.82 162.035
24.0195 186.77 93.7441
81.921 198.043 254.484
98.553 115.211 247.425
41.2176 160.186 255.276
76.297 231.263 244.527
85.1392 107.184 128.292
16.0615 95.6108 223.823
73.453 121.263 244.593
59.4646 219.442 274.303
65.861 202.125 196.633
59.4896 151.968 192.103
67.3799 198.546 239.146
17.3359 53.8965 233.411
9.48454 2.67758 38.3473
28.0626 40.2181 98.8691
38.8488 82.7203 145.199
72.8721 229.708 195.834
30.2216 130.992 109.382
61.9379 143.071 252.984
11.6164 103.14 105.141
50.086 41.581 253.959
22.3397 90.2535 130.842
73.8514 227.649 265.89
85.6502 198.461 160.305
75.6095 127.759 258.928
10.6862 14.4837 79.2929
32.2245 196.232 128.765
44.9161 120.448 227.321
104.695 58.9211 56.9294
33.4731 84.3716 114.116
99.4467 59.8882 59.204
19.8224 99.1067 226.566
85.1367 97.7937 127.531
87.8343 225.206 213.384
69.8872 114.515 123.164
101.887 206.697 125.968
88.8336 210.04 273.188
65.0507 98.5313 264.091
70.6827 231.436 213.907
19.3595 17.8541 137.187
46.4034 231.37 166.026
10.9964 160.406 243.296
43.1514 116.807 127.693
37.6628 194.711 132.948
83.314 222.751 222.619
29.0091 2.06483 186.165
10.983 13.197 246.622
32.4117 49.8424 102.04
29.3394 229.414 247.306
38.157 10.6696 101.348
46.0884 231.529 157.737
44.9934 153.479 115.781
65.48 154.743 184.155
22.0143 131.245 227.697
14.7508 231.318 177.569
53.4161 175.33 238.643
7.39813 199.209 166.651
48.1966 230.246 118.187
43.5575 30.7939 271.548
25.5939 91.1396 109.617
99.5383 181.148 212.966
99.2073 231.233 174.062
63.4629 163.232 123.513
58.1537 196.862 235.857
47.2899 214.098 149.567
22.9557 23.3651 105.025
82.8303 163.586 212.275
39.5524 185.601 135.358
79.9983 228.523 243.162
87.5452 124.798 266.411
76.0262 195.532 112.898
49.3638 231.131 213.223
43.2093 231.111 127.746
97.5069 190.584 211.091
76.5232 225.011 143.892
93.824 231.362 220.36
33.799 34.4422 176.65
103.67 230.687 221.049
21.9207 1.17464 201.451
42.9087 214.126 258.58
73.2059 221.914 272.626
20.3013 231.561 183.669
78.5974 229.793 215.729
49.2487 120.114 130.3
10.1521 60.9591 241.546
60.1886 92.1049 86.0498
14.5671 112.896 164.308
94.4778 230.262 192.094
48.4862 85.8269 249.254
25.503 83.4593 153.328
21.3606 13.6256 139.361
35.0959 150.611 110.506
32.8873 223.411 248.036
81.6787 150.413 232.459
61.5031 120.15 132.649
62.2559 212.701 118.139
74.5961 143.261 254.836
24.7137 2.01265 154.55
15.7032 2.4155 74.4676
22.836 101.36 218.821
53.7386 117.844 109.413
76.7404 113.154 247.04
66.4385 229.091 127.507
16.8701 222.437 152.93
97.3485 231.327 161.318
36.163 118.593 128.047
16.8572 96.3716 129.656
68.0452 229.898 272.46
20.0552 1.63791 187.518
77.7542 230.633 235.876
39.4608 130.851 242.187
13.16 94.0833 137.012
13.6718 107.467 258.272
4.98106 201.316 124.814
102.33 178.015 208.846
27.085 24.754 273.489
47.1568 209.012 131.294
31.0026 6.26474 242.275
51.5579 188.572 174.277
22.4522 173.642 138.539
72.6814 99.1452 124.582
32.4188 115.348 140.651
11.016 55.1142 254.288
21.7925 231.427 190.138
58.1972 100.704 265.194
18.0647 0.972077 194.573
55.4683 230.919 115.935
34.631 105.077 93.9339
87.4363 200.784 272.501
8.49254 42.3134 253.683
14.3732 88.4264 132.065
15.4874 65.8374 139.4
90.3547 231.245 200.573
57.3483 231.572 173.402
72.0714 141.694 132.525
30.8919 43.927 227.844
65.6012 123.361 115.608
28.725 231.637 183.082
37.6439 230.28 125.57
4.62154 115.9 98.1448
16.3991 27.6005 263.536
5.57921 57.8052 254.251
39.1448 149.012 170.083
27.023 87.6197 112.082
14.8032 90.6069 124.13
32.2783 151.746 112.779
24.0382 174.135 265.464
39.6508 156.21 114.979
40.9236 113.583 131.096
18.7048 18.0843 77.3968
93.881 124.181 255.235
