ply
format ascii 1.0
comment Created by Open3D
element vertex 786
property double x
property double y
property double z
end_header
106.948 178.186 40.3441
93.4851 138.311 230.303
75.9165 141.395 251.709
42.4222 126.181 87.6811
104.123 95.8405 244.662
50.2274 77.0731 153.68
64.9502 92.2996 163.915
88.4293 94.7349 270.077
41.6236 86.5715 95.6537
69.821 109.658 156.905
42.2486 97.7231 134.02
25.8951 103.008 153.835
102.704 147.382 238.153
62.9633 75.1399 160.878
71.3769 121.353 104.229
85.7659 149.367 251.8
63.3833 110.326 177.886
34.942 162.376 161.597
39.2626 105.845 96.6419
105.608 96.9999 268.134
74.3159 198.212 39.3916
47.7892 154.734 185.156
29.3018 122.768 111.931
44.8741 104.76 86.3187
15.9122 124.522 138.653
38.7619 88.5869 153.685
72.4801 184.816 14.2449
51.9981 181.271 117.271
38.8384 122.578 75.337
25.3255 151.319 102.476
47.5747 191.413 94.7734
81.7824 94.4397 259.362
23.6297 112.278 107.271
79.743 137.433 237.818
59.1174 122.549 92.8864
63.0781 218.616 24.3414
91.8582 183.989 44.0787
33.9909 93.9731 128.638
67.6763 211.012 31.8839
30.8183 97.7946 118.747
72.4209 222.654 34.7291
33.6161 85.6501 135.6
30.9388 111.485 82.1085
54.2401 69.8539 130.863
27.7386 96.6129 94.1293
59.7539 204.702 35.2141
35.8554 116.749 113.122
102.035 167.427 9.71019
30.1716 132.997 169.988
43.3868 147.368 151.948
17.8562 113.493 140.913
75.7581 103.95 129.426
30.6561 100.834 87.9561
106.984 95.6215 254.203
119.829 121.037 259.851
36.3697 104.692 132.141
59.1067 76.7513 92.3443
34.7007 139.406 103.218
100.894 182.992 45.3513
15.4843 121.3 119.125
59.686 65.5807 145.554
71.1543 79.3131 166.065
32.0088 85.5471 113.317
51.2129 87.0234 156.82
35.8076 106.285 115.022
66.634 226.157 38.546
22.2466 134.897 146.107
77.6303 217.697 42.4218
115.762 135.54 255.962
115.227 105.209 253.92
29.0893 109.915 130.477
50.9118 111.516 167.292
59.0341 84.7293 138.188
57.2185 88.1865 75.8354
37.3767 157.723 109.779
25.6669 114.686 167.432
56.389 66.4659 123.365
27.3623 138.294 94.655
43.9536 129.113 95.4899
63.9304 222.954 6.21297
66.0868 123.196 85.0675
33.1496 97.6447 81.4989
52.5783 112.013 76.134
32.8589 102.972 157.049
53.2646 163.308 100.243
33.3543 96.3443 153.634
48.4976 99.3228 79.0774
88.3396 146.493 240.383
36.553 85.2148 145.46
105.628 110.675 232.392
64.0551 98.4277 150.884
17.7737 120.402 106.97
41.1196 141.514 83.9548
40.4004 132.883 180.315
58.1372 120.639 181.448
62.4104 167.231 109.656
49.8566 94.3494 137.432
64.4065 198.758 34.8693
27.9823 103.208 142.619
95.1948 91.7632 264.37
37.1477 133.824 84.6772
24.486 129.489 118.443
71.7512 96.5479 74.2785
39.6292 169.291 153.639
34.0685 95.1591 146.862
48.8022 147.894 87.7496
43.1459 141.674 157.311
46.0973 72.1109 132.206
72.2273 135.849 263.389
41.0533 163.757 129.335
27.7965 104.8 125.186
71.3746 171.343 92.3481
50.344 87.8748 143.416
53.8738 136.642 88.4785
20.631 106.086 131.158
71.6501 97.7428 123.196
25.6061 136.111 109.157
30.464 104.597 166.106
51.7988 82.6784 84.1655
26.6604 92.1309 112.357
22.5416 108.961 94.3926
53.4754 130.272 95.7871
47.815 178.384 128.929
52.9559 104.181 166.608
19.6831 112.843 131.917
41.2404 143.379 119.489
52.4428 88.4841 92.7508
115.438 177.774 31.356
50.7414 83.0504 98.7627
41.744 148.679 90.4473
70.2496 131.272 252.834
38.1544 165.748 105.826
61.7791 117.773 187.577
38.9665 155.34 88.1555
63.7085 162.556 92.7365
24.8974 115.179 89.8058
44.3493 85.4717 86.0853
49.6328 128.139 182.885
39.4336 107.682 88.3069
17.3638 114.426 99.2763
34.3377 137.702 94.0757
37.7686 107.402 170.402
23.5443 95.322 127.014
74.4113 123.799 76.7841
42.1488 162.358 92.3617
66.9859 179.616 164.452
43.4093 177.383 136.751
64.6901 122.341 164.276
39.221 94.5423 121.953
22.0618 106.281 140.628
61.4727 216.425 35.9664
48.4838 155.527 91.9212
54.7877 87.8448 128.684
35.4171 131.715 143.507
53.9028 73.6086 102.63
38.2441 160.363 169.811
125.501 199.101 10.9615
39.163 176.141 128.221
54.1568 128.589 86.1718
34.6379 86.4264 126.055
50.4196 93.7805 150.26
78.6815 211.772 47.6289
43.4304 72.172 141.875
28.2 85.2389 104.681
39.0951 96.9958 90.3722
69.6132 203.613 40.8065
56.5215 147.94 91.278
48.4911 89.6918 132.968
43.4205 195.077 108.996
36.4794 144.144 129.759
69.6116 192.579 10.1233
45.7449 135.631 84.1192
67.2939 115.9 88.0151
49.2309 68.9908 146.797
26.0804 122.819 86.4375
28.8932 97.7186 133.758
47.099 170.16 168.9
117.617 108.191 244.338
19.1565 125.763 97.9134
111.005 128.642 229.07
19.9143 121.951 145.761
67.9311 85.2498 143.897
40.0146 189.061 103.734
78.4803 82.0005 170.059
31.35 116.73 95.9966
40.4017 153.877 125.304
62.7422 223.764 31.4458
30.7177 140.025 151.988
51.9862 87.8872 108.081
22.2823 107.766 151.161
86.4435 125.652 129.883
52.1862 173.89 111.199
70.6774 70.584 119.216
50.1146 142.102 81.6961
114.474 119.717 234.218
23.2095 114.078 157.8
47.9422 80.1832 145.366
20.0341 127.797 124.48
61.4816 116.757 172.089
71.2766 176.085 128.013
57.1636 106.323 75.3939
103.716 170.152 33.7337
33.8233 92.7114 138.743
80.7699 111.882 125.218
49.8317 111.042 156.987
124.173 193.237 19.6356
49.2276 172.763 119.988
65.3859 103.001 175.302
38.1598 135.335 154.067
66.4479 164.311 103.815
55.654 219.436 18.8897
70.643 127.91 171.514
43.7166 89.4647 124.017
122.391 210.059 14.5398
96.3572 164.687 83.1064
47.994 169.519 132.867
73.7067 104.541 95.874
39.1218 99.0716 101.412
86.3407 105.483 124.913
35.6963 100.212 139.426
45.0324 166.06 175.552
57.266 89.9706 152.772
31.6954 114.07 162.159
66.6729 80.8758 86.6328
35.4936 129.194 79.756
37.0902 87.6909 84.1123
46.2093 96.2287 85.6701
73.8228 97.2073 141.757
101.43 164.851 18.9974
30.6218 159.023 125.561
47.9867 169.903 160.195
80.6935 122.304 117.453
37.957 119.039 176.91
37.8678 123.575 147.876
56.6096 81.433 157.633
124.181 196.346 25.5897
76.4295 116.007 189.355
48.9682 196.363 87.1502
45.7342 133.656 157.737
108.395 169.02 27.2378
21.3788 102.458 109.594
71.3739 179.033 137.17
94.3543 114.55 110.181
63.2271 168.282 161.235
82.3967 69.0429 112.992
39.4426 94.526 97.4879
98.4353 103.068 236.248
43.7467 180.045 117.337
61.6211 148.296 157.034
98.6963 225.239 40.9101
37.2362 73.0197 111.503
91.5137 206.451 49.9442
39.1744 100.946 156.013
84.8462 219.611 46.8575
58.9126 174.364 160.041
80.424 180.206 32.4902
52.2708 71.2768 139.797
47.1872 119.717 170.914
48.7244 165.165 94.1706
64.3391 93.9788 143.77
74.215 106.489 178.21
41.7994 174.097 121.576
21.6973 98.964 135.209
63.927 221.449 15.3012
29.9644 87.5754 120.85
117.559 194.138 38.4076
37.309 98.4086 112.374
34.5486 130.858 101.603
21.0751 105.53 123.711
63.827 86.431 130.792
108.88 106.005 239.355
43.6673 125.794 177.33
79.0277 176.889 125.966
50.4896 171.858 104.129
65.267 156.68 88.3141
57.0955 143.497 85.0491
89.0373 66.7789 150.688
46.0135 80.3892 137.933
30.9586 77.8527 120.264
51.5377 142.984 158.438
23.9058 99.2598 115.637
61.2636 123.876 170.918
19.587 121.737 133.042
93.5975 91.4658 253.481
44.0038 108.65 160.146
71.7356 66.07 151.934
42.2965 88.7558 137.391
72.7417 68.4673 161.835
58.663 151.78 190.779
52.3038 150.635 95.8301
54.2379 176.188 166.609
23.008 117.261 121.786
38.2692 174.526 140.249
49.4328 164.048 142.758
54.9731 66.2869 113.879
60.8767 178.688 125.008
33.6214 110.491 104.227
38.9073 73.1581 130.897
58.555 216.221 11.1522
60.9838 81.8752 123.691
71.7348 94.1417 133.288
117.615 131.65 247.736
25.0418 122.08 163.653
72.303 97.8693 88.6336
85.8173 130.532 192.652
17.7596 126.493 113.2
58.3731 226.812 27.3272
45.1247 91.1896 114.631
53.2532 166.846 123.919
48.2405 137.081 111.405
75.6654 101.042 264.071
24.6578 132.484 131.602
83.4181 133.44 88.8322
43.343 158.106 176.122
40.8298 163.546 120.772
110.459 140.417 234.067
82.0554 140.512 96.7746
64.5398 72.2156 148.492
66.5486 102.451 165.357
52.1075 176.797 156.844
26.0405 136.278 158.705
112.622 228.012 3.44969
37.6501 197.179 96.9205
79.313 69.5387 160.305
33.6316 144.053 157.056
38.5333 115.602 96.0877
112.029 131.505 271.001
52.2181 78.0449 93.6484
56.6275 72.9451 150.872
80.1845 113.523 140.998
54.4215 98.7358 72.8999
35.6179 79.0207 126.008
57.821 181.842 131.55
80.954 141.245 267.508
27.8152 122.97 125.057
85.4733 181.74 38.3129
82.2808 100.226 273.399
45.7077 140.355 185.041
43.9473 94.9285 144.548
59.8512 179.083 137.891
116.839 126.696 239.49
42.0104 83.2587 129.187
58.8545 155.281 100.277
51.4104 145.153 189.555
47.9703 95.8388 156.286
46.4685 165.037 106.299
27.9166 112.561 142.202
116.372 122.944 268.601
64.9 71.0278 132.909
44.881 173.927 110.748
70.3144 196.633 32.1405
92.492 167.615 17.9569
72.7162 119.802 159.603
35.5109 127.322 166.319
34.2887 152.183 121.289
80.4601 93.4926 132.829
69.2747 134.832 94.4362
26.4187 121.399 101.749
73.8532 111.442 106.89
64.4184 135.167 189.591
56.2324 167.32 109.132
109.84 197.661 46.1357
48.6911 121.228 92.678
66.2393 199.457 2.52386
99.277 193.739 49.1691
63.0172 87.2635 120.122
86.171 91.3564 87.9511
48.7509 103.439 149.632
90.1681 172.222 4.46032
48.4742 130.217 82.0044
51.5145 171.888 138.449
35.5622 79.8211 106.561
53.0296 169.855 174.01
79.7057 199.11 46.8866
73.6836 105.102 78.2358
39.5516 98.8891 79.1034
120.351 187.141 33.038
46.7658 124.422 78.2341
78.4359 139.114 85.2603
34.3451 117.917 81.273
46.5106 146.068 106.716
69.7473 170.493 108.549
37.3531 148.636 109.749
72.7812 104.583 145.532
83.0845 228.841 40.5107
26.972 115.64 137.043
45.81 74.4491 102.08
94.1855 124.372 102.468
62.771 141.098 162.611
92.5054 219.256 46.8104
38.4984 170.543 111.676
24.6829 130.962 153.092
46.1246 115.348 87.6137
59.7489 159.097 116.46
39.6943 133.583 163.161
71.2861 128.897 190.763
62.1735 83.3986 81.2786
42.5116 139.853 92.3987
28.6565 148.254 128.788
45.9563 121.995 158.876
78.0448 145.843 92.163
22.8512 152.29 115.805
57.853 213.225 28.5625
65.0035 173.719 133.746
56.9912 148.962 120.671
42.6622 118.149 78.4082
73.4979 64.8466 139.125
90.962 96.8284 244.689
95.7016 161.565 93.8251
57.07 166.957 176.774
52.4752 181.405 137.683
75.5081 109.289 246.807
105.704 135.435 227.778
88.259 78.3206 166.099
43.4044 148.245 99.7524
76.7566 113.305 94.2236
44.3595 67.518 114.545
84.3539 66.679 142.48
29.0498 132.975 86.966
69.4928 113.102 169.102
81.088 118.095 75.264
65.6758 208.908 43.0119
57.0834 145.099 137.243
88.9533 100.302 135.656
44.5072 112.376 72.4269
39.8687 147.075 137.876
69.9824 63.7073 123.022
65.8509 142.711 189.17
90.8668 174.732 36.7721
61.6779 209.39 15.0815
43.432 164.94 99.9694
81.2512 83.9971 95.2051
76.1234 159.364 82.1776
70.4387 220.441 44.7562
78.6471 99.6397 161.566
60.9819 71.5479 105.324
65.8176 109.082 75.8976
34.3998 85.6684 97.6244
62.1344 201.802 8.53093
26.327 124.691 156.123
32.2312 99.9939 101.023
31.8959 139.175 163.844
73.2506 121.403 273.028
85.6636 124.193 139.374
67.8698 180.004 148.796
79.3144 90.8123 113.455
44.2655 133.701 101.288
54.6856 122.33 77.9864
117.618 177.096 19.1784
110.886 170.01 14.822
114.749 214.538 38.9921
116.756 110.474 265.447
72.5419 95.4077 158.808
47.191 70.4668 107.821
40.5496 122.118 96.2517
83.1024 172.425 157.429
60.8534 158.646 155.572
85.9728 166.273 93.222
62.6001 66.793 110.859
86.625 119.063 101.214
33.9088 148.684 164.288
31.5911 150.401 144.531
67.3118 178.948 155.428
96.7003 129.777 119.541
52.9736 193.858 18.7171
24.3517 144.054 95.4651
64.777 207.953 5.66592
81.1505 111.434 238.542
80.0646 174.523 165.141
27.0498 129.79 111.896
40.2037 106.249 75.4012
37.1577 78.2952 99.9276
70.4822 124.914 266.215
23.0167 146.784 108.804
67.732 134.199 167.992
74.3898 170.182 153.836
67.6779 179.225 122.784
42.2938 113.933 168.626
52.3426 200.002 93.0177
30.8859 155.223 115.425
51.496 117.819 182.495
107.108 142.852 261.573
55.654 84.1271 118.534
51.1588 174.992 145.438
60.6524 174.851 166.74
58.3564 133.54 164.281
31.4606 228.564 236.048
38.0796 131.557 172.114
84.9132 123.451 94.9796
78.3757 149.058 186.551
71.9423 189.115 27.0844
73.1216 178.641 144.812
56.3678 170.739 132.053
62.449 71.5454 119.459
55.1604 175.035 126.96
53.2051 190.842 26.1243
70.1902 124.746 186.306
47.0369 66.4496 122.242
95.5329 116.798 118.152
91.2626 117.081 139.32
84.3098 108.513 131.41
103.552 123.143 226.843
83.8469 118.115 134.312
28.5999 158.392 103.73
104.467 172.168 3.29608
76.6103 168.577 106.061
23.907 103.133 103.687
23.4481 135.644 100.739
55.2369 159.249 182.248
56.837 119.935 166.017
55.1242 157.974 129.603
29.1391 123.59 138.735
87.8785 106.062 117.296
28.8611 111.19 116.511
65.1134 176.411 111.609
78.1954 191.61 40.6439
37.7152 106.775 161.565
58.2026 165.924 94.4739
63.7184 50.7834 103.418
73.7685 175.749 158.775
67.7958 191.348 21.3476
35.3385 138.982 112.161
42.1646 195.17 87.8331
94.5445 116.875 101.762
55.2829 113.697 174.231
93.2894 146.441 261.882
34.5062 141.489 142.122
30.832 118.26 121.115
70.3685 227.696 2.41904
92.5248 85.9912 129.313
101.653 115.846 229.306
77.3385 86.9461 142.367
31.9133 121.475 171.579
74.7325 230.683 36.8866
58.5795 103.601 171.646
45.4653 171.738 149.871
83.4291 98.0076 248.342
118.31 177.743 8.75779
73.9965 141.653 187.595
50.5426 117.509 81.1272
94.9606 144.637 267.833
34.0955 163.113 115.516
110.845 206.374 45.5345
57.5226 92.2292 145.539
65.791 230.335 32.1003
99.5715 125.471 94.5277
75.1859 178.124 118.94
80.2083 123.399 85.9615
83.88 120.047 124.87
40.9943 97.4181 149.697
66.313 150.914 165.44
62.6628 197.388 15.8497
85.8833 170.297 14.7439
113.445 111.497 239.204
28.3953 119.074 131.078
51.2286 159.671 118.885
76.8789 90.5776 86.0337
43.7646 203.338 100.504
70.4273 115.09 78.142
59.82 127.24 84.8771
32.1902 122.09 154.786
106.264 220.16 42.3522
26.2926 128.132 90.6106
97.3236 169.053 30.8635
83.7479 110.106 179.136
80.5694 140.478 184.886
38.4019 110.188 141.271
75.0098 182.369 24.7725
78.992 75.8225 97.8327
68.1813 198.188 24.2809
38.4103 126.007 155.264
57.859 166.119 144.105
47.9216 93.3467 95.9397
71.4783 144.279 96.547
78.6833 137.716 103.163
90.7403 169.646 27.0022
55.7512 96.6407 89.7147
76.2424 72.318 110.829
74.9353 109.639 273.363
67.1942 119.633 178.165
82.8833 78.0009 106.705
112.951 178.718 2.77973
70.296 147.298 102.716
56.0175 139.007 100.786
86.9955 148.719 87.132
66.707 230.865 10.5831
122.582 110.357 35.5561
94.8612 89.8131 98.5253
25.9915 128.44 104.19
80.883 133.878 109.692
38.9592 120.064 160.739
121.508 204.637 31.6757
68.8109 127.008 109.419
52.1664 136.594 164.198
47.8319 158.133 150.221
50.1553 154.845 172.896
41.4606 138.785 178.146
93.7514 146.928 87.2407
86.081 150.42 76.2978
81.3687 158.697 107.844
63.1776 99.0448 88.2904
69.1613 91.489 100.439
59.7674 145.18 102.305
83.2589 101.325 78.3158
72.4944 117.077 178.363
61.8299 148.551 111.208
43.305 165.015 137.787
111.926 140.744 244.357
71.9018 111.116 86.2647
74.4342 97.3771 172.213
123.452 203.144 2.41243
59.6763 111.57 83.5803
68.5666 138.04 110.693
85.6398 103.369 142.286
78.3598 176.777 17.5707
27.3693 128.076 97.0967
96.1871 162.51 102.146
60.5371 228.47 17.475
58.4846 141.074 190.132
23.2422 105.921 117.212
75.6185 69.5954 144.499
44.3346 174.453 144.382
89.766 126.035 78.3563
56.3432 171.334 117.342
76.3952 111.365 171.719
50.1781 126.112 164.691
83.9586 135.558 79.8821
43.8025 80.8487 100.371
85.4679 168.613 106.46
72.712 161.192 109.172
60.5988 149.188 82.553
82.579 122.464 152.517
41.2261 108.58 147.381
102.022 213.069 47.9109
84.2948 114.871 87.0046
75.7356 170.596 139.417
26.6242 127.066 145.355
33.1668 152.292 157.273
95.6007 72.6522 149.504
31.6978 119.197 147.545
78.7452 128.145 158.993
89.3331 120.42 229.786
51.914 166.957 151.471
10.9852 139.197 123.204
77.6578 156.943 90.4509
36.7507 157.243 152.642
75.9403 62.3506 124.714
29.7548 134.719 143.69
65.9558 156.237 104.399
121.08 210.125 2.9702
74.4053 150.263 107.352
82.5787 82.2607 119.927
46.7143 115.402 179.641
92.5384 126.101 88.931
77.6544 184.755 1.97908
87.8221 122.765 186.91
69.5811 129.378 80.8387
81.7161 101.377 134.001
94.1417 119.616 184.976
103.094 134.016 100.264
86.9538 161.893 171.752
93.2844 100.377 125.399
69.4474 148.762 84.0582
96.7124 121.117 81.6026
81.0755 98.4698 177.452
82.0736 146.159 83.0335
82.8355 172.677 136.202
103.36 230.342 32.2883
48.1357 78.4248 124.419
59.9166 165.234 136.902
117.997 218.188 4.08755
61.7608 166.501 152.566
75.7519 63.6446 132.626
71.4708 92.9213 80.8515
84.0934 131.607 186.13
57.9335 158.028 146.596
67.0363 141.854 86.4553
120.56 215.539 22.3053
81.953 120.916 181.776
71.3309 83.5679 126.037
41.8195 137.876 110.085
73.4013 76.9306 153.667
74.8508 172.307 131.809
82.724 166.732 84.1829
93.6693 137.041 185.189
69.5057 172.385 117.311
61.1279 175.346 116.943
75.796 141.925 111.687
87.6386 108.672 77.7944
105.367 146.869 250.243
70.6916 154.82 97.3679
77.773 110.255 144.784
99.1548 132.677 86.8015
74.9531 121.332 82.2003
69.4723 77.5084 131.04
58.2409 129.767 188.378
67.3489 128.223 134.435
89.5534 147.766 147.608
89.1007 102.504 186.037
86.4122 109.882 96.9975
99.8332 127.647 110.97
93.7489 133.755 129.486
94.306 127.335 184.976
63.4353 135.603 84.9965
51.4133 73.4338 121.477
77.5412 77.6412 115.176
75.0839 169.069 121.242
26.2019 231.238 232.326
54.9398 161.111 93.9667
45.8644 100.143 158.611
101.532 73.0998 139.564
93.609 90.417 118.988
73.6732 150.309 89.6228
124.143 194.428 2.09719
90.6531 100.231 115.311
81.7897 123.206 233.914
33.9551 151.884 94.664
81.3134 168.718 125.347
39.114 229.749 237.031
74.6748 132.95 84.3931
100.283 135.7 115.609
85.8201 111.349 186.086
95.605 97.3122 88.3382
104.131 148.295 84.8773
103.803 143.039 90.2957
98.6922 124.497 126.648
75.9035 187.024 36.1931
114.135 92.8952 164.733
91.7335 128.864 164.676
96.1539 125.339 189.219
81.559 76.6439 151.322
84.1292 178.536 1.43028
78.3926 111.159 79.9398
112.061 122.775 274.445
74.1488 163.797 93.3939
11.1179 146.936 130.866
85.4754 84.0863 113.437
92.5572 133.43 85.4583
84.7882 172.906 147.25
88.0642 160.446 81.3487
83.1453 63.2097 129.151
89.6298 66.2674 135.384
97.6558 140.481 81.2009
94.4995 114.408 88.0704
67.2761 161.6 163.112
33.1191 231.236 247.891
105.553 83.9262 126.768
65.5929 112.343 210.158
89.1805 125.035 148.939
78.032 91.5691 62.2128
81.0643 124.654 185.458
115.662 227.266 14.5102
87.427 142.34 77.9831
97.6552 151.151 81.3785
34.5818 100.837 57.6594
64.029 143.418 168.528
66.1646 215.08 1.16547
75.3822 176.075 112.86
78.3724 136.164 156.12
99.1246 117.468 93.424
70.4262 163.28 148.737
92.2299 90.6884 109.236
135.803 2.21101 68.7984
81.035 170.171 114.508
64.4739 231.501 21.6464
95.3676 106.581 116.228
101.877 138.372 230.409
122.777 113.34 31.9682
75.9518 169.173 146.711
93.4155 135.903 163.746
88.0939 72.4252 118.691
122.393 188.349 10.4257
96.0139 72.1146 128.861
85.5906 134.342 124.608
99.1995 135.316 128.551
126.985 192.916 36.7885
53.649 202.052 176.846
76.2876 91.3262 165.928
95.2016 69.2536 133.613
99.8337 100.41 92.9019
79.3203 145.18 151.452
84.6978 84.9486 101.786
58.0984 200.713 180.072
110.249 95.6773 133.768
110.129 93.6644 144.892
82.3683 130.319 151.285
