ply
format ascii 1.0
comment Created by Open3D
element vertex 392
property double x
property double y
property double z
end_header
40.6052 92.3063 85.2005
53.8762 20.0385 92.716
26.4607 42.5073 81.695
26.2248 154.518 105.734
24.4036 129.03 175.186
26.5721 149.648 148.874
14.0968 133.701 173.085
36.3002 117.77 91.8366
39.4818 129.936 93.2674
58.547 122.606 134.043
29.6854 53.0168 112.745
25.8408 26.7009 122.53
24.3734 139.847 151.253
20.9462 143.386 160.324
134.539 3.49649 211.148
80.3637 11.7177 224.618
55.3927 32.6887 126.711
20.8442 139.978 168.935
66.8129 156.208 128.412
28.4557 30.8137 111.22
29.5406 110.583 75.2991
23.7941 119.504 85.8206
55.1142 164.322 155.597
39.3301 35.7779 103.295
55.1557 25.4305 76.6102
49.9301 27.9976 95.0944
17.0227 131.464 164.144
11.1297 31.2583 102.218
69.6264 145.517 128.707
11.8996 105.229 166.109
79.7734 6.8665 259.022
97.3582 70.2483 216.744
28.796 136.628 160.812
28.1468 19.4967 108.102
98.1306 6.92712 209.427
126.561 33.9639 26.3297
34.7274 3.1691 80.4494
34.0735 133.545 152.485
30.8306 31.3316 90.3836
26.4432 124.236 180.505
39.2717 135.049 148.125
32.2988 140.858 96.4854
29.3092 146.149 171.7
26.4997 152.271 162.44
26.9607 121.745 172.477
15.0791 147.588 104.163
58.745 135.157 169.961
44.5656 44.9603 92.451
85.1607 5.43545 228.734
7.75242 109.305 161.761
55.1261 27.8302 102.35
28.3784 32.681 100.275
49.3825 36.4981 91.4919
67.5828 145.74 153.14
26.7959 126.943 154.976
76.679 150.454 164.571
44.9634 26.159 104.739
106.256 151.575 174.442
23.1108 119.871 76.2585
26.8463 129 82.2861
40.4718 108.807 98.2908
44.9897 27.8806 116.624
157.407 57.8516 67.7347
18.5583 26.8497 103.669
20.3992 145.1 175.898
72.0731 131.257 161.993
95.7547 3.98492 217.106
96.8579 5.16888 233.67
50.0949 25.5458 83.8484
36.0975 102.955 80.0134
67.3538 128.898 99.3682
123.005 38.9405 25.909
23.6913 116.745 176.102
41.6402 102.92 107.644
31.8899 92.3496 77.3429
20.7931 105.776 112.127
105.897 105.037 131.363
18.5896 117.056 96.6496
18.0907 121.575 66.8828
45.1707 34.5061 84.8878
34.0937 129.607 160.981
49.3912 34.2495 77.9351
23.1701 133.619 112.624
14.7667 22.6263 94.4302
58.8136 30.6444 84.1931
47.5195 104.556 58.0286
38.316 53.5181 116.335
37.1974 151.887 152.041
85.4811 101.235 265.687
45.6118 135.567 115.76
40.0579 42.6843 83.6509
23.8665 140.65 182.329
30.305 121.358 166.676
15.9698 40.8521 100.344
41.2132 118.904 101.122
35.6257 35.3962 82.6448
28.8661 32.0497 75.0356
119.843 130.085 149.879
38.2707 99.7467 72.0415
65.4778 7.73442 99.638
26.3673 141.951 106.302
125.132 96.4939 52.6084
24.2521 102.906 72.393
157.927 28.706 196.246
32.2065 115.096 100.121
27.6876 120.924 159.552
16.0914 23.0836 81.0723
52.3182 129.839 146.39
77.8019 113.082 120.409
30.7377 102.859 66.6865
91.2839 105.431 156.54
30.1073 152.297 95.0782
87.0969 8.05762 221.333
35.3762 126.019 84.1037
86.0214 161.925 141.522
17.2021 97.123 75.9904
76.6118 158.314 122.268
13.0966 141.855 173.852
16.5731 148.896 163.479
22.9993 102.902 81.7291
49.4161 151.254 171.062
10.466 144.306 182.802
36.8819 3.92828 107.338
136.6 2.36317 193.197
49.8018 44.6398 104.13
42.8137 137.718 155.865
33.9742 23.0104 98.6109
27.3288 114.639 163.248
25.0266 40.3381 103.716
53.1592 13.6113 97.8969
18.5 134.317 128.322
77.6297 109.857 157.221
24.3622 47.561 106.837
25.0201 108.217 159.232
50.3929 152.312 100.291
34.2079 42.0476 89.7474
15.6894 152.954 180.775
80.3469 161.832 131.342
62.0086 144.445 136.466
37.7741 106.96 88.7353
135.772 145.869 57.3729
67.2923 151.084 119.984
47.1072 3.2804 95.1963
56.4969 4.75281 99.8074
26.0495 25.514 98.3972
44.7762 18.1393 85.7986
43.4192 131.059 106.783
43.8785 51.1992 105.854
38.7549 44.7971 113.076
24.3265 127.593 166.142
168.302 55.8486 84.683
14.6702 111.25 101.461
41.3202 96.5876 93.6416
31.0407 1.94013 94.3235
50.2456 34.5899 105.607
40.6267 143.262 101.001
65.728 112.355 142.265
34.1709 52.0686 105.345
87.5108 113.02 150.986
52.9288 20.0601 105.044
22.3215 8.66618 102.627
29.6171 117.778 108.559
28.6351 175.319 146.207
75.1362 142.339 119.437
95.5859 121.95 148.38
23.7462 120.344 105.335
101.98 111.124 132.952
89.4034 110.678 134.22
64.4648 151.666 159.133
76.8999 120.889 124.311
34.011 133.619 118.361
145.239 6.03095 220.836
35.2566 144.266 113.594
73.5508 166.257 161.788
36.7875 141.85 158.172
74.9155 160.884 109.947
81.6408 173.856 138.191
86.9338 134.186 114.946
87.9457 116.801 126.454
28.748 8.38235 108.327
158.316 2.43598 215.953
142.539 2.67868 218.368
95.3853 112.367 122.687
72.7207 134.675 124.634
81.0393 161.588 150.583
43.6266 114.751 88.9545
89.2227 2.41732 235.119
34.213 114.791 83.1435
53.3826 13.9322 112.623
79.6861 133.778 172.398
9.55227 24.7403 89.1771
37.0744 50.672 93.2018
84.5872 1.86912 243.51
35.6391 88.9399 96.8596
27.515 16.0697 95.7913
40.0943 7.3228 91.0883
88.2541 170.507 166.489
48.7203 3.85751 88.3362
102.645 125.871 133.629
91.5175 2.10451 226.274
16.4055 112.661 88.0434
12.4285 33.2429 86.2409
47.4965 2.4944 103.858
61.6787 20.3656 88.1698
150.625 14.7786 199.339
82.4354 121.402 133.065
26.6492 94.7521 96.03
61.2553 30.6021 109.789
71.6083 160.875 135.761
15.0347 96.3079 87.0156
92.9087 115.971 110.051
16.1102 122.799 102.618
21.5025 3.54567 107.937
25.6347 130.502 102.836
77.8015 116.829 140.507
58.7237 148.092 148.971
17.5139 108.801 161.308
53.7678 124.807 143.778
15.6736 14.7634 92.8731
53.7821 9.44665 107.121
31.3643 92.902 90.3862
132.087 6.86275 229.714
80.5385 152.524 137.149
118.094 107.231 155.282
14.3323 105.5 96.4145
87.1631 163.844 124.943
31.8017 43.3775 98.1833
61.4908 155.153 138.07
41.0617 19.5433 108.016
37.8073 14.3254 92.474
32.0091 127.326 97.6846
31.8121 42.3109 111.699
156.948 19.8388 203.264
104.5 129.633 146.128
51.6635 41.8359 97.3117
82.0941 153.465 156.725
5.77544 112.8 70.7811
95.4627 118.97 139.686
165.882 49.8342 79.6089
144.11 123.575 86.7132
45.0176 148.127 109.724
27.5431 132.578 122.868
83.7918 148.515 124.955
23.2244 91.2853 86.657
32.7821 10.4388 100.373
13.509 31.3998 93.9538
95.9437 9.43327 225.859
28.3562 89.6906 102.826
15.9385 103.896 89.6127
40.6771 12.4022 107.148
15.9389 140.963 190.352
24.5428 125.143 94.4428
12.5788 117.183 74.5973
96.2454 66.2937 220.308
59.5791 15.4193 109.918
71.1486 140.34 100.606
106.531 122.056 149.398
56.2163 13.6203 76.6145
93.0029 155.221 176.961
88.2051 151.454 140.457
85.0081 157.188 117.899
68.2 171.877 150.385
95.1614 15.0921 216.237
34.2378 151.294 104.061
117.123 115.669 137.74
8.25713 137.284 177.7
167.957 63.1958 86.7891
73.8582 156.583 144.443
98.9595 171.992 150.914
110.767 114.711 146.238
86.4107 168.419 151.516
25.3956 115.383 97.0146
96.0196 167.703 139.507
76.2314 115.707 107.675
30.2277 106.028 95.1971
71.4991 137.918 148.229
27.8514 110.226 108.229
87.8882 145.895 177.381
132.387 8.13333 225.386
30.9966 144.989 154.516
168.912 47.7445 58.3791
83.7246 163.091 162.383
48.1587 11.2968 89.9538
68.4567 126.996 110.541
20.3251 34.3391 96.2079
74.4941 166.566 142.756
104.422 163.198 133.175
37.4158 24.6957 92.167
41.6899 1.80267 100.76
65.7146 169.907 142.012
7.49738 111.797 63.3983
166.131 42.7351 86.0629
118.969 116.136 150.405
96.4955 158.287 177.926
40.3875 30.4998 89.4527
13.8172 12.9505 85.3404
112.12 126.013 138.322
119.856 122.423 128.856
16.7181 117.399 82.4372
97.4286 175.172 158.716
82.3987 138.658 128.548
90.5546 1.47032 244.447
22.7747 100.222 104.773
50.901 34.8908 118.474
59.7943 10.6571 89.2366
82.0887 171.088 127.671
43.0856 5.57995 79.677
34.6768 28.2924 106.246
45.8712 16.1069 99.7813
20.6528 14.5618 97.7052
57.4595 2.55172 90.7658
89.9313 1.45816 218.885
32.7707 98.1778 101.739
65.1336 135.895 170.197
119.046 110.142 116.855
96.3343 158.327 143.696
27.1969 38.0054 87.854
153.762 2.07553 224.494
84.8942 2.517 258.289
92.0904 157.711 132.718
89.5865 174.535 140.661
45.4034 152.798 98.5337
19.8276 148.723 188.767
75.6862 103.778 146.652
73.5828 126.089 130.655
90.9198 8.79501 245.269
73.2321 154.686 154.596
26.4373 173.15 149.052
88.6349 139.419 160.204
68.3836 18.049 88.1514
61.3404 158.192 145.381
107.797 154.604 159.065
11.4905 91.6741 83.5709
120.882 122.994 117.642
103.741 117.394 124.314
149.736 1.61987 227.699
25.8068 6.22156 97.9247
92.1291 141.665 123.109
168.43 70.3311 59.6949
92.7834 12.6617 221.564
11.3298 152.132 175.881
153.08 4.08677 212.292
41.4557 141.19 117.996
36.7309 28.6344 112.199
105.071 116.196 138.271
85.921 120.109 114.599
168.889 62.4101 93.9288
92.7753 129.292 123.492
44.262 163.927 111.383
169.169 49.4267 68.0962
81.5517 140.394 96.2949
20.488 103.98 98.5788
17.1428 78.4125 94.4556
87.9361 138.512 171.732
101.586 138.34 156.14
169.243 27.2565 70.0604
80.2249 145.188 149.703
92.2412 135.634 150.71
110.959 140.569 160.051
17.0379 148.089 111.057
99.5195 149.218 140.159
19.7321 109.114 104.027
117.893 141.926 149.762
109.088 141.861 146.545
100.189 123.772 100.95
92.9105 108.211 137.082
29.2226 101.55 84.745
152.053 25.8577 190.231
112.221 117.772 124.135
99.7501 123.762 116.212
83.0592 128.427 141.467
128.753 124 113.986
88.2505 165.432 132.252
124.055 147.83 153.862
117.364 126.837 101.411
93.8089 131.051 141.237
99.7274 141.703 147.142
59.7773 120.861 144.884
77.7765 150.075 115.695
101.23 1.13423 237.206
92.1931 150.234 147.792
49.6736 98.166 82.6559
112.928 121.519 114.292
110.588 126.42 102.124
153.234 1.46437 230.402
122.792 113.678 156.084
110.789 161.157 152.516
79.658 138.702 173.455
91.8126 112.73 146.558
44.6677 1.45109 120.055
130.879 145.129 57.9218
169.649 42.8848 79.6894
