ply
format ascii 1.0
comment Created by Open3D
element vertex 1097
property double x
property double y
property double z
end_header
18.9008 190.473 72.5605
45.7454 108.603 155.437
60.8394 87.9456 146.149
17.0047 115.259 60.2298
77.4944 6.44759 207.608
30.9914 158.761 79.7802
13.8033 151.544 39.2586
40.4816 161.977 118.526
21.8697 182.827 23.0067
24.8123 9.37627 40.615
41.7074 179.612 137.436
27.5608 105.771 74.7211
64.0748 101.824 146.487
10.1055 125.763 53.9293
54.4107 112.279 160.985
42.5018 81.9563 65.1376
27.4697 147.956 118.826
10.9737 142.78 47.0214
51.7922 169.548 129.763
109.155 220.61 179.628
12.6826 197.433 74.7723
31.6414 108.642 125.221
48.8205 141.129 156.03
3.17992 212.578 77.6171
20.6286 203.106 110.841
21.9414 91.519 95.6264
91.0509 69.2699 61.7032
42.3215 156.937 108.995
62.0139 193.726 147.731
5.26403 190.398 112.439
39.7242 86.2752 92.2982
59.1979 95.6289 109.82
32.0953 119.292 71.7006
43.6434 102.096 71.2659
40.2721 85.5947 57.7125
28.3817 151.018 107.347
56.8259 132.528 165.981
55.9311 79.7259 104.83
49.7048 176.39 160.029
82.7396 181.328 163.104
33.9413 138.621 132.684
31.865 88.3944 88.8193
56.476 133.362 186.085
32.1054 91.3384 128.153
44.6564 108.363 65.333
33.5244 98.4276 83.9106
54.3147 166.825 41.4548
11.6737 222.872 100.876
23.3211 211.609 72.8226
49.2762 127.1 140.895
32.2284 141.726 123.472
28.8836 171.26 37.3547
65.4908 118.382 183.443
39.5718 209.472 125.296
14.2999 175.099 185.618
47.9025 133.422 170.258
42.9061 116.105 114.76
22.7621 203.325 79.2578
12.4919 191.655 128.748
30.5379 14.661 84.3227
18.2698 135.4 60.2273
20.0239 220.781 97.5687
43.2561 139.434 140.799
74.1331 136.745 170.397
72.7578 88.584 112.255
42.7431 151.95 98.2576
59.674 83.2149 95.9149
20.693 169.965 47.8417
32.0264 132.312 116.708
48.7443 127.497 121.025
59.4047 150.855 148.565
48.2453 14.7075 67.4024
65.1854 147.338 154.631
14.356 173.311 93.9581
37.1432 178.745 128.76
43.5738 86.705 72.5227
51.5069 158.324 110.715
12.8826 215.033 76.559
70.9459 80.0718 80.735
43.8379 103.222 93.7294
22.3218 173.393 16.6083
23.8142 180.969 35.9774
65.4763 132.888 170.32
70.4381 131.503 163.48
63.8153 139.56 190.17
42.5971 150.915 116.485
11.7101 225.909 75.7299
28.7241 147.027 130.15
40.5266 94.3255 65.3829
30.5454 109.701 98.6228
150.647 38.5535 263.51
19.1333 117.266 43.2717
24.1812 85.4741 113.967
19.9141 154.787 107.15
20.721 23.4178 60.3405
51.1243 136.896 88.5393
31.9864 84.9879 97.8124
78.0765 89.5562 164.799
48.5007 11.9638 181.444
17.068 124.721 114.092
40.1225 136.751 126.025
68.4192 118.318 130.111
49.3402 155.152 16.4667
32.1065 107.136 61.7565
18.8093 187.127 122.229
22.1845 156.199 40.5802
64.2606 181.301 150.879
53.5489 99.0276 134.31
42.4808 145.99 50.0303
24.691 200.935 102.695
13.3831 8.24788 66.2888
79.0702 93.6584 157.912
59.2631 122.036 187.21
43.4093 108.85 123.714
67.9802 181.36 171.23
79.7608 143.469 154.12
22.2411 123.098 104.994
37.9298 96.5316 97.8601
68.6827 199.597 141.441
72.5925 182.73 158.55
24.7853 128.035 95.7665
48.7308 151.224 180.941
27.4467 149.8 22.6116
71.0947 141.815 156.856
30.3046 96.3592 60.6211
9.74301 180.736 98.6981
25.5628 161.697 87.2257
19.2224 177.174 69.1764
100.032 68.5984 61.1767
14.7941 174.168 23.8192
7.55869 179.215 113.767
53.246 145.165 181.732
50.8517 91.0996 142.042
28.0664 104.518 105.907
38.8921 86.6294 121.733
74.1325 86.8349 130.829
46.846 143.312 187.222
63.9536 141.765 17.1756
89.1425 78.9267 158.107
78.8121 147.131 162.316
59.3874 129.495 155.333
26.5879 88.9019 67.6288
87.955 66.1196 72.4214
85.5563 7.43012 204.123
70.158 113.924 146.062
36.766 98.2262 55.99
29.1929 130.486 105.054
13.329 141.922 72.8153
6.25049 194.474 71.4561
146.98 33.6266 269.738
15.7441 15.3996 58.3581
24.4761 117.399 97.9356
23.9134 214.694 93.4788
6.61436 170.371 41.8714
33.9494 117.545 58.4395
46.4551 6.13334 88.9201
39.4867 188.456 112.823
36.2759 160.064 129.083
30.4121 135.403 49.9696
34.5785 155.039 102.327
49.9724 2.54214 179.544
47.772 218.533 47.8537
23.2282 90.1237 85.8066
42.7165 139.115 163.743
95.0745 74.4326 133.665
24.7315 141.075 80.0624
21.1467 173.341 105.552
17.4514 187.396 98.1421
42.6449 133.551 28.4859
21.8142 183.723 111.806
36.6346 78.5052 86.6216
81.6829 109.233 158.996
44.6367 83.5247 126.475
3.71758 178.112 104.262
70.2061 101.265 156.766
82.0557 173.145 173.244
44.068 146.994 163.827
11.9078 182.77 190.174
15.4573 204.515 80.2767
22.7824 164.033 56.1099
115.731 215.251 173.328
35.3284 9.08264 60.476
48.6885 160.807 129.431
56.7834 115.231 98.6682
72.2878 121.241 173.289
30.7559 88.2973 77.4367
41.411 160.33 135.971
55.9581 184.959 146.548
29.937 163.184 116.774
49.7731 97.9898 105.625
58.3541 155.062 156.089
26.2797 198.918 87.2794
20.4494 193.152 109.986
33.5485 127.12 92.4712
43.4115 20.0063 76.49
21.1363 102.444 94.9747
64.704 92.6527 155.63
50.2337 112.001 54.7875
13.4073 174.598 43.5565
53.2991 99.4458 117.449
22.105 136.137 48.0692
20.5851 182.397 92.0116
44.8322 174.821 128.898
3.49861 168.13 79.6903
25.8847 12.6725 62.1158
15.3049 154.878 87.7184
27.507 221.168 26.0782
45.0313 136.954 117.775
35.9286 154.01 51.5944
83.5109 69.4656 102.287
7.33993 159.33 43.0835
33.7155 17.8034 50.9408
11.2069 181.935 18.384
60.8911 173.435 170.619
45.9632 108.178 114.174
40.7551 128.986 123.632
57.7573 138.912 173.804
20.2594 129.972 70.5292
12.4765 186.128 119.208
30.4366 175.425 17.3287
12.81 208.39 60.2881
66.9539 104.587 167.304
14.3871 210.588 102.444
64.7799 87.6858 109.229
21.768 182.437 76.2706
28.7952 86.8042 58.2285
34.3925 144.263 57.0778
50.0582 185.039 131.74
12.7994 143.688 58.9594
44.0998 172.885 114.139
14.3772 196.629 114.634
3.34584 221.527 49.7246
60.0314 117.531 138.528
36.5682 131.875 134.606
54.8086 167.331 153.706
21.5603 101.462 85.0264
4.13489 135.257 67.64
16.9701 4.71725 60.1026
50.2932 130.963 155.873
8.54755 176.315 28.0018
64.7377 167.312 150.77
7.54093 133.34 75.9322
63.0162 117.239 173.576
42.4561 138.846 35.9259
76.4358 201.516 139.704
133.486 37.7805 268.06
6.38709 184.903 182.614
23.717 95.534 119.82
11.3475 187.293 27.7957
7.34614 167.11 96.6562
5.976 189.47 79.3415
33.967 21.9705 68.7245
49.8559 20.168 50.278
42.9591 152.959 129.194
51.9004 5.12228 69.1598
45.6871 88.4108 134.17
22.1487 96.9631 110.929
132.371 24.3763 269.026
5.76874 184.714 31.3014
40.5234 97.9659 108.377
48.9068 130.519 182.528
27.9864 119.017 31.6345
11.2128 178.633 64.9979
33.6489 85.9586 67.6175
48.5014 11.6571 76.8407
70.2767 87.8008 88.3878
49.0393 76.1165 93.4755
49.0139 75.0695 147.681
85.5822 131.419 158.827
60.8656 137.303 154.628
52.0681 169.005 138.621
19.9536 164.126 95.6845
45.3246 165.934 140.191
37.7635 206.93 118.088
28.4344 178.64 10.4711
38.1353 4.64871 80.1053
10.4584 172.43 35.4935
29.4704 170.048 55.287
33.3478 155.565 93.7976
21.2 208.09 50.7416
8.91131 183.106 72.5247
15.5164 195.034 62.8408
90.0492 94.3157 130.643
29.374 128.563 27.4062
47.7769 154.015 168.334
56.2013 72.9672 98.8213
41.6695 154.421 143.336
27.2817 6.41549 67.0003
17.3583 193.327 88.7887
56.7459 149.747 131.847
116.217 209.45 186.31
152.797 35.3086 249.181
67.8039 71.5272 112.378
26.2101 158.843 102.815
55.7744 83.079 116.808
43.458 115.395 134.506
10.3968 184.937 88.1157
4.73105 180.583 191.957
80.0542 110.254 148.704
39.4662 137.365 184.521
33.8002 4.2326 39.1851
112.598 203.904 181.703
50.3524 2.8746 56.856
59.4137 9.64625 76.8461
51.076 167.688 118.44
29.7887 104.145 92.1551
34.1294 103 68.4183
20.8303 195.273 33.9646
40.5636 139.683 42.9626
40.8758 144.927 132.972
73.1689 94.0437 150.426
24.2633 156.181 30.12
34.0264 28.3277 59.7537
63.3573 114.617 151.845
55.4371 122.512 167.277
14.7133 150.732 67.8806
55.058 12.9398 70.8258
24.4759 143.502 57.0921
20.3951 171.968 59.5684
40.385 149.345 22.8169
31.5131 27.3512 52.2774
63.0033 132.27 138.447
44.145 107.254 106.529
26.1908 217.73 80.657
39.0233 135.029 92.57
3.8171 221.933 104.817
17.4522 121.937 35.0236
25.5813 155.536 116.141
38.118 176.04 28.8419
30.3427 101.206 133.216
6.80598 186.59 105.9
94.7781 73.4426 152.645
128.931 24.4952 255.613
23.5054 176.421 55.2651
73.7092 83.7482 120.966
6.82665 208.005 48.4275
35.585 117.526 107.193
6.46768 174.828 87.3052
44.9418 92.9146 126.774
58.3952 166.753 127.212
53.864 180.686 155.531
32.4229 183.871 68.6508
39.2816 158.153 25.9284
29.087 142.602 35.2797
80.2205 113.612 164.057
25.7512 210.682 101.46
61.2886 95.079 66.0554
9.89247 158.211 52.8252
68.6605 189.096 142.035
23.964 111.48 48.9817
36.3151 141.293 98.9825
28.8805 198.159 29.296
48.466 146.427 147.201
74.2634 134.071 177.098
2.73082 187.744 41.3835
49.5849 23.3466 61.0936
97.4128 80.3224 157.546
40.6301 76.9432 80.3656
5.62543 186.896 120.008
56.0298 141.022 144.875
65.7838 121.161 156.829
20.4939 167.784 86.7492
25.9265 111.27 58.3358
39.9788 161.938 33.1542
19.9589 148.756 81.4727
45.2251 78.2303 99.5186
62.3537 9.77509 57.5366
9.31462 134.46 55.1226
18.3817 137.901 69.588
12.8295 168.319 48.9782
10.2969 215.279 56.2285
39.2004 19.0875 41.2796
55.0424 103.832 111.115
46.7249 157.918 33.2758
18.4225 168.108 75.0259
13.9588 184.197 56.0421
39.6515 81.4369 139.048
19.1362 214.093 65.566
14.651 177.494 104.106
37.1367 152.795 163.66
29.5635 160.773 22.9938
69.1048 167.341 128.542
27.1965 189.983 59.694
62.9148 207.193 126.298
28.524 229.286 97.9095
48.1525 80.6566 55.5608
35.9416 178.24 58.3488
54.3063 12.2246 40.2196
43.617 117.994 44.724
47.486 20.386 40.9809
42.5255 72.513 138.249
52.6413 121.703 105.486
37.6286 171.288 98.6897
39.8504 149.939 85.6399
26.4836 213.661 108.703
41.2486 157.928 91.4351
56.5755 154.778 163.48
67.8119 152.183 164.024
32.7109 156.666 65.6708
53.3028 102.332 127.599
63.1286 181.898 161.523
55.2009 159.115 34.3811
26.7479 122.043 87.4687
55.3669 104.063 147.817
26.7364 126.177 54.4984
19.7364 226.728 61.8342
30.7053 83.6988 106.972
16.6572 215.208 110.603
4.77867 191.766 91.9736
28.9168 134.229 88.2972
61.3407 166.627 136.319
37.4343 102.421 122.749
74.6589 75.1207 106.086
15.4901 129.668 77.0562
147.629 42.5606 254.015
38.2867 170.553 52.8918
23.4391 127.193 41.982
30.5793 163.162 69.1185
49.0298 150.977 155.136
36.0214 194.445 56.4342
23.4702 100.975 64.7849
66.7932 96.3499 139.184
21.4709 146.176 74.4295
66.419 144.317 162.62
41.7107 9.16617 52.5017
39.7126 200.486 92.45
58.0127 20.6506 62.3775
72.8591 127.826 28.6971
51.1335 130.816 41.4042
21.3601 173.233 97.4081
50.0962 87.3612 100.844
25.329 81.7129 93.6544
24.4131 148.48 51.8991
59.1441 157.894 172.179
50.77 153.434 121.793
52.6569 157.747 9.46289
62.7156 114.939 55.4171
5.92417 203.167 111.908
132.634 3.82014 21.5827
30.1231 183.124 96.2466
125.138 26.0764 267.853
139.986 6.86465 19.893
30.2247 165.922 100.793
28.8407 9.08073 56.1114
30.8309 96.8183 98.9147
17.6366 186.354 84.3134
26.9537 139.488 96.3455
37.873 105.625 47.5876
37.8842 153.2 43.8142
83.0821 77.5704 132.511
37.5672 103.067 106.764
73.5179 167.346 175.135
49.8775 101.999 156.157
52.6917 91.5781 152.487
13.7436 185.428 108.544
58.0385 111.387 32.2202
47.3804 101.45 56.76
56.4971 115.123 153.605
53.8126 12.1567 58.8077
30.4209 133.388 83.0096
48.5731 114.146 96.9932
128.642 5.32127 17.637
29.0432 117.816 43.9449
16.7042 196.676 54.6166
47.7616 79.5674 132.253
32.8535 129.214 77.67
59.9416 104.853 90.6965
23.9996 186.259 98.2899
45.5744 103.126 146.686
47.519 112.425 145.817
22.2795 198.774 41.6208
9.87824 126.771 68.0349
101.849 84.1223 149.343
45.8132 159.421 160.739
52.6116 145.68 173.693
43.342 191.097 69.6471
20.97 214.866 55.8717
55.6094 112.44 49.9165
38.82 115.93 123.431
35.3611 114.285 35.0276
35.1634 165.816 90.3256
45.5348 167.125 48.7428
66.2191 164.567 173.887
39.849 82.1784 114.803
58.899 91.738 130.425
58.2303 166.772 168.334
61.5473 200.813 133.511
3.88757 162.708 56.2381
4.23506 143.177 80.5694
73.6041 83.2928 96.6174
46.5367 143.876 175.331
48.9976 118.534 169.104
55.2642 200.199 126.426
31.7226 205.247 41.1077
35.9824 162.476 51.4689
34.4326 201.843 52.3494
11.409 146.125 35.4677
24.5971 203.989 71.134
76.3693 166.274 135.242
55.6263 114.047 170.965
107.199 68.4209 67.1449
93.5772 89.3053 153.924
9.84053 207.31 84.3387
83.5806 85.5814 112.072
33.8252 90.0186 54.9493
79.7916 128.763 167.904
40.1131 91.1475 139.067
75.3167 177.702 171.021
24.4193 117.822 55.217
6.08324 145.494 59.2276
93.8001 73.8706 73.7183
66.3317 81.7401 103.802
36.6117 112.309 64.9513
42.1565 127.184 36.5554
64.9086 74.122 94.8978
40.1584 123.655 52.3753
38.0995 171.648 83.7231
77.659 75.0247 114.822
139.947 35.7451 56.3896
3.11324 204.201 89.4685
40.2266 93.2576 76.2121
15.1959 168.138 103.209
59.6159 165.178 119.105
64.6894 133.787 148.323
10.5288 195.341 28.9355
49.1996 173.463 149.898
12.5259 152.514 46.7438
22.8903 149.02 38.1689
57.8723 191.819 140.727
54.0782 82.4658 84.9455
38.9237 98.327 142.785
95.4692 75.5657 49.048
27.9988 2.35295 78.0499
47.1818 151.568 58.9697
32.6396 22.6964 62.9495
33.3225 89.5053 140.333
53.8119 129.179 92.994
61.5796 79.0196 121.099
61.3269 193.99 132.903
5.30393 222.808 89.272
18.1819 151.338 61.8979
52.5841 124.885 36.8637
42.6607 127.911 108.167
51.8813 115.877 121.108
66.1918 137.744 179.254
59.1393 105.769 156.624
60.8541 96.1948 119.097
47.555 168.37 108.219
24.3912 210.838 86.6839
81.2735 96.3399 145.78
26.765 164.863 78.037
5.79988 169.088 88.1878
50.194 98.5964 85.3759
40.4847 144.787 172.245
29.9105 153.105 37.3972
65.1482 109.697 164.012
63.1803 96.1809 101.767
38.3364 160.08 72.7516
71.3864 224.87 3.38202
4.61924 186.474 56.6453
7.74442 196.034 84.56
36.0425 206.697 60.7236
43.4474 169.694 21.5704
69.8574 101.149 129.021
44.4415 104.394 45.3866
45.4082 109.772 25.0559
33.7915 6.92708 47.3261
69.2867 135.797 143.981
64.6581 156.687 124.908
17.866 142.631 39.5936
30.0809 188.487 43.963
60.5837 8.43205 46.9785
96.289 77.0071 144.275
27.0494 152.802 85.3872
92.0745 123.036 154.627
33.4524 95.3102 139.366
81.164 72.9556 119.929
73.1201 103.179 167.244
49.539 161.396 23.1952
100.576 102.437 173.384
63.083 130.102 91.8056
29.4049 194.855 108.097
57.7764 161.475 13.3521
18.8303 208.108 88.1143
32.248 141.309 112.486
24.1921 128.608 62.6112
53.9751 1.87191 186.873
49.1506 183.988 114.954
42.102 98.6866 132.692
59.5127 150.521 112.653
34.2161 202.923 77.9784
3.02447 211.29 55.2459
6.55316 194.856 52.5514
33.1107 92.3147 46.117
36.9422 196.327 48.0307
28.1305 200.22 113.459
87.4708 70.279 84.8759
81.9445 77.0983 105.742
9.117 151.072 75.7323
6.06102 217.136 98.0159
12.981 184.101 38.9207
44.6891 120.088 27.9447
34.1804 180.941 115.739
23.0673 134.22 28.6718
90.4768 79.3063 81.5599
50.003 112.24 135.86
38.5023 126.652 115.07
59.8834 145.285 185.016
6.34603 166.673 48.097
60.0367 171.838 159.973
52.963 80.6103 143.249
73.2248 157.318 148.704
54.7792 145.359 33.9193
51.845 104.051 30.5818
57.3073 154.317 40.8853
56.2832 122.697 149.476
47.819 165.205 33.1499
36.7831 211.221 74.9071
79.5171 102.016 115.867
20.1881 18.6129 66.6823
23.3658 178.525 83.7144
77.3879 92.3619 121.849
28.6821 1.82345 86.0378
10.3353 171.528 60.6297
29.5728 81.1792 75.5718
21.6653 21.0997 50.6005
37.3304 120.506 39.1925
43.0183 156.87 43.0073
30.3469 206.029 252.946
58.7577 151.941 18.4484
33.3325 118.709 114.806
42.2735 103.508 80.6104
68.763 202.438 127.123
33.7607 150.736 73.3104
53.4778 215.034 107.709
1.99716 160.172 43.3292
20.5832 12.3416 74.9965
18.8724 161.472 70.7884
60.0833 105.527 137.054
21.3192 160.548 76.5941
35.0879 134.514 36.5175
93.2764 80.1125 96.2801
15.7064 181.672 48.8313
62.642 120.94 105.043
60.6901 181.246 136.895
20.9921 86.7976 103.8
66.2103 69.2837 101.395
73.4496 216.083 6.69045
36.8601 179.083 92.5688
76.0876 125.779 154.628
57.4338 178.531 35.905
42.0728 185.721 23.4521
21.4078 157.028 56.7342
71.7133 101.449 144.333
35.3734 97.1804 74.3931
92.8363 69.5386 143.122
72.3234 130.497 136.734
17.5517 154.9 48.7179
31.2672 140.311 63.1321
47.6966 143.514 43.6247
43.3154 143.573 92.2665
59.1062 207.592 37.2754
52.4155 211.076 87.7466
64.0282 173.791 135.886
13.3211 163.542 78.7511
41.7836 108.427 1.93683
64.4169 76.1916 142.395
44.5903 141.472 23.8881
56.7394 142.879 195.857
9.11713 174.593 101.38
34.103 151.61 83.3652
48.1338 77.6892 120.663
33.8935 134.334 70.7936
21.1984 105.205 56.7624
31.4094 115.417 90.4563
15.1377 208.978 46.2228
139.493 33.8174 252.145
68.4809 118.909 43.6741
72.7679 196.62 128.385
17.3322 174.817 115.276
18.9199 169.319 37.2924
60.4019 20.0079 50.1105
4.2727 178.981 63.5486
45.6433 85.2737 148.457
55.6587 104.353 41.8943
62.8949 78.8092 78.552
6.46747 204.168 78.6667
32.3875 186.283 35.9593
6.29199 198.226 117.722
87.7469 155.822 164.675
15.9014 217.253 49.6447
80.5063 155.915 163.108
4.58704 201.996 66.0267
46.339 120.94 51.531
80.7306 163.226 164.938
20.0411 190.855 63.8275
35.7541 191.848 31.7793
76.0124 109.826 138.382
71.4291 156.962 160.003
43.6789 128.685 74.893
85.4417 100.454 151.106
41.1766 222.183 85.3983
70.3312 111.682 126.946
48.8203 85.5751 109.444
68.4614 106.243 43.7407
150.252 26.546 256.258
49.5464 71.9555 140.106
15.7727 207.437 70.5916
81.0808 77.1591 97.5051
64.0414 89.2106 124.414
23.6469 222.318 48.1253
38.2815 85.3025 83.676
49.4263 74.5438 110.796
15.3142 132.393 34.6198
42.6898 137.737 151.288
31.7889 108.58 48.9882
42.6344 193.921 59.1607
2.96962 202.643 40.1942
82.892 74.7756 151.665
54.8614 88.3015 58.8555
134.85 22.2925 246.734
70.2879 179.488 126.628
61.2466 76.8629 157.198
137.26 42.0839 64.283
36.1945 5.39723 87.1926
5.94086 155.693 58.2576
27.9762 117.463 105.504
80.2779 87.9368 145.672
18.7099 13.9612 48.753
80.5529 183.834 155.674
40.107 214.279 86.0949
30.4086 211.34 58.7554
50.6637 120.569 80.8872
52.9132 179.178 99.8339
51.8616 125.301 132.258
57.8429 153.753 103.442
53.8178 157.86 141.5
27.5618 199.09 47.0745
85.7099 69.7308 142.868
44.8591 104.797 3.36682
6.29477 183.55 48.2702
59.5194 178.645 129.701
41.8989 137.252 55.7363
72.1295 133.015 184.723
36.0855 145.235 115.455
13.1642 215.549 87.9123
16.649 198.27 105.15
39.8129 3.77056 66.1279
49.7925 209.114 22.7475
19.9381 220.581 81.0583
43.214 96.4051 40.2307
49.7408 142.463 135.29
56.0056 131.303 137.656
62.1328 104.164 114.024
46.1194 175.551 121.357
36.8683 167.501 109.058
28.0564 178.011 27.7743
34.7884 142.871 29.9045
40.4967 197.738 109.801
143.884 1.78584 19.5904
136.664 43.1875 253.952
44.9989 117.409 104.982
48.4972 145.385 113.381
70.8217 151.92 131.182
43.8245 171.337 37.7739
74.8879 117.027 159.099
29.917 93.2728 73.6664
2.37113 219.728 60.7971
29.8406 101.294 42.9801
49.564 150.157 27.9421
55.5039 143.07 41.7882
72.7312 111.421 112.123
29.6298 189.489 50.8951
20.0851 145.518 27.8519
30.5411 191.993 82.3177
88.1883 173.581 166.073
12.6516 231.008 99.3605
29.8377 169.196 48.0115
2.19887 171.477 58.6817
41.7598 115.048 74.8763
34.941 176.982 73.1364
36.0843 189.946 103.201
48.1025 84.0401 79.7823
35.0527 203.256 106.225
17.28 137.073 81.9503
45.2871 169.229 65.6273
17.2344 179.853 34.5684
54.3012 139.407 96.2692
42.0488 119.271 67.5167
39.014 115.503 83.6976
65.1168 128.346 30.5065
52.7195 27.4631 54.5043
48.3176 150.011 39.1936
32.0021 183.541 83.0827
78.5152 137.082 32.6246
2.93741 177.26 70.1024
67.2671 104.61 121.242
43.147 226.937 42.342
7.35439 138.275 63.4574
40.1876 167.441 128.923
36.6741 166.964 66.9512
2.14558 197.99 77.8229
84.7318 130.758 32.6029
78.742 6.57128 183.053
43.5631 227.664 54.5364
52.1389 146.615 96.3475
58.8106 214.264 43.6501
43.5665 185.307 48.538
29.8404 177.475 82.2344
52.6112 84.9718 123.122
40.9081 180.809 42.7136
106.534 103.894 168.43
69.6788 121.143 140.88
25.0528 19.2499 54.4742
33.635 191.612 93.6996
72.5818 123.37 180.604
32.2629 206.068 95.84
2.42054 186.397 87.0047
33.1893 104.301 118.751
146.027 28.4992 248.04
84.6926 150.724 159.107
78.3849 97.7988 131.564
28.5306 120.303 114.5
62.2452 133.929 98.5118
34.6897 174.772 46.7922
68.1758 221.706 30.8848
41.81 106.362 35.3152
33.0566 142.483 74.2013
89.6082 80.5776 137.003
27.0681 119.1 82.92
25.5872 195.136 99.1689
29.2689 162.268 40.6471
84.8106 97.3707 129.574
3.26604 213.117 40.0647
65.8005 164.05 165.594
60.3463 135.448 31.2082
52.187 177.495 139.216
44.6002 96.4723 119.442
87.8785 164.312 158.739
67.5448 82.2255 129.747
40.8578 132.988 174.412
47.8668 131.03 84.1785
77.6008 181.129 145.752
65.9495 126.118 182.239
34.0346 220.746 86.1041
93.419 78.1653 107.617
71.3032 95.0257 133.602
39.5664 88.8079 51.0102
46.5152 91.222 51.5976
47.5404 203.344 58.8044
30.622 208.389 80.8032
23.5435 2.20768 48.9906
46.223 132.26 52.1013
1.92308 169.086 47.9655
71.4914 83.4393 148.615
73.325 165.254 152.853
45.0994 210.207 66.6663
80.7757 79.9532 151.929
1.66216 184.807 104.688
39.6698 116.44 49.8122
60.0674 118.426 126.284
3.87075 198.128 100.531
91.3686 139.288 274.213
42.1836 182.004 89.1344
9.82639 195.47 117.82
24.4771 118.42 69.4646
54.4657 119.469 115.49
19.3519 170.34 68.1506
76.951 71.812 141.39
68.6488 95.4112 118.025
76.1105 121.79 145.564
2.0409 199.527 52.2286
32.7245 112.735 83.4366
107.902 82.9309 143.778
80.3977 76.9296 138.488
42.4403 208.347 102.639
23.6479 156.907 69.3482
37.4471 81.067 77.2123
27.7902 219.529 65.7813
30.8137 179.868 110.179
57.9906 115.719 66.1956
37.9959 195.36 69.263
35.9462 184.424 51.0379
10.3696 219.11 36.3561
36.1571 141.596 81.2251
70.1986 95.9215 76.7207
107.815 68.6314 87.3725
45.6051 126.531 95.9664
39.2838 131.05 62.2628
69.5653 101.228 103.309
14.1001 192.662 40.2964
36.9756 158.51 37.8162
29.8514 227.806 88.1476
46.615 7.02512 40.231
43.99 148.934 32.4119
43.9856 67.8168 128.971
17.1055 153.577 72.8623
14.0301 208.253 87.9849
40.8253 199.893 80.7306
10.8757 219.665 43.3037
23.0374 149.844 61.8476
32.0979 127.023 50.088
11.8033 226.128 55.3813
45.138 203.201 117.655
128.006 1.66754 7.37175
96.8883 96.1124 168.793
50.3649 182.478 21.1752
47.5797 193.472 52.1616
26.0256 212.096 36.476
35.4227 215.517 25.2837
8.07655 204.867 100.958
72.266 149.285 24.1775
73.9272 109.642 162.218
18.7542 199.538 68.5074
25.4254 2.24891 58.1695
85.5669 92.2714 117.145
74.0948 116.742 88.1512
8.52349 188.911 37.9434
43.0648 160.507 82.2495
73.4253 167.632 165.908
54.4 156.376 83.7762
6.78692 193.656 41.4795
50.402 125.217 65.3739
54.4541 99.3586 60.5603
74.8857 1.29043 199.496
45.6243 177.1 98.5187
66.8646 156.897 147.773
81.2368 95.1663 96.4044
61.4412 162.224 21.1215
29.0029 93.0246 166.162
72.6973 76.1826 52.4533
38.3276 25.5479 64.0538
82.511 115.934 128.398
44.4346 136.166 81.4436
9.43126 162.512 69.3638
38.0515 229.86 29.8816
1.55189 194.565 116.09
25.954 155.928 50.2237
53.745 144.741 53.8056
82.085 101.344 136.569
48.7286 193.315 108.934
32.5847 147.913 45.6105
25.5902 202.25 56.4349
70.9085 77.0391 134.729
94.5801 89.5577 139.498
22.013 231.071 101.348
16.2859 162.79 36.8863
58.1469 115.698 39.2892
69.5697 118.565 58.6403
13.1283 1.32609 54.2929
66.3596 113.073 63.4987
57.6051 187.948 105.821
71.5945 87.0613 32.0632
137.246 1.85494 12.7722
23.0023 112.204 69.5754
86.7387 86.3058 165.463
131.676 45.7406 67.5833
85.1007 81.4119 89.2989
64.4333 223.72 44.8155
9.43303 175.211 79.0759
59.5729 1.93617 45.7167
26.2484 144.568 46.2821
37.4254 226.749 77.8067
37.9175 193.398 88.4093
36.1651 90.1323 107.551
31.1347 231.097 56.1879
89.2772 97.2103 141.78
62.1198 123.048 33.7683
80.0904 143.912 144.146
41.4117 114.707 96.1645
68.9789 138.697 26.2815
28.0773 17.4344 44.2
46.285 133.466 100.472
46.6157 155.108 53.712
60.4715 70.9643 137.188
55.29 222.389 44.4379
11.39 207.594 37.5952
48.8406 173.412 33.7056
39.1728 211.554 69.7285
79.1487 151.194 151.809
56.871 189.272 87.7836
20.4858 184.749 62.5952
50.5873 193.893 61.5428
131.997 52.2901 70.6681
13.5143 231.038 48.9011
15.7198 223.567 54.8467
59.6704 176.025 29.3288
52.0889 222.824 89.7011
72.337 174.619 134.497
1.15743 193.335 101.664
57.1429 189.404 50.8349
54.4638 134.103 21.8218
50.0572 187.381 94.5814
85.1825 87.8451 103.339
63.2459 214.528 56.6976
33.2562 169.234 80.5735
44.3081 119.792 82.2902
33.9095 157.385 21.2645
56.1222 209.982 65.3688
71.9296 101.703 115.203
48.1303 161.373 57.383
54.6367 195.427 22.5915
45.5207 97.2131 136.331
101.205 81.6738 60.0362
47.7453 185.96 58.8452
51.5552 137.856 33.33
66.057 124.44 85.0174
65.9908 74.2948 124.061
32.2476 225.59 76.5537
87.0015 186.39 149.818
55.356 125.213 179.397
62.8598 168.191 95.314
1.64367 217.112 100.372
40.8715 183.549 101.514
64.5548 198.737 123.596
49.8158 224.699 62.3469
53.9425 151.923 50.127
26.1289 184.605 70.421
77.7166 168.633 144.814
28.9648 213.227 25.6662
22.5959 182.074 59.4511
25.6739 175.215 79.8769
92.5222 110.712 115.023
61.3139 91.4214 150.416
60.7966 110.535 119.692
28.401 222.714 34.9306
70.4856 149.682 118.119
60.3083 165.038 32.0429
65.4263 82.4062 33.1834
31.1059 1.26313 66.7548
51.7692 208.729 98.7208
48.9207 105.656 49.8852
56.323 100.243 68.3849
41.0542 228.954 1.24385
55.921 216.789 77.1205
140.388 27.128 246.872
55.435 115.676 42.9701
46.6478 198.218 88.3873
42.7696 202.379 65.6302
43.4593 181.399 70.1902
94.0389 93.839 75.6477
5.26732 179.634 76.875
43.5836 80.5252 72.3412
55.418 200.974 90.7082
49.474 186.038 104.055
87.1724 109.264 144.487
60.3992 95.1798 52.9214
61.424 143.74 124.398
52.6033 229.702 49.5914
76.4426 220.447 2.21787
65.7837 113.454 109.834
45.1214 103.899 83.6013
92.7327 84.7816 125.849
98.8894 69.6603 81.9906
42.0691 85.0693 107.05
4.60922 160.554 71.0825
75.1821 125.632 129.901
35.1851 222.988 27.283
43.8918 204.357 38.1757
78.2638 104.21 133.996
62.0779 189.073 126.359
41.9116 182.178 63.008
54.1243 221.735 59.7582
65.0987 112.296 46.6392
11.8618 201.372 106.926
85.9232 126.652 149.374
77.0135 118.795 34.1988
42.6272 226.882 78.2746
105.203 108.523 154.755
34.3153 230.279 67.4125
2.20185 162.114 49.1049
94.9971 107.505 148.065
65.8319 142.287 138.705
40.5398 151.796 57.7434
96.1445 87.0975 103.889
94.5847 114.14 143.502
145.151 22.5518 257.506
63.1896 97.4518 87.3736
56.9781 164.426 104.726
80.7513 118.309 44.3721
56.7027 99.5347 50.0472
45.814 180.243 78.3185
73.4217 108.631 38.5513
63.2878 83.9999 53.5278
72.2238 130.937 100.063
136.026 1.14301 3.48028
30.3947 226.989 63.8349
54.1777 173.358 112.998
55.1612 176.216 44.8109
49.8392 227.289 36.5384
81.318 80.6666 49.551
52.91 142.15 18.7848
68.799 114.56 101.95
34.3686 78.5321 127.226
28.3332 227.808 38.3791
82.2527 147.337 129.565
70.2453 157.896 104.6
