ply
format ascii 1.0
comment Created by Open3D
element vertex 496
property double x
property double y
property double z
end_header
29.1043 46.3886 168.416
29.775 153.734 145.021
20.6352 77.3579 247.623
18.0337 35.2274 172.38
10.8242 108.349 220.3
24.6225 156.891 138.551
18.7017 168.198 232.319
94.6828 46.4193 131.796
21.6797 53.2199 187.602
19.78 9.56737 206.097
31.9815 121.596 235.516
29.5025 175.372 237.86
43.5471 92.586 192.411
19.9592 45.6476 173.597
26.7019 19.8598 216.77
20.5246 227.314 60.9839
15.0096 154.628 255.29
34.7992 40.2856 162.407
23.6463 209.794 245.649
46.9043 136.534 258.888
59.7846 35.048 172.001
46.0819 19.0117 157.441
20.2621 17.5376 166.935
95.1754 47.3803 144.656
11.5249 22.8554 187.472
13.6084 168.525 242.121
22.6109 172.339 247.66
26.5656 33.9111 162.969
18.0023 21.5882 208.986
14.2675 214.781 262.638
67.7169 25.6441 185.01
36.1788 123.036 251.024
19.8508 90.6739 219.277
62.551 113.49 243.208
34.4356 172.777 255.777
34.8694 28.6736 159.005
36.7764 18.6133 156.641
54.0405 37.9775 165.036
46.764 131.919 227.157
24.0573 34.5834 213.399
26.0337 192.687 96.4703
41.4894 202.463 3.40622
140.179 23.9559 236.275
85.2855 155.414 79.4283
97.8997 103.081 46.6027
42.1693 5.62105 214.577
89.9266 124.5 117.989
37.0576 57.3185 198.566
75.6046 148.095 69.2872
46.7717 88.8363 209.176
91.3789 89.9436 48.6186
24.0385 121.056 242.829
78.6996 113.787 114.837
43.566 31.107 158.249
55.7192 24.933 160.286
97.1986 60.9999 144.143
67.2661 15.7162 185.053
24.9318 99.9449 188.775
14.0713 41.9158 185.224
31.194 199.52 85.759
24.8087 207.132 173.064
21.7077 47.2864 205.216
24.1712 152.476 262.233
15.7934 177.961 115.565
41.3635 123.764 234.114
30.8097 99.8347 229.279
51.5526 150.597 224.751
52.549 161.197 251.514
47.1653 150.764 145.891
25.4965 42.7204 212.673
39.3858 162.03 143.825
29.1763 127.939 198.092
81.4278 105.231 113.453
84.7507 143.556 87.1183
89.5512 145.447 120.551
25.3466 3.34035 121.057
24.6638 116.893 190.163
12.0218 34.0429 197.273
65.0678 15.5473 173.751
61.8968 10.5355 210.289
10.7605 203.537 170.984
25.2324 229.001 105.498
40.4351 10.4381 160.277
120.326 152.048 270.175
12.3993 20.6696 198.86
30.0701 165.241 261.437
34.4911 129.527 223.144
68.2731 22.8709 194.361
38.4101 25.3865 220.543
77.4053 140.412 48.1085
34.0292 147.3 215.714
35.3016 135.366 61.3216
20.3442 158.679 222.326
21.809 148.166 217.324
35.2913 211.138 42.9293
46.7599 141.772 219.363
32.2127 90.9521 193.191
26.6221 9.43309 111.675
100.638 93.4469 54.7156
37.0852 179.767 147.451
38.9741 3.39569 166.351
16.0326 168.765 124.662
32.7624 106.435 207.779
59.8577 37.4674 203.347
40.2544 127.244 64.0537
21.9049 194.644 166.844
9.65411 168.464 106.145
80.1903 88.4046 51.7662
42.2062 195.306 68.1978
92.2433 158.052 92.0078
35.4701 106.063 80.311
41.5833 220.086 111.804
40.8647 198.403 31.5428
77.3214 226.685 49.8632
11.2063 139.851 218.954
25.2418 217.463 63.8357
34.2847 67.66 231.888
24.9347 190.632 116.115
31.4472 6.01554 210.982
39.2094 176.331 159.235
65.9894 104.211 247.341
15.83 45.4375 196.027
11.0942 148.895 8.93882
51.3498 194.008 119.785
17.5738 215.353 67.8332
40.8477 117.904 188.292
25.3145 211.491 260.46
8.96418 98.7102 213.427
98.0683 129.076 121.716
67.0508 186.361 121.954
88.0291 84.4551 61.2383
16.7322 9.72852 183.014
27.8357 229.756 76.3416
10.9569 196.378 157.516
42.1151 208.28 84.9329
32.1576 54.6229 178.465
12.1952 161.314 101.04
50.6581 101.503 99.0851
32.4827 13.6591 162.728
30.0168 52.0171 202.424
9.01226 169.96 115.075
53.3024 7.70805 164.137
106.192 139.318 106.474
75.6595 148.463 58.4768
33.3146 136.357 212.819
83.7614 149.528 133.073
36.9932 117.716 65.9523
73.8924 104.967 112.142
26.1643 89.9764 226.947
59.0421 217.795 11.6287
17.3204 227.422 32.8142
16.9427 178.348 102.31
30.1609 147.723 264.109
26.5596 183.335 156.91
24.1498 7.59067 171.021
117.565 116.419 65.5417
29.0329 168.135 141.95
30.7269 117.745 78.143
16.9216 36.8064 205.758
57.1867 214.537 3.69806
9.046 130.315 229.69
82.603 61.8195 133.451
45.9871 96.6909 93.3446
24.7078 176.964 132.876
42.1075 163.639 259.209
42.832 179.716 239.225
97.2357 16.9501 109.49
144.739 61.1378 2.30909
127.621 36.5403 160.039
54.4953 219.032 78.2738
60.9983 30.578 211.926
16.1378 89.6203 206.229
85.7092 100.616 228.534
62.7786 112.461 135.558
64.4599 135.102 80.3996
86.0551 101.274 41.4484
58.5216 102.106 102.852
17.6551 223.904 251.63
49.3691 204.397 91.9365
41.8426 149.034 56.0572
27.8846 128.692 71.7791
82.8286 64.2268 142.354
21.8954 209.926 37.9208
37.977 173.908 228.391
46.2256 205.08 38.8995
63.3941 6.05209 178.558
15.1913 20.0185 175.659
48.7883 126.852 144.69
13.5182 120.877 210.437
67.5928 150.268 53.4194
41.7589 97.3327 223.298
18.7101 137.512 212.604
103.867 128.34 114.127
65.1736 31.4562 177.804
25.3535 204.411 148.791
34.6194 67.7025 251.712
56.0807 148.665 236.565
27.232 65.8242 228.813
9.96915 103.373 198.936
44.5989 46.5744 168.123
94.3114 154.242 80.5557
26.2886 140.269 212.981
88.5073 114.332 116.582
26.7584 23.9407 162.085
38.5154 127.892 193.177
16.3669 72.3546 234.083
41.2131 203.447 206.06
57.9334 181.918 58.9818
18.9613 207.413 191.339
81.3877 124.038 120.699
106.311 93.3217 87.5901
36.7775 140.461 143.119
69.947 221.843 60.669
47.7288 201.195 11.6005
36.122 176.435 247.369
97.4683 148.015 119.638
81.5607 134.998 95.6545
46.1777 181.715 58.7379
82.5424 47.6145 128.633
75.9312 109.222 250.712
95.2993 88.9584 91.6744
61.9883 120.684 91.3216
96.9626 161.137 103.659
28.9006 84.9741 208.071
96.6413 139.078 146.191
86.8131 181.569 98.6939
48.4424 173.02 228.284
9.36428 145.637 227.319
63.8595 105.037 107.501
52.0101 42.0085 209.841
12.1745 159.892 121.76
53.2474 5.41276 211.923
9.79406 166.586 119.317
42.4508 105.629 95.0051
13.1421 126.305 246.683
48.1219 125.928 244.811
52.1936 101.237 53.8888
28.7713 225.509 207.724
55.8869 134.145 71.9884
32.857 59.716 242.621
44.5254 199.367 216.869
69.7705 98.4137 107.936
25.8468 133.555 260.43
62.4486 131.437 144.646
51.598 49.9855 187.428
93.9945 141.845 108.159
62.9789 153.183 198.812
50.4851 201.98 23.7831
59.0346 97.5857 203.878
9.61373 153.766 237.606
73.8063 136.246 83.8169
34.8485 114.411 71.3892
39.2526 54.9758 181.013
61.2287 151.943 144.931
56.2268 101.375 217.666
113.557 136.1 65.8096
11.3515 137.293 251.168
50.8966 204.257 77.8636
23.1311 176.174 68.419
26.9073 223.6 254.819
44.8042 199.908 107.295
50.9205 177.726 135.374
16.2361 151.186 88.1817
79.1948 95.7777 240.345
69.8974 89.1319 53.8015
17.2805 179.567 85.6996
52.3521 119.761 44.5055
64.596 36.2624 189.798
46.5274 47.1907 204.028
49.5776 222.52 71.3846
59.2912 101.289 45.3482
19.7856 205.786 5.74307
31.6863 168.198 154.48
88.3854 158.974 123.546
52.357 135.173 48.088
100.378 87.909 64.1234
45.0043 127.328 53.3526
93.2309 117.175 41.4331
34.0102 104.686 189.481
65.532 161.578 188.22
69.6575 87.2179 95.9179
51.7201 161.182 143.872
53.4349 164.829 236.842
41.5379 147.6 264.851
111.326 113.774 54.4731
118.089 114.031 88.2895
31.398 82.9352 240.041
17.8435 145.48 129.438
25.5915 115.321 90.6056
78.1391 185.369 102.192
36.649 219.547 171.928
16.6693 124.288 231.466
66.9682 196.008 40.9527
61.8577 93.1933 99.2867
39.1319 156.759 218.5
20.6861 62.5679 109.298
27.7607 230.679 240.551
60.1424 1.83819 183.428
43.2388 211.102 213.533
62.8313 107.162 207.26
65.7935 4.41655 204.487
52.324 151.027 254.055
66.5955 95.2504 48.0038
57.3569 170.746 139.158
104.226 152.744 80.3767
43.7053 224.458 42.297
22.4694 226.617 71.0977
53.2064 228.14 109.739
70.6785 146.547 176.915
95.4845 97.928 104.119
34.6548 106.561 90.7782
26.6413 202.795 5.16942
40.5344 73.9269 239.278
25.834 2.29547 179.342
12.3897 225.989 4.87156
48.3266 103.118 111.231
56.5208 114.649 212.259
75.4808 116.29 127.157
18.9396 230.75 88.0869
15.6504 165.105 83.3101
82.8634 173.144 79.4469
62.277 131.804 43.3196
41.0148 100.253 69.4467
76.285 158.935 64.3493
78.2666 176.973 120.469
98.2935 134.543 112.122
59.0677 227.385 3.24843
38.9301 229.666 71.6898
112.419 99.889 62.8379
70.9149 95.6034 244.643
73.4027 196.833 45.3659
28.7197 146.425 63.7102
51.42 177.05 237.466
27.0393 199.106 26.9725
73.7544 177.974 65.4924
14.7452 141.623 97.4166
76.5176 160.828 133.754
35.3155 191.629 126.047
87.5414 104.478 238.486
66.879 11.1445 194.008
15.866 131.053 91.6217
83.0283 159.08 193.391
40.9269 124.639 56.8999
81.8443 137.075 131.522
19.4077 5.85 195.306
14.7558 85.1295 181.78
23.6669 61.2728 250.442
36.6618 1.95617 111.989
16.8997 115.346 192.158
91.5427 126.331 126.436
71.0802 146.055 141.705
68.8292 191.197 109.918
100.494 19.3801 105.924
25.0451 135.564 219.857
51.4557 2.06543 173.618
46.0995 51.727 195.793
28.0974 217.525 101.431
36.9513 44.6718 210.976
58.085 201.755 77.8254
60.3994 102.25 112.309
54.7034 12.7154 165.493
84.503 146.707 68.2136
75.089 128.626 41.2732
58.9967 228.454 82.1895
55.7928 87.1589 89.732
119.147 130.396 75.2545
87.4341 169.535 84.2805
56.1498 141.066 247.818
60.8701 149.201 182.662
59.6006 22.3427 205.612
43.6997 215.956 106.022
32.2886 205.57 161.723
32.0429 2.87969 172.603
23.5735 216.78 157.532
64.2046 116.669 223.173
78.157 123.661 242.599
16.7822 22.0526 51.9876
64.0147 200.849 86.6333
88.4734 177.04 108.562
98.1216 86.5855 80.4975
69.8295 82.6049 66.9594
120.768 115.555 78.5989
73.2459 139.042 139.981
54.743 135.109 235.547
12.7445 212.745 17.4791
59.9752 200.241 94.8818
79.0885 165.247 67.2454
26.9139 215.623 234.186
63.4356 139.769 192.257
20.7797 212.482 203.5
49.0478 220.923 171.439
73.8754 229.556 70.0795
60.8622 196.222 44.0603
67.655 125.836 143.455
115.529 142.746 87.5114
111.266 130.022 103.176
49.0799 111.799 134.597
54.5931 121.642 198.352
17.7955 129.443 108.85
105.166 115.814 111.345
37.2162 229.163 113.348
94.9561 84.0928 75.8553
19.6854 163.859 69.8835
107.13 150.894 96.481
56.1948 110.507 193.962
42.9116 50.8353 203.427
94.5074 141.616 115.577
68.7875 163.086 172.201
45.218 100.23 63.5823
78.2482 45.2761 140.099
22.8831 130.994 226.024
12.7707 24.3239 56.6726
55.4611 20.1321 212.965
11.8706 204.528 232.03
22.0108 200.853 23.459
82.34 144.613 61.0063
14.2157 206.185 253.495
43.8553 231.293 240.493
15.1836 145.1 115.003
44.8096 164.335 54.7165
51.8639 201.493 72.4101
53.7276 216.847 90.8667
59.8316 229.009 96.4122
92.6475 61.7409 133.426
66.1657 105.552 116.592
11.6903 112.988 195.834
67.9526 124.237 235.604
32.6325 217.89 79.5864
32.5997 228.062 229.205
19.5706 125.159 89.3271
23.1758 124.534 125.854
72.3058 111.624 39.5952
99.5944 154.053 132.494
56.9831 231.035 32.8156
81.5339 143.477 198.284
45.1747 173.1 244.496
29.7778 129.705 135
8.60614 204.84 226.627
31.4389 114.012 126.327
73.6793 188.701 88.6544
71.1576 196.449 52.5429
123.804 85.9677 192.064
78.7171 184.224 88.5087
149.904 72.6174 1.68582
129.232 205.395 272.956
46.1296 127.873 193.28
63.0706 17.2212 204.165
64.3787 84.5256 62.5359
56.0963 226.229 52.5754
35.7123 173.58 138.758
32.4395 120.538 68.8895
24.1798 115.945 110.482
60.8797 202.204 55.9271
33.4096 206 201.82
46.9369 124.33 208.825
19.0714 66.6625 248.546
84.4006 120.714 232.902
35.1279 192.96 69.5771
51.8704 138.945 54.2047
40.0826 205.586 80.2792
84.051 130.463 124.698
51.5742 25.654 218.899
40.73 175.133 134.833
15.0302 2.26998 211.379
23.0506 148.088 136.817
35.5851 231.293 245.939
14.4337 1.19525 114.631
67.5951 119.112 138.3
94.4564 147.511 66.3381
110.019 94.351 73.1972
10.6303 116.312 56.6273
63.4747 201.245 1.09606
87.4955 155.886 137.849
67.6722 205.044 57.3238
65.845 98.1009 232.022
94.1516 153.375 143.053
42.8025 34.7622 216.27
16.3965 216.258 156.134
83.7923 195.09 131.271
62.1228 229.074 43.4021
77.2058 149.827 177.633
44.7516 95.6754 74.4182
101.209 132.5 49.5103
45.142 105.092 186.802
57.4512 2.46111 193.922
107.112 104.403 100.607
38.7242 167.184 56.0128
65.2521 193.332 48.104
58.6845 87.7422 62.304
88.497 86.3344 91.4615
99.8089 141.858 112.059
11.4024 231.575 17.7788
53.7678 18.7371 220.021
49.3659 22.791 213.687
36.6819 1.23003 100.023
52.0959 136.225 57.5912
