ply
format ascii 1.0
comment Created by Open3D
element vertex 349
property double x
property double y
property double z
end_header
100.208 156.991 139.975
105.247 107.561 84.0147
100.482 115.544 69.7603
66.9597 131.738 113.659
72.6739 176.226 98.1135
112.7 117.577 122.307
63.8757 168.807 101.506
113.95 128.117 74.8041
77.2499 176.4 89.4128
67.4635 158.734 78.7567
57.7715 173.4 120.301
95.7818 125.642 106.327
73.4814 167.599 120.746
111.967 32.6368 171.21
107.256 122.128 64.6807
50.5006 204.226 102.618
85.3646 133.747 105.795
105.335 106.076 104.767
69.8639 142.292 95.5925
77.7756 121.356 93.054
43.4787 184.531 135.28
113.111 119.276 76.3722
73.6586 160.039 102.099
78.0496 152.845 101.989
50.2524 172.195 116.403
59.6922 192.494 140.612
87.9035 110.213 115.176
86.6428 121.988 86.994
92.1956 109.728 92.6109
165.243 107.15 149.623
119.118 125.329 123.72
57.03 173.703 135.013
86.7837 176.492 89.0844
82.4468 152.887 64.1276
87.5743 143.036 69.005
86.5352 130.644 87.1983
77.0583 164.89 112.946
163.34 115.982 170.873
87.7447 135.246 64.7793
43.9619 192.006 129.646
63.4011 205.191 99.7887
75.2347 141.777 86.2602
116.977 105.24 100.734
46.0205 177.825 127.485
97.1785 170.898 68.7818
91.3668 149.164 91.8086
110.627 116.784 108.225
58.409 143.612 108.055
110.434 144.506 65.1123
93.7114 161.09 65.3784
75.9091 156.772 110.576
76.4713 131.983 71.3003
66.503 185.317 105.84
72.1734 150.356 116.289
115.31 127.409 84.3186
84.6162 168.755 126.691
65.1044 133.672 88.9178
75.0265 169.467 80.5931
168.132 122.358 156.286
77.1082 208.242 131.091
101.196 110.391 76.6584
51.8454 181.346 141.375
167.917 103.184 162.616
67.6864 144.394 111.145
97.5798 125.399 86.1729
72.832 124.356 100.482
65.5601 164.704 68.6382
31.6188 77.0127 13.8493
97.1284 139.771 63.9887
91.9949 132.706 80.5014
92.6639 131.316 118.918
114.21 142.728 74.6053
85.4597 101.354 87.9655
99.2782 175.334 161.714
71.3101 157.946 69.1231
78.8268 165.955 72.9172
77.0975 145.41 78.8498
165.953 225.366 222.602
78.8114 147.945 111.267
82.6863 108.799 91.3261
118.57 115.612 96.9477
76.1669 165.138 58.9887
116.828 125.489 95.9684
101.748 120.614 112.843
92.2214 126.991 98.3438
110.201 135.332 94.2637
160.245 100.121 165.216
100.498 36.4961 173.337
82.5509 181.387 140.771
113.204 110.593 105.066
112.917 154.327 69.4362
98.6939 151.991 117.792
68.5842 198.465 135.082
116.832 185.934 142.503
99.5927 121.784 97.6453
95.4554 97.3342 103.739
65.8096 171.287 117.847
86.9891 151.608 78.9739
69.915 177.278 136.828
80.7997 179.13 147.223
95.7908 166.692 54.8883
76.6989 135.519 77.7764
65.6297 198.064 119.859
159.896 115.471 163.489
62.7358 178.614 109.506
25.5319 101.6 266.094
104.592 167.926 85.1072
89.1028 172.278 104.495
78.2114 137.16 110.597
84.9976 159.56 53.4198
76.2347 145.297 97.7582
110.916 123.114 114.833
82.8348 127.239 75.7102
83.2101 137.463 81.4958
52.612 188.609 129.078
123.062 137.731 80.489
136.115 134.237 76.1494
103.075 156.56 59.7396
71.868 127.986 80.2284
55.2024 177.338 102.318
127.74 132.477 119.369
95.5426 105.615 104.777
98.4953 171.636 154.238
112.573 148.929 88.1326
116.701 114.475 115.473
85.2269 169.153 78.2235
110.689 183.095 157.774
95.3426 147.922 70.1806
73.8426 170.791 108.005
109.466 148.706 80.3659
91.0014 157.11 47.4888
67.2301 187.245 113.561
128.221 122.544 73.3476
85.7735 170.41 57.5333
112.392 170.343 142.876
81.0602 170.66 135.137
87.6717 168.766 113.479
93.5708 172.238 142.448
93.8467 176.106 64.9536
112.948 102.894 92.1212
104.542 120.178 93.7936
99.1976 45.5721 175.253
83.9317 163.669 134.004
96.791 137.969 93.2667
73.8627 152.681 74.7851
108.979 165.517 68.2778
99.2025 148.276 62.843
85.95 199.544 134.118
52.8047 173.561 108.048
93.3711 165.136 140.53
93.4056 111.111 101.215
71.7485 148.518 86.5633
104.153 114.379 102.307
153.582 95.0574 178.718
90.1049 140.176 126.042
107.793 154.992 134.901
78.6316 174.888 115.799
75.4603 120.5 109.886
88.5075 162.634 83.7692
92.8493 124.727 75.3395
98.6375 136.112 86.287
48.5266 193.866 136.821
118.246 163.396 132.374
94.4836 137.595 73.6302
102.505 171.442 137.197
92.0991 151.85 107.114
80.449 156.325 83.3363
92.0386 156.863 56.2919
106.374 108.842 94.429
82.7973 131.316 94.7887
57.4377 186.426 145.728
123.738 113.305 106.029
112.835 136.542 80.6738
166.768 84.908 156.642
90.4681 114.536 84.6169
113.157 148.875 147.103
115.073 145.991 133.887
87.4205 157.527 129.897
91.6783 198.854 141.297
88.5686 105.237 100.298
63.7998 165.984 113.018
71.2163 164.896 93.8097
100.651 130.726 91.687
76.8928 155.825 65.6305
68.1147 122.77 113.994
101.831 150.517 74.526
160.731 229.976 221.209
85.3883 119.422 97.8853
71.0209 134.579 102.073
84.2199 146.334 100.649
105.47 122.421 84.0311
81.3199 138.537 126.865
79.358 149.062 120.898
82.1976 164.312 80.693
58.8793 190.959 116.26
68.5679 118.289 105.092
90.4441 148.893 122.921
95.2419 106.633 85.6576
148.822 94.8592 158.906
69.7413 196.336 110.997
88.8924 140.462 85.7079
72.8821 174.527 125.894
66.7862 182.763 131.479
111.586 133.242 87.0128
122.081 122.601 101.78
96.5462 133.408 110.883
97.2694 145.342 124.231
88.4265 195.053 100.608
124.735 136.807 70.4346
87.6447 177.434 132.87
107.703 124.703 104.052
54.926 189.113 107.181
79.7713 189.873 136.071
72.8301 132.572 111.163
113.932 113.893 82.3448
77.8521 212.479 118.518
75.4506 181.098 117.17
130.595 120.476 95.3225
130.951 122.578 109.118
104.199 161.658 79.5368
97.1966 117.303 86.7336
114.123 133.947 101.517
91.7321 181.43 98.9232
92.6269 164.255 131.364
164.267 120.915 164.723
83.437 168.036 96.2525
103.239 137.807 124.068
67.4202 191.611 94.6968
70.0015 201.73 104.064
89.1895 181.093 149.206
158.2 95.8024 173.451
105.572 166.214 148.576
99.8632 145.046 139.795
62.8246 193.42 107.237
68.643 191.062 100.094
68.9536 144.551 102.232
113.965 152.172 141.351
89.9323 169.839 95.631
82.1384 140.743 97.5012
54.5381 148.989 104.616
81.9529 135.577 116.649
157.997 89.7597 168.015
104.519 175.978 149.171
103.423 124.428 73.7424
107.119 155.712 92.2936
60.1231 144.335 101.598
81.5112 196.84 110.038
126.651 164.9 126.168
104.302 139.42 75.6789
79.1779 188.61 116.986
92.9303 141.634 106.726
147.159 95.0482 173.726
113.11 114.218 90.2535
121.251 194.893 133.837
83.1602 153.411 118.305
130.616 132.187 106.542
81.9166 186.117 97.8759
96.8533 172.891 94.0862
121.19 116.226 89.2713
88.6669 161.134 101.369
96.0077 164.358 73.9627
114.378 154.193 132.6
81.2738 131.585 122.078
75.6069 132.82 88.6651
111.531 148.985 124.028
74.7635 183.171 108.445
127.983 130.573 81.9692
66.7475 151.156 108.77
121.608 173.806 145.965
59.0296 184.64 111.306
104.603 138.023 116.115
85.2101 161.508 121.422
73.2614 196.144 116.815
66.5128 159.666 95.3492
80.7279 177.245 104.525
63.4788 128.888 102.542
128.133 131.499 95.0122
91.6681 182.362 141.684
105.331 135.663 109.217
63.7608 145.607 97.436
125.355 153.608 76.1901
108.233 130.725 68.7968
123.879 128.897 112.731
108.242 129.138 81.5905
118.649 146.562 82.8763
111.408 189.181 151.623
122.499 124.578 86.3749
95.6248 162.993 100.713
105.453 140.052 61.3079
76.4895 184.679 127.264
117.635 126.698 108.714
76.8245 150.468 91.0418
101.938 151.474 83.2085
102.415 163.589 134.904
80.9329 156.64 90.1623
167.067 92.6243 170.482
81.2035 199.944 121.361
54.1087 163.475 103.891
114.433 168.345 125.061
105.191 198.369 136.257
81.8944 218.53 118.282
131.106 138.487 86.7365
168.409 111.997 173.774
63.8425 124.866 106.755
110.584 142.348 129.234
163.77 92.3056 163.851
115.828 163.198 113.142
107.381 157.878 123.335
91.5894 202.617 104.793
118.147 165.606 145.819
165.962 112.979 163.329
88.7941 177.613 117.472
168.156 94.6413 164.678
123.721 146.81 76.3005
160.753 231.344 234.937
68.5632 190.857 123.595
134.5 169.479 124.914
103.789 153.832 109.389
121.359 193.731 147.638
73.4885 191.98 136.011
134.764 126.781 99.8925
101.58 145.231 99.5377
127.871 114.445 98.9762
119.055 160.43 67.9183
116.576 170.279 134.155
98.1256 164.612 122.564
106.296 147.025 104.097
86.7859 161.317 117.408
72.0298 153.639 87.3599
114.311 177.058 147.838
138.607 130.345 109.364
100.314 180.791 101.351
86.8049 191.328 114.428
116.655 156.812 119.211
103.894 163.864 95.4645
72.2753 188.012 132.74
82.0562 153.573 93.7764
91.7182 197.052 110.039
99.3837 190.187 138.278
122.25 120.658 73.093
98.3083 176.742 143.543
128.663 187.434 141.875
121.138 182.899 89.2403
96.4059 167.773 146.106
118.809 156.624 97.4327
100.451 178.48 125.358
105.277 159.832 86.2593
98.8769 184.462 130.978
98.1324 166.898 132.374
