ply
format ascii 1.0
comment Created by Open3D
element vertex 442
property double x
property double y
property double z
end_header
40.7509 54.3706 113.526
30.52 38.9718 128.266
13.7626 159.961 60.0347
3.11969 114.431 125.344
32.9084 92.8786 114.085
2.93825 155.061 96.0747
12.6446 89.9037 144.975
5.60586 127.923 108.818
17.8361 135.955 145.559
5.15979 13.075 200.599
9.26098 107.795 97.6491
7.45049 124.312 64.8576
35.0395 21.8366 93.4668
47.4422 37.1379 123.186
48.2939 14.5348 58.7719
38.5018 112.177 60.7363
54.8858 34.9702 114.636
8.01905 130.052 98.672
13.7631 91.494 126.651
22.5527 12.6935 134.556
52.3408 18.0947 88.647
39.1719 108.628 139.236
24.8991 161.211 121.35
31.2187 175.383 108.831
29.5573 5.23233 192.178
30.523 10.896 122.326
9.88131 137.862 145.294
11.046 141.096 128.71
23.7345 165.03 61.4705
3.43184 138.292 62.2923
24.3969 87.6991 111.043
12.7976 159.241 72.9224
90.426 39.4162 126.734
7.49202 121.183 81.2374
46.6053 50.1447 126.116
22.6818 32.7683 113.225
44.972 13.4327 105.516
15.8252 151.334 131.039
72.8915 26.9374 150.581
4.56559 117.558 99.6759
59.6075 51.3147 114.598
26.1453 4.21211 134.559
40.0258 46.1067 145.639
32.4871 52.7807 117.856
17.1289 131.804 155.795
20.0645 189.545 36.3843
4.3955 116.412 69.7892
20.3962 90.4809 134.329
50.0082 24.8395 100.949
70.8235 39.3581 93.3087
12.8052 190.98 34.7088
3.74953 165.039 92.2717
11.3563 21.914 205.562
4.24564 138.327 52.7393
39.4664 6.96098 107.534
41.3821 98.9134 123.189
47.4175 110.267 55.7221
15.9552 103.778 92.287
48.4354 47.7208 103.823
19.8431 155.008 118.148
24.4247 29.2628 138.096
48.0459 165.439 105.715
4.0713 188.443 34.1103
36.9248 12.9254 100.798
34.3959 17.0052 116.948
53.4958 32.4583 99.9872
21.5403 90.963 147.981
86.6895 33.8085 136.201
39.9515 120.006 142.064
33.6851 44.7141 101.27
12.4947 101.931 77.0402
14.9825 163.162 113.604
32.5933 2.26796 125.007
7.19873 126.904 151.931
41.1078 112.353 123.045
10.0501 170.83 95.5892
36.6497 49.1609 130.076
17.5807 47.3678 195.73
10.2503 211.271 24.2617
7.05114 173.15 31.6884
66.1421 6.68155 92.7544
26.9676 16.6978 105.289
65.9406 41.7683 138.062
44.818 146.556 47.2507
28.7381 35.867 144.158
3.4853 156.442 109.046
9.8891 144.005 46.7545
59.0651 153.876 104.927
39.6591 53.0228 106.625
4.64262 158.432 70.4659
49.784 171.687 25.1965
3.01944 99.4049 10.8564
46.7819 2.69345 103.195
8.15386 151.059 115.149
38.8581 133.093 44.0144
35.3214 153.174 50.1412
8.25241 155.478 83.8035
74.1487 12.7147 96.9775
26.1835 137.285 141.356
46.694 103.005 101.516
37.6698 125.708 144.844
24.3975 18.624 138.838
56.2925 164.881 98.5375
31.4874 51.5789 129.964
27.519 106.673 45.8965
95.987 30.1979 102.524
31.5032 131.055 151.689
32.6773 160.275 55.8467
4.69991 147.934 103.777
5.81772 112.384 112.719
23.5878 91.6725 123.798
23.9915 5.38895 125.174
25.5572 157.209 47.5243
15.1444 153.287 47.0401
24.1599 37.1782 129.95
43.1251 156.998 121.268
5.44619 146.395 88.979
94.7224 19.1566 111.066
17.6693 212.137 2.94772
17.155 119.331 81.3251
58.7232 172.735 16.2707
60.9026 43.1899 108.604
3.18209 138.235 100.762
46.9295 120.116 47.1063
45.8452 105.703 59.9467
35.3624 23.8686 123.825
62.8901 46.1821 119.551
15.3636 189.538 12.3939
25.6791 151.864 124.849
44.0415 49.7225 136.155
43.9563 157.049 73.5615
11.4132 130.397 75.1655
6.14595 95.1081 125.573
40.6076 169.895 108.11
56.6284 114.435 58.5789
39.8151 103.673 54.7306
52.8072 160.436 119.239
21.3223 183.066 15.6148
64.199 160.493 98.8469
70.2462 21.5703 96.6489
6.85489 103.349 120.542
84.5638 23.7692 97.7828
10.0517 199.987 30.8667
4.42093 134.86 139.611
60.7045 172.523 4.4836
59.3922 35.9497 94.5814
52.4675 113.963 105.691
85.3161 10.7833 102.811
19.08 136.138 133.517
29.2476 45.2802 130.5
23.2781 206.031 31.7736
18.2007 21.4212 191.782
21.4166 98.6217 118.226
51.0378 139.853 123.118
44.7656 141.324 128.4
55.8582 122.423 98.2002
32.1488 155.048 15.2979
53.9865 158.808 78.3243
56.2428 127.625 50.96
49.6685 130.407 117.616
21.9832 99.5331 56.9175
17.5665 140.644 123.074
82.5423 39.1192 97.8677
32.131 45.4901 108.147
51.6803 116.91 75.0603
56.2687 109.731 72.2323
14.1977 147.163 114.843
10.0291 131.561 119.588
15.5823 51.4647 192.51
2.20618 119.241 48.6289
43.7569 168.508 72.5385
28.7146 146.555 128.935
20.3493 95.2927 94.8558
52.8044 109.13 88.6947
41.5095 173.463 82.3565
53.665 106.547 111.673
26.7132 108.072 81.6952
12.8468 52.0943 205.367
13.2198 9.59238 183.72
82.8592 50.9487 114.856
32.338 158.606 119.739
9.47538 214.249 11.2085
42.8705 99.6057 107.782
48.4533 13.4473 95.3181
19.2192 21.7118 113.532
65.5932 35.0323 100.968
92.0779 28.495 123.331
34.0505 162.866 65.7089
42.3015 172.919 95.1915
42.9082 121.262 133.285
51.4404 105.07 127.4
37.1604 31.5889 122.425
38.4434 165.769 114.358
52.6558 163.882 85.5955
32.5825 105.378 54.7146
16.6854 170.922 110.884
32.0183 146.948 40.8201
32.8937 26.6269 152.019
50.6712 104.933 96.1166
14.7582 160.6 22.574
79.249 47.6728 105.322
15.1338 184.49 35.164
32.5056 100.046 148.41
19.52 111.925 73.7077
51.3145 26.5117 66.0844
12.4149 167.124 81.3593
37.2231 107.884 147.216
13.0722 120.165 118.476
83.718 25.4282 159.759
8.2004 166.609 105.457
3.46648 95.5305 151.073
17.2286 125.557 158.402
29.233 105.702 113.052
61.0692 148.611 78.0028
75.0941 34.2451 175.609
25.8688 101.013 64.5096
5.9948 115.108 164.08
17.8945 154.628 55.4396
9.12133 145.167 96.4706
24.1568 156.309 14.0662
22.0133 13.7779 121.32
41.4386 173.567 43.1535
20.938 166.869 71.7576
13.7044 145.703 140.779
58.2919 22.1641 101.438
81.2902 44.0507 125.121
44.1519 179.512 34.7236
53.3036 122.417 55.8528
19.5575 176.903 37.6428
8.00373 36.544 196.211
29.2533 173.777 80.1856
58.2955 143.67 106.37
18.2835 175.573 86.5078
18.1271 188.45 17.1245
8.49831 179.094 35.5374
3.8254 133.265 89.5301
32.6903 120.263 40.6763
60.7815 130.581 58.6664
42.3617 98.1431 134.78
28.7523 99.7715 102.582
22.0885 92.3547 84.9125
27.5897 168.749 116.202
16.5691 114.89 162.912
64.5982 157.569 112.456
86.5059 45.277 113.318
62.7925 50.0547 129.505
53.0021 45.4848 106.839
81.0352 37.8925 163.762
11.3854 99.7171 65.8523
11.1438 105.721 50.1878
3.25241 138.907 111.116
53.3559 146.774 112.451
39.9193 140.873 125.396
71.0542 36.1352 147.596
25.4971 103.586 90.6001
44.5259 132.473 48.9871
11.8682 101.36 115.469
67.4421 46.4627 101.29
46.914 147.77 66.3624
5.43014 119.691 88.7167
15.7056 91.6214 109.508
54.7912 170.37 86.7192
9.53014 130.821 158.199
37.3954 98.2688 70.9154
69.625 43.7499 114.137
58.5289 150.121 117.811
7.9186 139.026 84.2136
41.044 102.802 95.0315
56.4786 119.838 123.306
12.8829 116.512 76.3539
57.059 110.375 81.881
46.951 132.71 128.346
23.3457 184.412 8.56737
39.6758 173.754 2.16057
36.2109 125.057 126.579
72.3408 48.7001 121.456
44.9418 147.338 129.636
35.2161 8.24807 150.234
34.4143 2.48166 115.358
53.6664 133.261 64.9337
30.0772 137.96 133.712
26.5794 103.188 96.9
26.8741 118.151 161.696
47.2192 128.443 135.734
63.1805 117.279 82.3958
17.8688 99.7969 64.7588
2.84595 93.0536 141.42
89.1298 42.8538 102.019
21.8628 211.871 12.7266
57.6818 134.816 107.265
149.827 106.435 110.188
5.90555 149.034 50.3445
55.1161 119.848 91.4922
47.7149 109.105 66.9629
52.8977 162.995 30.4433
20.4779 159.29 65.0969
95.7442 40.794 118.798
22.1106 122.445 162.414
61.9634 149.02 100.633
39.9752 111.454 131.278
57.4707 129.333 122.173
32.6272 130.363 36.8126
47.837 122.785 79.3518
16.6949 229.384 272.672
2.61405 161.197 108.95
13.4381 6.80602 217.075
11.1764 150.876 64.847
12.1936 107.623 87.1339
11.612 135.351 133.404
46.6012 160.474 2.34181
2.69225 107.999 65.9864
16.3257 163.689 30.4213
80.1116 22.1763 149.823
50.6798 113.982 130.491
57.22 9.34143 100.472
64.7285 134.695 113.903
31.6672 11.1182 113.674
47.2651 148.838 120.713
6.45923 116.935 44.0248
2.47481 155.41 80.3626
10.8869 130.636 38.373
12.8481 100.989 58.2755
52.5754 45.2362 146.506
19.4254 102.458 86.0812
59.072 145.393 69.8069
56.5416 117.216 114.868
32.2654 46.8069 116.508
52.8636 121.354 129.746
18.6134 207.123 263.726
22.7374 177.517 98.2336
96 16.5101 126.194
82.5649 40.9829 160.092
2.40348 133.56 78.6928
19.3996 98.0233 105.934
25.9657 15.788 111.556
35.1069 30.1779 93.595
3.83563 104.408 58.6054
8.97199 165.251 113.4
90.6069 27.0602 112.354
29.1036 178.103 87.8515
28.5728 157.45 31.7921
45.0931 96.9307 84.6566
45.5837 110.837 78.3221
37.5227 140.805 131.923
48.5845 102.803 86.9533
87.1698 34.6038 115.229
25.8872 119.629 79.3233
15.7359 147.773 42.112
51.6466 182.825 34.7359
42.9099 109.749 87.3601
1.95509 194.607 29.9836
61.6729 137.84 65.094
46.6631 25.3323 115.142
27.2407 170.845 42.8482
24.6324 140.472 35.2587
6.32232 171.085 2.73955
25.5098 91.3806 103.76
55.666 165.582 74.7082
46.3022 106.261 114.761
43.1936 155.733 56.8662
47.317 122.714 124.359
48.6885 159.411 65.4965
16.7694 103.77 71.8947
32.2492 190.534 33.4366
4.21985 160.236 104.111
60.6674 131.004 93.0493
90.7573 5.45439 122.417
44.3502 20.5005 50.8073
93.8612 4.93954 129.336
61.941 119.565 106.463
61.7004 144.308 90.5288
35.93 91.2596 124.047
56.1658 102.705 119.854
52.4367 140.408 58.0136
69.4335 151.926 101.791
63.2993 125.266 76.1463
7.07467 123.1 169.62
45.0528 4.30753 152.937
23.6104 118.734 37.249
76.5192 35.4449 136.713
5.41351 129.392 123.951
12.9279 92.3888 100.908
31.4594 144.376 92.2351
62.6602 137.737 74.6277
55.1944 112.503 119.862
17.5287 163.695 5.14596
19.522 110.501 81.6052
40.3256 54.6402 119.291
37.096 106.322 83.2504
35.4006 127.183 135.339
48.6743 28.6805 158.221
82.5958 28.4291 104.77
45.3729 17.0394 158.032
31.9778 111.69 84.589
59.0833 155.296 90.5404
34.0765 95.41 100.084
8.28488 2.06725 210.203
26.402 205.973 20.8428
95.2246 30.1385 132.558
27.7434 18.2868 193.403
46.5049 169.179 38.9797
64.3164 133.991 81.3002
6.03662 190.941 274.537
48.4629 97.0369 116.935
12.743 107.956 68.3951
5.16635 24.4371 214.794
10.4737 96.3038 159.164
54.5962 128.492 72.7114
95.6578 8.38396 117.988
41.8775 197.367 22.895
1.65021 201.695 4.61149
28.2129 155.345 7.86141
37.0355 1.60132 147.023
17.4744 102.726 162.006
85.1116 23.3649 143.986
62.1059 1.4822 98.0502
79.0453 25.7717 173.221
43.2702 207.259 9.17897
63.7924 22.7031 157.079
33.4883 205.002 6.29669
30.6293 1.73014 110.474
2.26331 112.987 10.2984
60.0606 124.077 113.012
59.1727 136.968 113.838
57.8068 3.97573 155.54
31.724 136.425 91.6411
49.9344 53.609 120.167
73.0803 26.4983 173.424
63.74 136.682 100.455
82.5204 2.06336 147.101
28.0442 109.89 115.649
56.0848 122.836 64.3523
27.1874 40.6169 139.605
45.2918 126.523 152.798
6.53307 193.434 270.13
49.8716 188.059 37.7499
14.5128 131.383 149.442
42.5431 132.229 153.769
60.6121 124.793 89.0404
99.1534 27.99 125.208
59.6367 116.717 91.5596
1.18944 174.867 14.6506
