ply
format ascii 1.0
comment Created by Open3D
element vertex 553
property double x
property double y
property double z
end_header
24.0231 98.5125 127.637
7.40969 86.2806 120.816
75.2362 143.237 95.4353
9.12715 77.1036 106.87
27.8223 121.903 169.613
28.919 84.7767 138.532
7.40179 128.379 138.995
55.8012 156.636 171.736
7.33999 122.834 123.368
76.5063 160.11 124.946
19.8644 91.722 115.41
15.9797 94.3127 103.371
58.6895 183.871 157.835
11.3825 91.8356 130.382
22.1784 113.287 154.058
49.2773 182.649 132.277
22.5591 120.621 149.533
11.8107 114.233 135.524
65.5258 136.099 82.3669
29.0594 113.368 115.167
54.4155 187.675 140.939
26.2093 96.2861 138.826
25.3907 137.981 109.771
60.5273 173.753 173.73
18.6267 94.5755 131.563
24.2122 120.317 139.913
15.1999 125.584 124.866
56.1487 183.345 134.865
31.487 119.769 159.864
52.1547 185.566 156.637
50.2489 126.101 159.491
46.2322 96.0214 142.245
41.4431 185.908 145.159
69.8539 158.347 105.386
61.1495 178.485 137.763
15.8116 79.3125 122.638
36.7516 98.1159 158.719
18.98 135.468 123.827
12.0323 126.106 131.666
11.7574 106.664 136.566
62.0513 178.423 159.482
50.3196 111.32 149.667
107.76 202.852 80.6625
64.0126 172.384 163.977
73.2155 150.495 99.1836
56.712 113.15 149.346
62.4727 187.714 142.291
71.1327 155.807 96.0643
52.4136 136.626 92.286
63.2588 171.106 136.358
43.8918 130.931 165.347
45.7383 164.928 171.66
78.2099 149.717 116.173
24.3471 140.77 117.094
46.4818 186.995 138.946
68.9764 180.23 147.587
71.1367 163.733 118.515
80.6849 141.637 109.802
49.3046 179.993 160.278
49.9471 36.2393 197.019
78.7315 149.376 106.91
64.8736 181.336 143.066
8.91444 141.217 136.865
19.7125 116.745 117.941
31.2594 115.384 97.334
32.484 121.139 98.0722
22.2435 116.899 103.589
44.2391 170.95 161.181
12.2608 117.874 114.65
67.5974 175.429 141.415
67.3454 154.502 168.354
80.8877 150.483 127.106
70.0032 143.721 89.0757
56.9991 188.071 148.61
69.7344 165.06 124.692
65.312 150.89 89.2811
66.7269 126.694 84.2974
67.1451 166.533 166.809
62.6786 164.838 117.781
36.7014 120.908 168.744
6.37956 79.8545 124.501
55.3422 134.28 175.242
16.6976 160.138 195.819
21.3349 100.562 144.839
38.1024 171.383 160.889
21.2998 145.728 132.748
25.0055 154.598 125.485
19.0278 120.965 107.338
38.597 88.9161 147.987
27.3545 109.962 100.883
42.3022 128.493 92.7715
42.0741 104.629 160.122
53.3648 142.913 91.2747
70.9804 129.012 95.0692
57.3528 132.251 98.9239
57.3596 96.4253 215.142
12.6907 94.0398 111.486
28.4978 163.57 133.655
12.8377 191.312 244.345
19.5579 110.829 114.875
5.25072 193.889 211.659
55.521 163.447 173.535
58.1354 175.773 132.304
47.6951 126.798 90.371
44.0262 136.765 92.7941
7.83108 139.834 143.943
46.0556 141.707 102.053
28.6886 100.636 153.026
54.8156 124.252 167.825
30.1257 144.761 108.642
54.9933 133.421 83.4436
40.1979 107.311 108.554
79.0202 143.248 118.865
80.2199 144.882 102.425
42.2557 177.771 166.909
79.211 157.388 113.632
40.7028 102.621 117.448
127.512 32.5485 29.8184
51.9259 140.752 100.493
28.2492 89.8598 108.709
77.5057 120.153 117.316
18.0658 103.771 108.636
33.628 150.438 171.258
50.3426 114.85 168.896
29.4049 125.195 102.442
51.3752 188.674 149.737
59.5883 131.894 170.468
17.5417 131.986 133.722
52.2083 101.252 138.024
49.4153 152.656 93.4927
12.728 106.656 118.429
58.4378 145.53 171.638
64.2059 158.779 173.207
61.6945 151.735 172.28
62.8943 168.549 123.328
66.5899 170.104 156.385
79.7768 135.747 103.266
41.1985 135.278 98.0705
46.314 186.633 157.445
66.9503 168.209 141.992
31.663 123.098 139.475
97.1163 222.291 194.262
70.3677 172.992 148.206
29.2699 119.95 105.909
44.3411 117.73 147.042
19.7809 114.455 108.478
35.2598 176.912 128.3
61.0338 166.91 171.877
71.2867 115.665 107.584
22.1134 165.421 134.49
33.5293 90.8243 123.097
34.4477 162.963 134.155
33.0377 101.498 121.287
118.056 40.5935 190.47
90.9797 216.483 18.8206
69.0706 120.791 97.4041
69.1778 144.198 150.397
16.2655 164.389 135.045
37.3349 142.786 112.785
61.6172 126.76 167.418
33.6844 187.539 134.65
63.1869 146.321 84.7523
49.7871 146.467 93.7974
49.755 107.896 131.7
67.5333 181.448 155.566
45.4067 171.99 172.145
30.6569 131.725 167.614
65.2528 174.497 154.519
39.6798 154.473 97.7471
71.6487 163.2 109.495
35.8108 158.304 107.235
46.016 159.903 177.549
35.495 138.154 174.047
53.4971 156.212 93.01
33.4408 129.088 100.839
12.9061 145.009 142.674
57.8862 105.861 138.557
63.5619 123.567 98.7515
12.3006 29.1031 51.3768
28.481 101.268 115.235
58.1978 166.537 126.976
79.7574 140.159 127.397
18.7827 156.577 124.209
11.6947 154.593 140.211
32.7767 160.266 114.652
40.4266 189.599 157.03
58.3438 139.553 82.4653
56.96 89.429 186.089
28.2015 173.756 130.895
14.5539 102.433 121.321
72.7014 160.092 130.992
30.2336 182.328 150.609
26.1729 114.887 99.4917
18.2055 120.64 125.527
26.6286 131.452 106.631
42.0501 111.613 122.95
86.674 3.46955 50.47
50.2942 176.315 169.093
85.1579 66.0398 8.33767
4.88047 184.219 253.771
38.3256 92.8818 131.608
10.589 97.238 136.925
61.6891 138.319 171.766
47.0276 101.949 149.968
29.4862 180.78 131.962
47.4688 100.762 116.139
14.439 112.721 121.206
40.5014 148.319 105.467
64.4974 165.031 111.429
22.4115 157.771 130.462
45.8473 124.078 97.4763
73.6797 132.447 99.8364
41.1776 130.797 175.811
16.8241 158.796 142.922
31.6069 138.826 117.314
41.4785 117.788 92.6133
48.0501 133.861 98.3564
60.2073 125.686 95.1317
58.5426 179.491 165.026
18.6698 108.377 138.409
28.8286 156.452 131.091
50.959 173.149 123.84
36.9137 130.102 93.4493
38.2338 157.075 116.684
51.7182 166.063 123.271
70.6201 161.502 144.403
52.3932 167.346 178.652
32.9094 132.84 107.975
41.5885 123.165 161.948
32.6964 140.082 105.162
113.332 62.4307 47.1186
58.892 113.779 101.689
122.347 143.199 46.3161
29.7507 162.198 123.218
53.1147 101.344 109.792
56.5999 120.697 152.218
74.557 154.06 104.196
76.6364 141.933 150.12
30.5479 88.0943 114.833
27.4128 80.4491 121.101
21.1115 165.136 142.261
43.4995 163.241 116.37
34.7949 182.303 154.586
39.2171 187.767 138.454
62.6487 162.414 105.855
52.411 161.518 103.148
53.066 133.337 101.847
45.194 137.78 173.036
103.868 16.535 117.759
62.7688 114.943 148.229
34.1473 106.541 106.125
67.5541 137.657 157.234
72.8119 134.409 87.4122
60.1527 156.231 93.2266
93.8683 201.519 262.414
168.79 141.245 84.9742
27.1007 162.344 113.562
15.2851 153.282 127.196
16.049 140.773 134.347
114.134 145.172 1.97967
73.8272 168.051 137.439
17.6942 142.164 127.068
65.7938 164.454 158.079
26.2759 89.5315 120.28
34.0131 155.59 123.517
32.5996 150.751 111.074
24.2676 154.547 113.775
21.0742 128.829 109.253
28.8324 84.8729 127.983
36.2296 118.944 154.143
78.2717 137.079 148.223
42.2272 177.418 157.39
20.4853 166.924 151.182
55.8331 164.55 113.231
39.8172 114.752 96.9101
77.4887 139.525 136.939
25.6113 124.739 128.715
56.6033 106.43 100.684
36.726 177.315 158.083
28.95 64.8208 83.1912
34.6329 133.942 97.1299
50.9862 122.606 97.0045
48.3829 167.106 110.935
152.16 175.824 139.913
68.548 216.681 189.722
35.0465 127.755 169.288
79.2415 161.621 118.151
54.0434 124.726 92.995
52.4287 176.105 130.467
69.2914 123.452 109.246
167.906 191.254 198.563
49.7853 155.818 101.026
42.3905 143.913 106.675
69.0881 151.023 151.405
73.1117 148.425 141.488
70.9041 159.118 137.786
56.9754 166.576 118.688
34.7265 134.481 116.273
18.5114 84.5102 122.185
56.9208 114.506 157.362
47.3863 147.385 99.6587
51.799 116.352 156.189
56.3982 149.006 177.123
78.4335 145.058 133.979
15.2128 101.006 134.954
40.8602 106.852 100.405
27.1855 162.416 140.182
43.5818 92.4436 136.758
35.7635 112.577 104.574
58.9593 100.189 120.962
80.7038 155.44 129.951
78.3023 130.019 108.816
69.9086 156.764 151.663
43.8038 151.607 96.7436
66.9272 166.45 130.542
36.2825 151.402 106.805
35.0215 114.413 159.543
27.9834 179.013 136.908
37.0059 95.4641 126.61
38.9974 139.071 101.322
62.8813 106.303 129.061
19.7381 107.726 149.173
69.7863 166.897 153.205
27.0995 105.811 103.711
44.1342 161.041 102.295
43.2564 156.008 115.508
14.0068 154.542 133.596
66.3592 104.508 122.168
46.8133 173.168 129.651
31.3821 101.142 108.034
46.781 191.436 149.612
16.4144 164.513 201.646
24.8653 157.222 119.021
73.4669 134.03 153.716
63.9055 114.807 108.522
73.634 137.161 92.7744
57.3312 109.764 143.663
69.4078 144.662 158.17
87.0431 218.318 6.9157
57.3418 160.732 102.506
53.2121 112.343 111.596
24.2388 104.244 111.102
52.8338 106.194 118.068
40.8554 185.729 132.427
81.8087 124.766 125.902
79.6699 143.572 141.884
17.6784 123.461 112.817
32.2573 171.655 158.717
21.9029 130.83 122.498
34.3219 164.655 127.491
22.1759 142.782 122.162
41.3662 170.902 120.069
21.2128 159.844 157.616
60.7815 136.491 165.769
48.7329 126.027 168.328
125.29 161.978 251.578
38.3497 181.982 129.455
29.0482 129.523 117.56
78.5193 136.307 109.173
37.8779 160.986 125.288
37.414 118.602 100.236
21.8574 147.751 124.454
39.7348 123.546 96.6836
23.3242 128.166 118.752
40.6678 155.475 106.715
44.2363 165.558 120.92
51.7759 104.911 104.804
25.2681 147.827 118.979
81.8722 134.791 117.072
42.9187 180.128 126.672
49.5798 157.906 170.792
72.4102 125.868 151.422
58.2452 107.614 132.883
29.9202 153.873 113.272
22.0961 127.143 103.003
48.5785 164.458 102.739
17.1274 126.081 183.926
56.8989 109.682 115.017
38.0723 109.002 116.312
50.3475 111.433 140.614
77.6557 136.252 123.791
68.5091 158.979 160.612
70.8079 165.828 148.807
51.5661 142.921 171.744
33.0199 178.002 144.32
31.5265 182.267 140.195
126.046 55.206 62.7238
96.9476 35.1789 110.727
65.9089 122.069 123.378
62.4712 115.859 131.605
56.3268 146.933 88.8394
71.8947 154.134 159.181
51.2695 104.122 123.574
122.453 12.6692 237.401
65.7177 125.762 117.968
76.276 126.473 106.805
46.2136 103.098 135.076
23.7909 160.11 153.692
71.1636 113.935 116.703
24.9374 178.522 146.348
76.6411 134.827 142.746
26.5046 139.501 125.716
43.8186 152.967 170.511
48.9639 148.815 176.131
29.4975 170.114 138.716
28.9987 109.326 46.5061
35.3608 97.9857 113.228
40.13 159.842 166.529
21.9453 97.6284 112.411
54.3815 160.797 95.4993
71.6488 133.89 118.175
49.8744 135.714 175.191
30.5266 174.606 153.535
42.1281 99.9613 125.505
67.655 126.347 104.208
66.4106 111.388 125.646
44.1773 156.944 99.2824
82.6448 128.738 114.516
55.2936 117.726 140.061
63.2529 103.411 117.347
63.0512 108.123 134.501
40.4584 168.28 126.981
64.6261 161.528 166.589
80.5795 132.738 129.199
62.179 120.17 150.823
28.4395 147.039 114.601
45.0866 117.951 159.882
60.6962 173.674 127.756
44.7026 108.387 110.525
43.8682 101.746 129.843
70.7467 147.647 162.126
73.3107 127.026 102.772
65.3911 112.588 139.13
63.9057 99.5884 125.771
90.6765 201.59 26.1143
38.6812 127.057 106.943
63.0701 129.086 160.939
36.5961 166.228 117.738
28.9511 144.269 123.091
35.637 187.08 148.125
67.7584 130.458 115.669
63.4414 119.679 105.805
31.4474 164.915 164.739
24.4024 173.498 148.42
48.9887 115.916 106.994
55.4814 119.019 101.602
52.2279 115.998 101.351
68.3424 129.48 124.635
107.984 208.453 173.035
55.0823 164.249 106.957
47.103 102.752 111.046
48.0297 115.311 95.6843
27.972 168.929 155.527
42.6887 92.5484 122.276
19.7132 77.8254 115.811
53.3638 178.001 165.492
26.5583 121.452 111.307
97.538 156.177 274.082
65.5075 109.671 115.528
39.3257 144.555 172.901
48.7032 118.686 156.15
63.3717 146.281 167.845
39.5819 170.216 170.693
26.3966 133.862 120.015
59.5761 110.996 106.16
75.5038 124.877 140.198
38.9271 122.494 156.333
47.0239 105.551 102.058
81.5427 129.978 120.682
75.0742 118.832 128.679
57.6313 152.231 90.5518
46.3424 160.205 111.146
58.5767 121.345 99.7645
70.5429 111.025 110.78
66.0718 130.629 155.025
51.3831 168.875 114.984
66.9654 112.02 120.653
64.4628 159.056 100.929
75.602 154.466 135.19
73.6016 126.065 130.264
66.1305 117.368 145.326
42.0449 126.01 102.43
75.3896 120.835 134.979
65.4665 120.373 128.662
62.9056 158.354 96.1297
54.165 105.125 128.086
63.4054 107.725 109.147
74.1616 114.524 133.393
48.7607 104.982 142.686
69.746 116.494 139.858
54.752 125.024 155.837
39.3386 120.782 105.684
31.6419 128.222 109.107
78.3383 127.807 133.323
72.8136 119.805 139.879
25.1674 163.78 147.785
43.3607 144.712 172.095
71.4267 124.787 119.193
44.8125 113.916 99.1162
71.2598 160.656 153.574
35.8048 157.245 171.202
40.2573 156.136 174.045
69.2595 117.612 133.511
93.0595 231.065 70.8383
61.2715 109.651 138.802
77.5327 129.765 137.83
56.6102 114.815 136.451
140.501 120.199 129.181
72.7797 131.72 148.678
77.9814 18.3763 202.548
64.6897 150.902 163.534
57.8401 115.593 111.245
55.805 107.703 108.734
70.5686 141.815 165.446
75.9986 134.962 134.914
57.2471 122.491 147.494
74.2187 129.061 144.501
34.8609 138.738 102.543
163.727 76.6226 85.7272
124.567 167.12 147.083
17.1935 117.02 146.245
110.176 58.0395 29.6077
24.3185 126.809 113.915
71.429 124.384 145.645
29.929 231.534 103.319
69.0691 121.68 115.226
42.9312 142.69 177.489
45.4085 151.925 175.762
23.3227 114.99 113.304
68.0141 122.651 152.575
50.2235 110.851 102.627
61.3155 119.779 142.692
18.9245 126.257 189.942
21.1469 122.408 118.044
31.7846 143.762 119.187
63.0506 116.345 121.716
35.36 173.116 125.552
65.4515 138.231 164.816
40.2415 115.132 105.396
29.1494 163.927 152.397
41.927 138.135 107.066
143.022 197.499 45.2134
39.0876 130.637 99.4316
59.8724 132.411 155.852
47.2232 177.999 121.549
61.8326 108.423 122.246
64.041 125.147 150.605
33.3036 103.655 116.314
25.3408 174.103 137.449
69.104 121.075 145.846
40.2714 107.076 128.855
33.5717 126.405 114.075
32.4276 124.296 107.465
