ply
format ascii 1.0
comment Created by Open3D
element vertex 1511
property double x
property double y
property double z
end_header
3.55354 105.487 133.817
4.96586 122.444 80.5094
11.2755 128.233 66.9943
11.1578 184.094 123.022
104.25 47.0683 159.099
22.2847 151.407 188.797
4.37115 130.934 75.909
30.5292 164.765 51.3789
112.489 49.3359 160.106
100.026 42.5474 149.581
14.5187 147.197 58.3585
3.83067 108.704 102.951
4.60263 110.696 143.226
71.7652 61.1386 184.375
13.91 170.307 70.1788
13.339 124.186 59.4771
3.11824 114.047 96.9707
55.2541 70.6365 121.2
51.9662 177.06 197.642
19.3391 223.287 140.47
51.8068 57.1516 155.531
21.6711 174.859 65.0683
59.9554 74.2004 186.02
6.1627 138.736 70.9891
77.5386 41.787 133.662
61.3674 55.8879 175.639
17.5393 198.736 151.548
17.5309 131.583 187.58
15.7947 191.185 159.132
92.9027 46.8972 172.964
6.46894 118.361 67.3056
48.7595 134.647 141.045
32.2114 94.3434 169.132
48.0942 135.963 123.187
28.9926 175.154 64.9326
70.0682 52.3298 174.828
2.55813 113.813 138.997
100.871 106.426 216.231
28.3448 186.287 70.8605
43.512 214.614 80.9545
31.4145 109.304 47.0515
5.8021 117.767 128.644
72.2314 47.7068 168.233
44.3444 140.299 136.473
44.0415 181.597 52.0842
21.6147 180.718 69.6845
46.7972 159.513 201.848
53.7571 186.104 53.2707
53.1192 154.023 206.264
17.6129 102.868 141.881
29.1236 224.254 107.011
48.2085 184.215 189.223
23.3525 117.303 51.3301
6.78669 143.462 61.4179
46.5908 206.03 143.589
44.4707 187.858 57.1396
29.1953 129.787 45.6174
10.8947 117.858 180.438
29.1939 144.979 193.679
46.4648 78.518 163.089
50.6448 60.7424 140.287
16.2364 154.454 185.055
20.6515 110.032 180.513
19.8743 123.388 53.2454
5.21209 153.923 70.1944
66.826 192.966 190.74
4.24336 133.139 174.897
57.453 168.961 164.368
76.0121 154.924 158.145
122.38 61.9477 180.362
2.99815 108.613 90.1787
34.671 172.094 53.1912
13.3603 138.654 59.2889
49.7318 170.134 201.291
2.70177 158.42 165.267
49.0713 67.8465 157.362
3.20471 133.251 105.936
40.2821 130.423 45.5158
25.2114 159.919 56.6635
3.34612 130.72 128.928
21.1444 117.285 183.944
15.5164 171.851 175.26
63.7798 50.5036 167.358
43.7506 66.7303 149.757
4.32145 126.871 120.248
31.8417 92.7074 97.1405
40.4428 194.62 62.943
22.661 120.433 60.1785
11.3182 151.83 65.2562
44.0842 171.565 46.5108
108.844 50.7232 126.754
34.8131 117.174 197.252
75.5655 55.2343 183.084
37.6911 108.885 42.6858
37.8589 179.589 55.1949
3.23623 137.544 114.977
12.209 129.735 177.028
23.9944 123.737 189.133
104.923 53.8724 118.687
55.0815 114.185 207.526
57.3976 163.653 206.052
46.938 148.229 204.256
50.2627 77.661 174.844
28.5001 78.9001 147.078
2.86581 159.409 125.557
18.8923 199.13 117.684
32.7589 122.799 41.781
70.7274 52.416 122.65
40.4093 75.9722 153.471
37.6833 110.082 196.774
82.4408 43.9303 126.547
95.4206 54.8296 184.784
52.7504 68.5956 132.63
27.9855 143.82 46.772
21.4796 167.137 185.861
76.6835 47.2828 122.969
3.44234 142.171 173.104
68.0352 57.4375 117.355
53.7355 127.739 135.969
22.2993 89.2349 147.937
28.2281 87.1126 144.518
21.4575 130.533 55.9172
3.11664 127.13 67.6611
44.9669 95.8344 110.227
10.2877 109.521 138.186
46.3137 93.1616 121.982
53.9954 209.731 68.181
28.7768 183.783 64.3538
57.6364 149.789 33.0093
109.351 80.44 203.187
38.9445 218.788 84.2877
83.191 99.3067 211.955
49.6986 112.443 38.894
54.2866 51.8727 161.073
52.8893 134.638 201.979
21.7098 109.775 55.1294
28.5997 150.389 49.3251
19.8343 199.97 103.482
71.4123 188.633 187.994
3.98199 161.483 157.885
8.87814 175.043 169.057
43.2013 207.69 71.0301
95.48 49.1996 123.63
25.4669 195.664 162.108
21.8307 140.411 49.7747
37.7415 177.738 186.724
69.6697 72.9166 63.0029
28.815 125.119 49.9473
19.2521 214.65 118.268
29.4983 211.009 88.519
20.3197 145.989 53.3099
62.9837 203.091 185.242
65.5932 167.241 208.151
44.4591 92.2947 46.456
106.651 50.7956 171.757
26.6719 213.559 104.716
26.4049 84.8265 153.189
47.3139 129.349 127.72
47.597 97.8267 196.254
3.15309 176.292 150.891
45.912 166.312 147.808
37.9678 97.6278 177.656
22.4346 131.402 48.8116
2.98633 143.796 88.3582
22.2593 224.343 148.567
7.87223 117.241 166.164
2.81636 120.368 73.7896
7.03436 160.902 82.2518
6.75716 146.94 69.3744
16.9511 123.347 184.305
13.5497 121.07 76.6017
30.5412 85.3765 161.55
35.2991 221.127 89.272
47.0059 109.805 197.527
9.09892 102.95 157.188
54.9925 79.2863 90.0904
71.3622 44.2174 137.238
58.5106 78.9611 58.7527
29.387 95.0973 150.65
17.7716 166.783 64.5959
52.6254 131.102 146.31
105.857 56.2434 183.051
72.1689 167.081 152.444
62.7238 200.73 61.8733
100.629 46.5725 133.177
3.92871 173.086 138.773
29.9675 177.21 184.702
37.5273 142 200.403
9.79764 161.991 69.3187
44.7838 136.049 204.352
21.6268 203.99 109.468
77.601 72.1346 196.631
35.0944 212.903 85.9689
4.46458 156.569 151.889
66.38 45.2849 160.198
62.7311 125.062 136.052
73.151 220.048 181.573
71.0579 171.708 130.306
14.4155 112.997 172.799
52.15 192.002 186.842
69.9503 155.513 150.332
31.9921 104.906 183.654
74.0861 133.686 213.89
31.5757 203.861 149.971
60.2443 48.3838 132.57
54.4019 191.458 58.9703
51.2533 173.866 44.8079
5.63077 185.425 134.454
30.824 201.612 138.971
2.82587 164.225 135.777
13.7717 129.038 55.8288
52.7451 148.318 93.0893
38.8885 85.6043 130.33
18.625 211.548 126.788
24.0103 166.037 57.8604
57.8345 56.213 167.038
44.6079 89.4889 191.685
29.8469 219.008 111.321
19.149 102.433 64.1169
49.5925 158.685 106.746
4.95689 143.773 134.844
43.9161 134.926 37.7573
38.6921 185.87 182.436
38.3318 203.298 75.8526
63.4942 150.824 151.167
38.2849 68.1328 146.506
19.7671 208.796 109.852
6.32864 166.506 85.2963
73.1388 109.461 30.1484
39.4667 141.183 127.388
45.0305 223.902 81.6446
36.9835 204.635 162.497
36.7137 99.0296 48.6387
54.0635 198.04 151.937
34.3891 190.723 66.9721
13.916 93.3456 112.372
30.7937 176.274 56.7833
6.71346 138.333 179.106
25.8386 211.522 96.6739
17.7966 183.044 76.9513
72.8447 103.976 197.477
48.065 165.149 159.574
68.282 159.122 145.167
47.9518 82.2793 54.3649
20.3834 93.4657 144.396
18.7341 211.866 143.9
2.90799 146.564 73.9731
8.72849 146.735 180.126
90.7711 7.99169 223.843
50.771 130.007 93.6666
64.1821 77.0308 196.144
3.98173 149.845 82.2855
37.0939 214.203 167.996
79.1657 87.3512 206.126
16.7744 154.442 57.5491
77.486 119.684 88.4152
33.3784 198.57 158.514
53.8098 191.514 122.488
5.05831 123.986 177.365
29.0588 197.133 74.9961
42.5255 99.9023 190.186
54.2341 52.3101 147.086
41.2015 86.5856 52.4603
22.4968 141.759 191.831
73.7306 126.441 215.612
25.1849 97.3147 59.6774
68.9587 219.319 71.5793
34.2555 193.226 72.4328
4.92357 146.69 163.303
71.6127 73.0338 184.753
85.1646 50.0828 120.227
2.9516 185.192 123.821
41.2449 153.038 42.8901
32.2158 103.124 48.7051
5.03644 136.253 140.541
47.9243 182.67 119.698
16.7319 94.1739 139.899
17.0367 174.318 77.5358
92.1768 41.3556 137.017
16.1169 201.116 144.054
56.0307 139.496 156.821
3.80625 162.853 116.867
51.3908 215.694 72.151
12.9677 193.808 144.557
61.2338 92.973 177.01
48.1794 58.9034 148.343
13.3323 137.443 184.901
86.1258 62.4171 192.659
61.6983 158.031 207.837
74.6969 72.364 114.881
13.8656 190.123 151.817
49.0086 160.005 145.075
52.9801 88.8246 173.017
3.03511 162.176 144.997
30.2689 88.1194 173.172
28.7167 96.5099 54.4726
7.6797 107.486 127.167
74.6492 115.785 214.923
14.9216 136.917 53.289
64.7152 93.2263 44.7763
6.08457 109.069 153.675
24.6919 94.3439 65.6381
44.5322 89.4134 115.043
77.4234 39.9811 145.207
15.1444 163.494 181.237
28.926 137.1 44.4278
56.2117 99.7506 203.129
37.04 208.869 80.3382
63.8363 46.6842 151.486
63.0458 222.33 70.8919
2.8963 137.928 148.998
71.4548 135.877 83.7707
81.9383 47.6751 174.341
18.4848 200.285 136.812
54.686 208.836 159.504
9.80705 183.05 113.75
35.928 108.343 190.303
62.8983 130.41 142.349
73.6159 198.872 61.2682
34.7076 200.982 82.4326
47.8162 130.88 134.413
41.4741 207.365 178.273
48.8804 120.412 119.137
73.8158 79.554 69.0631
12.6376 93.0247 96.7057
79.5651 114.135 194.248
45.4509 65.3499 144.167
23.8377 220.398 131.08
70.85 207.201 67.2767
30.57 219.496 101.465
57.1079 157.039 166.606
42.2994 144.997 37.5324
12.6351 94.6688 102.951
53.8512 177.013 121.339
83.9521 81.6871 205.005
29.2077 189.552 169.21
67.2163 121.636 133.506
45.5667 113.917 201.68
23.7964 153.333 51.7812
49.1491 217.753 177.555
57.2162 135.957 31.3672
37.9897 76.4659 135.052
32.2252 215.481 156.592
44.3934 136.747 128.379
31.2339 98.6877 179.683
52.5919 197.116 127.563
27.0713 90.4136 132.708
58.8453 55.565 127.18
45.6273 62.9167 137.686
3.17173 179.405 141.287
13.1189 157.453 67.6366
69.183 188.867 54.5683
58.0973 62.2428 172.555
65.5044 47.2354 132.763
40.6276 78.4658 88.8785
54.1838 15.7764 154.783
2.33226 150.764 146.46
70.5615 105.393 208.79
23.3206 92.5281 103.112
98.9645 34.5767 154.966
39.3441 99.9684 100.428
55.6124 58.0186 119.285
66.3345 196.099 182.232
54.3491 159.974 36.9082
48.1934 177.555 52.0488
50.392 197.334 184.792
34.8631 80.3283 90.5123
2.7502 99.3065 113.482
2.80821 137.643 92.9282
3.4086 173.581 132.007
16.4985 161.066 60.2198
85.2725 38.92 137.776
33.1292 150.816 42.1774
26.5097 216.566 154.171
72.3065 42.8749 156.31
6.54712 159.892 74.8147
26.2748 206.85 103.495
79.3019 184.24 186.005
41.412 142.544 107.44
49.5526 188.699 129.467
56.1541 145.812 206.217
7.98136 170.137 118.216
39.5808 89.3594 118.26
4.1496 152.123 172.898
69.5516 154.845 135.846
27.6757 193.804 92.0763
7.19666 131.49 62.8873
59.7689 123.122 210.802
52.4606 169.376 122.778
78.6179 161.483 124.946
10.2728 175.899 95.1769
62.4002 165.227 113.282
87.6198 57.4887 117.533
51.1433 87.3299 194.835
74.4308 176.58 47.6557
3.06979 157.595 133.719
49.865 137.692 149.967
17.8028 111.208 60.1771
30.4316 161.333 191.486
62.5626 61.2681 115.009
9.39289 138.919 63.6739
3.16153 169.383 121.08
61.5829 190.094 53.5923
23.9181 230.258 129.062
70.976 133.573 157.259
84.3469 107.246 187.995
20.21 224.499 131.136
93.9124 70.2622 198.754
5.64396 177.535 105.303
77.9545 105.372 213.658
17.1178 88.3381 108.188
62.4202 141.728 171.341
54.7722 108.71 33.273
66.7907 213.581 67.3473
74.6144 165.639 134.771
55.1523 128.105 207.69
90.9693 158.474 210.322
25.6658 104.682 55.0569
64.4495 72.6664 67.0232
13.6102 93.7406 152.698
62.4866 64.9092 181.419
13.4502 198.937 138.598
30.1607 191.085 119.907
23.0639 188.066 74.3968
63.9095 55.9088 124.27
29.7165 114.255 51.4857
2.78531 148.808 167.066
77.6875 141.388 178.57
48.0542 155.571 153.569
2.80523 128.986 137.06
56.2316 190.991 164.837
56.0662 53.7187 140.33
77.3438 45.4856 163.044
50.5905 173.822 156.294
55.0972 74.4329 115.539
24.1434 92.2987 75.326
48.6589 174.622 147.289
29.5738 108.48 187.785
20.8795 198.835 158.142
85.6538 180.913 187.946
83.1593 135.136 27.5708
35.0987 92.3562 52.1279
28.4004 206.877 159.791
82.933 216.851 68.8936
34.0889 92.5478 183.759
60.5615 136.813 161.684
139.39 32.7985 211.387
69.5249 167.195 38.3754
3.00786 140.107 77.1821
5.6152 114.297 80.628
46.4441 227.352 173.012
75.6672 78.1008 202.221
66.8728 42.6576 144.685
13.4785 194.139 122.395
34.6322 81.3363 166.321
165.394 28.7679 69.2861
31.2856 203.783 87.1962
38.9357 77.4338 143.656
50.5506 77.57 60.2743
34.7471 130.531 38.9886
41.237 226.104 85.877
6.0203 101.588 87.1608
69.0393 188.208 182.09
110.915 47.2895 149.861
60.1129 189.481 170.02
126.283 71.1572 188.083
68.155 140.973 142.899
126.75 15.0399 61.1343
6.78297 126.746 88.535
77.3429 64.8895 191.274
67.7613 102.685 34.1606
7.41963 106.258 81.9523
53.7258 143.93 161.733
58.4752 163.379 167.954
41.6646 157.031 140.849
119.415 54.9894 169.992
12.7275 97.9875 75.0264
35.7261 142.712 40.9571
81.4771 41.4625 155.328
91.5563 136.458 214.966
81.2239 41.0951 232.962
9.82249 186.755 145.467
41.7132 120.113 38.6616
47.7693 202.459 66.5762
33.8863 184.801 183.288
2.61936 132.851 163.561
27.8405 114.5 188.206
5.49829 113.856 160.086
76.5058 149.341 213.426
41.9625 137.459 119.523
62.5442 151.652 91.689
47.4982 140.086 143.952
29.1517 204.424 128.424
64.2302 132.997 155.958
54.1982 30.1745 150.448
82.5832 165.391 210.883
63.8998 89.4649 76.3209
63.2307 137.776 207.492
115.272 61.3076 183.778
2.60543 148.345 94.4084
87.9497 97.0399 40.683
25.146 204.823 133.277
38.4382 153.811 198.413
68.548 99.4076 184.894
12.9335 117.777 60.3153
49.9097 74.6565 167.752
2.51546 121.325 169.02
52.1734 202.843 181.575
70.5688 79.386 98.2731
42.8347 146.992 132.526
65.3398 117.57 212.939
29.5508 205.883 93.0065
32.2214 216.485 95.5356
56.4269 203.14 159.181
78.9267 207.654 67.2525
58.5822 50.4101 155.642
41.1675 198.199 130.737
51.935 55.2409 128.776
20.996 217.191 150.598
99.7226 43.2526 139.334
49.2792 137.411 31.8962
58.1841 174.579 43.2843
50.1751 61.6865 167.46
34.8074 75.4348 148.082
61.5295 211.31 178.585
62.3693 190.688 155.76
32.8023 199.473 132.578
55.3901 197.406 61.5288
13.3115 93.0032 123.258
15.8595 103.789 171.136
44.1713 223.25 177.785
7.57833 177.749 116.595
3.2213 157.065 96.9174
45.1924 151.141 112.196
41.1808 193.157 180.337
61.3904 91.382 203.874
49.5971 164.103 117.031
42.1439 189.534 125.322
6.22708 95.7641 107.593
46.5257 191.022 189.904
27.2944 171.04 56.4485
50.6509 129.923 34.2973
62.031 107.549 32.5611
2.06365 94.1869 188.39
27.169 196.668 85.4974
29.7837 220.975 162.791
2.21708 106.896 108.754
41.7803 171.861 196.51
55.518 203.905 148.934
17.4232 102.386 154.991
15.7738 91.7726 91.6252
52.2711 124.13 32.6763
20.9659 199.197 97.54
4.98642 99.9426 98.0286
73.7155 92.9398 206.187
20.656 86.1801 135.438
25.5646 206.518 142.215
49.2892 161.609 152.614
58.1766 198.428 168.297
57.8805 170.564 202.849
98.9867 83.9558 208.093
15.6867 111.46 180.979
9.60553 182.357 158.461
32.3379 223.683 94.9984
60.4809 144.337 148.272
24.9726 198.468 124.809
12.1038 93.9139 117.944
14.8244 177.694 101.679
56.8025 67.9657 177.682
37.7564 165.702 195.456
52.9462 196.962 134.639
28.2118 155.466 190.34
63.9537 134.286 166.92
60.6085 45.6577 143.58
107.817 113.785 224.474
63.7461 125.514 30.3803
62.0223 198.496 176.758
62.7564 131.066 206.306
52.9796 159.877 161.112
30.8989 49.5881 85.7212
147.732 22.0609 36.723
32.4278 117.374 119.269
48.7023 81.685 103.751
62.1364 185.621 229.454
27.3373 210.772 156.245
64.3922 160.759 170.96
7.35049 94.5089 125.741
65.5212 142.689 88.1524
27.4343 117.149 192.327
1.84006 127.939 82.976
8.9947 171.824 80.9291
60.2362 156.048 37.372
64.147 179.084 117.542
7.33502 162.933 96.2075
67.9895 69.9984 190.865
23.508 209.199 120.032
52.3769 158.924 112.787
83.4033 101.905 35.9449
18.9087 215.824 134.322
26.4131 110.583 126.869
28.8665 226.978 100.115
61.8115 169.592 130.561
123.436 19.9724 128.121
70.0334 44.7791 126.03
60.3189 92.9966 187.149
68.7976 140.124 173.92
24.114 199.05 134.585
72.2716 160.548 171.46
48.8562 55.8133 182.109
4.29198 189.493 128.334
16.8165 87.9903 102.08
40.3895 162.952 44.0247
85.8954 45.4247 164.551
74.0319 213.251 179.437
16.33 100.844 135.491
105.746 90.8223 210.623
71.378 158.565 209.518
79.4467 15.8449 108.98
36.0433 81.9316 142.89
43.5101 127.461 37.2095
82.0548 116.132 28.1326
80.4249 140.138 31.1605
40.041 48.9696 147.4
33.4465 133.626 198.471
2.36178 109.803 150.17
38.3109 131.146 118.674
75.8901 54.5549 118.704
114.582 67.8316 189.645
8.85211 113.688 174.884
93.4468 43.0765 158.819
126.318 91.3637 202.414
68.2173 130.149 140.921
63.9261 12.7048 257.088
38.1818 41.3943 156.478
57.9895 85.4986 197.083
64.8327 159.162 96.2299
51.9816 95.2678 43.616
59.3393 183.051 197.309
81.6064 175.759 203.735
78.76 54.975 114.357
24.5064 70.2857 138.949
28.1372 173.312 139.975
20.3481 230.125 136.798
64.4374 98.1514 38.9291
70.2989 77.9546 89.0632
87.7462 75.01 203.465
35.3095 95.8796 109.541
36.9342 85.7881 96.1715
112.935 54.2011 173.842
51.2104 83.2668 95.2176
30.1157 99.1502 121.262
73.425 80.7219 196.741
47.148 158.533 42.3747
88.7922 106.775 216.51
58.2021 97.1963 41.0514
37.6348 157.985 48.9723
74.2899 69.8329 67.3658
91.675 152.724 215.483
61.3356 165.874 125.863
48.4488 176.77 125.694
17.3101 91.5101 77.6177
74.4022 64.2695 114.661
57.0699 79.8231 173.647
26.0603 183.456 179.907
22.9053 187.434 109.02
91.9594 138.608 28.978
29.5402 116.286 45.3371
36.1856 181.773 60.9965
48.8804 117.199 35.7334
12.6553 97.3963 81.4185
73.7805 168.576 206.692
9.03684 99.7728 92.0269
60.5629 190.605 193.285
51.6262 103.471 203.659
10.7299 99.6654 150.171
11.3912 193.344 132.713
14.489 177.693 167.048
26.2685 194.849 79.0292
52.0964 70.0502 180.09
19.1836 192.233 121.21
90.375 172.938 45.1548
44.0049 125.124 199.195
57.8423 204.582 184.213
86.5731 192.497 197.09
14.8689 115.958 66.1555
14.0002 196.744 128.984
59.7529 175.212 160.527
80.452 148.798 158.854
85.2049 54.3323 184.224
20.2889 96.114 71.398
81.2743 69.6269 65.9932
24.8548 201.428 146.265
21.1116 206.46 149.013
24.9821 230.132 105.388
115.267 76.0599 197.882
23.0592 208.965 134.447
6.40638 155.796 120.635
65.4528 177.569 200.512
75.5405 214.453 70.9264
75.8775 22.511 114.01
86.9194 189.249 55.778
48.326 78.1449 90.7246
23.0084 3.57221 94.1874
27.5491 189.323 82.9394
21.5845 230.706 145.51
63.4702 161.627 34.1134
21.0449 88.8567 89.8817
68.6747 30.0001 139.351
22.7641 89.8391 125.869
58.2675 203.702 68.5464
25.2639 214.806 114.597
63.072 78.1613 51.7351
66.0914 93.4312 106.159
49.3516 77.0793 110.534
61.4679 182.825 51.2113
36.1299 201.061 146.892
59.1239 129.983 29.1325
103.384 64.4351 224.233
56.4333 79.4076 51.8421
18.238 90.7591 84.0415
66.9637 72.6937 112.313
46.9173 162.14 122.996
23.2285 190.622 165.573
67.1067 148.764 174.294
55.7081 180.529 48.7246
18.3615 97.6853 160.234
41.5616 130.07 201.221
8.78952 107.341 73.0263
77.7499 109.075 189.048
48.6175 75.8996 85.8126
74.9165 134.48 28.3851
3.41943 141.116 154.271
79.3611 91.3498 42.0205
43.6734 66.1015 156.759
53.1385 69.942 81.0639
2.45183 146.11 109.838
38.1888 122.655 121.415
48.156 211.86 66.7421
11.4799 184.996 100.904
65.802 133.59 28.1201
70.0362 194.133 57.6478
48.366 153.182 38.4695
45.125 86.1638 185.547
41.0571 73.9544 128.252
10.9191 126.146 168.89
13.4167 168.221 82.6612
57.0731 90.7406 43.9235
3.928 171.797 145.927
25.2489 90.9549 114.049
25.4749 224.846 115.338
12.1238 106.654 131.191
80.7562 96.468 38.2326
58.8886 140.357 218.294
56.5615 126.663 93.1271
2.22927 164.989 167.841
120.959 49.7646 154.653
68.2862 183.749 50.459
29.8191 229.473 157.589
17.8315 181.554 82.613
61.2012 167.289 118.602
81.9687 153.85 213.228
31.1881 72.308 96.3058
73.4512 67.9244 94.6101
73.2987 84.0701 44.1054
94.0376 183.137 179.412
43.8845 112.966 40.5141
59.7316 176.966 199.708
37.2522 117.303 42.9623
74.7744 220.631 67.7516
19.4302 93.4909 115.851
2.2339 140.257 104.951
87.2161 48.7245 75.7684
63.0674 168.165 39.5289
106.81 67.9954 193.65
44.8435 104.93 97.7778
83.3923 96.6844 89.9179
29.3193 83.881 136.606
87.8489 11.108 155.952
55.5822 93.9636 199.208
36.9143 86.9373 172.746
92.157 44.0771 125.783
60.5929 205.503 165.061
56.3411 158.079 96.7829
64.5477 30.7196 144.909
100.128 25.023 141.535
68.0425 152.327 31.6488
47.6235 162.979 128.823
43.2659 67.9264 134.214
24.4687 217.551 124.664
22.6271 94.8298 190.543
64.9321 207.983 63.6182
55.7249 167.085 38.9048
66.4042 139.326 29.9763
78.2834 15.0093 213.069
78.3735 110.088 111.582
9.59102 101.364 135.694
68.9886 171.766 43.8364
15.547 87.7414 132.662
48.108 164.944 40.7664
49.7884 63.1621 162.539
59.1468 82.3288 111.791
62.4811 121.743 92.5877
82.7885 179.394 166.054
73.6019 181.188 143.652
36.275 207.338 172.406
37.3667 200.452 69.2073
10.8853 108.173 169.5
93.7531 97.2767 214.109
51.1742 72.1409 70.8968
55.693 142.726 89.7449
25.9927 229.568 112.224
34.9113 195.168 124.232
40.0038 71.1703 138.079
3.94024 154.984 81.4417
67.0058 177.482 41.8386
3.80187 105.52 118.596
5.46129 168.994 100.076
73.1785 116.782 95.4559
10.9001 109.07 161.521
23.0233 184.11 115.266
3.01244 38.2832 193.799
66.9486 93.4614 204.324
76.5899 20.4274 227.127
108.611 21.3934 214.408
28.0863 219.532 143.49
51.5348 122.74 109.58
46.472 206.233 182.163
55.8202 115.873 112.522
81.5245 79.1602 78.7271
71.3124 97.7247 35.4834
31.0896 79.8439 155.446
34.701 197.164 117.604
90.7936 127.497 218.143
49.9975 146.147 33.6741
62.0564 138.065 147.205
82.2017 128.991 31.1983
3.19095 172.515 103.183
41.0139 80.0551 61.0823
131.855 41.6639 66.9702
49.6452 214.387 238.407
24.9858 225.65 156.066
50.2528 210.537 183.493
60.3556 225.727 182.346
109.266 29.2741 63.2774
44.3241 107.63 43.7295
66.9809 117.597 96.2797
92.4205 174.828 180.486
52.2471 36.98 139.777
69.0187 116.198 30.315
72.7233 162.475 37.1511
119.456 5.87324 63.728
8.01808 96.9174 113.255
63.6785 204.854 137.482
43.5036 34.8268 116.735
69.442 173.546 136.533
37.3946 229.368 161.448
26.1465 202.359 158.264
52.6238 190.571 152.583
48.9538 69.9918 126.401
75.7092 149.108 30.8467
20.9126 94.1501 94.3244
138.937 212.74 14.7195
100.079 54.757 179.954
78.1168 179.648 149.871
80.4254 24.7225 122.237
56.8931 223.58 71.1528
43.6659 137.18 105.949
32.7138 81.5418 138.581
73.6467 129.068 140.634
17.8493 182.656 95.4876
58.1897 114.438 220.085
69.7576 147.097 151.339
16.6537 184.386 159.802
70.6016 160.653 95.3471
66.9779 200.231 192.052
39.4953 199.753 179.213
114.015 92.8952 209.823
47.732 70.5997 187.811
47.1872 133.275 97.4483
68.2612 229.891 70.1376
60.4157 215.755 183.352
35.1207 125.004 115.293
22.6388 222.491 120.296
79.7802 128.618 140.267
44.0275 75.0977 68.0283
49.3846 75.6637 117.246
147.943 42.4695 27.4885
65.808 111.517 120.029
80.4037 187.804 192.765
147.841 56.8503 68.7552
38.3921 190.715 116.34
24.6861 203.532 95.8093
61.6091 57.889 201.325
45.6476 157.161 116.005
73.2149 171.016 158.207
57.6727 128.824 142.247
27.7558 84.5169 90.7777
2.6502 124.21 152.192
59.0641 102.578 37.0067
49.2679 165.048 140.707
81.9924 175.914 43.2484
42.9191 153.008 177.004
9.67874 104.418 145.072
82.6494 148.157 178.414
19.0856 193.18 105.012
32.5347 159.406 48.17
10.9538 95.4541 87.2318
44.24 198.022 182.752
27.8752 43.6607 153.725
41.1541 141.999 115.24
50.2976 151.856 161.836
89.5128 33.6902 111.781
59.233 67.9548 114.077
76.087 160.936 116.613
24.2145 87.3108 86.3113
92.868 182.764 198.582
69.1166 26.2042 129.008
40.9497 203.493 170.508
48.7913 78.2519 76.7605
46.2388 230.299 179.822
77.3732 107.164 179.081
24.6796 86.5845 81.4494
62.7732 108.904 208.447
93.8289 189.969 60.7578
51.4799 138.107 206.489
51.5096 90.3405 112.394
9.25412 101.686 100.979
19.8742 181.554 172.798
50.4777 83.9684 118.817
41.1868 229.448 169.877
12.9743 182.745 107.385
51.5273 90.2059 94.2113
71.2013 103.568 97.8206
62.9551 175.598 47.9071
116.3 8.30481 150.721
29.7848 198.647 167.626
133.402 213.668 5.88512
78.0693 191.384 56.4287
63.4998 132.435 86.8167
1.94653 139.24 130.576
28.6744 94.9231 103.934
64.4289 178.163 161.51
55.369 78.0889 105.694
57.9889 94.4406 111.727
74.1678 162.476 110.798
51.602 67.4115 188.718
54.3265 128.343 127.447
56.2239 209.111 177.199
1.84803 119.758 132.581
58.4254 142.792 32.3205
49.3106 93.9488 23.3976
45.8074 69.9902 172.893
42.7651 146.905 139.509
28.1931 204.982 116.892
34.5385 219.56 164.843
21.2307 187.107 85.0203
62.9039 189.978 139.79
70.9905 133.076 169.134
46.1114 75.6008 81.2267
7.29758 172.499 88.1673
65.645 119.15 125.223
85.0046 175.845 174.037
97.3114 15.3929 147.422
7.73748 156.995 175.138
41.0888 73.7807 161.082
66.0033 205.278 173.406
7.76128 173.867 159.552
69.1429 213.532 177.525
3.01293 147.163 139.826
85.7608 92.7775 212.563
100.999 150.233 39.5579
42.5952 115.212 134.461
59.809 120.771 31.4455
96.5632 133.809 34.8932
64.8008 85.4147 47.7102
29.5011 96.3138 108.31
14.089 108.251 67.2991
129.484 59.2438 165.889
74.8018 148.472 176.451
25.2534 87.7445 139.876
43.0725 152.426 130.054
1.93577 116.946 87.6013
87.3338 29.361 117.132
52.7988 38.1573 158.921
51.3268 85.2217 47.5647
48.0978 156.673 134.897
64.8934 64.5214 186.056
117.176 11.6533 100.863
74.8011 157.2 123.551
1.89576 120.458 104.362
72.6472 11.433 125.774
39.3778 79.9328 78.831
57.6823 89.664 192.893
41.4223 82.3179 170.101
49.0988 51.8184 172.918
84.8233 192.596 64.9181
59.1249 120.455 125.516
76.1152 132.178 171.169
53.6679 183.538 195.625
57.5008 143.243 167.564
98.4247 46.0318 162.075
35.1238 228.919 92.6297
9.26109 181.378 149.411
17.6568 180.858 164.8
39.4527 171.316 51.0073
65.7614 181.517 173.38
52.453 152.109 152.946
26.2416 131.905 193.576
73.2656 113.627 122.195
88.3315 118.965 191.253
126.554 49.3143 85.0871
66.0822 211.351 172.025
83.9754 72.6906 83.7332
65.3958 112.768 32.0653
75.6306 202.113 191.89
17.3079 204.369 122.574
32.6811 81.7587 84.8571
23.5438 230.645 120.956
119.928 102.848 211.064
44.3743 146.961 144.855
95.5177 9.11775 134.665
18.5747 191.62 86.5311
37.3259 186.714 64.7261
97.3231 51.1015 118.955
85.3676 118.425 183.339
83.6999 60.4069 112.146
1.79234 127.59 99.2721
40.2029 77.7801 83.854
77.4468 105.65 32.6074
81.9061 181.149 50.5073
32.2804 209.573 164.996
44.5988 189.624 62.8263
77.035 162.966 97.8179
25.6851 199.423 111.48
61.2691 109.823 113.857
53.6191 101.32 110.847
68.3561 91.7249 112.151
78.204 128.401 163.85
1.88315 171.387 158.699
45.7606 84.2112 72.6586
46.1242 128.576 120.5
75.1582 166.816 127.939
73.921 153.835 167.428
48.9333 99.4972 41.4649
74.4023 169.183 142.024
6.11292 169.355 93.9856
35.3701 72.3003 155.166
38.2446 223.963 166.04
4.02845 159.259 90.1884
14.3931 97.2213 130.663
35.7954 107.43 110.379
72.7243 95.6275 200.941
122.411 27.1595 91.1639
13.8937 188.965 97.3526
55.8008 150.654 167.591
30.8398 89.205 71.5411
94.6477 89.1447 46.2667
2.58 150.083 113.963
63.9352 92.5168 198.562
51.8323 103.903 38.8821
57.2076 72.5313 87.747
72.6615 193.039 134.947
22.1636 102.7 164.969
27.6558 92.282 119.097
12.6686 105.376 165.524
52.4606 55.1177 134.151
37.5681 53.7998 146.411
2.82624 121.65 159.363
100.069 68.456 197.318
33.2312 77.6557 80.1383
54.6978 184.077 126.961
69.5223 164.484 107.154
90.163 41.9537 150.892
93.3564 144.466 216.785
59.5567 107.553 108.874
25.5846 183.094 170.6
64.5019 109.239 99.9287
20.9213 192.439 95.6741
90.6465 132.216 33.7311
41.5906 101.089 43.9434
43.558 139.711 44.7511
58.1988 110.775 98.3243
61.1615 148.91 171.934
61.0593 230.791 74.8637
29.6153 164.399 246.785
55.212 214.66 183.625
2.57027 157.901 104.43
1.87481 101.902 124.818
5.14978 161.628 106.093
45.2015 92.0347 185.343
7.26967 179.193 99.7212
18.2415 91.0408 123.618
56.547 149.091 150.311
39.8885 147.107 121.95
67.2167 99.5125 191.404
1.83055 122.965 143.88
131.813 125.997 210.034
100.548 23.7733 128.803
100.517 150.503 214.553
53.8526 114.654 99.9175
79.9846 165.286 120.198
38.9878 133.941 107.344
76.4569 69.9059 77.7349
66.9094 66.3206 113.54
48.1562 163.394 136.083
48.7357 144.631 149.442
58.8333 113.512 121.447
66.2004 148.92 204.861
139.299 51.7383 1.72637
55.9644 166.504 133.757
53.6431 100.208 93.0714
47.2814 127.67 110.603
72.8579 115.371 129.196
157.561 118.378 235.122
82.4329 145.164 30.699
56.0409 179.4 148.967
77.0946 62.4621 108.204
36.9247 218.192 172.192
26.3607 192.763 111.399
64.2316 164.785 105.745
156.186 223.402 32.7213
84.76 182.81 181.376
137.454 66.9416 175.026
45.2287 99.525 96.7718
45.8839 156.589 127.849
68.1449 188.929 198.695
85.5425 225.028 72.0768
72.2759 129.517 161.328
86.6155 117.796 177.373
91.2633 195.5 65.469
107.933 4.61327 220.229
50.3681 221.275 76.8481
13.4166 179.081 88.3729
73.91 173.559 148.3
24.0857 213.68 136.066
75.3195 183.462 53.127
70.7005 187.875 152.562
81.3974 186.365 53.0385
102.476 47.3508 82.3175
82.2197 160.323 36.0075
79.1337 184.753 201.236
71.3369 165.93 166.153
49.2256 84.0084 190.378
67.4516 97.4468 176.615
37.9056 80.4189 161.838
2.96071 179.554 119.581
92.8202 177.374 49.7316
65.079 218.695 180.628
80.4737 31.901 133.283
24.6504 85.7969 100.131
59.447 164.182 104.426
22.2115 189.31 91.9268
22.9665 93.875 128.586
124.83 40.2702 72.7435
45.7088 101.25 202.493
3.27755 176.671 126.681
85.9603 124.543 85.5477
58.9284 191.979 134.25
95.0496 130.469 205.767
72.8345 142.886 29.267
103.721 167.612 234.646
100.135 185.94 195.503
54.9023 229.746 182.722
72.782 77.0666 51.3559
46.4209 81.9162 197.96
2.79063 192.003 88.7877
55.7043 226.64 75.5438
49.0795 229.783 78.49
91.0151 162.658 37.9828
92.3797 153.608 36.5102
34.9997 185.566 116.271
80.9875 37.3834 118.659
43.3564 148.22 118.588
101.479 192.826 189.951
42.9405 50.5967 165.464
74.0876 159.19 203.684
67.851 84.51 115.002
21.0621 187.438 119.7
45.3808 73.6237 125.127
39.3325 107.077 126.068
60.8766 231.123 183.018
78.5241 135.629 137.469
5.31759 156.514 87.968
69.4623 174.583 164.406
21.5911 192.548 100.583
86.2516 170.17 200.113
75.5148 24.7301 139.856
53.1517 120.265 126.109
49.447 195.475 65.9609
63.8147 189.323 146.128
3.18096 75.1167 123.079
45.7576 152.262 242.146
96.225 55.1461 88.1519
85.3927 139.405 216.058
40.7717 105.624 103.104
55.2849 119.076 104.093
56.0228 9.84336 252.21
68.6492 110.593 94.6629
60.3731 182.453 153.115
137.618 38.2261 62.6625
30.3807 85.4651 94.6713
47.0766 127.005 104.087
59.9015 54.9302 75.4752
44.6336 114.691 109.789
42.8362 90.6553 97.4421
32.3011 125.034 197.942
57.2455 71.3019 63.9905
31.674 96.3068 112.643
57.1167 137.135 146.905
92.8534 141.132 36.9428
66.0632 138.795 152.585
88.365 38.2836 146.228
99.3246 53.2169 41.5887
78.5229 122.153 30.2867
45.6576 152.787 123.266
44.5344 80.0346 94.0406
83.3358 156.798 166.58
83.4752 169.973 42.7383
82.6899 200.348 63.8529
85.8104 204.512 70.1963
65.5731 147.359 31.5316
16.9924 75.3039 85.0386
76.9531 171.543 41.9567
82.3139 130.821 216.231
52.2458 78.3623 187.775
52.4215 42.1063 136.186
77.8632 196.584 67.8058
50.0368 231.186 86.4436
103.962 73.4381 39.6584
58.0683 207.085 142.988
78.5815 104.485 94.59
83.853 179.956 213.092
3.30143 153.493 117.535
12.0976 176.558 113.2
103.467 181.447 199.336
93.1057 174.318 200.664
84.1509 152.314 174.557
35.7831 89.8341 126.766
1.74557 125.819 115.026
80.2697 44.9288 99.3021
76.8273 36.7346 115.375
79.5553 74.9383 90.0111
59.849 202.902 145.263
124.62 26.6342 141.431
93.8719 136.282 209.232
86.5098 116.213 89.9614
92.8267 28.3529 94.3214
37.9804 81.1821 70.4237
32.6299 83.5018 130.413
52.8765 93.7864 179.736
54.9872 148.652 156.422
58.9123 73.4131 110.845
45.8017 47.8857 85.3685
81.9891 125.543 136.562
49.5227 152.148 143.128
11.8788 103.106 140.656
82.7947 51.4025 34.7299
50.8919 173.375 140.329
85.2199 142.288 179.396
42.24 122.95 110.873
13.7916 111.568 21.4701
65.1155 155.207 171.692
2.72123 150.833 100.431
68.7297 163.804 127.021
21.8793 97.7927 172.451
77.5507 166.305 38.2028
51.9982 133.34 214.779
4.78969 141.485 159.78
93.2909 105.498 94.9603
36.6504 77.8033 75.3183
76.0361 154.442 207.048
115.36 55.1002 122.953
26.9391 99.2578 131.91
87.3416 181.436 199.549
96.6937 135.408 15.8421
82.3749 159.502 91.8726
111.933 106.898 213.208
94.6303 106.385 36.2153
70.9532 126.197 27.7308
65.7718 164.496 119.705
96.06 170.274 50.6552
89.7154 111.845 173.43
62.0021 148.391 218.67
75.6173 57.3572 78.8166
77.7535 153.654 31.4931
52.9719 175.22 114.783
93.7619 164.073 207.011
90.0096 46.341 100.226
58.5694 124.779 132.844
73.8537 186.784 200.517
76.6304 52.3869 101.588
44.0427 177.392 193.263
65.2063 222.779 183.602
63.2315 171.653 135.743
70.1746 145.324 210.396
88.014 193.609 209.357
58.7358 115.351 33.3143
35.9214 153.907 175.989
65.1176 169.744 166.187
76.657 68.3194 101.648
13.2236 179.101 83.0334
40.3998 38.6871 140.256
69.3365 44.8124 114.187
87.8621 181.885 53.3568
79.2521 211.997 179.83
133.417 197.897 12.5199
105.935 23.0543 218.163
88.0424 109.647 33.554
90.9388 145.3 32.1977
166.933 146.535 217.828
78.3209 53.9923 93.6522
72.9074 183.467 178.915
7.08038 94.4907 12.09
52.3486 166.874 129.719
86.0421 71.0315 72.4689
97.2145 59.4833 197.036
67.6584 182.614 164.983
90.3841 185.393 59.2345
84.5479 62.4634 209.056
52.1397 34.0726 110.89
71.3633 93.0585 39.7937
77.4921 76.9094 83.8295
101.114 145.09 37.6101
118.328 185.266 190.55
65.8278 197.525 59.6843
100.098 82.5132 56.2367
97.2526 162.859 40.9086
94.4222 168.722 174.121
72.6994 33.88 140.129
57.8603 74.8289 68.21
85.8564 121.7 29.7637
29.5906 85.0299 66.1059
91.8781 81.8673 51.8111
56.9205 34.3742 162.611
39.7474 231.326 88.1915
45.2448 151.396 150.027
87.2804 155.072 171.061
62.0166 226.674 59.998
55.575 77.7848 72.6651
63.2635 95.5192 110.213
85.91 59.3186 98.241
77.014 67.6047 87.0388
47.0683 204.429 152.942
121.143 81.0203 235.669
76.2159 127.279 36.1187
56.3448 231.347 80.6433
62.8165 221.974 238.589
61.3966 144.244 207.992
70.1701 157.803 34.8294
33.8673 98.0363 102.804
44.84 68.6626 100.163
77.9772 130.74 156.088
51.9039 225.545 234.214
22.7992 226.008 185.995
57.0639 193.365 152.374
48.3866 77.3506 201.568
86.0023 85.4759 45.2182
51.4001 126.284 247.387
132.069 23.8032 82.063
22.5409 208.58 227.693
79.6486 182.681 157.834
91.8015 167.971 42.2208
63.2438 173.646 111.327
67.6466 98.6284 217.589
94.7025 188.968 194.947
49.7299 207.281 71.5856
84.8502 49.6913 90.6392
109.587 25.9662 60.0037
70.4868 54.6392 80.0156
77.7228 125.098 157.736
51.8132 74.0783 182.236
55.5834 166.509 111.732
83.74 169.051 154.943
100.972 19.4881 82.0054
51.289 202.695 149.058
72.6724 119.888 28.7942
67.4092 75.6991 54.5893
23.7682 101.766 177.764
40.5932 72.9238 186.494
84.4582 147.272 212.62
75.4296 179.289 168.932
85.6688 70.8102 112.206
58.6893 23.6074 274.67
98.3257 180.631 56.744
85.3393 47.4012 105.029
106.8 45.2054 80.7828
103.883 134.001 201.851
104.946 148.433 45.3687
74.3942 211.63 153.546
66.1265 102.449 217.396
78.3516 193.456 197.001
98.8441 190.435 181.831
80.5884 132.75 176.208
83.3511 155.718 33.3444
64.8276 80.121 70.8105
48.6487 113.343 102.423
73.8359 43.9806 101.59
79.8777 56.801 57.7855
94.5748 191.142 189.906
49.5335 107.668 99.4494
91.6258 173.049 166.131
109.59 13.6644 216
58.5893 196.277 147.214
67.5109 90.455 191.464
105.338 61.0531 105.769
72.9149 227.919 66.5172
38.2407 30.7406 260.528
80.1521 49.9536 88.5032
100.162 104.998 188.494
76.9116 163.212 161.138
61.7081 76.3124 97.1806
127.319 100.615 206.927
63.8235 81.4329 99.2222
64.693 103.1 92.8448
33.3519 86.6894 58.0633
101.289 136.425 181.271
115.897 49.884 140.528
100.477 188.894 213.392
93.0561 57.6204 116.557
92.4078 187.834 96.9034
89.9169 65.7673 114.725
73.2712 75.5749 111.145
65.0629 154.989 206.482
43.9578 137.425 170.341
107.293 12.5961 223.343
122.375 80.1208 196.809
86.8497 31.6594 124.679
93.6548 174.926 100.291
70.0846 162.566 122.345
29.4336 186.932 115.46
67.9875 180.37 140.788
73.1172 88.3698 109.478
80.1384 114.1 123.935
25.0774 89.541 166.624
54.895 159.475 101.128
68.2202 111.627 108.595
74.1305 175.233 166.362
51.4739 193.838 159.84
82.5904 77.6336 121.39
30.0593 3.52894 3.39058
85.8225 214.139 175.369
128.305 13.0594 75.1683
93.7417 102.803 40.0718
68.9514 1.47431 197.991
68.0936 226.885 184.222
52.9217 194.357 146.94
83.6592 164.683 109.49
42.5398 125.059 99.7998
76.7264 108.269 98.1906
49.8663 221.641 53.3943
29.3428 231.108 120.956
49.1837 56.8219 82.6968
69.9978 85.2088 104.21
100.977 102.927 51.1493
144.128 178.696 6.07503
43.0731 203.962 157.122
99.8275 155.303 41.5058
58.5933 186.553 151.232
78.4924 188.826 140.7
147.666 44.5335 86.4435
98.543 17.4678 224.857
79.6595 110.726 44.9387
124.176 168.822 199.217
17.0667 177.744 92.7503
84.91 32.8954 138.051
99.9004 144.169 213.348
107.342 16.8093 125.59
58.5225 180.522 114.478
50.5291 90.1089 190.857
81.0432 110.471 117.684
72.8475 89.3767 99.0474
99.6084 126.624 180.192
111.439 146.672 211.198
140.093 94.9946 193.903
47.7842 149.573 133.083
78.7503 140.642 214.406
22.2167 1.0831 258.342
75.0926 150.092 88.1615
91.5739 157.178 38.773
92.0779 47.3387 107.182
76.129 176.492 204.215
86.4896 141.577 127.6
30.8403 64.5416 171.29
103.283 160.412 47.0134
94.1495 160.61 166.766
95.8783 54.4688 44.0832
74.9713 123.574 137.086
92.7124 148.932 35.239
89.9423 135.55 149.068
87.9288 161.557 165.276
82.007 136.367 154.789
59.3709 45.434 75.4208
46.8997 91.0874 180.264
106.858 186.738 191.936
125.371 16.1336 77.5326
107.1 139.5 197.895
51.0314 151.983 148.001
110.334 170.025 237.938
98.6928 134.124 216.133
81.8631 131.833 81.9245
70.189 98.2561 90.3374
44.2467 207.27 151.339
69.7893 114.85 114.817
55.65 94.5758 184.803
86.4872 55.4247 86.7763
97.4784 125.75 217.525
91.0173 63.9758 109.007
93.9065 135.697 134.188
78.4828 28.7671 121.844
84.3608 190.279 214.611
130.055 84.9619 196.73
