ply
format ascii 1.0
comment Created by Open3D
element vertex 776
property double x
property double y
property double z
end_header
69.7789 102.862 224.072
19.3452 164.662 79.9632
65.997 20.6635 220.722
8.35106 48.6676 270.394
46.6557 203.75 55.5179
23.1625 144.61 173.493
6.70383 156.165 100.71
16.044 177.86 144.156
19.558 138.777 180.34
50.7918 183.703 246.213
40.3452 177.91 53.9568
12.133 210.413 227.631
24.4254 41.1205 260.891
3.80293 123.849 71.5633
7.39251 10.7146 102.399
10.6817 130.791 68.4378
11.5866 119.896 108.272
11.1402 193.104 236.792
44.2248 83.9827 247.605
60.5613 90.6316 252.507
5.81085 32.251 155.534
34.6002 215.289 6.03254
20.5589 5.95366 87.2348
4.93436 144.148 102.976
60.744 5.99438 220.461
15.9464 22.432 98.2531
14.3566 127.838 197.881
50.0748 20.65 224.765
64.381 97.2472 245.49
35.8661 222.045 131.281
15.1121 180.758 242.665
30.96 41.4451 241.077
35.3471 126.449 146.451
10.5453 136.936 74.8421
26.7623 37.6651 269.252
27.0385 185.493 3.71545
18.7404 120.492 99.6964
9.40252 166.92 141.129
52.8416 106.286 268.493
18.7627 106.328 125.734
61.0715 103.098 263.025
55.7968 12.1554 199.279
23.7558 170.971 220.619
19.2559 99.7336 141.279
25.9663 179.305 44.926
64.696 104.005 214.725
31.8244 170.287 200.422
9.85359 106.429 150.577
22.9143 109.65 65.7735
14.7922 193.084 13.2421
18.5045 175.811 75.1038
33.553 225.41 107.649
33.3797 13.9652 79.0523
19.2714 154.494 173.408
37.1478 202.669 15.7207
44.4112 197.683 74.311
25.9054 217.156 8.92691
6.45684 105.623 103.188
30.6367 97.7368 258.132
36.0651 127.019 188.065
11.7223 175.594 112.746
52.7123 88.0177 245.293
35.5808 173.429 66.1689
30.823 2.7548 198.126
28.1483 148.239 68.1457
30.8251 125.904 125.431
46.0727 177.802 44.3385
17.3364 22.4136 7.75006
32.9638 140.713 61.3242
13.6969 155.638 69.4102
34.0994 148.123 88.6894
8.94874 120.342 137.495
7.13756 196.607 226.645
22.344 34.6879 241.312
59.9405 47.3371 223.769
7.71491 196.002 216.771
18.5454 116.893 85.9482
47.046 3.64542 177.482
16.5777 20.5003 146.274
25.5066 159.143 106.106
37.179 129.036 154.876
79.8134 68.8208 62.7409
14.4093 7.74187 92.4965
37.3309 188.805 216.236
14.845 174.238 174.619
35.0486 150.88 140.009
8.99653 128.765 134.046
44.9319 202.614 63.978
20.3646 186.732 27.4931
5.65736 93.6315 130.759
6.35244 17.7797 96.7938
21.4309 216.456 220.996
41.3876 101.623 250.821
59.9493 33.6687 210.808
23.296 138.458 153.784
16.6407 120.636 145.723
28.4016 85.9295 60.9253
32.9701 215.827 204.424
73.7762 223.134 162.318
60.5227 96.2812 234.854
30.5577 133.136 155.625
28.6906 137.295 171.531
68.5797 106.738 196.085
60.0442 223.086 162.675
11.9934 152.118 123.877
54.1886 32.0361 219.307
34.5972 150.156 104.205
88.1675 72.5764 49.722
40.5033 66.9806 234.234
10.663 182.736 212.008
42.6283 226.958 58.5392
24.7864 160.018 143.488
66.8254 98.2112 202.481
10.8456 35.9409 140.083
6.69667 25.0644 89.3845
33.8725 197.191 200.649
27.4529 207.267 202.235
38.4146 208.457 207.304
6.80662 34.5131 104.677
14.7479 34.2081 110.275
13.3736 161.405 155.043
68.4804 106.621 206.546
59.5748 34.8027 270.917
32.3179 88.4997 123.288
10.8749 169.991 91.976
13.6437 38.3995 98.7715
27.1311 148.638 165.248
27.1065 151.829 58.6334
24.5886 182.42 261.462
61.1267 7.17084 176.152
5.53448 21.0095 116.93
22.5369 184.655 114.402
48.7851 137.356 53.8014
19.8505 164.503 111.14
21.2666 115.384 49.9074
8.79407 22.4335 102.628
33.7295 3.43518 181.006
38.0698 32.1399 74.4188
14.4518 115.697 116.805
25.0242 107.814 150.6
7.3531 187.671 220.988
56.582 14.8176 221.599
19.3043 158.367 185.241
35.5644 213.712 256.539
11.0385 18.9556 84.4145
29.2236 220.424 217.257
41.2 120.275 45.8033
42.2415 226.251 34.5692
54.6618 180.188 266.999
16.8744 162.6 100.875
28.8778 136.233 162.719
48.7339 48.6548 209.221
13.842 163.342 174.243
19.452 130.572 64.8375
14.7133 103.729 74.0557
33.7372 227.519 4.62134
5.57237 124.658 79.5085
55.9462 3.66771 190.576
9.28945 169.338 103.027
34.8722 216.345 108.671
37.0996 60.3201 215.857
22.0875 159.62 118.151
44.518 76.3432 224.828
33.228 4.33477 81.7834
34.0585 192.466 249.955
11.1314 99.4861 85.8779
7.49592 179.942 121.269
8.78868 211.206 30.2238
91.0817 82.1971 36.5156
95.4668 179.976 267.474
68.2886 202.592 58.9702
43.6203 188.675 47.949
23.3577 201.093 199.702
83.8344 84.1343 50.8255
8.58376 203.867 242.017
22.2492 137.67 145.013
28.5935 224.218 114.68
60.911 107.593 234.115
25.7845 198.395 232.515
19.576 155.335 97.7338
47.4589 123.745 132.565
38.9218 105.773 66.2055
42.1345 209.87 101.14
37.4433 94.1711 131.605
34.5347 216.359 100.18
29.5011 98.026 101.266
24.4828 224.83 90.0651
5.33503 161.842 92.5232
65.3849 192.403 76.9152
4.92459 109.266 85.3012
35.9135 228.776 19.557
48.8668 81.3938 236.002
53.0174 170.15 41.5336
12.7854 30.3676 146.322
32.0338 219.278 246.222
25.3952 223.904 19.0216
25.9748 12.4808 82.4788
61.0619 95.5738 269.572
31.1308 182.092 22.0689
9.06947 120.842 89.1198
51.239 217.938 117.644
24.3006 182.505 248.771
16.8319 27.3431 158.112
18.7513 15.2644 86.4195
34.6461 107.917 111.587
26.8636 111.75 131.252
61.8362 172.76 35.3156
95.6323 74.0402 55.4574
44.8287 201.993 259.694
42.7466 128.82 50.5471
18.8391 137.596 138.886
54.6588 9.81531 178.814
38.2298 197.518 62.847
10.7064 143.433 98.6131
18.5243 165.36 149.121
39.9694 183.719 67.2211
55.3797 202.461 53.5748
29.2434 90.6286 73.5432
17.4077 203.074 204.889
39.9166 188.539 59.3268
41.9222 148.875 134.748
43.9376 198.967 251.067
32.5721 173.666 57.1141
66.8644 96.8704 230.383
28.7394 166.364 185.621
80.7337 92.1782 222.033
44.5755 200.852 213.553
57.305 48.4199 211.875
49.1304 92.8284 255.626
13.719 45.5279 161.141
71.2877 2.98471 46.5668
4.64003 25.8563 239.454
38.7416 131.815 164.907
49.6784 221.439 258.008
10.915 3.65228 104.01
49.2013 196.282 49.0265
33.1055 43.8168 255.718
32.5075 104.734 74.9471
38.1636 73.3466 240.014
48.0147 217.922 217.007
17.1303 109.502 120.57
14.8186 128.046 143.676
7.69259 112.922 124.374
16.8048 165.377 194.883
54.0017 192.314 213.669
40.0992 93.3632 245.401
19.4706 149.047 189.56
11.106 204.903 233.512
5.32727 140.906 79.295
29.9183 208.92 264.288
52.3445 2.4317 199.07
20.417 150.676 160.087
21.539 172.084 199.213
35.5511 117.261 272.252
39.0495 176.52 109.967
16.8035 169.114 185.203
13.7649 128.08 126.429
10.2059 196.916 207.89
37.7635 38.6137 272.383
13.5683 127.362 118.41
12.0992 191.878 249.003
32.3851 47.1948 269.278
38.1818 4.90868 209.71
7.33628 128.346 252.888
64.6086 157.417 225.629
44.8114 213.552 55.0872
4.65221 145.057 141.405
45.9623 69.8559 255.744
53.8096 39.8661 218.053
33.4181 186.242 204.877
27.9735 95.4945 120.565
39.7859 149.854 64.1542
45.8182 8.74902 226.259
18.4809 175.774 107.734
38.8983 43.1357 241.925
31.7536 154.172 131.125
32.2694 114.445 51.7403
30.8769 121.806 44.9003
17.9851 104.274 152.62
75.3356 68.9574 52.8647
50.9785 46.0846 262.262
43.1492 46.4677 255.903
56.387 98.6186 208.319
39.7173 157.83 130.86
6.39413 123.012 65.0812
22.6178 147.902 79.2936
75.0329 95.5217 227.986
62.3489 200.342 71.9953
12.2948 181.505 136.368
50.298 74.7706 212.573
66.2901 227.969 160.753
28.7934 155.291 215.767
6.4482 104.772 74.9175
60.5024 68.8935 258.276
46.5535 135.66 61.0682
15.9465 39.4132 134.24
42.5673 202.146 40.8541
23.5233 205.991 2.73086
4.70586 183.357 134.497
49.2491 194.528 80.9853
56.954 134.892 66.5233
43.3518 100.88 116.724
34.6128 151.54 203.358
61.7053 220.151 116.995
47.6823 112.279 78.5923
83.989 14.4924 213.671
44.0984 217.092 33.9211
40.7505 215.372 15.8689
8.45852 124.301 98.6196
21.2434 171.318 212.7
47.5185 192.354 89.9227
22.7539 162.923 93.0268
17.1018 168.722 135.45
14.5195 112.662 145.437
38.2318 151.644 124.784
36.0112 94.3952 71.1542
18.4274 212.094 96.112
14.507 148.826 203.324
15.2022 228.113 97.3394
6.07231 112.91 70.0689
43.658 37.9783 216.916
59.2578 222.306 6.76838
9.75439 141.334 89.863
28.5792 161.699 22.6554
8.18823 174.533 140.344
52.6461 25.5993 260.333
7.64468 130.33 85.3323
59.1468 197.352 49.4427
17.4608 36.9649 159.746
45.0681 225.665 75.3567
63.5157 108.642 244.009
25.4474 143.942 160.274
33.98 172.311 129.582
19.5319 144.453 207.578
56.6861 135.412 83.8772
50.3812 210.953 130.737
57.0626 89.0069 272.832
41.9875 188.826 80.7443
55.0218 214.451 265.178
48.0002 57.029 224.089
28.2976 148.471 150.048
23.9862 178.509 35.2468
14.186 10.9755 98.5113
26.7531 148.898 107.126
57.5572 73.8279 242.414
31.4738 162.879 57.7763
12.0815 44.6934 124.541
58.8757 213.524 152.508
51.1085 213.34 109.834
36.5244 190.199 72.8457
8.94001 127.089 245.716
7.01174 113.319 96.8955
61.676 110.524 222.088
36.8698 199.887 242.893
37.9898 190.884 232.208
4.25902 142.097 203.795
49.6333 122.133 107.794
55.8847 24.5445 268.026
33.8169 128.43 64.8037
55.038 142.9 60.1975
18.2076 110.456 82.0434
24.3231 107.66 50.1518
7.5909 223.928 74.8336
50.1977 209.108 216.772
33.5684 177.45 189.49
25.4783 39.9171 132.271
50.8737 133.257 149.084
66.6322 118.083 225.299
17.6486 54.5729 256.814
30.0107 185.018 126.957
50.3905 226.273 111.687
25.6939 157.228 165.385
15.6814 91.4973 144.977
18.3757 177.206 185.911
51.57 115.49 93.6272
50.8736 40.009 254.169
25.8357 114.982 147.323
26.9284 209.569 239.582
14.9086 136.193 220.516
63.7785 210.388 47.6323
27.1716 54.1903 217.015
17.9327 84.8673 141.432
40.443 182.533 249.265
42.3733 222.177 9.01482
49.2207 31.438 232.346
38.65 224.899 240.262
20.7506 130.48 148.749
19.4507 194.482 254.942
4.93251 155.265 141.185
55.614 193.712 94.2382
22.196 95.165 150.94
45.7653 221.243 236.971
33.3947 112.228 140.796
28.563 100.357 135.97
31.9982 188.807 226.593
40.3631 156.941 194.376
54.4278 212.176 63.806
3.45317 123.373 125.912
35.8866 205.508 253.023
31.1351 149.754 82.0906
61.8418 193.799 58.6861
15.4026 36.7348 151.026
41.8673 84.0062 209.959
19.8342 218.512 82.0762
21.8501 158.91 154.603
28.4077 104.364 121.377
96.9083 88.7812 48.1852
65.5165 142.568 49.9935
26.5793 108.848 263.289
46.2705 187.75 220.924
22.2604 164.181 206.232
38.5724 72.1629 208.409
54.6437 214.925 235.069
32.4816 140.295 184.464
7.08924 167.381 31.008
41.1533 182.998 259.624
31.1019 160.005 180.716
10.831 207.973 221.088
24.0375 151.681 118.641
21.3623 230.006 19.209
29.8097 177.156 119.33
17.1182 49.0396 235.793
35.1374 140.615 71.1713
58.7035 148.265 144.522
45.8866 131.804 95.5664
4.07115 175.019 49.3401
11.4831 205.221 213.034
14.9526 148.383 78.1181
27.6972 91.4197 52.5364
17.9429 161.447 140.166
56.0484 15.9731 212.391
34.6253 106.415 146.989
23.3931 30.3356 110.466
16.6292 156.071 153.485
2.44182 14.2414 108.144
6.53005 198.634 24.9146
36.8077 224.745 116.595
7.0488 165.532 131.943
37.3169 220.927 210.44
24.2899 124.143 150.579
43.027 28.6108 76.1087
7.34744 24.5888 110.882
43.0683 167.769 201.855
24.8139 154.615 135.636
74.96 152.162 226.048
49.0649 109.512 160.519
26.0675 169.582 113.102
59.3465 41.3375 232.726
25.1212 198.612 258.295
36.9713 140.193 114.032
38.0323 196.299 48.1817
15.6671 181.876 22.5734
51.8549 31.7021 239.613
60.1951 146.893 88.0171
19.152 210.315 212.134
57.1911 206.087 11.7577
45.7786 43.1637 267.509
23.3516 99.2012 51.4301
78.6017 230.151 155.053
31.3928 195.024 267.132
38.0205 180.227 79.5065
52.9002 132.017 88.9283
36.6018 2.11804 192.982
51.62 196.49 202.662
40.0917 126.915 110.9
90.6078 78.5052 62.447
47.5082 184.767 64.5679
46.2564 216.141 95.0352
38.5815 58.116 229.959
80.2905 9.65437 181.398
72.3572 215.07 150.188
4.41911 115.982 85.0677
37.3307 102.729 135.88
51.9953 41.2187 273.513
50.7941 76.2252 244.824
27.0948 224.297 8.79416
53.5407 147.466 138.221
30.4761 230.75 119.181
39.1149 141.162 200.558
28.2269 170.55 32.7587
18.2827 156.117 134.304
3.7605 27.2334 99.9812
48.4496 115.099 155.623
28.3399 188.875 220.265
5.48742 201.154 14.8276
58.4574 225.507 42.4879
21.7919 122.382 121.984
60.8435 35.7784 227.312
42.8771 150.542 183.027
102.114 78.445 43.0576
63.2433 219.175 146.946
45.7593 111.709 272.697
63.0197 217.355 43.0137
61.3657 114.809 249.739
57.4751 120.418 157.024
37.8047 42.3363 265.007
37.8607 132.316 73.0442
86.6709 171.132 41.2289
43.6831 102.324 108.037
13.9078 158.112 147.416
22.273 145.046 92.8261
11.8607 157.971 137.183
19.245 1.93933 93.2
9.65794 172.654 220.42
65.9454 213.472 117.257
54.2967 188.86 47.5312
28.8728 153.008 91.94
59.915 225.664 26.2675
2.75579 95.6396 144.306
47.678 190.305 255.215
71.9811 217.151 51.6076
26.2743 137.976 209.1
53.412 114.669 84.6436
21.1748 89.083 135.013
37.2957 94.6718 58.7107
39.0929 154.248 53.1927
12.1061 153.654 96.4418
36.9502 122.268 76.1321
29.5325 56.2374 251.881
48.5628 217.09 226.269
53.4061 140.094 142.92
52.0626 184.131 206.085
43.3453 118.665 147.664
42.4145 198.236 7.29751
8.16017 26.4095 96.1365
36.8867 136.395 178.33
37.8315 222.088 220.637
8.36989 32.115 114.596
50.9104 225.199 130.393
41.9234 134.588 114.56
42.8541 218.218 68.859
68.0918 226.916 43.0245
20.6686 209.991 237.877
40.6153 173.704 75.6745
54.2907 189.727 7.85364
22.8638 181.513 227.066
7.11768 129.596 92.345
71.8437 13.995 179.516
43.1872 161.988 118.517
13.8199 178.512 252.913
41.9322 222.029 24.9643
56.2732 37.6004 242.212
33.1186 117.688 65.7436
50.5289 13.2383 219.871
41.6781 119.041 139.346
44.5775 132.319 123.854
21.7958 150.244 181.687
16.2826 230.846 165.484
32.9549 105.699 19.3948
60.8905 202.069 27.2456
155.609 90.4746 95.0355
23.408 130.802 214.981
89.0317 88.7102 43.9431
84.3849 4.29958 211.766
36.834 160.591 74.643
6.75965 170.656 120.562
54.3658 123.287 119.845
98.7512 67.0188 61.0358
25.1129 182.172 236.236
25.9892 230.745 160.691
27.8084 92.0771 159.817
94.7739 183.538 256.497
38.1083 113.927 133.437
76.2399 86.2272 229.759
9.13158 16.8536 92.587
46.5342 64.298 251.561
70.7457 171.729 231.436
87.3082 13.8961 199.526
20.6312 153.313 151.055
41.3473 213.784 215.179
61.5549 131.552 147.742
62.9141 215.508 14.1616
14.325 157.891 165.408
24.2125 178.277 26.3989
8.48039 92.8569 147.225
74.0975 198.568 156.103
39.4357 216.026 248.828
48.6766 175.682 113.27
61.284 190.328 47.4915
52.3932 119.906 138.882
22.0429 60.8614 260.136
82.9973 81.3688 231.135
28.8145 221.779 208.692
56.0418 59.3761 261.299
47.8198 217.364 3.77557
12.0785 210.997 242.704
22.0581 53.009 248.191
30.9529 116.055 254.723
53.4483 126.208 80.6224
54.9187 179.155 253.4
47.7746 131.596 107.12
70.1149 222.87 25.2769
36.218 148.458 191.552
42.4183 129.435 80.5954
2.95861 114.554 79.7742
45.1044 36.3048 243.065
32.6699 93.9212 49.464
19.3599 157.298 79.3468
56.9782 7.37908 212.067
45.0991 140.043 107.476
39.1966 230.907 30.4749
65.2893 186.024 67.6653
9.80874 229.518 78.3375
40.7359 196.53 205.814
28.2249 120.811 58.216
69.6569 196.301 83.0054
47.125 143.172 98.4241
43.7624 5.43577 194.835
77.904 168.775 41.7693
24.8497 147.481 138.8
9.64294 8.23052 95.8193
6.14043 137.533 187.311
53.6841 135.715 99.0867
22.2811 140.533 73.2822
40.9689 104.855 126.13
43.7826 157.263 54.5763
62.8757 190.727 32.8919
24.3558 215.692 207.586
32.3162 179.148 247.974
41.2228 231.216 233.208
60.6211 62.3317 250.899
79.5118 151.331 220.63
29.403 165.7 88.3435
68.5831 111.062 260.299
22.4768 56.8891 112.956
59.5885 114.954 98.5132
9.84609 142.795 83.7515
31.8076 126.063 202.599
97.9116 74.8141 45.8887
48.6871 120.388 77.074
51.0165 156.266 136.935
37.3036 107.422 273.864
53.6214 120.99 85.787
26.7375 170.369 24.142
29.0981 91.1609 134.133
32.4836 113.712 124.625
45.959 205.005 10.4737
43.8973 161.101 200.09
46.7296 49.8344 236.943
63.7081 162.316 215.763
56.6952 32.7757 233.018
43.2952 225.009 226.971
68.3931 196.272 66.6795
54.9343 66.9264 213.33
62.3905 183.231 7.61731
62.0414 118.707 89.3301
67.8541 220.575 106.281
57.378 222.25 248.039
57.8001 181.309 42.729
69.5321 75.9372 254.457
26.0697 175.949 81.0936
58.6512 12.8518 259.646
64.6836 174.03 7.77689
15.091 59.614 274.365
48.7762 190.226 15.7976
46.4365 114.568 128.932
81.3214 177.45 34.8451
47.2694 127.085 84.2616
39.4567 229.831 134.907
51.2101 142.92 128.688
48.8994 67.3482 211.279
5.82279 2.40781 16.1111
43.3728 112.377 160.218
71.4256 1.78767 199.987
53.0719 220.128 92.2639
32.4161 27.5831 114.678
34.7583 200.314 7.51366
33.2324 172.993 82.8147
31.391 197.531 2.75918
26.1851 93.5374 137.866
64.2442 164.744 134.486
30.408 208.391 7.27958
37.7171 62.2521 240.838
65.8755 215.707 96.5226
19.3205 161.261 145.358
76.6517 2.75217 184.493
28.9841 159.859 82.7213
97.9249 7.59891 182.389
64.9371 207.27 21.1697
32.7776 92.2841 157.325
45.9772 215.317 274.053
61.5636 199.939 88.4246
46.3442 125.454 92.8728
13.2577 42.2659 189.741
31.4243 112.149 250.678
37.8953 223.686 95.88
16.6993 183.239 127.287
46.9787 101.083 274.483
60.6682 150.547 64.0887
71.1252 218.781 126.568
38.5383 121.554 122.07
42.5446 45.6596 274.361
31.3926 142.816 200.498
49.4733 131.421 74.2851
60.9636 111.903 105.796
87.2499 86.3297 225.222
17.0746 166.92 165.468
59.8871 66.2639 240.4
70.1022 183.271 243.191
59.7414 154.149 129.881
61.9184 184.532 44.0505
45.2543 176.453 74.9888
6.79125 43.6163 186.174
42.8568 2.81236 262.862
106.493 69.3467 55.0232
50.0167 38.8105 237.245
55.1113 230.762 21.9897
53.0927 117.664 148.993
59.2579 170.414 15.2176
57.0566 10.6295 217.255
66.4444 211.912 29.663
70.2193 92.5717 239.42
19.7826 145.734 98.2371
19.8406 117.931 66.1054
59.9646 50.741 232.428
41.5824 54.5256 236.809
46.8164 195.115 1.31212
67.2599 174.017 51.2718
67.3301 229.941 25.0212
59.9072 198.158 11.9538
57.1916 124.178 100.785
66.2665 176.996 193.409
56.5737 151.428 73.9176
65.6234 1.84704 178.603
54.0977 108.264 111.47
43.9585 2.54002 268.32
63.7111 189.699 248.135
63.9781 49.0409 251.438
31.3901 151.552 122.808
73.7367 227.476 32.031
51.7957 183.527 43.2049
27.9849 165.237 27.4059
58.7455 178.648 1.88756
50.4707 28.7924 274.679
48.9343 153.896 82.7807
68.2035 45.4304 271.859
8.77327 188.084 100.336
63.9225 231.341 146.241
8.83347 165.155 151.851
60.1919 143.477 97.5486
17.0586 171.522 165.672
40.6713 231.247 117.791
43.8823 95.9013 61.6548
20.1706 136.457 75.6107
53.9909 16.4131 260.668
40.8393 218.092 1.1055
13.3739 87.6585 138.003
34.0027 156.801 115.706
72.9272 209.498 31.3536
70.8256 189.474 45.7079
88.2437 5.17977 195.472
60.1381 163.67 84.9491
35.3339 189.233 1.055
8.24405 48.1374 127.351
62.2174 140.022 128.327
63.7906 140.911 139.919
34.4377 221.091 23.7866
24.6623 132.013 144.851
78.6478 185.962 71.9208
53.5776 133.61 127.221
72.4934 206.209 68.5957
43.4006 134.899 66.9397
37.7447 208.453 4.24561
71.4197 219.586 114.6
23.0779 198.138 1.07626
55.7231 59.9506 236.119
26.402 137.811 74.9541
66.1344 174.603 41.2246
74.9332 177.302 52.3922
57.5942 177.544 38.1777
14.4251 176.092 19.5239
35.2338 109.902 124.15
4.06049 136.402 79.7039
47.8494 229.722 105.405
58.642 1.12117 208.014
87.9786 15.4423 192.633
