ply
format ascii 1.0
comment Created by Open3D
element vertex 936
property double x
property double y
property double z
end_header
14.7778 155.376 72.7233
35.3631 126.034 92.9538
37.8118 102.311 188.609
35.9234 227.277 129.531
15.4928 4.58492 259.564
73.4199 104.548 152.755
61.0609 106.853 123.319
33.7963 157.162 114.537
29.3659 112.799 162.852
23.2543 180.158 97.1741
41.8405 215.986 121.901
34.9898 189.081 30.3318
40.4076 206.129 143.105
35.0374 132.905 150.111
32.7155 145.09 136.088
39.29 144.533 141.751
41.5778 188.27 123.026
27.9213 103.949 165.855
17.0926 29.4896 172.002
16.009 189.547 129.067
19.9524 179.517 134.569
72.4205 197.779 165.741
9.61173 151.31 78.7072
57.2588 86.8425 189.02
76.8963 92.7754 128.027
40.32 185.665 104.877
42.6021 177.823 104.643
25.1996 45.0809 156.727
13.4364 180.651 128.89
27.8262 11.3423 157.731
18.2518 14.6427 158.416
66.9861 209.019 172.768
12.4709 145.842 96.6591
46.8033 137.769 64.7266
18.8398 153.838 65.0783
37.2448 166.915 130.064
10.6066 126.045 134.925
59.8462 117.934 112.926
17.5012 166.09 102.589
40.5358 204.774 30.785
8.8794 143.257 161.53
25.3599 12.2342 267.503
9.14274 182.078 120.642
32.3214 99.5387 160.496
46.3913 133.786 83.8304
72.135 92.6248 116.406
56.4959 88.5774 145.874
33.6471 158.762 106.835
38.1161 215.772 144.259
31.6257 134.777 62.3612
60.7677 128.286 111.631
67.7763 101.305 123.194
61.7005 128.349 119.958
48.9926 225.618 102.023
35.5919 6.82616 260.842
34.6997 154.324 62.9317
8.79622 137.333 92.728
43.5951 199.158 129.082
14.0547 10.4315 252.406
75.4448 87.9061 120.877
11.631 147.013 140.006
71.0914 199.475 172.593
8.72269 156.115 156.393
26.0566 160.177 139.044
41.4067 210.451 42.5436
24.7933 195.69 116.738
29.2453 18.1427 175.68
37.5817 223.834 47.9995
10.8065 135.934 158.827
41.064 190.897 113.619
19.3019 13.5774 236.041
43.3958 119.142 147.811
36.5198 28.4606 148.981
65.9761 197.651 51.2997
42.94 205.308 51.5942
25.2143 52.0153 120.43
38.2576 16.6028 158.353
29.6983 194.161 106.896
48.5536 213.1 49.4937
72.6494 91.8795 151.24
37.0149 226.464 55.8205
59.033 203.221 54.9067
30.3381 32.3916 259.693
34.9019 3.26448 229.494
51.7357 191.508 61.0445
62.9039 97.8556 143.526
37.094 202.303 40.9291
37.4251 125.375 74.3603
26.4846 18.3115 261.818
56.6593 103.992 104.793
64.1396 134.244 118.27
54.2105 115.222 167.586
66.8241 101.401 92.0353
26.6153 155.404 63.3546
47.1597 175.147 47.105
47.0252 199.426 138.472
60.9248 120.016 120.363
14.176 155.937 165.228
16.1675 35.9843 165.377
8.67445 151.656 147.365
31.7183 37.6966 149.394
66.6848 114.889 87.9206
44.9761 194.726 59.9867
46.4394 86.2962 185.203
35.8641 229.16 152.08
9.11272 123.187 250.724
8.69334 150.005 164.768
42.4079 145.433 61.6269
45.1179 213.646 166.092
44.8132 211.256 34.3167
67.5378 94.8202 103.954
12.8351 26.0695 163.018
65.4897 123 87.6326
63.3587 198.383 172.92
52.9143 199.153 164.133
37.519 224.351 118.779
39.1828 131.555 68.4151
20.974 188.518 102.228
58.2966 193.399 57.441
68.4714 93.5469 111.121
42.1389 171.773 34.2074
23.4651 207.873 184.655
15.1976 144.391 168.795
79.2651 96.2645 166.532
68.3438 200.897 157.306
52.9899 207.81 52.6545
31.0128 165.246 90.9997
62.9327 211.454 186.438
17.7454 127.736 125.677
9.92985 183.743 109.183
42.9904 92.1485 191.121
26.2304 4.08947 223.778
41.5355 156.756 75.1994
34.0295 95.85 181.403
29.9801 125.207 68.2706
64.1304 102.522 116.439
38.4955 125.293 83.9704
39.1077 208.505 137.249
41.8888 8.98667 158.459
41.4297 212.81 114.53
65.1241 116.727 128.932
99.9368 220.705 126.07
18.4031 202.771 264.329
64.0603 206.928 46.9252
17.5615 10.0444 270.468
12.6671 160.22 147.444
32.3989 103.507 152.163
9.52146 134.288 75.0399
36.0126 194.931 117.246
17.1138 154.213 185.336
73.7894 78.5498 158.645
70.7031 96.0982 98.1142
14.9175 192.046 117.101
38.1463 106.63 182.323
42.8767 149.899 152.013
55.1199 209.119 177.871
65.4857 90.2804 147.271
35.1611 226.069 139.273
45.7311 199.663 150.969
53.4333 215.459 93.854
68.7208 212.281 131.52
70.4115 190.642 43.5056
11.0795 143.619 69.2828
96.0251 227.863 148.848
57.472 211.971 35.2672
9.11765 101.253 244.418
59.3147 106.879 143.022
42.56 223.652 110.451
42.3134 229.705 105.831
30.9359 155.485 121.651
38.4831 21.2683 170.853
24.6158 24.4128 177.252
30.6584 106.305 181.076
78.1755 90.1123 112.31
19.02 160.242 140.284
20.3466 44.2489 164.637
51.1818 222.958 87.7846
34.6755 162.928 148.497
30.9106 228.63 61.5787
40.749 207.407 130.612
73.7748 98.9029 90.696
64.7403 186.56 71.5135
45.5742 226.16 41.2027
75.8988 90.5341 159.561
63.8791 187.199 51.3651
9.98961 5.51462 238.233
34.9248 11.7887 268.819
9.52655 181.972 172.793
79.8058 204.918 174.228
46.0179 222.939 51.2099
29.9613 111.323 156.329
18.8735 28.3066 273.955
39.5625 214.543 133.2
39.4723 162.45 82.6862
75.342 90.0597 104.777
13.1847 168.775 127.339
48.2287 115.139 147.775
15.6609 138.381 97.5493
29.4888 122.783 81.924
44.4638 218.577 104.346
24.622 165.068 87.8785
27.9938 142.166 60.0942
28.7975 220.94 197.831
47.9332 205.213 163.883
41.4091 141.384 149.129
32.3132 134.168 143.344
23.511 37.2173 147.883
29.3135 114.8 169.478
47.5574 207.757 175.787
51.0227 197.066 130.078
50.1876 142.041 86.4355
27.4911 131.514 163.378
29.6688 95.9258 166.827
33.1482 193.633 37.6659
52.8118 205.178 111.472
50.8832 201.987 58.7276
35.9409 225.677 162.152
58.8129 193.317 154.457
16.418 141.365 66.2382
80.0841 133.002 136.042
12.9255 10.4714 232.629
46.7509 215.449 174.334
113.246 91.0847 118.335
40.2554 192.701 54.4627
66.1174 104.201 104.185
43.5324 156.873 91.5102
46.7975 102.029 186.867
47.6854 145.251 96.3736
46.2149 129.389 76.9625
35.638 198.798 32.6912
18.2107 139.687 137.655
13.957 153.722 139.672
9.97611 175.931 110.229
74.0944 100.122 132.981
78.2254 103.484 171.707
62.9756 111.006 80.1875
58.8135 200.288 166.186
18.6251 36.6074 267.556
91.6666 87.0926 121.851
40.4572 226.864 170.769
65.5779 199.543 165.777
27.6231 128.737 157.227
69.3437 128.962 131.038
68.497 199.731 101.029
26.4163 161.28 130.548
80.4978 212.559 179.569
63.4167 126.206 126.538
22.7284 124.382 88.3486
44.4908 154.435 81.5835
32.1516 127.3 190.699
39.4168 111.071 188.501
29.4513 122.817 171.672
45.7085 206.901 116.242
66.4604 107.65 130.781
51.2026 139.072 78.5892
33.8661 41.5536 156.699
9.66652 170.118 119.984
64.475 192.609 156.237
59.8642 133.975 104.608
18.5606 5.42346 225.259
61.4064 205.432 29.8449
22.4388 38.4392 272.102
28.674 226.864 49.0356
52.749 95.445 140.707
16.0691 22.4955 157.073
74.3267 195.944 158.12
35.0806 228.896 36.9894
54.0293 215.486 43.0398
16.7358 124.907 83.9393
69.6881 94.2856 123.332
82.7108 85.0458 107.127
35.8003 130.842 157.026
100.885 229.071 128.098
32.8661 23.5528 259.682
27.3439 127.55 96.0697
36.3882 160.436 73.3198
56.6672 209.68 46.6001
7.87557 143.994 151.071
82.5625 90.6222 101.841
47.6036 135.802 92.7601
42.4729 130.585 90.3381
121.255 118.309 107.402
55.358 101.128 140.298
38.6043 199.753 53.581
67.0123 103.823 185.318
18.4944 13.5471 245.629
24.9641 187.139 50.3613
38.3558 92.6993 184.957
55.9176 217.583 24.2888
32.0044 37.4565 174.612
84.2053 86.7141 96.9893
28.7036 38.586 263.5
118.225 127.285 106.424
50.2301 92.1825 191.57
56.4574 218.939 86.7612
94.2578 218.516 160.682
58.0361 203.767 174.509
33.1745 102.832 175.671
27.9668 15.8468 241.405
34.4673 98.6602 139.307
34.8937 215.892 123.025
25.6044 165.373 146.627
30.6138 43.008 130.902
77.1341 102.222 161.102
57.322 225.084 83.1069
75.6472 114.658 78.9927
21.3162 128.974 154.738
60.882 199.74 158.21
24.8009 167.905 99.5398
41.0919 215.082 109.065
68.7328 217.193 186.703
13.2829 52.6439 144.863
99.5856 94.7993 132.519
11.5144 135.439 150.489
13.6735 62.4625 134.698
48.4755 74.8508 171.692
96.5089 225.667 104.981
52.2915 222.402 180.123
44.0619 117.931 188.132
31.0487 95.1404 172.963
9.74887 143.442 217.723
25.2053 9.9493 228.497
81.0718 211.935 168.268
40.083 214.401 162.991
57.9615 115.448 106.991
41.7848 30.978 157.909
95.911 213.615 111.153
99.0975 226.66 141.544
37.5618 10.4878 242.606
47.1541 209.518 108.935
56.5511 105.928 191.943
78.737 215.348 148.066
47.3167 229.157 89.7014
39.3398 170.288 101.409
58.0619 180.532 49.6967
53.7238 227.267 184.35
64.309 82.369 185.066
32.9439 123.25 179.174
41.4991 179.638 127.204
30.8385 44.9622 165.855
13.8194 24.3338 271.949
22.7195 12.372 255.086
9.95797 5.11599 246.774
108.594 93.3711 124.762
69.8852 225.712 189.103
119.329 108.648 107.18
65.6896 222.758 85.0126
60.5744 116.002 181.462
44.8927 229.662 34.5769
17.7252 162.443 128.793
88.6943 212.051 169.377
21.3 135.889 167.884
68.578 80.3608 155.206
9.71317 130.371 84.7204
16.6369 34.6752 155.036
38.8021 32.892 169.415
53.6066 98.3893 189.964
63.8526 108.437 92.7726
21.7888 27.6051 145.799
21.1267 147.71 135.37
20.4346 110.156 272.65
63.0553 189.223 126.909
58.7525 116.034 150.526
31.7276 12.4721 169.514
7.89437 69.4422 159.924
35.7046 114.788 150.795
52.1046 196.887 152.486
72.5822 93.0633 181.911
72.4372 83.1993 179.661
50.2171 222.509 93.8907
16.2355 125.763 74.8414
55.0958 113.546 117.79
77.0123 89.9458 96.5189
39.2591 136.676 61.9139
52.1317 210.715 32.3062
87.2387 213.422 174.52
49.9428 104.492 192.012
90.0594 222.482 170.775
49.5674 207.104 27.4427
22.8975 46.1181 139.306
29.8911 113.22 178.568
69.9479 217.144 86.3783
61.3058 209.504 40.2498
38.6147 128.796 179.912
73.1926 82.2835 172.651
36.6166 119.333 186.314
66.7758 81.7927 150.169
69.2885 106.279 86.1221
33.4813 179.074 34.1367
17.3427 134.227 158.173
52.424 108.707 141.796
11.8149 139.739 140.039
55.2059 126.6 165.658
24.4332 155.055 120.537
24.5133 143.801 172.781
76.788 193.875 149.284
16.3858 173.31 146.267
21.2682 171.3 134.937
40.11 38.0643 156.115
13.9687 52.2115 177.545
80.2363 225.347 89.1597
71.522 108.798 133.364
54.1509 192.129 137.866
30.8816 163.56 82.4178
44.494 149.299 93.2637
33.314 180.142 97.723
78.8316 221.414 177.267
25.9611 53.2596 268.885
17.7994 220.048 183.812
76.4366 84.1822 165.78
74.1057 214.103 183.131
41.0568 205.678 121.905
22.6302 24.4432 267.388
41.3894 138.465 157.782
68.6592 76.2387 164.712
74.213 209.553 130.04
40.849 125.23 159.64
40.0494 85.5121 185.059
119.205 107.396 113.606
11.9608 152.932 87.8389
33.7187 59.9128 112.745
8.26161 141.112 237.202
23.8125 188.977 131.611
32.7207 19.0769 149.197
47.4911 217.434 97.8027
68.7565 188.441 139.138
54.0993 118.668 152.71
66.4839 115.732 135.673
85.9704 93.8539 130.548
32.2842 140.408 168.196
16.2494 104.752 267.864
87.6019 80.3088 105.066
49.2431 136.776 157.039
83.8733 220.142 176.198
14.077 9.79103 187.416
9.72936 216.858 198.963
21.7443 127.792 72.3899
37.6767 40.5334 164.886
95.7376 230.75 123.469
21.0404 200.555 192.015
22.4823 47.2735 131.803
96.7938 1.98245 183.048
37.4196 159.7 122.097
36.1489 114.575 158.522
52.6747 126.793 159.711
67.9326 139.583 85.2437
37.2536 221.335 155.516
25.9876 136.567 140.348
48.7347 119.317 153.99
25.7389 230.631 54.9898
66.1467 215.639 92.4081
85.7618 91.9123 91.497
41.1092 116.673 153.631
97.2803 230.236 135.137
32.5184 194.235 125.025
27.6571 5.70935 262.107
10.0942 135.34 67.0341
8.39041 210.705 194.307
39.9681 2.0374 257.287
56.9153 114.4 100.554
62.0876 122.215 172.156
64.4133 118.359 151.973
78.6454 207.5 163.402
61.465 122.016 105.405
62.6655 99.47 109.127
21.9675 128.544 64.9868
42.2626 218.978 171.679
59.2602 72.9736 172.775
42.0889 24.517 162.423
46.876 92.5778 144.196
40.3097 222.913 138.437
48.7149 200.895 158.581
42.3323 223.974 164.499
32.2435 94.8943 154.681
61.3008 188.206 65.0689
29.1065 216.049 202.872
59.8923 116.233 89.9508
38.3168 219.837 149.871
33.2013 138.354 104.184
39.1769 134.006 102.923
41.3462 167.621 122.31
44.5182 150.97 73.1408
75.3981 226.28 84.9668
50.0905 210.569 102.413
81.9996 222.515 70.0817
49.7825 152.848 74.1738
39.7531 90.4571 148.179
44.7341 211.34 157.411
35.5196 191.447 48.0613
21.6241 157.12 109.097
54.689 210.197 97.2212
68.8028 136.6 130.546
30.4008 186.696 41.5496
13.7475 100.189 271.665
62.7646 122.706 96.9616
40.4573 228.545 64.4905
73.3394 206.718 179.835
13.654 160.798 116.871
76.4979 201.841 99.2432
21.1417 163.109 160.473
84.6293 87.8972 124.822
31.8793 154.324 136.554
67.8907 75.5165 175.875
60.72 211.01 94.0389
40.3358 158.35 149.712
58.8582 117.378 127.464
27.9467 228.452 39.8151
11.6188 169.233 106.076
71.1314 91.0847 91.6193
45.8513 217.075 181.961
34.9442 112.624 173.271
12.4562 38.82 226.961
49.7325 149.205 82.9704
34.8377 128.937 170.309
27.7282 166.14 155.994
22.0693 155.534 169.756
33.6787 9.32983 235.157
55.7362 195.536 159.874
100.704 224.784 132.063
54.4617 199.184 21.1956
67.8129 109.408 149.849
34.4901 130.19 99.5318
35.1545 188.119 131.462
42.857 153.472 162.696
41.3529 145.953 101.355
11.9043 12.1329 274.139
31.6854 159.567 166.78
32.3051 172.557 98.9121
57.995 186.502 89.7322
91.7043 86.212 100.917
51.0618 78.9557 182.055
20.3833 17.8447 150.148
19.2819 130.32 96.6896
34.7145 86.9781 173.427
32.1645 146.59 104.153
44.8329 167.923 135.409
62.7626 197.265 145.204
13.439 194.585 257.368
69.7192 188.043 63.7094
35.7387 145.745 61.493
68.4683 195.219 116.976
30.5443 173.58 135.018
72.1557 108.579 160.491
10.7932 7.17287 190.998
86.9643 226.036 177.7
84.9883 202.901 161.67
53.4581 201.681 171.456
47.0904 228.433 181.64
61.9402 107.8 189.274
67.3737 194.278 125.345
38.7493 144.487 167.913
47.1913 223.385 174.24
41.6866 98.9362 184.568
27.5845 156.807 107.532
38.4933 158.56 156.622
77.863 212.804 45.6614
20.7667 18.5331 269.898
42.1217 202.2 22.9127
40.9169 154.225 144.515
70.2257 229.122 82.8104
36.2022 189.341 100.291
39.2894 86.9194 177.742
21.0161 137.797 60.3597
20.5192 34.9819 261.771
22.8228 147.672 58.8029
96.8108 84.5205 91.8928
43.2515 230.339 96.6935
65.2959 185.004 25.3769
72.0992 100.201 178.316
35.7858 219.983 140.039
60.236 122.753 159.83
90.7727 230.086 104.425
63.0904 227.833 188.287
56.3543 228.486 50.5171
10.145 2.51328 228.752
62.3161 95.0354 191.872
83.3178 216.555 92.2035
113.361 124.569 90.2983
39.4148 162.85 89.8424
7.86903 119.895 241.134
11.9168 7.09238 225.459
60.8735 189.727 140.837
43.1912 109.161 145.104
42.5414 116.8 164.138
41.4734 15.2946 273.923
56.7614 124.071 180.714
52.1892 226.959 44.9012
40.5001 36.4061 265.776
42.6339 181.064 27.4471
35.3842 137.375 116.114
23.774 102.674 273.92
49.3124 104.283 144.892
34.4572 12.7898 252.136
86.2411 229.684 91.6369
40.6565 230.863 114.501
15.4305 190.363 228.946
71.1437 215.176 95.9782
45.6855 230.129 175.506
70.6717 109.038 78.6384
33.904 188.741 107.017
16.377 134.971 144.691
61.3012 203.73 181.884
76.7089 217.438 92.2515
96.3434 225.872 119.876
59.2985 101.483 93.3268
78.0699 230.619 182.544
48.6608 214.456 40.6769
12.0409 149.876 192.052
45.6946 199.977 120.456
32.7831 149.265 173.574
65.4396 116.091 173.619
37.3939 209.908 152.316
61.6075 115.18 95.9646
57.5693 189.554 130.081
96.7373 229.475 157.198
97.4572 99.4364 89.1409
92.6078 85.8822 114.799
84.9545 208.727 56.394
88.5243 227.389 60.3785
61.2509 217.574 91.4593
97.4935 90.8444 125.016
56.4592 207.19 101.811
103.96 91.3343 117.794
25.4298 153.394 101.119
34.2411 29.4756 175.845
46.3304 181.58 53.4228
40.7953 138.104 98.224
36.2709 231.014 136.441
120.108 111.604 116.968
54.4983 113.233 148.013
17.3036 224.749 195.968
87.5547 218.992 164.289
68.3221 195.642 151.862
108.147 93.6416 101.083
96.1587 2.48131 174.525
66.3191 206.253 182.164
14.4067 44.4726 135.397
81.7503 103.275 135.394
68.1553 193.14 35.3041
30.5518 42.1392 270.291
66.1759 202.783 176.499
39.5021 6.92289 273.298
9.09429 55.2723 133.846
38.5292 100.063 147.327
41.701 223.569 126.827
49.2918 208.933 169.387
59.0529 179.649 28.1335
9.8733 48.9092 173.015
97.4291 217.439 148.894
8.72239 9.96799 159.238
66.3605 142.728 125.744
64.4071 210.409 100.377
75.553 212.648 101.237
39.4171 20.2607 264.616
17.3077 32.2283 271.047
72.3379 131.199 84.3216
70.7281 124.043 81.1345
62.7117 101.373 84.1608
62.2106 183.011 37.2212
70.4234 208.439 101.196
85.1272 230.918 170.325
18.5356 155.441 94.9137
17.1728 74.5746 236.462
65.1297 121.965 162.568
27.034 220.446 189.491
68.9365 211.993 180.637
81.4763 214.69 101.727
40.4229 5.78766 250.763
8.78948 143.034 84.3153
99.9958 230.202 115.395
115.079 127.482 98.2324
34.6109 135.748 163.44
60.7149 223.395 189.19
35.0425 121.105 162.982
78.2529 210.581 66.2343
66.8544 95.2035 187.211
79.8086 220.037 184.235
117.772 108.175 100.013
60.234 137.626 123.124
87.5338 83.536 113.095
113.36 135.154 103.554
40.6448 231.246 165.399
11.2376 23.7337 244.979
47.8219 145.071 69.8461
10.9684 182.757 262.649
52.0762 214.937 179.846
46.2822 121.969 157.983
75.2973 199.271 120.144
82.8264 84.8257 117.563
71.3564 98.966 81.786
32.7231 211.021 193.465
42.5298 144.671 160.635
10.96 217.509 186.677
46.6657 199.56 27.1932
38.0683 156.265 168.964
83.5933 221.049 169.4
72.7397 108.922 180.148
39.1608 228.828 144.901
69.5772 206.61 166.72
83.8536 212.235 159.57
46.635 229.161 58.3829
77.145 83.6378 114.023
22.0254 56.8455 141.272
88.7902 230.001 164.624
54.3776 120.937 158.659
94.1638 87.1218 108.538
75.2499 205.541 169.614
103.497 84.2805 110.368
49.0067 174.955 30.9902
14.8477 165.102 181.72
47.4019 171.329 119.424
99.6246 81.8152 116.425
77.6844 137.14 141.208
49.6607 155.273 86.6423
68.0035 146.673 88.0124
8.40994 83.4302 226.691
109.304 100.574 131.172
75.2699 206.413 114.729
56.3131 231.191 36.0225
73.7528 133.303 135.217
45.9171 129.049 164.431
79.8137 199.099 110.998
37.8668 192.95 22.4855
24.2684 38.0223 174.769
61.3847 190.115 134.556
28.6904 149.003 127.547
61.7844 120.067 82.012
40.9425 79.8417 170.816
72.1963 198.254 141.749
78.0125 93.9741 175.847
35.8217 230.939 29.4383
66.1568 124.468 133.475
44.5387 194.977 24.2859
74.4767 188.861 129.887
54.9776 194.778 146.011
42.3284 168.866 113.157
26.8857 139.383 103.29
41.743 120.382 178.564
97.1396 217.714 142.437
49.9597 160.45 43.3821
96.6394 223.278 155.934
64.463 115.248 159.643
34.8067 231.201 159.753
45.2451 179.212 115.386
89.099 199.242 132.42
73.4584 221.679 183.73
22.2193 29.9851 263.724
67.6532 196.02 141.854
66.6163 131.397 88.8444
122.842 115.864 120.365
37.0651 85.7549 159.229
62.8201 102.131 99.6126
47.2256 25.8494 272.44
61.129 202.362 105.484
51.966 173.034 38.9805
22.6128 39.5491 170.39
102.04 109.836 84.5203
21.9146 204.332 200.798
20.8457 16.3676 169.455
115.283 91.9716 111.316
21.9235 1.44374 262.931
10.1826 145.793 226.736
56.8888 110.983 86.727
119.676 121.855 100.237
21.4702 56.1977 130.598
57.5488 76.5997 155.671
65.2825 193.751 28.7501
112.023 133.386 94.7079
58.4739 107.504 113.934
34.9707 231.295 122.872
62.7653 139.943 113.868
57.8011 194.973 122.18
100.106 222.656 137.853
48.9741 199.305 114.123
69.6545 211.77 66.7234
90.1113 225.433 161.654
57.5901 127.733 97.1258
11.9846 186.678 223.346
30.7634 14.117 263.663
56.0758 221.008 186.703
44.6742 80.3108 152.737
45.7513 76.6846 162.564
69.1542 188.02 131.691
110.401 225.414 133.919
72.8208 195.282 134.487
91.8782 100.241 137.298
94.3933 231.222 110.744
90.9733 109.932 79.5956
31.8532 158.464 96.8883
63.4467 229.225 83.0728
17.9197 42.3967 182.094
94.3486 230.483 161.94
17.0839 1.60193 221.3
53.2353 196.407 120.399
72.8548 139.512 140.27
32.7541 161.92 179.557
79.3605 199.924 157.513
60.2443 205.286 96.5908
97.3509 118.286 74.2104
68.7348 202.883 112.176
81.0617 193.958 125.699
25.8739 160.321 71.274
118.104 114.816 100.891
80.6507 202.032 144.714
45.5336 188.568 21.2739
36.3607 39.2432 264.144
73.0991 192.311 122.369
65.7278 186.691 41.3651
45.4699 223.14 60.2271
71.8536 115.003 165.866
47.6077 139.488 71.6683
95.7013 225.238 112.548
39.8874 178.254 46.2216
38.7631 163.99 104.962
75.0425 109.404 137.238
54.2508 192.926 129.671
99.5575 230.185 168.012
63.9931 110.213 180.792
52.4114 113.856 184.871
62.7415 218.011 188.501
7.87723 101.933 229.86
62.5179 201.531 40.5309
55.2069 73.0631 164.162
9.07339 117.859 246.987
77.5572 142.87 133.186
47.5727 230.824 65.1469
108.059 86.9555 104.921
79.6765 111.974 139.343
113.103 100.808 95.4198
71.9098 194.208 69.1957
15.7591 16.3672 273.62
13.1513 56.1713 255.215
86.3014 199.546 146.333
88.8011 205.638 158.142
51.0282 110.41 187.098
26.1468 202.635 194.26
35.8106 165.175 158.355
16.8876 26.7426 267.442
16.3579 158.061 90.3856
88.9903 218.229 96.6502
55.9927 214.352 186.747
83.6193 203.879 103.42
82.8825 142.54 128.637
114.116 98.6462 115.585
89.9569 82.3043 96.0739
108.371 223.786 124.261
60.8784 231.319 44.7737
108.382 212.262 109.586
88.9747 225.776 97.735
48.8171 131.409 177.043
95.7384 231.239 141.591
44.5823 19.3518 269.9
74.3076 229.256 186.627
68.1568 198.274 59.8964
49.4512 194.576 121.341
13.7445 53.8344 269.134
115.9 105.097 123.102
90.5493 211.847 118.812
90.8128 208.787 164.635
65.9344 143.165 93.4986
14.0473 207.154 260.736
106.832 129.647 84.9114
73.9698 202.544 108.947
110.686 231.238 126.687
39.1339 107.266 146.27
56.9319 134.697 119.26
116.204 118.464 94.5944
39.7865 129.535 168.003
70.0612 210.204 54.6605
85.6971 133.025 139.924
89.5996 97.8733 84.8643
103.643 1.57208 182.938
89.7281 214.386 101.817
55.1127 178.993 88.7567
72.3584 200.255 149.332
95.0478 219.303 107.278
86.5863 210.852 110.837
39.7311 231.452 70.3286
44.4291 166.393 109.881
79.5565 100.45 86.6917
74.2128 151.814 99.9964
46.638 128.819 182.672
13.8781 206.153 185.691
30.4108 44.1432 274.499
116.815 134.422 111.477
68.3769 231.481 186.213
40.8662 209.058 148.036
78.6782 190.875 134.063
61.2137 195.911 117.858
95.313 201.573 122.032
43.0675 104.737 142.46
55.0963 229.317 61.0496
60.1226 231.019 186.297
93.2438 215.461 126.189
95.933 220.772 116.497
8.14783 230.231 209.386
41.9188 131.589 96.7166
73.2298 145.148 130.755
31.7328 231.649 67.8006
72.2338 182.736 25.2153
38.927 187.015 52.2894
83.776 199.214 137.991
89.3659 223.418 52.6603
61.7046 199.492 110.469
60.113 195.643 23.0543
10.2203 30.3044 208.579
56.328 229.33 91.9737
68.5692 196.356 72.4851
108.453 90.5372 111.917
118.587 100.102 109.604
10.4467 158.444 274.555
67.7509 125.759 141.11
32.6989 227.79 75.0339
17.9942 224.878 264.575
87.8469 207.719 149.921
96.0035 204.878 139.208
17.7448 52.5639 127.928
52.6941 231.39 183.613
26.1814 163.497 75.3529
18.5173 2.6738 273.756
116.488 107.443 91.3549
18.1084 198.695 274.771
103.958 121.757 80.0214
38.0396 182.167 44.4986
89.473 215.029 158.941
106.3 138.015 93.8845
40.7868 16.2543 268.124
69.8075 229.003 63.22
84.9299 230.808 181.895
103.736 89.5757 89.5839
16.7034 93.6033 274.638
38.4362 219.553 166.457
10.3552 210.185 246.973
117.896 119.605 115.356
44.3828 151.161 171.487
71.2905 150.027 121.325
