ply
format ascii 1.0
comment Created by Open3D
element vertex 1288
property double x
property double y
property double z
end_header
16.3111 22.3453 223.674
9.17912 109.418 96.5298
48.5979 91.3398 171.531
22.7239 103.783 97.6309
26.3192 98.5969 79.4247
28.6549 148.51 40.5665
31.6716 176.755 142.965
32.9139 89.3839 141.815
6.27186 18.5491 257.569
22.1463 109.413 88.7521
64.6354 86.8458 50.031
38.1578 121.82 161.973
36.8376 138.888 43.8051
25.9883 96.4982 95.1361
45.97 185.458 172.453
55.4342 221.296 68.1503
23.7294 107.471 75.5099
35.2553 171.41 51.0933
13.1402 160.706 126.632
54.6606 80.0457 140.753
6.7689 29.0266 241.21
3.79587 124.135 100.574
44.57 106.343 104.777
34.7693 162.745 150.646
10.1015 43.5978 225.529
8.90503 37.3958 237.699
39.5197 194.609 126.279
90.5966 63.7738 43.6907
87.6319 68.6094 81.1604
11.798 154.642 131.281
81.2644 83.2132 70.9199
58.918 106.386 33.9098
21.2935 122.84 111.772
67.8485 217.359 53.7674
18.7147 110.445 60.9088
11.115 136.715 67.5843
35.1661 199.349 99.843
22.0577 147.845 104.766
15.5319 116.349 88.5682
18.4695 118.593 148.808
26.2356 29.8486 235.15
40.1288 109.846 113.423
54.8585 65.3571 87.4442
76.5201 84.0718 131.772
27.573 105.839 55.827
36.2718 156.977 36.1392
12.3269 121.133 119.331
10.9769 106.824 112.759
17.2365 36.6406 247.666
29.7793 174.228 53.7824
51.8464 121.817 106.502
21.7693 136.326 124.104
29.0639 94.7006 70.5252
16.5028 98.818 105.955
52.3469 201.108 47.6554
14.3427 62.8976 200.681
46.2404 201.57 99.0949
15.3873 119.383 77.9551
13.3108 109.367 48.9828
10.7869 62.427 215.136
21.9177 89.0222 100.141
37.114 105.413 117.535
11.8814 109.608 80.537
25.8693 191.441 92.2505
53.2271 155.911 19.646
24.3646 92.5004 85.5906
23.7546 171.943 98.5794
50.053 112.508 176.483
17.0505 154.02 115.559
55.6863 128.162 29.1032
65.6 87.2432 121.132
83.066 224.885 2.57281
27.2358 159.1 47.4901
24.6379 185.846 81.394
64.9076 77.1706 135.321
11.252 72.5725 225.796
43.0454 93.7191 150.613
56.9709 169.532 35.6608
18.1544 103.791 80.5351
21.4664 178.928 120.887
66.9912 196.927 146.25
16.386 174.358 83.656
39.4563 175.096 148.944
57.8873 79.7445 50.1322
37.3789 105.994 42.1764
27.3014 118.564 54.3618
67.9045 201.137 77.1531
19.9346 30.8461 253.454
46.8077 188.924 97.769
31.6261 125.092 65.7838
85.3702 65.7978 175.022
47.6752 68.4954 110.015
12.9528 125.029 108.254
54.6451 101.865 42.5735
39.0226 112.535 121.686
98.4504 91.0225 87.7485
80.9411 88.3604 16.0974
59.2769 197.713 75.6635
33.2174 88.8857 62.9133
81.6984 195.426 88.4181
3.58831 59.5459 197.396
30.1149 79.7574 95.7525
27.3954 32.2188 245.256
49.9776 165.302 17.3018
47.4079 138.278 42.9155
44.8186 129.957 30.6537
22.449 159.333 130.162
115.432 41.4557 55.8927
57.7461 108.099 20.0179
34.8753 185.282 64.1827
34.0248 4.90363 216.971
52.5201 186.088 109.068
65.3969 72.0116 78.0533
59.5793 101.595 160.87
163.847 18.523 240.733
11.5839 22.7064 241.744
21.2409 135.989 110.861
55.6566 177.854 47.6375
42.6836 115.397 162.648
56.8852 171.155 147.088
58.5344 184.353 146.247
78.3758 180.837 147.937
49.5052 67.8024 118.697
42.8268 98.6151 175.911
55.4743 168.66 118.401
17.1645 92.2374 109.862
108.171 64.1617 108.685
101.574 110.825 73.2506
17.792 36.4712 199.39
78.4383 84.2754 140.43
76.7461 75.4496 131.874
57.7331 74.9452 134.013
27.932 85.265 128.46
58.4253 224.719 49.3383
37.5216 131.822 115.257
41.9226 179.893 94.3741
51.6406 115.47 166.903
14.4316 100.286 93.3226
77.3308 201.883 96.7696
58.7616 202.329 83.1868
35.6729 170.396 60.3595
23.0757 119.512 70.7842
72.2386 124.824 28.4121
27.478 39.0583 225.498
42.1174 114.799 62.6442
82.7241 62.5792 87.7294
42.2372 170.548 151.52
19.0314 105.973 68.7819
11.2139 106.176 87.1508
24.2576 165.61 139.825
19.0138 24.7405 249.321
34.8164 115.991 44.0649
13.4971 106.084 105.195
23.7697 101.791 156.142
37.734 190.954 132.907
16.1686 15.8358 251.783
26.0647 118.563 153.197
76.6543 95.0107 3.27205
44.5791 176.361 43.868
81.1537 90.0151 54.2979
32.0635 151.984 154.204
49.0101 185.817 117.445
34.6914 80.4867 72.7264
33.9469 107.937 50.009
29.2235 85.0017 77.4516
12.7375 169.06 108.364
12.7272 8.65121 203.975
51.4014 170.583 41.9794
22.1552 89.3989 116.214
13.2274 116.942 70.3719
103.272 59.2163 142.31
36.0874 161.948 117.974
26.9228 100.339 61.0174
22.3394 123.647 57.2834
60.9565 91.1103 43.5889
75.1779 78.5006 55.7872
18.9182 92.9285 121.942
23.7314 118.424 78.6787
19.526 40.75 239.189
18.3479 98.4849 117.111
100.035 73.333 88.6379
33.336 92.9362 153.947
63.2484 65.2088 85.6815
15.0264 138.542 91.9775
30.4057 102.934 133.166
12.6285 26.677 246.763
71.7593 72.0348 42.7862
15.313 150.305 59.2754
53.6036 93.5242 138.085
13.523 131.322 114.184
39.2464 70.0113 99.7728
52.5037 142.289 163.132
25.1648 113.89 96.1714
32.6472 167.544 44.06
90.5437 91.1741 160.108
44.0901 169.735 51.9452
16.3795 118.18 63.8595
54.4567 72.3744 85.7366
70.6903 104.047 19.5307
79.5512 161.726 151.936
32.293 180.262 96.5564
14.6627 126.575 67.3561
24.9279 96.1822 50.8118
19.1236 155.973 140.871
8.56724 121.753 75.7407
30.3464 100.142 101.827
52.6765 160.138 40.2152
44.5843 171.312 126.033
49.714 179.053 150.461
34.6954 104.595 93.2966
60.7856 136.685 38.5564
44.2371 133.836 36.4112
39.1272 102.205 101.986
26.217 135.549 43.0899
11.728 146.281 137.95
39.1862 124.193 52.7336
32.948 163.974 112.6
31.0311 104.342 159.875
15.1763 148.427 119.258
29.0405 151.255 117.256
12.8712 106.103 121.864
19.8072 117.465 106.158
78.1996 65.4849 33.0146
16.7144 98.2723 127.649
20.8726 138.027 48.1521
3.70725 128.083 94.7361
13.4938 43.5115 195.269
88.0703 60.3158 53.2441
9.07775 153.753 88.0343
63.5109 68.7595 118.972
26.0003 179.631 132.288
12.2608 115.572 104.72
42.141 76.5894 132.628
56.2406 172.192 155.357
65.1831 87.2729 112.787
31.5431 130.185 42.0622
31.6896 101.481 124.785
40.7037 102.461 121.937
10.3492 146.906 127.49
14.0371 156.358 65.4836
43.5783 193.119 111.718
20.4245 133.333 55.8725
74.6655 91.2037 149.905
12.757 146.201 99.9549
66.3548 63.6702 119.111
54.0423 162.397 25.1633
76.1294 66.0387 125.265
51.7993 199.934 111.936
20.8833 103.214 127.114
23.1587 143.795 160.8
45.3177 170.476 14.5405
2.87623 126.799 143.374
13.4288 144.162 64.3656
75.2435 187.287 140.019
104.53 150.403 77.64
38.0125 80.607 65.1413
27.9092 148.919 131.015
77.9485 82.5072 24.8098
52.1731 109.527 111.503
52.4519 187.977 141.054
34.767 76.9808 125.996
7.95746 58.144 204.936
105.05 101.832 83.9418
40.6296 50.9266 214.98
72.6638 118.754 52.3787
63.4671 148.54 31.5527
67.3327 92.5174 17.9482
13.0323 106.311 130.944
36.9891 123.656 143.804
12.9509 119.393 136.204
15.1296 165.927 87.9337
83.0219 197.813 78.1042
44.004 83.4565 57.1719
65.7068 98.1528 147.376
27.9693 141.716 114.068
35.8407 183.136 82.4349
11.0815 97.3017 145.551
60.2209 64.1891 103.568
38.4358 130.896 160.901
28.4885 170.554 65.9591
43.2862 71.0646 85.4418
73.9198 87.2048 23.6878
72.4657 117.174 43.7806
33.3759 188.707 118.658
4.93009 49.1462 207.604
52.5542 140.705 29.6913
38.5066 77.2921 97.4551
45.058 171.694 140.273
25.6787 154.916 124.278
62.3455 177.338 111.685
84.8939 75.1776 130.644
69.0631 84.3436 139.649
33.5317 90.5922 92.4609
49.3041 87.1591 151.458
30.5889 183.184 73.5212
67.9833 114.817 28.7885
69.4071 105.137 170.844
6.78948 37.1574 198.021
23.2341 38.4107 192.144
33.9276 141.588 124.255
32.5308 119.474 69.7641
16.7042 171.986 118.097
25.187 100.825 120.947
25.5183 84.1373 96.8139
64.2849 152.238 15.5333
19.0718 134.192 67.2688
51.4852 90.9593 33.1491
73.7889 93.6034 50.3672
102.305 164.594 63.8706
100.028 94.3361 78.2771
6.02842 115.246 99.9953
60.2161 191.477 130.871
47.8635 111.894 121.939
3.18531 18.3373 225.611
103.925 66.1974 139.166
4.38482 43.8551 231.974
34.1468 196.378 109.904
75.5334 96.1182 13.6733
27.9457 123.873 148.973
45.994 74.5674 65.6035
67.9476 131.397 166.092
6.90304 142.534 79.8548
37.1826 136.326 34.7921
21.6714 107.788 120
35.5558 155.567 124.062
73.6045 95.1182 140.731
14.0588 125.092 86.5255
106.563 86.0378 166.372
12.1845 87.8144 122.137
81.5694 184.594 139.54
11.3248 135.94 78.7205
87.4927 92.2374 3.92535
70.6808 131.497 16.8166
67.637 69.7576 68.4087
16.0297 180.398 102.13
25.3717 170.9 114.412
19.5363 19.9713 240.874
72.5977 198.412 116.635
29.2325 191.588 102.586
86.6044 89.6626 62.8005
44.666 72.6948 125.292
83.9764 100.211 8.87454
31.8219 162.405 55.1168
19.7148 44.1134 196.389
7.46278 5.86062 238.468
20.6276 102.975 111.197
33.7954 106.426 105.008
73.6652 77.0294 74.0227
67.5519 187.587 142.629
62.8012 62.9993 93.8844
44.1536 20.1394 204.877
87.0049 72.5099 71.8184
53.1345 67.1342 102.188
51.1532 178.047 142.679
24.5943 85.3388 88.5902
54.6172 201.162 95.2181
65.2502 156.893 41.6334
34.0241 172.341 127.185
66.4369 132.363 29.9428
62.4738 210.175 58.1235
29.4081 92.9067 120.754
40.1649 183.906 115.23
64.7261 182.506 147.32
52.7076 107.326 121.004
42.2323 74.5121 77.3839
46.3618 188.058 142.342
88.834 102.128 143.823
52.2779 220.857 51.0495
54.23 198.415 65.1548
4.59383 133.7 99.1876
61.662 95.4715 113.191
14.593 125.704 94.7699
48.1341 196.775 104.245
37.4951 98.0124 108.945
19.3407 169.266 127.954
51.4148 69.8894 46.3439
63.684 146.531 18.8252
24.6218 128.663 65.0246
22.7257 96.5939 70.8326
98.0228 59.4882 93.5463
53.5612 176.38 54.9739
13.0796 135.708 99.6064
19.8715 121.963 140.474
69.2447 141.271 32.4795
92.2178 72.8197 158.651
74.3533 70.8386 61.6498
3.19757 139.642 58.2294
26.5393 39.6419 205.468
45.9492 166.617 117.843
44.0112 109.575 34.9199
8.32619 161.39 91.3985
36.4411 119.793 60.2246
4.92358 28.9727 205.219
72.3415 76.3475 139.21
39.0408 87.8183 145.52
33.0662 33.0432 189.948
38.8982 20.7278 197.357
62.045 191.853 110.168
73.9061 88.2986 10.0469
38.6571 185.483 97.5521
27.8138 111.525 81.8788
58.5894 169.202 42.6299
28.2568 163.901 108.456
32.8234 124.177 51.9379
82.8904 101.84 17.3874
67.004 143.958 41.6402
64.4073 99.6754 12.0763
23.2921 90.48 126.803
25.4698 107.763 105.151
47.0633 129.832 166.39
33.9405 139.686 159.141
22.0945 155.639 99.8642
49.3137 95.1334 158.698
35.3928 85.4985 41.7387
44.8862 101.582 48.3708
94.7492 78.8655 163.34
27.3065 138.455 137.532
15.5884 155.687 149.831
25.5409 110.93 154.589
88.003 76.3535 144.797
75.9483 202.213 106.418
74.2651 125.152 46.9517
85.1914 67.4154 142.933
25.9635 27.1237 224.895
102.575 115.545 85.4709
24.6619 15.769 250.291
7.96388 139.772 123.273
79.3245 148.837 156.583
19.6312 56.0287 224.08
43.0218 134.275 121.806
15.0306 110.706 74.2924
40.5305 194.786 118.931
88.5688 141.549 156.69
38.2204 11.3541 209.208
66.2305 91.9718 142.668
40.7247 172.05 113.282
82.9989 63.46 128.35
73.4404 149.069 36.6157
20.7071 173.933 131.713
33.6552 196.554 81.9672
49.3226 182.557 102.613
41.4081 162.051 123.177
5.44051 142.709 99.2881
23.9768 90.9137 134.701
17.8659 96.259 81.8369
66.9645 122.028 45.8723
133.741 112.026 247.162
16.3054 109.669 95.4508
77.9038 84.029 6.88404
97.8805 121.136 89.7821
40.6591 120.955 33.2558
28.0106 158.313 143.967
69.6548 176.774 150.717
69.0061 74.2814 131.923
62.5474 211.207 64.914
6.87671 181.565 105.768
51.3856 70.7157 36.2735
52.0018 155.481 161.046
32.5036 168.238 119.376
53.4361 155.298 170.657
24.6712 8.41875 225.135
99.9962 61.8461 105.721
55.2079 134.561 43.7219
6.45001 125.081 124.901
73.6265 203.386 89.3179
70.1959 195.794 127.77
10.608 128.212 96.3286
68.3312 204.74 97.5584
22.433 65.8211 203.481
31.4283 49.8023 196.467
28.297 183.052 88.3203
93.1392 77.4261 78.2393
38.5284 100.065 145.758
60.3743 177.045 143.785
54.4683 126.001 167.561
57.7416 185.103 81.3241
28.0096 113.582 47.7334
25.876 125.279 48.5998
58.3944 212.698 51.9884
69.5558 194.725 84.4077
52.7968 85.1771 50.0257
13.5636 135.003 106.536
83.5512 83.777 79.7325
24.118 171.777 106.895
36.104 132.624 52.8136
21.7604 34.9952 243.605
25.9359 148.449 49.695
36.8572 71.9334 105.371
45.8157 100.796 40.5767
65.9235 108.161 11.8428
62.3979 162.496 35.7503
19.8383 164.169 117.858
66.9763 191.312 72.6952
44.3148 167.663 43.1121
85.1073 72.0842 39.8669
33.6998 21.7445 188.959
43.0976 100.641 158.244
31.8632 161.967 42.4071
19.907 19.0744 230.164
18.7062 159.414 90.5409
84.0716 96.6848 61.418
97.0809 94.6568 68.9233
76.3686 115.488 30.0884
23.5793 163.259 78.5115
45.6172 180.521 81.5867
16.48 164.371 64.6151
13.306 100.801 99.2524
7.20368 147.746 111.633
66.6136 154.996 35.6385
31.7626 106.885 121.906
34.219 179.928 108.657
80.9916 69.6977 70.1668
88.2148 94.1234 14.1982
62.0128 84.381 145.05
6.81462 45.628 201.657
58.0916 158.342 172.822
11.6618 17.5088 240.256
25.2204 95.1857 109.646
109.502 63.5512 76.9014
31.9538 194.331 95.0287
54.0544 72.8454 58.9891
74.1784 191.798 80.468
38.42 184.772 88.3474
86.318 64.7803 120.587
33.2675 170.369 106.942
29.7984 113.078 88.5542
55.6799 74.5313 110.44
23.5678 126.38 102.128
82.828 144.54 48.8965
6.12139 122.546 83.4001
56.5788 67.6197 67.2962
43.2587 127.123 153.341
36.2438 97.9442 58.3391
59.6548 193.919 96.4859
107.194 158.367 79.3151
64.3032 79.9128 117.024
61.3638 130.176 20.5272
41.689 72.498 92.3526
49.0717 150.974 32.6287
45.1163 84.8668 161.008
20.7314 176.741 71.0433
67.0983 145.361 13.655
26.4681 42.4037 195.963
3.58399 133.715 88.9275
62.3278 191.914 30.5185
54.5996 86.7529 147.416
9.88901 133.816 118.509
4.08238 37.5945 213.002
17.4086 154.155 81.7486
61.671 78.3289 109.835
63.5039 198.846 69.0303
75.454 71.8454 121.401
21.7339 13.2655 234.196
63.4898 112.818 43.7235
101.893 176.191 141.473
106.062 60.2293 115.703
26.6908 63.5423 210.457
19.7479 150.936 133.684
59.0721 227.916 54.9929
12.5783 114.451 128.35
51.559 213.063 54.2175
30.8424 177.799 116.285
92.3918 96.1172 167.779
63.6074 185.246 33.3339
50.8233 191.89 86.1606
13.8859 13.5595 225.763
40.3447 145.999 46.123
20.7835 29.7456 239.171
64.0626 80.8596 127.582
33.3481 157.787 110.684
44.0006 204.098 88.3206
41.5328 108.644 170.038
47.8285 219.924 59.8144
38.7741 128.654 58.6546
21.3852 6.93433 234.232
70.0445 181.047 139.63
51.394 103.855 160.9
68.5588 188.719 108.782
33.7747 86.5493 123.392
13.9645 108.025 139.997
53.292 145.262 39.7089
69.1474 141.969 19.0773
50.7667 80.9548 133.475
24.1389 122.454 90.2283
26.9418 138.614 153.134
93.0439 97.0023 72.4034
30.1921 145.516 142.084
69.2844 180.52 30.2883
59.9648 131.532 164.983
79.0482 90.8503 27.6665
41.6521 191.636 64.2528
52.4787 95.2512 41.5926
14.8863 158.43 72.4849
89.604 184.614 139.009
28.6241 148.741 110.768
33.6264 205.368 110.153
7.3115 26.8904 212.752
53.0316 180.231 41.0678
87.8412 199.458 106.428
24.2817 5.51771 204.172
82.8559 105.653 152.307
47.0757 179.187 110.881
66.886 200.815 106.506
32.6472 17.2466 253.583
32.3752 91.5299 102.699
50.8421 201.549 87.5078
56.198 68.1391 127.28
67.9719 121.991 164.118
11.1579 160.249 82.2295
67.5764 170.421 39.9938
18.2593 148.676 94.7342
37.6315 100.591 48.0335
7.78834 129.647 79.5139
84.9495 86.1117 135.092
9.34828 156.889 74.306
32.3663 112.996 65.5485
58.5141 71.2175 121.377
81.2588 110.727 18.5947
15.376 175.247 112.145
38.632 125.452 45.3247
55.1892 164.154 153.519
63.8044 170.774 28.4331
64.8119 100.395 21.3352
73.9011 100.927 44.4581
23.2511 151.637 61.5282
33.3093 9.50436 213.332
4.34237 117.999 90.2407
5.2559 20.7683 234.44
62.3882 104.62 144.393
37.5073 173.66 43.7718
14.2259 35.5558 193.599
30.388 119.101 158.125
51.9071 170.044 126.776
24.8284 84.4663 107.656
55.5297 157.103 32.977
34.9424 83.2124 100.849
45.1555 160.444 35.7687
82.3522 86.4431 2.40156
23.796 137.714 61.1918
25.3277 128.536 155.208
83.1086 97.7969 150.361
86.3057 144.143 89.567
90.6861 90.5696 84.4021
57.9351 193.71 40.4508
17.5923 92.8317 97.8822
35.1374 118.557 92.3528
44.3922 109.448 57.6779
42.362 142.03 35.9497
69.3463 82.7656 35.1466
30.9828 26.3749 251.716
66.9828 78.6009 52.5898
73.8557 181.129 44.8537
79.6302 57.1346 119.771
75.2178 96.7347 27.0748
77.444 194.814 127.038
24.5877 128.084 145.534
42.0504 200.353 106.545
40.7739 70.0301 117.514
56.2152 114.09 162.389
33.6506 169.038 140.352
82.6383 73.5406 58.4478
64.7294 122.916 17.3907
20.118 159.838 104.232
50.9082 119.257 30.0956
95.2545 78.9881 64.1693
54.4808 96.3161 154.779
26.2124 90.8398 145.091
43.5906 182.101 145.184
17.7328 149.158 52.424
2.37957 20.524 243.45
19.38 110.717 111.687
46.3788 82.3579 141.908
78.2265 122.995 35.3788
9.17358 146.735 90.3315
19.9597 142.458 117.924
50.9531 180.225 90.3056
39.5334 92.4079 53.1294
78.2893 160.926 30.6766
86.9135 110.993 38.0147
54.8892 149.127 31.3023
55.7959 183.758 136.729
78.1913 95.09 38.5066
45.4142 104.815 115.173
20.924 146.774 142.808
51.1375 135.306 34.1254
66.0701 164.325 156.524
16.1478 142.439 79.1726
47.1278 107.312 177.855
27.4563 192.738 118.666
73.1853 185.17 35.7856
57.6 116.544 28.9141
81.8266 138.987 162.018
55.1294 142.875 19.242
16.9023 16.3327 218.525
74.0845 165.276 158.917
33.1356 45.6616 219.403
78.7476 118.338 161.165
41.4521 13.4921 220.955
6.50674 137.255 112.921
11.6835 148.883 80.3584
21.7312 144.153 109.752
66.8237 117.144 33.6871
52.6494 123.615 66.4102
64.2086 222.474 51.6081
6.41335 129.648 106.29
34.2904 111.163 159.468
30.9906 11.9579 222.092
38.208 186.478 54.6316
31.833 58.7241 228.749
70.2066 67.4825 50.374
11.0814 112.957 119.756
66.7184 113.474 122.646
75.7149 109.078 13.3965
99.4676 69.9813 163.998
56.7428 67.126 111.352
67.4217 206.995 66.5084
14.6742 14.7345 234.171
60.668 158.149 153.759
5.39323 20.0107 204.198
24.0961 32.7061 225.849
98.0452 153.701 71.7837
98.0344 80.3864 95.5719
100.817 76.8477 82.1655
89.8589 105.756 65.0884
46.2739 24.7506 214.39
64.5768 175.399 50.2822
78.6607 105.131 24.5188
69.9768 130.786 47.4833
64.2625 154.541 22.7803
45.4495 177.32 118.325
86.8145 123.709 48.1805
107.084 78.0939 100.409
1.8491 13.0745 245.107
31.8681 79.5532 117.866
38.6882 98.3642 131.173
77.7406 210.64 63.5131
67.6215 222.707 68.6402
36.2111 83.6419 135.722
25.8811 107.344 64.0861
26.771 4.85098 213.443
65.1945 210.736 115.081
61.2756 178.576 43.3658
27.3809 136.316 50.8616
75.902 201.387 81.9165
93.803 161.02 60.969
58.5795 64.6727 75.9731
21.4997 165.189 101.615
64.0561 202.811 115.185
38.245 177.923 59.7453
30.3611 174.744 81.3923
86.4955 137.78 83.3784
105.89 86.0947 100.972
76.3302 157.106 14.4924
44.594 117.647 106.284
83.3523 172.633 148.979
64.4636 67.0951 61.4609
104.305 82.1618 125.519
100.637 102.358 72.8778
90.9931 60.0375 47.0056
44.4981 188.683 105.401
76.163 137.35 33.1912
50.4318 175.092 121.584
91.4406 159.339 71.2203
34.8676 118.538 83.0465
34.7372 109.812 131.486
81.0636 196.333 64.1282
52.6743 169.013 110.999
71.065 92.1504 23.5107
72.493 59.236 113.952
21.311 127.877 73.6835
22.0909 162.392 57.4237
66.9657 224.741 59.2469
17.2788 124.562 57.1199
52.8727 194.661 132.4
46.3054 137.805 117.328
23.4531 15.6382 220.255
3.5685 81.8404 120.505
107.492 120.382 75.7437
55.1949 192.104 101.837
55.07 75.7381 42.5018
35.1034 134.984 140.586
11.066 12.9138 243.825
102.956 169.884 68.4665
9.8508 181.842 70.6096
85.0624 87.5022 9.10254
70.2929 193.372 101.342
80.2983 143.352 15.1521
35.0438 110.443 80.3843
73.8768 148.254 164.2
30.5181 38.9052 216.076
24.0951 22.797 251.556
30.1747 166.719 130.852
60.4216 125.849 56.6206
47.5095 91.5932 50.9845
10.8044 21.6347 195.514
23.4903 190.95 110.007
87.706 155.372 39.6939
53.7293 108.977 157.533
65.3292 71.5783 101.549
99.8871 120.487 77.6589
2.87517 27.0306 218.805
63.0637 186.825 48.9772
60.2328 219.144 49.7161
56.2893 200.055 118.242
88.9376 164.822 79.5777
22.2269 53.3399 196.355
39.7438 176.095 118.751
99.0585 127.929 151.52
40.5363 149.949 160.484
52.1411 128.203 160.088
91.187 81.3501 132.587
61.571 77.305 59.436
39.6503 174.566 139.4
2.49624 112.15 130.766
32.3961 191.311 77.511
37.3713 100.681 153.267
7.11256 5.13005 249.877
82.2791 200.294 116.273
37.3858 18.654 209.834
78.7525 77.7652 19.0476
8.94292 156.084 117.554
4.08132 10.4613 229.771
45.3237 20.0933 221.724
49.9351 175.509 30.8248
89.3949 146.642 73.696
24.3841 190.44 136.586
23.1542 141.153 88.9125
22.302 131.028 50.0965
10.6359 156.419 100.854
83.5221 82.2305 29.8375
46.7969 189.915 133.668
29.1543 182.264 123.172
27.244 84.6699 119.907
75.122 191.771 33.2455
52.3365 186.525 94.1519
83.2286 134.098 33.3563
48.6556 193.468 118.332
72.4951 156.65 35.4625
53.1014 129.364 112.699
49.0405 166.026 34.9425
50.5256 187.221 76.2639
17.0618 139.6 146.474
32.2332 112.733 98.0711
85.9014 77.02 85.1747
11.1304 161.342 110.425
92.7294 90.6528 63.0815
96.6468 144.09 73.5838
38.738 154.876 114.324
45.0744 113.412 173.657
22.0219 169.614 64.6577
46.3008 125.323 123.473
56.0428 67.6271 95.3599
55.1017 194.597 122.472
48.0535 130.723 39.3004
51.588 147.367 117.892
93.6016 153.088 65.1053
19.4982 129.469 97.524
94.684 163.323 36.3345
25.5757 170.281 56.9168
12.5678 129.133 148.77
38.0144 176.592 102.096
8.38041 132.422 72.7408
83.9518 126.975 161.483
64.5778 136.576 149.715
94.3769 88.1148 140.012
51.7387 98.9517 129.009
102.543 73.9223 105.368
95.0285 155.894 11.4863
46.4174 120.333 113.667
33.3876 27.7005 215.392
31.7346 35.5241 238.039
66.1094 73.5781 86.9268
71.1998 118.983 156.979
72.8282 84.6089 55.0986
60.2917 105.749 120.092
33.9282 49.3349 232.198
2.00144 139.994 107.462
67.7341 157.394 16.2816
84.0441 151.134 17.435
59.4453 78.3388 102.668
31.5686 153.399 47.9687
78.4787 193.31 98.87
45.196 115.918 127.625
21.6809 186.144 98.1998
44.1222 101.555 55.4776
73.0968 115.755 164.134
46.541 8.46008 228.587
98.2607 187.865 123.505
74.2226 197.457 73.3025
37.5502 87.167 95.1851
12.5879 165.434 78.064
98.1785 77.4084 110.02
75.6606 68.8335 78.6553
57.1996 136.269 161.448
58.9292 167.526 125.929
18.1785 156.69 55.7332
70.2435 91.0151 42.2281
102.426 199.924 127.433
67.947 142.332 162.554
31.1691 140.539 49.6165
110.14 158.295 70.1024
70.5947 70.3165 90.6974
62.5743 185.286 101.926
24.9939 178.721 114.135
73.6368 191.518 41.8333
46.5623 100.908 136.213
25.4426 38.8264 232.543
12.2605 30.1134 197.638
40.1366 88.2331 60.0443
61.3592 203.232 90.3471
73.4676 66.0568 73.7212
89.7884 88.7091 75.0621
61.3188 181.661 95.7038
30.7972 133.721 107.115
46.0824 102.8 149.584
47.002 121.093 96.6207
82.6911 96.0804 46.8738
115.931 92.5224 83.2477
70.3826 192.182 55.3827
31.4853 93.5288 83.9339
85.486 160.062 99.0651
72.9092 168.317 148.45
88.7821 127.637 17.3539
70.7825 75.8376 123.939
93.1085 79.3487 71.1475
62.3755 129.119 45.5886
32.9526 19.7408 221.279
27.6947 59.8578 198.741
47.06 87.8421 129.468
37.7105 180.275 74.3673
100.601 83.3613 160.729
86.6022 137.878 47.4183
22.022 32.278 188.481
76.18 161.383 46.559
91.023 132.993 157.925
63.2647 218.259 112.969
72.9136 204.576 61.6022
43.826 150.53 115.663
34.8553 32.2478 218.651
59.9436 142.751 30.9147
63.066 180.504 134.356
37.6699 183.335 141.292
65.5869 193.646 34.5522
94.2692 104.021 64.1178
91.2037 200.371 136.858
54.1917 136.021 154.492
90.4144 161.895 151.878
44.1843 164.797 154.274
2.28915 166.471 104.15
4.43886 143.025 90.9417
99.2377 69.3001 133.816
55.7798 81.3352 123.892
74.7915 69.1505 84.3848
83.567 118.833 41.1184
61.9198 73.3877 93.4753
15.0121 115.17 140.574
57.7416 110.621 114.671
76.0617 82.8385 47.4507
32.23 78.4275 89.2106
87.0136 105.053 165.826
79.9364 135.232 11.6879
28.7752 162.68 99.7352
47.8692 178.934 132.98
60.3952 89.0203 133.64
15.7347 131.97 86.939
48.3569 78.2585 95.3517
88.9394 147.847 62.2149
92.4105 136.647 39.2748
71.8799 99.4547 153.122
87.2077 80.863 57.5179
53.068 117.996 116.905
60.8519 94.1546 153.882
29.1739 192.847 86.2999
94.782 71.5939 85.8
63.8784 192.347 81.1665
52.2977 212.329 63.58
39.0093 128.827 33.3591
67.7922 183.803 124.598
37.375 80.9395 85.8259
76.2197 178.385 84.7091
56.1691 183.87 55.9734
23.016 49.1518 233.281
89.3101 74.0284 65.0395
65.1653 123.376 32.624
79.0333 133.668 62.7788
35.7438 2.37299 245.429
110.846 113.871 77.4275
18.0214 142.416 57.5299
49.9013 67.8553 90.0315
31.8317 98.8907 55.7092
28.7436 2.88589 249.255
17.9322 132.874 148.129
78.9124 150.889 25.3673
43.7906 189.486 125.345
17.8097 149.157 73.6913
84.5012 80.6471 21.2522
18.2081 174.505 58.7445
76.9622 166.894 24.8294
10.3121 119.649 91.6665
92.915 150.252 11.7039
71.5308 192.002 64.424
93.5711 112.038 152.806
57.2788 83.9944 109.083
67.5389 63.6867 108.351
38.6743 136.819 49.1171
10.1854 21.7216 207.099
12.7023 5.80764 256.485
71.3821 90.6901 113.462
9.02596 5.766 218.905
58.8097 163.647 160.08
100.034 194.724 114.014
97.4693 133.832 31.0421
83.9845 124.399 18.0489
20.2514 5.12738 216.824
7.62015 46.8466 237.598
67.6142 130.927 40.8622
41.1308 110.322 154.234
87.9658 135.025 11.5891
23.3396 135.669 149.33
62.6053 96.788 36.2365
130.823 83.7445 39.2407
69.519 125.412 55.9607
55.1517 191.525 54.194
95.0069 161.802 75.8743
41.2768 150.192 36.94
11.7702 167.401 97.279
81.7709 130.466 39.5404
41.7718 19.4881 213.592
34.3918 142.9 152.86
28.285 189.741 129.216
30.6418 55.2373 217.479
29.1205 188.249 114.061
27.453 133.799 115.183
61.0412 171.047 133.641
28.0328 118.208 143.322
42.4532 151.318 121.4
75.0816 160.239 20.9444
65.7166 128.852 64.4917
72.0646 152.897 146.574
55.3127 189.6 65.1677
83.8893 157.876 46.1863
77.6294 57.8872 109.279
79.4151 141.708 40.4092
57.6227 201.374 107.315
61.657 122.101 160.319
55.9293 146.642 124.77
19.9538 177.362 91.3079
10.5942 111.304 151.645
75.5591 139.269 159.247
30.3532 95.2421 112.369
31.396 123.087 39.9968
68.7722 150.083 154.626
103.058 97.8746 65.2887
47.9856 124.431 61.8103
83.4205 87.5058 125.379
59.2851 107.214 127.405
112.172 73.6911 91.8481
17.5048 10.2507 214.745
69.772 59.1347 99.6921
61.5523 193.346 58.8717
70.4123 180.027 131.001
55.3708 165.373 133.245
129.713 29.8843 64.9203
28.3848 12.7292 190.444
57.138 182.113 67.1329
79.9788 185.764 132.533
69.1432 109.837 42.6308
101.561 78.2461 74.8777
80.2738 111.311 157.52
42.4942 176.552 51.7322
86.9112 159.736 60.5281
72.9355 206.297 50.2028
12.2846 37.2057 199.314
28.2023 144.395 126.312
79.5349 100.726 53.2883
86.3614 145.555 37.4593
100.037 136.703 153.003
54.4608 179.28 115.072
15.1212 30.9683 210.149
107.216 64.7793 91.316
40.1915 190.367 73.0012
74.2655 157.715 161.575
94.1421 70.0124 119.388
47.2146 160.449 124.143
5.5567 223.29 10.7942
66.5826 192.036 136.114
85.3991 85.0094 49.1018
47.8301 150.088 42.6334
85.5028 191.926 133.106
63.703 212.895 109.289
85.3935 100.325 36.8286
57.9987 149.674 18.3544
60.5641 181.119 37.3552
33.9929 32.1294 231.658
65.8224 184.203 41.3671
7.29454 16.7956 215.494
70.2448 78.0584 63.1974
73.0666 195.689 59.6791
29.8902 144.277 131.59
80.8224 117.019 36.3621
62.7497 176.747 121.81
66.53 157.904 145.901
18.8176 142.583 65.5316
89.698 80.3502 156.27
61.2423 204.127 100.842
96.9826 130.652 18.0283
100.791 165.735 77.0319
34.6582 148.129 128.478
62.9839 138.093 47.6274
31.1529 9.30299 252.89
30.609 179.612 62.1629
102.987 97.7487 161.485
73.4642 190.563 91.5948
86.3895 175.455 138.799
43.2345 178.26 106.244
70.4564 93.9594 129.339
56.4603 181.777 123.245
98.6844 160.774 83.0916
71.9999 138.549 153.701
70.7359 172.24 143.114
13.1005 14.1726 211.566
63.6233 97.9074 134.642
42.636 134.846 109.931
65.514 107.707 155.689
48.8351 94.5373 143.624
61.6021 185.175 116.408
77.6631 102.113 142.865
34.8952 180.021 119.454
90.0594 119.036 15.3445
102.578 88.9346 73.1515
78.2455 108.638 36.8842
83.4597 185.647 92.1724
45.8779 146.17 161.806
59.6048 162.596 142.313
78.3961 158.015 38.3538
75.0072 101.394 157.442
44.0767 138.711 161.724
59.6223 89.705 127.669
70.1216 195.853 93.476
86.6802 169.294 67.8641
92.2656 192.449 129.801
25.7533 112.502 112.752
37.9389 157.83 47.9307
84.3177 155.807 52.9533
43.2162 140.752 124.193
36.6092 132.145 152.588
40.8788 161.957 46.8021
115.297 75.0626 72.1861
71.7405 102.504 36.3211
30.8051 76.534 108.414
49.6243 67.6176 76.375
111.656 210.065 95.6717
62.4042 149.23 148.683
96.6597 98.4308 59.6383
24.645 100.293 47.9438
112.72 86.001 116.803
87.8302 156.633 13.9977
31.8577 151.62 55.4483
87.9864 167.319 145.844
63.7826 186.03 85.9321
47.0392 194.79 78.2072
41.5478 29.1235 192.303
93.7909 196.94 97.0276
10.1013 128.351 101.986
108.478 100.307 76.6488
37.5968 163.691 40.2384
86.2023 129.153 46.2352
79.6633 171.114 91.071
96.3535 146.945 83.1842
64.5407 100.341 42.7364
99.5813 107.755 80.8743
89.6793 93.5584 92.6503
108.311 164.563 73.233
77.1474 158.626 100.794
61.2123 109.975 163.491
28.3439 145.79 146.902
67.9705 164.343 32.6487
101.61 159.521 75.2983
22.7886 10.915 240.256
52.8065 110.31 131.072
55.515 96.6341 115.578
61.1647 229.781 62.8772
65.5811 98.3092 119.924
69.6217 175.283 116.727
93.102 194.632 108.267
59.7825 71.8016 274.667
95.5034 167.746 80.83
68.3241 185.187 64.4136
50.5063 174.765 102.652
62.4172 185.934 72.0701
49.1219 189.964 125.963
68.138 115.829 160.705
42.9141 115.596 150.397
80.1235 124.219 47.924
32.762 141.538 55.4393
55.5554 67.3994 79.5664
105.751 77.3795 146.704
6.2914 17.6461 238.734
50.1593 137.466 110.923
91.1839 194.962 88.7341
39.9476 138.819 158.525
25.8505 47.5794 227.252
38.2636 51.7095 197.208
88.9446 91.72 54.9575
107.324 92.884 83.0581
92.44 166.838 24.0309
46.4901 187.44 37.7367
45.2286 188.486 68.012
70.5237 70.7063 116.41
95.8132 105.005 150.076
78.9342 125.218 153.982
81.0775 186.31 41.3453
65.6818 96.7146 1.2096
57.9388 118.897 111.919
70.1095 158.211 28.1741
99.5089 74.2218 121.467
108.324 106.545 68.2548
37.1271 30.6006 225.079
27.8813 170.769 90.4183
53.0886 125.394 122.101
64.2084 194.396 117.872
59.0349 192.038 89.9945
90.2342 197.418 118.89
55.8472 196.325 89.9403
109.221 81.8758 55.4882
78.8168 142.495 96.3758
15.4836 22.8358 215.952
91.4665 81.4136 123.886
38.3721 164.636 134.723
114.923 114.245 65.1985
49.2077 168.86 26.3711
85.6484 158.193 159.158
44.0064 115.196 137.339
88.9707 86.7446 91.0707
69.3037 135.355 106.598
105.108 102.811 94.4149
33.0984 86.0131 49.9852
20.4452 182.701 90.5615
22.0952 152.461 55.8774
80.5106 190.537 76.7835
87.2186 114.318 155.124
75.2562 140.716 47.2972
77.0985 205.199 65.8237
80.4848 133.453 78.2495
84.9272 186.882 63.2669
77.924 193.313 68.8094
112.619 70.8614 77.9519
104.117 87.0419 132.355
79.9419 164.136 97.2216
63.4671 104.625 50.046
103.973 104.589 145.133
91.9049 158.689 86.2812
118.717 86.5456 125.339
49.2902 200.22 76.3599
39.3217 14.7276 204.545
71.6612 159.302 154.186
99.3346 108.358 62.3124
111.087 107.315 83.1404
50.9808 185.55 126.566
108.358 90.7472 128.098
97.9 105.092 89.8465
107.577 75.2827 113.888
44.5876 130.061 135.488
60.2099 174.588 100.093
77.3089 129.424 42.1537
106.207 126.388 72.5598
35.7639 135.561 109.532
22.2335 183.615 115.594
84.4652 137.294 93.5481
68.8395 183.44 52.6307
85.4289 78.0807 66.6579
99.408 195.014 104.399
8.65548 150.742 103.857
100.977 91.9592 137.72
22.6791 182.736 125.814
70.1847 182.632 88.2591
106.262 93.7054 92.8462
12.8826 52.0668 223.961
77.7271 185.666 51.0603
96.533 141.802 34.4484
20.8797 139.275 141.693
37.1041 114.801 154.751
113.762 67.3664 70.9778
75.3739 153.427 45.4678
18.5468 179.773 113.83
51.501 73.8141 125.132
84.7988 143.405 56.8456
86.0781 189.652 72.8327
