ply
format ascii 1.0
comment Created by Open3D
element vertex 216
property double x
property double y
property double z
end_header
88.4239 156.266 89.0337
81.2036 139.572 85.3116
73.943 133.411 117.216
87.3331 105.673 123.029
93.3675 107.138 73.603
108.928 18.7418 193.387
107.213 132.734 135.851
107.011 152.348 114.677
67.8732 128.349 96.99
76.3404 108.888 99.065
97.3383 130.586 125.797
74.8856 108.593 90.7649
100.594 20.8396 187.616
97.5539 107.309 124.595
79.5432 118.664 88.3987
104.112 145.564 124.143
76.4697 103.892 107.121
98.5331 152.14 118.743
90.3846 93.6033 96.0675
103.667 105.85 124.291
99.8624 125.447 125.517
82.2366 13.3251 167.538
86.5622 148.035 94.7992
93.258 159.915 93.5912
96.0191 151.622 99.021
89.3799 110.678 95.2953
100.165 121.817 138.274
77.4423 109.595 118.869
99.5512 46.734 177.403
71.9477 118.317 116.614
103.004 116.122 123.246
19.1187 222.533 199.058
95.5077 100.801 82.2337
97.7078 160.742 101.498
88.0585 117.902 96.305
102.61 143.419 109.588
98.3687 147.455 73.3548
102.872 100.631 117.408
112.705 150.245 99.7376
76.6977 115.892 100.732
72.2227 135.558 109.851
103.59 141.314 130.923
120.479 91.6948 98.6637
82.0457 104.322 102.522
86.2138 42.3288 160.856
86.953 132.587 103.91
94.6185 100.081 89.3161
92.8674 115.084 84.3879
106.454 154.112 102.425
86.8117 144.977 85.3156
88.2164 44.6863 133.172
127.433 38.4025 203.278
90.3174 104.482 80.6113
82.4834 21.808 142.222
86.267 102.296 110.958
98.041 67.0487 160.452
85.3496 115.879 127.729
75.557 131.444 77.5498
75.8332 123.117 93.0311
108.097 124.235 130.58
46.1954 3.71443 156.703
41.0797 4.86949 161.145
98.443 113.736 135.163
99.5881 155.163 104.177
83.1825 107.809 117.008
92.9595 99.0235 104.736
90.6801 143.191 102.818
79.3785 132.598 125.741
89.3925 129.482 121.673
113.978 91.8003 96.9428
83.8849 18.618 158.677
76.0214 137.885 94.4959
89.7989 122.476 122.884
138.801 31.785 210.376
111.41 74.1017 154.437
90.4633 140.105 75.8767
84.1751 132.488 89.9205
105.141 88.2412 87.6791
90.5016 53.8324 143.76
83.545 120.935 75.3851
111.906 46.3294 188.329
80.5962 96.3604 96.1485
91.1751 102.359 99.2675
84.8797 39.0899 147.79
91.0141 116.082 72.3116
88.3286 139.662 114.69
113.813 110.799 133.432
84.4324 126.887 81.8958
99.4133 98.9648 98.6418
113.25 135.261 134.435
104.453 112.422 135.335
88.6103 23.152 120.039
83.201 120.648 103.88
99.9867 130.145 93.444
91.9541 140.296 90.2837
89.7358 107.955 112.634
115.786 78.0012 137.855
113.113 157.399 85.5275
82.5562 125.299 113.868
89.4094 121.724 68.4452
80.1571 126.199 105.458
73.2426 121.705 102.211
93.0276 147.49 112.566
92.0744 115.996 132.28
90.445 112.947 118.318
109.162 152.07 121.727
73.7541 110.146 108.956
94.9561 110.925 92.3634
81.8302 137.289 76.7702
84.4192 115.3 81.1585
19.9552 1.62509 180.864
93.1378 137.713 122.112
88.4063 207.152 124.219
81.037 118.552 110.407
119.349 151.459 86.1941
115.194 136.791 125.158
96.8 42.1371 112.453
86.8388 2.94783 160.495
98.7317 98.4335 76.7275
102.99 146.069 79.9932
99.896 137.665 123.362
96.3515 139.93 129.634
88.9793 130.472 133.856
92.7066 99.1392 121.977
72.208 127.886 89.3377
81.0936 120.226 123.045
85.087 141.482 118.689
100.954 136.1 137.296
91.1118 117.853 127.361
120.538 93.5961 113.997
115.136 66.2981 173.114
86.8896 116.671 90.3005
73.3211 115.977 107.4
126.852 83.9718 143.617
111.961 16.6648 201.158
100.274 99.952 105.011
92.8377 121.016 134.219
83.2313 132.72 98.8972
87.539 137.811 99.3622
86.2665 102.648 95.2991
110.303 129.728 124.615
111.09 92.0376 105.568
93.4995 10.868 180.87
93.0454 151.702 115.346
95.4525 143.989 118.751
116.637 130.459 123.205
112.686 145.435 128.597
96.8449 230.301 71.2146
91.1022 150.709 97.7148
87.0967 103.39 84.9809
77.0581 125.686 114.165
96.4921 183.359 96.6537
102.773 63.7795 123.921
101.631 67.758 140.822
76.9867 127.632 99.8141
96.2749 98.4353 110.016
89.6493 203.611 118.175
95.2341 140.441 109.402
107.573 3.23514 191.061
90.4631 124.786 90.9893
122.634 43.9704 195.71
93.157 28.615 178.788
107.347 153.906 94.253
96.1031 143.779 97.5149
107.004 141.784 102.25
102.661 105.105 88.6978
95.2328 108.075 120.147
122.48 76.7721 163.847
103.163 184.401 90.5883
105.539 93.5744 108.434
106.131 148.846 104.892
122.354 147.352 115.293
104.859 65.3284 165.152
124.653 25.528 200.732
123.35 151.945 111.875
114.326 150.085 114.798
128.231 80.3861 123.232
98.2216 145.504 91.3071
112.416 119.628 137.275
111.586 142.285 121.162
89.9588 101.78 116.898
92.4128 188.148 92.4446
94.5956 55.6992 163.381
109.687 145.06 73.5936
105.55 92.1516 116.013
108.473 147.98 85.1768
57.8729 139.008 60.2446
70.7932 187.887 52.4251
83.7702 107.572 76.7871
118.581 93.1753 104.552
88.1342 109.3 76.622
86.9693 7.2005 128.531
88.5842 191.536 71.8098
116.048 19.0877 97.0227
121.962 152.836 105.081
107.228 1.51692 107.848
93.1827 104.292 197.267
100.82 99.0749 84.9368
121.839 53.9117 96.552
128.54 30.5297 168.692
106.429 50.8272 105.455
103.731 25.8801 102.203
126.239 63.4631 182.956
111.198 122.1 124.555
105.436 102.174 81.1909
110.638 107.616 117.516
104.844 104.022 75.7372
103.87 11.2069 106.651
121.098 49.2624 192.328
126.747 137.323 127.157
85.7738 123.318 93.6132
133.159 80.7146 161.907
101.702 105.814 71.13
30.1942 74.9463 181.251
121.97 151.449 92.5616
91.3514 127.472 94.799
