ply
format ascii 1.0
comment Created by Open3D
element vertex 187
property double x
property double y
property double z
end_header
6.33403 159.094 82.6485
7.27119 82.9848 106.745
8.54134 94.4171 95.6654
13.2347 151.281 79.8119
2.98069 155.171 57.9088
6.96947 99.1699 84.9652
4.85314 163.883 112.368
10.4758 151.64 65.8171
6.73592 120.198 10.9815
10.2994 88.1305 113.15
10.5872 119.601 124.394
12.0648 165.927 113.274
7.07048 152.085 133.242
18.5246 119.598 120.104
4.45559 143.27 82.8434
6.27113 118.884 94.541
12.5149 119.361 132.052
22.4132 138.869 70.3359
3.76031 161.411 98.9835
4.18726 76.6211 95.3919
8.04998 67.8796 104.592
10.616 97.7626 120.185
20.3951 136.662 121.336
5.29103 153.327 142.778
6.33507 125.113 143.962
6.04137 5.35662 6.07034
3.99106 80.9003 117.453
4.61803 167.075 72.5928
7.69261 105.237 92.9448
2.76492 127.32 157.275
12.236 145.208 92.4741
6.2975 101.824 114.135
22.2571 127.447 74.3615
13.0499 115.175 101.052
14.125 115.602 78.1219
26.8414 144.917 112.54
14.0482 75.0307 10.2301
8.27488 141.742 133.875
15.4191 128.089 90.1501
9.20054 121.036 107.634
11.8208 94.5227 109.82
4.21405 75.0943 89.2884
8.31182 103.001 65.3555
15.5806 130.377 128.006
51.4644 141.716 142.315
6.84627 158.869 91.7864
5.03006 149.531 50.8619
8.49099 76.6898 109.514
4.19499 86.7563 91.0521
8.1338 127.413 82.154
14.8531 112.832 113.596
23.9272 136.789 85.966
3.06008 97.2466 139.27
4.86291 99.9412 131.526
9.28343 75.8506 99.7135
4.32812 84.9781 77.9266
4.07014 88.9394 106.11
7.30507 108.838 127.715
9.44918 116.946 116.447
12.5056 112.339 84.6745
3.21283 157.607 150.848
24.6437 149.614 99.8065
3.05072 13.7935 67.4259
12.051 61.1028 11.1786
6.02202 133.638 140.632
25.8955 146.738 87.5159
4.18816 162.79 135.928
51.027 154.572 147.783
16.724 108.605 120.559
5.25389 84.7092 100.861
3.56146 141.333 152.755
35.0471 222.846 265.743
51.3492 38.9202 247.432
15.1971 80.7251 108.089
14.9683 101.446 115.401
4.46917 61.8504 91.9268
13.966 133.195 139.235
7.75607 88.0179 49.4667
36.7584 213.751 263.331
7.48024 62.4689 42.2797
8.57602 108.013 107.497
62.301 192.458 140.691
15.7235 153.266 86.5932
12.0966 91.8729 100.51
9.62376 84.8581 93.6555
10.1462 165.186 122.928
12.4428 142.555 127.188
8.56339 91.3871 71.7929
5.47736 105.915 139.149
8.80835 76.2059 17.4531
49.5873 161.109 149.405
4.4137 121.254 83.11
16.7851 97.2937 106.691
8.34159 101.776 104.63
5.63934 125.219 65.4668
15.3782 156.504 125.149
25.8893 142.126 95.3887
8.44626 137.314 122.329
4.48788 171.398 127.791
10.3119 61.6254 29.3243
6.19196 154.401 74.3419
5.48286 115.014 137.287
5.76637 144.675 93.0302
10.6735 131.092 121.272
2.84316 151.023 66.8174
15.0347 111.376 104.632
53.5497 151.002 163.956
8.94777 126.837 132.584
8.41331 108.863 120.075
6.65833 74.0699 113.469
8.25617 67.655 89.9874
6.51284 77.1109 122.497
13.1546 96.5442 79.6074
5.80486 70.3012 58.6894
7.72351 70.6406 94.1406
4.57119 111.614 89.2915
2.28349 140.318 67.0041
50.2626 154.464 152.573
10.0891 81.9982 77.4236
6.57086 58.2432 25.1267
3.46415 71.4466 85.4037
7.45013 104.753 76.8604
49.3338 130.063 131.203
15.1061 156.443 115.011
6.08865 116.093 65.7094
12.9113 88.5715 85.6694
6.01313 149.996 116.232
20.6517 147.893 113.259
5.60942 99.0989 94.8468
56.3434 138.886 140.143
9.89803 85.6245 82.4608
16.3491 106.296 101.61
8.87867 57.2484 36.9155
7.42339 134.869 51.2914
14.3001 130.375 61.3178
16.2 125.316 121.108
9.13277 123.317 100.606
6.05092 88.0534 126.959
25.6359 136.043 123.713
10.6728 118.499 70.9796
4.57666 151.646 100.479
16.3082 114.877 121.94
10.001 103.616 7.81768
23.1818 136.569 77.2702
60.8809 155.697 137.751
25.2438 134.938 111.948
3.46685 94.343 52.5978
3.31211 89.4462 122.904
21.0349 153.558 102.512
23.1917 131.15 93.4361
6.2294 158.292 125.983
56.8842 149.99 147.539
57.3703 153.537 132.888
12.4137 114.204 108.696
54.0207 148.596 152.567
26.1649 136.914 98.2461
14.6142 112.97 66.1244
17.0327 148.081 73.4257
56.9005 121.253 224.871
4.745 110.463 9.59097
53.1504 133.641 115.888
56.8367 156.325 162.966
57.2679 119.74 124.744
57.5148 149.406 127.575
5.6247 100.118 123.22
18.6154 71.0481 51.0432
57.0541 160.517 157.907
15.1262 137.534 126.29
59.3046 144.47 151.66
53.0731 159.036 160.432
56.3255 141.763 158.55
5.03851 114.429 32.7374
5.54672 135.36 57.846
9.07276 154.028 173.201
5.84659 76.1181 78.2853
57.2343 147.284 137.758
12.1313 94.9462 74.0838
6.39449 166.102 175.818
24.1149 126.259 83.9085
6.09585 159.612 120.652
2.74884 89.2134 26.5712
16.035 120.877 91.1666
23.7485 130.724 85.9648
11.9967 115.58 91.532
12.7928 134.504 129.001
54.9492 129.278 122.543
4.73806 32.7785 1.35924
