ply
format ascii 1.0
comment Created by Open3D
element vertex 216
property double x
property double y
property double z
end_header
22.7883 170.714 203.044
24.545 175.791 189.556
23.6567 177.304 175.117
9.71938 192.477 154.148
8.81572 201.275 222.579
10.9071 177.928 203.108
31.6712 222.698 250.111
13.4704 202.299 149.607
17.5818 206.004 229.86
17.029 183.801 263.395
17.251 176.397 163.77
8.88453 187.752 199.084
9.98088 163.258 227.817
11.6923 176.795 155.781
25.9243 171.917 225.466
11.5414 208.876 155.286
10.1651 177.755 264.145
44.1981 205.109 243.346
20.6235 229.159 147.143
9.39495 172.911 181.668
8.08044 187.277 169.044
18.5454 229.686 244.116
7.47748 193.425 180.717
11.1918 204.678 262.699
13.8532 227.044 209.486
8.29066 219.091 158.044
44.0402 230.499 239.431
26.5608 176.962 212.44
20.5733 230 219.995
8.59201 159.958 198.637
22.0847 167.942 183.546
20.9825 171.668 160.143
15.7656 189.361 151.914
18.5286 198.975 152.528
18.9322 180.122 149.872
19.6854 183.669 162.477
12.9629 166.114 184.743
15.4088 213.647 151.966
68.1183 197.956 175.315
98.9625 180.14 269.683
9.86511 206.532 211.084
9.17448 207.9 164.608
17.7274 209.386 145.293
19.4159 160.08 161.809
9.8017 165.243 170.799
41.578 197.597 240.286
17.1921 176.663 203.33
7.97917 206.259 202.871
25.295 174.129 249.91
8.16213 217.711 174.327
12.6431 169.289 191.959
109.321 176.918 273.604
14.4211 224.121 148.335
17.6009 175.855 236.131
50.5329 202.243 255.278
23.5313 218.375 236.731
16.2547 165.835 213.717
15.3617 220.705 262.158
15.8829 230.744 153.773
18.3523 161.625 175.135
10.669 195.317 250.326
20.0841 216.306 244.365
11.0786 165.033 165.946
47.7581 230.052 256.394
16.2423 199.859 248.996
44.5754 189.114 263.449
49.6714 222.059 264.146
7.91895 199.837 191.212
20.5596 205.772 134.819
27.3919 211.722 229.195
34.4265 215.911 255.619
32.752 204.69 234.809
13.657 210.785 141.863
47.2333 193.671 251.21
23.7358 206.657 238.584
6.78453 213.034 186.998
20.5604 219.194 144.866
88.7729 185.691 266.928
8.08366 165.011 191.836
82.0783 188.09 273.673
18.0011 170.587 169.372
17.4455 211.859 218.741
21.0312 195.967 138.2
25.4918 188.632 240.976
13.2615 179.71 196.193
11.6717 185.815 163.035
7.82884 170.409 174.892
15.3702 210.706 269.626
36.9455 211.327 237.18
12.3816 199.782 160.55
30.7915 211.428 256.799
23.908 169.249 154.882
37.6478 220.984 70.4829
29.9147 225.706 91.9153
22.4168 182.213 181.34
12.5851 214.214 211.223
35.6886 184.952 272.607
26.1381 182.583 269.868
13.1959 201.924 238.094
10.8557 226.066 204.803
16.6485 153.549 165.778
17.288 180.171 144.419
51.9641 210.811 261.055
48.5859 219.702 244.787
20.2907 179.619 248.429
24.3361 141.522 94.25
32.6649 216.637 234.096
9.78015 170.381 223.317
64.933 113.479 221.936
14.0747 178.837 188.572
35.6474 190.641 244.416
9.52884 173.376 240.313
8.05137 226.679 196.169
38.5739 184.326 261.721
86.3049 93.3426 171.323
21.2264 222.59 140.214
18.7086 226.953 49.2079
132.613 104.996 221.287
103.588 183.576 266.531
25.3407 228.161 211.268
104.706 123.004 214.104
32.2491 178.014 250.902
25.4619 227.215 52.1497
26.0299 198.134 238.799
11.3932 171.226 211.528
7.44355 159.712 184.153
15.3902 172.25 175.533
12.5717 177.426 174.522
26.9332 188.817 92.5724
24.0045 182.989 236.01
26.0354 165.205 164.977
39.0412 199.268 68.9834
34.2252 208.552 98.206
43.8364 216.93 238.275
32.9821 182.959 241.496
39.3864 119.909 112.401
37.6837 222.069 229.303
31.9414 125.065 164.999
94.7044 190.316 26.2454
15.3687 177.614 250.538
28.3459 196.869 75.2109
15.9831 124.214 197.71
18.2534 207.162 240.675
109.505 180.734 268.209
18.6892 194.595 144.045
34.0402 209.214 35.7976
38.1567 141.684 68.7426
29.4275 227.746 28.0425
57.349 151.525 83.4516
13.4663 188.913 223.412
9.79197 231.507 160.042
40.2111 141.055 182.207
10.2557 169.938 201.45
5.89865 150.784 201.478
39.2851 206.74 194.087
120.452 181.937 273.87
18.8008 221.231 274.814
52.7358 139.396 72.3013
30.9537 206.351 84.7947
31.7938 227.093 108.952
34.383 184.347 250.116
48.6776 198.553 273.375
21.3147 176.591 97.6554
13.9976 171.241 200.279
39.4688 119.655 100.053
39.671 231.427 226.331
36.734 227.393 90.9818
19.6609 216.87 69.0401
55.7963 191.685 55.1379
29.8168 227.059 227.073
92.1798 191.919 259.598
15.3562 169.937 225.732
27.4007 202.37 35.71
21.6712 123.573 178.747
34.0634 231.239 19.5566
41.7058 173.058 206.807
33.7125 180.324 260.582
89.3794 87.8432 165.193
117.56 77.7734 186.068
23.4946 216.253 49.0232
25.9611 138.672 178.12
43.7357 208.584 54.8021
12.3476 131.183 181.89
56.053 199.845 89.3673
125.159 124.744 192.834
39.1024 135.788 107.534
28.8853 163.601 118.847
29.5459 138.481 117.509
19.8262 222.5 244.595
33.7539 151.373 113.346
19.6098 130.363 202.649
74.7026 148.752 205.947
47.3042 168.363 105.939
126.377 72.2629 197.396
49.7646 138.32 88.2176
24.7792 130.004 190.642
77.1684 214.324 25.4875
60.9628 132.388 99.4103
25.8416 142.498 78.3501
93.7185 157.863 22.0221
39.3894 223.348 19.0736
25.4847 222.25 212.758
33.2263 151.928 49.5226
104.902 158.134 32.2139
35.5247 155.845 107.851
49.7304 163.199 170.667
48.0351 209.583 26.3482
13.3661 161.716 35.7474
22.4251 178.23 166.378
90.7295 216.704 258.6
42.0395 203.924 1.86351
20.6105 176.618 103.21
57.4662 176.493 125.908
21.2027 119.077 217.37
102.801 211.023 169.127
101.147 192.389 255.442
