ply
format ascii 1.0
comment Created by Open3D
element vertex 838
property double x
property double y
property double z
end_header
94.6141 77.6928 47.189
79.5418 89.4325 49.3184
56.6823 30.9381 217.391
21.1244 225.471 265.836
57.8047 55.5188 258.341
42.078 47.8652 253.858
99.5747 63.37 3.52531
96.6996 95.2909 12.5088
98.8743 83.5317 19.2297
98.2824 132.381 8.01318
69.6597 154.455 34.4562
75.8795 125.589 12.8716
102.294 69.672 53.288
83.5854 138.648 13.4397
14.0665 20.9063 161.513
65.8162 33.7418 217.274
91.6003 101.022 12.4052
12.4641 186.284 127.995
86.0399 172.946 127.473
105.556 129.562 6.77568
92.1514 107.532 7.86046
82.5547 87.2285 60.0888
58.9817 132.649 52.4671
57.1828 69.5586 251.645
87.7174 146.521 100.765
10.2777 28.0048 156.607
42.3032 43.5175 237.147
119.562 79.9035 18.7822
10.5831 224.731 133.713
70.025 144.813 27.908
65.0482 131.783 19.5575
56.3053 121.187 50.7005
62.7152 118.888 19.7313
73.9948 154.983 25.406
9.50063 188.934 95.5044
75.9861 150.72 19.0471
92.488 157.279 104.734
82.4637 110.373 7.03265
84.4853 128.259 101.436
68.8662 124.258 13.8495
89.9162 116.346 9.64582
72.9966 89.1268 28.4467
96.1168 76.3253 26.7447
90.8491 137.393 5.32681
72.954 160.786 58.4315
28.3774 83.2323 258.906
98.2082 141.067 2.73978
77.9303 94.7532 63.5911
41.8812 20.8653 257.463
88.394 148.921 9.11375
60.1928 136.064 36.6124
69.8461 138.635 79.0977
124.52 86.887 8.96277
27.0345 196.039 151.861
61.0225 102.932 27.4914
64.0173 107.286 61.6311
104.255 76.8256 21.5361
85.9057 163.795 73.2262
64.228 110.746 19.6592
72.6606 144.554 64.6478
26.8723 56.9602 247.778
75.1155 36.8753 220.222
82.9714 165.227 26.1556
71.7433 153.326 58.5048
112.806 142.862 133.621
6.96739 207.653 84.922
98.557 124.428 4.02035
84.5197 152.852 12.4403
96.5711 151.154 7.84936
85.9807 126.851 6.08423
64.2504 93.9625 28.8682
57.9436 111.507 54.8929
87.2634 93.5881 14.4359
50.6779 7.36223 233.887
39.8577 55.7947 239.693
24.3027 30.1322 148.451
16.8079 22.9514 132.352
66.9332 13.3524 225.18
9.81891 197.742 128.312
56.4091 7.94525 229.66
123.779 90.0523 23.1354
97.0473 71.0036 47.0825
95.0918 73.2221 36.0651
65.5316 95.6219 48.4066
72.164 91.1598 48.9437
65.7244 144.411 50.3863
12.2418 29.1073 146.034
70.2855 100.042 15.3587
55.6383 58.7028 236.839
34.2575 34.6015 246.627
72.4345 127.181 86.9001
100.609 105.562 106.032
107.053 162.417 113.446
76.7612 87.807 41.8308
69.9583 215.921 271.644
73.7586 162.701 50.7307
134.21 92.4867 5.80683
67.6929 29.4897 222.873
81.1196 145.316 11.244
69.1434 90.4159 39.6418
33.7904 44.9282 259.817
73.1422 109.29 10.1971
69.5408 222.123 267.398
95.2452 76.7178 57.5928
71.5327 184.917 263.745
131.02 136.092 60.0909
27.1938 27.6901 141.745
91.7057 178.867 58.7112
66.31 105.079 15.8945
92.5344 120.946 113.005
70.7248 158.716 43.0033
72.4585 151.56 51.0054
126.469 99.1158 2.6857
126.003 141.153 139.343
61.7351 7.77738 233.231
77.9617 136.849 88.9471
65.7279 123.027 59.294
103.27 153.411 249.22
80.4022 123.548 94.4198
104.685 219.899 103.938
51.1796 165.965 92.6095
105.517 70.57 65.1416
84.1423 202.403 235.368
68.4135 129.763 52.2705
135.068 120.321 59.8913
115.346 70.5154 40.1027
45.7271 61.0502 249.199
69.2918 97.6619 60.1956
118 51.9453 6.63507
12.4179 26.8649 137.548
81.18 151.25 91.6752
11.6346 192.291 87.7669
18.3506 211.481 67.624
55.1023 159.407 113.949
133.885 90.5035 130.831
104.651 70.7276 35.6869
49.5792 160.417 133.873
29.0226 11.3935 145.978
125.016 153.827 138.756
138.521 118.237 159.331
93.358 170.163 65.6916
77.0684 15.4709 257.121
88.3268 175.387 33.1018
93.7185 118.253 5.17022
54.2272 14.9993 227.196
89.0681 128.599 112.9
80.1646 9.22855 228.778
11.2935 214.265 138.613
84.1255 132.689 6.5495
68.1979 146.935 60.8666
76.8175 156.874 65.8443
75.6866 91.2961 55.9951
62.4618 134.631 28.2699
26.4999 202.221 144.678
121.074 100.118 132.943
106.395 139.453 125.252
87.9629 78.408 48.9433
90.2929 208.967 232.298
58.7859 9.14024 128.388
129.629 136.295 200.904
7.96643 193.179 107.44
86.5345 162.306 262.944
132 176.098 218.445
73.6279 162.525 32.4886
34.1781 211.703 147.98
56.3643 125.908 39.8856
78.3273 195.576 242.706
105.628 179.504 25.0756
129.092 198.732 218.738
102.993 124.287 122.688
70.9662 137.631 68.6914
130.095 77.3165 63.9077
82.9814 91.13 67.0198
17.4927 29.7795 156.621
92.3655 109.545 108.305
102.963 154.735 115.049
67.9193 107.752 68.6273
100.366 33.6869 219.859
54.3544 113.601 40.864
104.377 69.5704 43.7075
22.5234 23.9967 157.275
123.173 73.0624 71.4774
6.7984 226.488 111.832
127.636 69.3923 36.1637
29.6183 71.7668 245.254
102.292 109.077 2.32875
10.4034 202.575 69.2779
68.3788 169.594 101.835
106.615 165.161 15.3696
90.4709 21.7821 218.504
91.9508 125.393 7.64191
6.40691 222.216 104.618
34.9092 39.0723 2.84625
34.4768 26.9068 253.762
123.213 170.03 223.76
61.5589 186.542 149.262
81.1944 95.5245 14.3474
74.3802 95.8189 14.5718
82.6189 171.053 36.2065
104.51 175.935 33.9685
99.2221 172.133 65.2644
66.48 6.83597 258.726
71.5673 100.048 68.5565
61.6653 60.847 244.355
122.954 184.058 254.178
109.544 70.4305 31.3844
119.227 73.1014 97.9783
57.9525 187.003 158.956
75.0178 110.179 72.3991
90.5091 230.115 247.507
75.5243 118.3 69.3035
12.2356 13.5674 155.615
138.041 189.119 217.445
136.907 229.562 232.389
67.2629 130.295 59.8595
26.6588 40.2126 267.194
96.9946 27.0798 221.489
98.7697 167.385 14.513
82.0613 123.956 88.6507
81.7548 103.173 9.16485
82.5734 81.8304 34.7067
79.8735 126.336 6.11569
83.2692 119.011 6.12165
118.433 205.394 222.666
58.7701 167.328 88.871
117.439 149.623 135.287
8.63828 199.248 76.7204
130.109 90.7545 19.3135
57.6217 123.416 28.926
67.8631 78.1819 262.903
7.24296 209.209 70.7918
7.63721 203.778 104.088
74.5507 189.366 252.99
75.1038 88.4847 35.2566
95.3753 97.6067 103.521
89.3194 77.6198 36.7313
65.9696 208.87 274.019
40.5176 55.8768 251.58
88.4417 159.089 19.1164
121.141 139.433 252.141
23.8298 29.8886 154.361
131.95 64.1982 45.5901
118.177 209.563 255.226
75.3031 98.5713 74.4843
7.36415 214.09 121.441
134.153 82.5439 123.549
6.33512 230.125 94.4961
14.9972 6.73135 141.989
78.4953 166.45 47.4837
126.236 145.535 242.741
116.065 65.8435 46.7861
116.744 128.553 135.963
49.4272 57.6832 239.024
9.13694 230.045 85.9526
41.5351 180.72 72.915
87.972 41.8928 223.298
34.5551 36.0732 259.016
114.19 68.3674 64.8926
87.8168 80.2018 57.6998
68.404 22.1453 223.362
79.8489 20.3967 245.314
133.287 66.4593 61.8236
7.53466 192.889 119.662
20.1079 225.124 69.5939
80.5603 160.858 80.0026
114.826 168.406 228.237
78.405 89.749 23.3192
98.2357 6.24321 229.506
73.115 133.865 15.7007
137.454 133.208 144.295
84.0223 83.625 49.8778
92.4651 167.699 244.51
122.354 184.114 221.342
105.69 88.2768 11.8636
74.7357 145.169 15.8247
28.9364 222.973 148.634
97.8657 115.033 3.37888
79.9297 158.836 22.2678
136.58 211.411 221.116
88.7652 87.8187 20.7227
77.0557 230.561 266.854
136.449 76.1089 29.2369
88.5454 104.066 97.841
69.5318 4.64058 232.809
78.5355 161.295 121.508
92.154 200.988 121.791
67.5499 10.6479 269.618
44.7461 198.158 63.1026
97.6935 152.216 117.486
52.191 162.85 109.297
84.8218 142.391 95.1031
47.0273 13.3423 239.615
130.774 116.743 137.919
61.8269 26.7931 271.329
63.5431 163.536 139.92
127.151 107.746 136.663
109.899 157.722 123.168
93.1941 162.509 13.6239
8.97316 180.314 107.972
68.2872 190.369 68.5697
125.233 77.3247 114.163
132.546 164.601 222.405
106.752 154.233 5.66503
49.8628 8.43744 249.84
65.2983 144.322 36.2761
86.0129 169.873 250.871
115.176 154.647 130.933
97.0587 44.8594 251
91.5448 19.123 227.025
28.572 23.9422 150.123
42.7266 48.7228 244.183
103.855 43.8771 2.80871
74.2425 224.519 255.98
8.35589 224.619 126.319
45.0712 166.63 100.523
82.7007 96.8851 74.5877
93.0181 174.863 107.119
121.703 157.335 231.83
113.99 147.492 248.403
13.4909 226.408 70.8536
51.6266 24.5155 225.706
60.7139 51.5183 232.866
82.3223 162.73 272.457
112.275 84.6416 11.2943
66.1707 117.124 65.4372
111.103 131.44 131.811
38.1781 163.58 135.066
96.6391 89.0118 15.3723
49.8202 13.447 256.845
110.628 145.459 267.296
121.316 66.4768 66.0693
30.7766 29.047 265.905
50.9319 208.986 157.356
44.5833 221.164 151.695
29.8993 168.306 133.622
64.2319 140.462 57.8206
5.51617 211.118 103.826
127.511 69.6507 77.3626
67.2626 180.27 135.973
117.754 151.136 240.631
82.0662 23.0837 217.138
66.6463 97.1327 22.6777
77.9665 168.475 58.2979
85.6827 163.037 88.8259
91.7985 218.744 237.674
26.1318 87.3465 274.028
78.6414 152.352 79.3929
25.0175 181.897 146.812
98.8252 135.358 117.107
99.897 182.983 61.9855
91.5039 34.3856 219.798
111.643 92.6509 3.22955
50.8855 160.624 100.97
112.253 190.731 273.917
123.977 63.152 53.2621
93.7848 220.434 126.909
125.452 70.4116 86.6358
77.7539 158.149 52.0843
71.0368 150.476 68.0248
118.68 130.863 266.979
129.149 142.758 257.189
86.3048 177.185 101.207
109.145 100.55 4.51542
19.8263 49.1206 258.443
138.606 72.2883 38.7101
78.0832 141.615 83.8228
106.833 138.446 2.04507
26.0099 14.5791 137.682
118.512 162.204 130.208
18.4157 18.1462 156.018
9.81937 193.419 132.494
68.0207 172.602 141.116
95.7266 189.367 231.775
83.5008 223.69 243.882
47.4795 51.2189 233.651
137.205 53.323 200.224
95.6377 145.037 118.109
47.1291 160.455 114.137
28.9592 176.103 137.826
63.6469 16.6224 228.116
32.9515 205.858 151.992
127.789 80.684 23.3339
101.738 208.214 230.256
74.3041 26.2368 219.409
134.241 77.3259 116.625
67.738 70.5015 265.753
115.086 217.32 226.82
56.1394 166.312 98.0548
102.062 207.534 91.6384
137.104 197.985 217.93
11.1813 214.319 71.1144
101.92 100.196 4.56014
134.84 144.972 144.507
101.693 109.466 114.267
78.7445 145.596 71.2537
23.8845 186.836 140.986
89.7425 81.9863 25.9659
107.224 80.3568 98.5861
127.995 130.759 266.466
87.9779 169.133 67.0141
114.623 143.311 273.876
52.5911 90.5001 264.477
28.0163 216.733 148.447
74.0608 174.646 273.612
76.0452 117.448 10.9525
70.1451 161.259 109.154
71.4406 166.798 143.542
72.9815 130.139 66.088
61.6709 134.062 45.2673
109.131 150.205 124.706
114.601 77.2256 95.4792
87.4539 122.388 105.602
131.171 141.495 246.725
92.2235 83.2063 66.1511
107.775 17.6082 222.818
123.153 93.0111 131.87
105.122 210.257 101.162
74.7286 139.3 17.9365
66.2137 55.1165 242.483
54.1532 218.227 111.478
98.38 17.8641 232.515
75.5002 129.25 79.0877
80.941 169.117 115.012
137.868 144.482 256.468
56.9263 66.8973 241.98
100.113 73.4879 70.1928
87.9247 137.12 108.408
25.3881 177.396 82.4782
113.652 99.8219 128.567
31.3532 167.762 98.679
43.2568 69.5027 273.377
89.2298 179.263 240.702
43.0616 76.7903 245.951
116.987 38.3738 2.46632
14.3067 206.049 141.586
68.9602 205.254 258.667
35.5246 195.301 157.505
25.478 12.0169 153.164
59.748 155.882 132.337
135.502 70.3377 100.415
71.001 152.461 43.7209
138.499 89.1552 13.3579
18.6509 14.2534 133.275
102.398 197.548 271.863
76.715 39.3066 254.23
17.4625 176.754 92.2269
86.105 31.6918 215.402
106.901 175.035 228.696
135.574 81.7072 19.4879
64.7284 195.155 273.533
39.7524 163.912 105.489
104.243 217.004 96.5852
121.128 86.0534 125.84
8.39965 218.96 79.4185
28.3266 17.2298 156.706
85.02 170.874 59.0193
106.582 213.54 111.828
73.6982 12.3717 229.961
17.6401 13.3221 140.285
42.1391 34.9391 234.357
126.413 189.602 218.906
106.586 186.456 43.2842
105.244 183.999 50.555
76.2517 144.422 76.1934
10.4037 62.5343 258.491
78.5612 171.113 262.895
19.8147 30.372 143.078
88.2175 188.906 236.237
57.9821 109.093 32.0119
118.211 64.9401 6.27349
43.6715 5.93243 244.225
77.9046 153.342 73.5571
42.2472 171.661 81.3257
100.122 124.449 115.163
127.773 71.1917 99.6423
94.8292 40.1379 241.729
77.8331 12.9493 220.16
85.5481 15.1467 238.14
135.15 166.252 140.525
112.66 169.356 13.6826
46.2518 176.586 75.6403
138.313 170.648 222.731
104.162 86.7751 113.747
98.4118 226.64 119.138
18.6411 180.315 126.835
110.795 189.081 223.036
72.9252 18.4432 221.433
12.6571 196.092 71.9805
16.2834 79.69 262.087
83.8687 17.5436 223.441
109.229 43.3562 222.051
81.0303 28.5652 270.171
22.5078 223.26 145.612
44.6581 3.12402 132.6
50.5608 26.3132 274.154
132.906 70.5816 78.7254
20.6173 208.011 147.052
68.8207 139.275 48.1008
95.0786 229.918 90.9124
79.9428 177.908 251.483
128.529 128.236 140.241
116.24 71.5835 30.4406
136.728 117.557 141.843
107.992 120.968 128.125
95.1354 225.41 88.2975
12.9545 227.432 83.5331
76.1245 223.613 139.78
80.0166 32.5243 218.354
137.918 176.758 207.129
138.871 91.6273 134.6
10.1488 230.897 70.2436
111.673 74.3771 86.1833
105.798 112.162 126.867
138.41 39.113 186.23
115.433 227.302 233.622
36.9918 88.2296 258.554
23.4925 7.85532 146.168
67.5056 67.1918 273.616
89.1837 168 113.488
98.26 215.916 118.314
43.7167 187.803 67.976
113.42 77.1288 21.4075
104.14 184.941 67.0096
68.3058 183.464 274.303
40.4532 166.148 93.9878
81.7666 108.395 87.2699
53.932 174.493 76.8257
116.661 127.212 269.819
90.2157 11.0327 227.385
77.6963 163.062 37.8462
11.9631 190.19 81.0832
100.349 42.1645 224.59
135.5 35.0292 199.286
52.556 18.9218 229.494
35.5657 188.704 66.9043
102.98 27.4632 233.74
133.354 69.3171 37.5218
76.4063 28.667 259.358
75.3425 117.132 79.7767
87.105 169.125 133.853
112.616 186.271 54.8221
119.523 188.251 48.6283
71.0136 125.23 76.1246
64.8306 60.8286 269.683
99.7899 173.019 235.291
135.195 158.279 144.072
37.7135 14.4108 251.639
63.79 65.1722 260.25
60.5902 117.642 61.8711
64.4521 83.727 272.052
81.1492 151.044 85.7918
79.1455 224.318 71.4604
121.12 165.222 123.069
116.124 184.627 33.1919
11.9652 206.154 135.541
106.861 202.044 110.673
130.017 75.338 1.93452
93.1812 183.192 44.8199
137.722 142.537 243.32
81.7529 102.417 81.0561
97.0499 43.9391 214.658
32.0157 204.622 102.104
120.325 190.342 258.006
105.742 157.301 240.799
45.588 24.5646 267.581
102.433 168.588 21.3835
66.4103 1.96109 244.831
93.3766 80.2704 70.2834
105.448 184.314 226.312
104.987 223.082 111.869
130.195 180.515 195.351
123.991 185.951 42.2161
20.0491 8.0973 152.058
40.876 32.904 264
138.111 69.7689 81.9499
61.1332 99.7592 50.8172
71.1633 4.37488 128.388
28.8518 170.415 121.476
72.4491 172.917 93.7974
118.681 90.1488 8.14496
62.0473 96.8713 36.429
14.1878 182.245 95.4793
7.83091 206.865 127.051
97.579 205.34 83.3693
104.489 2.59038 242.465
109.94 92.6224 124.275
109.772 8.11382 237.945
49.61 173.251 86.1361
137.126 127.361 57.5753
77.4037 201.819 73.5008
93.9474 207.557 77.0544
51.1088 36.5486 226.69
105.561 113.205 121.182
112.266 65.1995 56.8084
72.1249 14.4588 252.3
101.545 219.081 90.9026
47.357 64.4889 240.581
105.942 77.0096 82.831
62.9813 144.995 41.2541
137.294 181.232 220.796
106 132.944 126.916
69.5084 122.832 67.3376
93.7584 88.734 88.8971
36.3624 207.023 61.2332
87.6643 228.875 81.9844
8.00757 197.32 115.185
82.9063 230.954 131.19
34.3341 166.107 121.993
102.245 96.4295 109.521
17.1987 182.93 84.4213
68.5149 193.966 258.793
88.0458 141.092 112.235
98.0617 198.814 86.5031
134.904 39.5308 220.559
114.414 179.808 24.0252
69.4077 164.883 102.395
20.1927 206.193 141.933
132.564 221.932 225.118
100.651 181.986 44.9601
80.0964 212.5 240.365
64.8776 165.59 113.342
18.3698 191.574 138.177
93.9765 21.6561 243.269
91.1525 176.131 44.2495
26.4171 222.173 64.8918
70.196 49.1362 257.407
74.0996 215.612 67.8293
19.0722 196.077 70.7331
82.4982 231.133 255.27
99.5429 43.7419 261.618
88.3993 83.8318 75.9918
36.4232 66.5702 274.621
106.49 32.0571 227.769
16.8565 179.301 109.448
81.1857 6.97335 235.453
103.625 191.96 104.606
127.24 211.613 221.223
97.6058 148.901 272.081
91.4035 187.193 110.415
139.103 66.8092 37.8958
137.435 102.701 139.628
84.8818 173.7 46.8868
23.7513 207.934 140.569
13.081 180.303 118.915
87.1873 217.306 74.243
26.5408 175.014 89.9951
40.2512 17.1376 242.189
94.8013 155.499 259.879
44.3594 159.248 126.007
103.154 213.926 119.004
54.7397 181.571 158.529
22.0844 189.275 72.7751
137.481 85.9897 24.5361
75.6798 2.81883 240.907
137.449 199.937 174.934
21.1842 201.822 66.5684
74.3687 29.2823 272.106
69.3982 144.344 57.2996
124.313 193.762 46.4325
87.775 174.986 112.727
96.1336 1.64299 234.272
100.589 83.1211 89.918
126.94 141.057 274.577
68.0211 189.91 155.648
139.219 64.1719 205.699
25.2484 18.858 143.23
120.771 118.258 134.817
73.0407 169.359 117.012
135.993 153.589 231.267
26.1376 20.4796 152.197
49.6815 160.338 123.493
63.6255 193.571 72.2513
94.2959 34.88 248.137
100.639 101.285 117.985
96.1986 175.326 62.9422
22.6302 176.858 139.455
138.59 18.387 201.543
102.471 84.9199 101.99
111.387 160.067 233.5
13.7266 184.213 117.28
137.978 193.849 198.741
53.6299 181.062 137.847
82.8863 27.6715 250.098
47.1799 217.25 155.24
80.2235 111.754 93.8892
65.5519 181.058 154.11
39.3198 1.22692 126.983
33.3653 176.516 82.5446
43.5631 163.875 123.675
43.5207 170.414 136.75
66.9108 11.9975 254.901
21.1707 35.8801 271.734
100.73 25.4543 255.85
28.5646 199.334 63.926
101.575 174.146 72.1529
80.3759 181.096 79.1807
56.7432 4.66752 148.767
67.8036 205.293 159.172
31.8666 185.861 138.192
122.714 119.24 269.627
90.6109 169.854 80.6735
136.524 149.612 172.243
138.019 115.174 241.631
101.978 211.776 135.767
107.6 102.654 124.072
107.31 216.497 274.669
67.9056 221.705 151.101
115.147 111.022 131.597
83.2077 218.241 150.58
21.2862 24.1955 136.408
60.5104 162.879 101.026
130.303 75.2321 27.0761
66.5274 171.471 89.3587
104.705 33.5694 238.543
99.1915 185.867 95.3109
38.2644 219.54 153.84
75.6521 171.16 110.422
91.0912 223.685 77.9365
87.5069 173.501 148.102
24.9856 172.414 103.4
76.9913 1.8668 234.249
24.6267 209.049 145.642
139.127 149.024 239.435
92.0685 167.158 91.8118
97.849 211.876 85.7928
121.804 165.283 133.666
137.421 129.229 274.345
105.011 227.739 99.248
137.88 53.2082 212.561
109.921 48.6624 229.066
81.452 7.41198 245.833
32.1948 166.042 112.587
61.4932 84.7391 255.222
125.061 168.217 8.87604
31.5722 172.088 113.209
135.055 157.034 196.435
7.93474 231.551 120.13
83.8783 178.562 108.371
113.009 80.3174 114.247
130.899 168.222 135.988
137.605 145.634 274.426
38.6723 165.93 128.771
25.5737 229.705 65.4992
123.41 184.416 262.899
138.951 151.608 147.582
70.8611 211.126 252.572
130.442 149.568 235.416
59.9269 211.366 149.042
138.674 193.655 47.881
78.0983 11.4419 273.873
27.4408 210.24 61.8102
114.587 167.433 120.987
31.0074 190.739 72.614
98.1807 230.75 112.718
12.4221 49.7787 274.749
78.7785 173.999 90.3871
83.8915 217.29 141.171
94.4339 29.852 241.824
22.8567 175.432 120.606
14.8795 231.13 137.3
74.3423 176.791 122.347
66.9087 6.24587 141.456
38.2402 171.009 86.8688
133.536 152.324 177.467
36.066 225.834 61.8625
56.7184 13.8933 48.6712
94.75 12.4427 258.392
71.0468 183.874 160.051
103.078 50.9368 253.765
80.5776 14.4193 266.24
130.856 183.934 27.5551
66.6328 44.8411 229.153
128.286 230.749 235.231
123.694 72.4514 27.7607
139.15 75.7743 52.1742
117.063 77.3146 114.078
22.268 175.985 95.5267
16.7593 38.454 269.117
78.7817 230.857 274.313
70.7611 222.766 65.5085
87.4538 178.883 88.3067
137.237 186.675 31.6201
111.792 187.22 61.376
67.7006 184.828 71.958
41.8382 205.556 102.305
86.4339 188.524 119.897
55.4441 192.725 64.3904
78.9877 177.29 103.698
84.7482 94.7101 84.5126
84.0122 167.699 67.2013
44.7749 217.543 59.1962
101.577 49.7406 2.5998
41.4057 184.016 138.788
92.6941 216.241 80.3219
124.776 188.047 37.4723
90.584 172.066 20.7705
77.8706 221.229 145.282
67.9707 18.9002 259.44
95.8995 229.506 96.6845
70.7623 171.084 106.556
97.9379 191.379 88.5989
103.186 33.7538 263.624
132.082 31.7895 214.716
72.9637 224.733 274.841
62.0868 167.318 99.5647
56.7554 231.519 147.39
65.8148 1.8634 224.629
57.5951 202.592 61.5986
99.7812 176.65 111.734
68.0998 215.113 155.015
47.6258 3.74947 136.373
91.1996 220.14 134.866
73.7216 38.0526 265.215
64.9133 219.445 63.0008
103.661 166 110.213
108.057 6.19366 252.277
72.2288 1.82793 120.358
135.765 167.77 9.98216
117.134 158.059 233.664
98.4059 33.6807 255.696
27.4214 187.627 74.9362
80.9178 210.279 70.0259
115.434 187.384 65.8614
59.5332 226.304 149.915
103.678 206.683 124.77
111.83 19.2407 240.191
136.722 46.8236 1.3334
49.8582 1.23288 238.739
86.9938 173.778 68.3558
91.4399 210.939 129.161
76.7614 173.513 133.827
106.609 206.6 141.589
114.22 157.375 3.43299
110.952 75.4554 81.1479
134.821 189.675 44.2888
21.9477 19.0565 149.508
105.369 202.811 98.5317
131.74 160.497 192.4
