ply
format ascii 1.0
comment Created by Open3D
element vertex 166
property double x
property double y
property double z
end_header
13.1477 131.269 112.496
20.0492 124.866 111.271
16.2269 111.622 65.2878
24.1524 129.291 103.726
21.1441 124.204 92.2547
18.0771 125.277 73.4919
13.2001 127.492 104.838
17.2483 118.047 61.8426
31.7131 125.74 95.8077
14.5865 126.266 95.7813
34.3523 103.863 86.68
43.0108 209.411 180.772
36.1267 99.2998 78.3752
17.3972 108.043 81.6051
30.6555 106.117 46.4605
27.9358 122.626 50.3459
42.9406 109.743 80.5195
23.3797 135.807 110.952
50.5075 184.914 168.508
39.0545 139.126 54.5508
22.439 133.731 76.321
25.657 139.343 69.3213
24.2841 128.949 96.176
15.3336 113.945 73.8264
37.79 148.043 94.7651
45.8549 205.862 266.745
28.9015 135.891 55.1431
30.6927 112.65 47.9562
28.9196 162.211 82.8557
38.0539 111.645 42.0217
23.2145 136.903 127.976
49.1169 135.391 132.93
12.3609 200.34 186.081
46.6689 139.697 64.3412
45.6339 149.376 129.589
57.078 125.239 62.2719
28.5862 148.392 125.493
18.4405 121.504 80.258
16.9164 157.445 59.0635
34.7203 92.709 64.2375
24.7737 116.523 52.7568
6.07591 188.914 178.265
34.2223 183.256 272.456
34.8394 114.181 93.217
19.7214 162.555 67.4478
38.257 139.347 131.318
22.6071 126.581 53.9669
39.5554 112.014 65.0687
42.7052 102.054 73.7325
33.1132 96.2197 48.3566
39.0352 157.739 52.6826
27.2883 143.996 33.5079
14.9443 167.712 61.1502
24.8337 99.7635 54.1534
30.9084 144.82 41.0416
25.2879 158.081 98.1798
14.0398 178.558 259.799
52.2986 114.241 76.4306
37.4233 103.256 43.0387
27.6195 168.781 56.304
20.8111 128.209 83.3807
18.0528 100.235 59.1987
56.3469 127.317 126.309
27.5813 129.886 127.934
4.91413 226.2 216.27
31.059 136.9 101.521
28.1405 91.3583 63.7477
32.9996 133.784 95.9845
57.1417 123.438 69.6226
34.4277 154.286 76.4195
19.3279 111.541 55.311
39.9676 123.884 146.162
58.0049 171.96 184.719
34.6972 91.0233 73.3104
50.1746 137.702 72.2356
53.0087 106.088 69.7447
20.6579 203.801 238.052
38.5505 96.2094 70.7419
7.5503 174.293 156.018
52.8684 104.011 118.373
63.645 170.006 186.14
10.9882 216.928 239.248
33.8316 157.819 108.741
80.9851 72.1267 49.87
19.7867 115.116 77.0859
17.8187 150.098 85.6214
69.5543 116.082 99.8092
44.0083 140.503 73.8255
50.996 93.0775 52.2951
48.6379 136.567 57.1303
46.9615 135.442 96.897
31.5804 131.686 50.0754
9.02446 134.912 32.6653
8.55182 148.909 99.1161
16.2103 170.569 56.1471
38.4126 118.8 43.8926
29.081 171.022 63.5641
34.5237 127.927 45.8442
47.4479 155.146 104.856
29.2628 160.056 43.6854
15.8125 160.519 75.7329
4.41211 189.474 52.6468
45.0753 108.895 72.3107
26.3768 186.593 77.064
42.5318 181.288 236.454
32.6588 134.382 85.127
41.6295 155.953 61.698
42.5081 177.737 263.755
58.1618 107.568 61.1803
59.8193 160.731 102.806
40.4443 132.643 112.504
12.3567 153.905 57.0871
46.423 90.1447 65.8401
41.1616 114.417 88.315
37.615 146.616 122.246
60.0785 199.935 183.457
71.9245 195.131 204.387
17.8734 210.168 207.638
40.3799 128.337 138.749
14.2335 166.129 53.7983
29.4391 150.455 132.406
18.8429 206.778 224.096
8.40695 223.21 236.835
46.6108 114.287 125.443
46.3792 158.998 99.885
13.3085 229.638 252.092
20.892 221.876 260.117
39.2556 136.65 112.387
29.7571 176.428 90.347
26.6718 229.754 143.403
61.3864 167.301 231.432
61.9717 159.245 96.0801
40.5844 164.814 49.7856
8.13738 218.681 198.24
8.7978 216.363 268.081
8.82094 205.647 253.705
62.2608 193.146 198.517
46.1802 121.331 88.355
8.45923 203.841 227.462
32.0461 152.964 82.9893
17.6093 109.324 141.083
35.9641 105.352 78.0029
13.2042 132.711 192.396
49.5858 97.991 70.7184
12.3095 189.682 205.234
6.72198 214.518 214.008
50.0174 158.759 178.493
43.5173 102.894 130.462
29.2211 133.343 89.183
40.8519 103.765 80.0833
36.2067 176.174 263.09
56.9973 114.508 69.7033
30.141 175.299 81.9268
8.12785 128.517 42.71
49.0538 102.509 40.3089
11.7495 180.673 242.033
8.08895 185.507 232.093
8.04109 182.545 222.152
15.9963 153.112 52.5271
45.479 161.105 82.81
10.6869 220.844 258.054
41.0719 183.1 274.247
5.4763 169.489 246.264
14.2259 163.532 57.5854
9.98399 150.481 215.798
43.9141 115.787 146.513
