ply
format ascii 1.0
comment Created by Open3D
element vertex 239
property double x
property double y
property double z
end_header
3.78939 90.4342 109.141
53.7945 104.844 164.235
17.339 5.79891 50.2372
78.7115 69.7364 104.303
70.6793 73.7522 104.92
2.44441 111.375 58.6669
26.5215 2.35887 37.4485
4.67483 83.0561 104.022
6.84522 170.028 70.0305
9.90799 173.321 126.841
30.7973 187.518 85.6836
75.6652 99.6399 38.927
39.3276 79.1225 171.35
7.21943 178.531 87.065
3.98556 167.592 117.979
14.1195 32.8339 83.5716
81.9386 83.0863 56.7294
2.99549 142.932 54.5098
4.49401 115.18 49.1177
19.9718 28.8227 75.0315
97.907 105.566 77.9911
95.3945 147.372 84.9349
40.1387 24.84 132.146
93.9912 119.588 110.207
63.3863 179.172 107.643
67.226 67.1521 88.8363
52.5974 230.718 257.756
70.7137 173.008 114.7
2.98695 84.5273 73.7943
80.0439 161.239 55.4425
3.33903 96.1731 60.7268
6.12539 180.535 102.715
3.60709 179.623 202.864
4.31991 148.004 133.715
42.6339 101.369 160.495
6.83418 73.4414 82.9171
6.56724 73.9712 103.272
97.5323 106.588 94.9028
95.8673 110.411 103.245
80.4281 110.266 128.418
2.27863 99.2144 101.619
7.57737 128.692 137.276
2.50211 81.3691 94.7264
95.9254 100.159 71.8476
73.9482 177.138 81.9072
16.191 161.232 136.8
7.83181 81.298 64.2784
13.2241 183.656 103.721
40.3034 28.3248 128.244
3.61666 78.7816 85.8208
71.6417 176.043 66.6538
64.8799 142.144 139.977
5.63361 125.32 168.158
30.1277 215.682 65.0169
66.6385 191.288 157.149
96.6462 132.406 74.4273
94.4351 109.55 113.479
79.3399 171.783 75.0997
1.94026 109.686 97.7444
82.8805 129.027 43.6325
78.7318 89.9534 46.8354
21.3692 92.8713 136.165
8.6765 162.528 133.827
16.6902 20.6491 75.6723
54.241 180.419 117.76
64.5323 129.673 144.763
91.0806 125.085 52.8906
3.23485 132.473 131.725
88.5112 154.409 102.24
99.4658 116.287 84.0327
82.8346 162.363 105.606
48.936 119.727 162.521
8.69831 150.006 48.9931
93.7298 148.427 95.6188
15.3702 182.62 86.7467
89.9732 152.969 63.0199
6.89307 164.563 127.264
3.27396 176.822 93.7103
96.3221 136.914 97.9279
97.6877 120.707 67.0198
98.852 127.313 92.9111
89.3915 133.92 55.3721
14.2947 67.2422 90.02
1.59384 150.267 85.468
5.54222 91.9404 124.047
80.7589 80.1837 98.0686
28.0001 99.1664 162.163
91.6823 91.5595 66.9777
2.39221 102.077 115.083
1.74071 162.303 90.1619
46.0787 115.425 149.057
10.4941 141.383 138.195
1.65113 122.423 104.192
32.0728 118.404 23.3111
2.09202 151.233 70.6779
26.8713 152.493 37.4842
2.13996 107.616 79.4317
6.6 81.9439 116.889
19.5436 108.085 142.636
12.9212 102.194 137.026
14.4676 73.6893 155.952
67.7611 162.109 129.508
76.9852 85.1087 116.518
23.0872 37.0861 86.1235
94.6676 147.811 72.7253
99.4316 132.754 80.8812
6.7337 97.23 131.266
12.4444 169.978 217.809
84.0545 164.561 88.1302
88.6165 97.6165 108.428
10.3786 164.813 57.8478
1.59463 125.708 72.8684
97.1176 124.081 101.668
76.4192 73.3102 86.8526
11.9363 180.839 209.262
39.1075 188.972 98.2496
1.54938 129.465 114.007
13.7392 82.4925 125.321
11.5055 231.219 148.549
92.5924 92.6505 90.6835
5.43364 193.942 198.523
9.27217 85.663 54.9682
61.5194 154.427 135.868
23.2793 185.851 96.126
66.3648 225.127 156.472
7.33558 102.615 48.4558
75.2058 170.408 57.7657
87.7208 146.131 112.613
83.936 129.813 124.971
70.71 72.77 59.2621
17.2167 219.064 154.345
86.1309 138.953 120.851
50.0341 87.5003 150.211
69.2366 78.7494 117.287
18.9997 222.388 149.482
96.2461 110.71 64.2938
74.1058 96.1462 126.36
8.76811 175.675 74.323
19.0166 183.017 77.961
97.7247 131.672 65.7813
28.4081 126.382 31.7308
85.8989 118.046 122.709
22.3689 79.3108 127.365
7.53973 127.741 43.9711
57.5214 221.741 117.92
25.7028 62.3923 91.0427
13.2441 175.69 209.322
75.6742 145.304 130.059
10.3118 92.642 126.087
92.6529 135.017 109.792
58.9321 174.109 121.552
70.9488 125.422 139.075
7.89209 220.007 137.794
7.00997 171.983 200.233
86.9435 163.096 77.466
10.1903 71.2398 97.5998
79.8218 154.72 121.439
10.9091 72.9044 72.1579
52.4713 97.7524 143.279
38.8922 91.9437 140.362
39.429 170.878 131.708
15.897 90.4735 133.805
65.8676 182.139 82.6924
16.1593 175.279 128.529
94.1627 139.407 103.184
83.1235 102.768 44.9666
14.4293 190.249 112.2
12.058 96.3774 45.7022
55.5466 149.428 142.746
74.5861 174.443 104.374
35.2398 101.555 30.1279
15.1221 144.421 40.597
79.5249 125.432 131.192
44.1598 188.313 87.8912
40.8725 145.93 31.8803
25.5099 117.458 146.576
70.0662 209.904 121.033
49.3451 187.5 97.1685
20.7053 43.8746 80.148
45.9487 107.166 146.929
44.1602 32.7388 144.115
30.6867 62.4388 103.1
53.9662 137.721 147.264
46.7274 160.315 209.818
78.1168 172.486 94.301
46.1156 95.3731 31.5152
75.8945 164.311 115.383
44.0687 187.059 74.8828
48.7163 159.945 139.187
17.2775 66.2648 97.4887
85.0861 103.434 118.444
88.0485 83.746 102.886
13.5219 117.35 38.9812
27.437 177.814 124.511
11.1928 113.814 139.43
25.1246 141.125 33.6749
100.24 119.769 91.0907
27.4466 166.057 46.2109
43.2835 112.314 28.2835
25.5692 132.011 147.401
32.8343 74.1706 125.489
59.3948 116.425 143.832
11.5374 170.704 197.611
16.0632 70.9219 163.665
34.1198 162.724 139.263
8.77523 179.769 114.01
32.7783 100.708 143.066
24.769 188.736 104.272
40.5065 58.7748 86.6277
72.8369 133.55 137.952
75.8545 111.6 36.5337
37.9694 140.39 148.923
49.5891 126.627 28.2399
9.26538 165.288 211.129
6.09601 151.917 30.087
39.0066 181.765 117.299
70.3079 146.339 36.4643
39.4429 151.567 145.665
31.8418 23.7206 163.271
28.4561 94.5767 31.4671
86.0985 81.5894 86.9836
73.296 119.361 34.7682
91.9336 102.478 56.9087
47.4954 97.7438 144.016
18.7001 86.4358 44.7744
61.8169 63.6031 71.8971
23.3784 104.386 33.9843
26.4093 155.259 142.499
74.9161 136.457 37.3095
34.7316 24.0442 156.154
19.4046 54.5422 81.8486
24.2042 77.5922 42.5929
47.2398 175.92 126.184
17.9669 116.695 35.5261
38.5656 126.056 150.033
72.3047 115.924 138.889
19.0552 174.663 60.9565
82.0276 86.8432 108.215
34.8879 217.894 57.6621
