ply
format ascii 1.0
comment Created by Open3D
element vertex 779
property double x
property double y
property double z
end_header
39.8771 212.372 117.566
12.7641 186.358 48.1737
27.8731 139.853 12.4274
14.7015 193.239 74.7625
24.5056 208.714 58.8614
20.9257 201.083 49.4354
40.974 122.96 139.279
73.9968 167.021 160.516
21.0485 143.065 17.1228
11.5954 173.181 40.5173
17.1376 36.6906 24.2281
8.64237 171.882 53.8505
9.27099 73.3646 171.139
21.6123 181.948 121.022
46.7641 175.828 241.415
37.2167 191.271 137.387
49.364 227.224 76.1583
13.165 189.906 56.7403
23.5792 182.288 19.4156
19.2567 31.1682 38.5406
95.8402 198.57 32.6998
118.078 139.232 113.316
37.1429 180.544 6.8545
35.7656 219.09 64.1943
89.5822 113.318 137.387
114.75 147.678 123.237
87.7036 119.836 142.175
101.177 189.242 34.9218
42.4982 206.83 126.805
24.714 211.733 76.8715
61.6345 126.691 7.82507
10.7326 180.421 62.8619
77.3937 99.7106 125.371
32.5171 216.432 85.7913
124.548 133.302 65.4224
33.2794 208.97 36.7521
54.6079 228.177 71.0551
122.347 149.788 98.6337
22.6613 16.7222 40.0107
44.2576 150.187 151.966
55.6016 149.189 158.81
79.2109 170.402 9.67878
32.0047 202.379 24.3262
56.1243 117.49 144.653
20.25 204.601 69.998
37.8934 212.872 110.072
34.8766 177.157 144.489
63.026 124.9 152.646
17.794 154.998 22.4517
51.8041 86.3837 86.527
14.8428 191.887 68.257
124.093 144.027 88.0234
52.2166 90.9658 104.26
13.1089 188.4 83.7131
18.8818 180.995 25.1385
68.292 91.8387 103.109
104.104 192.902 42.0714
46.589 226.082 83.7524
41.8728 223.447 76.6669
70.7828 124.036 153.21
31.4742 192.854 130.422
46.9156 129.94 5.39578
36.8187 94.008 55.0782
18.6987 199.474 83.5933
12.0095 169.624 101.031
10.6397 73.3945 157.844
62.3412 167.681 159.957
9.87326 163.05 44.8669
116.817 192.202 76.9075
12.148 166.769 32.5533
99.2939 208.641 119.712
87.5026 90.9849 45.06
124.163 154.47 89.1013
19.1364 104.93 59.1549
101.563 157.571 142.802
118.11 122.206 56.4535
42.4002 120.239 13.4995
29.0399 210.364 94.9068
29.4261 96.5201 64.1352
83.6488 191.575 21.9617
28.3624 168.42 139.545
122.917 114.705 68.0797
24.3794 207.482 86.2828
15.7692 182.625 105.737
46.2553 94.4092 100.224
53.3423 95.8895 36.1813
24.0542 200.251 270.74
65.1723 192.879 150.592
114.243 91.9825 75.2923
25.6996 109.585 98.7202
36.7155 150.092 148.108
102.802 81.8939 85.7093
44.5968 89.2069 83.0024
114.502 159.463 120.544
70.2628 84.1177 57.0711
32.6735 144.421 143.172
53.9235 157.554 158.176
121.832 126.559 61.4175
14.1122 159.165 29.8498
45.1906 166.884 253.132
79.2541 80.1204 73.0913
14.8309 188.446 93.6687
61.7732 157.656 160.93
51.9031 220.503 46.4979
57.2191 226.061 101.924
13.3336 194.899 248.685
46.1613 220.757 51.6684
19.8938 109.832 44.2269
49.6103 191.005 146.541
24.4874 198.306 29.7516
83.651 94.0634 107.16
40.9029 169.732 150.324
27.0857 191.065 123.004
65.2355 119.369 11.707
45.217 95.3803 38.8498
74.7468 116.593 146.533
58.4792 178.573 3.63869
119.816 111.032 78.4279
78.2383 120.748 17.3366
96.4693 94.5132 101.595
109.618 89.3862 88.0143
15.9566 140.936 26.3698
60.4166 229.735 83.1575
56.9911 87.5296 52.7241
58.2246 219.475 41.2057
93.0778 174.722 149.502
46.8822 198.825 271.315
66.4904 118.453 147.801
42.0435 212.092 32.6062
37.4915 163.932 3.57222
46.8213 118.176 142.665
62.0106 109.436 18.9064
11.764 159.173 38.9395
59.8006 83.2122 61.6581
121.844 135.548 88.1185
57.976 102.15 28.7354
12.2498 143.619 33.1152
31.145 160.781 143.289
111.687 159.396 129.651
22.1846 169.842 127.585
58.514 206.534 19.4417
46.5123 201.605 257.684
122.177 131.409 96.7424
65.8735 97.3599 32.3406
88.3437 151.317 14.161
20.9057 199.25 96.102
71.3366 170.686 4.17288
80.1998 157.379 9.18262
118.311 174.829 110.504
73.1101 103.041 28.4072
47.8366 180.251 3.35637
116.636 111.08 57.3944
30.5616 153.609 7.27357
48.7941 215.459 119.999
47.8634 142.444 153.594
117.75 183.42 104.847
118.771 127.43 87.3153
99.0078 142.041 143.933
95.813 188.004 28.8673
105.078 137.388 130.567
51.731 123.627 8.90989
122.264 175.614 85.393
41.7671 172.255 2.93036
14.3963 176.708 33.8107
57.2248 227.259 59.6228
43.1497 186.489 145.955
61.8078 228.866 69.3789
79.1686 139.664 156.612
73.8426 158.63 5.26046
37.8996 164.387 250.375
25.636 202.653 34.7105
67.2444 142.516 159.975
54.6446 85.5213 66.9327
118.03 193.34 85.3467
72.5358 190.076 152.319
61.3208 92.3709 39.0104
108.347 115.256 90.6688
96.8802 174.451 24.9224
26.7522 175.149 12.5575
108.338 121.303 47.0254
28.3251 208.207 101.799
21.7177 205.871 257.531
49.3466 31.423 47.3061
51.4991 102.665 25.3221
122.308 166.125 96.5478
51.9711 205.686 135.059
46.2827 91.7506 92.7553
30.8494 204.776 117.374
118.315 155.97 111.95
92.0001 104.495 124.623
64.0946 84.3123 54.5975
110.665 127.736 40.3326
34.5533 218.611 75.543
12.5291 121.722 48.378
122.063 160.89 107.559
48.6652 14.5187 34.2878
70.5348 137.797 156.791
22.6833 152.126 15.6001
92.4297 184.77 22.8647
34.5004 34.7565 51.6729
122.613 158.582 96.2136
26.169 112.668 33.1065
28.1612 198.566 120.581
43.6507 197.654 138.531
36.5325 133.082 142.277
112.406 191.429 56.2056
87.8214 175.874 17.2765
103.582 120.914 121.97
85.8916 223.721 66.9498
81.1624 157.443 160.745
50.1012 133.97 152.6
38.6533 157.195 150.447
48.846 221.113 110.286
38.4774 99.1552 101.533
59.8113 213.913 126.818
58.8315 96.4351 113.852
11.0967 135.079 39.6767
24.6785 101.011 71.3584
100.363 83.4363 74.2581
8.21752 158.891 52.4075
117.699 128.632 102.093
111.208 127.959 118.972
62.0718 201.896 18.1814
105.824 139.941 31.6012
52.7681 123.536 148.539
77.8526 114.509 141.243
63.4003 81.0988 74.4513
83.8175 181.808 15.2086
11.5121 130.262 77.234
121.711 120.664 64.3461
79.8782 126.24 149.046
31.1505 100.957 77.7199
110.765 86.4068 81.0124
31.7483 180.352 135.662
107.679 198.162 116.855
125.015 117.642 74.5992
110.626 115.812 101.951
51.1522 188.988 247.607
81.4385 111.16 23.8123
41.4861 222.17 95.2158
103.106 112.818 125.863
28.9557 206.199 244.159
115.957 167.135 118.134
33.9121 50.4734 33.3987
11.5137 124.343 66.572
88.3129 219.103 54.7093
40.9462 222.792 87.6937
32.4361 135.204 137.279
94.7453 132.728 144.633
46.2399 161.696 155.758
47.6341 222.024 101.073
36.6476 101.21 34.5501
81.428 216.178 122.127
103.633 163.783 28.6573
41.0775 88.3402 69.0441
27.2825 202.707 109.58
6.82246 152.92 66.0677
39.5699 87.4322 56.8004
7.83157 143.379 68.417
110.815 206.714 76.5121
87.853 95.8751 112.791
80.6706 82.0033 93.38
87.2791 82.9381 70.1574
39.8898 219.043 57.0829
52.9326 210.967 129.601
108.337 102.224 108.077
22.4965 130.246 118.17
57.7749 142.906 156.765
43.6962 178.107 150.044
78.4902 130.778 152.824
52.4525 137.8 2.4331
120.685 139.252 53.0406
85.879 123.974 147.412
10.4953 127.148 54.3344
113.18 118.75 93.5678
116.273 193.346 99.1375
96.6223 94.5553 43.3893
10.2546 177.947 49.9907
69.631 107.966 24.3318
92.2561 98.919 118.202
93.1137 155.043 152.673
53.4464 227.013 92.7122
72.3695 203.116 20.9753
23.5841 159.41 12.6008
100.266 144.583 24.5678
28.7465 120.809 120.058
55.6898 116.597 12.6694
43.7464 209.325 255.801
29.2113 153.098 141.07
72.1044 211.509 130.531
106.39 127.812 125.217
58.1199 83.3498 75.4429
96.2196 125.349 139.023
115.213 98.277 64.0717
92.9508 164.426 151.486
95.8627 151.149 21.4021
104.024 102.045 43.2941
59.7022 136.732 157.749
36.0539 108.936 24.2239
41.0054 172.709 267.145
48.7207 87.0334 65.5264
114.221 136.616 119.77
65.2118 148.124 159.938
73.6073 159.019 161.222
14.5206 127.29 32.184
118.542 131.543 51.2654
74.6298 137.66 6.84498
103.334 173.569 139.07
66.3639 185.728 7.20538
69.2765 229.187 82.4631
123.458 140.366 97.9299
38.7129 152.406 2.91662
57.6758 186.754 151.926
45.2537 192.367 238.491
67.8854 101.693 128.161
87.4599 162.069 15.038
123.565 157.37 79.4234
71.9484 80.6797 66.6021
40.2012 9.74636 32.5855
94.7743 162.73 18.7566
66.4122 156.87 2.3481
102.747 120.982 34.0218
87.6127 156.541 156.871
34.4716 187.622 11.6518
61.5579 219.579 118
29.9374 211.002 50.6995
25.1407 205.746 265.308
72.8112 81.8666 87.6911
22.3195 110.456 86.6375
104.189 170.951 31.9172
126.502 144.819 73.7796
35.0687 117.821 126.46
7.50805 168.095 66.6535
65.0266 91.2196 111.321
35.1413 94.9466 43.9578
18.539 196.474 242.132
16.1652 115.174 46.3034
9.12988 148.012 50.8667
115.185 199.53 82.2027
42.9357 190.008 8.44575
99.8113 106.321 121.667
84.9841 97.8867 121.578
31.8156 122.682 17.3288
53.4842 23.7755 41.3495
88.3147 139.469 14.3197
64.5025 139.265 3.48018
98.0607 85.9316 59.3414
37.8485 167.572 261.23
112.369 120.537 109.17
117.596 187.031 70.6442
20.6557 126.601 23.6962
14.0487 121.55 74.4646
82.1024 227.006 72.61
121.827 174.606 96.695
77.8411 92.0105 39.0823
115.163 190.281 112.195
115.35 174.442 118.957
117.263 102.385 68.965
41.9481 139.003 148.514
91.4474 219.359 104.364
55.3053 128.696 153.349
10.258 137.535 72.7752
118.183 116.945 89.9294
110.427 136.499 127.474
98.0496 170.561 147.21
123.433 149.177 75.1253
47.3021 202.055 248.891
46.7979 179.624 269.45
26.537 104.403 37.4937
120.518 120.758 83.2291
100.727 213.359 110.379
20.7627 106.361 69.4288
87.4913 190.533 148.604
95.6114 122.483 28.6935
70.6387 91.7592 38.2383
96.0462 100.309 37.2114
119.897 141.028 72.2423
82.0302 209.489 34.6458
98.4616 86.1196 67.2952
50.6245 111.436 17.3433
49.3437 193.563 9.78047
109.375 170.499 131.287
19.0604 41.1103 13.5864
113.767 165.124 45.8627
17.227 63.7584 163.419
47.0848 224.592 61.9929
123.031 145.209 65.6269
14.7688 182.897 238.474
74.631 104.666 133.537
18.7582 23.2616 36.2119
110.532 118.022 41.6717
83.5792 222.814 106.668
104.034 151.232 140.084
38.9743 218.421 104.384
58.5088 93.8802 98.1124
12.0587 180.963 262.488
62.7999 97.4092 123.754
32.8891 114.739 19.83
42.33 129.353 146.775
60.3162 223.309 111.049
79.2543 81.3317 63.8248
20.0984 187.386 111.789
67.178 81.242 80.8453
111.069 151.965 129.664
39.0222 130.253 7.62084
113.847 137.155 43.4798
109.305 200.012 60.4645
20.4692 166.844 17.0346
94.3928 113.937 128.769
61.2485 169.983 2.81325
114.531 115.853 51.7804
37.8668 165.563 241.737
109.489 186.632 46.2458
41.1903 108.534 121.928
18.8123 194.165 36.3793
108.558 98.6019 101.405
103.208 112.167 35.7881
73.4422 133.129 156.701
107.392 109.723 45.3775
112.895 192.92 117.762
93.1783 201.139 133.144
115.373 125.887 108.485
76.2751 224.79 107.03
81.8112 197.705 144.698
88.7128 107.42 128.093
77.4102 227.996 94.4209
34.8389 106.695 111.075
77.3164 88.49 45.5429
47.0945 87.5691 53.1944
76.0302 206.07 26.8305
120.81 141.503 103.39
104.098 203.53 118.273
105.965 193.845 125.696
109.367 204.564 104.41
84.1374 108.737 131.934
115.966 97.5021 96.8337
118.454 161.315 55.7557
79.4664 186.27 152.241
69.8995 226.553 63.6959
27.5433 213.378 67.7858
9.95088 177.585 87.2487
27.2516 155.554 133.508
29.0749 125.291 127.191
34.8416 153.829 231.415
96.986 210.154 52.7122
91.1355 82.6126 63.5858
74.1294 180.971 8.73211
115.704 125.943 70.5609
45.1446 208.529 265.948
33.7724 171.55 5.91553
102.622 127.839 130.205
103.438 129.305 31.8394
88.7586 213.651 47.6599
105.152 209.51 105.883
120.204 147.622 114.172
29.6504 193.755 18.2007
52.8098 13.7746 6.30709
9.8803 178.6 75.5511
43.8792 210.255 25.7857
77.1905 145.473 5.5032
41.4274 204.496 19.9297
88.123 203.236 31.9196
14.8405 14.4946 192.327
8.09136 176.19 258.806
90.9021 84.257 52.4826
110.638 207.687 84.9232
73.1557 228.494 72.2279
27.6369 162.582 243.721
120.369 109.763 63.0921
57.2018 173.865 157.704
56.5121 87.7957 99.0993
113.272 108.611 50.414
116.008 150.22 115.838
9.89425 170.006 255.083
111.593 198.402 104.208
58.6048 106.027 132.898
79.3689 89.966 109.93
13.7854 190.086 42.4659
49.0982 165.917 1.71468
66.8908 207.735 135.783
40.3283 136.254 3.16784
113.601 197.073 67.54
94.4376 138.426 19.2579
106.179 92.1557 98.0427
44.1582 104.043 28.1968
86.7976 137.979 153.091
18.0119 117.896 35.1852
66.2127 114.053 144.058
87.9452 83.7966 86.5386
43.6731 109.74 18.509
72.4054 123.053 12.9845
97.4455 117.814 134.085
124.996 164.532 84.3594
51.77 99.3765 119.749
51.8732 180.944 249.079
18.7244 187.555 30.2086
107.673 99.9527 52.5405
117.645 100.046 75.9348
64.3919 209.611 26.0007
126.683 130.302 73.7158
109.339 206.65 67.6911
10.0238 144.332 43.1124
7.96038 164.505 81.1226
121.375 168.643 104.99
86.8128 178.038 152.905
32.5288 209.702 252.592
39.3685 194.929 13.8064
39.0044 12.4516 7.14406
49.2933 182.868 260.807
97.1112 204.073 126.787
78.7925 85.2384 99.9895
50.7503 209.776 23.3415
104.454 216.201 85.4286
43.5727 53.4601 16.6853
75.1616 188.341 12.6135
108.778 89.653 71.3035
68.1428 200.237 144.372
75.0286 195.981 16.7923
22.4769 201.699 42.1954
94.0386 85.7486 97.4325
52.6937 104.663 128.58
25.7528 22.093 3.66026
117.623 122.978 98.4741
108.511 117.557 120.729
88.1313 117.426 26.9204
54.1712 179.715 154.346
26.2038 102.566 85.7462
47.7224 200.302 15.5841
54.0685 212.971 30.372
31.4448 50.8029 10.7415
99.5958 83.5255 92.3722
32.3804 176.323 273.027
102.287 200.369 47.5664
60.6369 23.8784 34.1112
108.619 137.04 39.5035
25.7296 116.449 26.0091
104.828 212.894 94.747
14.8896 112.87 57.0696
112.173 156.174 41.0889
51.0382 168.515 155.921
17.1908 168.824 115.994
21.7109 138.521 122.307
32.7894 105.124 30.0073
14.7779 114.099 65.7396
25.7167 178.067 132.979
7.12989 183.424 247.909
120.95 125.882 70.5126
6.07287 85.2425 153.373
120.7 106.929 82.1652
45.6393 215.394 37.6522
39.6142 196.91 234.845
78.0158 101.725 31.0949
118.836 133.665 106.009
93.623 110.167 34.3871
74.6348 80.8595 78.4677
114.872 182.453 57.9775
58.2079 199.254 145.06
115.395 127.25 52.9263
12.0887 133.692 62.2093
126.036 126.144 85.9371
89.1419 90.626 105.105
103.465 156.011 27.5887
82.5404 141.651 10.2508
118.199 101.124 85.137
64.6656 107.678 136.618
30.0347 129.088 13.2783
63.8895 131.414 156.666
71.5494 223.326 111.276
113.905 201.867 90.7012
95.5061 79.7437 86.9518
56.7803 190.769 7.52461
108.639 86.7376 94.5788
68.2592 85.9169 91.6216
10.11 167.385 249.263
109.956 176.162 42.4644
38.4193 92.8706 81.6734
109.57 120.076 114.547
29.8528 208.883 274.315
80.1346 99.7754 102.489
105.442 90.0338 55.8571
23.19 181.589 272.626
112.407 98.0958 57.57
34.2369 94.7632 71.15
29.6718 94.957 54.6891
58.6506 111.09 140.406
20.2413 155.576 123.228
104.788 201.716 54.6768
120.327 109.569 91.7665
16.9532 31.1643 14.3472
46.2823 41.9057 43.1967
62.3021 224.245 51.5228
64.801 80.4728 66.3659
64.8938 194.007 10.8063
112.952 147.532 42.1909
23.4163 155.827 129.545
100.818 191.079 134.874
48.59 99.5676 113.678
26.4639 138.336 132.391
12.9557 27.0803 197.448
112.183 106.821 96.5296
67.9765 228.82 96.4127
105.349 164.251 137.635
86.48 80.0852 81.4731
38.3849 206.892 243.128
45.0169 174.666 254.092
119.514 173.602 72.3861
24.5871 107.226 80.1974
35.9529 144.277 4.10513
16.1411 120.54 85.6968
23.359 166.369 262.027
72.4951 219.738 120.632
65.734 174.758 158.066
31.7388 126.477 133.522
15.4227 151.822 110.235
38.0304 163.952 151.77
100.013 131.059 143.595
33.0065 11.6138 41.0817
77.6226 145.585 157.497
109.456 206.525 93.4701
22.3443 171.51 267.425
79.1798 151.14 156.811
90.9258 184.563 147.311
6.72285 151.541 57.144
30.8445 136.872 6.78923
18.2581 147.426 116.668
116.491 94.3033 86.1321
33.7894 100.008 86.2033
84.699 127.555 15.3457
24.5308 106.195 51.9297
68.4214 98.2206 118.89
104.824 183.509 134.332
66.1844 89.5355 43.4816
105.428 104.696 112.034
29.2418 115.411 111.63
17.3685 189.486 269.656
120.976 152.413 57.3473
105.577 213.213 79.7072
70.6003 86.6277 49.5278
61.9735 227.926 92.4318
34.7729 208.1 268.51
43.2614 111.406 129.368
92.7913 216.999 115.085
26.8267 101.771 50.6913
123.077 161.141 66.9691
20.0509 120.41 26.846
78.2011 82.402 55.1103
23.4433 145.17 130.158
93.2352 141.561 150.703
66.9723 132.415 6.56092
99.6114 178.988 145.109
30.6319 107.23 103.188
110.555 186.589 124.056
106.853 96.6167 45.6676
65.9913 226.839 104.1
40.9659 174.341 234.973
101.719 87.1604 102.297
52.1467 192.684 269.604
86.4187 167.746 154.604
98.8455 132.606 24.1329
114.718 110.15 90.3637
7.05668 100.688 211.58
88.8935 223.402 94.9013
50.7416 195.75 253.098
103.397 211.544 64.8591
102.958 108.553 114.077
15.353 130.808 96.9728
81.5886 175.023 156.182
64.3135 215.707 34.7912
21.3743 198.793 107.838
85.8722 81.4668 58.9866
9.64213 130.374 46.1324
29.3352 13.4358 10.6548
92.8657 82.2624 90.1992
11.6881 156.219 99.3734
30.2841 199.307 235.601
47.0189 112.971 135.578
120.679 185.19 86.2065
44.0474 88.2396 46.6089
29.9664 37.9393 46.8806
97.7369 204.538 43.2248
53.1948 46.1864 156.333
46.4926 52.6214 28.4071
14.0587 166.036 244.738
75.065 225.223 56.9978
93.425 150.242 149.722
73.0389 93.0696 113.125
99.5209 219.94 78.5919
99.2353 161.988 146.955
68.8894 153.812 161.199
111.281 114.365 111.797
38.684 214.274 274.467
74.7894 213.92 37.2895
111.102 180.719 124.765
103.8 110.208 103.843
96.2226 221.266 98.9763
77.1511 108.985 137.808
116.997 183.201 113.191
106.237 145.225 133.173
36.1961 97.0181 92.3087
80.7524 94.5407 117.268
22.5403 119.252 103.959
118.031 144.183 48.7077
81.112 203.774 137.782
77.7108 193.32 148.37
90.7044 213.712 121.401
16.1707 171.229 239.16
53.7762 103.132 124.042
20.7353 165.103 242.163
47.1778 192.026 268.144
88.4381 196.679 26.3723
7.64875 135.926 59.0767
9.26164 147.011 84.9621
9.98551 184.566 242.02
85.6137 59.1967 54.6294
92.8912 196.199 137.28
53.2202 200.551 264.05
66.6514 219.85 44.7435
95.6124 190.542 141.748
111.512 44.2638 63.4165
102.221 127.607 137.426
40.6962 102.662 109.982
45.0769 25.6786 18.1049
119.448 102.431 92.4775
25.8667 10.7785 29.7815
71.7747 176.777 158.999
20.9456 193.437 236.018
16.7623 169.012 255.521
42.1348 185.858 274.503
119.33 179.979 63.9756
86.6364 82.6521 96.3625
77.859 220.757 50.3687
101.528 218.352 70.4153
20.1305 130.263 109.395
67.6508 183.59 155.837
100.141 88.2144 49.2908
10.0444 117.994 132.911
49.1895 148.302 1.30556
30.5874 167.714 235.666
90.0497 129.239 17.3053
88.2847 97.3681 35.9767
55.4629 44.8064 18.41
92.2347 209.018 40.6762
64.4799 82.0729 88.5596
58.7813 145.266 1.47465
84.967 228.888 82.9233
28.0209 162.304 254.408
70.1808 88.1451 97.6758
14.6287 48.6054 172.656
61.2049 29.5984 19.6898
16.2067 180.158 274.564
97.3034 101.354 115.781
17.401 7.19786 196.964
92.6501 223.82 75.8227
54.1156 217.259 267.933
94.3785 224.093 90.2083
100.01 215.899 96.2257
15.0439 169.707 248.027
28.6006 41.622 2.4184
85.8042 209.745 128.875
37.9674 178.871 232.51
79.3372 228.304 86.4097
105.22 209.698 72.6372
12.6166 156.09 189.275
15.708 165.909 252.209
37.0731 199.078 274.475
51.2734 172.157 260.138
101.956 103.775 102.228
21.4268 164.232 249.609
82.8834 100.918 32.2699
69.7948 146.596 1.88584
7.10672 103.771 136.637
74.7791 204.656 140.205
61.8657 33.3583 31.5506
30.3166 23.7172 64.078
40.0995 73.0705 29.0126
96.1497 224.366 85.0698
58.7817 38.5916 31.2682
96.3564 218.049 65.8657
18.1951 127.545 241.173
