ply
format ascii 1.0
comment Created by Open3D
element vertex 1150
property double x
property double y
property double z
end_header
46.3261 139.123 96.6054
111.052 166.81 171.223
46.3716 115.217 17.2619
38.5097 83.0859 86.3734
38.3448 131.823 8.52572
19.9369 96.2951 140.794
49.6345 148.409 157.655
51.925 76.9064 96.836
55.7719 102.913 22.471
20.9315 108.129 78.2115
34.6524 90.9626 128.039
45.2841 207.948 56.3334
66.7411 160.185 198.214
50.7695 151.763 148.933
29.0607 104.59 85.3492
19.9705 173.246 5.73124
38.6393 134.7 106.775
93.4794 78.7562 44.3497
68.3875 135.213 73.2785
60.0781 69.5817 85.2703
64.4243 68.6516 103.259
39.2897 211.548 62.9653
55.9203 209.923 101.837
61.5938 180.653 177.363
40.7049 147.55 5.92941
23.4244 151.566 63.3365
63.5382 73.9566 74.9551
55.7798 66.4091 91.5045
47.9231 112.26 141.748
56.9348 168.62 136.464
20.077 88.5445 104.418
62.7861 178.077 143.095
47.0637 129.054 9.44361
68.132 162.508 190.275
33.5374 132.921 145.426
40.0947 85.379 75.8155
37.796 143.056 35.2678
23.952 88.6838 73.026
23.5786 130.945 92.4825
43.8369 159.984 125.937
48.275 130.793 89.3861
41.1636 87.7287 106.066
44.6293 175.131 61.3852
83.9523 78.7569 140.755
67.9837 171.845 189.838
68.1383 78.8436 144.902
95.1862 182.632 163.779
36.8533 118.994 23.8469
32.4671 124.717 91.0793
100.561 55.605 27.1121
44.0835 92.9347 36.3153
48.4239 156.813 143.192
32.1575 133.165 61.6082
54.0642 217.663 73.9462
20.121 107.12 105.367
80.9508 65.2375 79.8923
71.5766 76.2631 108.518
38.3725 114.89 33.3685
32.3226 133.358 90.8103
48.0159 152.427 166.871
41.8313 224.888 12.4336
60.3961 146.881 153.993
88.6864 186.58 168.414
33.9191 160.372 10.846
45.7144 75.3091 105.265
66.4599 143.567 62.0306
67.2127 226.885 29.5731
29.2433 144.894 100.127
55.6817 109.38 44.3818
67.3981 137.158 149.082
77.1639 70.5185 67.983
53.4186 148.094 186.019
23.4209 117.242 80.0498
94.583 188.061 158.026
21.8177 157.973 5.28356
16.5547 155.517 57.1084
27.7446 107.457 106.417
49.4806 140.56 166.855
40.3192 138.004 62.136
60.5793 172.512 192.376
27.8107 140.071 93.0229
30.3827 150.928 45.0926
86.1892 93.294 171.131
55.8375 217.296 83.9694
71.6404 70.0133 73.7718
49.3398 228.055 20.8558
45.1549 160.526 74.8888
26.0476 99.7814 155.779
57.6938 155.418 169.694
39.7296 98.2274 83.8995
44.2385 204.125 91.2075
60.9854 136.38 98.1906
22.3647 172.95 17.2079
45.1058 136.248 131.071
53.2818 120.844 112.966
57.8551 226.582 75.4939
49.331 111.557 94.5374
55.3045 140.065 158.965
66.7466 86.0772 75.7182
42.0383 179.309 16.4322
35.3424 120.568 76.797
61.869 90.5015 146.884
35.3078 99.7098 94.2326
36.8641 144.388 12.768
53.0424 131.781 22.1209
33.0739 127.348 25.4843
66.9762 133.386 185.694
50.6965 144.269 174.511
68.7554 134.024 158.371
62.4612 61.4246 79.3505
94.8789 176.56 169.786
47.3428 135.233 110.16
57.6151 157.657 126.387
75.0802 114.794 167.218
62.5832 85.9512 67.2308
75.437 101.284 10.1002
84.3415 88.0556 151.096
85.4212 173.412 130.189
54.1896 108.952 85.896
60.358 154.331 139.702
60.5325 168.717 17.0059
37.7048 178.046 3.30161
32.9231 118.587 35.132
87.1027 125.994 9.09836
64.5587 174.2 166.241
50.1852 162.714 148.509
38.9409 127.833 59.6993
44.5428 199.323 112.221
117.992 83.3548 16.8436
76.8801 152.114 168.478
47.4719 114.924 6.28658
44.3741 112.957 27.639
83.784 88.7485 65.7998
23.5778 173.547 74.5216
79.9564 165.21 160.279
129.513 53.0788 28.7556
28.8057 201.319 104.365
74.6713 105.646 155.857
96.1548 81.7559 51.5101
28.3701 136.335 66.0279
82.6965 172.365 154.095
39.7466 145.413 98.086
79.3115 95.674 97.0361
76.1652 193.973 140.893
40.2918 150.572 51.2806
25.7998 158.2 25.4799
67.7567 68.308 63.5645
38.9745 110.618 70.5154
69.1743 226.109 9.21174
57.8343 104.338 36.8206
119.355 63.6395 12.0626
35.9416 214.2 78.2805
53.4752 180.167 30.7391
73.9449 81.3376 153.976
80.0366 176.065 182.457
81.8394 182.666 174.027
69.3887 88.1859 160.429
54.5339 108 145.031
116.463 71.7162 48.8478
36.6695 126.548 17.7421
122.323 169.373 153.248
113.363 75.063 12.7674
63.0967 132.291 136.851
42.0593 165.683 84.806
128.881 62.0393 40.1623
56.4857 159.039 188.934
29.8282 112.101 70.0405
107.872 75.5007 39.3677
93.3267 158.052 157.762
106.988 143.735 201.878
61.4709 118.783 97.4886
31.7453 133.648 42.3262
96.8857 42.5416 49.9366
33.9729 229.154 30.1742
39.0957 85.3338 132.628
119.097 55.0418 15.7515
97.4181 49.0036 38.421
78.8406 169.918 187.689
58.5003 151.891 193.091
57.965 123.449 91.1904
69.3876 143.7 154.784
12.6946 114.018 122.874
21.08 203.98 104.802
81.8777 87.1074 127.837
121.673 52.5547 38.6107
74.5288 167.468 76.6817
45.4285 221.52 66.5261
49.9252 175.762 113.989
93.8168 163.907 169.108
60.1918 138.923 181.286
44.1262 133.905 21.9304
77.3103 118.047 180.724
93.3323 170.803 139.296
70.3067 136.27 178.364
96.3982 100.062 159.065
30.3631 115.956 118.629
67.304 124.808 91.3896
43.9317 139.355 16.9046
48.7709 218.387 60.0567
64.0251 129.28 85.7039
49.347 213.1 92.4085
40.525 112.554 45.203
35.9227 163.74 102.306
47.5027 128.508 53.6114
54.7918 220.828 16.2769
62.0993 95.1695 62.1291
54.4558 228.265 28.6886
24.3184 105.574 159.339
60.404 146.372 71.7534
21.8718 145.184 67.192
44.367 211.445 83.2637
39.8988 132.79 68.9423
21.7464 159.474 42.8473
59.7874 79.186 90.7787
66.8662 143.959 196.507
54.3891 157.125 68.2701
82.6471 88.316 94.3693
17.4796 113.532 95.7116
87.3836 175.806 182.972
32.6737 101.26 67.4285
66.6128 139.279 3.9184
13.0227 169.091 102.276
16.2884 164.396 52.3337
65.244 97.7435 72.3864
85.1434 157.587 181.784
44.8336 175.856 156.14
97.9679 147.188 167.299
30.9717 118.097 95.2593
71.8343 55.2874 68.53
36.3762 203.736 95.3049
56.191 113.853 35.6775
19.5267 99.7447 146.787
74.3458 129.206 13.4208
32.2725 109.776 93.2955
67.2502 61.5455 65.0038
111.959 169.476 164.423
9.9633 190.858 33.4787
68.9088 167.241 124.998
50.8538 124.485 120.401
76.5775 65.6272 91.3284
74.4321 134.678 152.529
81.1426 112.14 80.2491
26.6523 224.237 89.0927
36.6255 225.524 66.7411
11.0402 186.128 14.965
82.7134 138.229 156.373
70.5436 162.893 145.001
100.889 119.461 31.7366
11.5723 92.9735 113.641
47.7654 115.38 71.9385
60.4911 168.749 3.77923
63.7844 155.825 65.948
34.1198 177.94 43.5026
75.7597 136.507 165.913
44.5894 156.26 81.9971
59.1737 141.617 131.991
97.306 94.5132 152.472
67.0292 179.049 157.389
105.938 45.0749 45.1169
35.8684 102.273 121.82
50.088 154.444 76.1397
74.6072 81.8171 127.897
55.6092 185.687 141.898
63.7154 97.0386 158.679
67.4075 165.559 44.7699
27.7618 133.78 20.7676
48.2112 230.224 133.368
42.6652 142.733 111.685
42.5559 152.041 173.411
77.6237 87.7121 74.4027
106.94 47.6403 35.485
34.1366 225.536 20.1054
29.2935 230.16 272.866
43.9482 187.748 101.24
44.1956 153.963 159.564
36.6218 139.155 140.734
29.0647 158.797 74.5617
61.8507 106.858 75.5025
68.9454 224.477 21.7328
40.481 103.521 29.3549
54.3208 181.659 150.01
88.4227 158.785 140.045
52.817 134.62 170.788
80.6608 207.92 130.055
17.1852 89.0771 120.093
48.8606 123.414 7.69502
50.6494 128.72 126.71
59.7034 76.9398 82.5728
80.7581 72.2036 75.8955
67.7582 167.735 59.3332
43.659 187.947 17.4714
55.8618 112.275 4.56316
53.9163 214.379 111.743
24.1043 165.745 81.5599
53.2654 68.5396 75.3539
42.1156 180.534 25.6349
60.593 164.772 149.129
69.4855 61.1705 85.7695
57.149 222.335 25.0679
48.2965 217.772 116.526
38.7312 141.778 43.0395
70.8529 123.21 83.0986
28.3886 99.8834 149.953
65.01 192.683 142.612
14.038 95.8928 100.671
40.5664 130.42 81.1494
62.026 156.511 147.56
83.8458 114.319 4.29585
42.4266 185.654 83.7531
107.177 82.882 21.0383
79.5259 162.221 199.792
48.7593 156.222 120.723
41.4097 137.61 51.0165
66.4222 183.401 55.3623
41.7861 162.1 159.954
48.1254 107.388 36.1255
98.1806 158.898 191.204
52.7398 161.081 114.911
36.1996 123.515 47.4921
112.133 141.545 176.322
105.922 173.823 175.337
54.0904 136.569 144.52
68.9844 199.01 113.37
93.651 62.5123 35.7614
66.4742 156.41 127.086
63.7804 131.103 164.207
72.1158 175.737 177.46
39.1523 113.234 18.5927
34.1964 144.425 52.761
30.0956 125.45 82.4195
77.2657 110.179 9.02968
19.5181 171.139 64.5279
24.3045 90.5609 96.2281
42.6991 162.869 153.483
24.4969 136.508 112.477
53.1273 71.0848 104.587
26.6473 229.529 76.6955
84.5394 72.8769 87.862
23.8493 98.8374 87.2644
99.6992 159.263 179.758
51.6146 136.161 185.013
31.9786 132.507 82.0213
6.6992 91.7844 124.085
95.3857 179.636 147.713
63.0609 224.904 14.126
82.6733 197.472 174.528
24.1473 108.11 166.279
99.2048 49.812 59.4679
26.9205 215.766 95.5103
56.7367 118.199 136.914
79.5291 147.438 98.4912
97.1289 173.623 158.803
26.5737 121.837 97.8814
67.3749 150.365 199.262
39.1732 149.425 112.823
39.234 139.647 2.49754
63.3084 76.5155 65.289
95.9179 190.655 190.388
65.114 169.067 143.541
108.841 59.4334 13.5196
78.9452 154.923 202.177
42.5663 108.462 129.104
110.809 56.0423 23.8777
59.2831 135.304 78.144
71.2626 151.162 152.591
21.9669 215.192 100.862
40.5693 80.8774 93.8287
50.5109 88.4945 121.53
50.9178 163.67 61.3904
82.8209 187.618 144.806
38.733 173.436 80.7014
87.3663 117.263 15.9879
46.0717 116.092 83.7658
12.2341 97.7076 127.698
38.532 84.5207 98.7793
17.7508 120.992 98.7773
65.6999 127.416 104.75
32.223 229.262 13.3511
27.9473 110.917 99.0758
50.461 172.93 24.364
35.1791 99.8159 107.929
53.8215 187.297 25.9607
74.488 202.442 22.7897
16.275 123.019 105.583
45.7496 74.8105 79.4663
21.9738 151.539 51.8858
47.8469 169.33 118.019
27.4441 177.194 69.6975
29.2728 147.313 68.2736
65.8474 114.598 93.861
65.9474 170.929 71.9902
48.4511 118.666 53.872
51.9835 75.4708 86.9645
18.4066 102.813 165.876
46.6683 115.144 40.3338
54.6078 141.119 118.853
120.481 62.4588 43.2865
76.6513 171.175 141.987
31.7674 224.13 85.0682
80.4107 133.152 5.3853
29.8209 109.166 52.7695
69.2111 108.738 4.97152
39.8888 193.355 89.6251
54.4364 179.735 42.8864
28.3949 171.109 48.9107
47.7555 198.098 100.007
40.0457 134.648 136.674
67.3477 207.602 47.9532
95.6304 167.926 182.389
63.7166 165.118 161.716
85.3312 150.644 175.164
68.5472 150.819 67.7587
88.7017 149.98 193.475
58.9158 132.703 36.5374
74.274 99.7051 19.8899
59.6923 74.8495 109.8
65.1141 72.9132 93.2619
68.7877 118.972 88.0576
61.8409 193.612 25.161
56.8748 187.956 69.1359
75.7632 74.7933 97.9707
51.3568 174.981 122.503
48.6868 106.626 10.8035
59.8281 85.4548 103.796
56.6096 176.688 6.16908
34.1378 169.82 66.7215
80.9023 199.477 126.131
38.8875 134.882 124.499
57.0065 180.727 113.789
26.6502 156.785 37.6419
70.8738 114.882 81.5292
73.9722 229.809 16.4348
49.2018 107.318 64.7394
27.4313 134.088 86.9124
69.4928 121.276 74.0189
75.1962 198.391 169.302
64.7632 142.852 14.2492
71.33 91.1978 61.2307
60.2931 127.445 2.99219
53.3418 105.524 95.0858
52.0022 144.092 148.885
21.2429 161.347 91.864
40.0356 161.159 5.79859
71.6589 164.928 4.63342
70.4863 97.8864 98.5202
87.2442 163.896 148.905
23.4009 230.317 19.1195
31.9 137.975 72.296
58.2911 165.579 36.4384
45.2683 161.445 39.6597
51.4365 149.72 114.459
73.0673 92.0927 69.1134
64.8858 82.7869 132.364
65.4789 149.82 188.973
32.0933 150.217 88.163
44.6612 114.664 134.565
49.6718 106.332 104.982
33.701 94.9323 76.3697
21.9834 167.781 97.5431
25.1013 133.114 120.943
76.7657 198.789 105.623
74.7765 138.595 195.193
69.9761 178.04 112.511
79.849 65.0768 53.2512
54.463 120.881 77.8784
40.1203 96.681 67.4849
50.3082 195.479 51.3251
46.1393 152.722 181.736
57.6405 103.736 152.402
77.7562 168.428 173.169
78.1151 151.975 143.672
105.538 178.101 168.743
105.462 186.244 156.335
68.3804 181.347 171.266
89.1494 82.7868 80.3786
40.1613 173.469 9.7847
76.5643 114.069 2.60767
43.5301 172.724 161.963
65.4134 137.644 115.431
17.8531 155.913 96.4026
46.4083 192.785 75.8179
95.6475 92.236 170.343
78.2158 91.8803 156.87
68.7821 91.2789 111.371
47.3414 166.36 175.924
35.9833 160.352 79.4545
119.821 89.2361 23.8488
44.5662 73.9332 92.4247
57.0068 118.984 58.6395
72.9635 128.879 26.4231
92.2787 120.885 180.219
70.7436 174.367 55.5472
102.282 77.9939 32.4157
58.445 178.581 127.723
58.4286 104.879 131.426
97.7877 99.4093 139.767
53.0489 222.521 6.59849
14.0502 98.4662 118.218
68.3608 168.667 155.721
70.7661 155.812 201.239
76.1759 84.9367 137.81
46.2489 172.365 150.665
60.5228 189.007 154.527
108.347 61.8144 59.7818
74.9435 178.374 165.795
83.1108 156.688 61.1016
113.155 37.6311 45.9211
70.7793 123.858 63.047
30.4614 116.678 88.2448
41.0769 157.815 27.0317
41.0201 215.326 90.843
30.6076 167.918 33.6957
9.34826 164.498 94.964
27.5334 177.284 55.4351
22.3932 145.189 77.1363
48.3191 174.722 169.973
57.1366 133.51 7.2261
12.6868 168.568 27.3296
99.514 183.138 142.552
26.3432 105.832 73.4147
47.5617 230.449 150.348
60.813 64.1339 72.065
72.8353 115.579 64.041
17.5154 89.6134 128.293
36.0361 106.446 60.9736
95.766 204.389 121.055
57.9095 86.0851 74.7164
93.4358 172.35 126.767
26.5003 173.974 10.1659
53.0699 199.755 4.29851
56.9517 157.756 180.236
51.1463 117.524 88.754
55.9251 99.415 72.6348
54.5589 133.215 111.914
38.8869 168.719 73.5486
33.8934 152.721 61.9329
100.706 52.5646 48.0541
81.237 143.713 197.356
65.0347 229.694 38.7711
26.1653 159.765 50.8645
52.6628 194.519 116.072
52.4788 108.248 76.2702
81.307 179.734 165.92
98.5077 148.658 178.002
48.5273 163.531 2.43925
60.3124 89.4751 134.075
70.2037 166.847 13.2602
59.0058 99.0857 83.9938
19.5289 98.2462 104.111
73.6839 167.979 135.175
14.641 163.976 61.0766
66.8534 151.329 6.88616
46.1692 207.901 104.448
34.5081 162.222 41.7603
61.0966 126.121 98.6736
60.959 131.423 53.9461
74.9814 58.6705 80.0883
54.299 175.172 143.457
85.1079 116.297 24.6778
83.5806 211.476 122.801
60.4124 133.715 157.037
15.5802 152.219 106.587
30.3167 136.842 28.0265
57.6392 165.351 77.1267
52.9625 186.301 52.8505
62.277 186.022 34.6276
95.786 194.674 122.688
125.346 161.257 148.006
47.6403 82.2744 83.5201
70.5454 190.269 159.585
61.3088 137.519 123.494
74.6305 76.9193 88.3633
53.4333 179.733 81.4178
111.176 176.218 161.383
37.9797 169.982 38.9414
59.2147 183.726 171.305
65.5585 84.9878 123.065
76.2364 160.258 182.829
53.1121 164.404 125.533
78.1139 144.579 179.222
61.3054 100.761 147.207
29.3923 142.75 117.839
48.2971 81.3948 110.916
52.8369 230.047 82.1095
32.521 182.432 14.3211
54.4018 129.125 105.158
89.6144 194.384 132.689
50.7379 194.535 107.429
111.906 163.813 155.446
77.8062 148.97 49.4062
63.8796 187.606 62.576
62.6756 134.657 108.124
28.3714 98.5209 74.6241
95.4897 178.235 178.168
29.4986 228.844 146.234
45.702 230.652 78.2707
133.025 140.36 168.531
115.757 173.476 151.888
94.4712 110.589 139.204
69.8309 145.35 176.937
54.8331 133.104 163.147
27.3541 199.22 97.1918
72.3499 98.6525 112.507
18.5468 159.361 71.3625
37.9729 128.559 73.4915
106.057 183.125 148.144
43.7952 148.396 22.7112
7.74191 86.4465 118.823
59.648 169.785 83.0309
60.7123 104.171 10.3803
86.0016 69.3094 58.7983
66.5329 203.813 58.2826
80.5106 96.8175 65.7876
84.5953 78.7628 77.059
38.4208 192.179 99.1386
68.7234 165.086 108.198
98.3703 86.0086 155.731
74.1547 185.292 162.746
106.819 71.5001 21.6461
96.7624 66.2858 25.2345
46.7098 231.002 140.789
66.895 99.9748 8.46086
22.3496 162.128 66.5009
79.8883 79.8683 147.265
53.7609 171.829 164.041
49.624 229.037 11.9319
74.5718 172.466 81.1284
25.2636 99.5436 132.751
62.2031 174.756 62.6922
59.0284 108.395 101.64
107.289 106.471 24.4994
61.5442 108.407 112.643
109.867 168.397 140.745
78.5137 191.519 37.6181
68.9478 199.545 125.561
35.7471 147.88 82.1767
60.9993 154.097 186.912
20.3218 216.473 79.8523
49.0954 193.722 2.3942
36.3014 175.732 49.523
60.0697 159.725 10.5296
77.0766 121.547 34.1623
73.2545 114.572 90.3241
68.9851 142.129 55.0195
44.6935 163.075 57.6571
44.7294 154.908 12.4343
70.4697 60.9189 73.879
108.93 162.553 184.395
43.8192 123.866 82.6025
46.7291 116.921 124.126
67.9035 188.437 150.019
78.6328 134.589 71.9597
31.1537 151.384 31.8818
56.179 172.255 108.863
87.0483 152.462 146.213
76.2564 109.852 95.0754
63.3939 61.2537 88.681
67.3944 84.4674 105.339
105.219 90.5601 109.371
42.0581 159.66 170.912
46.8114 147.522 177.341
73.595 214.579 119.097
74.035 154.136 8.10607
55.8071 173.753 182.417
57.7389 163.649 178.798
54.1813 164.097 26.1671
74.5413 127.767 44.2222
124.392 144.435 175.526
101.419 66.9997 17.7777
80.6754 162.719 70.6408
96.681 178.824 153.44
38.7698 178.571 65.9239
92.2371 169.827 11.622
27.3956 176.373 61.4535
84.2385 108.253 26.1281
32.2667 210.559 98.9508
74.3889 88.862 118.797
100.151 192.407 180.618
98.4276 151.777 188.19
31.0491 167.506 79.7325
34.4468 143.838 88.7793
82.8388 179.906 157.725
85.8063 126.007 17.9606
84.5749 170.287 139.458
31.5842 106.687 77.5126
47.8423 142.93 89.931
36.3102 155.167 85.139
56.0592 200.672 67.3507
76.7337 112.663 72.5747
63.2689 111.78 1.75192
76.2754 179.927 126.673
32.232 194.503 79.3137
44.0682 108.599 67.3009
27.2202 231.115 158.671
86.35 163.114 193.507
62.9368 213.028 75.9456
71.2049 86.6191 84.801
51.1847 181.14 157.463
121.071 81.5953 49.9732
83.078 120.925 168.503
66.9479 134.651 125.898
72.718 101.26 30.1433
52.0372 178.022 15.2534
59.814 190.086 16.2187
69.7504 156.644 177.131
86.0071 185.147 150.292
87.2964 91.4743 135.889
113.016 156.2 174.556
64.29 210.486 110.48
25.0365 117.388 92.0399
85.163 154.036 53.6827
63.5483 99.4914 121.853
75.8626 120.138 40.7607
82.6579 216.26 42.0516
32.3527 156.621 21.4696
72.4968 137.77 18.4678
13.6402 148.421 97.819
50.278 122.212 130.708
89.9611 180.902 13.9539
74.5322 211.947 62.0128
86.7991 162.082 172.866
75.904 105.195 118.009
39.8236 230.129 141.308
83.1494 206.559 44.3765
66.9977 137.857 191.016
75.6691 178.127 72.2658
46.6079 169.569 70.0525
26.7772 102.372 117.189
56.6536 181.375 161.248
20.952 106.384 136.826
83.8173 151.378 198.296
47.1682 136.449 2.3413
121.81 165.539 142.897
87.0392 143.615 169.132
134.58 127.711 171.144
65.5397 115.072 53.9587
41.7657 161.617 101.592
61.4019 134.088 173.13
50.0822 164.033 169.331
49.1844 106.995 27.2122
59.6553 220.19 68.7005
66.8575 152.008 159.399
72.4798 140.837 40.3806
61.2865 164.342 63.252
64.9928 151.143 170.296
75.0135 175.327 170.676
60.5983 172.744 29.9722
76.1179 108.452 63.2188
43.8991 228.176 28.0068
84.5681 105.865 83.2938
67.6282 173.474 44.1485
62.2944 157.464 74.6187
74.9863 147.945 200.967
33.3391 230.784 72.3288
90.1275 120.199 171.955
103.911 61.3409 47.0495
70.0427 104.609 106.543
68.5005 192.769 104.49
57.657 160.489 100.445
89.4863 72.3793 49.4748
34.62 144.167 27.0558
27.6887 215.748 75.5764
46.1601 159.899 182.09
97.5445 180.147 134.741
48.422 124.82 100.36
93.0899 229.593 22.195
29.3231 151.901 79.7593
22.295 158.818 13.3389
41.7119 90.2672 121.292
108.859 157.902 144
42.3718 108.833 119.677
59.7173 120.823 123.935
92.9663 163.331 186.567
64.3157 177.294 119.727
46.7892 143.957 120.217
86.4481 189.196 156.7
59.4786 224.51 34.7303
78.4342 104.201 68.55
66.9994 137.189 44.0388
66.3112 133.664 21.052
36.1491 137.875 84.8457
111.865 181.942 156.608
71.9889 167.083 165.948
101.11 161.165 170.181
86.1374 184.173 162.093
88.1191 179.291 173.097
83.8442 143.041 36.5872
42.4257 119.198 116.786
50.6736 127.488 37.9315
32.0573 145.307 18.1639
85.2834 98.7461 118.933
35.1788 142.608 112.254
67.4145 105.504 67.2531
58.797 150.896 11.5451
42.4798 165.635 165.602
52.4777 78.143 69.7429
32.5075 92.6979 113.173
56.0817 111.765 26.7783
13.1424 140.449 1.58285
22.5801 224.142 82.0734
89.783 200.091 21.1575
47.8381 108.453 43.9542
97.5597 126.559 28.0142
45.4441 99.8292 98.2613
54.777 107.973 12.6022
50.2193 151.835 4.98374
67.8602 159.403 166.598
50.8421 139.002 7.92082
40.6207 229.965 151.955
54.5795 166.827 68.2145
103.431 175.784 141.999
34.7309 231.243 150.18
46.7144 230.064 5.72891
80.0458 96.0768 81.5764
71.2866 202.989 120.425
36.6715 229.936 128.598
20.5409 151.245 1.82659
71.3822 125.504 122.641
42.2582 122.672 50.379
32.7425 218.1 69.0725
35.9712 136.812 54.2685
85.9646 138.779 43.3625
40.7968 108.178 39.4948
51.6034 105.164 124.408
71.6276 163.744 69.6808
61.1807 156.871 160.874
48.5478 163.768 44.8962
66.0223 109.56 119.158
29.5912 122.501 116.828
20.1128 171.011 54.931
53.0415 179.77 170.455
58.2597 152.329 79.0771
59.3877 226.049 106.09
91.343 52.0977 54.3187
98.0841 74.5176 21.7801
70.5579 149.214 145.243
95.3352 96.1779 81.8498
46.0451 221.726 94.8114
20.4263 99.9685 126.932
21.7884 231.186 272.042
84.0251 100.734 150.554
68.7198 215.218 51.7179
66.5156 194.008 119.198
51.6269 189.431 14.5278
18.9308 231.21 255.953
96.5208 150.823 147.48
124.031 97.9371 168.537
101.614 62.8343 67.7324
70.3375 154.575 133.415
49.8056 169.903 142.635
65.5795 142.745 77.0702
63.9417 103.221 27.4682
51.6676 172.309 178.394
84.4415 130.67 70.2775
77.8027 186.301 134.04
69.0257 172.514 91.4449
57.9556 170.734 124.328
87.8673 199.358 122.264
109.018 65.0151 39.0626
42.5599 175.91 51.4965
105.568 107.687 178.176
39.6678 203.827 103.55
49.6306 88.626 74.6231
60.2353 194.201 42.2538
71.2735 113.314 24.4357
61.1244 145.888 192.618
80.5954 141.501 10.5286
58.2867 94.4336 121.938
101.717 167.929 159.815
44.2492 111.373 89.6717
44.378 167.971 170.787
121.429 155.159 177.196
92.0203 189.672 51.9177
75.2402 172.887 157.84
63.1012 186.371 118.73
88.0671 97.9772 74.1147
40.7535 197.103 80.9071
42.7803 117.38 20.2282
83.902 149.714 33.0863
28.8945 150.713 56.3524
66.3449 183.753 133.467
62.7057 174.933 108.948
20.5958 150.008 102.039
67.5712 95.914 88.7527
23.6451 118.426 86.2484
42.3573 144.048 84.8974
112.814 55.4335 42.4513
84.3764 198.245 30.4981
84.022 52.5873 52.722
95.2957 211.815 108.936
90.6217 167.142 155.461
82.7721 140.22 191.333
69.3651 140.327 133.234
89.3008 179.774 141.206
117.406 144.857 163.41
47.2554 159.6 101.036
94.4431 64.3105 50.0679
101.187 123.012 20.1566
32.7824 163.085 24.947
20.1925 167.114 73.865
120.226 166.804 164.569
89.95 170.688 174.942
40.1639 126.625 100.535
80.0617 193.917 6.2257
28.4527 211.014 106.484
111.464 83.4468 29.2602
111.697 70.8396 67.389
78.048 228.781 70.9014
63.342 157.699 103.276
39.6156 231.405 23.1446
55.1632 182.87 94.0464
87.2218 190.709 126.447
66.4019 228.651 104.302
55.1903 222.887 90.2132
100.874 130.519 21.1398
34.279 165.96 51.548
93.805 164.178 150.773
83.8285 170.873 174.253
29.9892 231.506 135.275
78.6616 190.6 111.04
66.3887 113.063 127.968
23.007 218.032 89.9446
77.8548 215.582 52.3558
64.9027 115.116 106.378
93.7655 158.412 9.52301
89.9741 131.201 175.075
60.6335 86.8364 81.059
27.6647 130.788 104.623
73.9958 85.3614 104.084
70.581 141.989 167.967
26.5029 231.368 8.6988
53.0352 147.473 80.4933
65.2365 128.799 78.2761
62.8989 166.905 124.282
81.1019 125.913 179.081
51.5466 227.756 70.5906
81.8865 155.211 84.5016
58.5632 189.069 54.2217
55.0747 86.1379 112.944
72.9501 122.785 115.948
99.5837 136.273 182.608
125.875 85.4481 30.0772
95.2407 192.281 14.6573
53.8802 144.21 104.03
93.5727 132.406 190.288
82.5145 198.914 13.7377
85.0521 212.396 109.861
47.625 231.442 66.8406
53.5119 226.462 101.143
85.7037 134.369 23.0963
109.31 129.548 179.017
69.39 179.179 65.9476
39.385 224.079 80.1019
68.1337 98.4338 19.8598
24.5713 116.845 119.508
51.7536 231.585 125.49
87.6301 146.373 182.805
59.2447 142.432 5.33599
47.3049 103.83 114.688
127.53 135.048 173.994
47.3318 184.483 92.0355
31.4288 116.105 131.577
28.2889 92.0446 90.9653
50.2868 210.55 77.2301
52.5785 165.435 52.1107
33.7048 101.924 113.797
22.2941 154.452 81.2095
81.5025 102.168 89.2622
69.2623 80.4574 90.4113
48.7995 169.458 160.372
49.029 143.243 82.7916
79.5888 221.401 109.85
111.418 125.217 15.8154
41.4451 228.754 75.04
73.4208 133.385 52.1794
46.4858 99.2384 130.377
73.0123 106.238 100.9
75.7893 197.152 28.2537
54.5948 130.973 46.3019
61.2882 220.172 55.6258
41.4983 104.479 101.522
62.4772 207.148 2.88392
76.5269 184.752 170.236
71.7947 98.7994 63.7123
54.1102 164.565 106.961
34.0287 156.981 53.7308
31.9895 166.848 16.7059
58.9947 116.554 49.4271
54.4056 111.08 110.425
120.585 64.1622 23.1642
111.311 175.749 145.103
92.6587 161.467 133.292
55.0877 176.838 91.0193
112.339 120.445 23.9275
40.8341 166.304 21.3385
24.1658 122.43 122.88
85.346 91.6648 82.0449
67.4197 186.947 4.49656
52.0173 160.869 96.5799
40.5783 231.426 160.843
99.3593 222.021 105.692
87.6455 157.616 44.3349
79.4799 94.837 122.211
66.1746 230.441 62.2249
64.4988 195.391 94.1572
71.0778 178.87 146.848
124.789 121.998 173.763
61.1479 98.6085 137.26
89.2419 194.161 43.4876
77.8646 149.819 2.44984
54.5395 118.878 27.8781
123.3 64.9495 29.4987
92.9553 228.601 10.7727
68.9706 230.971 81.3508
74.6622 155.518 114.442
21.9653 178.537 11.0997
33.7503 183.972 92.1705
21.3361 91.8263 89.382
60.4871 117.26 32.0545
73.8217 95.4202 135.539
90.9314 197.969 29.8606
65.3938 219.924 108.522
93.0578 114.465 162.433
53.3965 172.288 47.777
25.6925 189.344 77.0097
15.6229 99.483 107.924
95.1456 88.257 106.496
70.7501 159.59 57.6506
71.4339 137.194 63.9217
53.6347 118.49 47.0532
68.8171 187.723 166.227
72.1839 207.251 102.524
88.7968 200.956 12.0653
34.7357 151.451 14.8512
41.9336 207.984 73.2019
24.8243 231.677 148.915
86.9125 59.4461 62.4945
87.4529 200.025 87.8634
76.8265 147.126 118.342
79.2926 138.733 52.37
106.72 149.562 182.473
86.3701 138.613 8.38794
126.393 126.683 18.2635
41.2456 139.395 56.5786
76.6354 155.858 133.816
100.724 71.3799 58.9368
63.6662 100.352 111.638
116.43 156.411 159.936
71.9732 124.455 1.58515
53.891 160.837 11.3735
81.3129 228.492 132.953
94.4478 227.029 98.1062
44.1301 99.3753 105.332
96.5484 100.661 129.481
78.4022 203.289 67.0808
80.5354 133.839 21.9941
68.3326 195.327 35.2491
75.9698 147.939 126.29
59.6421 136.891 163.881
62.647 67.4013 77.4265
82.5914 146.014 63.3913
85.4292 145.247 139.586
84.5995 151.399 41.9432
87.424 138.629 80.2865
19.8885 193.173 16.6865
79.533 222.035 129.547
106.809 135.153 180.138
70.7083 173.188 106.855
49.3659 177.128 164.879
67.6277 151.248 110.516
60.136 230.173 2.93385
40.1482 120.35 103.068
54.2141 231.08 95.0914
37.1229 204.163 70.8966
52.3509 182.421 1.98603
91.3743 60.8873 66.5087
63.4959 153.898 1.61446
58.9336 114.851 129.967
100.503 116.12 23.4774
69.582 118.238 111.408
75.8293 181.459 174.02
123.342 155.52 160.598
71.7074 97.8151 148.569
131.221 153.085 167.433
79.2492 143.827 165.668
30.134 132.201 99.9314
52.5039 165.309 181.582
63.7837 126.14 51.0217
114.64 111.57 174.255
100.908 110.683 23.0827
29.8117 231.492 23.8041
95.6721 68.4145 66.3579
76.905 228.885 90.3102
80.5639 187.976 121.87
92.2579 188.115 149.379
75.114 184.289 120.075
79.3963 138.738 19.6809
65.8409 121.77 44.3943
71.6317 189.216 24.9048
58.053 116.53 1.09414
87.9295 223.797 28.1359
84.5037 123.288 156.067
92.708 51.3943 64.7858
16.388 231.357 270.5
77.9647 176.8 146.945
39.5688 152.042 17.601
72.4934 109.995 136.493
81.6495 109.362 137.426
73.2254 173.713 28.3962
78.736 213.934 102.848
75.7371 209.793 73.0189
67.6997 86.3123 99.33
120.512 72.9906 58.207
86.3917 168.019 180.145
87.4373 160.257 28.9046
87.0235 129.85 35.2518
98.8473 151.555 138.701
75.8314 163.359 102.674
78.9687 225.763 57.5327
37.3143 140.475 21.3067
91.908 64.3369 58.7706
26.8603 160.028 10.5475
79.2153 98.5433 148.488
87.2125 187.215 24.1124
100.054 160.338 133.619
70.0375 186.411 117.903
77.2299 114.805 114.932
34.71 156.722 27.4564
73.2544 229.854 102.274
35.9124 99.8471 147.394
99.6741 137.335 22.5216
15.672 182.121 18.9152
132.15 152.711 147.034
39.2059 154.006 1.02426
67.6087 104.507 138.015
52.0006 112.882 117.587
77.9146 171.73 103.215
75.8823 231.812 23.3972
81.2925 218.379 125.96
130.617 79.672 26.3276
47.1203 231.683 35.616
74.1614 144.751 57.5839
55.3048 123.509 49.8067
89.9028 133.343 181.965
106.411 115.23 26.8378
80.7747 111.123 41.0144
91.6026 207.435 113.889
100.205 122.05 39.2958
120.172 158.088 153.816
73.299 131.946 128.669
