ply
format ascii 1.0
comment Created by Open3D
element vertex 695
property double x
property double y
property double z
end_header
48.7845 126.825 47.6446
8.62825 206.571 78.7263
52.8742 186.448 132.075
15.4296 167.473 53.8379
19.4043 149.345 63.3996
41.5891 179.659 88.627
13.1404 209.233 71.9755
60.1624 157.622 137.223
21.733 141.06 66.2091
19.0282 145.438 49.5856
36.3596 182.328 68.3538
63.5859 171.564 130.497
61.3342 120.898 130.032
22.1614 137.268 59.5449
39.7285 173.45 95.0313
33.8605 112.306 84.3851
14.8895 165.269 98.6536
53.3822 190.197 111.429
43.9229 192.064 58.1139
49.0875 141.073 150.583
16.5948 152.425 116.183
15.4068 156.486 55.1599
49.7973 180.282 91.963
7.27893 193.947 52.9365
18.345 200.519 80.4816
24.9429 127.525 72.4416
26.5182 200.869 68.2611
27.9357 154.262 52.5218
21.7656 139.675 134.578
22.1796 161.356 89.8109
27.1818 155.478 30.2695
67.8243 166.194 129.299
38.08 192.958 68.5664
50.8951 180.797 123.434
35.8219 105.153 99.7057
16.2358 199.087 89.1223
28.3736 181.863 127.749
19.3653 147.111 133.01
57.0562 115.685 136.313
58.0961 112.828 59.3007
21.7446 159.225 37.9374
19.4243 159.326 136.281
33.5626 149.317 95.5183
15.6876 152.348 128.078
30.4807 166.599 149.883
26.9943 147.454 109.786
23.6812 166.793 95.0199
24.0033 157.89 67.7352
57.2069 172.884 136.73
44.2119 154.91 142.155
8.88247 200.014 74.4036
19.4553 145.478 113.058
46.9093 100.702 73.7783
14.9565 198.307 71.8544
12.7605 170.824 35.7161
35.7898 142.574 103.266
55.3979 175.965 94.8234
27.8429 195.116 102.231
10.5307 183.957 88.4909
53.248 114.342 125
43.3196 106.678 110.396
16.5738 205.745 59.7224
53.7584 121.124 131.457
25.3701 198.641 56.3272
20.1583 127.658 58.4682
24.8935 137.688 140.488
11.221 197.841 57.8613
29.8845 130.87 45.1866
64.9188 112.093 107.586
22.8399 174.016 92.1196
31.6234 198.262 84.3904
33.1352 108.044 67.7014
51.9891 179.545 136.084
55.1176 104.676 70.8916
32.9568 133.138 61.1391
40.9552 114.427 112.675
8.91758 172.54 39.2615
38.6923 120.851 62.8677
28.4315 197.229 90.2527
30.6953 170.416 35.2058
22.9696 140.713 53.5492
66.9309 154.056 134.715
31.6728 137.011 77.4515
60.3284 103.595 106.828
45.0683 177.944 131.283
29.1845 141.285 129.242
26.9775 142.834 114.965
7.63047 202.426 60.193
34.8077 140.871 85.4106
21.9726 143.37 74.1883
66.407 158.277 129.246
34.7859 144.126 150.487
13.8213 177.651 62.1237
48.5198 168.46 96.7979
20.3341 191.064 93.3506
35.87 105.006 93.2956
43.153 182.61 77.654
19.6168 191.018 76.3228
30.4913 136.146 136.847
28.2594 120.562 89.6539
45.8849 171.893 135.24
67.5166 159.711 48.9317
18.5204 142.93 127.605
24.388 200.658 84.1493
19.2463 151.141 53.3816
53.876 97.7195 93.3723
26.2995 134.649 89.9816
15.3313 180.829 51.3795
45.4937 143.123 35.0582
14.4023 150.854 137.552
35.8224 191.627 79.3134
44.0485 192.692 108.706
73.4713 118.058 100.348
26.0012 170.254 141.033
23.4532 146.114 60.8203
16.9148 157.435 65.4179
38.5767 190.502 86.6175
52.907 141.252 45.0957
54.8608 134.497 43.5755
62.1024 181.169 111.672
42.0447 185.726 45.2455
36.2115 178.651 81.5635
18.4 172.99 44.7545
37.1551 130.355 148.476
12.5846 193.366 94.2832
42.0623 142.676 45.41
39.5579 125.964 116.93
25.5563 199.406 62.1377
56.1865 159.749 144.977
45.6574 124.718 142.126
27.6172 151.839 67.3598
60.7564 173.709 108.956
66.11 131.736 133.934
24.5306 160.159 147.785
32.7631 146.896 48.016
35.1784 99.9938 78.508
15.0756 160.419 111.203
22.1008 115.936 79.6276
25.9912 118.826 95.9331
45.7564 182.459 105.782
32.4882 178.054 32.7035
39.5017 124.584 122.277
49.9367 151.637 144.943
62.234 135.943 58.3953
20.1047 178.365 129.487
26.7029 195.711 45.0469
8.35276 186.29 43.4025
45.7407 104.012 102.985
47.4482 193.189 114.999
56.5298 93.287 87.517
71.4258 113.828 71.1115
32.1208 171.212 132.642
69.456 137.137 135.254
45.0042 186.933 100.76
35.9741 154.184 33.5814
26.1954 153.436 112.781
50.6857 126.642 143.429
22.8976 137.014 78.7833
38.193 172.532 131.069
32.2575 119.81 70.749
44.6638 164.969 132.301
69.1748 147.003 127.898
31.1909 176.461 129.525
54.891 179.297 45.3736
27.0645 132.567 81.4294
30.1372 136.618 121.215
40.4445 153.825 33.93
38.3587 104.513 85.9155
50.6617 100.983 103.065
35.7845 186.12 124.341
29.4364 127.234 65.2767
70.572 153.173 118.156
66.1174 102.498 75.6433
25.3529 153.772 102.473
57.1822 168.625 84.186
9.8901 193.022 86.2248
20.8023 134.837 69.6311
28.3494 140.368 147.974
41.6682 163.838 146.398
44.6397 189.666 120.48
46.6028 151.477 31.0781
31.0569 104.428 88.322
41.7855 96.9793 98.9993
55.7933 105.73 62.4011
23.5201 117.427 88.8028
39.0969 186.874 52.5706
71.8587 136.958 118.789
19.2756 147.995 140.828
21.8878 143.143 139.639
66.9666 99.0768 89.7055
10.6679 186.344 82.1148
39.4478 160.608 34.3445
14.4272 227.309 101.041
24.6237 148.895 145.629
20.6601 179.475 35.6638
47.1905 167.654 144.555
38.6574 191.102 42.6058
8.43795 199.147 66.9925
34.7552 194.413 52.6378
23.3063 140.338 43.0015
64.2287 164.324 118.682
54.9199 167.685 42.2558
35.6474 181.716 134.217
65.8285 144.599 139.971
26.214 140.888 121.557
38.5782 192.821 104.432
30.8442 137.684 41.8348
23.356 167.231 47.2735
30.5241 125.577 76.3168
44.0247 121.917 122.773
33.7478 147.102 79.5785
24.4428 128.892 92.4931
13.7728 155.99 122.287
64.5 166.2 133.304
13.4679 180.853 101.581
70.3283 108.548 77.5611
46.7526 140.176 46.0993
32.7181 141.202 113.324
54.0862 98.286 77.9271
25.1379 159.313 100.477
36.2492 152.747 148.685
40.8927 105.317 103.098
31.8945 122.589 59.1967
49.9886 158.272 146.925
21.5078 158.36 108.486
68.7822 107.093 99.4406
46.9027 121.051 60.659
63.2121 161.434 124.066
15.6627 178.988 108.92
34.2476 189.798 98.4245
25.3052 111.382 89.2081
19.4163 148.11 123.372
70.324 101.435 83.2477
39.8842 186.5 97.0168
16.6303 171.388 110.366
54.2334 175.101 103.866
75.1481 136.696 126.322
65.3824 152.918 142.105
55.9324 148.183 41.2764
32.8893 195.437 59.734
47.2547 127.076 148.733
49.5923 146.805 148.787
67.1107 141.528 51.0093
65.2644 125.503 137.204
38.2811 176.61 31.2485
37.9861 148.022 38.0149
50.1657 109.28 113.088
68.3499 152.532 106.981
30.481 131.239 92.8827
29.6394 135.087 70.8696
56.9866 106.749 109.695
20.5995 193.262 41.4524
32.3285 171.408 143.816
31.2755 113.683 93.2409
70.0657 144.031 111.64
25.6543 111.984 98.6217
42.7297 129.02 149.144
28.951 127.941 97.9367
41.7713 111.992 62.8331
33.6316 111.064 60.5939
29.5898 132.898 131.887
70.724 117.414 106.572
40.8112 133.774 41.1177
41.9387 143.445 149.526
32.4435 188.194 103.422
47.0262 101.498 82.8591
35.5947 131.921 136.645
21.2947 165.71 102.56
80.3048 68.1091 222.611
50.2317 105.792 107.259
64.262 162.389 97.3894
18.5123 171.875 32.9941
61.4483 182.047 121.973
24.0669 185.185 111.641
26.7686 131.511 53.7209
66.4 116.798 60.5741
37.9278 166.158 138.526
58.184 174.957 127.407
52.4494 101.526 98.5776
16.0564 195.19 53.8301
58.8822 163.618 137.745
32.0784 113.759 105.119
26.7776 116.155 103.448
33.7893 135.393 148.506
60.1624 186.619 125.713
35.9757 169.968 28.934
75.3882 128.218 91.3873
30.17 108.004 98.6626
41.3797 160.611 150.077
36.3329 190.328 60.4301
11.5661 178.685 7.17798
28.7382 151.705 38.5113
64.6085 157.381 112.707
17.8324 180.512 124.568
59.4589 102.767 95.3604
40.3037 185.953 37.1155
55.5628 152.403 144.965
46.3448 96.7878 96.4376
27.1203 113.849 83.621
64.9118 112.213 68.8968
35.3826 140.282 40.4123
46.585 184.464 33.9879
38.0199 103.104 72.2731
17.7851 96.9281 200.136
54.319 117.378 55.0694
56.3273 145.779 146.817
45.8867 185.243 128.607
24.4599 151.049 72.113
14.2756 177.519 97.1243
59.045 142.113 42.045
47.6861 134.946 42.9877
51.1087 133.027 150.746
63.1598 96.076 81.6744
17.6371 176.838 88.3403
12.887 155.205 133.491
27.0896 132.085 127.751
30.7439 138.855 51.4183
49.1369 148.261 41.6633
29.1804 147.733 149.506
38.3705 180.702 124.87
56.7106 129.191 48.3149
30.514 187.861 94.5565
38.233 139.403 48.5327
33.7842 158.178 147.25
67.8989 113.066 113.668
56.4916 134.673 143.791
73.2996 150.2 73.3974
77.3595 114.05 77.6663
23.1611 170.231 133.884
38.9416 195.058 112.407
60.3131 155.189 121.643
35.9953 106.879 108.876
22.8431 134.084 65.4335
15.1971 172.455 122.423
7.56323 183.185 75.6718
58.9702 168.411 98.6318
31.5038 108.173 76.6848
60.8659 102.161 101.862
48.8436 122.884 136.727
63.2877 136.658 140.703
40.1505 101.806 91.8078
28.8453 150.121 101.168
21.2038 161.811 54.3245
32.1835 136.439 97.3358
36.0111 161.021 139.181
66.0664 100.011 95.9919
35.6921 133.805 48.4963
19.5355 200.457 63.2567
57.1016 126.886 138.878
56.2551 167.608 142.581
42.4772 149.291 37.976
26.6702 130.325 86.0481
49.6739 106.188 68.4902
32.1539 183.773 44.3517
42.0024 106.513 80.6363
51.6667 141.734 34.5619
59.7352 120.253 121.983
61.749 164.716 90.7959
34.5388 122.242 113.241
58.6181 122.141 53.2305
25.2213 120.986 102.627
22.7748 122.589 83.7639
53.1862 171.803 46.4351
35.5383 132.058 113.409
66.9972 128.164 128.107
27.2129 177.113 33.345
61.5449 146.609 143.762
31.4908 187.496 88.3164
23.4717 181.135 125.118
50.2066 175.538 86.9087
63.2191 120.268 57.4187
40.6316 131.631 49.2781
35.6043 180.759 91.3318
47.7287 178.349 99.3296
42.7342 175.241 55.7467
47.8508 184.807 54.3106
19.2987 190.308 102.442
63.5755 165.904 64.2981
31.6928 125.062 52.6168
64.9038 124.383 52.2682
45.4285 149.459 143.376
17.3105 162.278 118.675
24.9202 173.889 130.111
16.5683 173.136 103.242
71.4365 120.869 92.9027
67.7234 165.605 76.0311
65.3326 168.574 108.689
36.8699 123.174 136.364
65.2271 161.475 81.3451
31.4934 131.668 116.809
75.4989 125.579 72.3081
46.9474 118.029 114.556
25.2857 156.533 42.5879
48.0003 119.189 123.231
38.6189 126.577 129.22
64.25 162.523 104.49
26.4281 185.071 91.6897
30.5199 140.42 106.008
14.7997 190.407 49.3968
58.0997 163.169 58.0442
57.2649 184.339 111.975
30.245 163.953 142.435
75.0491 108.44 83.6306
29.5267 116.445 78.2898
73.3537 159.044 110.814
71.0016 111.126 95.3344
40.044 148.184 146.738
75.8347 133.382 76.0395
52.5673 166.182 36.3743
42.2681 178.67 62.4524
29.93 194.666 111.673
61.8354 107.119 69.5284
35.6873 194.908 118.876
59.4703 168.06 75.95
39.5979 190.594 121.307
26.3231 137.091 54.032
32.451 107.736 103.71
43.9162 174.581 30.5971
30.9717 181.126 82.1932
46.5784 112.368 60.6465
56.2523 138.583 147.465
22.8151 152.739 142.642
43.8864 119.755 52.9841
31.0634 189.076 121.768
26.7471 190.612 106.196
66.8782 153.779 65.7188
69.7414 123.668 115.709
65.4655 156.43 93.692
74.0014 123.146 66.4145
50.8681 113.022 59.111
32.5293 192.507 43.0204
39.901 122.789 140.543
10.8063 124.366 18.9756
49.535 155.472 34.2667
40.8088 110.148 74.8627
20.9595 122.768 90.7539
22.0697 193.173 87.6996
6.84219 163.847 66.1621
69.6393 131.248 49.4344
28.8105 164.401 36.6316
85.1869 211.803 171.863
48.3998 163.233 34.5958
22.5542 124.729 77.4316
76.7852 131.524 64.736
75.0901 123.076 79.0805
34.218 181.548 37.691
46.2627 108.499 65.4077
21.3236 195.727 100.434
52.5845 174.634 55.3175
27.5019 121.469 68.4246
42.0044 121.728 45.3301
18.3508 189.301 84.2971
39.5485 154.01 142.862
31.6068 117.212 74.5205
37.2133 166.811 37.7255
47.6747 98.9478 90.2993
26.1258 130.95 61.3359
22.7165 165.629 137.638
60.3591 100.508 72.8973
29.6987 128.788 104.171
61.7758 130.426 143.05
43.0745 132.995 152.874
56.0192 171.065 88.2664
35.9934 127.208 49.598
20.743 169.194 126.245
32.6246 147.328 37.1365
43.0839 100.21 87.3318
74.2593 145.268 77.4154
46.8395 192.674 127.901
40.066 180.9 131.905
28.9142 192.203 84.144
73.3446 147.809 82.6764
62.4113 133.676 46.5921
17.881 163.47 129.764
39.1619 131.926 120.593
60.8318 128.303 50.5067
47.1394 122.114 130.881
28.1678 178.533 90.7325
35.4908 129.658 131.036
38.9439 118.585 54.1433
45.4928 179.475 82.9409
69.5777 127.504 101.867
38.4922 126.618 144.232
67.9826 142.023 126.435
41.0083 109.831 69.0866
41.3589 173.658 79.6795
65.074 159.647 65.4519
63.7371 111.697 63.1035
42.8055 170.025 63.3455
42.3164 170.485 84.2904
54.1906 156.086 36.1943
8.66278 225.405 171.021
30.4126 136.963 58.096
33.5037 191.908 72.3297
44.974 180.717 38.7424
54.6067 171.72 63.0298
37.3404 168.168 76.139
28.7603 144.637 143.232
71.3574 148.519 68.3624
68.1394 155.544 70.604
64.1043 172.603 115.943
29.6018 153.313 152.479
17.3519 182.95 93.2839
48.443 171.321 37.1974
35.8398 133.73 122.597
7.40678 228.984 74.0018
46.386 187.297 68.4624
14.8439 169.074 127.2
66.0009 158.262 118.618
66.8312 163.167 70.291
36.7515 176.585 41.8963
13.3104 189.236 43.2563
29.53 120.588 108.863
50.4488 120.137 50.9305
59.5299 167.721 133.789
18.5823 181.13 118.882
33.8058 144.271 89.6501
38.7473 128.149 58.1671
21.7234 182.954 107.084
36.0064 117.168 65.7913
70.557 135.037 111.707
17.8087 104.519 150.366
49.322 170.547 81.9983
67.4406 132.877 121.289
49.2322 162.602 141.779
74.5048 132.209 80.669
74.0801 128.269 84.2326
23.5792 173.512 113.326
80.768 128.905 85.305
61.7909 156.016 39.2772
21.7094 194.127 72.5424
67.6117 145.031 135.196
75.0531 118.764 72.9369
44.1122 122.08 136.939
35.5055 161.336 35.597
26.4474 187.371 124.184
52.0719 170.251 139.616
68.9425 127.873 57.9361
70.7271 147.671 61.6516
43.3637 180.606 48.7093
28.6887 128.231 57.4949
75.9096 126.424 101.377
71.7613 126.008 109.437
69.8512 142.736 57.4849
31.8632 154.692 34.1513
46.6659 115.004 120.099
76.0788 141.835 71.9929
39.9176 155.055 149.064
74.0675 116.2 88.9373
72.7324 117.157 83.8099
59.8905 116.575 115.577
43.4706 166.102 35.285
62.0548 143.858 49.279
16.9527 210.458 131.697
30.0949 196.321 73.0676
74.8288 149.948 98.6555
48.1278 168.602 68.7396
10.7606 101.287 122.284
56.5475 111.584 113.872
23.0475 141.701 126.027
28.2688 153.749 143.87
58.9227 153.778 46.4251
24.3859 187.808 59.3237
26.4883 187.412 41.0978
14.9212 217.078 116.568
63.0478 144.907 132.194
27.0141 21.0435 88.8822
42.4304 194.664 117.06
65.9444 164.825 111.941
24.1331 182.477 116.281
35.6118 116.709 109.407
75.0717 139.414 79.0505
70.7004 131.526 62.8015
47.1296 176.029 45.4195
69.7163 149.637 56.7951
29.6609 117.355 207.54
69.1446 146.924 117.123
44.187 136.978 153.36
66.9774 150.862 51.8493
22.0698 195.251 53.308
16.81 184.142 102.079
78.9187 134.222 69.5206
54.5839 166.492 67.8615
25.5675 166.477 122.999
65.24 126.152 121.617
52.6285 173.159 72.0686
55.1641 166.661 61.9913
27.4144 193.528 52.5304
18.2914 176.372 114.648
71.0095 120.023 63.2999
20.6323 156.105 141.29
27.4519 179.091 119.24
26.0784 175.886 122.341
22.8939 183.998 41.0112
15.9497 174.789 119.172
9.1604 161.248 72.6906
32.751 182.142 75.7156
65.592 141.428 45.7435
33.1734 191.108 113.856
27.7753 137.852 67.9375
41.0736 165.079 41.2939
75.2079 137.794 60.2301
29.442 193.315 64.384
54.3212 166.129 51.0887
14.6044 226.277 136.388
17.5764 59.8155 110.16
29.903 184.913 52.6333
60.2341 167.31 52.4986
31.3152 196.324 78.2872
41.7889 119.036 129.353
52.3737 160.176 43.2127
28.0037 187.313 113.153
49.6746 178.032 63.5467
55.3421 171.56 79.5985
54.2141 174.599 76.116
27.1852 152.882 138.12
10.3827 189.38 48.3838
49.4195 181.35 37.4905
62.5075 159.101 86.2346
55.1382 129.482 146.596
26.0988 121.331 74.4134
64.903 155.59 61.3151
33.7571 23.6608 80.405
60.3155 168.783 70.6061
42.2377 157.091 43.1477
48.0603 180 112.483
25.1632 69.3563 125.373
10.7228 194.601 151.723
71.3923 159.901 100.165
23.9638 186.303 75.7704
69.8503 150.446 78.0257
6.11465 170.187 84.2243
17.6926 165.899 113.831
64.8896 147.589 42.9365
60.8407 164.923 44.3011
66.463 158.745 74.4285
36.544 178.459 62.9686
32.0083 156.98 40.2493
14.8695 231.621 130.958
56.584 161.872 45.3862
31.7123 130.707 123.802
28.042 184.755 104.422
27.0465 186.859 83.3748
43.1009 168.104 78.3187
26.841 125.049 90.8506
76.4119 143.421 86.5337
26.6932 190.737 78.9617
53.5281 169.671 55.3207
61.0222 151.704 54.9404
68.22 147.303 94.1366
30.4155 154.382 44.3434
19.3805 53.5745 128.353
13.4329 160.503 126.23
32.7504 152.286 141.394
71.4624 125.932 120.454
9.082 211.921 127.488
18.2432 231.764 102.368
33.7567 139.44 47.2992
70.5106 137.142 57.6993
65.2338 170.77 122.795
29.6311 182.979 121.548
23.2377 183.245 121.425
26.0827 222.445 21.007
31.235 189.342 55.0029
11.8138 223.243 156.749
75.144 141.836 107.433
20.5224 172.029 117.369
42.907 177.86 43.5069
38.9482 169.923 69.1727
41.3785 172.705 35.9858
62.4266 151.574 42.347
14.0299 195.971 156.636
74.3479 142.181 64.7766
34.5567 128.073 57.0812
55.1434 164.228 131.958
30.6549 176.468 39.2294
25.7756 156.106 138.26
59.112 162.365 96.81
23.8864 117.374 65.9213
72.703 153.988 64.1353
26.0334 195.232 81.1485
42.2047 171.526 41.5642
21.4835 176.077 122.193
68.6255 161.394 58.5804
31.815 189.978 50.4115
21.6792 81.2465 196.096
14.4996 213.921 141.609
23.2097 66.2247 124.015
40.1155 127.767 133.916
31.306 164.37 43.5933
16.8824 213.225 126.159
23.0563 176.694 117.885
26.9548 121.157 206.509
27.0138 142.979 57.1923
45.7825 179.309 69.9729
